<svg height="24" viewBox="0 0 24 24" width="24" xmlns="http://www.w3.org/2000/svg"><g fill="none" fill-rule="evenodd"><path d="m0 0h24v24h-24z"/><g fill="#335eea"><path d="m5.362 16.276.5-1a.5.5 0 0 1 .447-.276h9.882a.5.5 0 0 1 .447.724l-.5 1a.5.5 0 0 1 -.447.276h-9.882a.5.5 0 0 1 -.447-.724z" opacity=".3"/><path d="m8 3.716h5.107c.935 0 1.779.084 2.53.253s1.395.445 1.932.828.95.874 1.242 1.472c.291.598.437 1.319.437 2.162 0 .905-.169 1.664-.506 2.277a4.106 4.106 0 0 1 -1.369 1.483c-.575.376-1.245.648-2.012.817s-1.58.253-2.438.253h-2.231v6.739h-2.692zm4.716 7.107c.475 0 .928-.034 1.357-.104a3.75 3.75 0 0 0 1.15-.367c.337-.177.606-.418.805-.725.2-.307.299-.705.299-1.196 0-.475-.1-.862-.299-1.161a2.067 2.067 0 0 0 -.793-.702 3.398 3.398 0 0 0 -1.127-.333c-.422-.054-.855-.081-1.3-.081h-2.116v4.669z"/></g></g></svg>