<?xml version="1.0" encoding="UTF-8"?>
<svg version="1.1" xmlns="http://www.w3.org/2000/svg" width="1501" height="668">
<path d="M0 0 C2.12457282 -0.00144219 4.24912132 -0.00574892 6.37368798 -0.01099443 C13.81698409 -0.02933552 21.26020972 -0.03768244 28.70352769 -0.03609133 C35.59759713 -0.03488355 42.49135683 -0.05615066 49.38534778 -0.08757865 C55.35535531 -0.11380762 61.32526166 -0.12445637 67.29532629 -0.12318051 C70.83953286 -0.12267426 74.38346066 -0.12817325 77.92760873 -0.14953661 C81.8698018 -0.1726695 85.81157099 -0.1633576 89.75382066 -0.1513257 C90.90465638 -0.16256472 92.05549211 -0.17380373 93.24120164 -0.18538332 C103.96782241 -0.10249195 113.87986696 2.63813007 121.67886949 10.33451414 C128.2822553 18.2885925 131.15106802 26.82091186 131.05639291 37.08214045 C131.06293339 38.33671062 131.06293339 38.33671062 131.06960601 39.61662564 C131.08051889 42.407842 131.07015881 45.1985599 131.05982041 47.98977232 C131.06327854 50.01569243 131.06804415 52.04161067 131.07400215 54.06752497 C131.08652049 59.62610874 131.08033787 65.18453791 131.07104349 70.74312222 C131.06425677 76.74117699 131.07473241 82.73920514 131.08298326 88.73725462 C131.09555594 99.80556635 131.09446125 110.87383558 131.08624885 121.9421476 C131.07869873 132.16823349 131.07673368 142.39430135 131.08031678 152.62038946 C131.08066051 153.63832901 131.08066051 153.63832901 131.08101119 154.67683299 C131.08194523 157.43168989 131.08290043 160.18654679 131.08389048 162.94140367 C131.09306547 188.77909854 131.08475048 214.61676207 131.06859979 240.4544521 C131.05436481 263.40187564 131.05563574 286.34924924 131.06998277 309.29667234 C131.08605271 335.08594976 131.09241314 360.87519949 131.08314598 386.66448122 C131.08218385 389.41459516 131.08124532 392.16470911 131.08031678 394.91482306 C131.07996093 395.93052428 131.07996093 395.93052428 131.0795979 396.96674473 C131.07618782 407.1848717 131.08017198 417.40297862 131.08775544 427.62110281 C131.09633723 439.24224834 131.09389179 450.86334634 131.07791321 462.48448663 C131.07002938 468.41377725 131.06694092 474.34296651 131.07686067 480.27225637 C131.08580564 485.70101552 131.08087772 491.12957943 131.06492801 496.55832089 C131.06157939 498.52120273 131.06327609 500.4841011 131.07055537 502.4469723 C131.12088156 517.14614332 130.57369901 528.33121108 119.75699449 539.27982664 C111.18808864 547.21768904 102.86587878 548.48613797 91.52090859 548.46873522 C90.48346187 548.47108745 89.44601514 548.47343968 88.37713063 548.47586319 C84.8779989 548.48255484 81.37890429 548.48209491 77.8797667 548.48168516 C75.35478785 548.48498367 72.82980952 548.48870921 70.30483186 548.49282664 C64.07847133 548.50180321 57.85212192 548.50607449 51.6257558 548.50834561 C44.16898805 548.51130795 36.71222973 548.52000552 29.25546693 548.52875989 C11.2321609 548.54960338 -6.79114676 548.56007371 -24.81446203 548.56888949 C-33.34009554 548.57309591 -41.86572836 548.57831789 -50.39136128 548.58357402 C-79.57346558 548.60146362 -108.75557009 548.61646005 -137.93767905 548.62389421 C-139.76970219 548.62436897 -141.60172534 548.62484486 -143.43374848 548.62532188 C-144.34226883 548.62555825 -145.25078919 548.62579463 -146.18684046 548.62603817 C-150.78987205 548.62723937 -155.39290362 548.62845482 -159.9959352 548.62968016 C-160.90942099 548.62992031 -161.82290678 548.63016046 -162.76407396 548.63040788 C-192.38539949 548.63830185 -222.00668499 548.66173601 -251.62799304 548.6942361 C-282.94276588 548.72853154 -314.2575153 548.74824506 -345.57230723 548.75153846 C-349.00973925 548.751956 -352.44717126 548.75243556 -355.88460326 548.75296164 C-356.73100035 548.75308483 -357.57739744 548.75320802 -358.44944293 548.75333494 C-372.07186159 548.75566724 -385.69423376 548.77132877 -399.31663585 548.79180348 C-413.00852624 548.8120562 -426.70036077 548.81754139 -440.39226337 548.80803285 C-448.52622344 548.80281585 -456.6599976 548.80870472 -464.79393093 548.83056752 C-470.86822602 548.8456603 -476.94231196 548.83983888 -483.01661764 548.825897 C-485.47358217 548.82351082 -487.93056452 548.82789651 -490.38750173 548.83972565 C-493.72802697 548.85481316 -497.06762042 548.8451927 -500.40812278 548.82949877 C-501.36126015 548.83972097 -502.31439751 548.84994318 -503.29641783 548.86047515 C-513.38729248 548.75705902 -523.05479553 545.53724882 -530.32113051 538.33451414 C-536.9425515 530.12041283 -538.62105417 522.99628243 -538.61165786 512.62260008 C-538.62173369 511.02141073 -538.62173369 511.02141073 -538.63201308 509.38787413 C-538.65098435 505.86483154 -538.65491704 502.3419796 -538.65706801 498.81888914 C-538.6634971 496.36277263 -538.67022555 493.90665688 -538.67724013 491.45054197 C-538.68921114 486.30263574 -538.69292119 481.15479659 -538.69173598 476.00687742 C-538.69153294 469.42532782 -538.71882144 462.84421071 -538.7532804 456.2627635 C-538.77557005 451.18910848 -538.77957286 446.11555715 -538.77851653 441.0418582 C-538.78086989 438.61628051 -538.78967837 436.19069986 -538.80518126 433.76517057 C-538.82487983 430.36447882 -538.81898694 426.96471452 -538.80697036 423.56400633 C-538.81820937 422.57145338 -538.82944839 421.57890043 -538.84102798 420.55627012 C-538.75344389 410.75226753 -535.78464191 403.1195642 -529.03597426 396.01420164 C-520.00075452 387.16421419 -510.36449523 385.22227251 -498.02636123 385.19648314 C-496.99385255 385.19225122 -496.99385255 385.19225122 -495.94048512 385.1879338 C-493.65801269 385.17967084 -491.37558927 385.17825672 -489.09310317 385.1767993 C-487.44627157 385.17212468 -485.79944124 385.16698006 -484.15261245 385.16140318 C-480.61579551 385.15016227 -477.0789868 385.14170862 -473.54215789 385.13528395 C-467.93291818 385.12454499 -462.32373755 385.1042823 -456.71453261 385.08216429 C-440.76685733 385.02044532 -424.81918556 384.96635451 -408.87142348 384.93314695 C-400.05587922 384.91471075 -391.24043424 384.88566145 -382.42496312 384.84514225 C-377.77096924 384.82421872 -373.11709969 384.80863604 -368.46305633 384.80633497 C-364.07491402 384.80416275 -359.6870303 384.78803617 -355.29896712 384.76194525 C-353.70365369 384.75484701 -352.10830859 384.75260414 -350.51298308 384.75604773 C-322.60193988 384.80659605 -295.32923022 378.1589655 -273.32113051 360.33451414 C-272.55542739 359.73252195 -271.78972426 359.13052977 -271.00081801 358.51029539 C-245.63276399 337.42917733 -235.23064188 302.38623088 -225.74148726 272.20025969 C-224.68778894 268.85771376 -223.62097934 265.5193566 -222.55501723 262.18070555 C-221.20002306 257.93482586 -219.84577071 253.68872096 -218.49630141 249.44108152 C-215.25739955 239.24806525 -211.98320642 229.0668925 -208.68441176 218.89310789 C-208.33168574 217.80507809 -208.33168574 217.80507809 -207.97183394 216.69506788 C-205.81821886 210.0530814 -203.66172343 203.41203107 -201.50429702 196.77128172 C-200.05568847 192.31216105 -198.60798343 187.85274782 -197.16097426 183.39310789 C-196.92161902 182.65558664 -196.68226378 181.9180654 -196.43565536 181.15819502 C-192.94497422 170.39806502 -189.49672471 159.62498063 -186.07202315 148.84368467 C-184.59932777 144.21256618 -183.11956696 139.5836996 -181.63964248 134.95488691 C-180.47285765 131.30302511 -179.31099294 127.64976441 -178.16152358 123.99241209 C-169.48613552 96.40362231 -159.6001738 70.35790522 -140.32113051 48.33451414 C-139.63792739 47.50693602 -138.95472426 46.67935789 -138.25081801 45.82670164 C-112.71578497 15.76885831 -72.69894028 3.86027526 -34.74163222 0.74045897 C-23.18043988 -0.07683333 -11.58432381 0.00443642 0 0 Z " fill="#FFF" transform="translate(587.3211305141449,173.66548585891724)"/>
<path d="M0 0 C1.21259479 -0.00382555 2.42518958 -0.00765109 3.67452967 -0.01159257 C7.02349183 -0.02010038 10.37223341 -0.01969866 13.72118902 -0.01541197 C17.33955371 -0.01293915 20.9578929 -0.02196581 24.57624817 -0.02944946 C31.65852381 -0.04218307 38.74076151 -0.04399183 45.82304667 -0.0416492 C51.58126051 -0.03986438 57.33946286 -0.0416192 63.09767532 -0.04587364 C64.32814203 -0.04676643 64.32814203 -0.04676643 65.58346666 -0.04767724 C67.25006607 -0.04888903 68.91666549 -0.05010316 70.5832649 -0.05131962 C86.2042404 -0.06219001 101.82519429 -0.06003504 117.446171 -0.05393478 C131.72672419 -0.0487661 146.00720916 -0.06002064 160.28774886 -0.07903299 C174.9623979 -0.09841979 189.63701469 -0.10666592 204.31167662 -0.10290974 C212.54581359 -0.10099897 220.7798925 -0.10347317 229.01401901 -0.11762428 C236.02387896 -0.12954978 243.0336451 -0.13092988 250.04350637 -0.11883412 C253.61743207 -0.11295361 257.19118629 -0.1118229 260.76510048 -0.12383652 C264.64548679 -0.13672836 268.52561455 -0.12621114 272.40600586 -0.11352539 C273.52703213 -0.12089968 274.6480584 -0.12827396 275.80305517 -0.13587171 C287.45944207 -0.05583491 296.88704189 2.85801942 305.57998657 10.76069641 C306.32248657 11.58569641 307.06498657 12.41069641 307.82998657 13.26069641 C308.51061157 14.00319641 309.19123657 14.74569641 309.89248657 15.51069641 C316.11725701 24.34585446 317.95992481 34.0969736 316.48916626 44.72309875 C315.97990172 47.47555237 315.41565923 50.21096734 314.82998657 52.94819641 C314.60669678 54.02693024 314.38340698 55.10566406 314.15335083 56.21708679 C313.38806603 59.90026862 312.6092731 63.58045331 311.82998657 67.26069641 C311.41508508 69.2382616 311.00146515 71.21609193 310.58797455 73.19395256 C309.14131617 80.11299326 307.68349735 87.02964049 306.22061157 93.94526672 C304.4528341 102.30245063 302.69426593 110.66154243 300.93936157 119.0214386 C298.2843372 131.6678034 295.62014693 144.31221552 292.95059204 156.95552063 C291.87295145 162.05982682 290.7979233 167.1646727 289.7250061 172.26997375 C288.43816027 178.39117088 287.14430177 184.51084837 285.84550476 190.62952042 C285.36378198 192.90414918 284.88432416 195.17925904 284.40736389 197.4548912 C280.95532196 213.9138564 277.4172419 230.35234638 270.64248657 245.82319641 C270.26011841 246.70104797 269.87775024 247.57889954 269.48379517 248.48335266 C263.28238713 262.31900318 255.01249971 274.08928973 244.82998657 285.26069641 C244.17643188 285.9967511 243.5228772 286.73280579 242.84951782 287.49116516 C217.90224363 314.14059879 177.12982959 325.15705208 141.72302437 326.45338058 C137.54471327 326.55289234 133.36692259 326.55446178 129.18765259 326.55122375 C127.60532827 326.55722986 126.02300684 326.56404005 124.44068909 326.57157898 C120.20147397 326.58901617 115.96233985 326.59392424 111.72309232 326.59521055 C109.06637776 326.59664336 106.40968311 326.6009336 103.75297356 326.60620499 C94.46295766 326.62461809 85.17299864 326.63288497 75.88296509 326.63130188 C67.25365191 326.63009677 58.6245873 326.65129369 49.99533707 326.68278921 C42.55115105 326.70898189 35.10704627 326.71966821 27.66281456 326.71839106 C23.23159248 326.71788313 18.80059289 326.7234752 14.36941719 326.74474716 C10.20850864 326.76418519 6.04803409 326.76421642 1.88710976 326.7497139 C0.3674226 326.74763292 -1.15229222 326.75228405 -2.67193222 326.76443481 C-15.68145334 326.86167 -24.41855403 324.7641521 -33.97079468 315.63179016 C-41.64344967 307.35949606 -43.47067763 299.37363227 -43.43743896 288.31825256 C-43.44197008 287.21353898 -43.44650119 286.1088254 -43.45116961 284.97063565 C-43.46383374 281.26747541 -43.46219191 277.56446186 -43.46054077 273.86128235 C-43.46652478 271.20670017 -43.47327345 268.55212948 -43.480896 265.89755249 C-43.4974935 259.4339724 -43.50300499 252.97042879 -43.50412075 246.50682917 C-43.5050719 241.25104562 -43.50918551 235.99527408 -43.515522 230.73949432 C-43.53313164 215.82912355 -43.5423614 200.91878154 -43.54086106 186.00840029 C-43.54078114 185.20494414 -43.54070123 184.401488 -43.5406189 183.57368469 C-43.54053714 182.7692442 -43.54045537 181.96480371 -43.54037113 181.13598624 C-43.5395585 168.10332305 -43.55869129 155.0707755 -43.58689563 142.03814575 C-43.61564594 128.64725233 -43.62943472 115.25641526 -43.62770808 101.8654902 C-43.62704488 94.35117728 -43.63250631 86.83698557 -43.65406418 79.3227005 C-43.67230436 72.92395241 -43.67660021 66.52538046 -43.66304533 60.12661758 C-43.65652958 56.86451593 -43.65853491 53.60282089 -43.67375183 50.3407383 C-43.68920879 46.797217 -43.67989181 43.25457741 -43.66448975 39.71107483 C-43.67477687 38.68984897 -43.685064 37.66862312 -43.69566286 36.61645103 C-43.59297054 25.8955752 -40.03991674 18.22704864 -32.66610718 10.52632141 C-22.79517368 1.56678866 -12.89261517 -0.04329267 0 0 Z " fill="#FFF" transform="translate(92.17001342773438,53.73930358886719)"/>
<path d="M0 0 C1.02814316 0.00222061 2.05628632 0.00444122 3.11558533 0.00672913 C4.27671341 0.00680466 5.43784149 0.00688019 6.63415527 0.00695801 C8.52943214 0.01469994 8.52943214 0.01469994 10.46299744 0.02259827 C12.39193092 0.02472069 12.39193092 0.02472069 14.35983276 0.02688599 C17.78427561 0.03071034 21.20867628 0.0405399 24.63310242 0.05158997 C28.12522308 0.06180587 31.61735053 0.06638399 35.10948181 0.07142639 C41.96561897 0.08216225 48.82172806 0.09923767 55.67784119 0.12025452 C56.60870901 2.53204842 57.53957667 4.94384239 58.47044373 7.3556366 C59.3185044 9.55288283 60.16656765 11.75012807 61.01463318 13.94737244 C63.19226528 19.58938831 65.36987574 25.23141254 67.54739189 30.87347317 C68.83044402 34.19792664 70.11351332 37.52237348 71.39659119 40.84681702 C71.78734518 41.85925822 71.78734518 41.85925822 72.18599319 42.89215279 C75.90114952 52.51800439 79.61729527 62.14347337 83.33409119 71.76869202 C94.24589109 100.02785 105.14689281 128.29111653 116.00770569 156.56991577 C118.53967165 163.16157089 121.07634036 169.75139692 123.6158905 176.34013367 C125.31659071 180.75423994 127.01455119 185.16939671 128.7118988 189.58479309 C129.51712698 191.67773156 130.32350795 193.77022691 131.13108826 195.86225891 C132.23827952 198.73094355 133.34137296 201.60117073 134.44346619 204.47181702 C134.77362732 205.32429016 135.10378845 206.17676331 135.44395447 207.05506897 C137.67784119 212.89217492 137.67784119 212.89217492 137.67784119 215.12025452 C120.84784119 215.12025452 104.01784119 215.12025452 86.67784119 215.12025452 C84.53284119 209.38650452 82.38784119 203.65275452 80.17784119 197.74525452 C79.49914978 195.93621643 78.82045837 194.12717834 78.12120056 192.26332092 C77.58773836 190.83291621 77.05451851 189.40242109 76.52159119 187.97181702 C76.10055115 186.85359558 76.10055115 186.85359558 75.67100525 185.71278381 C73.67784119 180.34839812 73.67784119 180.34839812 73.67784119 178.12025452 C42.32784119 178.12025452 10.97784119 178.12025452 -21.32215881 178.12025452 C-21.65215881 179.77025452 -21.98215881 181.42025452 -22.32215881 183.12025452 C-23.10954912 185.45933836 -23.93680165 187.78516768 -24.79090881 190.10072327 C-25.03127869 190.75478653 -25.27164856 191.40884979 -25.51930237 192.08273315 C-26.02527186 193.45744716 -26.53299398 194.83151725 -27.04237366 196.20497131 C-27.82303402 198.31011461 -28.5984459 200.41713266 -29.37294006 202.52455139 C-33.15606599 212.78806887 -33.15606599 212.78806887 -34.32215881 215.12025452 C-51.15215881 215.12025452 -67.98215881 215.12025452 -85.32215881 215.12025452 C-81.94716646 203.87028001 -81.94716646 203.87028001 -80.26356506 199.53016663 C-79.88389587 198.54592209 -79.50422668 197.56167755 -79.11305237 196.54760742 C-78.7076825 195.5081044 -78.30231262 194.46860138 -77.88465881 193.39759827 C-77.45254089 192.28055008 -77.02042297 191.16350189 -76.57521057 190.01260376 C-75.4048647 186.9893274 -74.23120297 183.96736525 -73.05601501 180.94596863 C-71.81185142 177.74473212 -70.5721343 174.54177433 -69.33192444 171.33900452 C-67.05284581 165.45527792 -64.77016288 159.57295805 -62.48567963 153.69132805 C-60.1267105 147.61777739 -57.77098748 141.54297083 -55.41590881 135.46791077 C-53.11687211 129.53781194 -50.81751949 123.60783714 -48.51625061 117.67860413 C-42.84224007 103.05711257 -37.19333117 88.42602562 -31.55076599 73.79237366 C-24.73935412 56.12964565 -17.92646359 38.46742947 -11.06175232 20.82533264 C-10.36555734 19.03531893 -9.67025142 17.24495917 -8.97587585 15.45423889 C-8.03529758 13.02939382 -7.09137456 10.6058803 -6.14637756 8.18275452 C-5.87147491 7.47223938 -5.59657227 6.76172424 -5.31333923 6.02967834 C-3.01449865 0.15610779 -3.01449865 0.15610779 0 0 Z M25.67784119 42.12025452 C25.45836823 42.73744354 25.23889526 43.35463257 25.01277161 43.99052429 C22.19604403 51.90992597 19.37557977 59.82799367 16.55284119 67.74525452 C16.32728043 68.37799915 16.10171967 69.01074379 15.86932373 69.66266251 C9.23581961 88.26859316 2.53036563 106.84554424 -4.35780334 125.35902405 C-4.76722672 126.46137642 -4.76722672 126.46137642 -5.18492126 127.58599854 C-5.90635076 129.52701437 -6.63026298 131.46710693 -7.35438538 133.40711975 C-8.37815313 135.79713848 -8.37815313 135.79713848 -8.32215881 137.12025452 C14.44784119 137.12025452 37.21784119 137.12025452 60.67784119 137.12025452 C55.77901762 123.12361577 50.87963807 109.12737107 45.95372009 95.14027405 C45.18910474 92.96775431 44.42542619 90.79490463 43.66270447 88.62171936 C38.19531559 73.045882 32.53758068 57.55288774 26.67784119 42.12025452 C26.34784119 42.12025452 26.01784119 42.12025452 25.67784119 42.12025452 Z " fill="#FFF" transform="translate(953.3221588134766,292.87974548339844)"/>
<path d="M0 0 C6.18201047 5.23740675 10.42682474 11.09611596 14.39453125 18.125 C14.81863281 17.61710937 15.24273438 17.10921875 15.6796875 16.5859375 C27.48550051 2.73032399 42.07138986 -5.84606768 60.39453125 -7.875 C74.53847745 -8.8215704 88.41719063 -6.7391556 99.58203125 2.375 C107.4052775 9.58465831 111.0330686 18.70024982 112.39453125 29.125 C112.53762471 33.11585085 112.52077717 37.10414995 112.50805664 41.09716797 C112.50820267 42.29773331 112.50834869 43.49829865 112.50849915 44.73524475 C112.50792336 48.01372772 112.50292062 51.29216758 112.49592519 54.57064199 C112.48965848 58.0019369 112.48908523 61.43323272 112.48789978 64.86453247 C112.48479623 71.35608758 112.47659603 77.84762577 112.46655029 84.33917344 C112.4553588 91.73215626 112.44987106 99.12513992 112.44485486 106.51812911 C112.43441258 121.72043037 112.41607926 136.92270967 112.39453125 152.125 C98.53453125 152.125 84.67453125 152.125 70.39453125 152.125 C70.38518555 148.96107666 70.37583984 145.79715332 70.36621094 142.53735352 C70.33239956 132.06787058 70.27682722 121.59858389 70.21062851 111.12925816 C70.17116884 104.78350879 70.13897271 98.43789789 70.12353516 92.09204102 C70.108359 85.96457319 70.07389543 79.83748605 70.02622223 73.71018791 C70.01141851 71.37593843 70.00349082 69.0416346 70.0026474 66.70733833 C70.00027307 63.43021481 69.973154 60.15413935 69.94042969 56.87719727 C69.94546005 55.91837646 69.95049042 54.95955566 69.95567322 53.97167969 C69.84122449 46.53300917 68.35642441 40.01284583 62.89453125 34.6875 C56.40216662 30.62977211 50.24786446 29.43744446 42.58203125 30.5234375 C32.33831455 32.99706227 23.21563146 38.14580502 17.39453125 47.125 C16.43679384 50.66184918 16.44750648 54.02319309 16.50805664 57.671875 C16.49728088 58.69716812 16.48650513 59.72246124 16.47540283 60.77882385 C16.44814215 64.14495956 16.46983871 67.50885938 16.4921875 70.875 C16.48279892 73.21770614 16.47033898 75.56040182 16.4549408 77.90307617 C16.42274507 84.05173223 16.43214698 90.19964163 16.45031738 96.34832764 C16.46148344 102.62943664 16.43316387 108.9103553 16.40820312 115.19140625 C16.36507925 127.50281828 16.36956704 139.81353755 16.39453125 152.125 C2.53453125 152.125 -11.32546875 152.125 -25.60546875 152.125 C-25.61481445 148.96107666 -25.62416016 145.79715332 -25.63378906 142.53735352 C-25.66760044 132.06787058 -25.72317278 121.59858389 -25.78937149 111.12925816 C-25.82883116 104.78350879 -25.86102729 98.43789789 -25.87646484 92.09204102 C-25.891641 85.96457319 -25.92610457 79.83748605 -25.97377777 73.71018791 C-25.98858149 71.37593843 -25.99650918 69.0416346 -25.9973526 66.70733833 C-25.99972693 63.43021481 -26.026846 60.15413935 -26.05957031 56.87719727 C-26.05453995 55.91837646 -26.04950958 54.95955566 -26.04432678 53.97167969 C-26.15877551 46.53300917 -27.64357559 40.01284583 -33.10546875 34.6875 C-39.78962574 30.50990188 -45.96255835 29.3314844 -53.828125 30.67578125 C-63.46893183 33.28419979 -73.16593688 38.46155496 -78.60546875 47.125 C-79.205094 50.52438894 -79.16934645 53.88635352 -79.15136719 57.33129883 C-79.16170486 58.35615387 -79.17204254 59.38100891 -79.18269348 60.43692017 C-79.21215186 63.81878367 -79.21362134 67.20004945 -79.21484375 70.58203125 C-79.22982328 72.92902266 -79.24654994 75.27600352 -79.26495361 77.62297058 C-79.30866444 83.79609661 -79.32863468 89.96908042 -79.34368896 96.14233398 C-79.36324643 102.44328229 -79.40521804 108.74407671 -79.4453125 115.04492188 C-79.52065539 127.40492654 -79.56885067 139.76481987 -79.60546875 152.125 C-93.13546875 152.125 -106.66546875 152.125 -120.60546875 152.125 C-120.60546875 100.645 -120.60546875 49.165 -120.60546875 -3.875 C-107.07546875 -3.875 -93.54546875 -3.875 -79.60546875 -3.875 C-79.11046875 4.54 -79.11046875 4.54 -78.60546875 13.125 C-77.36796875 11.949375 -76.13046875 10.77375 -74.85546875 9.5625 C-55.69670054 -7.32825203 -22.36397842 -16.09401746 0 0 Z " fill="#FFF" transform="translate(1411.60546875,355.875)"/>
<path d="M0 0 C13.86 0 27.72 0 42 0 C42 70.95 42 141.9 42 215 C28.14 215 14.28 215 0 215 C-0.33 209.39 -0.66 203.78 -1 198 C-2.6396875 199.7634375 -2.6396875 199.7634375 -4.3125 201.5625 C-17.35083717 214.53197271 -32.1987665 218.29177736 -49.98730469 218.31689453 C-68.13924541 218.08636659 -82.16924436 211.78666369 -95 199 C-95.62648438 198.39671875 -96.25296875 197.7934375 -96.8984375 197.171875 C-113.76173853 179.62183321 -116.45846123 154.2611004 -116.21484375 131.13671875 C-115.63903321 107.94335628 -107.61901221 87.26938362 -91 71 C-78.34038198 59.19605807 -61.36808008 54.19924878 -44.2421875 54.72265625 C-27.805784 56.12866185 -14.57818072 62.25436626 -3 74 C-2.34 74.66 -1.68 75.32 -1 76 C-0.67 50.92 -0.34 25.84 0 0 Z M-61.8203125 103.46484375 C-71.5570741 114.78950016 -73.84001497 128.5841727 -73.15234375 143.04589844 C-72.27353226 154.31834577 -67.43341787 165.33658985 -59 173 C-48.86828345 180.28007448 -39.36253708 181.99050753 -27 181 C-18.50283048 179.31469441 -11.62092043 175.51934615 -5 170 C-4.14438477 169.39317383 -3.28876953 168.78634766 -2.40722656 168.16113281 C1.30946009 163.2804372 0.77314844 158.52428378 0.76953125 152.54296875 C0.7814299 151.32603836 0.79332855 150.10910797 0.80558777 148.8553009 C0.82212445 146.28240931 0.82548986 143.70940417 0.81665039 141.13647461 C0.81252446 137.21077202 0.87754152 133.29023359 0.94726562 129.36523438 C0.95474787 126.86198823 0.95813694 124.35872583 0.95703125 121.85546875 C0.98263626 120.68751266 1.00824127 119.51955658 1.03462219 118.31620789 C0.94967442 112.27676538 0.47471611 108.75103296 -3.84155273 104.33666992 C-21.08954577 89.39876431 -44.73592858 87.65144341 -61.8203125 103.46484375 Z " fill="#FFF" transform="translate(1212,293)"/>
<path d="M0 0 C9.64134834 7.71671007 14.7918004 19.45987362 16.18244171 31.59986305 C16.31012557 34.78968869 16.32027933 37.95564632 16.27832031 41.14770508 C16.27890442 42.33953903 16.27948853 43.53137299 16.28009033 44.75932312 C16.27733145 48.64975396 16.24634271 52.53939259 16.21484375 56.4296875 C16.20513195 59.14637317 16.20148723 61.86305816 16.19769287 64.57975769 C16.18533316 70.96849874 16.15260823 77.35696119 16.11229491 83.74558038 C16.06735694 91.02744497 16.04553521 98.30932391 16.02551317 105.59129298 C15.98386785 120.55192742 15.91060511 135.51220068 15.82421875 150.47265625 C2.29421875 150.47265625 -11.23578125 150.47265625 -25.17578125 150.47265625 C-25.19560059 147.55631348 -25.21541992 144.6399707 -25.23583984 141.63525391 C-25.30288776 131.97607247 -25.38052501 122.31699675 -25.46330833 112.657938 C-25.51315385 106.80437188 -25.55948469 100.95082278 -25.59765625 95.09716797 C-25.63465768 89.44310951 -25.68105741 83.78919768 -25.73384476 78.13526535 C-25.75230997 75.98325561 -25.76744665 73.83121453 -25.77912521 71.67915726 C-25.79612299 68.65395493 -25.82518965 65.62908269 -25.85693359 62.60400391 C-25.85909378 61.72358429 -25.86125397 60.84316467 -25.86347961 59.93606567 C-25.98316841 50.94790677 -26.73616064 41.30715926 -33.17578125 34.47265625 C-40.97561649 28.62277982 -50.08465664 27.73069792 -59.54296875 28.8828125 C-69.63384557 30.865373 -77.67623634 35.53557721 -85.17578125 42.47265625 C-87.25106806 45.58558647 -87.42891404 46.28468102 -87.45425415 49.81962585 C-87.46541763 50.70723602 -87.47658112 51.59484619 -87.48808289 52.50935364 C-87.49024307 53.48039536 -87.49240326 54.45143707 -87.49462891 55.4519043 C-87.50969734 56.98874878 -87.50969734 56.98874878 -87.52507019 58.55664062 C-87.55600502 61.94921295 -87.57296604 65.34170599 -87.58984375 68.734375 C-87.6085471 71.08422025 -87.62811988 73.43405872 -87.64852905 75.78388977 C-87.69994419 81.97343967 -87.73951972 88.16301137 -87.77667236 94.35266113 C-87.81665323 100.66680332 -87.86777252 106.9808541 -87.91796875 113.29492188 C-88.01483918 125.6874423 -88.09817928 138.08000016 -88.17578125 150.47265625 C-102.03578125 150.47265625 -115.89578125 150.47265625 -130.17578125 150.47265625 C-130.17578125 98.99265625 -130.17578125 47.51265625 -130.17578125 -5.52734375 C-116.31578125 -5.52734375 -102.45578125 -5.52734375 -88.17578125 -5.52734375 C-87.68078125 2.88765625 -87.68078125 2.88765625 -87.17578125 11.47265625 C-85.69078125 10.15265625 -84.20578125 8.83265625 -82.67578125 7.47265625 C-60.33635464 -10.7788856 -24.73627038 -17.36424007 0 0 Z " fill="#FFF" transform="translate(1768.17578125,357.52734375)"/>
<path d="M0 0 C13.86 0 27.72 0 42 0 C42 51.48 42 102.96 42 156 C28.14 156 14.28 156 0 156 C0 104.52 0 53.04 0 0 Z " fill="#FFF" transform="translate(1560,352)"/>
<path d="M0 0 C3.41812404 2.06869705 6.32961137 4.47510615 8.28515625 8.01953125 C8.28515625 8.67953125 8.28515625 9.33953125 8.28515625 10.01953125 C8.91421875 9.47683594 9.54328125 8.93414063 10.19140625 8.375 C18.44756897 1.4741411 23.60275649 -1.17914136 34.41015625 -1.35546875 C35.09158691 -1.36964844 35.77301758 -1.38382813 36.47509766 -1.3984375 C41.1440408 -1.35296447 44.32542205 -0.42788464 48.28515625 2.01953125 C53.48714278 7.45797171 55.54323914 11.69251236 55.51220703 19.18676758 C55.51205597 20.40765579 55.51190491 21.62854401 55.51174927 22.88642883 C55.5014267 24.19492294 55.49110413 25.50341705 55.48046875 26.8515625 C55.47673547 28.21204927 55.47388998 29.57253875 55.47189331 30.93302917 C55.46428163 34.50214142 55.44465459 38.07108916 55.42248535 41.64013672 C55.4019736 45.28676122 55.39288023 48.93341248 55.3828125 52.58007812 C55.36140614 59.72663596 55.3262443 66.87305551 55.28515625 74.01953125 C48.68515625 74.01953125 42.08515625 74.01953125 35.28515625 74.01953125 C35.2601001 72.49553711 35.23504395 70.97154297 35.20922852 69.40136719 C35.11510387 63.75072728 35.01489531 58.10020884 34.9128418 52.44970703 C34.86951213 50.00344686 34.82783564 47.55715683 34.7878418 45.11083984 C34.73009187 41.59593707 34.66641063 38.08118434 34.6015625 34.56640625 C34.58485001 33.47148865 34.56813751 32.37657104 34.55091858 31.24847412 C34.52100075 29.71733978 34.52100075 29.71733978 34.49047852 28.15527344 C34.46716209 26.80958282 34.46716209 26.80958282 34.44337463 25.43670654 C34.29174938 23.12025756 34.12474691 21.18676322 33.28515625 19.01953125 C28.22141886 17.33161879 22.86390708 16.89395271 17.88671875 19.06640625 C13.92879873 21.40860974 13.92879873 21.40860974 11.28515625 25.01953125 C11.16675512 26.59159768 11.10812592 28.16836394 11.07983398 29.74462891 C11.05988876 30.72549469 11.03994354 31.70636047 11.01939392 32.71694946 C11.00268143 33.77844208 10.98596893 34.83993469 10.96875 35.93359375 C10.93757835 37.56075821 10.93757835 37.56075821 10.90577698 39.22079468 C10.84024991 42.69530746 10.78138178 46.16989749 10.72265625 49.64453125 C10.67947404 51.99610183 10.63585985 54.34766451 10.59179688 56.69921875 C10.48456527 62.47257654 10.3833067 68.24601223 10.28515625 74.01953125 C3.68515625 74.01953125 -2.91484375 74.01953125 -9.71484375 74.01953125 C-9.7398999 72.49553711 -9.76495605 70.97154297 -9.79077148 69.40136719 C-9.88489613 63.75072728 -9.98510469 58.10020884 -10.0871582 52.44970703 C-10.13048787 50.00344686 -10.17216436 47.55715683 -10.2121582 45.11083984 C-10.26990813 41.59593707 -10.33358937 38.08118434 -10.3984375 34.56640625 C-10.41514999 33.47148865 -10.43186249 32.37657104 -10.44908142 31.24847412 C-10.47899925 29.71733978 -10.47899925 29.71733978 -10.50952148 28.15527344 C-10.53283791 26.80958282 -10.53283791 26.80958282 -10.55662537 25.43670654 C-10.70825062 23.12025756 -10.87525309 21.18676322 -11.71484375 19.01953125 C-16.05992943 17.57116936 -20.1737547 17.49610354 -24.71484375 18.01953125 C-28.15645845 19.67342267 -28.15645845 19.67342267 -30.71484375 22.01953125 C-31.25377762 22.45985184 -31.79271149 22.90017242 -32.34797668 23.35383606 C-34.18107193 25.58768748 -34.11033925 26.98908086 -34.1472168 29.8581543 C-34.16701096 30.83894455 -34.18680511 31.8197348 -34.2071991 32.83024597 C-34.21358902 33.8865773 -34.21997894 34.94290863 -34.2265625 36.03125 C-34.2445137 37.11461136 -34.2624649 38.19797272 -34.28096008 39.31416321 C-34.3351936 42.77841282 -34.36900119 46.24252363 -34.40234375 49.70703125 C-34.43550524 52.05405583 -34.46999379 54.40106206 -34.50585938 56.74804688 C-34.59092785 62.50510838 -34.65767715 68.26212779 -34.71484375 74.01953125 C-41.31484375 74.01953125 -47.91484375 74.01953125 -54.71484375 74.01953125 C-54.71484375 49.59953125 -54.71484375 25.17953125 -54.71484375 0.01953125 C-48.11484375 0.01953125 -41.51484375 0.01953125 -34.71484375 0.01953125 C-34.38484375 2.32953125 -34.05484375 4.63953125 -33.71484375 7.01953125 C-33.13476562 6.60960937 -32.5546875 6.1996875 -31.95703125 5.77734375 C-31.17585938 5.23851562 -30.3946875 4.6996875 -29.58984375 4.14453125 C-28.82414062 3.61085938 -28.0584375 3.0771875 -27.26953125 2.52734375 C-19.6377916 -1.97701635 -8.42859178 -3.04399502 0 0 Z " fill="#FFF" transform="translate(1102.71484375,616.98046875)"/>
<path d="M0 0 C9.013125 -0.0825 18.02625 -0.165 27.3125 -0.25 C31.54767456 -0.30462402 31.54767456 -0.30462402 35.8684082 -0.36035156 C38.13752485 -0.37204763 40.40664997 -0.38223727 42.67578125 -0.390625 C43.82864624 -0.41108887 44.98151123 -0.43155273 46.16931152 -0.45263672 C57.25652062 -0.45735619 66.0380681 2.09329964 74.12109375 9.84375 C81.50309297 18.31539984 81.6504542 28.2244544 81.17919922 38.953125 C80.59987537 45.57036091 77.45348664 51.56234946 72.97265625 56.3984375 C65.016664 62.85775794 56.53393728 65.13758541 46.51171875 65.09765625 C45.22483154 65.09515869 43.93794434 65.09266113 42.61206055 65.09008789 C40.98695557 65.08098389 39.36185059 65.07187988 37.6875 65.0625 C32.510625 65.041875 27.33375 65.02125 22 65 C22 76.88 22 88.76 22 101 C14.74 101 7.48 101 0 101 C0 67.67 0 34.34 0 0 Z M22 19 C22 27.91 22 36.82 22 46 C27.6925 46.0928125 27.6925 46.0928125 33.5 46.1875 C34.68013672 46.21481201 35.86027344 46.24212402 37.07617188 46.27026367 C44.4619123 46.3282375 50.70183985 45.95988732 56.4375 40.8125 C58.45038597 37.18930526 59.20353567 34.14398623 59 30 C57.36491068 25.27640862 55.11871492 22.78013257 51 20 C47.76248322 18.92082774 45.42248229 18.88574399 42.01953125 18.90234375 C40.97128174 18.90484131 39.92303223 18.90733887 38.84301758 18.90991211 C37.51294678 18.91901611 36.18287598 18.92812012 34.8125 18.9375 C30.584375 18.958125 26.35625 18.97875 22 19 Z " fill="#FFF" transform="translate(1264,590)"/>
<path d="M0 0 C7.0875165 6.91938198 7.0875165 6.91938198 8 12 C5.71125827 13.33858524 3.41930344 14.67101014 1.125 16 C0.47402344 16.3815625 -0.17695312 16.763125 -0.84765625 17.15625 C-5.7734375 20 -5.7734375 20 -8 20 C-8.70125 18.948125 -9.4025 17.89625 -10.125 16.8125 C-14.396985 10.60555709 -20.66760698 7.39062626 -28 6 C-37.30209625 4.96110609 -45.55816741 7.42590462 -53.3125 12.625 C-59.73801381 17.83665905 -63.12917105 25.08299203 -65 33 C-66.10408981 44.75984031 -64.63254658 55.62287135 -57 65 C-50.27823671 72.1542628 -42.7072817 75.18416654 -32.9375 75.5 C-23.39276441 75.18943377 -16.60036151 71.8563312 -10 65 C-9.01 63.515 -9.01 63.515 -8 62 C-3.85701333 62.59834725 -0.81805623 64.00664285 2.8125 66.0625 C3.78832031 66.61035156 4.76414062 67.15820312 5.76953125 67.72265625 C6.50558594 68.14417969 7.24164062 68.56570312 8 69 C6.66668983 76.51653606 -0.70896285 82.09422213 -6.53125 86.4609375 C-18.47824937 93.90890862 -33.87238077 94.91232309 -47.375 91.8125 C-60.53837927 87.95242797 -71.96880884 80.01161824 -79 68 C-85.68212041 54.09102111 -88.02817079 37.32774183 -82.96484375 22.37109375 C-82.64644531 21.58863281 -82.32804688 20.80617187 -82 20 C-81.67128906 19.16597656 -81.34257813 18.33195312 -81.00390625 17.47265625 C-75.64459661 5.43738997 -65.93724317 -3.5390605 -53.69140625 -8.28125 C-34.99848658 -14.33213729 -15.45938547 -13.19378588 0 0 Z " fill="#FFF" transform="translate(976,108)"/>
<path d="M0 0 C5.28 0 10.56 0 16 0 C16 33.33 16 66.66 16 101 C10.72 101 5.44 101 0 101 C-0.495 97.535 -0.495 97.535 -1 94 C-1.47308594 94.39832031 -1.94617187 94.79664063 -2.43359375 95.20703125 C-10.64734153 101.7876362 -18.46535778 104.12491129 -29 103 C-38.46610308 100.94925867 -45.4416724 95.87879446 -51 88 C-57.32545292 75.65393527 -57.85714573 60.9584817 -54.03515625 47.71484375 C-50.84277829 39.34238079 -44.89889288 32.15130969 -36.9453125 27.90234375 C-27.95100636 24.36062979 -18.1147427 24.91846526 -9.31640625 28.63671875 C-7 30 -7 30 -1 35 C-0.67 23.45 -0.34 11.9 0 0 Z M-34.375 48.6875 C-38.98110978 55.48998365 -39.51172898 62.32961243 -38.53515625 70.35546875 C-37.09448375 77.47470437 -33.90772161 81.9007646 -28 86 C-23.2233203 88.63974404 -18.14378071 88.75497923 -12.91796875 87.5 C-7.77510408 85.76932279 -2.52011026 83.04022053 0 78 C0.32585719 73.58979106 0.32460807 69.17074666 0.375 64.75 C0.41238281 63.52152344 0.44976563 62.29304688 0.48828125 61.02734375 C0.76724588 53.69523594 0.76724588 53.69523594 -2.2578125 47.2890625 C-7.77523398 42.68335169 -13.52756083 40.21930653 -20.8046875 40.625 C-26.61456657 41.61743486 -30.64111349 44.15801539 -34.375 48.6875 Z " fill="#FFF" transform="translate(1434,98)"/>
<path d="M0 0 C7.59122519 5.38651292 12.73349089 12.52382273 15.08203125 21.56640625 C17.13136004 34.2519208 16.01162204 46.6827569 8.3671875 57.3671875 C1.02491443 66.02730446 -8.13872747 70.23880571 -19.2578125 71.3046875 C-31.28866778 71.9223143 -40.67475321 69.53995347 -50.0703125 61.9921875 C-56.95638609 55.65414053 -61.12053901 46.86426049 -61.68359375 37.55078125 C-61.99074059 24.78620125 -60.61097857 14.14584042 -51.4453125 4.4921875 C-48.94054782 2.16556341 -46.35932313 0.27649111 -43.4453125 -1.5078125 C-42.775 -1.92289063 -42.1046875 -2.33796875 -41.4140625 -2.765625 C-29.08445439 -8.97384317 -11.43203971 -7.04914908 0 0 Z M-35.3203125 16.8046875 C-39.66717599 22.30219133 -41.62488111 27.5002347 -41.4453125 34.4921875 C-40.34647693 40.99690162 -38.34263078 46.0301864 -33.4453125 50.4921875 C-28.8797408 53.15707055 -24.59292479 54.04653261 -19.390625 53.046875 C-13.50296532 51.36806441 -10.51546937 49.25558703 -7.5078125 43.9921875 C-4.63210556 37.5361302 -4.13059592 30.93578263 -6.14453125 24.12890625 C-8.49497617 18.86271954 -11.97415648 15.09200148 -17.29296875 12.640625 C-24.09773867 10.39491564 -29.87651957 12.42598449 -35.3203125 16.8046875 Z " fill="#FFF" transform="translate(1468.4453125,621.5078125)"/>
<path d="M0 0 C1.32161133 -0.01740234 1.32161133 -0.01740234 2.66992188 -0.03515625 C10.81615107 0.00091561 18.11496694 1.46655898 24.3125 7.0625 C25.03179688 7.68511719 25.75109375 8.30773437 26.4921875 8.94921875 C32.17048489 16.02998718 31.84376607 23.74539743 31.73046875 32.40625 C31.72622391 33.63790894 31.72197906 34.86956787 31.71760559 36.1385498 C31.70088749 40.05092744 31.66324662 43.96277949 31.625 47.875 C31.60824452 50.53645079 31.59625755 53.19789665 31.58398438 55.859375 C31.55100624 62.36478413 31.49927023 68.86980312 31.4375 75.375 C24.8375 75.375 18.2375 75.375 11.4375 75.375 C11.1075 73.725 10.7775 72.075 10.4375 70.375 C9.74527344 70.88160156 9.74527344 70.88160156 9.0390625 71.3984375 C1.26126511 76.71685232 -6.49597101 78.12983317 -15.82421875 76.96875 C-23.4504973 75.31512041 -29.1145948 71.94684005 -33.4453125 65.4140625 C-37.27193996 58.4297984 -37.56423281 51.18811013 -35.375 43.6875 C-33.0413546 37.34085691 -28.40406323 33.57132705 -22.5625 30.375 C-12.71590066 27.09867178 -2.55618619 27.82869479 6.6953125 32.4375 C7.27023437 32.746875 7.84515625 33.05625 8.4375 33.375 C9.4275 33.87 9.4275 33.87 10.4375 34.375 C10.95924631 27.62973334 10.95924631 27.62973334 8.8125 21.375 C4.50550349 17.74805557 0.17036043 16.96081662 -5.41796875 17.12109375 C-12.00299279 17.9007414 -17.20880598 20.55093284 -22.5625 24.375 C-23.5525 24.705 -24.5425 25.035 -25.5625 25.375 C-26.79014874 23.47064732 -27.99411233 21.5510079 -29.1875 19.625 C-29.86039063 18.55765625 -30.53328125 17.4903125 -31.2265625 16.390625 C-32.5625 13.375 -32.5625 13.375 -32.0546875 11.17578125 C-30.24965492 8.99745659 -28.49768084 7.75742534 -26.0625 6.3125 C-25.2684375 5.82652344 -24.474375 5.34054687 -23.65625 4.83984375 C-15.85926478 1.14808938 -8.58046125 -0.11348149 0 0 Z M-14.375 46.75 C-16.0434662 49.03316427 -16.43066688 50.54058784 -16.5625 53.375 C-15.01016848 57.46008294 -13.5258256 60.3933372 -9.5625 62.375 C-3.14396401 64.04097815 2.51459635 63.37213197 8.4375 60.375 C10.25546453 59.17165063 10.25546453 59.17165063 11.4375 57.375 C11.79963568 54.86210325 11.79963568 54.86210325 11.625 52.1875 C11.59792969 51.28644531 11.57085938 50.38539063 11.54296875 49.45703125 C11.50816406 48.76996094 11.47335937 48.08289063 11.4375 47.375 C10.344375 46.735625 9.25125 46.09625 8.125 45.4375 C7.51011719 45.07785156 6.89523437 44.71820312 6.26171875 44.34765625 C-1.0820414 40.43203253 -8.00198944 41.91530233 -14.375 46.75 Z " fill="#FFF" transform="translate(998.5625,615.625)"/>
<path d="M0 0 C8.39674113 5.6876039 12.06365492 13.59276834 15.09375 23.015625 C16.01920784 28.17096957 15.7578125 33.47709139 15.7578125 38.71484375 C-2.7221875 38.71484375 -21.2021875 38.71484375 -40.2421875 38.71484375 C-35.29950902 49.95713446 -35.29950902 49.95713446 -26.2421875 55.71484375 C-17.76965571 58.29049341 -9.96136659 56.76402717 -2.2421875 52.71484375 C-1.54867188 52.15410156 -0.85515625 51.59335938 -0.140625 51.015625 C0.79910156 50.37173828 0.79910156 50.37173828 1.7578125 49.71484375 C5.41942828 50.93538234 5.92051724 52.08266679 7.9453125 55.27734375 C8.47511719 56.10363281 9.00492188 56.92992187 9.55078125 57.78125 C9.94910156 58.41933594 10.34742188 59.05742187 10.7578125 59.71484375 C8.87338064 64.92806242 4.65112151 66.15597617 -0.09765625 68.38671875 C-10.59304694 72.81955457 -23.04520759 73.58581692 -33.87109375 69.74609375 C-44.22180591 65.24430131 -51.04306997 59.2601166 -55.6796875 48.83984375 C-59.03709044 38.52055334 -58.99263296 25.02096447 -54.5546875 15.06640625 C-49.28555946 5.62588519 -42.20957328 -0.88510055 -31.8515625 -4.453125 C-20.60957799 -7.04462143 -9.96561965 -5.71200151 0 0 Z M-36.1171875 15.65234375 C-38.73690669 19.4278214 -40.2421875 22.0983848 -40.2421875 26.71484375 C-27.0421875 26.71484375 -13.8421875 26.71484375 -0.2421875 26.71484375 C-3.54316891 16.33137788 -3.54316891 16.33137788 -11.4296875 9.83984375 C-20.76251442 7.08589482 -29.44438907 8.12355952 -36.1171875 15.65234375 Z " fill="#FFF" transform="translate(1050.2421875,129.28515625)"/>
<path d="M0 0 C8.39674113 5.6876039 12.06365492 13.59276834 15.09375 23.015625 C16.01920784 28.17096957 15.7578125 33.47709139 15.7578125 38.71484375 C-2.7221875 38.71484375 -21.2021875 38.71484375 -40.2421875 38.71484375 C-35.25249983 49.9707811 -35.25249983 49.9707811 -26.2421875 55.71484375 C-18.71833032 58.22279614 -11.56837868 56.95065248 -4.43359375 53.8828125 C-2.16673328 52.76373576 -2.16673328 52.76373576 -0.14453125 51.015625 C0.79712891 50.37173828 0.79712891 50.37173828 1.7578125 49.71484375 C5.35635599 50.91435825 5.94398065 51.99409598 8.0078125 55.08984375 C8.54921875 55.88132813 9.090625 56.6728125 9.6484375 57.48828125 C10.7578125 59.71484375 10.7578125 59.71484375 9.7578125 62.71484375 C-0.58745523 71.0431096 -13.3497317 72.80691059 -26.2421875 71.71484375 C-35.48353115 70.14407712 -44.06137691 65.74525019 -50.1171875 58.52734375 C-57.64892331 47.75500294 -58.55864979 36.510742 -57.2421875 23.71484375 C-55.4775009 14.75566564 -50.82607072 7.24558148 -43.58984375 1.671875 C-29.98952088 -7.37635078 -14.27695118 -8.18313056 0 0 Z M-36.1171875 15.65234375 C-38.73690669 19.4278214 -40.2421875 22.0983848 -40.2421875 26.71484375 C-27.0421875 26.71484375 -13.8421875 26.71484375 -0.2421875 26.71484375 C-3.54316891 16.33137788 -3.54316891 16.33137788 -11.4296875 9.83984375 C-20.76251442 7.08589482 -29.44438907 8.12355952 -36.1171875 15.65234375 Z " fill="#FFF" transform="translate(1352.2421875,129.28515625)"/>
<path d="M0 0 C7.59 0 15.18 0 23 0 C23.0453695 9.06726863 23.081984 18.13446059 23.10362434 27.20181751 C23.11401597 31.41315272 23.12808966 35.62440555 23.15087891 39.83569336 C23.17277349 43.90761297 23.18460328 47.97945386 23.18975449 52.05142784 C23.19342066 53.5969841 23.20057884 55.14253655 23.21146011 56.68805885 C23.30170351 70.04966651 23.2949552 83.17130981 14 93.6875 C5.37634442 101.6716896 -5.64157555 103.22079011 -17 103 C-27.23052597 102.15386627 -33.75795508 99.24204492 -41 92 C-38.03 86.72 -35.06 81.44 -32 76 C-28.60298835 76 -27.98029907 76.52729093 -25.3125 78.4375 C-20.50444295 81.52274319 -16.65877362 82.64095304 -10.859375 81.625 C-6.05197076 80.20058393 -4.35240283 78.47002743 -1.86125946 73.96665764 C-0.49188892 70.83974507 -0.47792318 67.98457243 -0.45410156 64.59594727 C-0.44376389 63.892668 -0.43342621 63.18938873 -0.42277527 62.46479797 C-0.39353058 60.16509526 -0.3918521 57.86627963 -0.390625 55.56640625 C-0.37563083 53.96213623 -0.35890109 52.35788158 -0.34051514 50.75364685 C-0.29696776 46.55005148 -0.27687074 42.3466643 -0.26177979 38.1428833 C-0.24216296 33.845782 -0.20019821 29.54890405 -0.16015625 25.25195312 C-0.08499069 16.83466671 -0.03668463 8.41754217 0 0 Z " fill="#FFF" transform="translate(926,590)"/>
<path d="M0 0 C-0.47770523 1.93786085 -0.95721571 3.87527674 -1.4375 5.8125 C-1.70433594 6.89144531 -1.97117187 7.97039063 -2.24609375 9.08203125 C-2.76077412 11.0740843 -3.34937175 13.04811524 -4 15 C-4.60328125 14.91621094 -5.2065625 14.83242188 -5.828125 14.74609375 C-6.62734375 14.64425781 -7.4265625 14.54242187 -8.25 14.4375 C-9.03890625 14.33308594 -9.8278125 14.22867188 -10.640625 14.12109375 C-13.30429051 13.86927936 -13.30429051 13.86927936 -17 15 C-17.66 18.63 -18.32 22.26 -19 26 C-14.38 26 -9.76 26 -5 26 C-5 31.94 -5 37.88 -5 44 C-9.62 44 -14.24 44 -19 44 C-19 62.48 -19 80.96 -19 100 C-25.93 100 -32.86 100 -40 100 C-40 81.52 -40 63.04 -40 44 C-43.96 44 -47.92 44 -52 44 C-52 38.06 -52 32.12 -52 26 C-48.04 26 -44.08 26 -40 26 C-40.061875 25.05125 -40.12375 24.1025 -40.1875 23.125 C-40.12156932 14.96607774 -37.45557042 8.4971588 -31.83203125 2.625 C-22.60052082 -5.5632907 -10.70725526 -3.75536301 0 0 Z " fill="#FFF" transform="translate(1220,591)"/>
<path d="M0 0 C0.70769531 -0.01224609 1.41539063 -0.02449219 2.14453125 -0.03710938 C6.25932929 -0.04860322 9.42660538 0.3528062 13.125 2.1875 C12.81491116 3.79213449 12.50183713 5.39619231 12.1875 7 C12.01347656 7.89332031 11.83945313 8.78664063 11.66015625 9.70703125 C11.125 12.1875 11.125 12.1875 10.125 15.1875 C9.37734375 15.14109375 8.6296875 15.0946875 7.859375 15.046875 C1.99168625 14.72984739 1.99168625 14.72984739 -3.4375 16.5625 C-5.65589282 20.61347819 -6.15593832 24.6334427 -6.875 29.1875 C-1.925 29.1875 3.025 29.1875 8.125 29.1875 C8.125 33.8075 8.125 38.4275 8.125 43.1875 C3.175 43.1875 -1.775 43.1875 -6.875 43.1875 C-6.875 62.6575 -6.875 82.1275 -6.875 102.1875 C-12.485 102.1875 -18.095 102.1875 -23.875 102.1875 C-23.875 82.7175 -23.875 63.2475 -23.875 43.1875 C-27.835 43.1875 -31.795 43.1875 -35.875 43.1875 C-35.875 38.5675 -35.875 33.9475 -35.875 29.1875 C-31.915 29.1875 -27.955 29.1875 -23.875 29.1875 C-23.7821875 26.279375 -23.7821875 26.279375 -23.6875 23.3125 C-23.110081 16.05125836 -21.5264062 9.65473439 -16.09375 4.49609375 C-10.78496111 0.54824439 -6.39676001 0.00576285 0 0 Z " fill="#FFF" transform="translate(1243.875,96.8125)"/>
<path d="M0 0 C5.61 0 11.22 0 17 0 C17 6.6 17 13.2 17 20 C21.62 20 26.24 20 31 20 C31 24.62 31 29.24 31 34 C26.38 34 21.76 34 17 34 C17.06878084 39.92693237 17.15670042 45.85315276 17.26245117 51.77954102 C17.2957271 53.79606235 17.32375068 55.81267742 17.34643555 57.8293457 C17.37993256 60.726481 17.43224544 63.62275518 17.48828125 66.51953125 C17.49467117 67.42274612 17.5010611 68.325961 17.50764465 69.25654602 C17.53733589 70.5175135 17.53733589 70.5175135 17.56762695 71.80395508 C17.57873001 72.54341873 17.58983307 73.28288239 17.60127258 74.04475403 C18.11706759 76.57406622 18.92022016 77.49754389 21 79 C24.57443924 78.74468291 27.60365077 78.13211641 31 77 C31.53532823 78.55759343 32.05265378 80.12138045 32.5625 81.6875 C32.85253906 82.55761719 33.14257812 83.42773438 33.44140625 84.32421875 C34.06657124 87.31889019 34.00742394 89.11600206 33 92 C26.64375053 95.47794782 20.13952571 95.8636523 13 95 C7.62632198 93.37742839 4.06065611 90.77462353 1 86 C0.02360569 83.07081707 -0.12136181 81.20974262 -0.11352539 78.16137695 C-0.11344986 77.1805867 -0.11337433 76.19979645 -0.11329651 75.18928528 C-0.10813522 74.13295395 -0.10297394 73.07662262 -0.09765625 71.98828125 C-0.0962413 70.90491989 -0.09482635 69.82155853 -0.09336853 68.70536804 C-0.08776559 65.24105075 -0.07521258 61.7767978 -0.0625 58.3125 C-0.05748538 55.96549572 -0.05292241 53.61849044 -0.04882812 51.27148438 C-0.0377952 45.51429808 -0.02052858 39.75715995 0 34 C-3.96 34 -7.92 34 -12 34 C-12 29.38 -12 24.76 -12 20 C-8.04 20 -4.08 20 0 20 C0 13.4 0 6.8 0 0 Z " fill="#FFF" transform="translate(1136,106)"/>
<path d="M0 0 C6.1572873 3.75250986 10.97354615 9.54330734 13.125 16.44140625 C14.75707762 24.12091433 13.40170674 30.66847037 9.5625 37.5 C5.96282536 42.2490757 1.54981036 46.31523187 -4.4375 47.5 C-12.34504533 48.25489693 -19.98083392 48.6537514 -26.4375 43.5 C-32.70493415 37.76542463 -36.39381748 31.68102667 -36.875 23.125 C-36.52317324 15.26302512 -33.77737452 9.32481351 -28 4 C-20.38730226 -2.46086347 -9.31595801 -4.12824806 0 0 Z " fill="#FFF" transform="translate(1592.4375,282.5)"/>
<path d="M0 0 C0 6.27 0 12.54 0 19 C-2.97 19.37125 -2.97 19.37125 -6 19.75 C-11.78502456 20.63417406 -16.02588276 21.93900478 -21 25 C-22.19822872 27.39645744 -22.15627315 28.95662027 -22.20532227 31.63330078 C-22.22526749 32.59414581 -22.24521271 33.55499084 -22.26576233 34.54495239 C-22.29083107 36.10438065 -22.29083107 36.10438065 -22.31640625 37.6953125 C-22.33718735 38.75789276 -22.35796844 39.82047302 -22.37937927 40.91525269 C-22.44490261 44.31843438 -22.50377273 47.72169489 -22.5625 51.125 C-22.60568257 53.42839366 -22.64929677 55.73177926 -22.69335938 58.03515625 C-22.80058687 63.69002284 -22.90184649 69.34496892 -23 75 C-29.6 75 -36.2 75 -43 75 C-43 50.58 -43 26.16 -43 1 C-36.4 1 -29.8 1 -23 1 C-22.67 3.64 -22.34 6.28 -22 9 C-21.5875 8.60167969 -21.175 8.20335937 -20.75 7.79296875 C-14.00990984 1.60953782 -9.21539121 0 0 0 Z " fill="#FFF" transform="translate(1400,616)"/>
<path d="M0 0 C0 5.61 0 11.22 0 17 C-2.64 17 -5.28 17 -8 17 C-10.76822019 17.62099899 -10.76822019 17.62099899 -13.1875 18.6875 C-13.98542969 19.00074219 -14.78335937 19.31398437 -15.60546875 19.63671875 C-18.86950619 21.49503697 -20.67968947 22.98132521 -23 26 C-23.75801391 29.7291779 -23.72130132 33.41146577 -23.70703125 37.20703125 C-23.72215256 38.28756271 -23.73727386 39.36809418 -23.75285339 40.48136902 C-23.79576758 43.92529102 -23.80457244 47.36833713 -23.8125 50.8125 C-23.83564125 53.15041397 -23.8610058 55.48830707 -23.88867188 57.82617188 C-23.95156173 63.55085882 -23.98386789 69.27499804 -24 75 C-29.28 75 -34.56 75 -40 75 C-40 50.91 -40 26.82 -40 2 C-34.72 2 -29.44 2 -24 2 C-23.67 4.64 -23.34 7.28 -23 10 C-22.05125 9.0925 -21.1025 8.185 -20.125 7.25 C-13.99997062 2.00707424 -8.00966053 0 0 0 Z " fill="#FFF" transform="translate(1121,124)"/>
<path d="M0 0 C5.61 0 11.22 0 17 0 C17 24.09 17 48.18 17 73 C11.39 73 5.78 73 0 73 C0 48.91 0 24.82 0 0 Z " fill="#FFF" transform="translate(1263,126)"/>
<path d="M0 0 C5.28 0 10.56 0 16 0 C16 24.09 16 48.18 16 73 C10.72 73 5.44 73 0 73 C0 48.91 0 24.82 0 0 Z " fill="#FFF" transform="translate(1181,126)"/>
<path d="M0 0 C2.79750031 2.18341487 3.75038246 3.67510688 4.40625 7.15625 C4.68798756 11.38231346 4.37979323 13.44757348 1.9375 17 C-1.59944442 19.40813237 -3.72563406 20 -8 20 C-11.20929055 18.84949961 -13.25778834 17.94463303 -15.375 15.25 C-16.58126353 10.90745129 -16.58703817 7.32083588 -14.75 3.1875 C-10.72184644 -1.84769195 -5.84737947 -1.62009963 0 0 Z " fill="#FFF" transform="translate(1277,95)"/>
<path d="M0 0 C2.77428577 1.26103899 4.48317435 2.31089914 6.3125 4.75 C7.50202252 8.64298281 7.462582 12.33470481 6.375 16.25 C4.25778834 18.94463303 2.20929055 19.84949961 -1 21 C-5.27436594 21 -7.40055558 20.40813237 -10.9375 18 C-13.37206575 14.45881346 -13.72498381 12.37469649 -13.5 8.15625 C-12.70000747 4.70628222 -10.74407005 3.09072004 -8 1 C-5.17998673 -0.41000664 -3.12992745 -0.24548451 0 0 Z " fill="#FFF" transform="translate(1192,94)"/>
</svg>
