<svg enable-background="new 0 0 652 652" viewBox="0 0 652 652" xmlns="http://www.w3.org/2000/svg"><g fill="#fff"><path d="m145.5 244.1c-20.4 0-32.6 8.5-38.2 27.1l-14.1 44.1c-5.2 14.5-13.7 20.4-28.9 20.4h-35.2c-4.4 0-8.2 3.7-8.2 8.2v22.6c0 4.1 3.3 7.4 7.8 7.4h143.1c4.4 0 8.2-3.7 8.2-8.2v-113.8c0-4.4-3.3-7.8-7.8-7.8zm-116.1-25.9c-4.4 0-8.5 4.1-8.5 8.5v60.1c0 4.8 3.7 8.5 8.5 8.5h30.4c13.7 0 33-3 38.2-27.4 0 0 5.2-24.8 8.2-39.3 1.1-5.6-3-10.4-8.5-10.4z"/><path d="m587.9 267.5c0-20.4 13.7-30 33-30.8v16.7h-3.3c-8.5 0-13 7-13 15.6v13.3h15.6v14.8h-15.6v82.3h-16.7v-82.7h-14.5v-14.7h14.5zm-57.9 53.4c0-16.7-9.6-24.1-21.1-24.1-13.7 0-24.1 8.9-24.1 24.8v58.6h-16.7v-59.3c0-16.7-9.6-24.1-21.1-24.1-13.7 0-24.1 8.9-24.1 24.8v58.6h-16.3v-96.8h16.7v11.5h.4c4.4-10 16.3-13.7 26.3-13.7 9.6 0 20.4 2.6 28.2 16.7 5.9-12.2 18.5-16.7 31.1-16.7 20.8 0 36.7 12.6 36.7 37.8v61.2h-16.7v-59.3zm-200.9 8.1c-20.4 0-27.1 10-27.1 19.3s6.7 19.3 27.1 19.3 27.1-10 27.1-19.3c-.1-9.2-7.1-19.3-27.1-19.3zm26.3-13.7c0-15.9-15.9-19.7-28.6-19.7-8.9 0-17.4 2.2-26.3 6.7l-7.4-13.7c14.5-6.3 26-7.4 34.5-7.4 23 0 44.5 10 44.5 33v66h-15.6v-10.4c-8.5 8.9-17.8 12.6-30.4 12.6-23.4 0-41.9-13-41.9-34.9 0-17.8 14.8-33.4 41.5-33.4 10 0 20.8 3 29.7 11.1zm-102.7-74.9c6.3 0 11.5 5.2 11.5 11.5 0 6.7-5.2 11.9-11.5 11.9s-11.5-5.2-11.5-11.5c0-6.7 5.2-11.9 11.5-11.9zm-7.8 42.3h16.7l.4 109.4c0 25.2-16.3 33.7-34.5 33.7h-6.3v-15.6h6.3c16.3 0 17.8-8.9 17.8-17.4z"/></g></svg>