<svg height="24" viewBox="0 0 24 24" width="24" xmlns="http://www.w3.org/2000/svg"><g fill="none" fill-rule="evenodd"><path d="m0 0h24v24h-24z"/><g fill="#335eea"><path d="m19.802 9.244a2.904 2.904 0 0 0 -1.314-.999 4.353 4.353 0 0 0 -1.584-.315c-.66 0-1.26.12-1.8.36s-1.005.57-1.395.99-.69.912-.9 1.476a5.221 5.221 0 0 0 -.315 1.836c0 .696.102 1.332.306 1.908s.495 1.071.873 1.485.831.735 1.359.963 1.122.342 1.782.342c.684 0 1.29-.135 1.818-.405s.954-.627 1.278-1.071l1.818 1.278a5.825 5.825 0 0 1 -2.07 1.647c-.816.39-1.77.585-2.862.585-.996 0-1.911-.165-2.745-.495a6.324 6.324 0 0 1 -2.151-1.386 6.31 6.31 0 0 1 -1.404-2.124c-.336-.822-.504-1.731-.504-2.727 0-1.02.177-1.941.531-2.763a6.153 6.153 0 0 1 1.458-2.097 6.473 6.473 0 0 1 2.187-1.332 7.798 7.798 0 0 1 4.014-.351c.444.078.87.198 1.278.36s.792.363 1.152.603.666.528.918.864z"/><path d="m2.72 8.92c0-.396.075-.768.225-1.116a2.92 2.92 0 0 1 1.539-1.539c.348-.15.72-.225 1.116-.225s.768.075 1.116.225a2.92 2.92 0 0 1 1.539 1.539c.15.348.225.72.225 1.116s-.075.768-.225 1.116a2.92 2.92 0 0 1 -1.539 1.539c-.348.15-.72.225-1.116.225s-.768-.075-1.116-.225a2.92 2.92 0 0 1 -1.539-1.539 2.789 2.789 0 0 1 -.225-1.116zm1.404 0c0 .408.144.756.432 1.044s.636.432 1.044.432.756-.144 1.044-.432.432-.636.432-1.044-.144-.756-.432-1.044a1.422 1.422 0 0 0 -1.044-.432c-.408 0-.756.144-1.044.432a1.422 1.422 0 0 0 -.432 1.044z" opacity=".3"/></g></g></svg>