<svg height="24" viewBox="0 0 24 24" width="24" xmlns="http://www.w3.org/2000/svg"><g fill="none" fill-rule="evenodd"><path d="m0 0h24v24h-24z"/><g fill="#335eea"><path d="m11.604 6h8.396v2h-6v3.728h5.488v1.908h-5.488v5.364h-2.396z"/><path d="m3.72 8.92c0-.396.075-.768.225-1.116a2.92 2.92 0 0 1 1.539-1.539c.348-.15.72-.225 1.116-.225s.768.075 1.116.225a2.92 2.92 0 0 1 1.539 1.539c.15.348.225.72.225 1.116s-.075.768-.225 1.116a2.92 2.92 0 0 1 -1.539 1.539c-.348.15-.72.225-1.116.225s-.768-.075-1.116-.225a2.92 2.92 0 0 1 -1.539-1.539 2.789 2.789 0 0 1 -.225-1.116zm1.404 0c0 .408.144.756.432 1.044s.636.432 1.044.432.756-.144 1.044-.432.432-.636.432-1.044-.144-.756-.432-1.044a1.422 1.422 0 0 0 -1.044-.432c-.408 0-.756.144-1.044.432a1.422 1.422 0 0 0 -.432 1.044z" opacity=".3"/></g></g></svg>