<svg xmlns="http://www.w3.org/2000/svg"><defs><font horiz-adv-x="1169"><font-face ascent="1638" bbox="-1196 -578 2583 2148" cap-height="1462" descent="-410" panose-1="2 11 7 6 3 8 4 2 2 4" underline-position="-103" underline-thickness="102" unicode-range="U+0020-FFFD" units-per-em="2048" x-height="1106"/><missing-glyph d="M193 1462h841v-1462h-841v1462zM297 104h633v1254h-633v-1254z" horiz-adv-x="1229"/><glyph d="M723 928h-270v-928h-236v928h-182v110l182 72v72q0 196 92 290.5t281 94.5q124 0 244-41l-62-178q-87 28-166 28-80 0-116.5-49.5t-36.5-148.5v-72h270v-178zM1146 0h-235v1106h235v-1106zM897 1399q0 63 34.5 97t98.5 34q62 0 96.5-34t34.5-97q0-60-34.5-94.5t-96.5-34.5q-64 0-98.5 34.5t-34.5 94.5z" glyph-name="uniFB01" horiz-adv-x="1315" unicode="&#x66;&#x69;"/><glyph d="M723 928h-270v-928h-236v928h-182v110l182 72v72q0 196 92 290.5t281 94.5q124 0 244-41l-62-178q-87 28-166 28-80 0-116.5-49.5t-36.5-148.5v-72h270v-178zM1146 0h-235v1556h235v-1556z" glyph-name="uniFB02" horiz-adv-x="1315" unicode="&#x66;&#x6c;"/><glyph d="M723 928h-270v-928h-236v928h-182v110l182 72v72q0 196 92 290.5t281 94.5q124 0 244-41l-62-178q-87 28-166 28-80 0-116.5-49.5t-36.5-148.5v-72h270v-178zM1466 928h-270v-928h-236v928h-182v110l182 72v72q0 196 92 290.5t281 94.5q124 0 244-41l-62-178q-87 28-166 28-80 0-116.5-49.5t-36.5-148.5v-72h270v-178zM1890 0h-235v1106h235v-1106zM1641 1399q0 63 34.5 97t98.5 34q62 0 96.5-34t34.5-97q0-60-34.5-94.5t-96.5-34.5q-64 0-98.5 34.5t-34.5 94.5z" glyph-name="uniFB03" horiz-adv-x="2058" unicode="&#x66;&#x66;&#x69;"/><glyph d="M723 928h-270v-928h-236v928h-182v110l182 72v72q0 196 92 290.5t281 94.5q124 0 244-41l-62-178q-87 28-166 28-80 0-116.5-49.5t-36.5-148.5v-72h270v-178zM1466 928h-270v-928h-236v928h-182v110l182 72v72q0 196 92 290.5t281 94.5q124 0 244-41l-62-178q-87 28-166 28-80 0-116.5-49.5t-36.5-148.5v-72h270v-178zM1890 0h-235v1556h235v-1556z" glyph-name="uniFB04" horiz-adv-x="2058" unicode="&#x66;&#x66;&#x6c;"/><glyph d="M723 928h-270v-928h-236v928h-182v110l182 72v72q0 196 92 290.5t281 94.5q124 0 244-41l-62-178q-87 28-166 28-80 0-116.5-49.5t-36.5-148.5v-72h270v-178zM1466 928h-270v-928h-236v928h-182v110l182 72v72q0 196 92 290.5t281 94.5q124 0 244-41l-62-178q-87 28-166 28-80 0-116.5-49.5t-36.5-148.5v-72h270v-178z" glyph-name="ff" horiz-adv-x="1487" unicode="&#x66;&#x66;"/><glyph d="M193 1462h841v-1462h-841v1462zM297 104h633v1254h-633v-1254z" glyph-name=".notdef" horiz-adv-x="1229"/><glyph glyph-name="null" horiz-adv-x="0"/><glyph glyph-name="nonmarkingreturn" horiz-adv-x="1044"/><glyph glyph-name="space" horiz-adv-x="532" unicode="&#x20;"/><glyph d="M371 444h-174l-52 1018h277zM133 125q0 74 39 112.5t111 38.5q71 0 109-40t38-111-38.5-112.5-108.5-41.5q-71 0-110.5 40t-39.5 114z" glyph-name="exclam" horiz-adv-x="565" unicode="&#x21;"/><glyph d="M365 1462l-41-528h-150l-41 528h232zM760 1462l-41-528h-150l-41 528h232z" glyph-name="quotedbl" horiz-adv-x="893" unicode="&#x22;"/><glyph d="M989 870l-55-284h270v-168h-303l-80-418h-178l80 418h-248l-80-418h-174l76 418h-250v168h283l57 284h-264v168h293l80 422h180l-80-422h252l80 422h174l-80-422h252v-168h-285zM506 586h250l57 284h-250z" glyph-name="numbersign" horiz-adv-x="1323" unicode="&#x23;"/><glyph d="M1063 453q0-145-106-239t-306-116v-217h-133v211q-248 4-407 76v211q86-42 201-70.5t206-29.5v374l-84 31q-164 63-239.5 150.5t-75.5 216.5q0 138 107.5 227t291.5 108v168h133v-165q203-7 385-82l-73-183q-157 62-312 74v-364l76-29q190-73 263-154t73-198zM827 438q0 58-40.5 95.5t-135.5 72.5v-319q176 27 176 151zM354 1053q0-57 35.5-95t128.5-75v311q-80-12-122-49t-42-92z" glyph-name="dollar" unicode="&#x24;"/><glyph d="M279 1024q0-149 29-222t95-73q132 0 132 295t-132 295q-66 0-95-73t-29-222zM729 1026q0-230-82.5-345.5t-243.5-115.5q-152 0-235.5 119.5t-83.5 341.5q0 457 319 457 157 0 241.5-118.5t84.5-338.5zM1231 440q0-149 29.5-223t95.5-74q131 0 131 297 0 293-131 293-66 0-95.5-72t-29.5-221zM1681 440q0-230-83-345t-242-115q-152 0-236 118.5t-84 341.5q0 457 320 457 154 0 239.5-118t85.5-339zM1384 1462l-811-1462h-194l811 1462h194z" glyph-name="percent" horiz-adv-x="1765" unicode="&#x25;"/><glyph d="M451 1147q0-63 33.5-119t93.5-119q113 64 158.5 119.5t45.5 124.5q0 65-43.5 104t-115.5 39q-79 0-125.5-40.5t-46.5-108.5zM600 182q183 0 313 107l-383 377q-106-68-146-127.5t-40-135.5q0-98 69.5-159.5t186.5-61.5zM96 387q0 131 64 228.5t231 193.5q-95 111-129.5 187.5t-34.5 158.5q0 152 108.5 240t291.5 88q177 0 278-85.5t101-230.5q0-114-67.5-207t-225.5-186l346-334q81 107 135 314h242q-70-284-224-463l301-291h-303l-149 145q-102-82-217.5-123.5t-255.5-41.5q-230 0-361 109t-131 298z" glyph-name="ampersand" horiz-adv-x="1516" unicode="&#x26;"/><glyph d="M365 1462l-41-528h-150l-41 528h232z" glyph-name="quotesingle" horiz-adv-x="498" unicode="&#x27;"/><glyph d="M82 561q0 265 77.5 496t223.5 405h205q-139-188-213-421.5t-74-477.5 74-473 211-414h-203q-147 170-224 397t-77 488z" glyph-name="parenleft" horiz-adv-x="649" unicode="&#x28;"/><glyph d="M567 561q0-263-77.5-490t-223.5-395h-203q138 187 211.5 415t73.5 472q0 245-74 477.5t-213 421.5h205q147-175 224-406.5t77-494.5z" glyph-name="parenright" horiz-adv-x="649" unicode="&#x29;"/><glyph d="M672 1556l-41-382 385 108 28-217-360-29 236-311-199-107-166 338-149-338-205 107 231 311-358 29 35 217 376-108-41 382h228z" glyph-name="asterisk" horiz-adv-x="1122" unicode="&#x2a;"/><glyph d="M494 633h-398v178h398v408h180v-408h399v-178h-399v-406h-180v406z" glyph-name="plus" unicode="&#x2b;"/><glyph d="M412 215q-48-186-176-479h-173q69 270 103 502h231z" glyph-name="comma" horiz-adv-x="547" unicode="&#x2c;"/><glyph d="M72 449v200h514v-200h-514z" glyph-name="hyphen" horiz-adv-x="659" unicode="&#x2d;"/><glyph d="M133 125q0 73 38 112t110 39q73 0 111-40.5t38-110.5q0-71-38.5-112.5t-110.5-41.5-110 41-38 113z" glyph-name="period" horiz-adv-x="563" unicode="&#x2e;"/><glyph d="M782 1462l-544-1462h-222l545 1462h221z" glyph-name="slash" horiz-adv-x="799" unicode="&#x2f;"/><glyph d="M1081 731q0-381-122.5-566t-374.5-185q-244 0-370 191t-126 560q0 387 122.5 570.5t373.5 183.5q245 0 371-192t126-562zM326 731q0-299 61.5-427t196.5-128 197.5 130 62.5 425q0 294-62.5 425.5t-197.5 131.5-196.5-129-61.5-428z" glyph-name="zero" unicode="&#x30;"/><glyph d="M780 0h-235v944q0 169 8 268-23-24-56.5-53t-224.5-184l-118 149 430 338h196v-1462z" glyph-name="one" unicode="&#x31;"/><glyph d="M1081 0h-991v178l377 379q167 171 221.5 242.5t79.5 134.5 25 135q0 99-59.5 156t-164.5 57q-84 0-162.5-31t-181.5-112l-127 155q122 103 237 146t245 43q204 0 327-106.5t123-286.5q0-99-35.5-188t-109-183.5-244.5-255.5l-254-246v-10h694v-207z" glyph-name="two" unicode="&#x32;"/><glyph d="M1026 1126q0-139-81-231.5t-228-124.5v-8q176-22 264-109.5t88-232.5q0-211-149-325.5t-424-114.5q-243 0-410 79v209q93-46 197-71t200-25q170 0 254 63t84 195q0 117-93 172t-292 55h-127v191h129q350 0 350 242 0 94-61 145t-180 51q-83 0-160-23.5t-182-91.5l-115 164q201 148 467 148 221 0 345-95t124-262z" glyph-name="three" unicode="&#x33;"/><glyph d="M1133 319h-197v-319h-229v319h-668v181l668 966h229v-952h197v-195zM707 514v367q0 196 10 321h-8q-28-66-88-160l-363-528h449z" glyph-name="four" unicode="&#x34;"/><glyph d="M586 913q221 0 350-117t129-319q0-234-146.5-365.5t-416.5-131.5q-245 0-385 79v213q81-46 186-71t195-25q159 0 242 71t83 208q0 262-334 262-47 0-116-9.5t-121-21.5l-105 62 56 714h760v-209h-553l-33-362q35 6 85.5 14t123.5 8z" glyph-name="five" unicode="&#x35;"/><glyph d="M94 623q0 858 699 858 110 0 186-17v-196q-76 22-176 22-235 0-353-126t-128-404h12q47 81 132 125.5t200 44.5q199 0 310-122t111-331q0-230-128.5-363.5t-350.5-133.5q-157 0-273 75.5t-178.5 220-62.5 347.5zM604 174q121 0 186.5 78t65.5 223q0 126-61.5 198t-184.5 72q-76 0-140-32.5t-101-89-37-115.5q0-141 76.5-237.5t195.5-96.5z" glyph-name="six" unicode="&#x36;"/><glyph d="M256 0l578 1253h-760v207h1011v-164l-575-1296h-254z" glyph-name="seven" unicode="&#x37;"/><glyph d="M584 1481q208 0 329-95.5t121-255.5q0-225-270-358 172-86 244.5-181t72.5-212q0-181-133-290t-360-109q-238 0-369 102t-131 289q0 122 68.5 219.5t224.5 173.5q-134 80-191 169t-57 200q0 159 125 253.5t326 94.5zM313 379q0-104 73-161.5t198-57.5q129 0 200.5 59.5t71.5 161.5q0 81-66 148t-200 124l-29 13q-132-58-190-127.5t-58-159.5zM582 1300q-100 0-161-49.5t-61-134.5q0-52 22-93t64-74.5 142-80.5q120 53 169.5 111.5t49.5 136.5q0 85-61.5 134.5t-163.5 49.5z" glyph-name="eight" unicode="&#x38;"/><glyph d="M1079 838q0-432-174-645t-524-213q-133 0-191 16v197q89-25 179-25 238 0 355 128t128 402h-12q-59-90-142.5-130t-195.5-40q-194 0-305 121t-111 332q0 229 128.5 364.5t350.5 135.5q156 0 272-76t179-220.5 63-346.5zM569 1286q-122 0-187-79.5t-65-223.5q0-125 60.5-196.5t183.5-71.5q119 0 200 71t81 166q0 89-34.5 166.5t-96.5 122.5-142 45z" glyph-name="nine" unicode="&#x39;"/><glyph d="M133 125q0 73 38 112t110 39q73 0 111-40.5t38-110.5q0-71-38.5-112.5t-110.5-41.5-110 41-38 113zM133 979q0 151 148 151 75 0 112-40t37-111-38.5-112.5-110.5-41.5-110 41-38 113z" glyph-name="colon" horiz-adv-x="563" unicode="&#x3a;"/><glyph d="M397 238l15-23q-48-186-176-479h-173q69 270 103 502h231zM131 979q0 151 148 151 75 0 112-40t37-111-38.5-112.5-110.5-41.5-110 41-38 113z" glyph-name="semicolon" horiz-adv-x="569" unicode="&#x3b;"/><glyph d="M1073 221l-977 430v121l977 488v-195l-733-344 733-303v-197z" glyph-name="less" unicode="&#x3c;"/><glyph d="M102 831v179h963v-179h-963zM102 432v178h963v-178h-963z" glyph-name="equal" unicode="&#x3d;"/><glyph d="M96 418l733 303-733 344v195l977-488v-121l-977-430v197z" glyph-name="greater" unicode="&#x3e;"/><glyph d="M283 444v64q0 110 40 183t140 151q119 94 153.5 146t34.5 124q0 84-56 129t-161 45q-95 0-176-27t-158-65l-84 176q203 113 435 113 196 0 311-96t115-265q0-75-22-133.5t-66.5-111.5-153.5-138q-93-73-124.5-121t-31.5-129v-45h-196zM242 125q0 151 147 151 72 0 110-39.5t38-111.5q0-71-38.5-112.5t-109.5-41.5-109 40.5-38 113.5z" glyph-name="question" horiz-adv-x="928" unicode="&#x3f;"/><glyph d="M1726 739q0-143-45-261.5t-126.5-184.5-188.5-66q-79 0-137 42t-78 114h-12q-49-78-121-117t-162-39q-163 0-256.5 105t-93.5 284q0 206 124 334.5t333 128.5q76 0 168.5-13.5t164.5-37.5l-22-465v-24q0-160 104-160 79 0 125.5 102t46.5 260q0 171-70 300.5t-199 199.5-296 70q-213 0-370.5-88t-240.5-251.5-83-379.5q0-290 155-446t445-156q221 0 461 90v-164q-210-86-457-86-370 0-577 199.5t-207 556.5q0 261 112 464.5t310.5 311.5 449.5 108q217 0 386.5-90t263-256.5 93.5-384.5zM698 612q0-233 183-233 193 0 211 293l12 239q-63 17-135 17-128 0-199.5-85t-71.5-231z" glyph-name="at" horiz-adv-x="1839" unicode="&#x40;"/><glyph d="M1100 0l-146 406h-559l-143-406h-252l547 1468h260l547-1468h-254zM891 612l-137 398q-15 40-41.5 126t-36.5 126q-27-123-79-269l-132-381h426z" glyph-name="A" horiz-adv-x="1354" unicode="&#x41;"/><glyph d="M193 1462h434q302 0 436.5-88t134.5-278q0-128-66-213t-190-107v-10q154-29 226.5-114.5t72.5-231.5q0-197-137.5-308.5t-382.5-111.5h-528v1462zM432 858h230q150 0 219 47.5t69 161.5q0 103-74.5 149t-236.5 46h-207v-404zM432 664v-463h254q150 0 226.5 57.5t76.5 181.5q0 114-78 169t-237 55h-242z" glyph-name="B" horiz-adv-x="1352" unicode="&#x42;"/><glyph d="M815 1278q-206 0-324-146t-118-403q0-269 113.5-407t328.5-138q93 0 180 18.5t181 47.5v-205q-172-65-390-65-321 0-493 194.5t-172 556.5q0 228 83.5 399t241.5 262 371 91q224 0 414-94l-86-199q-74 35-156.5 61.5t-173.5 26.5z" glyph-name="C" horiz-adv-x="1298" unicode="&#x43;"/><glyph d="M1382 745q0-362-201-553.5t-579-191.5h-409v1462h452q349 0 543-188t194-529zM1130 737q0 525-491 525h-207v-1061h170q528 0 528 536z" glyph-name="D" horiz-adv-x="1503" unicode="&#x44;"/><glyph d="M1020 0h-827v1462h827v-202h-588v-398h551v-200h-551v-459h588v-203z" glyph-name="E" horiz-adv-x="1143" unicode="&#x45;"/><glyph d="M430 0h-237v1462h825v-202h-588v-457h551v-203h-551v-600z" glyph-name="F" horiz-adv-x="1090" unicode="&#x46;"/><glyph d="M791 793h538v-734q-132-43-253.5-61t-262.5-18q-332 0-512 196.5t-180 554.5q0 353 203 552.5t559 199.5q229 0 434-88l-84-199q-178 82-356 82-234 0-370-147t-136-402q0-268 122.5-407.5t352.5-139.5q116 0 248 29v377h-303v205z" glyph-name="G" horiz-adv-x="1487" unicode="&#x47;"/><glyph d="M1346 0h-240v659h-674v-659h-239v1462h239v-598h674v598h240v-1462z" glyph-name="H" horiz-adv-x="1538" unicode="&#x48;"/><glyph d="M664 0h-590v137l176 58v1071l-176 59v137h590v-137l-175-59v-1071l175-58v-137z" glyph-name="I.alt" horiz-adv-x="739"/><glyph d="M8-408q-98 0-164 25v201q84-21 146-21 196 0 196 248v1417h240v-1409q0-224-106.5-342.5t-311.5-118.5z" glyph-name="J" horiz-adv-x="612" unicode="&#x4a;"/><glyph d="M1309 0h-277l-459 662-141-115v-547h-239v1462h239v-698q98 120 195 231l395 467h272q-383-450-549-641z" glyph-name="K" horiz-adv-x="1309" unicode="&#x4b;"/><glyph d="M193 0v1462h239v-1257h619v-205h-858z" glyph-name="L" horiz-adv-x="1110" unicode="&#x4c;"/><glyph d="M825 0l-424 1221h-8q17-272 17-510v-711h-217v1462h337l406-1163h6l418 1163h338v-1462h-230v723q0 109 5.5 284t9.5 212h-8l-439-1219h-211z" glyph-name="M" horiz-adv-x="1890" unicode="&#x4d;"/><glyph d="M1411 0h-293l-719 1165h-8l5-65q14-186 14-340v-760h-217v1462h290l717-1159h6q-2 23-8 167.5t-6 225.5v766h219v-1462z" glyph-name="N" horiz-adv-x="1604" unicode="&#x4e;"/><glyph d="M1491 733q0-357-178.5-555t-505.5-198q-331 0-508.5 196.5t-177.5 558.5 178.5 556 509.5 194q326 0 504-197t178-555zM375 733q0-270 109-409.5t323-139.5q213 0 321.5 138t108.5 411q0 269-107.5 408t-320.5 139q-215 0-324.5-139t-109.5-408z" glyph-name="O" horiz-adv-x="1612" unicode="&#x4f;"/><glyph d="M1161 1020q0-229-150-351t-427-122h-152v-547h-239v1462h421q274 0 410.5-112t136.5-330zM432 748h127q184 0 270 64t86 200q0 126-77 188t-240 62h-166v-514z" glyph-name="P" horiz-adv-x="1260" unicode="&#x50;"/><glyph d="M1491 733q0-266-101.5-448t-295.5-256l350-377h-322l-276 328h-39q-331 0-508.5 196.5t-177.5 558.5 178.5 556 509.5 194q326 0 504-197t178-555zM375 733q0-270 109-409.5t323-139.5q213 0 321.5 138t108.5 411q0 269-107.5 408t-320.5 139q-215 0-324.5-139t-109.5-408z" glyph-name="Q" horiz-adv-x="1612" unicode="&#x51;"/><glyph d="M432 782h166q167 0 242 62t75 184q0 124-81 178t-244 54h-158v-478zM432 584v-584h-239v1462h413q283 0 419-106t136-320q0-273-284-389l413-647h-272l-350 584h-236z" glyph-name="R" horiz-adv-x="1309" unicode="&#x52;"/><glyph d="M1036 397q0-195-141-306t-389-111-406 77v226q100-47 212.5-74t209.5-27q142 0 209.5 54t67.5 145q0 82-62 139t-256 135q-200 81-282 185t-82 250q0 183 130 288t349 105q210 0 418-92l-76-195q-195 82-348 82-116 0-176-50.5t-60-133.5q0-57 24-97.5t79-76.5 198-95q161-67 236-125t110-131 35-172z" glyph-name="S" horiz-adv-x="1126" unicode="&#x53;"/><glyph d="M698 0h-239v1257h-430v205h1099v-205h-430v-1257z" glyph-name="T" horiz-adv-x="1159" unicode="&#x54;"/><glyph d="M1339 1462v-946q0-162-69.5-283.5t-201-187-314.5-65.5q-272 0-423 144t-151 396v942h240v-925q0-181 84-267t258-86q338 0 338 355v923h239z" glyph-name="U" horiz-adv-x="1520" unicode="&#x55;"/><glyph d="M1026 1462h248l-512-1462h-252l-510 1462h246l305-909q24-65 51-167.5t35-152.5q13 76 40 176t44 148z" glyph-name="V" horiz-adv-x="1274" unicode="&#x56;"/><glyph d="M1542 0h-260l-248 872q-16 57-40 164.5t-29 149.5q-10-64-32.5-166t-37.5-152l-242-868h-260l-189 732-192 730h244l209-852q49-205 70-362 11 85 33 190t40 170l238 854h237l244-858q35-119 74-356 15 143 72 364l208 850h242z" glyph-name="W" horiz-adv-x="1937" unicode="&#x57;"/><glyph d="M1270 0h-275l-366 598-369-598h-256l485 758-454 704h266l338-553 338 553h258l-457-708z" glyph-name="X" horiz-adv-x="1274" unicode="&#x58;"/><glyph d="M606 795l346 667h260l-487-895v-567h-240v559l-485 903h260z" glyph-name="Y" horiz-adv-x="1212" unicode="&#x59;"/><glyph d="M1112 0h-1046v166l737 1091h-717v205h1006v-168l-740-1089h760v-205z" glyph-name="Z" horiz-adv-x="1178" unicode="&#x5a;"/><glyph d="M625-324h-471v1786h471v-176h-256v-1433h256v-177z" glyph-name="bracketleft" horiz-adv-x="676" unicode="&#x5b;"/><glyph d="M238 1462l544-1462h-221l-545 1462h222z" glyph-name="backslash" horiz-adv-x="799" unicode="&#x5c;"/><glyph d="M51-147h256v1433h-256v176h469v-1786h-469v177z" glyph-name="bracketright" horiz-adv-x="676" unicode="&#x5d;"/><glyph d="M29 535l436 935h121l485-935h-194l-349 694-307-694h-192z" glyph-name="asciicircum" horiz-adv-x="1100" unicode="&#x5e;"/><glyph d="M883-319h-887v135h887v-135z" glyph-name="underscore" horiz-adv-x="879" unicode="&#x5f;"/><glyph d="M690 1241q-69 52-174.5 150.5t-153.5 156.5v21h273q38-70 103.5-161t109.5-142v-25h-158z" glyph-name="grave" horiz-adv-x="1212" unicode="&#x60;"/><glyph d="M860 0l-47 154h-8q-80-101-161-137.5t-208-36.5q-163 0-254.5 88t-91.5 249q0 171 127 258t387 95l191 6v59q0 106-49.5 158.5t-153.5 52.5q-85 0-163-25t-150-59l-76 168q90 47 197 71.5t202 24.5q211 0 318.5-92t107.5-289v-745h-168zM510 160q128 0 205.5 71.5t77.5 200.5v96l-142-6q-166-6-241.5-55.5t-75.5-151.5q0-74 44-114.5t132-40.5z" glyph-name="a" horiz-adv-x="1188" unicode="&#x61;"/><glyph d="M733 1126q207 0 322.5-150t115.5-421q0-272-117-423.5t-325-151.5q-210 0-326 151h-16l-43-131h-176v1556h235v-370q0-41-4-122t-6-103h10q112 165 330 165zM672 934q-142 0-204.5-83.5t-64.5-279.5v-16q0-202 64-292.5t209-90.5q125 0 189.5 99t64.5 286q0 377-258 377z" glyph-name="b" horiz-adv-x="1276" unicode="&#x62;"/><glyph d="M614-20q-251 0-381.5 146.5t-130.5 420.5q0 279 136.5 429t394.5 150q175 0 315-65l-71-189q-149 58-246 58-287 0-287-381 0-186 71.5-279.5t209.5-93.5q157 0 297 78v-205q-63-37-134.5-53t-173.5-16z" glyph-name="c" horiz-adv-x="1014" unicode="&#x63;"/><glyph d="M541-20q-207 0-323 150t-116 421q0 272 117.5 423.5t325.5 151.5q218 0 332-161h12q-17 119-17 188v403h236v-1556h-184l-41 145h-11q-113-165-331-165zM604 170q145 0 211 81.5t68 264.5v33q0 209-68 297t-213 88q-124 0-191-100.5t-67-286.5q0-184 65-280.5t195-96.5z" glyph-name="d" horiz-adv-x="1276" unicode="&#x64;"/><glyph d="M651-20q-258 0-403.5 150.5t-145.5 414.5q0 271 135 426t371 155q219 0 346-133t127-366v-127h-737q5-161 87-247.5t231-86.5q98 0 182.5 18.5t181.5 61.5v-191q-86-41-174-58t-201-17zM608 948q-112 0-179.5-71t-80.5-207h502q-2 137-66 207.5t-176 70.5z" glyph-name="e" horiz-adv-x="1180" unicode="&#x65;"/><glyph d="M723 928h-270v-928h-236v928h-182v110l182 72v72q0 196 92 290.5t281 94.5q124 0 244-41l-62-178q-87 28-166 28-80 0-116.5-49.5t-36.5-148.5v-72h270v-178z" glyph-name="f" horiz-adv-x="743" unicode="&#x66;"/><glyph d="M1102 1106v-129l-189-35q26-35 43-86t17-108q0-171-118-269t-325-98q-53 0-96 8-76-47-76-110 0-38 35.5-57t130.5-19h193q183 0 278-78t95-225q0-188-155-290t-448-102q-226 0-345 80t-119 228q0 102 64.5 171.5t180.5 96.5q-47 20-77.5 64.5t-30.5 93.5q0 62 35 105t104 85q-86 37-139.5 120.5t-53.5 195.5q0 180 113.5 279t323.5 99q47 0 98.5-6.5t77.5-13.5h383zM233-172q0-76 68.5-117t192.5-41q192 0 286 55t94 146q0 72-51.5 102.5t-191.5 30.5h-178q-101 0-160.5-47.5t-59.5-128.5zM334 748q0-104 53.5-160t153.5-56q204 0 204 218 0 108-50.5 166.5t-153.5 58.5q-102 0-154.5-58t-52.5-169z" glyph-name="g" horiz-adv-x="1139" unicode="&#x67;"/><glyph d="M1141 0h-236v680q0 128-51.5 191t-163.5 63q-148 0-217.5-88.5t-69.5-296.5v-549h-235v1556h235v-395q0-95-12-203h15q48 80 133.5 124t199.5 44q402 0 402-405v-721z" glyph-name="h" horiz-adv-x="1300" unicode="&#x68;"/><glyph d="M403 0h-235v1106h235v-1106zM154 1399q0 63 34.5 97t98.5 34q62 0 96.5-34t34.5-97q0-60-34.5-94.5t-96.5-34.5q-64 0-98.5 34.5t-34.5 94.5z" glyph-name="i" horiz-adv-x="571" unicode="&#x69;"/><glyph d="M55-492q-106 0-176 25v186q68-18 139-18 150 0 150 170v1235h235v-1251q0-171-89.5-259t-258.5-88zM154 1399q0 63 34.5 97t98.5 34q62 0 96.5-34t34.5-97q0-60-34.5-94.5t-96.5-34.5q-64 0-98.5 34.5t-34.5 94.5z" glyph-name="j" horiz-adv-x="571" unicode="&#x6a;"/><glyph d="M395 584l133 166 334 356h271l-445-475 473-631h-276l-355 485-129-106v-379h-233v1556h233v-759l-12-213h6z" glyph-name="k" horiz-adv-x="1171" unicode="&#x6b;"/><glyph d="M403 0h-235v1556h235v-1556z" glyph-name="l" horiz-adv-x="571" unicode="&#x6c;"/><glyph d="M1100 0h-236v682q0 127-48 189.5t-150 62.5q-136 0-199.5-88.5t-63.5-294.5v-551h-235v1106h184l33-145h12q46 79 133.5 122t192.5 43q255 0 338-174h16q49 82 138 128t204 46q198 0 288.5-100t90.5-305v-721h-235v682q0 127-48.5 189.5t-150.5 62.5q-137 0-200.5-85.5t-63.5-262.5v-586z" glyph-name="m" horiz-adv-x="1958" unicode="&#x6d;"/><glyph d="M1141 0h-236v680q0 128-51.5 191t-163.5 63q-149 0-218-88t-69-295v-551h-235v1106h184l33-145h12q50 79 142 122t204 43q398 0 398-405v-721z" glyph-name="n" horiz-adv-x="1300" unicode="&#x6e;"/><glyph d="M1149 555q0-271-139-423t-387-152q-155 0-274 70t-183 201-64 304q0 269 138 420t389 151q240 0 380-154.5t140-416.5zM344 555q0-383 283-383 280 0 280 383 0 379-282 379-148 0-214.5-98t-66.5-281z" glyph-name="o" horiz-adv-x="1251" unicode="&#x6f;"/><glyph d="M729-20q-210 0-326 151h-14q14-140 14-170v-453h-235v1598h190q8-31 33-148h12q110 168 330 168 207 0 322.5-150t115.5-421-117.5-423-324.5-152zM672 934q-140 0-204.5-82t-64.5-262v-35q0-202 64-292.5t209-90.5q122 0 188 100t66 285q0 186-65.5 281.5t-192.5 95.5z" glyph-name="p" horiz-adv-x="1276" unicode="&#x70;"/><glyph d="M606 168q148 0 212.5 85.5t64.5 258.5v37q0 205-66.5 295t-214.5 90q-126 0-192-100t-66-287q0-379 262-379zM539-20q-205 0-321 150.5t-116 420.5 118 422.5 325 152.5q104 0 186.5-38.5t147.5-126.5h8l26 145h195v-1598h-236v469q0 44 4 93t7 75h-13q-104-165-331-165z" glyph-name="q" horiz-adv-x="1276" unicode="&#x71;"/><glyph d="M729 1126q71 0 117-10l-23-219q-50 12-104 12-141 0-228.5-92t-87.5-239v-578h-235v1106h184l31-195h12q55 99 143.5 157t190.5 58z" glyph-name="r" horiz-adv-x="883" unicode="&#x72;"/><glyph d="M911 315q0-162-118-248.5t-338-86.5q-221 0-355 67v203q195-90 363-90 217 0 217 131 0 42-24 70t-79 58-153 68q-191 74-258.5 148t-67.5 192q0 142 114.5 220.5t311.5 78.5q195 0 369-79l-76-177q-179 74-301 74-186 0-186-106 0-52 48.5-88t211.5-99q137-53 199-97t92-101.5 30-137.5z" glyph-name="s" horiz-adv-x="997" unicode="&#x73;"/><glyph d="M580 170q86 0 172 27v-177q-39-17-100.5-28.5t-127.5-11.5q-334 0-334 352v596h-151v104l162 86 80 234h145v-246h315v-178h-315v-592q0-85 42.5-125.5t111.5-40.5z" glyph-name="t" horiz-adv-x="805" unicode="&#x74;"/><glyph d="M948 0l-33 145h-12q-49-77-139.5-121t-206.5-44q-201 0-300 100t-99 303v723h237v-682q0-127 52-190.5t163-63.5q148 0 217.5 88.5t69.5 296.5v551h236v-1106h-185z" glyph-name="u" horiz-adv-x="1300" unicode="&#x75;"/><glyph d="M420 0l-420 1106h248l225-643q58-162 70-262h8q9 72 70 262l225 643h250l-422-1106h-254z" glyph-name="v" horiz-adv-x="1096" unicode="&#x76;"/><glyph d="M1075 0l-143 516q-26 82-94 381h-9q-58-270-92-383l-147-514h-260l-310 1106h240l141-545q48-202 68-346h6q10 73 30.5 167.5t35.5 141.5l168 582h258l163-582q15-49 37.5-150t26.5-157h8q15 123 70 344l143 545h236l-312-1106h-264z" glyph-name="w" horiz-adv-x="1673" unicode="&#x77;"/><glyph d="M414 565l-371 541h268l252-387 254 387h266l-372-541 391-565h-266l-273 414-272-414h-266z" glyph-name="x" horiz-adv-x="1128" unicode="&#x78;"/><glyph d="M0 1106h256l225-627q51-134 68-252h8q9 55 33 133.5t254 745.5h254l-473-1253q-129-345-430-345-78 0-152 17v186q53-12 121-12 170 0 239 197l41 104z" glyph-name="y" horiz-adv-x="1098" unicode="&#x79;"/><glyph d="M907 0h-839v145l559 781h-525v180h789v-164l-547-762h563v-180z" glyph-name="z" horiz-adv-x="979" unicode="&#x7a;"/><glyph d="M311 287q0 186-266 186v191q135 0 200.5 45.5t65.5 138.5v311q0 156 108.5 229.5t325.5 73.5v-182q-114-5-165.5-46.5t-51.5-123.5v-297q0-199-229-238v-12q229-36 229-237v-299q0-82 51-124t166-44v-183q-231 2-332.5 78.5t-101.5 247.5v285z" glyph-name="braceleft" horiz-adv-x="791" unicode="&#x7b;"/><glyph d="M473 1552h180v-2033h-180v2033z" glyph-name="bar" horiz-adv-x="1128" unicode="&#x7c;"/><glyph d="M463-20q0-156-99.5-229t-318.5-75v183q95 1 148 38.5t53 129.5v262q0 121 53 187t176 87v12q-229 39-229 238v297q0 82-45.5 123.5t-155.5 46.5v182q223 0 320.5-76.5t97.5-250.5v-287q0-100 63.5-142t188.5-42v-191q-123 0-187.5-42.5t-64.5-143.5v-307z" glyph-name="braceright" horiz-adv-x="760" unicode="&#x7d;"/><glyph d="M330 692q-50 0-111.5-30t-122.5-91v191q99 108 250 108 66 0 125-13t147-50q131-55 220-55 52 0 114.5 31t120.5 89v-190q-105-111-250-111-65 0-127.5 15.5t-146.5 50.5q-127 55-219 55z" glyph-name="asciitilde" unicode="&#x7e;"/><glyph glyph-name="nonbreakingspace" horiz-adv-x="532" unicode="&#xa0;"/><glyph d="M193 645h174l51-1016h-277zM430 965q0-74-37.5-113t-111.5-39q-72 0-110 39.5t-38 112.5q0 69 38 111t110 42 110.5-40.5 38.5-112.5z" glyph-name="exclamdown" horiz-adv-x="565" unicode="&#xa1;"/><glyph d="M987 238q-119-59-258-64v-194h-156v200q-207 31-307 171t-100 390q0 254 100.5 397t306.5 175v170h158v-162q152-5 283-66l-70-188q-146 59-250 59-146 0-216-95t-70-288q0-194 72-283t210-89q75 0 142.5 15t154.5 52v-200z" glyph-name="cent" unicode="&#xa2;"/><glyph d="M690 1481q194 0 375-82l-76-182q-162 71-284 71-205 0-205-219v-244h397v-172h-397v-182q0-91-33-155t-113-109h756v-207h-1038v195q98 30 145 96t47 178v184h-188v172h188v256q0 188 113.5 294t312.5 106z" glyph-name="sterling" unicode="&#xa3;"/><glyph d="M186 723q0 109 64 213l-133 133 121 119 131-129q100 63 215 63t213-65l133 131 121-117-131-133q63-100 63-215 0-119-63-217l129-129-119-119-133 129q-99-61-213-61-126 0-215 61l-131-127-119 119 131 129q-64 99-64 215zM354 723q0-98 68-164.5t162-66.5q97 0 165 66.5t68 164.5q0 97-68 165t-165 68q-93 0-161.5-68t-68.5-165z" glyph-name="currency" unicode="&#xa4;"/><glyph d="M584 797l321 665h244l-399-760h227v-151h-281v-154h281v-153h-281v-244h-225v244h-283v153h283v154h-283v151h224l-394 760h246z" glyph-name="yen" unicode="&#xa5;"/><glyph d="M473 1552h180v-794h-180v794zM473 315h180v-796h-180v796z" glyph-name="brokenbar" horiz-adv-x="1128" unicode="&#xa6;"/><glyph d="M129 807q0 80 38.5 145.5t111.5 108.5q-146 83-146 235 0 129 109.5 202t294.5 73q91 0 174-17t182-59l-68-162q-116 50-176 63t-121 13q-194 0-194-109 0-54 55-93.5t191-90.5q175-68 250-146.5t75-187.5q0-177-139-266 139-80 139-223 0-142-118-224.5t-326-82.5q-212 0-346 71v179q77-40 173-65.5t177-25.5q235 0 235 131 0 43-21 70t-71 54-147 65q-141 55-206 101.5t-95.5 105-30.5 135.5zM313 827q0-45 24-80t78.5-69 194.5-90q109 65 109 168 0 75-62 126.5t-221 104.5q-54-16-88.5-61.5t-34.5-98.5z" glyph-name="section" horiz-adv-x="1026" unicode="&#xa7;"/><glyph d="M293 1399q0 62 33.5 89.5t81.5 27.5q53 0 84.5-31t31.5-86q0-53-32-85t-84-32q-48 0-81.5 29t-33.5 88zM686 1399q0 62 33.5 89.5t81.5 27.5q53 0 85-31t32-86q0-54-33-85.5t-84-31.5q-48 0-81.5 29t-33.5 88z" glyph-name="dieresis" horiz-adv-x="1212" unicode="&#xa8;"/><glyph d="M893 1034q-111 0-171-80.5t-60-222.5q0-147 54-226t177-79q55 0 118 15t109 36v-158q-115-51-235-51-197 0-305.5 120.5t-108.5 342.5q0 214 110 337.5t306 123.5q138 0 274-70l-65-143q-106 55-203 55zM100 731q0 200 100 375t275 276 377 101q200 0 375-100t276-275 101-377q0-197-97-370t-272-277-383-104q-207 0-382 103.5t-272.5 276.5-97.5 371zM223 731q0-170 84.5-315.5t230.5-229.5 314-84q170 0 316 85.5t229.5 230 83.5 313.5q0 168-84.5 314.5t-231 230.5-313.5 84q-168 0-312.5-83t-230.5-229-86-317z" glyph-name="copyright" horiz-adv-x="1704" unicode="&#xa9;"/><glyph d="M547 782l-29 97q-46-55-105-82t-130-27q-113 0-169.5 52.5t-56.5 158.5q0 104 84 159.5t252 61.5l107 4q0 72-34.5 108t-103.5 36q-90 0-210-56l-54 115q144 70 285 70 138 0 207-62.5t69-187.5v-447h-112zM401 1098q-71-2-125.5-34t-54.5-81q0-88 96-88 91 0 137 41t46 123v43z" glyph-name="ordfeminine" horiz-adv-x="754" unicode="&#xaa;"/><glyph d="M82 561l356 432 168-94-282-350 282-348-168-97-356 431v26zM532 561l357 432 168-94-283-350 283-348-168-97-357 431v26z" glyph-name="guillemotleft" horiz-adv-x="1139" unicode="&#xab;"/><glyph d="M1073 256h-178v377h-799v178h977v-555z" glyph-name="logicalnot" unicode="&#xac;"/><glyph d="M72 449v200h514v-200h-514z" glyph-name="uni00AD" horiz-adv-x="659" unicode="&#xad;"/><glyph d="M748 770h69q74 0 112 35t38 100q0 72-36.5 100.5t-115.5 28.5h-67v-264zM1157 909q0-171-153-233l237-397h-211l-192 346h-90v-346h-189v903h262q174 0 255-68t81-205zM100 731q0 200 100 375t275 276 377 101q200 0 375-100t276-275 101-377q0-197-97-370t-272-277-383-104q-207 0-382 103.5t-272.5 276.5-97.5 371zM223 731q0-170 84.5-315.5t230.5-229.5 314-84q170 0 316 85.5t229.5 230 83.5 313.5q0 168-84.5 314.5t-231 230.5-313.5 84q-168 0-312.5-83t-230.5-229-86-317z" glyph-name="registered" horiz-adv-x="1704" unicode="&#xae;"/><glyph d="M1030 1556h-1036v164h1036v-164z" glyph-name="overscore" horiz-adv-x="1024" unicode="&#xaf;"/><glyph d="M109 1153q0 135 95 232.5t234 97.5q138 0 233-96t95-234q0-139-96-233.5t-232-94.5q-88 0-164.5 43.5t-120.5 119.5-44 165zM262 1153q0-70 51-122t125-52 125 51.5 51 122.5q0 76-52 127t-124 51-124-52-52-126z" glyph-name="degree" horiz-adv-x="877" unicode="&#xb0;"/><glyph d="M494 664h-398v178h398v407h180v-407h399v-178h-399v-406h-180v406zM96 0v178h977v-178h-977z" glyph-name="plusminus" unicode="&#xb1;"/><glyph d="M678 586h-627v135l230 225q117 112 149.5 165t32.5 112q0 52-32 79t-83 27q-93 0-201-88l-94 121q139 119 309 119 136 0 211.5-66t75.5-180q0-83-46-158.5t-183-202.5l-139-129h397v-159z" glyph-name="twosuperior" horiz-adv-x="743" unicode="&#xb2;"/><glyph d="M645 1251q0-75-40.5-122.5t-119.5-86.5q94-21 141.5-76t47.5-132q0-127-93-196t-266-69q-148 0-270 62v157q145-79 270-79 179 0 179 135 0 125-199 125h-115v133h105q184 0 184 129 0 52-34.5 80t-90.5 28q-57 0-105.5-20t-105.5-57l-84 114q61 46 134 75.5t171 29.5q134 0 212.5-61.5t78.5-168.5z" glyph-name="threesuperior" horiz-adv-x="743" unicode="&#xb3;"/><glyph d="M362 1241v25q57 70 117.5 156t95.5 147h273v-21q-52-61-155.5-157.5t-174.5-149.5h-156z" glyph-name="acute" horiz-adv-x="1212" unicode="&#xb4;"/><glyph d="M403 422q0-252 218-252 146 0 215 88.5t69 296.5v551h236v-1106h-183l-34 147h-13q-48-83-119.5-125t-175.5-42q-140 0-219 90h-4q3-28 6.5-117t3.5-125v-320h-235v1598h235v-684z" glyph-name="mu" horiz-adv-x="1309" unicode="&#xb5;"/><glyph d="M1143-260h-137v1663h-191v-1663h-137v819q-62-18-146-18-216 0-317.5 125t-101.5 376q0 260 109 387t341 127h580v-1816z" glyph-name="paragraph" horiz-adv-x="1341" unicode="&#xb6;"/><glyph d="M133 723q0 73 38 112t110 39q73 0 111-40.5t38-110.5q0-71-38.5-112.5t-110.5-41.5-110 41-38 113z" glyph-name="periodcentered" horiz-adv-x="563" unicode="&#xb7;"/><glyph d="M426-270q0-222-305-222-66 0-121 15v137q54-14 123-14 54 0 85.5 16.5t31.5 61.5q0 85-179 110l84 166h152l-41-88q80-21 125-68.5t45-113.5z" glyph-name="cedilla" horiz-adv-x="442" unicode="&#xb8;"/><glyph d="M532 586h-186v512l3 103 5 91q-17-18-40.5-40t-141.5-111l-88 112 281 209h167v-876z" glyph-name="onesuperior" horiz-adv-x="743" unicode="&#xb9;"/><glyph d="M719 1124q0-164-87.5-259t-244.5-95q-150 0-238 95.5t-88 258.5q0 169 88.5 262t241.5 93q152 0 240-94.5t88-260.5zM223 1124q0-111 39-166t127-55 127 55 39 166q0 113-39 167.5t-127 54.5-127-54.5-39-167.5z" glyph-name="ordmasculine" horiz-adv-x="780" unicode="&#xba;"/><glyph d="M1057 535l-359-431-168 97 283 348-283 350 168 94 359-432v-26zM606 535l-358-431-168 97 282 348-282 350 168 94 358-432v-26z" glyph-name="guillemotright" horiz-adv-x="1139" unicode="&#xbb;"/><glyph d="M1333 1462l-856-1462h-192l858 1462h190zM508 586h-186v512l3 103 5 91q-17-18-40.5-40t-141.5-111l-88 112 281 209h167v-876zM1585 177h-125v-176h-192v176h-392v127l396 579h188v-563h125v-143zM1268 320v178q0 97 6 197-52-104-88-158l-148-217h230z" glyph-name="onequarter" horiz-adv-x="1700" unicode="&#xbc;"/><glyph d="M1298 1462l-856-1462h-192l858 1462h190zM494 586h-186v512l3 103 5 91q-17-18-40.5-40t-141.5-111l-88 112 281 209h167v-876zM1608 1h-627v135l230 225q117 112 149.5 165t32.5 112q0 52-32 79t-83 27q-93 0-201-88l-94 121q139 119 309 119 136 0 211.5-66t75.5-180q0-83-46-158.5t-183-202.5l-139-129h397v-159z" glyph-name="onehalf" horiz-adv-x="1700" unicode="&#xbd;"/><glyph d="M1415 1462l-856-1462h-192l858 1462h190zM1640 177h-125v-176h-192v176h-392v127l396 579h188v-563h125v-143zM1323 320v178q0 97 6 197-52-104-88-158l-148-217h230zM655 1251q0-75-40.5-122.5t-119.5-86.5q94-21 141.5-76t47.5-132q0-127-93-196t-266-69q-148 0-270 62v157q145-79 270-79 179 0 179 135 0 125-199 125h-115v133h105q184 0 184 129 0 52-34.5 80t-90.5 28q-57 0-105.5-20t-105.5-57l-84 114q61 46 134 75.5t171 29.5q134 0 212.5-61.5t78.5-168.5z" glyph-name="threequarters" horiz-adv-x="1700" unicode="&#xbe;"/><glyph d="M651 645v-63q0-106-41-181t-143-155q-124-98-155-147t-31-124q0-78 54-125t161-47q90 0 174 27.5t166 65.5l82-179q-220-110-424-110-207 0-323 95.5t-116 264.5q0 73 21 130t64 109 157 142q94 76 125 124.5t31 127.5v45h198zM692 965q0-74-37.5-113t-111.5-39q-72 0-110 39.5t-38 112.5q0 69 38 111t110 42 110.5-40.5 38.5-112.5z" glyph-name="questiondown" horiz-adv-x="928" unicode="&#xbf;"/><glyph d="M1100 0l-146 406h-559l-143-406h-252l547 1468h260l547-1468h-254zM891 612l-137 398q-15 40-41.5 126t-36.5 126q-27-123-79-269l-132-381h426zM662 1579q-69 52-174.5 150.5t-153.5 156.5v21h273q38-70 103.5-161t109.5-142v-25h-158z" glyph-name="Agrave" horiz-adv-x="1354" unicode="&#xc0;"/><glyph d="M1100 0l-146 406h-559l-143-406h-252l547 1468h260l547-1468h-254zM891 612l-137 398q-15 40-41.5 126t-36.5 126q-27-123-79-269l-132-381h426zM532 1579v25q57 70 117.5 156t95.5 147h273v-21q-52-61-155.5-157.5t-174.5-149.5h-156z" glyph-name="Aacute" horiz-adv-x="1354" unicode="&#xc1;"/><glyph d="M1100 0l-146 406h-559l-143-406h-252l547 1468h260l547-1468h-254zM891 612l-137 398q-15 40-41.5 126t-36.5 126q-27-123-79-269l-132-381h426zM897 1579q-123 73-228 180-103-103-225-180h-158v25q191 198 254 303h260q63-110 256-303v-25h-159z" glyph-name="Acircumflex" horiz-adv-x="1354" unicode="&#xc2;"/><glyph d="M1100 0l-146 406h-559l-143-406h-252l547 1468h260l547-1468h-254zM891 612l-137 398q-15 40-41.5 126t-36.5 126q-27-123-79-269l-132-381h426zM821 1579q-42 0-82.5 17.5t-79.5 39-76 39-71 17.5q-81 0-109-115h-122q12 139 77.5 212t167.5 73q43 0 84-17.5t80-39 75.5-39 70.5-17.5q79 0 106 115h125q-12-134-77-209.5t-169-75.5z" glyph-name="Atilde" horiz-adv-x="1354" unicode="&#xc3;"/><glyph d="M1100 0l-146 406h-559l-143-406h-252l547 1468h260l547-1468h-254zM891 612l-137 398q-15 40-41.5 126t-36.5 126q-27-123-79-269l-132-381h426zM363 1737q0 62 33.5 89.5t81.5 27.5q53 0 84.5-31t31.5-86q0-53-32-85t-84-32q-48 0-81.5 29t-33.5 88zM756 1737q0 62 33.5 89.5t81.5 27.5q53 0 85-31t32-86q0-54-33-85.5t-84-31.5q-48 0-81.5 29t-33.5 88z" glyph-name="Adieresis" horiz-adv-x="1354" unicode="&#xc4;"/><glyph d="M1100 0l-146 406h-559l-143-406h-252l547 1468h260l547-1468h-254zM891 612l-137 398q-15 40-41.5 126t-36.5 126q-27-123-79-269l-132-381h426zM913 1577q0-102-65.5-165.5t-173.5-63.5-172 62.5-64 164.5q0 101 63.5 163.5t172.5 62.5q104 0 171.5-62t67.5-162zM780 1575q0 50-30 78.5t-76 28.5q-47 0-77-28.5t-30-78.5q0-106 107-106 46 0 76 27.5t30 78.5z" glyph-name="Aring" horiz-adv-x="1354" unicode="&#xc5;"/><glyph d="M1747 0h-811v406h-504l-188-406h-246l678 1462h1071v-202h-571v-398h532v-200h-532v-459h571v-203zM522 612h414v641h-123z" glyph-name="AE" horiz-adv-x="1868" unicode="&#xc6;"/><glyph d="M815 1278q-206 0-324-146t-118-403q0-269 113.5-407t328.5-138q93 0 180 18.5t181 47.5v-205q-172-65-390-65-321 0-493 194.5t-172 556.5q0 228 83.5 399t241.5 262 371 91q224 0 414-94l-86-199q-74 35-156.5 61.5t-173.5 26.5zM952-270q0-222-305-222-66 0-121 15v137q54-14 123-14 54 0 85.5 16.5t31.5 61.5q0 85-179 110l84 166h152l-41-88q80-21 125-68.5t45-113.5z" glyph-name="Ccedilla" horiz-adv-x="1298" unicode="&#xc7;"/><glyph d="M1020 0h-827v1462h827v-202h-588v-398h551v-200h-551v-459h588v-203zM617 1579q-69 52-174.5 150.5t-153.5 156.5v21h273q38-70 103.5-161t109.5-142v-25h-158z" glyph-name="Egrave" horiz-adv-x="1143" unicode="&#xc8;"/><glyph d="M1020 0h-827v1462h827v-202h-588v-398h551v-200h-551v-459h588v-203zM440 1579v25q57 70 117.5 156t95.5 147h273v-21q-52-61-155.5-157.5t-174.5-149.5h-156z" glyph-name="Eacute" horiz-adv-x="1143" unicode="&#xc9;"/><glyph d="M1020 0h-827v1462h827v-202h-588v-398h551v-200h-551v-459h588v-203zM831 1579q-123 73-228 180-103-103-225-180h-158v25q191 198 254 303h260q63-110 256-303v-25h-159z" glyph-name="Ecircumflex" horiz-adv-x="1143" unicode="&#xca;"/><glyph d="M1020 0h-827v1462h827v-202h-588v-398h551v-200h-551v-459h588v-203zM297 1737q0 62 33.5 89.5t81.5 27.5q53 0 84.5-31t31.5-86q0-53-32-85t-84-32q-48 0-81.5 29t-33.5 88zM690 1737q0 62 33.5 89.5t81.5 27.5q53 0 85-31t32-86q0-54-33-85.5t-84-31.5q-48 0-81.5 29t-33.5 88z" glyph-name="Edieresis" horiz-adv-x="1143" unicode="&#xcb;"/><glyph d="M664 0h-590v137l176 58v1071l-176 59v137h590v-137l-175-59v-1071l175-58v-137zM380 1579q-69 52-174.5 150.5t-153.5 156.5v21h273q38-70 103.5-161t109.5-142v-25h-158z" glyph-name="Igrave.alt" horiz-adv-x="739"/><glyph d="M664 0h-590v137l176 58v1071l-176 59v137h590v-137l-175-59v-1071l175-58v-137zM236 1579v25q57 70 117.5 156t95.5 147h273v-21q-52-61-155.5-157.5t-174.5-149.5h-156z" glyph-name="Iacute.alt" horiz-adv-x="739"/><glyph d="M664 0h-590v137l176 58v1071l-176 59v137h590v-137l-175-59v-1071l175-58v-137zM593 1579q-123 73-228 180-103-103-225-180h-158v25q191 198 254 303h260q63-110 256-303v-25h-159z" glyph-name="Icircumflex.alt" horiz-adv-x="739"/><glyph d="M664 0h-590v137l176 58v1071l-176 59v137h590v-137l-175-59v-1071l175-58v-137zM58 1737q0 62 33.5 89.5t81.5 27.5q53 0 84.5-31t31.5-86q0-53-32-85t-84-32q-48 0-81.5 29t-33.5 88zM451 1737q0 62 33.5 89.5t81.5 27.5q53 0 85-31t32-86q0-54-33-85.5t-84-31.5q-48 0-81.5 29t-33.5 88z" glyph-name="Idieresis.alt" horiz-adv-x="739"/><glyph d="M1374 745q0-360-201-552.5t-579-192.5h-401v623h-146v200h146v639h446q347 0 541-188.5t194-528.5zM1122 737q0 260-124.5 392.5t-368.5 132.5h-197v-439h307v-200h-307v-422h160q530 0 530 536z" glyph-name="Eth" horiz-adv-x="1497" unicode="&#xd0;"/><glyph d="M1411 0h-293l-719 1165h-8l5-65q14-186 14-340v-760h-217v1462h290l717-1159h6q-2 23-8 167.5t-6 225.5v766h219v-1462zM954 1579q-42 0-82.5 17.5t-79.5 39-76 39-71 17.5q-81 0-109-115h-122q12 139 77.5 212t167.5 73q43 0 84-17.5t80-39 75.5-39 70.5-17.5q79 0 106 115h125q-12-134-77-209.5t-169-75.5z" glyph-name="Ntilde" horiz-adv-x="1604" unicode="&#xd1;"/><glyph d="M1491 733q0-357-178.5-555t-505.5-198q-331 0-508.5 196.5t-177.5 558.5 178.5 556 509.5 194q326 0 504-197t178-555zM375 733q0-270 109-409.5t323-139.5q213 0 321.5 138t108.5 411q0 269-107.5 408t-320.5 139q-215 0-324.5-139t-109.5-408zM809 1579q-69 52-174.5 150.5t-153.5 156.5v21h273q38-70 103.5-161t109.5-142v-25h-158z" glyph-name="Ograve" horiz-adv-x="1612" unicode="&#xd2;"/><glyph d="M1491 733q0-357-178.5-555t-505.5-198q-331 0-508.5 196.5t-177.5 558.5 178.5 556 509.5 194q326 0 504-197t178-555zM375 733q0-270 109-409.5t323-139.5q213 0 321.5 138t108.5 411q0 269-107.5 408t-320.5 139q-215 0-324.5-139t-109.5-408zM657 1579v25q57 70 117.5 156t95.5 147h273v-21q-52-61-155.5-157.5t-174.5-149.5h-156z" glyph-name="Oacute" horiz-adv-x="1612" unicode="&#xd3;"/><glyph d="M1491 733q0-357-178.5-555t-505.5-198q-331 0-508.5 196.5t-177.5 558.5 178.5 556 509.5 194q326 0 504-197t178-555zM375 733q0-270 109-409.5t323-139.5q213 0 321.5 138t108.5 411q0 269-107.5 408t-320.5 139q-215 0-324.5-139t-109.5-408zM1024 1579q-123 73-228 180-103-103-225-180h-158v25q191 198 254 303h260q63-110 256-303v-25h-159z" glyph-name="Ocircumflex" horiz-adv-x="1612" unicode="&#xd4;"/><glyph d="M1491 733q0-357-178.5-555t-505.5-198q-331 0-508.5 196.5t-177.5 558.5 178.5 556 509.5 194q326 0 504-197t178-555zM375 733q0-270 109-409.5t323-139.5q213 0 321.5 138t108.5 411q0 269-107.5 408t-320.5 139q-215 0-324.5-139t-109.5-408zM950 1579q-42 0-82.5 17.5t-79.5 39-76 39-71 17.5q-81 0-109-115h-122q12 139 77.5 212t167.5 73q43 0 84-17.5t80-39 75.5-39 70.5-17.5q79 0 106 115h125q-12-134-77-209.5t-169-75.5z" glyph-name="Otilde" horiz-adv-x="1612" unicode="&#xd5;"/><glyph d="M1491 733q0-357-178.5-555t-505.5-198q-331 0-508.5 196.5t-177.5 558.5 178.5 556 509.5 194q326 0 504-197t178-555zM375 733q0-270 109-409.5t323-139.5q213 0 321.5 138t108.5 411q0 269-107.5 408t-320.5 139q-215 0-324.5-139t-109.5-408zM496 1737q0 62 33.5 89.5t81.5 27.5q53 0 84.5-31t31.5-86q0-53-32-85t-84-32q-48 0-81.5 29t-33.5 88zM889 1737q0 62 33.5 89.5t81.5 27.5q53 0 85-31t32-86q0-54-33-85.5t-84-31.5q-48 0-81.5 29t-33.5 88z" glyph-name="Odieresis" horiz-adv-x="1612" unicode="&#xd6;"/><glyph d="M457 723l-326 326 125 127 328-326 329 326 125-123-329-330 325-328-123-125-329 326-324-326-125 125z" glyph-name="multiply" unicode="&#xd7;"/><glyph d="M1491 733q0-357-178.5-555t-505.5-198q-213 0-361 81l-94-137-141 94 98 144q-188 196-188 573 0 362 178.5 556t509.5 194q199 0 354-82l90 129 142-92-99-140q195-199 195-567zM1237 733q0 225-80 361l-586-850q97-60 236-60 213 0 321.5 138t108.5 411zM375 733q0-231 78-362l587 850q-92 59-231 59-215 0-324.5-139t-109.5-408z" glyph-name="Oslash" horiz-adv-x="1612" unicode="&#xd8;"/><glyph d="M1339 1462v-946q0-162-69.5-283.5t-201-187-314.5-65.5q-272 0-423 144t-151 396v942h240v-925q0-181 84-267t258-86q338 0 338 355v923h239zM745 1579q-69 52-174.5 150.5t-153.5 156.5v21h273q38-70 103.5-161t109.5-142v-25h-158z" glyph-name="Ugrave" horiz-adv-x="1520" unicode="&#xd9;"/><glyph d="M1339 1462v-946q0-162-69.5-283.5t-201-187-314.5-65.5q-272 0-423 144t-151 396v942h240v-925q0-181 84-267t258-86q338 0 338 355v923h239zM600 1579v25q57 70 117.5 156t95.5 147h273v-21q-52-61-155.5-157.5t-174.5-149.5h-156z" glyph-name="Uacute" horiz-adv-x="1520" unicode="&#xda;"/><glyph d="M1339 1462v-946q0-162-69.5-283.5t-201-187-314.5-65.5q-272 0-423 144t-151 396v942h240v-925q0-181 84-267t258-86q338 0 338 355v923h239zM977 1579q-123 73-228 180-103-103-225-180h-158v25q191 198 254 303h260q63-110 256-303v-25h-159z" glyph-name="Ucircumflex" horiz-adv-x="1520" unicode="&#xdb;"/><glyph d="M1339 1462v-946q0-162-69.5-283.5t-201-187-314.5-65.5q-272 0-423 144t-151 396v942h240v-925q0-181 84-267t258-86q338 0 338 355v923h239zM445 1737q0 62 33.5 89.5t81.5 27.5q53 0 84.5-31t31.5-86q0-53-32-85t-84-32q-48 0-81.5 29t-33.5 88zM838 1737q0 62 33.5 89.5t81.5 27.5q53 0 85-31t32-86q0-54-33-85.5t-84-31.5q-48 0-81.5 29t-33.5 88z" glyph-name="Udieresis" horiz-adv-x="1520" unicode="&#xdc;"/><glyph d="M606 795l346 667h260l-487-895v-567h-240v559l-485 903h260zM450 1579v25q57 70 117.5 156t95.5 147h273v-21q-52-61-155.5-157.5t-174.5-149.5h-156z" glyph-name="Yacute" horiz-adv-x="1212" unicode="&#xdd;"/><glyph d="M1169 776q0-227-146-349t-423-122h-168v-305h-239v1462h239v-243h197q268 0 404-112t136-331zM432 504h133q187 0 273 63t86 203q0 127-78 188.5t-250 61.5h-164v-516z" glyph-name="Thorn" horiz-adv-x="1268" unicode="&#xde;"/><glyph d="M1149 1253q0-74-38.5-140.5t-104.5-117.5q-90-69-117-98t-27-57q0-30 22.5-55.5t79.5-63.5l95-64q92-62 135.5-109.5t65.5-103.5 22-127q0-165-107-251t-311-86q-190 0-299 65v199q58-37 139-61.5t148-24.5q192 0 192 151 0 61-34.5 105t-155.5 118q-119 73-171 135t-52 146q0 63 34 115.5t105 105.5q75 55 107 97.5t32 93.5q0 72-67 112.5t-178 40.5q-127 0-194-54t-67-159v-1165h-235v1169q0 193 128.5 295.5t367.5 102.5q225 0 355-84t130-230z" glyph-name="germandbls" horiz-adv-x="1364" unicode="&#xdf;"/><glyph d="M860 0l-47 154h-8q-80-101-161-137.5t-208-36.5q-163 0-254.5 88t-91.5 249q0 171 127 258t387 95l191 6v59q0 106-49.5 158.5t-153.5 52.5q-85 0-163-25t-150-59l-76 168q90 47 197 71.5t202 24.5q211 0 318.5-92t107.5-289v-745h-168zM510 160q128 0 205.5 71.5t77.5 200.5v96l-142-6q-166-6-241.5-55.5t-75.5-151.5q0-74 44-114.5t132-40.5zM587 1241q-69 52-174.5 150.5t-153.5 156.5v21h273q38-70 103.5-161t109.5-142v-25h-158z" glyph-name="agrave" horiz-adv-x="1188" unicode="&#xe0;"/><glyph d="M860 0l-47 154h-8q-80-101-161-137.5t-208-36.5q-163 0-254.5 88t-91.5 249q0 171 127 258t387 95l191 6v59q0 106-49.5 158.5t-153.5 52.5q-85 0-163-25t-150-59l-76 168q90 47 197 71.5t202 24.5q211 0 318.5-92t107.5-289v-745h-168zM510 160q128 0 205.5 71.5t77.5 200.5v96l-142-6q-166-6-241.5-55.5t-75.5-151.5q0-74 44-114.5t132-40.5zM438 1241v25q57 70 117.5 156t95.5 147h273v-21q-52-61-155.5-157.5t-174.5-149.5h-156z" glyph-name="aacute" horiz-adv-x="1188" unicode="&#xe1;"/><glyph d="M860 0l-47 154h-8q-80-101-161-137.5t-208-36.5q-163 0-254.5 88t-91.5 249q0 171 127 258t387 95l191 6v59q0 106-49.5 158.5t-153.5 52.5q-85 0-163-25t-150-59l-76 168q90 47 197 71.5t202 24.5q211 0 318.5-92t107.5-289v-745h-168zM510 160q128 0 205.5 71.5t77.5 200.5v96l-142-6q-166-6-241.5-55.5t-75.5-151.5q0-74 44-114.5t132-40.5zM814 1241q-123 73-228 180-103-103-225-180h-158v25q191 198 254 303h260q63-110 256-303v-25h-159z" glyph-name="acircumflex" horiz-adv-x="1188" unicode="&#xe2;"/><glyph d="M860 0l-47 154h-8q-80-101-161-137.5t-208-36.5q-163 0-254.5 88t-91.5 249q0 171 127 258t387 95l191 6v59q0 106-49.5 158.5t-153.5 52.5q-85 0-163-25t-150-59l-76 168q90 47 197 71.5t202 24.5q211 0 318.5-92t107.5-289v-745h-168zM510 160q128 0 205.5 71.5t77.5 200.5v96l-142-6q-166-6-241.5-55.5t-75.5-151.5q0-74 44-114.5t132-40.5zM748 1241q-42 0-82.5 17.5t-79.5 39-76 39-71 17.5q-81 0-109-115h-122q12 139 77.5 212t167.5 73q43 0 84-17.5t80-39 75.5-39 70.5-17.5q79 0 106 115h125q-12-134-77-209.5t-169-75.5z" glyph-name="atilde" horiz-adv-x="1188" unicode="&#xe3;"/><glyph d="M860 0l-47 154h-8q-80-101-161-137.5t-208-36.5q-163 0-254.5 88t-91.5 249q0 171 127 258t387 95l191 6v59q0 106-49.5 158.5t-153.5 52.5q-85 0-163-25t-150-59l-76 168q90 47 197 71.5t202 24.5q211 0 318.5-92t107.5-289v-745h-168zM510 160q128 0 205.5 71.5t77.5 200.5v96l-142-6q-166-6-241.5-55.5t-75.5-151.5q0-74 44-114.5t132-40.5zM282 1399q0 62 33.5 89.5t81.5 27.5q53 0 84.5-31t31.5-86q0-53-32-85t-84-32q-48 0-81.5 29t-33.5 88zM675 1399q0 62 33.5 89.5t81.5 27.5q53 0 85-31t32-86q0-54-33-85.5t-84-31.5q-48 0-81.5 29t-33.5 88z" glyph-name="adieresis" horiz-adv-x="1188" unicode="&#xe4;"/><glyph d="M860 0l-47 154h-8q-80-101-161-137.5t-208-36.5q-163 0-254.5 88t-91.5 249q0 171 127 258t387 95l191 6v59q0 106-49.5 158.5t-153.5 52.5q-85 0-163-25t-150-59l-76 168q90 47 197 71.5t202 24.5q211 0 318.5-92t107.5-289v-745h-168zM510 160q128 0 205.5 71.5t77.5 200.5v96l-142-6q-166-6-241.5-55.5t-75.5-151.5q0-74 44-114.5t132-40.5zM841 1468q0-102-65.5-165.5t-173.5-63.5-172 62.5-64 164.5q0 101 63.5 163.5t172.5 62.5q104 0 171.5-62t67.5-162zM708 1466q0 50-30 78.5t-76 28.5q-47 0-77-28.5t-30-78.5q0-106 107-106 46 0 76 27.5t30 78.5z" glyph-name="aring" horiz-adv-x="1188" unicode="&#xe5;"/><glyph d="M90 317q0 172 121.5 258.5t370.5 94.5l188 6v76q0 194-201 194-141 0-307-82l-74 166q88 47 192.5 71.5t203.5 24.5q241 0 340-155 120 155 346 155 206 0 328-134.5t122-362.5v-127h-712q10-336 301-336 184 0 356 80v-191q-86-41-171.5-58t-195.5-17q-140 0-248.5 54.5t-175.5 164.5q-94-125-190.5-172t-241.5-47q-165 0-258.5 90t-93.5 247zM334 315q0-155 166-155 124 0 196 72.5t72 199.5v96l-135-6q-155-6-227-54.5t-72-152.5zM1266 948q-112 0-177.5-69.5t-74.5-208.5h473q0 130-58.5 204t-162.5 74z" glyph-name="ae" horiz-adv-x="1817" unicode="&#xe6;"/><glyph d="M614-20q-251 0-381.5 146.5t-130.5 420.5q0 279 136.5 429t394.5 150q175 0 315-65l-71-189q-149 58-246 58-287 0-287-381 0-186 71.5-279.5t209.5-93.5q157 0 297 78v-205q-63-37-134.5-53t-173.5-16zM782-270q0-222-305-222-66 0-121 15v137q54-14 123-14 54 0 85.5 16.5t31.5 61.5q0 85-179 110l84 166h152l-41-88q80-21 125-68.5t45-113.5z" glyph-name="ccedilla" horiz-adv-x="1014" unicode="&#xe7;"/><glyph d="M651-20q-258 0-403.5 150.5t-145.5 414.5q0 271 135 426t371 155q219 0 346-133t127-366v-127h-737q5-161 87-247.5t231-86.5q98 0 182.5 18.5t181.5 61.5v-191q-86-41-174-58t-201-17zM608 948q-112 0-179.5-71t-80.5-207h502q-2 137-66 207.5t-176 70.5zM609 1241q-69 52-174.5 150.5t-153.5 156.5v21h273q38-70 103.5-161t109.5-142v-25h-158z" glyph-name="egrave" horiz-adv-x="1180" unicode="&#xe8;"/><glyph d="M651-20q-258 0-403.5 150.5t-145.5 414.5q0 271 135 426t371 155q219 0 346-133t127-366v-127h-737q5-161 87-247.5t231-86.5q98 0 182.5 18.5t181.5 61.5v-191q-86-41-174-58t-201-17zM608 948q-112 0-179.5-71t-80.5-207h502q-2 137-66 207.5t-176 70.5zM458 1241v25q57 70 117.5 156t95.5 147h273v-21q-52-61-155.5-157.5t-174.5-149.5h-156z" glyph-name="eacute" horiz-adv-x="1180" unicode="&#xe9;"/><glyph d="M651-20q-258 0-403.5 150.5t-145.5 414.5q0 271 135 426t371 155q219 0 346-133t127-366v-127h-737q5-161 87-247.5t231-86.5q98 0 182.5 18.5t181.5 61.5v-191q-86-41-174-58t-201-17zM608 948q-112 0-179.5-71t-80.5-207h502q-2 137-66 207.5t-176 70.5zM838 1241q-123 73-228 180-103-103-225-180h-158v25q191 198 254 303h260q63-110 256-303v-25h-159z" glyph-name="ecircumflex" horiz-adv-x="1180" unicode="&#xea;"/><glyph d="M651-20q-258 0-403.5 150.5t-145.5 414.5q0 271 135 426t371 155q219 0 346-133t127-366v-127h-737q5-161 87-247.5t231-86.5q98 0 182.5 18.5t181.5 61.5v-191q-86-41-174-58t-201-17zM608 948q-112 0-179.5-71t-80.5-207h502q-2 137-66 207.5t-176 70.5zM307 1399q0 62 33.5 89.5t81.5 27.5q53 0 84.5-31t31.5-86q0-53-32-85t-84-32q-48 0-81.5 29t-33.5 88zM700 1399q0 62 33.5 89.5t81.5 27.5q53 0 85-31t32-86q0-54-33-85.5t-84-31.5q-48 0-81.5 29t-33.5 88z" glyph-name="edieresis" horiz-adv-x="1180" unicode="&#xeb;"/><glyph d="M403 0h-235v1106h235v-1106zM259 1241q-69 52-174.5 150.5t-153.5 156.5v21h273q38-70 103.5-161t109.5-142v-25h-158z" glyph-name="igrave" horiz-adv-x="571" unicode="&#xec;"/><glyph d="M403 0h-235v1106h235v-1106zM156 1241v25q57 70 117.5 156t95.5 147h273v-21q-52-61-155.5-157.5t-174.5-149.5h-156z" glyph-name="iacute" horiz-adv-x="571" unicode="&#xed;"/><glyph d="M403 0h-235v1106h235v-1106zM511 1241q-123 73-228 180-103-103-225-180h-158v25q191 198 254 303h260q63-110 256-303v-25h-159z" glyph-name="icircumflex" horiz-adv-x="571" unicode="&#xee;"/><glyph d="M403 0h-235v1106h235v-1106zM-25 1399q0 62 33.5 89.5t81.5 27.5q53 0 84.5-31t31.5-86q0-53-32-85t-84-32q-48 0-81.5 29t-33.5 88zM368 1399q0 62 33.5 89.5t81.5 27.5q53 0 85-31t32-86q0-54-33-85.5t-84-31.5q-48 0-81.5 29t-33.5 88z" glyph-name="idieresis" horiz-adv-x="571" unicode="&#xef;"/><glyph d="M1149 567q0-279-137.5-433t-388.5-154q-235 0-378 136t-143 365q0 231 131 365.5t351 134.5q214 0 301-111l8 4q-62 189-227 345l-250-150-88 133 204 119q-86 59-167 102l84 146q140-63 258-144l231 138 88-129-188-113q152-140 231.5-330t79.5-424zM909 522q0 127-75.5 202t-206.5 75q-151 0-218-82t-67-240q0-153 74-234t211-81q148 0 215 91t67 269z" glyph-name="eth" horiz-adv-x="1243" unicode="&#xf0;"/><glyph d="M1141 0h-236v680q0 128-51.5 191t-163.5 63q-149 0-218-88t-69-295v-551h-235v1106h184l33-145h12q50 79 142 122t204 43q398 0 398-405v-721zM809 1241q-42 0-82.5 17.5t-79.5 39-76 39-71 17.5q-81 0-109-115h-122q12 139 77.5 212t167.5 73q43 0 84-17.5t80-39 75.5-39 70.5-17.5q79 0 106 115h125q-12-134-77-209.5t-169-75.5z" glyph-name="ntilde" horiz-adv-x="1300" unicode="&#xf1;"/><glyph d="M1149 555q0-271-139-423t-387-152q-155 0-274 70t-183 201-64 304q0 269 138 420t389 151q240 0 380-154.5t140-416.5zM344 555q0-383 283-383 280 0 280 383 0 379-282 379-148 0-214.5-98t-66.5-281zM621 1241q-69 52-174.5 150.5t-153.5 156.5v21h273q38-70 103.5-161t109.5-142v-25h-158z" glyph-name="ograve" horiz-adv-x="1251" unicode="&#xf2;"/><glyph d="M1149 555q0-271-139-423t-387-152q-155 0-274 70t-183 201-64 304q0 269 138 420t389 151q240 0 380-154.5t140-416.5zM344 555q0-383 283-383 280 0 280 383 0 379-282 379-148 0-214.5-98t-66.5-281zM473 1241v25q57 70 117.5 156t95.5 147h273v-21q-52-61-155.5-157.5t-174.5-149.5h-156z" glyph-name="oacute" horiz-adv-x="1251" unicode="&#xf3;"/><glyph d="M1149 555q0-271-139-423t-387-152q-155 0-274 70t-183 201-64 304q0 269 138 420t389 151q240 0 380-154.5t140-416.5zM344 555q0-383 283-383 280 0 280 383 0 379-282 379-148 0-214.5-98t-66.5-281zM850 1241q-123 73-228 180-103-103-225-180h-158v25q191 198 254 303h260q63-110 256-303v-25h-159z" glyph-name="ocircumflex" horiz-adv-x="1251" unicode="&#xf4;"/><glyph d="M1149 555q0-271-139-423t-387-152q-155 0-274 70t-183 201-64 304q0 269 138 420t389 151q240 0 380-154.5t140-416.5zM344 555q0-383 283-383 280 0 280 383 0 379-282 379-148 0-214.5-98t-66.5-281zM775 1241q-42 0-82.5 17.5t-79.5 39-76 39-71 17.5q-81 0-109-115h-122q12 139 77.5 212t167.5 73q43 0 84-17.5t80-39 75.5-39 70.5-17.5q79 0 106 115h125q-12-134-77-209.5t-169-75.5z" glyph-name="otilde" horiz-adv-x="1251" unicode="&#xf5;"/><glyph d="M1149 555q0-271-139-423t-387-152q-155 0-274 70t-183 201-64 304q0 269 138 420t389 151q240 0 380-154.5t140-416.5zM344 555q0-383 283-383 280 0 280 383 0 379-282 379-148 0-214.5-98t-66.5-281zM311 1399q0 62 33.5 89.5t81.5 27.5q53 0 84.5-31t31.5-86q0-53-32-85t-84-32q-48 0-81.5 29t-33.5 88zM704 1399q0 62 33.5 89.5t81.5 27.5q53 0 85-31t32-86q0-54-33-85.5t-84-31.5q-48 0-81.5 29t-33.5 88z" glyph-name="odieresis" horiz-adv-x="1251" unicode="&#xf6;"/><glyph d="M96 633v178h977v-178h-977zM457 373q0 64 31.5 99.5t95.5 35.5q61 0 93-36t32-99-34-100-91-37q-60 0-93.5 35.5t-33.5 101.5zM457 1071q0 64 31.5 99.5t95.5 35.5q61 0 93-36t32-99-34-100-91-37q-60 0-93.5 35.5t-33.5 101.5z" glyph-name="divide" unicode="&#xf7;"/><glyph d="M1149 555q0-271-139-423t-387-152q-144 0-250 57l-76-109-135 90 82 117q-142 155-142 420 0 269 138 420t389 151q144 0 258-63l69 100 136-92-78-108q135-152 135-408zM344 555q0-135 37-219l391 559q-60 39-147 39-148 0-214.5-98t-66.5-281zM907 555q0 121-33 203l-387-553q54-33 140-33 280 0 280 383z" glyph-name="oslash" horiz-adv-x="1251" unicode="&#xf8;"/><glyph d="M948 0l-33 145h-12q-49-77-139.5-121t-206.5-44q-201 0-300 100t-99 303v723h237v-682q0-127 52-190.5t163-63.5q148 0 217.5 88.5t69.5 296.5v551h236v-1106h-185zM617 1241q-69 52-174.5 150.5t-153.5 156.5v21h273q38-70 103.5-161t109.5-142v-25h-158z" glyph-name="ugrave" horiz-adv-x="1300" unicode="&#xf9;"/><glyph d="M948 0l-33 145h-12q-49-77-139.5-121t-206.5-44q-201 0-300 100t-99 303v723h237v-682q0-127 52-190.5t163-63.5q148 0 217.5 88.5t69.5 296.5v551h236v-1106h-185zM501 1241v25q57 70 117.5 156t95.5 147h273v-21q-52-61-155.5-157.5t-174.5-149.5h-156z" glyph-name="uacute" horiz-adv-x="1300" unicode="&#xfa;"/><glyph d="M948 0l-33 145h-12q-49-77-139.5-121t-206.5-44q-201 0-300 100t-99 303v723h237v-682q0-127 52-190.5t163-63.5q148 0 217.5 88.5t69.5 296.5v551h236v-1106h-185zM871 1241q-123 73-228 180-103-103-225-180h-158v25q191 198 254 303h260q63-110 256-303v-25h-159z" glyph-name="ucircumflex" horiz-adv-x="1300" unicode="&#xfb;"/><glyph d="M948 0l-33 145h-12q-49-77-139.5-121t-206.5-44q-201 0-300 100t-99 303v723h237v-682q0-127 52-190.5t163-63.5q148 0 217.5 88.5t69.5 296.5v551h236v-1106h-185zM332 1399q0 62 33.5 89.5t81.5 27.5q53 0 84.5-31t31.5-86q0-53-32-85t-84-32q-48 0-81.5 29t-33.5 88zM725 1399q0 62 33.5 89.5t81.5 27.5q53 0 85-31t32-86q0-54-33-85.5t-84-31.5q-48 0-81.5 29t-33.5 88z" glyph-name="udieresis" horiz-adv-x="1300" unicode="&#xfc;"/><glyph d="M0 1106h256l225-627q51-134 68-252h8q9 55 33 133.5t254 745.5h254l-473-1253q-129-345-430-345-78 0-152 17v186q53-12 121-12 170 0 239 197l41 104zM401 1241v25q57 70 117.5 156t95.5 147h273v-21q-52-61-155.5-157.5t-174.5-149.5h-156z" glyph-name="yacute" horiz-adv-x="1098" unicode="&#xfd;"/><glyph d="M403 961q61 86 142.5 125.5t187.5 39.5q206 0 322-151t116-420q0-272-116.5-423.5t-321.5-151.5q-219 0-330 149h-14l8-72 6-92v-457h-235v2048h235v-430l-7-138-3-27h10zM674 934q-142 0-206.5-82t-64.5-260v-37q0-202 64-292.5t209-90.5q254 0 254 385 0 190-61.5 283.5t-194.5 93.5z" glyph-name="thorn" horiz-adv-x="1276" unicode="&#xfe;"/><glyph d="M0 1106h256l225-627q51-134 68-252h8q9 55 33 133.5t254 745.5h254l-473-1253q-129-345-430-345-78 0-152 17v186q53-12 121-12 170 0 239 197l41 104zM239 1399q0 62 33.5 89.5t81.5 27.5q53 0 84.5-31t31.5-86q0-53-32-85t-84-32q-48 0-81.5 29t-33.5 88zM632 1399q0 62 33.5 89.5t81.5 27.5q53 0 85-31t32-86q0-54-33-85.5t-84-31.5q-48 0-81.5 29t-33.5 88z" glyph-name="ydieresis" horiz-adv-x="1098" unicode="&#xff;"/><glyph d="M1100 0l-146 406h-559l-143-406h-252l547 1468h260l547-1468h-254zM891 612l-137 398q-15 40-41.5 126t-36.5 126q-27-123-79-269l-132-381h426zM367 1753h639v-174h-639v174z" glyph-name="Amacron" horiz-adv-x="1354" unicode="&#x100;"/><glyph d="M860 0l-47 154h-8q-80-101-161-137.5t-208-36.5q-163 0-254.5 88t-91.5 249q0 171 127 258t387 95l191 6v59q0 106-49.5 158.5t-153.5 52.5q-85 0-163-25t-150-59l-76 168q90 47 197 71.5t202 24.5q211 0 318.5-92t107.5-289v-745h-168zM510 160q128 0 205.5 71.5t77.5 200.5v96l-142-6q-166-6-241.5-55.5t-75.5-151.5q0-74 44-114.5t132-40.5zM291 1415h639v-174h-639v174z" glyph-name="amacron" horiz-adv-x="1188" unicode="&#x101;"/><glyph d="M1100 0l-146 406h-559l-143-406h-252l547 1468h260l547-1468h-254zM891 612l-137 398q-15 40-41.5 126t-36.5 126q-27-123-79-269l-132-381h426zM669 1579q-157 0-247.5 79.5t-98.5 223.5h137q5-48 27-76.5t62.5-40.5 123.5-12q105 0 155.5 33t57.5 96h140q-12-141-108-222t-249-81z" glyph-name="Abreve" horiz-adv-x="1354" unicode="&#x102;"/><glyph d="M860 0l-47 154h-8q-80-101-161-137.5t-208-36.5q-163 0-254.5 88t-91.5 249q0 171 127 258t387 95l191 6v59q0 106-49.5 158.5t-153.5 52.5q-85 0-163-25t-150-59l-76 168q90 47 197 71.5t202 24.5q211 0 318.5-92t107.5-289v-745h-168zM510 160q128 0 205.5 71.5t77.5 200.5v96l-142-6q-166-6-241.5-55.5t-75.5-151.5q0-74 44-114.5t132-40.5zM599 1241q-157 0-247.5 79.5t-98.5 223.5h137q5-48 27-76.5t62.5-40.5 123.5-12q105 0 155.5 33t57.5 96h140q-12-141-108-222t-249-81z" glyph-name="abreve" horiz-adv-x="1188" unicode="&#x103;"/><glyph d="M1100 0l-146 406h-559l-143-406h-252l547 1468h260l547-1468h-254zM891 612l-137 398q-15 40-41.5 126t-36.5 126q-27-123-79-269l-132-381h426zM1108-233q0-89 88-89 43 0 104 17v-144q-69-20-139-20-113 0-171 56.5t-58 152.5q0 65 38 127t132 133h149q-69-66-106-120.5t-37-112.5z" glyph-name="Aogonek" horiz-adv-x="1354" unicode="&#x104;"/><glyph d="M860 0l-47 154h-8q-80-101-161-137.5t-208-36.5q-163 0-254.5 88t-91.5 249q0 171 127 258t387 95l191 6v59q0 106-49.5 158.5t-153.5 52.5q-85 0-163-25t-150-59l-76 168q90 47 197 71.5t202 24.5q211 0 318.5-92t107.5-289v-745h-168zM510 160q128 0 205.5 71.5t77.5 200.5v96l-142-6q-166-6-241.5-55.5t-75.5-151.5q0-74 44-114.5t132-40.5zM869-233q0-89 88-89 43 0 104 17v-144q-69-20-139-20-113 0-171 56.5t-58 152.5q0 65 38 127t132 133h149q-69-66-106-120.5t-37-112.5z" glyph-name="aogonek" horiz-adv-x="1188" unicode="&#x105;"/><glyph d="M815 1278q-206 0-324-146t-118-403q0-269 113.5-407t328.5-138q93 0 180 18.5t181 47.5v-205q-172-65-390-65-321 0-493 194.5t-172 556.5q0 228 83.5 399t241.5 262 371 91q224 0 414-94l-86-199q-74 35-156.5 61.5t-173.5 26.5zM626 1579v25q57 70 117.5 156t95.5 147h273v-21q-52-61-155.5-157.5t-174.5-149.5h-156z" glyph-name="Cacute" horiz-adv-x="1298" unicode="&#x106;"/><glyph d="M614-20q-251 0-381.5 146.5t-130.5 420.5q0 279 136.5 429t394.5 150q175 0 315-65l-71-189q-149 58-246 58-287 0-287-381 0-186 71.5-279.5t209.5-93.5q157 0 297 78v-205q-63-37-134.5-53t-173.5-16zM450 1241v25q57 70 117.5 156t95.5 147h273v-21q-52-61-155.5-157.5t-174.5-149.5h-156z" glyph-name="cacute" horiz-adv-x="1014" unicode="&#x107;"/><glyph d="M815 1278q-206 0-324-146t-118-403q0-269 113.5-407t328.5-138q93 0 180 18.5t181 47.5v-205q-172-65-390-65-321 0-493 194.5t-172 556.5q0 228 83.5 399t241.5 262 371 91q224 0 414-94l-86-199q-74 35-156.5 61.5t-173.5 26.5zM1008 1579q-123 73-228 180-103-103-225-180h-158v25q191 198 254 303h260q63-110 256-303v-25h-159z" glyph-name="Ccircumflex" horiz-adv-x="1298" unicode="&#x108;"/><glyph d="M614-20q-251 0-381.5 146.5t-130.5 420.5q0 279 136.5 429t394.5 150q175 0 315-65l-71-189q-149 58-246 58-287 0-287-381 0-186 71.5-279.5t209.5-93.5q157 0 297 78v-205q-63-37-134.5-53t-173.5-16zM808 1241q-123 73-228 180-103-103-225-180h-158v25q191 198 254 303h260q63-110 256-303v-25h-159z" glyph-name="ccircumflex" horiz-adv-x="1014" unicode="&#x109;"/><glyph d="M815 1278q-206 0-324-146t-118-403q0-269 113.5-407t328.5-138q93 0 180 18.5t181 47.5v-205q-172-65-390-65-321 0-493 194.5t-172 556.5q0 228 83.5 399t241.5 262 371 91q224 0 414-94l-86-199q-74 35-156.5 61.5t-173.5 26.5zM660 1737q0 63 34.5 97t98.5 34q62 0 96.5-34t34.5-97q0-60-34.5-94.5t-96.5-34.5q-64 0-98.5 34.5t-34.5 94.5z" glyph-name="Cdot" horiz-adv-x="1298" unicode="&#x10a;"/><glyph d="M614-20q-251 0-381.5 146.5t-130.5 420.5q0 279 136.5 429t394.5 150q175 0 315-65l-71-189q-149 58-246 58-287 0-287-381 0-186 71.5-279.5t209.5-93.5q157 0 297 78v-205q-63-37-134.5-53t-173.5-16zM480 1399q0 63 34.5 97t98.5 34q62 0 96.5-34t34.5-97q0-60-34.5-94.5t-96.5-34.5q-64 0-98.5 34.5t-34.5 94.5z" glyph-name="cdot" horiz-adv-x="1014" unicode="&#x10b;"/><glyph d="M815 1278q-206 0-324-146t-118-403q0-269 113.5-407t328.5-138q93 0 180 18.5t181 47.5v-205q-172-65-390-65-321 0-493 194.5t-172 556.5q0 228 83.5 399t241.5 262 371 91q224 0 414-94l-86-199q-74 35-156.5 61.5t-173.5 26.5zM1179 1907v-27q-126-131-177.5-193t-78.5-108h-260q-65 105-254 301v27h158q138-90 225-183 97 100 228 183h159z" glyph-name="Ccaron" horiz-adv-x="1298" unicode="&#x10c;"/><glyph d="M614-20q-251 0-381.5 146.5t-130.5 420.5q0 279 136.5 429t394.5 150q175 0 315-65l-71-189q-149 58-246 58-287 0-287-381 0-186 71.5-279.5t209.5-93.5q157 0 297 78v-205q-63-37-134.5-53t-173.5-16zM992 1569v-27q-126-131-177.5-193t-78.5-108h-260q-65 105-254 301v27h158q138-90 225-183 97 100 228 183h159z" glyph-name="ccaron" horiz-adv-x="1014" unicode="&#x10d;"/><glyph d="M1382 745q0-362-201-553.5t-579-191.5h-409v1462h452q349 0 543-188t194-529zM1130 737q0 525-491 525h-207v-1061h170q528 0 528 536zM1093 1907v-27q-126-131-177.5-193t-78.5-108h-260q-65 105-254 301v27h158q138-90 225-183 97 100 228 183h159z" glyph-name="Dcaron" horiz-adv-x="1503" unicode="&#x10e;"/><glyph d="M541-20q-207 0-323 150t-116 421q0 272 117.5 423.5t325.5 151.5q218 0 332-161h12q-17 119-17 188v403h236v-1556h-184l-41 145h-11q-113-165-331-165zM604 170q145 0 211 81.5t68 264.5v33q0 209-68 297t-213 88q-124 0-191-100.5t-67-286.5q0-184 65-280.5t195-96.5zM1200 1253q47 158 65 303h226v-20q-23-62-68-151.5t-88-155.5h-135v24z" glyph-name="dcaron" horiz-adv-x="1276" unicode="&#x10f;"/><glyph d="M1374 745q0-360-201-552.5t-579-192.5h-401v623h-146v200h146v639h446q347 0 541-188.5t194-528.5zM1122 737q0 260-124.5 392.5t-368.5 132.5h-197v-439h307v-200h-307v-422h160q530 0 530 536z" glyph-name="Dcroat" horiz-adv-x="1497" unicode="&#x110;"/><glyph d="M537-20q-206 0-320.5 147.5t-114.5 407.5q0 277 110.5 419t328.5 142q222 0 336-162h12q-3 10-10 79t-7 113v93h-383v163h383v174h236v-174h156v-163h-156v-1219h-193l-43 145h-10q-108-165-325-165zM610 170q142 0 207.5 79.5t65.5 252.5v33q0 204-64.5 286t-216.5 82q-125 0-186.5-88.5t-61.5-282.5q0-362 256-362z" glyph-name="dcroat" horiz-adv-x="1292" unicode="&#x111;"/><glyph d="M1020 0h-827v1462h827v-202h-588v-398h551v-200h-551v-459h588v-203zM295 1753h639v-174h-639v174z" glyph-name="Emacron" horiz-adv-x="1143" unicode="&#x112;"/><glyph d="M651-20q-258 0-403.5 150.5t-145.5 414.5q0 271 135 426t371 155q219 0 346-133t127-366v-127h-737q5-161 87-247.5t231-86.5q98 0 182.5 18.5t181.5 61.5v-191q-86-41-174-58t-201-17zM608 948q-112 0-179.5-71t-80.5-207h502q-2 137-66 207.5t-176 70.5zM293 1415h639v-174h-639v174z" glyph-name="emacron" horiz-adv-x="1180" unicode="&#x113;"/><glyph d="M1020 0h-827v1462h827v-202h-588v-398h551v-200h-551v-459h588v-203zM605 1579q-157 0-247.5 79.5t-98.5 223.5h137q5-48 27-76.5t62.5-40.5 123.5-12q105 0 155.5 33t57.5 96h140q-12-141-108-222t-249-81z" glyph-name="Ebreve" horiz-adv-x="1143" unicode="&#x114;"/><glyph d="M651-20q-258 0-403.5 150.5t-145.5 414.5q0 271 135 426t371 155q219 0 346-133t127-366v-127h-737q5-161 87-247.5t231-86.5q98 0 182.5 18.5t181.5 61.5v-191q-86-41-174-58t-201-17zM608 948q-112 0-179.5-71t-80.5-207h502q-2 137-66 207.5t-176 70.5zM605 1241q-157 0-247.5 79.5t-98.5 223.5h137q5-48 27-76.5t62.5-40.5 123.5-12q105 0 155.5 33t57.5 96h140q-12-141-108-222t-249-81z" glyph-name="ebreve" horiz-adv-x="1180" unicode="&#x115;"/><glyph d="M1020 0h-827v1462h827v-202h-588v-398h551v-200h-551v-459h588v-203zM488 1708q0 63 34.5 97t98.5 34q62 0 96.5-34t34.5-97q0-60-34.5-94.5t-96.5-34.5q-64 0-98.5 34.5t-34.5 94.5z" glyph-name="Edotaccent" horiz-adv-x="1143" unicode="&#x116;"/><glyph d="M651-20q-258 0-403.5 150.5t-145.5 414.5q0 271 135 426t371 155q219 0 346-133t127-366v-127h-737q5-161 87-247.5t231-86.5q98 0 182.5 18.5t181.5 61.5v-191q-86-41-174-58t-201-17zM608 948q-112 0-179.5-71t-80.5-207h502q-2 137-66 207.5t-176 70.5zM484 1399q0 63 34.5 97t98.5 34q62 0 96.5-34t34.5-97q0-60-34.5-94.5t-96.5-34.5q-64 0-98.5 34.5t-34.5 94.5z" glyph-name="edotaccent" horiz-adv-x="1180" unicode="&#x117;"/><glyph d="M1020 0h-827v1462h827v-202h-588v-398h551v-200h-551v-459h588v-203zM795-233q0-89 88-89 43 0 104 17v-144q-69-20-139-20-113 0-171 56.5t-58 152.5q0 65 38 127t132 133h149q-69-66-106-120.5t-37-112.5z" glyph-name="Eogonek" horiz-adv-x="1143" unicode="&#x118;"/><glyph d="M651-20q-258 0-403.5 150.5t-145.5 414.5q0 271 135 426t371 155q219 0 346-133t127-366v-127h-737q5-161 87-247.5t231-86.5q98 0 182.5 18.5t181.5 61.5v-191q-86-41-174-58t-201-17zM608 948q-112 0-179.5-71t-80.5-207h502q-2 137-66 207.5t-176 70.5zM793-208q0-89 88-89 43 0 104 17v-144q-69-20-139-20-113 0-171 56.5t-58 152.5q0 65 38 127t132 133h149q-69-66-106-120.5t-37-112.5z" glyph-name="eogonek" horiz-adv-x="1180" unicode="&#x119;"/><glyph d="M1020 0h-827v1462h827v-202h-588v-398h551v-200h-551v-459h588v-203zM999 1907v-27q-126-131-177.5-193t-78.5-108h-260q-65 105-254 301v27h158q138-90 225-183 97 100 228 183h159z" glyph-name="Ecaron" horiz-adv-x="1143" unicode="&#x11a;"/><glyph d="M651-20q-258 0-403.5 150.5t-145.5 414.5q0 271 135 426t371 155q219 0 346-133t127-366v-127h-737q5-161 87-247.5t231-86.5q98 0 182.5 18.5t181.5 61.5v-191q-86-41-174-58t-201-17zM608 948q-112 0-179.5-71t-80.5-207h502q-2 137-66 207.5t-176 70.5zM996 1569v-27q-126-131-177.5-193t-78.5-108h-260q-65 105-254 301v27h158q138-90 225-183 97 100 228 183h159z" glyph-name="ecaron" horiz-adv-x="1180" unicode="&#x11b;"/><glyph d="M791 793h538v-734q-132-43-253.5-61t-262.5-18q-332 0-512 196.5t-180 554.5q0 353 203 552.5t559 199.5q229 0 434-88l-84-199q-178 82-356 82-234 0-370-147t-136-402q0-268 122.5-407.5t352.5-139.5q116 0 248 29v377h-303v205zM1047 1579q-123 73-228 180-103-103-225-180h-158v25q191 198 254 303h260q63-110 256-303v-25h-159z" glyph-name="Gcircumflex" horiz-adv-x="1487" unicode="&#x11c;"/><glyph d="M1102 1106v-129l-189-35q26-35 43-86t17-108q0-171-118-269t-325-98q-53 0-96 8-76-47-76-110 0-38 35.5-57t130.5-19h193q183 0 278-78t95-225q0-188-155-290t-448-102q-226 0-345 80t-119 228q0 102 64.5 171.5t180.5 96.5q-47 20-77.5 64.5t-30.5 93.5q0 62 35 105t104 85q-86 37-139.5 120.5t-53.5 195.5q0 180 113.5 279t323.5 99q47 0 98.5-6.5t77.5-13.5h383zM233-172q0-76 68.5-117t192.5-41q192 0 286 55t94 146q0 72-51.5 102.5t-191.5 30.5h-178q-101 0-160.5-47.5t-59.5-128.5zM334 748q0-104 53.5-160t153.5-56q204 0 204 218 0 108-50.5 166.5t-153.5 58.5q-102 0-154.5-58t-52.5-169zM794 1241q-123 73-228 180-103-103-225-180h-158v25q191 198 254 303h260q63-110 256-303v-25h-159z" glyph-name="gcircumflex" horiz-adv-x="1139" unicode="&#x11d;"/><glyph d="M791 793h538v-734q-132-43-253.5-61t-262.5-18q-332 0-512 196.5t-180 554.5q0 353 203 552.5t559 199.5q229 0 434-88l-84-199q-178 82-356 82-234 0-370-147t-136-402q0-268 122.5-407.5t352.5-139.5q116 0 248 29v377h-303v205zM829 1579q-157 0-247.5 79.5t-98.5 223.5h137q5-48 27-76.5t62.5-40.5 123.5-12q105 0 155.5 33t57.5 96h140q-12-141-108-222t-249-81z" glyph-name="Gbreve" horiz-adv-x="1487" unicode="&#x11e;"/><glyph d="M1102 1106v-129l-189-35q26-35 43-86t17-108q0-171-118-269t-325-98q-53 0-96 8-76-47-76-110 0-38 35.5-57t130.5-19h193q183 0 278-78t95-225q0-188-155-290t-448-102q-226 0-345 80t-119 228q0 102 64.5 171.5t180.5 96.5q-47 20-77.5 64.5t-30.5 93.5q0 62 35 105t104 85q-86 37-139.5 120.5t-53.5 195.5q0 180 113.5 279t323.5 99q47 0 98.5-6.5t77.5-13.5h383zM233-172q0-76 68.5-117t192.5-41q192 0 286 55t94 146q0 72-51.5 102.5t-191.5 30.5h-178q-101 0-160.5-47.5t-59.5-128.5zM334 748q0-104 53.5-160t153.5-56q204 0 204 218 0 108-50.5 166.5t-153.5 58.5q-102 0-154.5-58t-52.5-169zM566 1241q-157 0-247.5 79.5t-98.5 223.5h137q5-48 27-76.5t62.5-40.5 123.5-12q105 0 155.5 33t57.5 96h140q-12-141-108-222t-249-81z" glyph-name="gbreve" horiz-adv-x="1139" unicode="&#x11f;"/><glyph d="M791 793h538v-734q-132-43-253.5-61t-262.5-18q-332 0-512 196.5t-180 554.5q0 353 203 552.5t559 199.5q229 0 434-88l-84-199q-178 82-356 82-234 0-370-147t-136-402q0-268 122.5-407.5t352.5-139.5q116 0 248 29v377h-303v205zM713 1737q0 63 34.5 97t98.5 34q62 0 96.5-34t34.5-97q0-60-34.5-94.5t-96.5-34.5q-64 0-98.5 34.5t-34.5 94.5z" glyph-name="Gdot" horiz-adv-x="1487" unicode="&#x120;"/><glyph d="M1102 1106v-129l-189-35q26-35 43-86t17-108q0-171-118-269t-325-98q-53 0-96 8-76-47-76-110 0-38 35.5-57t130.5-19h193q183 0 278-78t95-225q0-188-155-290t-448-102q-226 0-345 80t-119 228q0 102 64.5 171.5t180.5 96.5q-47 20-77.5 64.5t-30.5 93.5q0 62 35 105t104 85q-86 37-139.5 120.5t-53.5 195.5q0 180 113.5 279t323.5 99q47 0 98.5-6.5t77.5-13.5h383zM233-172q0-76 68.5-117t192.5-41q192 0 286 55t94 146q0 72-51.5 102.5t-191.5 30.5h-178q-101 0-160.5-47.5t-59.5-128.5zM334 748q0-104 53.5-160t153.5-56q204 0 204 218 0 108-50.5 166.5t-153.5 58.5q-102 0-154.5-58t-52.5-169zM428 1399q0 63 34.5 97t98.5 34q62 0 96.5-34t34.5-97q0-60-34.5-94.5t-96.5-34.5q-64 0-98.5 34.5t-34.5 94.5z" glyph-name="gdot" horiz-adv-x="1139" unicode="&#x121;"/><glyph d="M791 793h538v-734q-132-43-253.5-61t-262.5-18q-332 0-512 196.5t-180 554.5q0 353 203 552.5t559 199.5q229 0 434-88l-84-199q-178 82-356 82-234 0-370-147t-136-402q0-268 122.5-407.5t352.5-139.5q116 0 248 29v377h-303v205zM645-428q23 64 44.5 150.5t29.5 152.5h225v-20q-29-80-75-166t-88-142h-136v25z" glyph-name="Gcommaaccent" horiz-adv-x="1487" unicode="&#x122;"/><glyph d="M1102 1106v-129l-189-35q26-35 43-86t17-108q0-171-118-269t-325-98q-53 0-96 8-76-47-76-110 0-38 35.5-57t130.5-19h193q183 0 278-78t95-225q0-188-155-290t-448-102q-226 0-345 80t-119 228q0 102 64.5 171.5t180.5 96.5q-47 20-77.5 64.5t-30.5 93.5q0 62 35 105t104 85q-86 37-139.5 120.5t-53.5 195.5q0 180 113.5 279t323.5 99q47 0 98.5-6.5t77.5-13.5h383zM233-172q0-76 68.5-117t192.5-41q192 0 286 55t94 146q0 72-51.5 102.5t-191.5 30.5h-178q-101 0-160.5-47.5t-59.5-128.5zM334 748q0-104 53.5-160t153.5-56q204 0 204 218 0 108-50.5 166.5t-153.5 58.5q-102 0-154.5-58t-52.5-169zM735 1542q-19-53-41.5-141.5t-31.5-159.5h-226v19q28 77 74.5 163.5t89.5 145.5h135v-27z" glyph-name="gcommaaccent" horiz-adv-x="1139" unicode="&#x123;"/><glyph d="M1346 0h-240v659h-674v-659h-239v1462h239v-598h674v598h240v-1462zM992 1579q-123 73-228 180-103-103-225-180h-158v25q191 198 254 303h260q63-110 256-303v-25h-159z" glyph-name="Hcircumflex" horiz-adv-x="1538" unicode="&#x124;"/><glyph d="M1141 0h-236v680q0 128-51.5 191t-163.5 63q-148 0-217.5-88.5t-69.5-296.5v-549h-235v1556h235v-395q0-95-12-203h15q48 80 133.5 124t199.5 44q402 0 402-405v-721zM879 1634q-123 73-228 180-103-103-225-180h-158v25q191 198 254 303h260q63-110 256-303v-25h-159z" glyph-name="hcircumflex" horiz-adv-x="1300" unicode="&#x125;"/><glyph d="M1346 1241h192v-170h-192v-1071h-240v659h-674v-659h-239v1071h-193v170h193v221h239v-221h674v221h240v-221zM1106 864v207h-674v-207h674z" glyph-name="Hbar" horiz-adv-x="1538" unicode="&#x126;"/><glyph d="M1141 0h-236v631q0 127-51.5 190.5t-163.5 63.5q-148 0-217.5-88.5t-69.5-296.5v-500h-235v1219h-156v163h156v174h235v-174h381v-163h-381v-107q0-29-2-69.5t-10-133.5h15q54 87 141.5 127.5t193.5 40.5q400 0 400-405v-672z" glyph-name="hbar" horiz-adv-x="1300" unicode="&#x127;"/><glyph d="M664 0h-590v137l176 58v1071l-176 59v137h590v-137l-175-59v-1071l175-58v-137zM519 1579q-42 0-82.5 17.5t-79.5 39-76 39-71 17.5q-81 0-109-115h-122q12 139 77.5 212t167.5 73q43 0 84-17.5t80-39 75.5-39 70.5-17.5q79 0 106 115h125q-12-134-77-209.5t-169-75.5z" glyph-name="Itilde.alt" horiz-adv-x="739"/><glyph d="M403 0h-235v1106h235v-1106zM435 1241q-42 0-82.5 17.5t-79.5 39-76 39-71 17.5q-81 0-109-115h-122q12 139 77.5 212t167.5 73q43 0 84-17.5t80-39 75.5-39 70.5-17.5q79 0 106 115h125q-12-134-77-209.5t-169-75.5z" glyph-name="itilde" horiz-adv-x="571" unicode="&#x129;"/><glyph d="M664 0h-590v137l176 58v1071l-176 59v137h590v-137l-175-59v-1071l175-58v-137zM52 1753h639v-174h-639v174z" glyph-name="Imacron.alt" horiz-adv-x="739"/><glyph d="M403 0h-235v1106h235v-1106zM-32 1415h639v-174h-639v174z" glyph-name="imacron" horiz-adv-x="571" unicode="&#x12b;"/><glyph d="M664 0h-590v137l176 58v1071l-176 59v137h590v-137l-175-59v-1071l175-58v-137zM365 1579q-157 0-247.5 79.5t-98.5 223.5h137q5-48 27-76.5t62.5-40.5 123.5-12q105 0 155.5 33t57.5 96h140q-12-141-108-222t-249-81z" glyph-name="Ibreve.alt" horiz-adv-x="739"/><glyph d="M403 0h-235v1106h235v-1106zM279 1241q-157 0-247.5 79.5t-98.5 223.5h137q5-48 27-76.5t62.5-40.5 123.5-12q105 0 155.5 33t57.5 96h140q-12-141-108-222t-249-81z" glyph-name="ibreve" horiz-adv-x="571" unicode="&#x12d;"/><glyph d="M664 0h-590v137l176 58v1071l-176 59v137h590v-137l-175-59v-1071l175-58v-137zM310-233q0-89 88-89 43 0 104 17v-144q-69-20-139-20-113 0-171 56.5t-58 152.5q0 65 38 127t132 133h149q-69-66-106-120.5t-37-112.5z" glyph-name="Iogonek.alt" horiz-adv-x="739"/><glyph d="M403 0h-235v1106h235v-1106zM154 1399q0 63 34.5 97t98.5 34q62 0 96.5-34t34.5-97q0-60-34.5-94.5t-96.5-34.5q-64 0-98.5 34.5t-34.5 94.5zM224-233q0-89 88-89 43 0 104 17v-144q-69-20-139-20-113 0-171 56.5t-58 152.5q0 65 38 127t132 133h149q-69-66-106-120.5t-37-112.5z" glyph-name="iogonek" horiz-adv-x="571" unicode="&#x12f;"/><glyph d="M664 0h-590v137l176 58v1071l-176 59v137h590v-137l-175-59v-1071l175-58v-137zM236 1737q0 63 34.5 97t98.5 34q62 0 96.5-34t34.5-97q0-60-34.5-94.5t-96.5-34.5q-64 0-98.5 34.5t-34.5 94.5z" glyph-name="Idotaccent.alt" horiz-adv-x="739"/><glyph d="M403 0h-235v1106h235v-1106z" glyph-name="dotlessi" horiz-adv-x="571" unicode="&#x131;"/><glyph d="M664 0h-590v137l176 58v1071l-176 59v137h590v-137l-175-59v-1071l175-58v-137zM745-408q-98 0-164 25v201q84-21 146-21 196 0 196 248v1417h240v-1409q0-224-106.5-342.5t-311.5-118.5z" glyph-name="IJ.alt" horiz-adv-x="1352"/><glyph d="M403 0h-235v1106h235v-1106zM154 1399q0 63 34.5 97t98.5 34q62 0 96.5-34t34.5-97q0-60-34.5-94.5t-96.5-34.5q-64 0-98.5 34.5t-34.5 94.5zM606-492q-106 0-176 25v186q68-18 139-18 150 0 150 170v1235h235v-1251q0-171-89.5-259t-258.5-88zM705 1399q0 63 34.5 97t98.5 34q62 0 96.5-34t34.5-97q0-60-34.5-94.5t-96.5-34.5q-64 0-98.5 34.5t-34.5 94.5z" glyph-name="ij" horiz-adv-x="1122" unicode="&#x133;"/><glyph d="M8-408q-98 0-164 25v201q84-21 146-21 196 0 196 248v1417h240v-1409q0-224-106.5-342.5t-311.5-118.5zM536 1579q-123 73-228 180-103-103-225-180h-158v25q191 198 254 303h260q63-110 256-303v-25h-159z" glyph-name="Jcircumflex" horiz-adv-x="612" unicode="&#x134;"/><glyph d="M55-492q-106 0-176 25v186q68-18 139-18 150 0 150 170v1235h235v-1251q0-171-89.5-259t-258.5-88zM507 1241q-123 73-228 180-103-103-225-180h-158v25q191 198 254 303h260q63-110 256-303v-25h-159z" glyph-name="jcircumflex" horiz-adv-x="571" unicode="&#x135;"/><glyph d="M1309 0h-277l-459 662-141-115v-547h-239v1462h239v-698q98 120 195 231l395 467h272q-383-450-549-641zM503-428q23 64 44.5 150.5t29.5 152.5h225v-20q-29-80-75-166t-88-142h-136v25z" glyph-name="Kcommaaccent" horiz-adv-x="1309" unicode="&#x136;"/><glyph d="M395 584l133 166 334 356h271l-445-475 473-631h-276l-355 485-129-106v-379h-233v1556h233v-759l-12-213h6zM438-428q23 64 44.5 150.5t29.5 152.5h225v-20q-29-80-75-166t-88-142h-136v25z" glyph-name="kcommaaccent" horiz-adv-x="1171" unicode="&#x137;"/><glyph d="M399 557l467 549h267l-428-498 454-608h-274l-336 465-139-103v-362h-242v1106h242v-289q0-128-11-260z" glyph-name="kgreenlandic" horiz-adv-x="1165" unicode="&#x138;"/><glyph d="M193 0v1462h239v-1257h619v-205h-858zM252 1579v25q57 70 117.5 156t95.5 147h273v-21q-52-61-155.5-157.5t-174.5-149.5h-156z" glyph-name="Lacute" horiz-adv-x="1110" unicode="&#x139;"/><glyph d="M403 0h-235v1556h235v-1556zM170 1636v25q57 70 117.5 156t95.5 147h273v-21q-52-61-155.5-157.5t-174.5-149.5h-156z" glyph-name="lacute" horiz-adv-x="571" unicode="&#x13a;"/><glyph d="M193 0v1462h239v-1257h619v-205h-858zM419-428q23 64 44.5 150.5t29.5 152.5h225v-20q-29-80-75-166t-88-142h-136v25z" glyph-name="Lcommaaccent" horiz-adv-x="1110" unicode="&#x13b;"/><glyph d="M403 0h-235v1556h235v-1556zM93-428q23 64 44.5 150.5t29.5 152.5h225v-20q-29-80-75-166t-88-142h-136v25z" glyph-name="lcommaaccent" horiz-adv-x="571" unicode="&#x13c;"/><glyph d="M193 0v1462h239v-1257h619v-205h-858zM699 1160q47 158 65 303h226v-20q-23-62-68-151.5t-88-155.5h-135v24z" glyph-name="Lcaron" horiz-adv-x="1110" unicode="&#x13d;"/><glyph d="M403 0h-235v1556h235v-1556zM496 1253q47 158 65 303h226v-20q-23-62-68-151.5t-88-155.5h-135v24z" glyph-name="lcaron" horiz-adv-x="571" unicode="&#x13e;"/><glyph d="M193 0v1462h239v-1257h619v-205h-858zM691 738q0 63 34.5 97t98.5 34q62 0 96.5-34t34.5-97q0-60-34.5-94.5t-96.5-34.5q-64 0-98.5 34.5t-34.5 94.5z" glyph-name="Ldot" horiz-adv-x="1110" unicode="&#x13f;"/><glyph d="M403 0h-235v1556h235v-1556zM535 687q0 63 34.5 97t98.5 34q62 0 96.5-34t34.5-97q0-60-34.5-94.5t-96.5-34.5q-64 0-98.5 34.5t-34.5 94.5z" glyph-name="ldot" horiz-adv-x="760" unicode="&#x140;"/><glyph d="M193 0v500l-89-51-90 155 179 107v751h239v-608l219 131 92-158-311-184v-438h619v-205h-858z" glyph-name="Lslash" horiz-adv-x="1114" unicode="&#x141;"/><glyph d="M416 897l102 68 94-154-196-127v-684h-236v537l-92-58-90 154 182 117v806h236v-659z" glyph-name="lslash" horiz-adv-x="604" unicode="&#x142;"/><glyph d="M1411 0h-293l-719 1165h-8l5-65q14-186 14-340v-760h-217v1462h290l717-1159h6q-2 23-8 167.5t-6 225.5v766h219v-1462zM653 1579v25q57 70 117.5 156t95.5 147h273v-21q-52-61-155.5-157.5t-174.5-149.5h-156z" glyph-name="Nacute" horiz-adv-x="1604" unicode="&#x143;"/><glyph d="M1141 0h-236v680q0 128-51.5 191t-163.5 63q-149 0-218-88t-69-295v-551h-235v1106h184l33-145h12q50 79 142 122t204 43q398 0 398-405v-721zM507 1241v25q57 70 117.5 156t95.5 147h273v-21q-52-61-155.5-157.5t-174.5-149.5h-156z" glyph-name="nacute" horiz-adv-x="1300" unicode="&#x144;"/><glyph d="M1411 0h-293l-719 1165h-8l5-65q14-186 14-340v-760h-217v1462h290l717-1159h6q-2 23-8 167.5t-6 225.5v766h219v-1462zM583-428q23 64 44.5 150.5t29.5 152.5h225v-20q-29-80-75-166t-88-142h-136v25z" glyph-name="Ncommaaccent" horiz-adv-x="1604" unicode="&#x145;"/><glyph d="M1141 0h-236v680q0 128-51.5 191t-163.5 63q-149 0-218-88t-69-295v-551h-235v1106h184l33-145h12q50 79 142 122t204 43q398 0 398-405v-721zM458-428q23 64 44.5 150.5t29.5 152.5h225v-20q-29-80-75-166t-88-142h-136v25z" glyph-name="ncommaaccent" horiz-adv-x="1300" unicode="&#x146;"/><glyph d="M1411 0h-293l-719 1165h-8l5-65q14-186 14-340v-760h-217v1462h290l717-1159h6q-2 23-8 167.5t-6 225.5v766h219v-1462zM1198 1907v-27q-126-131-177.5-193t-78.5-108h-260q-65 105-254 301v27h158q138-90 225-183 97 100 228 183h159z" glyph-name="Ncaron" horiz-adv-x="1604" unicode="&#x147;"/><glyph d="M1141 0h-236v680q0 128-51.5 191t-163.5 63q-149 0-218-88t-69-295v-551h-235v1106h184l33-145h12q50 79 142 122t204 43q398 0 398-405v-721zM1050 1569v-27q-126-131-177.5-193t-78.5-108h-260q-65 105-254 301v27h158q138-90 225-183 97 100 228 183h159z" glyph-name="ncaron" horiz-adv-x="1300" unicode="&#x148;"/><glyph d="M1334 0h-236v680q0 128-51.5 191t-163.5 63q-149 0-218-88t-69-295v-551h-235v1106h184l33-145h12q50 79 142 122t204 43q398 0 398-405v-721zM334 1462l15-22q-53-209-176-479h-170q69 289 100 501h231z" glyph-name="napostrophe" horiz-adv-x="1495" unicode="&#x149;"/><glyph d="M991-408q-104 0-174 25v203q74-21 160-21 106 0 162 53t61 150l-801 1163h-8l5-62q14-193 14-358v-745h-217v1462h290l717-1046h6q-14 123-14 553v493h219v-1456q0-201-109-307.5t-311-106.5z" glyph-name="Eng" horiz-adv-x="1604" unicode="&#x14a;"/><glyph d="M817-492q-98 0-164 25v186q58-18 121-18 131 0 131 170v821q0 122-52.5 182t-162.5 60q-149 0-218-88t-69-295v-551h-235v1106h184l33-145h14q49 79 138.5 122t203.5 43q203 0 301.5-101t98.5-304v-866q0-169-83-258t-241-89z" glyph-name="eng" horiz-adv-x="1300" unicode="&#x14b;"/><glyph d="M1491 733q0-357-178.5-555t-505.5-198q-331 0-508.5 196.5t-177.5 558.5 178.5 556 509.5 194q326 0 504-197t178-555zM375 733q0-270 109-409.5t323-139.5q213 0 321.5 138t108.5 411q0 269-107.5 408t-320.5 139q-215 0-324.5-139t-109.5-408zM488 1753h639v-174h-639v174z" glyph-name="Omacron" horiz-adv-x="1612" unicode="&#x14c;"/><glyph d="M1149 555q0-271-139-423t-387-152q-155 0-274 70t-183 201-64 304q0 269 138 420t389 151q240 0 380-154.5t140-416.5zM344 555q0-383 283-383 280 0 280 383 0 379-282 379-148 0-214.5-98t-66.5-281zM305 1415h639v-174h-639v174z" glyph-name="omacron" horiz-adv-x="1251" unicode="&#x14d;"/><glyph d="M1491 733q0-357-178.5-555t-505.5-198q-331 0-508.5 196.5t-177.5 558.5 178.5 556 509.5 194q326 0 504-197t178-555zM375 733q0-270 109-409.5t323-139.5q213 0 321.5 138t108.5 411q0 269-107.5 408t-320.5 139q-215 0-324.5-139t-109.5-408zM801 1579q-157 0-247.5 79.5t-98.5 223.5h137q5-48 27-76.5t62.5-40.5 123.5-12q105 0 155.5 33t57.5 96h140q-12-141-108-222t-249-81z" glyph-name="Obreve" horiz-adv-x="1612" unicode="&#x14e;"/><glyph d="M1149 555q0-271-139-423t-387-152q-155 0-274 70t-183 201-64 304q0 269 138 420t389 151q240 0 380-154.5t140-416.5zM344 555q0-383 283-383 280 0 280 383 0 379-282 379-148 0-214.5-98t-66.5-281zM618 1241q-157 0-247.5 79.5t-98.5 223.5h137q5-48 27-76.5t62.5-40.5 123.5-12q105 0 155.5 33t57.5 96h140q-12-141-108-222t-249-81z" glyph-name="obreve" horiz-adv-x="1251" unicode="&#x14f;"/><glyph d="M1491 733q0-357-178.5-555t-505.5-198q-331 0-508.5 196.5t-177.5 558.5 178.5 556 509.5 194q326 0 504-197t178-555zM375 733q0-270 109-409.5t323-139.5q213 0 321.5 138t108.5 411q0 269-107.5 408t-320.5 139q-215 0-324.5-139t-109.5-408zM492 1579v25q104 144 186 303h244v-21q-29-49-126-148t-175-159h-129zM868 1579v25q43 57 99.5 147.5t87.5 155.5h243v-21q-29-49-126-148t-175-159h-129z" glyph-name="Ohungarumlaut" horiz-adv-x="1612" unicode="&#x150;"/><glyph d="M1149 555q0-271-139-423t-387-152q-155 0-274 70t-183 201-64 304q0 269 138 420t389 151q240 0 380-154.5t140-416.5zM344 555q0-383 283-383 280 0 280 383 0 379-282 379-148 0-214.5-98t-66.5-281zM299 1241v25q104 144 186 303h244v-21q-29-49-126-148t-175-159h-129zM675 1241v25q43 57 99.5 147.5t87.5 155.5h243v-21q-29-49-126-148t-175-159h-129z" glyph-name="ohungarumlaut" horiz-adv-x="1251" unicode="&#x151;"/><glyph d="M1819 0h-820q-102-20-211-20-320 0-493.5 196.5t-173.5 558.5q0 360 172 555t491 195q115 0 209-23h826v-202h-576v-398h539v-200h-539v-459h576v-203zM793 1280q-208 0-315-139t-107-408 106-409 314-140q129 0 213 35v1024q-80 37-211 37z" glyph-name="OE" horiz-adv-x="1942" unicode="&#x152;"/><glyph d="M1438-20q-281 0-420 194-132-194-400-194-236 0-376 155t-140 420q0 272 137 421.5t382 149.5q121 0 223-49t168-145q131 194 379 194 221 0 349-133.5t128-365.5v-127h-738q11-164 85.5-249t228.5-85q102 0 187 18.5t181 61.5v-191q-84-40-171.5-57.5t-202.5-17.5zM344 555q0-189 65.5-286t211.5-97q141 0 206.5 95.5t65.5 283.5q0 192-66 287.5t-211 95.5q-143 0-207.5-95t-64.5-284zM1393 948q-110 0-177.5-69.5t-78.5-208.5h497q0 134-63 206t-178 72z" glyph-name="oe" horiz-adv-x="1966" unicode="&#x153;"/><glyph d="M432 782h166q167 0 242 62t75 184q0 124-81 178t-244 54h-158v-478zM432 584v-584h-239v1462h413q283 0 419-106t136-320q0-273-284-389l413-647h-272l-350 584h-236zM495 1579v25q57 70 117.5 156t95.5 147h273v-21q-52-61-155.5-157.5t-174.5-149.5h-156z" glyph-name="Racute" horiz-adv-x="1309" unicode="&#x154;"/><glyph d="M729 1126q71 0 117-10l-23-219q-50 12-104 12-141 0-228.5-92t-87.5-239v-578h-235v1106h184l31-195h12q55 99 143.5 157t190.5 58zM349 1241v25q57 70 117.5 156t95.5 147h273v-21q-52-61-155.5-157.5t-174.5-149.5h-156z" glyph-name="racute" horiz-adv-x="883" unicode="&#x155;"/><glyph d="M432 782h166q167 0 242 62t75 184q0 124-81 178t-244 54h-158v-478zM432 584v-584h-239v1462h413q283 0 419-106t136-320q0-273-284-389l413-647h-272l-350 584h-236zM510-428q23 64 44.5 150.5t29.5 152.5h225v-20q-29-80-75-166t-88-142h-136v25z" glyph-name="Rcommaaccent" horiz-adv-x="1309" unicode="&#x156;"/><glyph d="M729 1126q71 0 117-10l-23-219q-50 12-104 12-141 0-228.5-92t-87.5-239v-578h-235v1106h184l31-195h12q55 99 143.5 157t190.5 58zM97-428q23 64 44.5 150.5t29.5 152.5h225v-20q-29-80-75-166t-88-142h-136v25z" glyph-name="rcommaaccent" horiz-adv-x="883" unicode="&#x157;"/><glyph d="M432 782h166q167 0 242 62t75 184q0 124-81 178t-244 54h-158v-478zM432 584v-584h-239v1462h413q283 0 419-106t136-320q0-273-284-389l413-647h-272l-350 584h-236zM1036 1907v-27q-126-131-177.5-193t-78.5-108h-260q-65 105-254 301v27h158q138-90 225-183 97 100 228 183h159z" glyph-name="Rcaron" horiz-adv-x="1309" unicode="&#x158;"/><glyph d="M729 1126q71 0 117-10l-23-219q-50 12-104 12-141 0-228.5-92t-87.5-239v-578h-235v1106h184l31-195h12q55 99 143.5 157t190.5 58zM877 1569v-27q-126-131-177.5-193t-78.5-108h-260q-65 105-254 301v27h158q138-90 225-183 97 100 228 183h159z" glyph-name="rcaron" horiz-adv-x="883" unicode="&#x159;"/><glyph d="M1036 397q0-195-141-306t-389-111-406 77v226q100-47 212.5-74t209.5-27q142 0 209.5 54t67.5 145q0 82-62 139t-256 135q-200 81-282 185t-82 250q0 183 130 288t349 105q210 0 418-92l-76-195q-195 82-348 82-116 0-176-50.5t-60-133.5q0-57 24-97.5t79-76.5 198-95q161-67 236-125t110-131 35-172zM440 1579v25q57 70 117.5 156t95.5 147h273v-21q-52-61-155.5-157.5t-174.5-149.5h-156z" glyph-name="Sacute" horiz-adv-x="1126" unicode="&#x15a;"/><glyph d="M911 315q0-162-118-248.5t-338-86.5q-221 0-355 67v203q195-90 363-90 217 0 217 131 0 42-24 70t-79 58-153 68q-191 74-258.5 148t-67.5 192q0 142 114.5 220.5t311.5 78.5q195 0 369-79l-76-177q-179 74-301 74-186 0-186-106 0-52 48.5-88t211.5-99q137-53 199-97t92-101.5 30-137.5zM357 1241v25q57 70 117.5 156t95.5 147h273v-21q-52-61-155.5-157.5t-174.5-149.5h-156z" glyph-name="sacute" horiz-adv-x="997" unicode="&#x15b;"/><glyph d="M1036 397q0-195-141-306t-389-111-406 77v226q100-47 212.5-74t209.5-27q142 0 209.5 54t67.5 145q0 82-62 139t-256 135q-200 81-282 185t-82 250q0 183 130 288t349 105q210 0 418-92l-76-195q-195 82-348 82-116 0-176-50.5t-60-133.5q0-57 24-97.5t79-76.5 198-95q161-67 236-125t110-131 35-172zM816 1579q-123 73-228 180-103-103-225-180h-158v25q191 198 254 303h260q63-110 256-303v-25h-159z" glyph-name="Scircumflex" horiz-adv-x="1126" unicode="&#x15c;"/><glyph d="M911 315q0-162-118-248.5t-338-86.5q-221 0-355 67v203q195-90 363-90 217 0 217 131 0 42-24 70t-79 58-153 68q-191 74-258.5 148t-67.5 192q0 142 114.5 220.5t311.5 78.5q195 0 369-79l-76-177q-179 74-301 74-186 0-186-106 0-52 48.5-88t211.5-99q137-53 199-97t92-101.5 30-137.5zM739 1241q-123 73-228 180-103-103-225-180h-158v25q191 198 254 303h260q63-110 256-303v-25h-159z" glyph-name="scircumflex" horiz-adv-x="997" unicode="&#x15d;"/><glyph d="M1036 397q0-195-141-306t-389-111-406 77v226q100-47 212.5-74t209.5-27q142 0 209.5 54t67.5 145q0 82-62 139t-256 135q-200 81-282 185t-82 250q0 183 130 288t349 105q210 0 418-92l-76-195q-195 82-348 82-116 0-176-50.5t-60-133.5q0-57 24-97.5t79-76.5 198-95q161-67 236-125t110-131 35-172zM750-270q0-222-305-222-66 0-121 15v137q54-14 123-14 54 0 85.5 16.5t31.5 61.5q0 85-179 110l84 166h152l-41-88q80-21 125-68.5t45-113.5z" glyph-name="Scedilla" horiz-adv-x="1126" unicode="&#x15e;"/><glyph d="M911 315q0-162-118-248.5t-338-86.5q-221 0-355 67v203q195-90 363-90 217 0 217 131 0 42-24 70t-79 58-153 68q-191 74-258.5 148t-67.5 192q0 142 114.5 220.5t311.5 78.5q195 0 369-79l-76-177q-179 74-301 74-186 0-186-106 0-52 48.5-88t211.5-99q137-53 199-97t92-101.5 30-137.5zM682-270q0-222-305-222-66 0-121 15v137q54-14 123-14 54 0 85.5 16.5t31.5 61.5q0 85-179 110l84 166h152l-41-88q80-21 125-68.5t45-113.5z" glyph-name="scedilla" horiz-adv-x="997" unicode="&#x15f;"/><glyph d="M1036 397q0-195-141-306t-389-111-406 77v226q100-47 212.5-74t209.5-27q142 0 209.5 54t67.5 145q0 82-62 139t-256 135q-200 81-282 185t-82 250q0 183 130 288t349 105q210 0 418-92l-76-195q-195 82-348 82-116 0-176-50.5t-60-133.5q0-57 24-97.5t79-76.5 198-95q161-67 236-125t110-131 35-172zM973 1907v-27q-126-131-177.5-193t-78.5-108h-260q-65 105-254 301v27h158q138-90 225-183 97 100 228 183h159z" glyph-name="Scaron" horiz-adv-x="1126" unicode="&#x160;"/><glyph d="M911 315q0-162-118-248.5t-338-86.5q-221 0-355 67v203q195-90 363-90 217 0 217 131 0 42-24 70t-79 58-153 68q-191 74-258.5 148t-67.5 192q0 142 114.5 220.5t311.5 78.5q195 0 369-79l-76-177q-179 74-301 74-186 0-186-106 0-52 48.5-88t211.5-99q137-53 199-97t92-101.5 30-137.5zM904 1569v-27q-126-131-177.5-193t-78.5-108h-260q-65 105-254 301v27h158q138-90 225-183 97 100 228 183h159z" glyph-name="scaron" horiz-adv-x="997" unicode="&#x161;"/><glyph d="M698 0h-239v1257h-430v205h1099v-205h-430v-1257zM391-428q23 64 44.5 150.5t29.5 152.5h225v-20q-29-80-75-166t-88-142h-136v25z" glyph-name="Tcommaaccent" horiz-adv-x="1159" unicode="&#x21a;"/><glyph d="M580 170q86 0 172 27v-177q-39-17-100.5-28.5t-127.5-11.5q-334 0-334 352v596h-151v104l162 86 80 234h145v-246h315v-178h-315v-592q0-85 42.5-125.5t111.5-40.5zM271-428q23 64 44.5 150.5t29.5 152.5h225v-20q-29-80-75-166t-88-142h-136v25z" glyph-name="tcommaaccent" horiz-adv-x="805" unicode="&#x21b;"/><glyph d="M698 0h-239v1257h-430v205h1099v-205h-430v-1257zM967 1907v-27q-126-131-177.5-193t-78.5-108h-260q-65 105-254 301v27h158q138-90 225-183 97 100 228 183h159z" glyph-name="Tcaron" horiz-adv-x="1159" unicode="&#x164;"/><glyph d="M580 170q86 0 172 27v-177q-39-17-100.5-28.5t-127.5-11.5q-334 0-334 352v596h-151v104l162 86 80 234h145v-246h315v-178h-315v-592q0-85 42.5-125.5t111.5-40.5zM555 1263q47 158 65 303h226v-20q-23-62-68-151.5t-88-155.5h-135v24z" glyph-name="tcaron" horiz-adv-x="805" unicode="&#x165;"/><glyph d="M698 0h-239v635h-281v196h281v426h-430v205h1099v-205h-430v-426h279v-196h-279v-635z" glyph-name="Tbar" horiz-adv-x="1159" unicode="&#x166;"/><glyph d="M582 170q77 0 170 27v-177q-38-17-100.5-28.5t-127.5-11.5q-171 0-252.5 89t-81.5 269v201h-135v163h135v226h-151v104l162 86 80 234h145v-246h315v-178h-315v-226h289v-163h-289v-195q0-174 156-174z" glyph-name="tbar" horiz-adv-x="805" unicode="&#x167;"/><glyph d="M1339 1462v-946q0-162-69.5-283.5t-201-187-314.5-65.5q-272 0-423 144t-151 396v942h240v-925q0-181 84-267t258-86q338 0 338 355v923h239zM909 1579q-42 0-82.5 17.5t-79.5 39-76 39-71 17.5q-81 0-109-115h-122q12 139 77.5 212t167.5 73q43 0 84-17.5t80-39 75.5-39 70.5-17.5q79 0 106 115h125q-12-134-77-209.5t-169-75.5z" glyph-name="Utilde" horiz-adv-x="1520" unicode="&#x168;"/><glyph d="M948 0l-33 145h-12q-49-77-139.5-121t-206.5-44q-201 0-300 100t-99 303v723h237v-682q0-127 52-190.5t163-63.5q148 0 217.5 88.5t69.5 296.5v551h236v-1106h-185zM794 1241q-42 0-82.5 17.5t-79.5 39-76 39-71 17.5q-81 0-109-115h-122q12 139 77.5 212t167.5 73q43 0 84-17.5t80-39 75.5-39 70.5-17.5q79 0 106 115h125q-12-134-77-209.5t-169-75.5z" glyph-name="utilde" horiz-adv-x="1300" unicode="&#x169;"/><glyph d="M1339 1462v-946q0-162-69.5-283.5t-201-187-314.5-65.5q-272 0-423 144t-151 396v942h240v-925q0-181 84-267t258-86q338 0 338 355v923h239zM441 1753h639v-174h-639v174z" glyph-name="Umacron" horiz-adv-x="1520" unicode="&#x16a;"/><glyph d="M948 0l-33 145h-12q-49-77-139.5-121t-206.5-44q-201 0-300 100t-99 303v723h237v-682q0-127 52-190.5t163-63.5q148 0 217.5 88.5t69.5 296.5v551h236v-1106h-185zM326 1415h639v-174h-639v174z" glyph-name="umacron" horiz-adv-x="1300" unicode="&#x16b;"/><glyph d="M1339 1462v-946q0-162-69.5-283.5t-201-187-314.5-65.5q-272 0-423 144t-151 396v942h240v-925q0-181 84-267t258-86q338 0 338 355v923h239zM751 1579q-157 0-247.5 79.5t-98.5 223.5h137q5-48 27-76.5t62.5-40.5 123.5-12q105 0 155.5 33t57.5 96h140q-12-141-108-222t-249-81z" glyph-name="Ubreve" horiz-adv-x="1520" unicode="&#x16c;"/><glyph d="M948 0l-33 145h-12q-49-77-139.5-121t-206.5-44q-201 0-300 100t-99 303v723h237v-682q0-127 52-190.5t163-63.5q148 0 217.5 88.5t69.5 296.5v551h236v-1106h-185zM639 1241q-157 0-247.5 79.5t-98.5 223.5h137q5-48 27-76.5t62.5-40.5 123.5-12q105 0 155.5 33t57.5 96h140q-12-141-108-222t-249-81z" glyph-name="ubreve" horiz-adv-x="1300" unicode="&#x16d;"/><glyph d="M1339 1462v-946q0-162-69.5-283.5t-201-187-314.5-65.5q-272 0-423 144t-151 396v942h240v-925q0-181 84-267t258-86q338 0 338 355v923h239zM997 1806q0-102-65.5-165.5t-173.5-63.5-172 62.5-64 164.5q0 101 63.5 163.5t172.5 62.5q104 0 171.5-62t67.5-162zM864 1804q0 50-30 78.5t-76 28.5q-47 0-77-28.5t-30-78.5q0-106 107-106 46 0 76 27.5t30 78.5z" glyph-name="Uring" horiz-adv-x="1520" unicode="&#x16e;"/><glyph d="M948 0l-33 145h-12q-49-77-139.5-121t-206.5-44q-201 0-300 100t-99 303v723h237v-682q0-127 52-190.5t163-63.5q148 0 217.5 88.5t69.5 296.5v551h236v-1106h-185zM882 1468q0-102-65.5-165.5t-173.5-63.5-172 62.5-64 164.5q0 101 63.5 163.5t172.5 62.5q104 0 171.5-62t67.5-162zM749 1466q0 50-30 78.5t-76 28.5q-47 0-77-28.5t-30-78.5q0-106 107-106 46 0 76 27.5t30 78.5z" glyph-name="uring" horiz-adv-x="1300" unicode="&#x16f;"/><glyph d="M1339 1462v-946q0-162-69.5-283.5t-201-187-314.5-65.5q-272 0-423 144t-151 396v942h240v-925q0-181 84-267t258-86q338 0 338 355v923h239zM447 1579v25q104 144 186 303h244v-21q-29-49-126-148t-175-159h-129zM823 1579v25q43 57 99.5 147.5t87.5 155.5h243v-21q-29-49-126-148t-175-159h-129z" glyph-name="Uhungarumlaut" horiz-adv-x="1520" unicode="&#x170;"/><glyph d="M948 0l-33 145h-12q-49-77-139.5-121t-206.5-44q-201 0-300 100t-99 303v723h237v-682q0-127 52-190.5t163-63.5q148 0 217.5 88.5t69.5 296.5v551h236v-1106h-185zM338 1241v25q104 144 186 303h244v-21q-29-49-126-148t-175-159h-129zM714 1241v25q43 57 99.5 147.5t87.5 155.5h243v-21q-29-49-126-148t-175-159h-129z" glyph-name="uhungarumlaut" horiz-adv-x="1300" unicode="&#x171;"/><glyph d="M1339 1462v-946q0-162-69.5-283.5t-201-187-314.5-65.5q-272 0-423 144t-151 396v942h240v-925q0-181 84-267t258-86q338 0 338 355v923h239zM762-233q0-89 88-89 43 0 104 17v-144q-69-20-139-20-113 0-171 56.5t-58 152.5q0 65 38 127t132 133h149q-69-66-106-120.5t-37-112.5z" glyph-name="Uogonek" horiz-adv-x="1520" unicode="&#x172;"/><glyph d="M948 0l-33 145h-12q-49-77-139.5-121t-206.5-44q-201 0-300 100t-99 303v723h237v-682q0-127 52-190.5t163-63.5q148 0 217.5 88.5t69.5 296.5v551h236v-1106h-185zM957-233q0-89 88-89 43 0 104 17v-144q-69-20-139-20-113 0-171 56.5t-58 152.5q0 65 38 127t132 133h149q-69-66-106-120.5t-37-112.5z" glyph-name="uogonek" horiz-adv-x="1300" unicode="&#x173;"/><glyph d="M1542 0h-260l-248 872q-16 57-40 164.5t-29 149.5q-10-64-32.5-166t-37.5-152l-242-868h-260l-189 732-192 730h244l209-852q49-205 70-362 11 85 33 190t40 170l238 854h237l244-858q35-119 74-356 15 143 72 364l208 850h242zM1192 1579q-123 73-228 180-103-103-225-180h-158v25q191 198 254 303h260q63-110 256-303v-25h-159z" glyph-name="Wcircumflex" horiz-adv-x="1937" unicode="&#x174;"/><glyph d="M1075 0l-143 516q-26 82-94 381h-9q-58-270-92-383l-147-514h-260l-310 1106h240l141-545q48-202 68-346h6q10 73 30.5 167.5t35.5 141.5l168 582h258l163-582q15-49 37.5-150t26.5-157h8q15 123 70 344l143 545h236l-312-1106h-264zM1061 1241q-123 73-228 180-103-103-225-180h-158v25q191 198 254 303h260q63-110 256-303v-25h-159z" glyph-name="wcircumflex" horiz-adv-x="1673" unicode="&#x175;"/><glyph d="M606 795l346 667h260l-487-895v-567h-240v559l-485 903h260zM833 1579q-123 73-228 180-103-103-225-180h-158v25q191 198 254 303h260q63-110 256-303v-25h-159z" glyph-name="Ycircumflex" horiz-adv-x="1212" unicode="&#x176;"/><glyph d="M0 1106h256l225-627q51-134 68-252h8q9 55 33 133.5t254 745.5h254l-473-1253q-129-345-430-345-78 0-152 17v186q53-12 121-12 170 0 239 197l41 104zM780 1241q-123 73-228 180-103-103-225-180h-158v25q191 198 254 303h260q63-110 256-303v-25h-159z" glyph-name="ycircumflex" horiz-adv-x="1098" unicode="&#x177;"/><glyph d="M606 795l346 667h260l-487-895v-567h-240v559l-485 903h260zM293 1737q0 62 33.5 89.5t81.5 27.5q53 0 84.5-31t31.5-86q0-53-32-85t-84-32q-48 0-81.5 29t-33.5 88zM686 1737q0 62 33.5 89.5t81.5 27.5q53 0 85-31t32-86q0-54-33-85.5t-84-31.5q-48 0-81.5 29t-33.5 88z" glyph-name="Ydieresis" horiz-adv-x="1212" unicode="&#x178;"/><glyph d="M1112 0h-1046v166l737 1091h-717v205h1006v-168l-740-1089h760v-205zM434 1579v25q57 70 117.5 156t95.5 147h273v-21q-52-61-155.5-157.5t-174.5-149.5h-156z" glyph-name="Zacute" horiz-adv-x="1178" unicode="&#x179;"/><glyph d="M907 0h-839v145l559 781h-525v180h789v-164l-547-762h563v-180zM361 1241v25q57 70 117.5 156t95.5 147h273v-21q-52-61-155.5-157.5t-174.5-149.5h-156z" glyph-name="zacute" horiz-adv-x="979" unicode="&#x17a;"/><glyph d="M1112 0h-1046v166l737 1091h-717v205h1006v-168l-740-1089h760v-205zM455 1737q0 63 34.5 97t98.5 34q62 0 96.5-34t34.5-97q0-60-34.5-94.5t-96.5-34.5q-64 0-98.5 34.5t-34.5 94.5z" glyph-name="Zdotaccent" horiz-adv-x="1178" unicode="&#x17b;"/><glyph d="M907 0h-839v145l559 781h-525v180h789v-164l-547-762h563v-180zM357 1399q0 63 34.5 97t98.5 34q62 0 96.5-34t34.5-97q0-60-34.5-94.5t-96.5-34.5q-64 0-98.5 34.5t-34.5 94.5z" glyph-name="zdotaccent" horiz-adv-x="979" unicode="&#x17c;"/><glyph d="M1112 0h-1046v166l737 1091h-717v205h1006v-168l-740-1089h760v-205zM980 1907v-27q-126-131-177.5-193t-78.5-108h-260q-65 105-254 301v27h158q138-90 225-183 97 100 228 183h159z" glyph-name="Zcaron" horiz-adv-x="1178" unicode="&#x17d;"/><glyph d="M907 0h-839v145l559 781h-525v180h789v-164l-547-762h563v-180zM885 1569v-27q-126-131-177.5-193t-78.5-108h-260q-65 105-254 301v27h158q138-90 225-183 97 100 228 183h159z" glyph-name="zcaron" horiz-adv-x="979" unicode="&#x17e;"/><glyph d="M559 1376q-156 0-156-192v-1184h-235v1190q0 190 90.5 283.5t284.5 93.5q131 0 237-43l-57-178q-93 30-164 30z" glyph-name="longs" horiz-adv-x="719" unicode="&#x17f;"/><glyph d="M354-492q-87 0-159 21v190q62-18 124-18 80 0 115 45t35 148v925h-195v113l195 69v111q0 191 83 281t273 90q78 0 135-15t99-30l-58-176q-87 30-153 30-78 0-110.5-43.5t-32.5-140.5v-109h253v-180h-251v-946q0-365-353-365z" glyph-name="florin" horiz-adv-x="1176" unicode="&#x192;"/><glyph d="M915 1446q0-106-75-168l516-1278h-252l-141 365h-574l-137-365h-252l516 1276q-76 58-76 168 0 102 64.5 163.5t171.5 61.5q103 0 171-60.5t68-162.5zM903 571l-117 308q-81 198-108 305-12-38-25.5-78t-197.5-535h448zM567 1722v19q30 29 86 98.5t88 122.5h273v-14q-31-39-126.5-111.5t-162.5-114.5h-158zM782 1444q0 51-30 78.5t-76 27.5q-47 0-77-27.5t-30-78.5q0-50 25.5-78.5t75.5-28.5h10q45 0 73.5 28.5t28.5 78.5z" glyph-name="Aringacute" horiz-adv-x="1356" unicode="&#x1fa;"/><glyph d="M860 0l-47 154h-8q-67-87-159-130.5t-210-43.5q-160 0-253 88t-93 249q0 169 128.5 257t385.5 96l191 6v59q0 105-51 158t-152 53q-71 0-149-21t-164-63l-76 168q96 48 195.5 72t203.5 24q213 0 319.5-95.5t106.5-285.5v-745h-168zM510 160q127 0 205 71.5t78 200.5v96l-142-6q-159-7-238-59t-79-148q0-78 44-116.5t132-38.5zM471 1753v16q98 91 174 193h301v-12q-59-64-313-197h-162zM602 1219q-104 0-169.5 60t-65.5 167q0 104 65.5 164.5t169.5 60.5q100 0 170-59.5t70-163.5q0-109-68.5-169t-171.5-60zM602 1552q-53 0-79.5-26.5t-26.5-79.5q0-54 26.5-80.5t79.5-26.5 80 26.5 27 80.5q0 53-27 79.5t-80 26.5z" glyph-name="aringacute" horiz-adv-x="1188" unicode="&#x1fb;"/><glyph d="M1747 0h-811v406h-504l-188-406h-246l678 1462h1071v-202h-571v-398h532v-200h-532v-459h571v-203zM522 612h414v641h-123zM991 1579v25q57 70 117.5 156t95.5 147h273v-21q-52-61-155.5-157.5t-174.5-149.5h-156z" glyph-name="AEacute" horiz-adv-x="1868" unicode="&#x1fc;"/><glyph d="M90 317q0 172 121.5 258.5t370.5 94.5l188 6v76q0 194-201 194-141 0-307-82l-74 166q88 47 192.5 71.5t203.5 24.5q241 0 340-155 120 155 346 155 206 0 328-134.5t122-362.5v-127h-712q10-336 301-336 184 0 356 80v-191q-86-41-171.5-58t-195.5-17q-140 0-248.5 54.5t-175.5 164.5q-94-125-190.5-172t-241.5-47q-165 0-258.5 90t-93.5 247zM334 315q0-155 166-155 124 0 196 72.5t72 199.5v96l-135-6q-155-6-227-54.5t-72-152.5zM1266 948q-112 0-177.5-69.5t-74.5-208.5h473q0 130-58.5 204t-162.5 74zM788 1241v25q57 70 117.5 156t95.5 147h273v-21q-52-61-155.5-157.5t-174.5-149.5h-156z" glyph-name="aeacute" horiz-adv-x="1817" unicode="&#x1fd;"/><glyph d="M1491 733q0-357-178.5-555t-505.5-198q-213 0-361 81l-94-137-141 94 98 144q-188 196-188 573 0 362 178.5 556t509.5 194q199 0 354-82l90 129 142-92-99-140q195-199 195-567zM1237 733q0 225-80 361l-586-850q97-60 236-60 213 0 321.5 138t108.5 411zM375 733q0-231 78-362l587 850q-92 59-231 59-215 0-324.5-139t-109.5-408zM655 1579v25q57 70 117.5 156t95.5 147h273v-21q-52-61-155.5-157.5t-174.5-149.5h-156z" glyph-name="Oslashacute" horiz-adv-x="1612" unicode="&#x1fe;"/><glyph d="M1149 555q0-271-139-423t-387-152q-144 0-250 57l-76-109-135 90 82 117q-142 155-142 420 0 269 138 420t389 151q144 0 258-63l69 100 136-92-78-108q135-152 135-408zM344 555q0-135 37-219l391 559q-60 39-147 39-148 0-214.5-98t-66.5-281zM907 555q0 121-33 203l-387-553q54-33 140-33 280 0 280 383zM466 1241v25q57 70 117.5 156t95.5 147h273v-21q-52-61-155.5-157.5t-174.5-149.5h-156z" glyph-name="oslashacute" horiz-adv-x="1251" unicode="&#x1ff;"/><glyph d="M1036 397q0-195-141-306t-389-111-406 77v226q100-47 212.5-74t209.5-27q142 0 209.5 54t67.5 145q0 82-62 139t-256 135q-200 81-282 185t-82 250q0 183 130 288t349 105q210 0 418-92l-76-195q-195 82-348 82-116 0-176-50.5t-60-133.5q0-57 24-97.5t79-76.5 198-95q161-67 236-125t110-131 35-172zM358-428q23 64 44.5 150.5t29.5 152.5h225v-20q-29-80-75-166t-88-142h-136v25z" glyph-name="Scommaaccent" horiz-adv-x="1126" unicode="&#x218;"/><glyph d="M911 315q0-162-118-248.5t-338-86.5q-221 0-355 67v203q195-90 363-90 217 0 217 131 0 42-24 70t-79 58-153 68q-191 74-258.5 148t-67.5 192q0 142 114.5 220.5t311.5 78.5q195 0 369-79l-76-177q-179 74-301 74-186 0-186-106 0-52 48.5-88t211.5-99q137-53 199-97t92-101.5 30-137.5zM296-428q23 64 44.5 150.5t29.5 152.5h225v-20q-29-80-75-166t-88-142h-136v25z" glyph-name="scommaaccent" horiz-adv-x="997" unicode="&#x219;"/><glyph d="M838 1241q-123 73-228 180-103-103-225-180h-158v25q191 198 254 303h260q63-110 256-303v-25h-159z" glyph-name="circumflex" horiz-adv-x="1227" unicode="&#x2c6;"/><glyph d="M997 1569v-27q-126-131-177.5-193t-78.5-108h-260q-65 105-254 301v27h158q138-90 225-183 97 100 228 183h159z" glyph-name="caron" horiz-adv-x="1227" unicode="&#x2c7;"/><glyph d="M291 1415h639v-174h-639v174z" glyph-name="macron" horiz-adv-x="1223" unicode="&#x2c9;"/><glyph d="M606 1241q-157 0-247.5 79.5t-98.5 223.5h137q5-48 27-76.5t62.5-40.5 123.5-12q105 0 155.5 33t57.5 96h140q-12-141-108-222t-249-81z" glyph-name="breve" horiz-adv-x="1227" unicode="&#x2d8;"/></font>
</defs>
</svg>
