<svg enable-background="new 0 0 612.33 63.21" viewBox="0 0 612.33 63.21" xmlns="http://www.w3.org/2000/svg"><g fill="#495057"><path d="m51.48 46.37c-.08.22-1.33 4.54-4.38 8.99-2.63 3.85-5.37 7.69-9.68 7.77-4.23.08-5.59-2.51-10.43-2.51s-6.36 2.43-10.36 2.59c-4.16.16-7.33-4.16-9.98-8-5.43-7.85-9.57-22.18-4-31.85 2.76-4.81 7.71-7.85 13.08-7.93 4.09-.08 7.94 2.74 10.43 2.74 2.5 0 7.18-3.39 12.1-2.9 2.06.09 7.84.83 11.56 6.27-.3.19-6.91 4.03-6.83 12.03.08 9.58 8.39 12.76 8.49 12.8m-16.45-36.28c2.21-2.67 3.7-6.39 3.29-10.09-3.18.12-7.03 2.12-9.31 4.79-2.05 2.37-3.84 6.15-3.35 9.77 3.54.28 7.16-1.8 9.37-4.47z"/><path d="m68.85 39c0-7.81 4.41-12.73 11.3-12.73 5.59 0 9.81 3.44 10.46 8.58h-3.79c-.68-3.16-3.32-5.23-6.67-5.23-4.48 0-7.38 3.67-7.38 9.38 0 5.76 2.87 9.4 7.4 9.4 3.44 0 5.88-1.76 6.65-4.73h3.81c-.94 5.09-4.8 8.08-10.48 8.08-6.92 0-11.3-4.89-11.3-12.75z"/><path d="m109.4 46.05c-.5 3.26-3.67 5.5-7.74 5.5-5.23 0-8.48-3.5-8.48-9.13 0-5.64 3.26-9.3 8.32-9.3 4.97 0 8.1 3.42 8.1 8.87v1.26h-12.7v.22c0 3.08 1.93 5.09 4.84 5.09 2.05 0 3.66-.97 4.15-2.53h3.51zm-12.48-5.36h8.99c-.09-2.75-1.85-4.56-4.41-4.56-2.54 0-4.39 1.84-4.58 4.56z"/><path d="m112.81 33.36h3.52v3.06h.09c.56-2.03 2.2-3.25 4.32-3.25.53 0 .97.07 1.26.14v3.45c-.29-.12-.94-.22-1.66-.22-2.38 0-3.85 1.61-3.85 4.14v10.66h-3.69v-17.98z"/><path d="m129.43 29.1v4.26h3.42v2.92h-3.42v9.91c0 1.54.68 2.26 2.19 2.26.38 0 .97-.05 1.21-.09v2.91c-.41.1-1.23.17-2.05.17-3.64 0-5.06-1.37-5.06-4.85v-10.31h-2.61v-2.92h2.61v-4.26z"/><path d="m136.05 28.62c0-1.18.96-2.12 2.14-2.12 1.2 0 2.15.94 2.15 2.12 0 1.16-.96 2.1-2.15 2.1-1.18 0-2.14-.94-2.14-2.1zm.29 4.74h3.69v17.98h-3.69z"/><path d="m145.24 36.28h-2.48v-2.92h2.48v-1.62c0-3.38 1.52-4.84 5.23-4.84.67 0 1.26.05 1.86.15v2.79c-.38-.07-.85-.12-1.33-.12-1.47 0-2.08.63-2.1 2.14v1.5h3.45v2.92h-3.4v15.06h-3.71zm10.11-7.66c0-1.18.96-2.12 2.14-2.12 1.2 0 2.15.94 2.15 2.12 0 1.16-.96 2.1-2.15 2.1-1.18 0-2.14-.94-2.14-2.1zm.29 4.74h3.69v17.98h-3.69z"/><path d="m179.05 46.05c-.5 3.26-3.67 5.5-7.74 5.5-5.23 0-8.48-3.5-8.48-9.13 0-5.64 3.26-9.3 8.32-9.3 4.97 0 8.1 3.42 8.1 8.87v1.26h-12.7v.22c0 3.08 1.93 5.09 4.84 5.09 2.05 0 3.66-.97 4.15-2.53h3.51zm-12.48-5.36h8.99c-.09-2.75-1.85-4.56-4.41-4.56-2.54 0-4.39 1.84-4.58 4.56z"/><path d="m181.3 42.35c0-5.55 3.06-9.18 7.52-9.18 2.58 0 4.61 1.2 5.64 3.18h.07v-9.67h3.71v24.66h-3.59v-3.06h-.07c-1.06 2.05-3.11 3.25-5.73 3.25-4.49-.01-7.55-3.63-7.55-9.18zm3.78 0c0 3.69 1.88 6.05 4.75 6.05 2.84 0 4.73-2.39 4.73-6.05 0-3.62-1.9-6.03-4.73-6.03-2.87-.01-4.75 2.37-4.75 6.03z"/><path d="m212.94 44.47c.27 2.44 2.65 4.05 5.9 4.05 3.11 0 5.35-1.61 5.35-3.81 0-1.91-1.35-3.06-4.55-3.85l-3.2-.77c-4.53-1.09-6.63-3.21-6.63-6.65 0-4.26 3.71-7.18 8.97-7.18 5.21 0 8.78 2.92 8.9 7.18h-3.73c-.22-2.46-2.26-3.95-5.23-3.95s-5.01 1.5-5.01 3.69c0 1.74 1.3 2.77 4.48 3.55l2.72.67c5.06 1.2 7.16 3.23 7.16 6.84 0 4.61-3.67 7.5-9.52 7.5-5.47 0-9.16-2.82-9.4-7.28h3.79z"/><path d="m246.48 51.34h-3.54v-3.09h-.09c-1.03 2.15-2.82 3.3-5.57 3.3-3.91 0-6.31-2.53-6.31-6.65v-11.54h3.69v10.82c0 2.73 1.3 4.19 3.85 4.19 2.67 0 4.27-1.85 4.27-4.65v-10.36h3.69v17.98z"/><path d="m267.41 42.35c0 5.59-2.99 9.18-7.5 9.18-2.56 0-4.6-1.15-5.66-3.14h-.09v8.9h-3.69v-23.93h3.57v2.99h.07c1.03-1.93 3.21-3.18 5.73-3.18 4.56 0 7.57 3.6 7.57 9.18zm-3.79 0c0-3.64-1.88-6.03-4.75-6.03-2.82 0-4.72 2.44-4.72 6.03 0 3.62 1.9 6.05 4.72 6.05 2.87 0 4.75-2.38 4.75-6.05z"/><path d="m287.53 42.35c0 5.59-2.99 9.18-7.5 9.18-2.56 0-4.6-1.15-5.66-3.14h-.09v8.9h-3.69v-23.93h3.57v2.99h.07c1.03-1.93 3.21-3.18 5.73-3.18 4.56 0 7.57 3.6 7.57 9.18zm-3.79 0c0-3.64-1.88-6.03-4.75-6.03-2.82 0-4.72 2.44-4.72 6.03 0 3.62 1.9 6.05 4.72 6.05 2.87 0 4.75-2.38 4.75-6.05z"/><path d="m289.57 42.35c0-5.66 3.33-9.21 8.53-9.21 5.21 0 8.53 3.55 8.53 9.21 0 5.67-3.3 9.21-8.53 9.21s-8.53-3.54-8.53-9.21zm13.29 0c0-3.88-1.78-6.17-4.77-6.17s-4.77 2.31-4.77 6.17c0 3.9 1.78 6.17 4.77 6.17s4.77-2.28 4.77-6.17z"/><path d="m309.48 33.36h3.52v3.06h.09c.56-2.03 2.2-3.25 4.32-3.25.53 0 .97.07 1.26.14v3.45c-.29-.12-.94-.22-1.66-.22-2.38 0-3.85 1.61-3.85 4.14v10.66h-3.69v-17.98z"/><path d="m326.1 29.1v4.26h3.42v2.92h-3.42v9.91c0 1.54.68 2.26 2.19 2.26.38 0 .97-.05 1.21-.09v2.91c-.41.1-1.23.17-2.05.17-3.64 0-5.06-1.37-5.06-4.85v-10.31h-2.61v-2.92h2.61v-4.26z"/><path d="m350.02 26.67c4.79 0 8.12 3.3 8.12 8.1 0 4.82-3.4 8.13-8.24 8.13h-5.3v8.43h-3.83v-24.66zm-5.42 13.03h4.39c3.33 0 5.23-1.79 5.23-4.9s-1.9-4.89-5.21-4.89h-4.41z"/><path d="m360.52 33.36h3.52v3.06h.09c.56-2.03 2.2-3.25 4.32-3.25.53 0 .97.07 1.26.14v3.45c-.29-.12-.94-.22-1.66-.22-2.38 0-3.85 1.61-3.85 4.14v10.66h-3.69v-17.98z"/><path d="m371.2 42.35c0-5.66 3.33-9.21 8.53-9.21 5.21 0 8.53 3.55 8.53 9.21 0 5.67-3.3 9.21-8.53 9.21s-8.53-3.54-8.53-9.21zm13.3 0c0-3.88-1.78-6.17-4.77-6.17s-4.77 2.31-4.77 6.17c0 3.9 1.78 6.17 4.77 6.17s4.77-2.28 4.77-6.17z"/><path d="m392.19 36.28h-2.48v-2.92h2.48v-1.62c0-3.38 1.52-4.84 5.23-4.84.67 0 1.26.05 1.86.15v2.79c-.38-.07-.85-.12-1.33-.12-1.47 0-2.08.63-2.1 2.14v1.5h3.45v2.92h-3.4v15.06h-3.71z"/><path d="m417.3 46.05c-.5 3.26-3.67 5.5-7.74 5.5-5.23 0-8.48-3.5-8.48-9.13 0-5.64 3.26-9.3 8.32-9.3 4.97 0 8.1 3.42 8.1 8.87v1.26h-12.7v.22c0 3.08 1.93 5.09 4.84 5.09 2.05 0 3.66-.97 4.15-2.53h3.51zm-12.48-5.36h8.99c-.08-2.75-1.85-4.56-4.41-4.56-2.54 0-4.39 1.84-4.58 4.56z"/><path d="m427.43 33.15c3.98 0 6.84 2.2 6.92 5.38h-3.47c-.15-1.59-1.5-2.56-3.55-2.56-2 0-3.33.92-3.33 2.32 0 1.08.89 1.79 2.75 2.26l3.02.7c3.62.87 4.99 2.2 4.99 4.84 0 3.25-3.08 5.47-7.47 5.47-4.24 0-7.09-2.17-7.37-5.45h3.66c.26 1.73 1.64 2.65 3.88 2.65 2.2 0 3.59-.91 3.59-2.34 0-1.11-.68-1.71-2.56-2.19l-3.21-.79c-3.25-.79-4.89-2.44-4.89-4.94-.01-3.18 2.85-5.35 7.04-5.35z"/><path d="m444.69 33.15c3.98 0 6.84 2.2 6.92 5.38h-3.47c-.15-1.59-1.5-2.56-3.55-2.56-2 0-3.33.92-3.33 2.32 0 1.08.89 1.79 2.75 2.26l3.02.7c3.62.87 4.99 2.2 4.99 4.84 0 3.25-3.08 5.47-7.47 5.47-4.24 0-7.09-2.17-7.37-5.45h3.66c.26 1.73 1.64 2.65 3.88 2.65 2.21 0 3.59-.91 3.59-2.34 0-1.11-.68-1.71-2.56-2.19l-3.21-.79c-3.25-.79-4.89-2.44-4.89-4.94 0-3.18 2.86-5.35 7.04-5.35z"/><path d="m455.08 28.62c0-1.18.96-2.12 2.14-2.12 1.2 0 2.15.94 2.15 2.12 0 1.16-.96 2.1-2.15 2.1s-2.14-.94-2.14-2.1zm.29 4.74h3.69v17.98h-3.69z"/><path d="m462.03 42.35c0-5.66 3.33-9.21 8.53-9.21 5.21 0 8.53 3.55 8.53 9.21 0 5.67-3.3 9.21-8.53 9.21s-8.53-3.54-8.53-9.21zm13.3 0c0-3.88-1.78-6.17-4.77-6.17s-4.77 2.31-4.77 6.17c0 3.9 1.78 6.17 4.77 6.17s4.77-2.28 4.77-6.17z"/><path d="m481.94 33.36h3.52v3.06h.08c1.08-2.15 2.89-3.26 5.66-3.26 3.96 0 6.24 2.55 6.24 6.67v11.52h-3.71v-10.8c0-2.7-1.25-4.2-3.85-4.2-2.65 0-4.25 1.88-4.25 4.65v10.36h-3.69z"/><path d="m500.63 46.23c0-3.14 2.41-5.04 6.68-5.3l4.92-.27v-1.37c0-2-1.32-3.13-3.55-3.13-2.05 0-3.49.97-3.78 2.53h-3.45c.1-3.25 3.13-5.55 7.33-5.55 4.29 0 7.13 2.34 7.13 5.88v12.32h-3.54v-2.96h-.08c-1.04 2-3.32 3.26-5.67 3.26-3.53 0-5.99-2.18-5.99-5.41zm11.6-1.63v-1.38l-4.43.27c-2.21.14-3.45 1.09-3.45 2.63 0 1.57 1.3 2.6 3.28 2.6 2.59 0 4.6-1.78 4.6-4.12z"/><path d="m519.97 26.67h3.69v24.66h-3.69z"/><path d="m541.57 30.47h-.09l-6.44 4.58v-3.76l6.49-4.61h3.78v24.66h-3.74z"/><path d="m550.36 38.98c0-7.81 3.54-12.77 9.42-12.77 5.9 0 9.38 4.94 9.38 12.75 0 7.86-3.47 12.83-9.38 12.83s-9.42-4.95-9.42-12.81zm14.93 0c0-5.88-2.03-9.55-5.52-9.55s-5.54 3.69-5.54 9.55c0 5.95 2.02 9.6 5.54 9.6s5.52-3.64 5.52-9.6z"/><path d="m571.62 49.28c0-1.25.99-2.24 2.24-2.24s2.24.99 2.24 2.24-.99 2.24-2.24 2.24-2.24-.99-2.24-2.24z"/><path d="m584.33 30.47h-.08l-6.44 4.58v-3.76l6.49-4.61h3.78v24.66h-3.74v-20.87z"/><path d="m605.27 46.46h-12.34v-3.35c2.12-3.98 4.92-8.41 10.48-16.44h5.54v16.58h3.38v3.21h-3.38v4.87h-3.67v-4.87zm-8.77-3.16h8.8v-13.67h-.07c-4.27 6.17-6.77 10.01-8.73 13.59z"/></g></svg>