<svg height="84" viewBox="0 0 322 84" width="322" xmlns="http://www.w3.org/2000/svg"><g fill="#30343c" fill-rule="evenodd"><path d="m167.753164 48.6479056c0 5.4507681 3.94034 9.1901705 8.897222 9.1901705 4.893546 0 9.087863-3.549274 9.087863-9.1901705 0-5.450768-4.194317-9.1267942-9.087863-9.1267942-4.956882 0-8.897222 3.4861076-8.897222 9.1267942zm26.246836 15.6549568h-7.244998l-.508376-4.3097876c-2.414789 3.7394023-6.291582 5.0069252-10.104617 5.0069252-9.214957 0-16.142009-6.0843197-16.142009-16.3520944 0-10.7745739 6.799958-16.3520943 15.951368-16.3520943 3.304658 0 8.452182 1.7747419 10.295258 5.0069252v-17.3027365h7.753374zm11.753164-15.6549568c0 5.4507681 3.94034 9.1901705 8.897222 9.1901705 4.893546 0 9.087863-3.549274 9.087863-9.1901705 0-5.450768-4.194317-9.1267942-9.087863-9.1267942-4.956882 0-8.897222 3.4861076-8.897222 9.1267942zm26.246836 15.6549568h-7.244998l-.508376-4.3097876c-2.414789 3.7394023-6.291582 5.0069252-10.104617 5.0069252-9.214957 0-16.142009-6.0843197-16.142009-16.3520944 0-10.7745739 6.799958-16.3520943 15.951158-16.3520943 3.304868 0 8.452392 1.7747419 10.295468 5.0069252v-17.3027365h7.753374zm6.763836.6971376h8.472328v-31.6856631h-8.472328zm4.236279-45c2.499828 0 4.999885 1.4721647 4.999885 4.5447202 0 3.0085485-2.500057 4.5449322-4.999885 4.5449322-2.500058 0-5.000115-1.5363837-5.000115-4.5449322 0-3.0725555 2.500057-4.5447202 5.000115-4.5447202zm16.759526 27.2178269c0 5.5789926 3.719405 8.887425 8.272421 8.887425 4.489105 0 8.208509-3.3735142 8.208509-8.887425 0-5.5141256-3.719404-9.017159-8.208509-9.017159-4.553016 0-8.272421 3.4381664-8.272421 9.017159m24.240359 0c0 3.9571025-1.474852 9.5360951-6.669321 11.9363893 5.258805 2.6597623 6.541285 6.4871307 6.541285 10.5739673 0 8.8225579-6.669533 14.2718165-15.839902 14.2718165s-16.032062-5.6438596-16.032062-14.2718165h7.759641c0 4.1517035 3.783529 6.8763328 8.272421 6.8763328 4.489105 0 8.016137-2.4651612 8.016137-6.8763328s-4.104148-6.4222638-8.016137-6.4222638c-9.875733 0-16.032062-6.0979286-16.032062-16.0880928s7.182313-16.2178269 16.032062-16.2178269c8.785625 0 15.967938 6.2276627 15.967938 16.2178269"/><path d="m312.167 32-6.518 11.342 2.347 8.062-11.163-19.404h-8.833l12.089 21.014-12.061 20.986h8.833l24.139-42z"/><path d="m126.580316 48.7015326 8.419791-19.0468697 8.419577 19.0468697zm8.419791-38.7015326-25.000107 55h9.261706l3.885974-8.4369409h23.70464l3.821426 8.4369409h9.326254zm-55.7263306 48.4884506-33.553263-44.1155988 18.1903006-5.68297941 22.6298359 29.75367581zm-79.2737764 15.5115494h91.0713688l4.9286312-36.1012107-28.9484839-37.8987893-46.5246856 4.15294649 47.603051 62.58843441-7.643809-6.3443823h-21.850279l9.865396-9.9473157-8.3394596-6.9217176z"/></g></svg>