<svg enable-background="new 0 0 963 265" height="265" viewBox="0 0 963 265" width="963" xmlns="http://www.w3.org/2000/svg"><path d="m251.96 202.53c0 28.569-23.375 51.944-51.945 51.944h-137.07c-28.57.001-51.945-23.374-51.945-51.944v-137.1c0-28.569 23.375-51.945 51.945-51.945h137.069c28.57 0 51.945 23.376 51.945 51.945z" fill="#3da9d4"/><path d="m206.242 134.008-46.377-26.34c-4.64 7.652-7.312 16.629-7.312 26.229 0 9.67 2.714 18.705 7.414 26.393z" fill="#48c1c4"/><path d="m146.073 168.179c-6.024-10.017-9.492-21.741-9.492-34.28 0-12.471 3.435-24.134 9.395-34.114l-13.879-7.885c-7.285 12.306-11.468 26.662-11.468 41.997 0 15.403 4.22 29.82 11.564 42.162z"/><path d="m118.295 183.951c-8.665-14.669-13.643-31.779-13.643-50.055 0-18.204 4.94-35.253 13.547-49.891l-13.904-7.896c-9.932 16.967-15.629 36.709-15.629 57.787 0 21.146 5.734 40.948 15.727 57.949z"/><path d="m90.488 199.746c-11.316-19.334-17.809-41.83-17.809-65.85 0-23.949 6.453-46.389 17.712-65.682l-13.885-7.884c-12.581 21.621-19.789 46.752-19.789 73.566 0 26.885 7.248 52.072 19.888 73.73z"/><path d="m356.601 125.82v58.08h-15.841v-96.96l48.48 48.479 48.48-48.479v96.958h-16.32v-58.08l-32.16 32.64z"/><path d="m504.92 86.94c13.44 0 24.96 4.8 34.08 14.399 9.602 9.601 14.4 21.119 14.4 34.078 0 13.44-4.802 24.963-14.4 34.08-9.6 9.603-20.64 14.399-34.08 14.399-13.438 0-24.96-4.799-34.08-14.399-9.6-9.599-14.397-20.64-14.397-34.078s4.8-24.961 14.396-34.078c9.121-9.601 20.641-14.401 34.081-14.401zm0 16.32c-8.64 0-16.318 3.359-23.04 9.601-6.238 6.24-9.6 13.92-9.6 22.56 0 8.644 3.358 16.32 9.6 23.041 6.24 6.24 13.92 9.603 23.04 9.603 8.643 0 16.32-2.881 22.562-9.603 6.237-6.237 9.6-13.92 9.6-23.041 0-8.64-3.358-16.317-9.6-22.56-6.242-6.72-13.442-9.601-22.562-9.601z"/><path d="m600.92 143.58c-7.68 0-14.398-2.879-20.16-8.16-5.276-5.277-8.158-12-8.158-20.157 0-7.683 2.882-14.399 8.158-19.683 5.28-5.76 12-8.16 20.16-8.16h90.24v16.32h-90.24c-1.438 0-3.357.479-4.8.961-1.439.479-2.88 1.439-3.84 2.399s-1.92 2.397-2.4 3.84c-.479 1.44-.96 2.88-.96 4.8 0 3.36.96 6.24 3.36 8.641 2.396 2.399 5.278 3.842 8.64 3.842h24c7.682 0 14.4 2.88 20.16 8.158 5.76 5.279 8.16 12 8.16 20.16 0 7.682-2.881 14.398-8.16 20.16-5.28 5.279-12 8.158-20.16 8.158h-52.319v-16.318h52.318c1.44 0 3.36-.479 4.802-.961 1.438-.479 2.88-1.438 3.84-2.396.961-.961 1.92-2.4 2.398-3.842.48-1.439.96-2.881.96-4.801 0-3.357-1.438-6.24-3.84-8.641-2.401-2.4-5.28-3.84-8.64-3.84h-23.521z"/><path d="m748.28 86.94h20.64l-39.84 50.88v46.08h-15.84v-45.12l-40.32-51.84h20.643l27.357 35.521z"/><path d="m787.641 86.94h16.318v80.64h48.48v16.32h-64.802z"/><path d="m935.48 86.94v16.319h-48.48v24.479h48.48v16.32h-48.48v24h48.48v15.842h-64.8v-96.96z"/></svg>