<svg height="224.72337" width="1000" xmlns="http://www.w3.org/2000/svg"><path d="m814.1856 67.388717c3.82247 6.59494 5.07303 14.0983 5.48595 22.53368l.5427 11.243253v78.62013l.55449 11.25504c1.10899 18.38088 14.66459 31.97188 33.18704 33.12806l11.19606.55449v-123.55772l.55449-11.243253c.46011-8.341 1.69888-15.98593 5.58033-22.62806a44.902197 44.902197 0 0 1 77.74711.14157c3.82246 6.59494 5.01403 14.23987 5.47415 22.48649l.55449 11.207863v78.65552l.55449 11.25504c1.15618 18.47526 14.60561 32.06626 33.18705 33.12806l11.19605.55449v-134.800973a89.898775 89.898775 0 0 0 -89.86338-89.89876992 89.662821 89.662821 0 0 0 -67.42408 30.44995992 89.780798 89.780798 0 0 0 -67.42409-30.46175992c-18.66402 0-35.9831 5.66292002-50.32915 15.44323992-8.75392-9.7685299-28.33817-15.44323992-39.58142-15.44323992v224.71154292l11.24325-.55449c18.80559-1.23877 32.39659-14.46403 33.12805-33.12806l.60168-11.25504v-78.62013l.5545-11.243253c.47191-8.48257 1.65168-15.93874 5.48595-22.58087a45.020174 45.020174 0 0 1 38.89714-22.39211 44.949388 44.949388 0 0 1 38.89715 22.4393zm-769.24801 156.791953 11.243246.5427h168.530714l-.5545-11.20785c-1.52191-18.47526-14.6056-31.97188-33.13985-33.17525l-11.24324-.55449h-101.106633l134.800973-134.848163-.55449-11.19605c-.87304-18.66403-14.51122-32.1488399-33.13985-33.17524992l-11.24325-.5073-168.53071-.04719.55449376 11.24324992c1.47471744 18.29829 14.74717424 32.07805 33.12805224 33.13985l11.255044.55449h101.10663l-134.800974 134.848163.554494 11.24324c1.108987 18.52245 14.475826 31.93648 33.13985 33.12806zm596.32854-191.276743a112.34987 112.34987 0 0 1 0 158.903753 112.43246 112.43246 0 0 1 -158.93914 0c-43.8758-43.8758-43.8758-115.027963 0-158.903753a112.29089 112.29089 0 0 1 79.39878-32.90389992 112.37347 112.37347 0 0 1 79.54036 32.91569992zm-31.7949 31.8185a67.447677 67.447677 0 0 1 0 95.349333 67.447677 67.447677 0 0 1 -95.34934 0 67.447677 67.447677 0 0 1 0-95.349333 67.447677 67.447677 0 0 1 95.34934 0zm-283.55867-64.72239992a112.29089 112.29089 0 0 1 79.39878 32.91569992c43.88759 43.86399 43.88759 115.027953 0 158.891953a112.43246 112.43246 0 0 1 -158.93914 0c-43.8758-43.8758-43.8758-115.027963 0-158.903753a112.29089 112.29089 0 0 1 79.39878-32.90389992zm47.60387 64.69880992a67.447677 67.447677 0 0 1 0 95.361123 67.447677 67.447677 0 0 1 -95.34933 0 67.447677 67.447677 0 0 1 0-95.349333 67.447677 67.447677 0 0 1 95.34933 0z" fill="#2d8cff" fill-rule="evenodd" stroke-width="11.79774"/></svg>