<svg fill="none" height="555" viewBox="0 0 449 555" width="449" xmlns="http://www.w3.org/2000/svg"><path d="m2.19604 83.5434c0-19.6301 15.82336-35.5434 35.34236-35.5434h151.1196c19.519 0 35.342 15.9133 35.342 35.5434v387.9136c0 19.63-15.823 35.543-35.342 35.543h-151.1196c-19.519 0-35.34236-15.913-35.34236-35.543z" fill="#c2c9d2"/><path d="m57.5634 59.8752c0-1.6952-1.3721-3.0694-3.0646-3.0694h-12.8717c-16.9257 0-30.6468 13.7424-30.6468 30.6946v379.9996c0 16.952 13.7211 30.694 30.6468 30.694h144.0399c16.926 0 30.647-13.742 30.647-30.694v-379.9996c0-16.9522-13.721-30.6946-30.647-30.6946h-12.872c-1.692 0-3.064 1.3742-3.064 3.0694 0 6.7809-5.489 12.2779-12.259 12.2779h-87.6499c-6.7703 0-12.2587-5.497-12.2587-12.2779z" fill="#f1f5fb"/><g fill="#a4afbb"><path d="m94.4314 63.9604c0-.9119.8428-1.6511 1.8823-1.6511h22.5883c1.04 0 1.882.7392 1.882 1.6511s-.842 1.6511-1.882 1.6511h-22.5882c-1.0396 0-1.8824-.7392-1.8824-1.6511z"/><path d="m132.863 63.4101c0 1.8237-.983 3.3021-2.196 3.3021s-2.196-1.4784-2.196-3.3021c0-1.8238.983-3.3022 2.196-3.3022s2.196 1.4784 2.196 3.3022z"/><path d="m0 118.584c0-.684.655479-1.239 1.46405-1.239h.73203v19.813h-.73203c-.808571 0-1.46405-.554-1.46405-1.238z"/><path d="m226.196 163.687c0-.67-.655-1.212-1.464-1.212h-.732v53.935h.732c.809 0 1.464-.543 1.464-1.212z"/><path d="m0 152.686c0-.673.655479-1.218 1.46405-1.218h.73203v34.122h-.73203c-.808571 0-1.46405-.546-1.46405-1.219z"/><path d="m0 195.614c0-.673.655479-1.218 1.46405-1.218h.73203v34.122h-.73203c-.808571 0-1.46405-.546-1.46405-1.219z"/></g><path d="m177.657 42.9681c0-23.7306 19.148-42.9681 42.768-42.9681h182.87c23.62 0 42.768 19.2375 42.768 42.9682v468.9458c0 23.73-19.148 42.968-42.768 42.968h-182.87c-23.62 0-42.768-19.238-42.768-42.968z" fill="#c2c9d2"/><path d="m244.658 14.3559c0-2.0494-1.661-3.7107-3.709-3.7107h-15.576c-20.482 0-37.086 16.6132-37.086 37.1065v459.3783c0 20.493 16.604 37.107 37.086 37.107h174.303c20.482 0 37.086-16.614 37.086-37.107v-459.3783c0-20.4934-16.604-37.1065-37.086-37.1065h-15.576c-2.048 0-3.709 1.6613-3.709 3.7107 0 8.1973-6.641 14.8426-14.834 14.8426h-106.065c-8.193 0-14.834-6.6453-14.834-14.8426z" fill="#f1f5fb"/><g fill="#a4afbb"><path d="m289.272 19.2944c0-1.1023 1.019-1.9959 2.277-1.9959h27.335c1.258 0 2.277.8936 2.277 1.9959 0 1.1024-1.019 1.996-2.277 1.996h-27.335c-1.258 0-2.277-.8936-2.277-1.996z"/><path d="m335.778 18.6291c0 2.2047-1.19 3.992-2.658 3.992s-2.657-1.7873-2.657-3.992 1.189-3.992 2.657-3.992 2.658 1.7873 2.658 3.992z"/><path d="m175 85.328c0-.8267.793-1.4969 1.772-1.4969h.885v23.9519h-.885c-.979 0-1.772-.67-1.772-1.497z"/><path d="m448.72 139.853c0-.809-.793-1.465-1.771-1.465h-.886v65.202h.886c.978 0 1.771-.656 1.771-1.465z"/><path d="m175 126.555c0-.814.793-1.474 1.772-1.474h.885v41.25h-.885c-.979 0-1.772-.659-1.772-1.473z"/><path d="m175 178.45c0-.814.793-1.473 1.772-1.473h.885v41.25h-.885c-.979 0-1.772-.66-1.772-1.473z"/></g></svg>