<svg fill="none" height="309" viewBox="0 0 542 309" width="542" xmlns="http://www.w3.org/2000/svg"><path d="m1.95923 115.75c0-17.5482 14.11687-31.7736 31.53087-31.7736h134.8219c17.414 0 31.531 14.2254 31.531 31.7736v346.768c0 17.548-14.117 31.773-31.531 31.773h-134.8219c-17.414 0-31.53087-14.225-31.53087-31.773z" fill="#c2c9d2"/><path d="m51.3555 94.592c0-1.5154-1.2241-2.7439-2.7342-2.7439h-11.4835c-15.1003 0-27.3416 12.2849-27.3416 27.4389v339.694c0 15.154 12.2413 27.439 27.3416 27.439h128.5062c15.1 0 27.341-12.285 27.341-27.439v-339.694c0-15.154-12.241-27.4389-27.341-27.4389h-11.484c-1.51 0-2.734 1.2285-2.734 2.7439 0 6.062-4.897 10.976-10.937 10.976h-78.1969c-6.0401 0-10.9366-4.914-10.9366-10.976z" fill="#f1f5fb"/><g fill="#a4afbb"><path d="m84.2473 98.2439c0-.8151.7519-1.4759 1.6794-1.4759h20.1523c.927 0 1.679.6608 1.679 1.4759 0 .8152-.752 1.476-1.679 1.476h-20.1523c-.9275 0-1.6794-.6608-1.6794-1.476z"/><path d="m118.534 97.752c0 1.6302-.877 2.952-1.959 2.952s-1.959-1.3218-1.959-2.952c0-1.6303.877-2.952 1.959-2.952s1.959 1.3217 1.959 2.952z"/><path d="m0 147.073c0-.611.584788-1.107 1.30616-1.107h.65308v17.712h-.65308c-.721372 0-1.30616-.496-1.30616-1.107z"/><path d="m201.802 187.393c0-.599-.585-1.084-1.306-1.084h-.653v48.215h.653c.721 0 1.306-.486 1.306-1.084z"/><path d="m0 177.559c0-.602.584788-1.09 1.30616-1.09h.65308v30.503h-.65308c-.721372 0-1.30616-.487-1.30616-1.089z"/><path d="m0 215.934c0-.602.584788-1.09 1.30616-1.09h.65308v30.503h-.65308c-.721372 0-1.30616-.487-1.30616-1.089z"/></g><path d="m342.117 115.75c0-17.5482 14.117-31.7736 31.531-31.7736h134.821c17.414 0 31.531 14.2254 31.531 31.7736v346.768c0 17.548-14.117 31.773-31.531 31.773h-134.821c-17.414 0-31.531-14.225-31.531-31.773z" fill="#c2c9d2"/><path d="m391.513 94.592c0-1.5154-1.224-2.7439-2.734-2.7439h-11.484c-15.1 0-27.341 12.2849-27.341 27.4389v339.694c0 15.154 12.241 27.439 27.341 27.439h128.506c15.1 0 27.342-12.285 27.342-27.439v-339.694c0-15.154-12.242-27.4389-27.342-27.4389h-11.483c-1.511 0-2.735 1.2285-2.735 2.7439 0 6.062-4.896 10.976-10.936 10.976h-78.197c-6.041 0-10.937-4.914-10.937-10.976z" fill="#f1f5fb"/><g fill="#a4afbb"><path d="m424.405 98.2439c0-.8151.752-1.4759 1.679-1.4759h20.152c.928 0 1.68.6608 1.68 1.4759 0 .8152-.752 1.476-1.68 1.476h-20.152c-.927 0-1.679-.6608-1.679-1.476z"/><path d="m458.692 97.752c0 1.6302-.878 2.952-1.96 2.952s-1.959-1.3218-1.959-2.952c0-1.6303.877-2.952 1.959-2.952s1.96 1.3217 1.96 2.952z"/><path d="m340.157 147.073c0-.611.585-1.107 1.307-1.107h.653v17.712h-.653c-.722 0-1.307-.496-1.307-1.107z"/><path d="m541.959 187.393c0-.599-.585-1.084-1.306-1.084h-.653v48.215h.653c.721 0 1.306-.486 1.306-1.084z"/><path d="m340.157 177.559c0-.602.585-1.09 1.307-1.09h.653v30.503h-.653c-.722 0-1.307-.487-1.307-1.089z"/><path d="m340.157 215.934c0-.602.585-1.09 1.307-1.09h.653v30.503h-.653c-.722 0-1.307-.487-1.307-1.089z"/></g><path d="m136.594 42.9681c0-23.7306 19.148-42.9681 42.768-42.9681h182.87c23.62 0 42.768 19.2375 42.768 42.9682v468.9458c0 23.73-19.148 42.968-42.768 42.968h-182.87c-23.62 0-42.768-19.238-42.768-42.968z" fill="#c2c9d2"/><path d="m203.595 14.3559c0-2.0494-1.661-3.7107-3.709-3.7107h-15.576c-20.482 0-37.086 16.6132-37.086 37.1065v459.3783c0 20.493 16.604 37.107 37.086 37.107h174.303c20.482 0 37.086-16.614 37.086-37.107v-459.3783c0-20.4933-16.604-37.1065-37.086-37.1065h-15.576c-2.048 0-3.708 1.6613-3.708 3.7107 0 8.1973-6.642 14.8426-14.835 14.8426h-106.065c-8.193 0-14.834-6.6453-14.834-14.8426z" fill="#f1f5fb"/><g fill="#a4afbb"><path d="m248.209 19.2945c0-1.1024 1.019-1.996 2.278-1.996h27.334c1.258 0 2.277.8936 2.277 1.996 0 1.1023-1.019 1.9959-2.277 1.9959h-27.334c-1.259 0-2.278-.8936-2.278-1.9959z"/><path d="m294.715 18.6291c0 2.2047-1.19 3.992-2.658 3.992s-2.657-1.7873-2.657-3.992 1.189-3.9919 2.657-3.9919 2.658 1.7872 2.658 3.9919z"/><path d="m133.937 85.3281c0-.8268.793-1.497 1.772-1.497h.885v23.9519h-.885c-.979 0-1.772-.67-1.772-1.497z"/><path d="m407.657 139.853c0-.809-.793-1.465-1.771-1.465h-.886v65.202h.886c.978 0 1.771-.656 1.771-1.465z"/><path d="m133.937 126.555c0-.814.793-1.474 1.772-1.474h.885v41.25h-.885c-.979 0-1.772-.659-1.772-1.473z"/><path d="m133.937 178.45c0-.814.793-1.473 1.772-1.473h.885v41.25h-.885c-.979 0-1.772-.66-1.772-1.473z"/></g></svg>