<svg fill="none" height="495" viewBox="0 0 870 495" width="870" xmlns="http://www.w3.org/2000/svg"><path d="m870 470.733c0-.957-.803-1.733-1.794-1.733h-866.41219c-.990692 0-1.79381.776-1.79381 1.733v11.835c0 .705.428189 1.337 1.10959 1.588 19.84361 7.318 61.12881 10.277 79.61201 10.844h708.5564c18.484-.567 59.769-3.526 79.612-10.844.682-.251 1.11-.883 1.11-1.588z" fill="#a4afbb"/><path d="m81 17.9693c0-9.92415 8.0249-17.9693 17.924-17.9693h672.152c9.899 0 17.924 8.04515 17.924 17.9693v451.0307h-708z" fill="#c2c9d2"/><path d="m93 14.4959c0-2.483 2.0124-4.4959 4.4948-4.4959h676.0102c2.483 0 4.495 2.0129 4.495 4.4959v428.0081c0 2.483-2.012 4.496-4.495 4.496h-676.0102c-2.4824 0-4.4948-2.013-4.4948-4.496z" fill="#f1f5fb"/><path d="m374 469h122c0 4.971-4.418 9-9.868 9h-102.264c-5.45 0-9.868-4.029-9.868-9z" fill="#e1e4e8"/></svg>