<svg fill="none" height="459" viewBox="0 0 227 459" width="227" xmlns="http://www.w3.org/2000/svg"><path d="m2.19604 35.5434c0-19.6301 15.82336-35.5434 35.34236-35.5434h151.1196c19.519 0 35.342 15.9133 35.342 35.5434v387.9136c0 19.63-15.823 35.543-35.342 35.543h-151.1196c-19.519 0-35.34236-15.913-35.34236-35.543z" fill="#c2c9d2"/><path d="m57.5634 11.8752c0-1.6952-1.3721-3.06944-3.0646-3.06944h-12.8717c-16.9257 0-30.6468 13.74244-30.6468 30.69464v379.9996c0 16.952 13.7211 30.694 30.6468 30.694h144.0399c16.926 0 30.647-13.742 30.647-30.694v-379.9996c0-16.9522-13.721-30.69464-30.647-30.69464h-12.872c-1.692 0-3.064 1.37424-3.064 3.06944 0 6.7809-5.489 12.2779-12.259 12.2779h-87.6499c-6.7703 0-12.2587-5.497-12.2587-12.2779z" fill="#f1f5fb"/><g fill="#a4afbb"><path d="m94.4314 15.9604c0-.9118.8428-1.651 1.8823-1.651h22.5883c1.04 0 1.882.7392 1.882 1.651 0 .9119-.842 1.6511-1.882 1.6511h-22.5882c-1.0396 0-1.8824-.7392-1.8824-1.6511z"/><path d="m132.863 15.4101c0 1.8237-.983 3.3021-2.196 3.3021s-2.196-1.4784-2.196-3.3021c0-1.8238.983-3.3022 2.196-3.3022s2.196 1.4784 2.196 3.3022z"/><path d="m0 70.5836c0-.6839.655479-1.2383 1.46405-1.2383h.73203v19.813h-.73203c-.808571 0-1.46405-.5544-1.46405-1.2383z"/><path d="m226.196 115.687c0-.67-.655-1.212-1.464-1.212h-.732v53.935h.732c.809 0 1.464-.543 1.464-1.212z"/><path d="m0 104.686c0-.673.655479-1.218 1.46405-1.218h.73203v34.122h-.73203c-.808571 0-1.46405-.546-1.46405-1.219z"/><path d="m0 147.614c0-.673.655479-1.218 1.46405-1.218h.73203v34.122h-.73203c-.808571 0-1.46405-.546-1.46405-1.219z"/></g></svg>