<svg xmlns="http://www.w3.org/2000/svg"><defs><font horiz-adv-x="1169"><font-face ascent="1638" descent="-410" units-per-em="2048"/><missing-glyph horiz-adv-x="532"/><glyph d="M29 1001v58l202 37v84q0 200 73.5 293.5t240.5 93.5q90 0 180-27l-23-86q-80 25-159 25-116 0-164.5-68.5t-48.5-222.5v-101h256v-86h-256v-1001h-99v1001h-202zM643 1001v58l202 37v84q0 200 73.5 293.5t240.5 93.5q90 0 180-27l-23-86q-80 25-159 25-116 0-164.5-68.5t-48.5-222.5v-101h256v-86h-256v-1001h-99v1001h-202z" horiz-adv-x="1229" unicode="&#xfb00;"/><glyph d="M29 1001v58l202 37v84q0 200 73.5 293.5t240.5 93.5q90 0 180-27l-23-86q-80 25-159 25-116 0-164.5-68.5t-48.5-222.5v-101h256v-86h-256v-1001h-99v1001h-202zM782 1389q0 96 63 96 31 0 48.5-25t17.5-71q0-45-17.5-71t-48.5-26q-63 0-63 97zM796 0v1087h99v-1087h-99z" horiz-adv-x="1077" unicode="&#xfb01;"/><glyph d="M29 1001v58l202 37v84q0 200 73.5 293.5t240.5 93.5q90 0 180-27l-23-86q-80 25-159 25-116 0-164.5-68.5t-48.5-222.5v-101h256v-86h-256v-1001h-99v1001h-202zM796 0v1556h99v-1556h-99z" horiz-adv-x="1077" unicode="&#xfb02;"/><glyph d="M29 1001v58l202 37v84q0 200 73.5 293.5t240.5 93.5q90 0 180-27l-23-86q-80 25-159 25-116 0-164.5-68.5t-48.5-222.5v-101h256v-86h-256v-1001h-99v1001h-202zM643 1001v58l202 37v84q0 200 73.5 293.5t240.5 93.5q90 0 180-27l-23-86q-80 25-159 25-116 0-164.5-68.5t-48.5-222.5v-101h256v-86h-256v-1001h-99v1001h-202zM1397 1389q0 96 63 96 31 0 48.5-25t17.5-71q0-45-17.5-71t-48.5-26q-63 0-63 97zM1411 0v1087h99v-1087h-99z" horiz-adv-x="1692" unicode="&#xfb03;"/><glyph d="M29 1001v58l202 37v84q0 200 73.5 293.5t240.5 93.5q90 0 180-27l-23-86q-80 25-159 25-116 0-164.5-68.5t-48.5-222.5v-101h256v-86h-256v-1001h-99v1001h-202zM643 1001v58l202 37v84q0 200 73.5 293.5t240.5 93.5q90 0 180-27l-23-86q-80 25-159 25-116 0-164.5-68.5t-48.5-222.5v-101h256v-86h-256v-1001h-99v1001h-202zM1411 0v1556h99v-1556h-99z" horiz-adv-x="1692" unicode="&#xfb04;"/><glyph horiz-adv-x="532" unicode="&#x20;"/><glyph horiz-adv-x="532" unicode="&#x09;"/><glyph horiz-adv-x="532" unicode="&#xa0;"/><glyph d="M164 78q0 98 80 98 82 0 82-98t-82-98q-80 0-80 98zM186 1462h119l-29-1085h-61z" horiz-adv-x="492" unicode="&#x21;"/><glyph d="M133 1462h127l-33-528h-61zM463 1462h127l-33-528h-61z" horiz-adv-x="723" unicode="&#x22;"/><glyph d="M55 451v79h299l76 398h-297v80h311l86 454h91l-89-454h365l88 454h86l-88-454h285v-80h-301l-76-398h303v-79h-320l-86-451h-90l88 451h-360l-86-451h-88l86 451h-283zM440 530h363l78 398h-363z" horiz-adv-x="1323" unicode="&#x23;"/><glyph d="M164 186v103q75-36 179.5-61t193.5-25v508q-145 44-215 88t-102 104-32 146q0 124 94.5 208.5t254.5 104.5v192h81v-190q197-9 351-72l-33-90q-141 62-318 72v-486q213-66 293-144t80-204q0-133-99-217t-274-106v-236h-81v232q-92 2-200.5 22.5t-172.5 50.5zM297 1049q0-86 57-141t183-93v453q-119-16-179.5-76t-60.5-143zM618 209q122 13 192.5 75t70.5 160q0 85-63 140.5t-200 95.5v-471z" unicode="&#x24;"/><glyph d="M113 1026q0 223 72 340t212 117q139 0 215-120.5t76-336.5q0-226-75-343.5t-216-117.5q-133 0-208.5 120.5t-75.5 340.5zM211 1026q0-186 45-279.5t141-93.5q193 0 193 373 0 184-49.5 276.5t-143.5 92.5q-96 0-141-92.5t-45-276.5zM373 0l811 1462h96l-811-1462h-96zM965 438q0 225 73.5 341t212.5 116q137 0 213-120t76-337q0-226-74-343.5t-215-117.5q-136 0-211 121.5t-75 339.5zM1063 438q0-185 45-277.5t141-92.5q193 0 193 370 0 369-193 369-96 0-141-91.5t-45-277.5z" horiz-adv-x="1653" unicode="&#x25;"/><glyph d="M123 371q0 138 73.5 235t274.5 205l-75 82q-66 71-98 139t-32 142q0 143 95.5 227t256.5 84q155 0 245.5-81t90.5-224q0-105-70-192.5t-253-194.5l452-457q61 72 104 157t75 201h96q-63-246-209-426l266-268h-135l-193 197q-92-90-164-131.5t-157.5-63.5-194.5-22q-209 0-328.5 103t-119.5 288zM227 375q0-143 93-224t258-81q128 0 234.5 43.5t209.5 146.5l-483 485q-136-72-196.5-122.5t-88-109.5-27.5-138zM373 1176q0-79 40-146t152-174q159 85 221 159t62 169q0 94-62 152.5t-168 58.5q-114 0-179.5-58t-65.5-161z" horiz-adv-x="1460" unicode="&#x26;"/><glyph d="M133 1462h127l-33-528h-61z" horiz-adv-x="393" unicode="&#x27;"/><glyph d="M82 561q0 265 77.5 496t223.5 405h113q-148-182-227-412.5t-79-486.5q0-483 304-887h-111q-147 170-224 397t-77 488z" horiz-adv-x="557" unicode="&#x28;"/><glyph d="M61 1462h113q147-175 224-406.5t77-494.5-77.5-490-223.5-395h-111q304 404 304 887 0 257-79 487.5t-227 411.5z" horiz-adv-x="557" unicode="&#x29;"/><glyph d="M104 1124l19 131 401-104-39 405h146l-37-405 405 104 21-131-395-39 247-340-124-71-191 379-180-379-125 71 242 340z" horiz-adv-x="1128" unicode="&#x2a;"/><glyph d="M111 682v82h432v434h82v-434h434v-82h-434v-432h-82v432h-432z" unicode="&#x2b;"/><glyph d="M68-264q77 275 110 502h117l12-21q-75-265-174-481h-65z" horiz-adv-x="440" unicode="&#x2c;"/><glyph d="M92 512v82h475v-82h-475z" horiz-adv-x="659" unicode="&#x2d;"/><glyph d="M162 78q0 98 80 98 82 0 82-98t-82-98q-80 0-80 98z" horiz-adv-x="487" unicode="&#x2e;"/><glyph d="M25 0l544 1462h105l-545-1462h-104z" horiz-adv-x="698" unicode="&#x2f;"/><glyph d="M115 735q0 382 115.5 566t351.5 184q231 0 352-190.5t121-559.5q0-385-117.5-570t-355.5-185q-229 0-348 190.5t-119 564.5zM223 735q0-340 89-502.5t270-162.5q189 0 275.5 168t86.5 497q0 324-86.5 492t-275.5 168-274-168-85-492z" unicode="&#x30;"/><glyph d="M199 1165l397 297h86v-1462h-98v1065q0 145 12 301-15-15-31-29t-309-243z" unicode="&#x31;"/><glyph d="M113 0v88l389 406q164 170 230 260t97 172 31 172q0 131-86 213t-223 82q-183 0-350-133l-54 69q183 154 406 154 191 0 300.5-102t109.5-281q0-145-73.5-280.5t-268.5-334.5l-375-385v-4h782v-96h-915z" unicode="&#x32;"/><glyph d="M94 63v99q84-44 188.5-69t196.5-25q221 0 332 89.5t111 252.5q0 145-113.5 223t-333.5 78h-158v96h160q182 0 288.5 86.5t106.5 234.5q0 122-86.5 195.5t-226.5 73.5q-109 0-199-30.5t-202-104.5l-49 67q85 71 205 112.5t243 41.5q202 0 312-95.5t110-269.5q0-136-85.5-229t-229.5-119v-6q176-22 268-112t92-242q0-205-139.5-317.5t-401.5-112.5q-223 0-389 83z" unicode="&#x33;"/><glyph d="M43 373v67l725 1030h121v-1011h252v-86h-252v-373h-94v373h-752zM162 459h633v418q0 302 14 507h-8q-20-37-123-188z" unicode="&#x34;"/><glyph d="M143 63v103q108-55 192-76.5t179-21.5q192 0 308 101.5t116 274.5q0 163-113 256t-307 93q-130 0-272-39l-60 39 58 669h704v-96h-610l-45-516q156 29 244 29 234 0 368.5-113t134.5-311q0-225-140-350t-386-125q-109 0-207 21.5t-164 61.5z" unicode="&#x35;"/><glyph d="M131 623q0 285 77.5 479.5t220 288.5 343.5 94q94 0 172-23v-88q-73 27-176 27-247 0-384.5-178t-154.5-518h13q76 98 174 148t207 50q205 0 320.5-117t115.5-323q0-224-121.5-353.5t-327.5-129.5q-222 0-350.5 169.5t-128.5 473.5zM240 504q0-111 49.5-213.5t134-162.5 186.5-60q164 0 255 103t91 294q0 168-90 262t-245 94q-102 0-189.5-45t-139.5-119.5-52-152.5z" unicode="&#x36;"/><glyph d="M109 1366v96h946v-73l-604-1389h-117l602 1366h-827z" unicode="&#x37;"/><glyph d="M121 375q0 131 83 230t257 169q-161 76-227 160.5t-66 202.5q0 105 53 184.5t148.5 122.5 212.5 43q186 0 299.5-95t113.5-257q0-112-70.5-198t-228.5-159q192-79 270-173t78-228q0-181-126.5-289t-339.5-108q-221 0-339 101t-118 294zM223 360q0-138 93.5-214t261.5-76q164 0 264 80.5t100 218.5q0 124-78.5 201.5t-302.5 162.5q-184-71-261-157t-77-216zM268 1137q0-70 31.5-123.5t91-97 199.5-101.5q163 63 234 139t71 183q0 120-84.5 190t-230.5 70q-141 0-226.5-69.5t-85.5-190.5z" unicode="&#x38;"/><glyph d="M111 993q0 220 124.5 356t323.5 136q144 0 252-75.5t166.5-221.5 58.5-346q0-288-75.5-482t-220-287-349.5-93q-104 0-192 26v86q43-14 103.5-21.5t92.5-7.5q247 0 387 178.5t156 520.5h-12q-73-96-174-147.5t-211-51.5q-203 0-316.5 112t-113.5 318zM213 999q0-174 87-264t249-90q101 0 188.5 45t139 119.5 51.5 151.5q0 117-46.5 219t-130 159.5-192.5 57.5q-158 0-252-106.5t-94-291.5z" unicode="&#x39;"/><glyph d="M162 78q0 98 80 98 82 0 82-98t-82-98q-80 0-80 98zM162 971q0 98 80 98 82 0 82-98 0-53-23.5-76t-58.5-23q-34 0-57 23t-23 76z" horiz-adv-x="487" unicode="&#x3a;"/><glyph d="M76-264q29 97 62 245.5t48 256.5h117l12-21q-75-265-174-481h-65zM162 971q0 98 80 98 82 0 82-98 0-53-23.5-76t-58.5-23q-34 0-57 23t-23 76z" horiz-adv-x="487" unicode="&#x3b;"/><glyph d="M111 682v61l948 474v-95l-823-405 823-355v-96z" unicode="&#x3c;"/><glyph d="M111 477v82h948v-82h-948zM111 885v82h948v-82h-948z" unicode="&#x3d;"/><glyph d="M111 266v96l823 355-823 405v95l948-474v-61z" unicode="&#x3e;"/><glyph d="M57 1403q110 48 184.5 64t153.5 16q183 0 288-98.5t105-270.5q0-68-18-119t-50.5-94.5-78.5-84-102-87.5q-64-54-98.5-98.5t-50-93.5-15.5-146v-14h-82v37q0 123 37.5 201t138.5 167l91 79q72 61 103 121t31 138q0 127-83.5 202t-219.5 75q-79 0-148-17.5t-149-56.5zM260 78q0 98 80 98 82 0 82-98t-82-98q-80 0-80 98z" horiz-adv-x="862" unicode="&#x3f;"/><glyph d="M113 561q0 256 108.5 460.5t307 317.5 448.5 113q215 0 380.5-89t255-254.5 89.5-383.5q0-228-90.5-366t-245.5-138q-89 0-144.5 54t-64.5 147h-4q-43-100-124-150.5t-189-50.5q-148 0-229 96.5t-81 270.5q0 202 120.5 330.5t314.5 128.5q138 0 286-41l-22-464v-30q0-104 35-156.5t116-52.5q103 0 168.5 116.5t65.5 303.5q0 194-79 340t-225.5 224.5-334.5 78.5q-230 0-405.5-99.5t-270-281.5-94.5-418q0-322 167-497.5t474-175.5q93 0 188.5 18t231.5 70v-99q-203-80-414-80-349 0-544 200.5t-195 557.5zM633 590q0-143 55-215t174-72q255 0 273 346l16 291q-79 27-193 27-149 0-237-102.5t-88-274.5z" horiz-adv-x="1815" unicode="&#x40;"/><glyph d="M0 0l588 1468h65l576-1468h-115l-203 516h-594l-204-516h-113zM354 608h523l-199 527q-25 62-60 172-27-96-59-174z" horiz-adv-x="1229" unicode="&#x41;"/><glyph d="M207 0v1462h401q271 0 398-92t127-278q0-127-77.5-211.5t-226.5-108.5v-6q175-26 257.5-110.5t82.5-235.5q0-202-134-311t-380-109h-448zM309 90h344q406 0 406 330 0 301-428 301h-322v-631zM309 811h322q206 0 299.5 68.5t93.5 214.5-105.5 212-314.5 66h-295v-561z" horiz-adv-x="1284" unicode="&#x42;"/><glyph d="M129 735q0 223 84.5 393t243 262.5 368.5 92.5q214 0 383-80l-41-92q-160 80-336 80-275 0-433-176t-158-482q0-313 149-486t426-173q184 0 338 47v-90q-145-51-362-51-308 0-485 199t-177 556z" horiz-adv-x="1272" unicode="&#x43;"/><glyph d="M207 0v1462h395q350 0 532.5-183t182.5-534q0-368-193-556.5t-567-188.5h-350zM309 90h242q655 0 655 651 0 314-159.5 472.5t-468.5 158.5h-269v-1282z" horiz-adv-x="1446" unicode="&#x44;"/><glyph d="M207 0v1462h799v-94h-697v-553h658v-94h-658v-627h697v-94h-799z" horiz-adv-x="1130" unicode="&#x45;"/><glyph d="M207 0v1462h801v-94h-699v-620h660v-95h-660v-653h-102z" horiz-adv-x="1028" unicode="&#x46;"/><glyph d="M129 729q0 223 91.5 395.5t262 266.5 391.5 94q239 0 429-88l-41-92q-190 88-394 88-289 0-458.5-178.5t-169.5-481.5q0-330 161-496.5t473-166.5q202 0 343 57v514h-435v96h539v-667q-212-90-477-90-346 0-530.5 195.5t-184.5 553.5z" horiz-adv-x="1481" unicode="&#x47;"/><glyph d="M207 0v1462h102v-649h854v649h103v-1462h-103v719h-854v-719h-102z" horiz-adv-x="1473" unicode="&#x48;"/><glyph d="M207 0v1462h102v-1462h-102z" horiz-adv-x="516" unicode="&#x49;"/><glyph d="M-184-254q78-20 149-20 242 0 242 264v1472h102v-1462q0-369-342-369-92 0-151 27v88z" horiz-adv-x="506" unicode="&#x4a;"/><glyph d="M207 0v1462h102v-760l162 162 573 598h130l-599-618 615-844h-125l-561 772-195-172v-600h-102z" horiz-adv-x="1190" unicode="&#x4b;"/><glyph d="M207 0v1462h102v-1366h697v-96h-799z" horiz-adv-x="1051" unicode="&#x4c;"/><glyph d="M207 0v1462h158l518-1286h6l518 1286h154v-1462h-103v1108q0 116 12 240h-8l-547-1348h-65l-545 1350h-8q8-124 8-254v-1096h-98z" horiz-adv-x="1767" unicode="&#x4d;"/><glyph d="M207 0v1462h102l865-1296h6q-9 180-9 342v954h99v-1462h-103l-866 1298h-8q12-232 12-350v-948h-98z" horiz-adv-x="1477" unicode="&#x4e;"/><glyph d="M129 735q0 349 175.5 549.5t479.5 200.5q306 0 479-201.5t173-550.5q0-348-174-550.5t-480-202.5q-305 0-479 202.5t-174 552.5zM240 733q0-314 140-485.5t402-171.5q264 0 403.5 170t139.5 487q0 316-139.5 484.5t-401.5 168.5q-261 0-402.5-170t-141.5-483z" horiz-adv-x="1565" unicode="&#x4f;"/><glyph d="M207 0v1462h358q522 0 522-420 0-212-144-325t-408-113h-226v-604h-102zM309 692h201q247 0 357 81.5t110 264.5q0 169-104 250.5t-322 81.5h-242v-678z" horiz-adv-x="1198" unicode="&#x50;"/><glyph d="M129 735q0 349 175.5 549.5t479.5 200.5q306 0 479-201.5t173-550.5q0-294-126-486.5t-349-246.5l333-348h-166l-282 330-33-2h-31q-305 0-479 202.5t-174 552.5zM240 733q0-314 140-485.5t402-171.5q264 0 403.5 170t139.5 487q0 316-139.5 484.5t-401.5 168.5q-261 0-402.5-170t-141.5-483z" horiz-adv-x="1565" unicode="&#x51;"/><glyph d="M207 0v1462h348q272 0 402-100.5t130-302.5q0-147-77.5-248t-235.5-145l397-666h-122l-377 637h-363v-637h-102zM309 725h279q185 0 287 82.5t102 243.5q0 167-100 243t-326 76h-242v-645z" horiz-adv-x="1217" unicode="&#x52;"/><glyph d="M111 39v102q158-67 403-67 180 0 285.5 82.5t105.5 216.5q0 83-35 137.5t-114 99.5-232 97q-224 77-309.5 166.5t-85.5 238.5q0 164 128.5 267.5t330.5 103.5q206 0 387-78l-37-88q-182 76-348 76-162 0-258-75t-96-204q0-81 29.5-133t96.5-93.5 230-99.5q171-59 257-114.5t125.5-126 39.5-170.5q0-183-134.5-290t-357.5-107q-268 0-411 59z" horiz-adv-x="1116" unicode="&#x53;"/><glyph d="M10 1366v96h1053v-96h-475v-1366h-103v1366h-475z" horiz-adv-x="1073" unicode="&#x54;"/><glyph d="M190 520v942h103v-946q0-211 117-328.5t331-117.5q209 0 324 115.5t115 320.5v956h102v-946q0-252-146-394t-407-142q-254 0-396.5 142.5t-142.5 397.5z" horiz-adv-x="1473" unicode="&#x55;"/><glyph d="M0 1462h109l368-995q84-225 113-338 20 75 79 233l402 1100h111l-547-1462h-90z" horiz-adv-x="1182" unicode="&#x56;"/><glyph d="M51 1462h107l256-942q15-57 28-105.5t23.5-91 19-82 15.5-79.5q24 136 102 413l250 887h113l293-1018q51-176 73-284 13 72 33.5 153t308.5 1149h103l-404-1462h-84l-321 1128q-40 139-60 228-16-87-45.5-200t-322.5-1156h-86z" horiz-adv-x="1827" unicode="&#x57;"/><glyph d="M0 0l492 762-447 700h115l395-626 401 626h109l-453-698 490-764h-117l-432 682-440-682h-113z" horiz-adv-x="1102" unicode="&#x58;"/><glyph d="M0 1462h117l426-800 428 800h110l-487-897v-565h-105v557z" horiz-adv-x="1081" unicode="&#x59;"/><glyph d="M82 0v76l856 1290h-817v96h954v-76l-858-1290h881v-96h-1016z" horiz-adv-x="1180" unicode="&#x5a;"/><glyph d="M174-324v1786h428v-94h-330v-1597h330v-95h-428z" horiz-adv-x="653" unicode="&#x5b;"/><glyph d="M25 1462h102l547-1462h-103z" horiz-adv-x="698" unicode="&#x5c;"/><glyph d="M51-229h330v1597h-330v94h428v-1786h-428v95z" horiz-adv-x="653" unicode="&#x5d;"/><glyph d="M88 561l465 912h68l460-912h-100l-395 791-398-791h-100z" unicode="&#x5e;"/><glyph d="M-4-184h850v-82h-850v82z" horiz-adv-x="842" unicode="&#x5f;"/><glyph d="M393 1552v17h142q26-48 98.5-142t142.5-170v-16h-69q-96 79-188.5 171.5t-125.5 139.5z" horiz-adv-x="1182" unicode="&#x60;"/><glyph d="M98 289q0 159 132.5 247t383.5 93l207 6v72q0 155-63 234t-203 79q-151 0-313-84l-37 86q179 84 354 84 179 0 267.5-93t88.5-290v-723h-73l-25 172h-8q-82-105-168.5-148.5t-204.5-43.5q-160 0-249 82t-89 227zM203 285q0-102 62.5-158.5t176.5-56.5q174 0 274.5 99.5t100.5 276.5v107l-190-8q-229-11-326.5-71.5t-97.5-188.5z" horiz-adv-x="1085" unicode="&#x61;"/><glyph d="M182 0v1556h99v-391q0-88-4-162l-3-85h7q62 98 149.5 144t210.5 46q228 0 343.5-143.5t115.5-419.5q0-271-121.5-418t-341.5-147q-116 0-209 48t-147 136h-9l-28-164h-62zM281 528q0-246 86.5-353t269.5-107q178 0 268 124.5t90 354.5q0 471-356 471-192 0-275-110t-83-363v-17z" horiz-adv-x="1219" unicode="&#x62;"/><glyph d="M119 537q0 270 137 420.5t375 150.5q141 0 270-49l-27-88q-141 47-245 47-200 0-303-123.5t-103-355.5q0-220 103-344.5t288-124.5q148 0 275 53v-92q-104-51-273-51-233 0-365 147t-132 410z" horiz-adv-x="973" unicode="&#x63;"/><glyph d="M119 528q0 282 118 431t343 149q118 0 204-43t154-147h6q-6 126-6 247v391h98v-1556h-65l-25 166h-8q-124-186-356-186-225 0-344 140t-119 408zM223 530q0-462 359-462 184 0 270 107t86 353v17q0 252-84.5 362.5t-273.5 110.5q-178 0-267.5-125t-89.5-363z" horiz-adv-x="1219" unicode="&#x64;"/><glyph d="M119 535q0 260 128 416.5t345 156.5q192 0 303-134t111-364v-80h-783q2-224 104.5-342t293.5-118q93 0 163.5 13t178.5 56v-90q-92-40-170-54.5t-172-14.5q-237 0-369.5 146t-132.5 409zM229 618h672q0 189-82 295.5t-227 106.5q-157 0-252-103.5t-111-298.5z" horiz-adv-x="1124" unicode="&#x65;"/><glyph d="M29 1001v58l202 37v84q0 200 73.5 293.5t240.5 93.5q90 0 180-27l-23-86q-80 25-159 25-116 0-164.5-68.5t-48.5-222.5v-101h256v-86h-256v-1001h-99v1001h-202z" horiz-adv-x="614" unicode="&#x66;"/><glyph d="M45-193q0 112 69.5 186t188.5 101q-49 21-78.5 59.5t-29.5 88.5q0 109 139 192-95 39-148 122.5t-53 191.5q0 163 103.5 261.5t279.5 98.5q107 0 166-21h348v-69l-225-14q90-112 90-246 0-157-104.5-254.5t-280.5-97.5q-74 0-104 6-59-31-90-73t-31-89q0-52 39.5-76t132.5-24h190q177 0 271-71.5t94-211.5q0-172-139.5-265.5t-397.5-93.5q-205 0-317.5 79t-112.5 220zM150-184q0-224 333-224 428 0 428 273 0 98-67 142t-217 44h-178q-299 0-299-235zM233 748q0-126 76.5-195.5t204.5-69.5q136 0 208.5 69t72.5 200q0 139-74.5 208.5t-208.5 69.5q-130 0-204.5-74.5t-74.5-207.5z" horiz-adv-x="1071" unicode="&#x67;"/><glyph d="M182 0v1556h99v-495l-5-139h7q61 98 154 142t231 44q370 0 370-397v-711h-98v705q0 164-69 238.5t-214 74.5q-195 0-285.5-98.5t-90.5-319.5v-600h-99z" horiz-adv-x="1208" unicode="&#x68;"/><glyph d="M168 1389q0 96 63 96 31 0 48.5-25t17.5-71q0-45-17.5-71t-48.5-26q-63 0-63 97zM182 0v1087h99v-1087h-99z" horiz-adv-x="463" unicode="&#x69;"/><glyph d="M-98-381q69-20 129-20 151 0 151 176v1312h99v-1298q0-135-63.5-208t-180.5-73q-80 0-135 25v86zM168 1389q0 96 63 96 31 0 48.5-25t17.5-71q0-45-17.5-71t-48.5-26q-63 0-63 97z" horiz-adv-x="463" unicode="&#x6a;"/><glyph d="M182 0v1556h99v-780l-7-299h5l555 610h120l-428-464 465-623h-119l-413 549-178-162v-387h-99z" horiz-adv-x="991" unicode="&#x6b;"/><glyph d="M182 0v1556h99v-1556h-99z" horiz-adv-x="463" unicode="&#x6c;"/><glyph d="M182 0v1087h82l21-149h6q45 81 128 125.5t183 44.5q257 0 330-193h4q53 93 142.5 143t203.5 50q178 0 267-95t89-302v-711h-98v713q0 159-62 232t-190 73q-167 0-247-92t-80-289v-637h-101v743q0 275-252 275-171 0-249-99.5t-78-318.5v-600h-99z" horiz-adv-x="1808" unicode="&#x6d;"/><glyph d="M182 0v1087h84l19-149h6q106 170 377 170 370 0 370-397v-711h-98v705q0 164-69 238.5t-214 74.5q-195 0-285.5-98.5t-90.5-319.5v-600h-99z" horiz-adv-x="1208" unicode="&#x6e;"/><glyph d="M119 545q0 266 129 414.5t354 148.5q224 0 351.5-150.5t127.5-412.5q0-266-129-415.5t-356-149.5q-143 0-252 69t-167 198-58 298zM223 545q0-224 98.5-349.5t278.5-125.5 278.5 125.5 98.5 349.5q0 225-99.5 349t-279.5 124-277.5-123.5-97.5-349.5z" horiz-adv-x="1200" unicode="&#x6f;"/><glyph d="M182-492v1579h84l19-155h6q112 176 358 176 220 0 335.5-144.5t115.5-420.5q0-268-121.5-415.5t-331.5-147.5q-251 0-366 188h-7l3-84q4-74 4-162v-414h-99zM281 541q0-255 85.5-364t278.5-109q167 0 258.5 124t91.5 347q0 479-346 479-190 0-279-104.5t-89-340.5v-32z" horiz-adv-x="1219" unicode="&#x70;"/><glyph d="M119 532q0 275 118 425.5t338 150.5q236 0 353-174h6l18 153h84v-1579h-98v414q0 122 6 248h-6q-118-190-369-190-214 0-332 142t-118 410zM223 530q0-229 89.5-345.5t258.5-116.5q198 0 282.5 109t84.5 366v12q0 245-85 354t-271 109q-176 0-267.5-124t-91.5-364z" horiz-adv-x="1219" unicode="&#x71;"/><glyph d="M182 0v1087h84l10-196h7q67 120 143 168.5t184 48.5q69 0 148-14l-19-95q-68 17-141 17-139 0-228-118t-89-298v-600h-99z" horiz-adv-x="797" unicode="&#x72;"/><glyph d="M84 47v107q164-82 346-82 161 0 244.5 53.5t83.5 142.5q0 82-66.5 138t-218.5 110q-163 59-229 101.5t-99.5 96-33.5 130.5q0 122 102.5 193t286.5 71q176 0 334-66l-37-90q-160 66-297 66-133 0-211-44t-78-122q0-85 60.5-136t236.5-114q147-53 214-95.5t100.5-96.5 33.5-127q0-146-111-224.5t-315-78.5q-218 0-346 67z" horiz-adv-x="954" unicode="&#x73;"/><glyph d="M25 1001v58l161 45 50 246h51v-263h319v-86h-319v-688q0-125 44-185t138-60 164 16v-80q-72-24-166-24-144 0-212.5 77t-68.5 242v702h-161z" horiz-adv-x="686" unicode="&#x74;"/><glyph d="M170 377v710h98v-704q0-164 69-238.5t214-74.5q194 0 285.5 98t91.5 319v600h98v-1087h-84l-18 150h-6q-106-170-377-170-371 0-371 397z" horiz-adv-x="1208" unicode="&#x75;"/><glyph d="M0 1087h102l281-739q56-142 84-248h6q41 136 84 250l281 737h102l-420-1087h-100z" horiz-adv-x="940" unicode="&#x76;"/><glyph d="M31 1087h106l174-630q61-234 80-344h6q59 234 86 311l224 663h90l213-661q72-235 88-311h6q8 65 80 348l166 624h100l-295-1087h-104l-238 727q-23 74-59 217h-6l-21-74-45-145-242-725h-98z" horiz-adv-x="1481" unicode="&#x77;"/><glyph d="M55 0l394 559-379 528h114l324-458 321 458h109l-373-528 400-559h-115l-342 485-344-485h-109z" horiz-adv-x="1020" unicode="&#x78;"/><glyph d="M0 1087h102l230-610q105-281 133-379h6q42 129 137 385l230 604h102l-487-1263q-59-154-99-208t-93.5-81-129.5-27q-57 0-127 21v86q58-16 125-16 51 0 90 24t70.5 74.5 73 160 53.5 142.5z" horiz-adv-x="940" unicode="&#x79;"/><glyph d="M82 0v63l645 936h-598v88h727v-63l-649-936h651v-88h-776z" horiz-adv-x="944" unicode="&#x7a;"/><glyph d="M61 528v80q122 2 176 51t54 148v350q0 299 360 305v-90q-138-5-200-58t-62-157v-305q0-130-44-194t-142-85v-8q97-20 141.5-83.5t44.5-186.5v-322q0-102 59.5-152.5t202.5-53.5v-91q-195 0-277.5 75t-82.5 231v337q0 205-230 209z" horiz-adv-x="723" unicode="&#x7b;"/><glyph d="M508-506v2067h92v-2067h-92z" horiz-adv-x="1108" unicode="&#x7c;"/><glyph d="M72-233q141 2 201.5 52.5t60.5 153.5v322q0 123 44.5 186.5t141.5 83.5v8q-97 20-141.5 84t-44.5 195v305q0 103-61.5 156.5t-200.5 58.5v90q174 0 267-77.5t93-227.5v-350q0-100 54.5-148.5t175.5-50.5v-80q-230-4-230-209v-337q0-155-82.5-230.5t-277.5-75.5v91z" horiz-adv-x="723" unicode="&#x7d;"/><glyph d="M111 625v94q108 110 233 110 61 0 115-13.5t155-57.5q126-58 220-58 56 0 109.5 30.5t115.5 94.5v-96q-48-49-104.5-81t-129.5-32q-116 0-270 72-124 57-221 57-49 0-108-30.5t-115-89.5z" unicode="&#x7e;"/><glyph d="M166 1010q0 98 80 98 82 0 82-98 0-53-23.5-76t-58.5-23q-34 0-57 23t-23 76zM186-375l29 1086h61l29-1086h-119z" horiz-adv-x="492" unicode="&#xa1;"/><glyph d="M211 745q0 232 102.5 381.5t288.5 182.5v174h82v-166h14q131 0 275-55l-31-84q-134 51-237 51-187 0-288.5-122.5t-101.5-358.5q0-225 100.5-349.5t280.5-124.5q131 0 267 58v-92q-110-56-267-56h-12v-204h-82v210q-186 30-288.5 175t-102.5 380z" unicode="&#xa2;"/><glyph d="M78 0v84q110 21 171.5 110t61.5 224v258h-211v82h211v297q0 204 98 315t281 111q175 0 330-68l-35-86q-157 66-295 66-141 0-209.5-81t-68.5-253v-301h411v-82h-411v-256q0-116-35-196t-113-128h809v-96h-995z" unicode="&#xa3;"/><glyph d="M127 326l139 141q-90 106-90 256 0 147 90 258l-139 141 59 60 138-142q103 93 260 93 155 0 260-93l137 142 59-60-139-141q90-111 90-258 0-151-90-256l139-141-59-60-137 142q-110-93-260-93-153 0-260 93l-138-142zM260 723q0-136 94.5-232t229.5-96q134 0 228.5 95.5t94.5 232.5q0 136-95 233t-228 97q-134 0-229-97t-95-233z" unicode="&#xa4;"/><glyph d="M43 1462h117l426-796 428 796h110l-432-788h283v-82h-338v-205h338v-82h-338v-305h-105v305h-337v82h337v205h-337v82h278z" unicode="&#xa5;"/><glyph d="M508 258h92v-764h-92v764zM508 797v764h92v-764h-92z" horiz-adv-x="1108" unicode="&#xa6;"/><glyph d="M129 63v95q182-78 332-78 162 0 247 49.5t85 140.5q0 55-25 87.5t-88.5 65.5-190.5 79q-200 73-272 141.5t-72 169.5q0 83 50.5 152.5t138.5 107.5q-86 47-125 102t-39 136q0 117 101.5 183.5t275.5 66.5q175 0 336-64l-35-80q-91 34-158.5 47t-144.5 13q-134 0-205.5-44.5t-71.5-119.5q0-54 25.5-88.5t85.5-65.5 188-74q192-64 264-132.5t72-170.5q0-173-186-274 86-42 129-96t43-136q0-135-113-207.5t-311-72.5q-92 0-171 15t-165 52zM246 825q0-65 31.5-104t105.5-75 250-99q82 41 126 98t44 121q0 62-32 102t-108.5 77-236.5 87q-81-23-130.5-79t-49.5-128z" horiz-adv-x="1057" unicode="&#xa7;"/><glyph d="M336 1389q0 46 15.5 66t47.5 20q64 0 64-86t-64-86q-63 0-63 86zM717 1389q0 46 15.5 66t47.5 20q64 0 64-86t-64-86q-63 0-63 86z" horiz-adv-x="1182" unicode="&#xa8;"/><glyph d="M100 731q0 200 100 375t275 276 377 101q200 0 375-100t276-275 101-377q0-197-97-370t-272-277-383-104q-207 0-382 103.5t-272.5 276.5-97.5 371zM193 731q0-178 88.5-329.5t240.5-240.5 330-89 329.5 88.5 240.5 240.5 89 330q0 174-85.5 325t-239 243-334.5 92q-176 0-328.5-88.5t-241.5-242.5-89-329zM489 725q0 208 111 332.5t297 124.5q119 0 227-52l-37-83q-98 45-190 45-142 0-222.5-94.5t-80.5-264.5q0-186 74.5-275t220.5-89q84 0 198 43v-88q-102-45-208-45-187 0-288.5 115t-101.5 331z" horiz-adv-x="1704" unicode="&#xa9;"/><glyph d="M78 989q0 100 80 151.5t241 59.5l95 4v43q0 77-38 114.5t-106 37.5q-87 0-196-49l-33 73q117 56 231 56 228 0 228-215v-451h-68l-25 72q-84-84-202-84-95 0-151 49t-56 139zM168 993q0-54 35-85t96-31q90 0 142.5 50t52.5 142v64l-88-5q-116-6-177-36.5t-61-98.5z" horiz-adv-x="686" unicode="&#xaa;"/><glyph d="M82 516v27l309 393 62-43-254-363 254-362-62-43zM442 516v27l310 393 61-43-254-363 254-362-61-43z" horiz-adv-x="885" unicode="&#xab;"/><glyph d="M111 682v82h927v-494h-82v412h-845z" unicode="&#xac;"/><glyph d="M92 512v82h475v-82h-475z" horiz-adv-x="659" unicode="&#xad;"/><glyph d="M100 731q0 200 100 375t275 276 377 101q200 0 375-100t276-275 101-377q0-197-97-370t-272-277-383-104q-207 0-382 103.5t-272.5 276.5-97.5 371zM193 731q0-178 88.5-329.5t240.5-240.5 330-89 329.5 88.5 240.5 240.5 89 330q0 174-85.5 325t-239 243-334.5 92q-176 0-328.5-88.5t-241.5-242.5-89-329zM608 291v880h211q143 0 222-62t79-191q0-79-38.5-139.5t-110.5-94.5l237-393h-121l-210 360h-168v-360h-101zM709 731h112q91 0 143 46.5t52 135.5q0 172-197 172h-110v-354z" horiz-adv-x="1704" unicode="&#xae;"/><glyph d="M-6 1556v82h1036v-82h-1036z" horiz-adv-x="1024" unicode="&#xaf;"/><glyph d="M139 1184q0 132 86.5 215.5t212.5 83.5 212.5-83.5 86.5-215.5-86.5-215.5-212.5-83.5q-130 0-214.5 83t-84.5 216zM229 1184q0-91 61-154t148-63q86 0 147.5 62t61.5 155q0 92-60 154.5t-149 62.5q-90 0-149.5-64t-59.5-153z" horiz-adv-x="877" unicode="&#xb0;"/><glyph d="M111 1v82h948v-82h-948zM111 682v82h432v434h82v-434h434v-82h-434v-432h-82v432h-432z" unicode="&#xb1;"/><glyph d="M53 586v78l242 237q125 121 172 193t47 149q0 71-46.5 112.5t-123.5 41.5q-108 0-217-82l-49 65q119 103 270 103 124 0 194-63.5t70-174.5q0-47-13-89t-40-85.5-68.5-90-308.5-306.5h447v-88h-576z" horiz-adv-x="688" unicode="&#xb2;"/><glyph d="M41 629v88q136-62 266-62 115 0 174.5 49t59.5 136q0 83-59.5 122t-178.5 39h-131v84h135q105 0 158 43.5t53 120.5q0 67-47 107.5t-127 40.5q-128 0-246-78l-47 70q130 94 293 94 127 0 199.5-60t72.5-163q0-78-44-131.5t-117-75.5q186-45 186-211 0-130-88.5-201.5t-247.5-71.5q-144 0-264 60z" horiz-adv-x="688" unicode="&#xb3;"/><glyph d="M393 1241v16q73 79 144.5 171.5t97.5 140.5h141v-17q-36-52-122.5-138t-190.5-173h-70z" horiz-adv-x="1182" unicode="&#xb4;"/><glyph d="M182-492v1579h99v-704q0-164 69-238.5t213-74.5q194 0 285.5 98t91.5 319v600h98v-1087h-84l-18 150h-6q-50-77-150-123.5t-217-46.5q-99 0-167.5 27.5t-119.5 84.5q5-92 5-170v-414h-99z" horiz-adv-x="1221" unicode="&#xb5;"/><glyph d="M113 1042q0 260 109 387t341 127h543v-1816h-100v1722h-228v-1722h-100v819q-64-18-146-18-216 0-317.5 125t-101.5 376z" horiz-adv-x="1341" unicode="&#xb6;"/><glyph d="M162 721q0 98 80 98 82 0 82-98t-82-98q-80 0-80 98z" horiz-adv-x="487" unicode="&#xb7;"/><glyph d="M43-393q30-10 92-10 78 0 119 28t41 80q0 94-193 121l93 174h96l-66-117q168-37 168-174 0-100-67.5-150.5t-188.5-50.5q-68 0-94 11v88z" horiz-adv-x="420" unicode="&#xb8;"/><glyph d="M76 1298l274 164h92v-876h-98v547q0 99 12 233-26-23-233-145z" horiz-adv-x="688" unicode="&#xb9;"/><glyph d="M70 1141q0 162 78 250t223 88q142 0 220.5-87t78.5-251q0-161-80-250.5t-223-89.5-220 86-77 254zM160 1141q0-264 209-264t209 264q0 131-50 194.5t-159 63.5-159-63.5-50-194.5z" horiz-adv-x="739" unicode="&#xba;"/><glyph d="M72 168l254 362-254 363 61 43 309-391v-27l-309-393zM432 168l254 362-254 363 62 43 309-391v-27l-309-393z" horiz-adv-x="885" unicode="&#xbb;"/><glyph d="M59 1298l274 164h92v-876h-98v547q0 99 12 233-26-23-233-145zM243 0l811 1462h94l-811-1462h-94zM760 242v60l407 581h96v-563h129v-78h-129v-241h-90v241h-413zM864 320h309v221q0 132 8 232-6-12-21.5-35.5t-295.5-417.5z" horiz-adv-x="1516" unicode="&#xbc;"/><glyph d="M11 1298l274 164h92v-876h-98v547q0 99 12 233-26-23-233-145zM168 0l811 1462h94l-811-1462h-94zM827 1v78l242 237q125 121 172 193t47 149q0 71-46.5 112.5t-123.5 41.5q-108 0-217-82l-49 65q119 103 270 103 124 0 194-63.5t70-174.5q0-47-13-89t-40-85.5-68.5-90-308.5-306.5h447v-88h-576z" horiz-adv-x="1516" unicode="&#xbd;"/><glyph d="M41 629v88q136-62 266-62 115 0 174.5 49t59.5 136q0 83-59.5 122t-178.5 39h-131v84h135q105 0 158 43.5t53 120.5q0 67-47 107.5t-127 40.5q-128 0-246-78l-47 70q130 94 293 94 127 0 199.5-60t72.5-163q0-78-44-131.5t-117-75.5q186-45 186-211 0-130-88.5-201.5t-247.5-71.5q-144 0-264 60zM395 0l811 1462h94l-811-1462h-94zM863 242v60l407 581h96v-563h129v-78h-129v-241h-90v241h-413zM967 320h309v221q0 132 8 232-6-12-21.5-35.5t-295.5-417.5z" horiz-adv-x="1516" unicode="&#xbe;"/><glyph d="M74-27q0 70 20 124t58.5 102 171.5 159q64 53 98.5 98.5t49.5 94 15 145.5v15h82v-37q0-125-39.5-204.5t-136.5-164.5l-90-79q-73-61-104-120.5t-31-138.5q0-124 82-200t221-76q125 0 233 46l64 27 37-79q-111-48-185.5-64t-152.5-16q-184 0-288.5 99t-104.5 269zM440 1010q0 98 80 98 82 0 82-98 0-53-23.5-76t-58.5-23q-34 0-57 23t-23 76z" horiz-adv-x="862" unicode="&#xbf;"/><glyph d="M0 0l588 1468h65l576-1468h-115l-203 516h-594l-204-516h-113zM354 608h523l-199 527q-25 62-60 172-27-96-59-174zM337 1890v17h142q26-48 98.5-142t142.5-170v-16h-69q-96 79-188.5 171.5t-125.5 139.5z" horiz-adv-x="1229" unicode="&#xc0;"/><glyph d="M0 0l588 1468h65l576-1468h-115l-203 516h-594l-204-516h-113zM354 608h523l-199 527q-25 62-60 172-27-96-59-174zM504 1579v16q73 79 144.5 171.5t97.5 140.5h141v-17q-36-52-122.5-138t-190.5-173h-70z" horiz-adv-x="1229" unicode="&#xc1;"/><glyph d="M0 0l588 1468h65l576-1468h-115l-203 516h-594l-204-516h-113zM354 608h523l-199 527q-25 62-60 172-27-96-59-174zM328 1579v16q62 67 131.5 156t110.5 156h98q68-120 242-312v-16h-70q-122 101-221 207-108-114-221-207h-70z" horiz-adv-x="1229" unicode="&#xc2;"/><glyph d="M0 0l588 1468h65l576-1468h-115l-203 516h-594l-204-516h-113zM354 608h523l-199 527q-25 62-60 172-27-96-59-174zM287 1581q10 111 63 174.5t137 63.5q48 0 88-25t82-59q34-28 66-50t61-22q46 0 77 36.5t48 119.5h76q-16-116-69-177t-132-61q-36 0-75 18.5t-101 71.5q-32 26-62.5 46t-62.5 20q-45 0-75-34.5t-48-121.5h-73z" horiz-adv-x="1229" unicode="&#xc3;"/><glyph d="M0 0l588 1468h65l576-1468h-115l-203 516h-594l-204-516h-113zM354 608h523l-199 527q-25 62-60 172-27-96-59-174zM367 1727q0 46 15.5 66t47.5 20q64 0 64-86t-64-86q-63 0-63 86zM748 1727q0 46 15.5 66t47.5 20q64 0 64-86t-64-86q-63 0-63 86z" horiz-adv-x="1229" unicode="&#xc4;"/><glyph d="M0 0l588 1468h65l576-1468h-115l-203 516h-594l-204-516h-113zM354 608h523l-199 527q-25 62-60 172-27-96-59-174zM402 1610q0 94 60 152.5t157 58.5 157-59 60-152q0-97-60-155t-157-58-157 58-60 155zM482 1610q0-66 37.5-103.5t99.5-37.5 99.5 37.5 37.5 103.5q0 64-39 101.5t-98 37.5q-62 0-99.5-38t-37.5-101z" horiz-adv-x="1229" unicode="&#xc5;"/><glyph d="M-2 0l653 1462h877v-94h-615v-553h576v-94h-576v-627h615v-94h-717v516h-475l-227-516h-111zM377 608h434v760h-100z" horiz-adv-x="1653" unicode="&#xc6;"/><glyph d="M129 735q0 223 84.5 393t243 262.5 368.5 92.5q214 0 383-80l-41-92q-160 80-336 80-275 0-433-176t-158-482q0-313 149-486t426-173q184 0 338 47v-90q-145-51-362-51-308 0-485 199t-177 556zM561-393q30-10 92-10 78 0 119 28t41 80q0 94-193 121l93 174h96l-66-117q168-37 168-174 0-100-67.5-150.5t-188.5-50.5q-68 0-94 11v88z" horiz-adv-x="1272" unicode="&#xc7;"/><glyph d="M207 0v1462h799v-94h-697v-553h658v-94h-658v-627h697v-94h-799zM314 1890v17h142q26-48 98.5-142t142.5-170v-16h-69q-96 79-188.5 171.5t-125.5 139.5z" horiz-adv-x="1130" unicode="&#xc8;"/><glyph d="M207 0v1462h799v-94h-697v-553h658v-94h-658v-627h697v-94h-799zM463 1579v16q73 79 144.5 171.5t97.5 140.5h141v-17q-36-52-122.5-138t-190.5-173h-70z" horiz-adv-x="1130" unicode="&#xc9;"/><glyph d="M207 0v1462h799v-94h-697v-553h658v-94h-658v-627h697v-94h-799zM315 1579v16q62 67 131.5 156t110.5 156h98q68-120 242-312v-16h-70q-122 101-221 207-108-114-221-207h-70z" horiz-adv-x="1130" unicode="&#xca;"/><glyph d="M207 0v1462h799v-94h-697v-553h658v-94h-658v-627h697v-94h-799zM354 1727q0 46 15.5 66t47.5 20q64 0 64-86t-64-86q-63 0-63 86zM735 1727q0 46 15.5 66t47.5 20q64 0 64-86t-64-86q-63 0-63 86z" horiz-adv-x="1130" unicode="&#xcb;"/><glyph d="M207 0v1462h102v-1462h-102zM-63 1890v17h142q26-48 98.5-142t142.5-170v-16h-69q-96 79-188.5 171.5t-125.5 139.5z" horiz-adv-x="516" unicode="&#xcc;"/><glyph d="M207 0v1462h102v-1462h-102zM191 1579v16q73 79 144.5 171.5t97.5 140.5h141v-17q-36-52-122.5-138t-190.5-173h-70z" horiz-adv-x="516" unicode="&#xcd;"/><glyph d="M207 0v1462h102v-1462h-102zM-32 1579v16q62 67 131.5 156t110.5 156h98q68-120 242-312v-16h-70q-122 101-221 207-108-114-221-207h-70z" horiz-adv-x="516" unicode="&#xce;"/><glyph d="M207 0v1462h102v-1462h-102zM5 1727q0 46 15.5 66t47.5 20q64 0 64-86t-64-86q-63 0-63 86zM386 1727q0 46 15.5 66t47.5 20q64 0 64-86t-64-86q-63 0-63 86z" horiz-adv-x="516" unicode="&#xcf;"/><glyph d="M47 678v94h160v690h395q350 0 532.5-183t182.5-534q0-368-193-556.5t-567-188.5h-350v678h-160zM309 90h242q655 0 655 651 0 314-159.5 472.5t-468.5 158.5h-269v-600h406v-94h-406v-588z" horiz-adv-x="1466" unicode="&#xd0;"/><glyph d="M207 0v1462h102l865-1296h6q-9 180-9 342v954h99v-1462h-103l-866 1298h-8q12-232 12-350v-948h-98zM400 1581q10 111 63 174.5t137 63.5q48 0 88-25t82-59q34-28 66-50t61-22q46 0 77 36.5t48 119.5h76q-16-116-69-177t-132-61q-36 0-75 18.5t-101 71.5q-32 26-62.5 46t-62.5 20q-45 0-75-34.5t-48-121.5h-73z" horiz-adv-x="1477" unicode="&#xd1;"/><glyph d="M129 735q0 349 175.5 549.5t479.5 200.5q306 0 479-201.5t173-550.5q0-348-174-550.5t-480-202.5q-305 0-479 202.5t-174 552.5zM240 733q0-314 140-485.5t402-171.5q264 0 403.5 170t139.5 487q0 316-139.5 484.5t-401.5 168.5q-261 0-402.5-170t-141.5-483zM502 1890v17h142q26-48 98.5-142t142.5-170v-16h-69q-96 79-188.5 171.5t-125.5 139.5z" horiz-adv-x="1565" unicode="&#xd2;"/><glyph d="M129 735q0 349 175.5 549.5t479.5 200.5q306 0 479-201.5t173-550.5q0-348-174-550.5t-480-202.5q-305 0-479 202.5t-174 552.5zM240 733q0-314 140-485.5t402-171.5q264 0 403.5 170t139.5 487q0 316-139.5 484.5t-401.5 168.5q-261 0-402.5-170t-141.5-483zM686 1579v16q73 79 144.5 171.5t97.5 140.5h141v-17q-36-52-122.5-138t-190.5-173h-70z" horiz-adv-x="1565" unicode="&#xd3;"/><glyph d="M129 735q0 349 175.5 549.5t479.5 200.5q306 0 479-201.5t173-550.5q0-348-174-550.5t-480-202.5q-305 0-479 202.5t-174 552.5zM240 733q0-314 140-485.5t402-171.5q264 0 403.5 170t139.5 487q0 316-139.5 484.5t-401.5 168.5q-261 0-402.5-170t-141.5-483zM492 1579v16q62 67 131.5 156t110.5 156h98q68-120 242-312v-16h-70q-122 101-221 207-108-114-221-207h-70z" horiz-adv-x="1565" unicode="&#xd4;"/><glyph d="M129 735q0 349 175.5 549.5t479.5 200.5q306 0 479-201.5t173-550.5q0-348-174-550.5t-480-202.5q-305 0-479 202.5t-174 552.5zM240 733q0-314 140-485.5t402-171.5q264 0 403.5 170t139.5 487q0 316-139.5 484.5t-401.5 168.5q-261 0-402.5-170t-141.5-483zM443 1581q10 111 63 174.5t137 63.5q48 0 88-25t82-59q34-28 66-50t61-22q46 0 77 36.5t48 119.5h76q-16-116-69-177t-132-61q-36 0-75 18.5t-101 71.5q-32 26-62.5 46t-62.5 20q-45 0-75-34.5t-48-121.5h-73z" horiz-adv-x="1565" unicode="&#xd5;"/><glyph d="M129 735q0 349 175.5 549.5t479.5 200.5q306 0 479-201.5t173-550.5q0-348-174-550.5t-480-202.5q-305 0-479 202.5t-174 552.5zM240 733q0-314 140-485.5t402-171.5q264 0 403.5 170t139.5 487q0 316-139.5 484.5t-401.5 168.5q-261 0-402.5-170t-141.5-483zM529 1727q0 46 15.5 66t47.5 20q64 0 64-86t-64-86q-63 0-63 86zM910 1727q0 46 15.5 66t47.5 20q64 0 64-86t-64-86q-63 0-63 86z" horiz-adv-x="1565" unicode="&#xd6;"/><glyph d="M119 1130l57 58 408-408 409 408 58-58-408-407 406-408-58-57-407 408-406-408-57 57 405 408z" unicode="&#xd7;"/><glyph d="M129 735q0 349 175.5 549.5t479.5 200.5q232 0 392-121l108 152 72-60-111-153q191-207 191-570 0-348-174-550.5t-480-202.5q-236 0-395 120l-86-120-74 59 90 127q-188 200-188 569zM240 733q0-312 139-483l739 1034q-133 102-334 102-261 0-402.5-170t-141.5-483zM444 182q133-106 338-106 264 0 403.5 170t139.5 487q0 315-139 486z" horiz-adv-x="1565" unicode="&#xd8;"/><glyph d="M190 520v942h103v-946q0-211 117-328.5t331-117.5q209 0 324 115.5t115 320.5v956h102v-946q0-252-146-394t-407-142q-254 0-396.5 142.5t-142.5 397.5zM450 1890v17h142q26-48 98.5-142t142.5-170v-16h-69q-96 79-188.5 171.5t-125.5 139.5z" horiz-adv-x="1473" unicode="&#xd9;"/><glyph d="M190 520v942h103v-946q0-211 117-328.5t331-117.5q209 0 324 115.5t115 320.5v956h102v-946q0-252-146-394t-407-142q-254 0-396.5 142.5t-142.5 397.5zM633 1579v16q73 79 144.5 171.5t97.5 140.5h141v-17q-36-52-122.5-138t-190.5-173h-70z" horiz-adv-x="1473" unicode="&#xda;"/><glyph d="M190 520v942h103v-946q0-211 117-328.5t331-117.5q209 0 324 115.5t115 320.5v956h102v-946q0-252-146-394t-407-142q-254 0-396.5 142.5t-142.5 397.5zM444 1579v16q62 67 131.5 156t110.5 156h98q68-120 242-312v-16h-70q-122 101-221 207-108-114-221-207h-70z" horiz-adv-x="1473" unicode="&#xdb;"/><glyph d="M190 520v942h103v-946q0-211 117-328.5t331-117.5q209 0 324 115.5t115 320.5v956h102v-946q0-252-146-394t-407-142q-254 0-396.5 142.5t-142.5 397.5zM481 1727q0 46 15.5 66t47.5 20q64 0 64-86t-64-86q-63 0-63 86zM862 1727q0 46 15.5 66t47.5 20q64 0 64-86t-64-86q-63 0-63 86z" horiz-adv-x="1473" unicode="&#xdc;"/><glyph d="M0 1462h117l426-800 428 800h110l-487-897v-565h-105v557zM434 1579v16q73 79 144.5 171.5t97.5 140.5h141v-17q-36-52-122.5-138t-190.5-173h-70z" horiz-adv-x="1081" unicode="&#xdd;"/><glyph d="M207 0v1462h102v-264h256q522 0 522-420 0-212-144-325t-408-113h-226v-340h-102zM309 428h201q247 0 357 81.5t110 264.5q0 169-104 250.5t-322 81.5h-242v-678z" horiz-adv-x="1198" unicode="&#xde;"/><glyph d="M182 0v1206q0 173 103.5 267t292.5 94q188 0 285.5-72.5t97.5-210.5q0-139-139-250-81-64-110.5-100.5t-29.5-75.5q0-44 14.5-68t51.5-57 102-78q106-75 151.5-124.5t68-103 22.5-120.5q0-156-88-241.5t-246-85.5q-95 0-174.5 18.5t-126.5 48.5v107q65-38 148.5-62t152.5-24q114 0 174.5 54.5t60.5 160.5q0 83-39 144t-149 136q-127 87-175 147t-48 146q0 60 32.5 110t106.5 108q74 57 106.5 105.5t32.5 106.5q0 93-70 143t-202 50q-145 0-226-69t-81-196v-1214h-99z" horiz-adv-x="1194" unicode="&#xdf;"/><glyph d="M98 289q0 159 132.5 247t383.5 93l207 6v72q0 155-63 234t-203 79q-151 0-313-84l-37 86q179 84 354 84 179 0 267.5-93t88.5-290v-723h-73l-25 172h-8q-82-105-168.5-148.5t-204.5-43.5q-160 0-249 82t-89 227zM203 285q0-102 62.5-158.5t176.5-56.5q174 0 274.5 99.5t100.5 276.5v107l-190-8q-229-11-326.5-71.5t-97.5-188.5zM255 1552v17h142q26-48 98.5-142t142.5-170v-16h-69q-96 79-188.5 171.5t-125.5 139.5z" horiz-adv-x="1085" unicode="&#xe0;"/><glyph d="M98 289q0 159 132.5 247t383.5 93l207 6v72q0 155-63 234t-203 79q-151 0-313-84l-37 86q179 84 354 84 179 0 267.5-93t88.5-290v-723h-73l-25 172h-8q-82-105-168.5-148.5t-204.5-43.5q-160 0-249 82t-89 227zM203 285q0-102 62.5-158.5t176.5-56.5q174 0 274.5 99.5t100.5 276.5v107l-190-8q-229-11-326.5-71.5t-97.5-188.5zM422 1241v16q73 79 144.5 171.5t97.5 140.5h141v-17q-36-52-122.5-138t-190.5-173h-70z" horiz-adv-x="1085" unicode="&#xe1;"/><glyph d="M98 289q0 159 132.5 247t383.5 93l207 6v72q0 155-63 234t-203 79q-151 0-313-84l-37 86q179 84 354 84 179 0 267.5-93t88.5-290v-723h-73l-25 172h-8q-82-105-168.5-148.5t-204.5-43.5q-160 0-249 82t-89 227zM203 285q0-102 62.5-158.5t176.5-56.5q174 0 274.5 99.5t100.5 276.5v107l-190-8q-229-11-326.5-71.5t-97.5-188.5zM251 1241v16q62 67 131.5 156t110.5 156h98q68-120 242-312v-16h-70q-122 101-221 207-108-114-221-207h-70z" horiz-adv-x="1085" unicode="&#xe2;"/><glyph d="M98 289q0 159 132.5 247t383.5 93l207 6v72q0 155-63 234t-203 79q-151 0-313-84l-37 86q179 84 354 84 179 0 267.5-93t88.5-290v-723h-73l-25 172h-8q-82-105-168.5-148.5t-204.5-43.5q-160 0-249 82t-89 227zM203 285q0-102 62.5-158.5t176.5-56.5q174 0 274.5 99.5t100.5 276.5v107l-190-8q-229-11-326.5-71.5t-97.5-188.5zM200 1243q10 111 63 174.5t137 63.5q48 0 88-25t82-59q34-28 66-50t61-22q46 0 77 36.5t48 119.5h76q-16-116-69-177t-132-61q-36 0-75 18.5t-101 71.5q-32 26-62.5 46t-62.5 20q-45 0-75-34.5t-48-121.5h-73z" horiz-adv-x="1085" unicode="&#xe3;"/><glyph d="M98 289q0 159 132.5 247t383.5 93l207 6v72q0 155-63 234t-203 79q-151 0-313-84l-37 86q179 84 354 84 179 0 267.5-93t88.5-290v-723h-73l-25 172h-8q-82-105-168.5-148.5t-204.5-43.5q-160 0-249 82t-89 227zM203 285q0-102 62.5-158.5t176.5-56.5q174 0 274.5 99.5t100.5 276.5v107l-190-8q-229-11-326.5-71.5t-97.5-188.5zM282 1389q0 46 15.5 66t47.5 20q64 0 64-86t-64-86q-63 0-63 86zM663 1389q0 46 15.5 66t47.5 20q64 0 64-86t-64-86q-63 0-63 86z" horiz-adv-x="1085" unicode="&#xe4;"/><glyph d="M98 289q0 159 132.5 247t383.5 93l207 6v72q0 155-63 234t-203 79q-151 0-313-84l-37 86q179 84 354 84 179 0 267.5-93t88.5-290v-723h-73l-25 172h-8q-82-105-168.5-148.5t-204.5-43.5q-160 0-249 82t-89 227zM203 285q0-102 62.5-158.5t176.5-56.5q174 0 274.5 99.5t100.5 276.5v107l-190-8q-229-11-326.5-71.5t-97.5-188.5zM325 1456q0 94 60 152.5t157 58.5 157-59 60-152q0-97-60-155t-157-58-157 58-60 155zM405 1456q0-66 37.5-103.5t99.5-37.5 99.5 37.5 37.5 103.5q0 64-39 101.5t-98 37.5q-62 0-99.5-38t-37.5-101z" horiz-adv-x="1085" unicode="&#xe5;"/><glyph d="M98 289q0 154 125 243t377 97l201 6v72q0 155-61.5 234t-198.5 79q-148 0-305-84l-37 86q173 84 346 84 261 0 325-211 111 213 347 213 184 0 289.5-134.5t105.5-363.5v-80h-715q0-460 348-460 85 0 150 12t174 57v-90q-92-41-165-55t-161-14q-295 0-397 256-68-133-168-194.5t-252-61.5q-156 0-242 82.5t-86 226.5zM203 285q0-102 61-158.5t170-56.5q169 0 266 99.5t97 276.5v107l-187-8q-219-11-313-71.5t-94-188.5zM903 618h604q0 188-77.5 295t-212.5 107q-284 0-314-402z" horiz-adv-x="1731" unicode="&#xe6;"/><glyph d="M119 537q0 270 137 420.5t375 150.5q141 0 270-49l-27-88q-141 47-245 47-200 0-303-123.5t-103-355.5q0-220 103-344.5t288-124.5q148 0 275 53v-92q-104-51-273-51-233 0-365 147t-132 410zM373-393q30-10 92-10 78 0 119 28t41 80q0 94-193 121l93 174h96l-66-117q168-37 168-174 0-100-67.5-150.5t-188.5-50.5q-68 0-94 11v88z" horiz-adv-x="973" unicode="&#xe7;"/><glyph d="M119 535q0 260 128 416.5t345 156.5q192 0 303-134t111-364v-80h-783q2-224 104.5-342t293.5-118q93 0 163.5 13t178.5 56v-90q-92-40-170-54.5t-172-14.5q-237 0-369.5 146t-132.5 409zM229 618h672q0 189-82 295.5t-227 106.5q-157 0-252-103.5t-111-298.5zM302 1552v17h142q26-48 98.5-142t142.5-170v-16h-69q-96 79-188.5 171.5t-125.5 139.5z" horiz-adv-x="1124" unicode="&#xe8;"/><glyph d="M119 535q0 260 128 416.5t345 156.5q192 0 303-134t111-364v-80h-783q2-224 104.5-342t293.5-118q93 0 163.5 13t178.5 56v-90q-92-40-170-54.5t-172-14.5q-237 0-369.5 146t-132.5 409zM229 618h672q0 189-82 295.5t-227 106.5q-157 0-252-103.5t-111-298.5zM452 1241v16q73 79 144.5 171.5t97.5 140.5h141v-17q-36-52-122.5-138t-190.5-173h-70z" horiz-adv-x="1124" unicode="&#xe9;"/><glyph d="M119 535q0 260 128 416.5t345 156.5q192 0 303-134t111-364v-80h-783q2-224 104.5-342t293.5-118q93 0 163.5 13t178.5 56v-90q-92-40-170-54.5t-172-14.5q-237 0-369.5 146t-132.5 409zM229 618h672q0 189-82 295.5t-227 106.5q-157 0-252-103.5t-111-298.5zM290 1241v16q62 67 131.5 156t110.5 156h98q68-120 242-312v-16h-70q-122 101-221 207-108-114-221-207h-70z" horiz-adv-x="1124" unicode="&#xea;"/><glyph d="M119 535q0 260 128 416.5t345 156.5q192 0 303-134t111-364v-80h-783q2-224 104.5-342t293.5-118q93 0 163.5 13t178.5 56v-90q-92-40-170-54.5t-172-14.5q-237 0-369.5 146t-132.5 409zM229 618h672q0 189-82 295.5t-227 106.5q-157 0-252-103.5t-111-298.5zM331 1389q0 46 15.5 66t47.5 20q64 0 64-86t-64-86q-63 0-63 86zM712 1389q0 46 15.5 66t47.5 20q64 0 64-86t-64-86q-63 0-63 86z" horiz-adv-x="1124" unicode="&#xeb;"/><glyph d="M182 0v1087h99v-1087h-99zM-34 1552v17h142q26-48 98.5-142t142.5-170v-16h-69q-96 79-188.5 171.5t-125.5 139.5z" horiz-adv-x="463" unicode="&#xec;"/><glyph d="M182 0v1087h99v-1087h-99zM107 1241v16q73 79 144.5 171.5t97.5 140.5h141v-17q-36-52-122.5-138t-190.5-173h-70z" horiz-adv-x="463" unicode="&#xed;"/><glyph d="M182 0v1087h99v-1087h-99zM-58 1241v16q62 67 131.5 156t110.5 156h98q68-120 242-312v-16h-70q-122 101-221 207-108-114-221-207h-70z" horiz-adv-x="463" unicode="&#xee;"/><glyph d="M182 0v1087h99v-1087h-99zM-21 1389q0 46 15.5 66t47.5 20q64 0 64-86t-64-86q-63 0-63 86zM360 1389q0 46 15.5 66t47.5 20q64 0 64-86t-64-86q-63 0-63 86z" horiz-adv-x="463" unicode="&#xef;"/><glyph d="M117 471q0 228 126.5 357.5t342.5 129.5q108 0 187.5-33t148.5-96l4 2q-64 270-269 459l-270-157-49 77 244 146q-86 62-199 119l45 81q147-69 248-145l225 137 49-84-202-121q154-151 230.5-353t76.5-431q0-276-124-427.5t-349-151.5q-214 0-339.5 130t-125.5 361zM221 463q0-186 94.5-289.5t268.5-103.5q179 0 272.5 123t93.5 364q0 146-97 228.5t-267 82.5q-185 0-275-100.5t-90-304.5z" horiz-adv-x="1174" unicode="&#xf0;"/><glyph d="M182 0v1087h84l19-149h6q106 170 377 170 370 0 370-397v-711h-98v705q0 164-69 238.5t-214 74.5q-195 0-285.5-98.5t-90.5-319.5v-600h-99zM282 1243q10 111 63 174.5t137 63.5q48 0 88-25t82-59q34-28 66-50t61-22q46 0 77 36.5t48 119.5h76q-16-116-69-177t-132-61q-36 0-75 18.5t-101 71.5q-32 26-62.5 46t-62.5 20q-45 0-75-34.5t-48-121.5h-73z" horiz-adv-x="1208" unicode="&#xf1;"/><glyph d="M119 545q0 266 129 414.5t354 148.5q224 0 351.5-150.5t127.5-412.5q0-266-129-415.5t-356-149.5q-143 0-252 69t-167 198-58 298zM223 545q0-224 98.5-349.5t278.5-125.5 278.5 125.5 98.5 349.5q0 225-99.5 349t-279.5 124-277.5-123.5-97.5-349.5zM335 1552v17h142q26-48 98.5-142t142.5-170v-16h-69q-96 79-188.5 171.5t-125.5 139.5z" horiz-adv-x="1200" unicode="&#xf2;"/><glyph d="M119 545q0 266 129 414.5t354 148.5q224 0 351.5-150.5t127.5-412.5q0-266-129-415.5t-356-149.5q-143 0-252 69t-167 198-58 298zM223 545q0-224 98.5-349.5t278.5-125.5 278.5 125.5 98.5 349.5q0 225-99.5 349t-279.5 124-277.5-123.5-97.5-349.5zM499 1241v16q73 79 144.5 171.5t97.5 140.5h141v-17q-36-52-122.5-138t-190.5-173h-70z" horiz-adv-x="1200" unicode="&#xf3;"/><glyph d="M119 545q0 266 129 414.5t354 148.5q224 0 351.5-150.5t127.5-412.5q0-266-129-415.5t-356-149.5q-143 0-252 69t-167 198-58 298zM223 545q0-224 98.5-349.5t278.5-125.5 278.5 125.5 98.5 349.5q0 225-99.5 349t-279.5 124-277.5-123.5-97.5-349.5zM309 1241v16q62 67 131.5 156t110.5 156h98q68-120 242-312v-16h-70q-122 101-221 207-108-114-221-207h-70z" horiz-adv-x="1200" unicode="&#xf4;"/><glyph d="M119 545q0 266 129 414.5t354 148.5q224 0 351.5-150.5t127.5-412.5q0-266-129-415.5t-356-149.5q-143 0-252 69t-167 198-58 298zM223 545q0-224 98.5-349.5t278.5-125.5 278.5 125.5 98.5 349.5q0 225-99.5 349t-279.5 124-277.5-123.5-97.5-349.5zM264 1243q10 111 63 174.5t137 63.5q48 0 88-25t82-59q34-28 66-50t61-22q46 0 77 36.5t48 119.5h76q-16-116-69-177t-132-61q-36 0-75 18.5t-101 71.5q-32 26-62.5 46t-62.5 20q-45 0-75-34.5t-48-121.5h-73z" horiz-adv-x="1200" unicode="&#xf5;"/><glyph d="M119 545q0 266 129 414.5t354 148.5q224 0 351.5-150.5t127.5-412.5q0-266-129-415.5t-356-149.5q-143 0-252 69t-167 198-58 298zM223 545q0-224 98.5-349.5t278.5-125.5 278.5 125.5 98.5 349.5q0 225-99.5 349t-279.5 124-277.5-123.5-97.5-349.5zM346 1389q0 46 15.5 66t47.5 20q64 0 64-86t-64-86q-63 0-63 86zM727 1389q0 46 15.5 66t47.5 20q64 0 64-86t-64-86q-63 0-63 86z" horiz-adv-x="1200" unicode="&#xf6;"/><glyph d="M111 682v82h948v-82h-948zM504 371q0 98 80 98 82 0 82-98 0-53-23.5-76t-58.5-23q-34 0-57 23t-23 76zM504 1075q0 99 80 99 82 0 82-99 0-52-23.5-75t-58.5-23q-34 0-57 23t-23 75z" unicode="&#xf7;"/><glyph d="M119 545q0 266 129 414.5t354 148.5q179 0 301-104l96 124 74-55-104-137q112-147 112-391 0-266-129-415.5t-356-149.5q-173 0-291 98l-86-113-72 58 93 120q-121 153-121 402zM223 545q0-200 78-322l543 705q-98 90-246 90-180 0-277.5-123.5t-97.5-349.5zM362 152q94-82 238-82 180 0 278.5 125.5t98.5 349.5q0 190-72 309z" horiz-adv-x="1200" unicode="&#xf8;"/><glyph d="M170 377v710h98v-704q0-164 69-238.5t214-74.5q194 0 285.5 98t91.5 319v600h98v-1087h-84l-18 150h-6q-106-170-377-170-371 0-371 397zM304 1552v17h142q26-48 98.5-142t142.5-170v-16h-69q-96 79-188.5 171.5t-125.5 139.5z" horiz-adv-x="1208" unicode="&#xf9;"/><glyph d="M170 377v710h98v-704q0-164 69-238.5t214-74.5q194 0 285.5 98t91.5 319v600h98v-1087h-84l-18 150h-6q-106-170-377-170-371 0-371 397zM495 1241v16q73 79 144.5 171.5t97.5 140.5h141v-17q-36-52-122.5-138t-190.5-173h-70z" horiz-adv-x="1208" unicode="&#xfa;"/><glyph d="M170 377v710h98v-704q0-164 69-238.5t214-74.5q194 0 285.5 98t91.5 319v600h98v-1087h-84l-18 150h-6q-106-170-377-170-371 0-371 397zM313 1241v16q62 67 131.5 156t110.5 156h98q68-120 242-312v-16h-70q-122 101-221 207-108-114-221-207h-70z" horiz-adv-x="1208" unicode="&#xfb;"/><glyph d="M170 377v710h98v-704q0-164 69-238.5t214-74.5q194 0 285.5 98t91.5 319v600h98v-1087h-84l-18 150h-6q-106-170-377-170-371 0-371 397zM350 1389q0 46 15.5 66t47.5 20q64 0 64-86t-64-86q-63 0-63 86zM731 1389q0 46 15.5 66t47.5 20q64 0 64-86t-64-86q-63 0-63 86z" horiz-adv-x="1208" unicode="&#xfc;"/><glyph d="M0 1087h102l230-610q105-281 133-379h6q42 129 137 385l230 604h102l-487-1263q-59-154-99-208t-93.5-81-129.5-27q-57 0-127 21v86q58-16 125-16 51 0 90 24t70.5 74.5 73 160 53.5 142.5zM361 1241v16q73 79 144.5 171.5t97.5 140.5h141v-17q-36-52-122.5-138t-190.5-173h-70z" horiz-adv-x="940" unicode="&#xfd;"/><glyph d="M182-492v2048h99v-391l-7-247h7q114 190 368 190 220 0 335.5-144.5t115.5-420.5q0-268-121.5-415.5t-331.5-147.5q-251 0-366 188h-7l3-84q4-74 4-162v-414h-99zM281 541q0-255 85.5-364t278.5-109q167 0 258.5 124t91.5 347q0 479-348 479-193 0-279.5-105t-86.5-354v-18z" horiz-adv-x="1219" unicode="&#xfe;"/><glyph d="M0 1087h102l230-610q105-281 133-379h6q42 129 137 385l230 604h102l-487-1263q-59-154-99-208t-93.5-81-129.5-27q-57 0-127 21v86q58-16 125-16 51 0 90 24t70.5 74.5 73 160 53.5 142.5zM214 1389q0 46 15.5 66t47.5 20q64 0 64-86t-64-86q-63 0-63 86zM595 1389q0 46 15.5 66t47.5 20q64 0 64-86t-64-86q-63 0-63 86z" horiz-adv-x="940" unicode="&#xff;"/><glyph d="M0 0l588 1468h65l576-1468h-115l-203 516h-594l-204-516h-113zM354 608h523l-199 527q-25 62-60 172-27-96-59-174zM342 1589v82h555v-82h-555z" horiz-adv-x="1229" unicode="&#x100;"/><glyph d="M98 289q0 159 132.5 247t383.5 93l207 6v72q0 155-63 234t-203 79q-151 0-313-84l-37 86q179 84 354 84 179 0 267.5-93t88.5-290v-723h-73l-25 172h-8q-82-105-168.5-148.5t-204.5-43.5q-160 0-249 82t-89 227zM203 285q0-102 62.5-158.5t176.5-56.5q174 0 274.5 99.5t100.5 276.5v107l-190-8q-229-11-326.5-71.5t-97.5-188.5zM274 1251v82h555v-82h-555z" horiz-adv-x="1085" unicode="&#x101;"/><glyph d="M0 0l588 1468h65l576-1468h-115l-203 516h-594l-204-516h-113zM354 608h523l-199 527q-25 62-60 172-27-96-59-174zM342 1825h82q14-87 60.5-124.5t134.5-37.5 134.5 37.5 61.5 124.5h80q-30-246-278-246-253 0-275 246z" horiz-adv-x="1229" unicode="&#x102;"/><glyph d="M98 289q0 159 132.5 247t383.5 93l207 6v72q0 155-63 234t-203 79q-151 0-313-84l-37 86q179 84 354 84 179 0 267.5-93t88.5-290v-723h-73l-25 172h-8q-82-105-168.5-148.5t-204.5-43.5q-160 0-249 82t-89 227zM203 285q0-102 62.5-158.5t176.5-56.5q174 0 274.5 99.5t100.5 276.5v107l-190-8q-229-11-326.5-71.5t-97.5-188.5zM277 1487h82q14-87 60.5-124.5t134.5-37.5 134.5 37.5 61.5 124.5h80q-30-246-278-246-253 0-275 246z" horiz-adv-x="1085" unicode="&#x103;"/><glyph d="M0 0l588 1468h65l576-1468h-115l-203 516h-594l-204-516h-113zM354 608h523l-199 527q-25 62-60 172-27-96-59-174zM962-264q0 70 40 139t112 125h90q-72-63-107.5-119.5t-35.5-128.5q0-110 106-110 49 0 82 12v-84q-40-16-104-16-84 0-133.5 47.5t-49.5 134.5z" horiz-adv-x="1229" unicode="&#x104;"/><glyph d="M98 289q0 159 132.5 247t383.5 93l207 6v72q0 155-63 234t-203 79q-151 0-313-84l-37 86q179 84 354 84 179 0 267.5-93t88.5-290v-723q-72-63-107.5-119.5t-35.5-128.5q0-110 106-110 49 0 82 12v-84q-40-16-104-16-84 0-133.5 47.5t-49.5 134.5q0 70 40 139 38 67 127 138l-23 159h-8q-82-105-168.5-148.5t-204.5-43.5q-160 0-249 82t-89 227zM203 285q0-102 62.5-158.5t176.5-56.5q174 0 274.5 99.5t100.5 276.5v107l-190-8q-229-11-326.5-71.5t-97.5-188.5z" horiz-adv-x="1085" unicode="&#x105;"/><glyph d="M129 735q0 223 84.5 393t243 262.5 368.5 92.5q214 0 383-80l-41-92q-160 80-336 80-275 0-433-176t-158-482q0-313 149-486t426-173q184 0 338 47v-90q-145-51-362-51-308 0-485 199t-177 556zM657 1579v16q73 79 144.5 171.5t97.5 140.5h141v-17q-36-52-122.5-138t-190.5-173h-70z" horiz-adv-x="1272" unicode="&#x106;"/><glyph d="M119 537q0 270 137 420.5t375 150.5q141 0 270-49l-27-88q-141 47-245 47-200 0-303-123.5t-103-355.5q0-220 103-344.5t288-124.5q148 0 275 53v-92q-104-51-273-51-233 0-365 147t-132 410zM444 1241v16q73 79 144.5 171.5t97.5 140.5h141v-17q-36-52-122.5-138t-190.5-173h-70z" horiz-adv-x="973" unicode="&#x107;"/><glyph d="M129 735q0 223 84.5 393t243 262.5 368.5 92.5q214 0 383-80l-41-92q-160 80-336 80-275 0-433-176t-158-482q0-313 149-486t426-173q184 0 338 47v-90q-145-51-362-51-308 0-485 199t-177 556zM473 1579v16q62 67 131.5 156t110.5 156h98q68-120 242-312v-16h-70q-122 101-221 207-108-114-221-207h-70z" horiz-adv-x="1272" unicode="&#x108;"/><glyph d="M119 537q0 270 137 420.5t375 150.5q141 0 270-49l-27-88q-141 47-245 47-200 0-303-123.5t-103-355.5q0-220 103-344.5t288-124.5q148 0 275 53v-92q-104-51-273-51-233 0-365 147t-132 410zM290 1241v16q62 67 131.5 156t110.5 156h98q68-120 242-312v-16h-70q-122 101-221 207-108-114-221-207h-70z" horiz-adv-x="973" unicode="&#x109;"/><glyph d="M129 735q0 223 84.5 393t243 262.5 368.5 92.5q214 0 383-80l-41-92q-160 80-336 80-275 0-433-176t-158-482q0-313 149-486t426-173q184 0 338 47v-90q-145-51-362-51-308 0-485 199t-177 556zM717 1727q0 96 64 96 31 0 48-25t17-71q0-45-17-71t-48-26q-64 0-64 97z" horiz-adv-x="1272" unicode="&#x10a;"/><glyph d="M119 537q0 270 137 420.5t375 150.5q141 0 270-49l-27-88q-141 47-245 47-200 0-303-123.5t-103-355.5q0-220 103-344.5t288-124.5q148 0 275 53v-92q-104-51-273-51-233 0-365 147t-132 410zM522 1389q0 96 64 96 31 0 48-25t17-71q0-45-17-71t-48-26q-64 0-64 97z" horiz-adv-x="973" unicode="&#x10b;"/><glyph d="M129 735q0 223 84.5 393t243 262.5 368.5 92.5q214 0 383-80l-41-92q-160 80-336 80-275 0-433-176t-158-482q0-313 149-486t426-173q184 0 338 47v-90q-145-51-362-51-308 0-485 199t-177 556zM469 1890v17h70q114-94 221-207 108 114 221 207h70v-17q-170-188-242-311h-98q-76 128-242 311z" horiz-adv-x="1272" unicode="&#x10c;"/><glyph d="M119 537q0 270 137 420.5t375 150.5q141 0 270-49l-27-88q-141 47-245 47-200 0-303-123.5t-103-355.5q0-220 103-344.5t288-124.5q148 0 275 53v-92q-104-51-273-51-233 0-365 147t-132 410zM290 1552v17h70q114-94 221-207 108 114 221 207h70v-17q-170-188-242-311h-98q-76 128-242 311z" horiz-adv-x="973" unicode="&#x10d;"/><glyph d="M207 0v1462h395q350 0 532.5-183t182.5-534q0-368-193-556.5t-567-188.5h-350zM309 90h242q655 0 655 651 0 314-159.5 472.5t-468.5 158.5h-269v-1282zM379 1890v17h70q114-94 221-207 108 114 221 207h70v-17q-170-188-242-311h-98q-76 128-242 311z" horiz-adv-x="1446" unicode="&#x10e;"/><glyph d="M119 528q0 282 118 431t343 149q118 0 204-43t154-147h6q-6 126-6 247v391h98v-1556h-65l-25 166h-8q-124-186-356-186-225 0-344 140t-119 408zM223 530q0-462 359-462 184 0 270 107t86 353v17q0 252-84.5 362.5t-273.5 110.5q-178 0-267.5-125t-89.5-363zM1141 1229v16q21 45 48 139.5t38 171.5h112v-14q-15-60-53.5-147t-91.5-166h-53z" horiz-adv-x="1219" unicode="&#x10f;"/><glyph d="M47 678v94h160v690h395q350 0 532.5-183t182.5-534q0-368-193-556.5t-567-188.5h-350v678h-160zM309 90h242q655 0 655 651 0 314-159.5 472.5t-468.5 158.5h-269v-600h406v-94h-406v-588z" horiz-adv-x="1466" unicode="&#x110;"/><glyph d="M119 528q0 282 118 431t343 149q118 0 204-43t154-147h6q-6 126-6 247v107h-473v82h473v202h98v-202h156v-82h-156v-1272h-65l-25 166h-8q-124-186-356-186-225 0-344 140t-119 408zM223 530q0-462 359-462 184 0 270 107t86 353v17q0 252-84.5 362.5t-273.5 110.5q-178 0-267.5-125t-89.5-363z" horiz-adv-x="1219" unicode="&#x111;"/><glyph d="M207 0v1462h799v-94h-697v-553h658v-94h-658v-627h697v-94h-799zM322 1589v82h555v-82h-555z" horiz-adv-x="1130" unicode="&#x112;"/><glyph d="M119 535q0 260 128 416.5t345 156.5q192 0 303-134t111-364v-80h-783q2-224 104.5-342t293.5-118q93 0 163.5 13t178.5 56v-90q-92-40-170-54.5t-172-14.5q-237 0-369.5 146t-132.5 409zM229 618h672q0 189-82 295.5t-227 106.5q-157 0-252-103.5t-111-298.5zM309 1251v82h555v-82h-555z" horiz-adv-x="1124" unicode="&#x113;"/><glyph d="M207 0v1462h799v-94h-697v-553h658v-94h-658v-627h697v-94h-799zM321 1825h82q14-87 60.5-124.5t134.5-37.5 134.5 37.5 61.5 124.5h80q-30-246-278-246-253 0-275 246z" horiz-adv-x="1130" unicode="&#x114;"/><glyph d="M119 535q0 260 128 416.5t345 156.5q192 0 303-134t111-364v-80h-783q2-224 104.5-342t293.5-118q93 0 163.5 13t178.5 56v-90q-92-40-170-54.5t-172-14.5q-237 0-369.5 146t-132.5 409zM229 618h672q0 189-82 295.5t-227 106.5q-157 0-252-103.5t-111-298.5zM306 1487h82q14-87 60.5-124.5t134.5-37.5 134.5 37.5 61.5 124.5h80q-30-246-278-246-253 0-275 246z" horiz-adv-x="1124" unicode="&#x115;"/><glyph d="M207 0v1462h799v-94h-697v-553h658v-94h-658v-627h697v-94h-799zM543 1698q0 96 64 96 31 0 48-25t17-71q0-45-17-71t-48-26q-64 0-64 97z" horiz-adv-x="1130" unicode="&#x116;"/><glyph d="M119 535q0 260 128 416.5t345 156.5q192 0 303-134t111-364v-80h-783q2-224 104.5-342t293.5-118q93 0 163.5 13t178.5 56v-90q-92-40-170-54.5t-172-14.5q-237 0-369.5 146t-132.5 409zM229 618h672q0 189-82 295.5t-227 106.5q-157 0-252-103.5t-111-298.5zM512 1389q0 96 64 96 31 0 48-25t17-71q0-45-17-71t-48-26q-64 0-64 97z" horiz-adv-x="1124" unicode="&#x117;"/><glyph d="M207 0v1462h799v-94h-697v-553h658v-94h-658v-627h697v-94h-799zM655-264q0 70 40 139t112 125h90q-72-63-107.5-119.5t-35.5-128.5q0-110 106-110 49 0 82 12v-84q-40-16-104-16-84 0-133.5 47.5t-49.5 134.5z" horiz-adv-x="1130" unicode="&#x118;"/><glyph d="M119 535q0 260 128 416.5t345 156.5q192 0 303-134t111-364v-80h-783q2-224 104.5-342t293.5-118q93 0 163.5 13t178.5 56v-90q-92-40-170-54.5t-172-14.5q-237 0-369.5 146t-132.5 409zM229 618h672q0 189-82 295.5t-227 106.5q-157 0-252-103.5t-111-298.5zM653-227q0 70 40 139t112 125h90q-72-63-107.5-119.5t-35.5-128.5q0-110 106-110 49 0 82 12v-84q-40-16-104-16-84 0-133.5 47.5t-49.5 134.5z" horiz-adv-x="1124" unicode="&#x119;"/><glyph d="M207 0v1462h799v-94h-697v-553h658v-94h-658v-627h697v-94h-799zM307 1890v17h70q114-94 221-207 108 114 221 207h70v-17q-170-188-242-311h-98q-76 128-242 311z" horiz-adv-x="1130" unicode="&#x11a;"/><glyph d="M119 535q0 260 128 416.5t345 156.5q192 0 303-134t111-364v-80h-783q2-224 104.5-342t293.5-118q93 0 163.5 13t178.5 56v-90q-92-40-170-54.5t-172-14.5q-237 0-369.5 146t-132.5 409zM229 618h672q0 189-82 295.5t-227 106.5q-157 0-252-103.5t-111-298.5zM284 1552v17h70q114-94 221-207 108 114 221 207h70v-17q-170-188-242-311h-98q-76 128-242 311z" horiz-adv-x="1124" unicode="&#x11b;"/><glyph d="M129 729q0 223 91.5 395.5t262 266.5 391.5 94q239 0 429-88l-41-92q-190 88-394 88-289 0-458.5-178.5t-169.5-481.5q0-330 161-496.5t473-166.5q202 0 343 57v514h-435v96h539v-667q-212-90-477-90-346 0-530.5 195.5t-184.5 553.5zM512 1579v16q62 67 131.5 156t110.5 156h98q68-120 242-312v-16h-70q-122 101-221 207-108-114-221-207h-70z" horiz-adv-x="1481" unicode="&#x11c;"/><glyph d="M45-193q0 112 69.5 186t188.5 101q-49 21-78.5 59.5t-29.5 88.5q0 109 139 192-95 39-148 122.5t-53 191.5q0 163 103.5 261.5t279.5 98.5q107 0 166-21h348v-69l-225-14q90-112 90-246 0-157-104.5-254.5t-280.5-97.5q-74 0-104 6-59-31-90-73t-31-89q0-52 39.5-76t132.5-24h190q177 0 271-71.5t94-211.5q0-172-139.5-265.5t-397.5-93.5q-205 0-317.5 79t-112.5 220zM150-184q0-224 333-224 428 0 428 273 0 98-67 142t-217 44h-178q-299 0-299-235zM233 748q0-126 76.5-195.5t204.5-69.5q136 0 208.5 69t72.5 200q0 139-74.5 208.5t-208.5 69.5q-130 0-204.5-74.5t-74.5-207.5zM230 1241v16q62 67 131.5 156t110.5 156h98q68-120 242-312v-16h-70q-122 101-221 207-108-114-221-207h-70z" horiz-adv-x="1071" unicode="&#x11d;"/><glyph d="M129 729q0 223 91.5 395.5t262 266.5 391.5 94q239 0 429-88l-41-92q-190 88-394 88-289 0-458.5-178.5t-169.5-481.5q0-330 161-496.5t473-166.5q202 0 343 57v514h-435v96h539v-667q-212-90-477-90-346 0-530.5 195.5t-184.5 553.5zM524 1825h82q14-87 60.5-124.5t134.5-37.5 134.5 37.5 61.5 124.5h80q-30-246-278-246-253 0-275 246z" horiz-adv-x="1481" unicode="&#x11e;"/><glyph d="M45-193q0 112 69.5 186t188.5 101q-49 21-78.5 59.5t-29.5 88.5q0 109 139 192-95 39-148 122.5t-53 191.5q0 163 103.5 261.5t279.5 98.5q107 0 166-21h348v-69l-225-14q90-112 90-246 0-157-104.5-254.5t-280.5-97.5q-74 0-104 6-59-31-90-73t-31-89q0-52 39.5-76t132.5-24h190q177 0 271-71.5t94-211.5q0-172-139.5-265.5t-397.5-93.5q-205 0-317.5 79t-112.5 220zM150-184q0-224 333-224 428 0 428 273 0 98-67 142t-217 44h-178q-299 0-299-235zM233 748q0-126 76.5-195.5t204.5-69.5q136 0 208.5 69t72.5 200q0 139-74.5 208.5t-208.5 69.5q-130 0-204.5-74.5t-74.5-207.5zM238 1487h82q14-87 60.5-124.5t134.5-37.5 134.5 37.5 61.5 124.5h80q-30-246-278-246-253 0-275 246z" horiz-adv-x="1071" unicode="&#x11f;"/><glyph d="M129 729q0 223 91.5 395.5t262 266.5 391.5 94q239 0 429-88l-41-92q-190 88-394 88-289 0-458.5-178.5t-169.5-481.5q0-330 161-496.5t473-166.5q202 0 343 57v514h-435v96h539v-667q-212-90-477-90-346 0-530.5 195.5t-184.5 553.5zM753 1727q0 96 64 96 31 0 48-25t17-71q0-45-17-71t-48-26q-64 0-64 97z" horiz-adv-x="1481" unicode="&#x120;"/><glyph d="M45-193q0 112 69.5 186t188.5 101q-49 21-78.5 59.5t-29.5 88.5q0 109 139 192-95 39-148 122.5t-53 191.5q0 163 103.5 261.5t279.5 98.5q107 0 166-21h348v-69l-225-14q90-112 90-246 0-157-104.5-254.5t-280.5-97.5q-74 0-104 6-59-31-90-73t-31-89q0-52 39.5-76t132.5-24h190q177 0 271-71.5t94-211.5q0-172-139.5-265.5t-397.5-93.5q-205 0-317.5 79t-112.5 220zM150-184q0-224 333-224 428 0 428 273 0 98-67 142t-217 44h-178q-299 0-299-235zM233 748q0-126 76.5-195.5t204.5-69.5q136 0 208.5 69t72.5 200q0 139-74.5 208.5t-208.5 69.5q-130 0-204.5-74.5t-74.5-207.5zM463 1389q0 96 64 96 31 0 48-25t17-71q0-45-17-71t-48-26q-64 0-64 97z" horiz-adv-x="1071" unicode="&#x121;"/><glyph d="M129 729q0 223 91.5 395.5t262 266.5 391.5 94q239 0 429-88l-41-92q-190 88-394 88-289 0-458.5-178.5t-169.5-481.5q0-330 161-496.5t473-166.5q202 0 343 57v514h-435v96h539v-667q-212-90-477-90-346 0-530.5 195.5t-184.5 553.5zM682-436q25 54 50 145t36 166h113v-14q-23-82-63.5-167.5t-81.5-146.5h-54v17z" horiz-adv-x="1481" unicode="&#x122;"/><glyph d="M45-193q0 112 69.5 186t188.5 101q-49 21-78.5 59.5t-29.5 88.5q0 109 139 192-95 39-148 122.5t-53 191.5q0 163 103.5 261.5t279.5 98.5q107 0 166-21h348v-69l-225-14q90-112 90-246 0-157-104.5-254.5t-280.5-97.5q-74 0-104 6-59-31-90-73t-31-89q0-52 39.5-76t132.5-24h190q177 0 271-71.5t94-211.5q0-172-139.5-265.5t-397.5-93.5q-205 0-317.5 79t-112.5 220zM150-184q0-224 333-224 428 0 428 273 0 98-67 142t-217 44h-178q-299 0-299-235zM233 748q0-126 76.5-195.5t204.5-69.5q136 0 208.5 69t72.5 200q0 139-74.5 208.5t-208.5 69.5q-130 0-204.5-74.5t-74.5-207.5zM471 1241v14q20 77 61.5 165t83.5 149h53v-17q-27-58-53.5-159t-32.5-152h-112z" horiz-adv-x="1071" unicode="&#x123;"/><glyph d="M207 0v1462h102v-649h854v649h103v-1462h-103v719h-854v-719h-102zM444 1579v16q62 67 131.5 156t110.5 156h98q68-120 242-312v-16h-70q-122 101-221 207-108-114-221-207h-70z" horiz-adv-x="1473" unicode="&#x124;"/><glyph d="M182 0v1556h99v-495l-5-139h7q61 98 154 142t231 44q370 0 370-397v-711h-98v705q0 164-69 238.5t-214 74.5q-195 0-285.5-98.5t-90.5-319.5v-600h-99zM313 1634v16q62 67 131.5 156t110.5 156h98q68-120 242-312v-16h-70q-122 101-221 207-108-114-221-207h-70z" horiz-adv-x="1208" unicode="&#x125;"/><glyph d="M0 1098v94h207v270h102v-270h854v270h103v-270h207v-94h-207v-1098h-103v719h-854v-719h-102v1098h-207zM309 813h854v285h-854v-285z" horiz-adv-x="1473" unicode="&#x126;"/><glyph d="M27 1272v82h155v202h99v-202h473v-82h-473v-242l-5-139h7q61 98 154 142t231 44q370 0 370-397v-680h-98v674q0 164-69 238.5t-214 74.5q-197 0-286.5-98t-89.5-320v-569h-99v1272h-155z" horiz-adv-x="1208" unicode="&#x127;"/><glyph d="M207 0v1462h102v-1462h-102zM-78 1581q10 111 63 174.5t137 63.5q48 0 88-25t82-59q34-28 66-50t61-22q46 0 77 36.5t48 119.5h76q-16-116-69-177t-132-61q-36 0-75 18.5t-101 71.5q-32 26-62.5 46t-62.5 20q-45 0-75-34.5t-48-121.5h-73z" horiz-adv-x="516" unicode="&#x128;"/><glyph d="M182 0v1087h99v-1087h-99zM-107 1243q10 111 63 174.5t137 63.5q48 0 88-25t82-59q34-28 66-50t61-22q46 0 77 36.5t48 119.5h76q-16-116-69-177t-132-61q-36 0-75 18.5t-101 71.5q-32 26-62.5 46t-62.5 20q-45 0-75-34.5t-48-121.5h-73z" horiz-adv-x="463" unicode="&#x129;"/><glyph d="M207 0v1462h102v-1462h-102zM-17 1589v82h555v-82h-555z" horiz-adv-x="516" unicode="&#x12a;"/><glyph d="M182 0v1087h99v-1087h-99zM-44 1251v82h555v-82h-555z" horiz-adv-x="463" unicode="&#x12b;"/><glyph d="M207 0v1462h102v-1462h-102zM-18 1825h82q14-87 60.5-124.5t134.5-37.5 134.5 37.5 61.5 124.5h80q-30-246-278-246-253 0-275 246z" horiz-adv-x="516" unicode="&#x12c;"/><glyph d="M182 0v1087h99v-1087h-99zM-44 1487h82q14-87 60.5-124.5t134.5-37.5 134.5 37.5 61.5 124.5h80q-30-246-278-246-253 0-275 246z" horiz-adv-x="463" unicode="&#x12d;"/><glyph d="M207 0v1462h102v-1462h-102zM65-264q0 70 40 139t112 125h90q-72-63-107.5-119.5t-35.5-128.5q0-110 106-110 49 0 82 12v-84q-40-16-104-16-84 0-133.5 47.5t-49.5 134.5z" horiz-adv-x="516" unicode="&#x12e;"/><glyph d="M168 1389q0 96 63 96 31 0 48.5-25t17.5-71q0-45-17.5-71t-48.5-26q-63 0-63 97zM182 0v1087h99v-1087h-99zM39-264q0 70 40 139t112 125h90q-72-63-107.5-119.5t-35.5-128.5q0-110 106-110 49 0 82 12v-84q-40-16-104-16-84 0-133.5 47.5t-49.5 134.5z" horiz-adv-x="463" unicode="&#x12f;"/><glyph d="M207 0v1462h102v-1462h-102zM194 1727q0 96 64 96 31 0 48-25t17-71q0-45-17-71t-48-26q-64 0-64 97z" horiz-adv-x="516" unicode="&#x130;"/><glyph d="M182 0v1087h99v-1087h-99z" horiz-adv-x="463" unicode="&#x131;"/><glyph d="M207 0v1462h102v-1462h-102zM332-254q78-20 149-20 242 0 242 264v1472h102v-1462q0-369-342-369-92 0-151 27v88z" horiz-adv-x="1022" unicode="&#x132;"/><glyph d="M168 1389q0 96 63 96 31 0 48.5-25t17.5-71q0-45-17.5-71t-48.5-26q-63 0-63 97zM182 0v1087h99v-1087h-99zM365-381q69-20 129-20 151 0 151 176v1312h99v-1298q0-135-63.5-208t-180.5-73q-80 0-135 25v86zM631 1389q0 96 63 96 31 0 48.5-25t17.5-71q0-45-17.5-71t-48.5-26q-63 0-63 97z" horiz-adv-x="926" unicode="&#x133;"/><glyph d="M-184-254q78-20 149-20 242 0 242 264v1472h102v-1462q0-369-342-369-92 0-151 27v88zM-34 1579v16q62 67 131.5 156t110.5 156h98q68-120 242-312v-16h-70q-122 101-221 207-108-114-221-207h-70z" horiz-adv-x="506" unicode="&#x134;"/><glyph d="M-98-381q69-20 129-20 151 0 151 176v1312h99v-1298q0-135-63.5-208t-180.5-73q-80 0-135 25v86zM-58 1241v16q62 67 131.5 156t110.5 156h98q68-120 242-312v-16h-70q-122 101-221 207-108-114-221-207h-70z" horiz-adv-x="463" unicode="&#x135;"/><glyph d="M207 0v1462h102v-760l162 162 573 598h130l-599-618 615-844h-125l-561 772-195-172v-600h-102zM524-436q25 54 50 145t36 166h113v-14q-23-82-63.5-167.5t-81.5-146.5h-54v17z" horiz-adv-x="1190" unicode="&#x136;"/><glyph d="M182 0v1556h99v-780l-7-299h5l555 610h120l-428-464 465-623h-119l-413 549-178-162v-387h-99zM436-436q25 54 50 145t36 166h113v-14q-23-82-63.5-167.5t-81.5-146.5h-54v17z" horiz-adv-x="991" unicode="&#x137;"/><glyph d="M182 0v1087h99v-311l-7-299h5l555 610h120l-428-464 465-623h-119l-413 549-178-162v-387h-99z" horiz-adv-x="991" unicode="&#x138;"/><glyph d="M207 0v1462h102v-1366h697v-96h-799zM226 1579v16q73 79 144.5 171.5t97.5 140.5h141v-17q-36-52-122.5-138t-190.5-173h-70z" horiz-adv-x="1051" unicode="&#x139;"/><glyph d="M182 0v1556h99v-1556h-99zM136 1636v16q73 79 144.5 171.5t97.5 140.5h141v-17q-36-52-122.5-138t-190.5-173h-70z" horiz-adv-x="463" unicode="&#x13a;"/><glyph d="M207 0v1462h102v-1366h697v-96h-799zM461-436q25 54 50 145t36 166h113v-14q-23-82-63.5-167.5t-81.5-146.5h-54v17z" horiz-adv-x="1051" unicode="&#x13b;"/><glyph d="M182 0v1556h99v-1556h-99zM97-436q25 54 50 145t36 166h113v-14q-23-82-63.5-167.5t-81.5-146.5h-54v17z" horiz-adv-x="463" unicode="&#x13c;"/><glyph d="M207 0v1462h102v-1366h697v-96h-799zM676 1136v16q21 45 48 139.5t38 171.5h112v-14q-15-60-53.5-147t-91.5-166h-53z" horiz-adv-x="1051" unicode="&#x13d;"/><glyph d="M182 0v1556h99v-1556h-99zM386 1229v16q21 45 48 139.5t38 171.5h112v-14q-15-60-53.5-147t-91.5-166h-53z" horiz-adv-x="463" unicode="&#x13e;"/><glyph d="M207 0v1462h102v-1366h697v-96h-799zM692 728q0 96 64 96 31 0 48-25t17-71q0-45-17-71t-48-26q-64 0-64 97z" horiz-adv-x="1051" unicode="&#x13f;"/><glyph d="M182 0v1556h99v-1556h-99zM405 677q0 96 64 96 31 0 48-25t17-71q0-45-17-71t-48-26q-64 0-64 97z" horiz-adv-x="477" unicode="&#x140;"/><glyph d="M29 539l178 112v811h102v-747l324 205 47-76-371-230v-518h697v-96h-799v551l-137-86z" horiz-adv-x="1051" unicode="&#x141;"/><glyph d="M8 639l174 115v802h99v-739l153 103 43-70-196-131v-719h-99v653l-129-86z" horiz-adv-x="463" unicode="&#x142;"/><glyph d="M207 0v1462h102l865-1296h6q-9 180-9 342v954h99v-1462h-103l-866 1298h-8q12-232 12-350v-948h-98zM618 1579v16q73 79 144.5 171.5t97.5 140.5h141v-17q-36-52-122.5-138t-190.5-173h-70z" horiz-adv-x="1477" unicode="&#x143;"/><glyph d="M182 0v1087h84l19-149h6q106 170 377 170 370 0 370-397v-711h-98v705q0 164-69 238.5t-214 74.5q-195 0-285.5-98.5t-90.5-319.5v-600h-99zM489 1241v16q73 79 144.5 171.5t97.5 140.5h141v-17q-36-52-122.5-138t-190.5-173h-70z" horiz-adv-x="1208" unicode="&#x144;"/><glyph d="M207 0v1462h102l865-1296h6q-9 180-9 342v954h99v-1462h-103l-866 1298h-8q12-232 12-350v-948h-98zM598-436q25 54 50 145t36 166h113v-14q-23-82-63.5-167.5t-81.5-146.5h-54v17z" horiz-adv-x="1477" unicode="&#x145;"/><glyph d="M182 0v1087h84l19-149h6q106 170 377 170 370 0 370-397v-711h-98v705q0 164-69 238.5t-214 74.5q-195 0-285.5-98.5t-90.5-319.5v-600h-99zM475-436q25 54 50 145t36 166h113v-14q-23-82-63.5-167.5t-81.5-146.5h-54v17z" horiz-adv-x="1208" unicode="&#x146;"/><glyph d="M207 0v1462h102l865-1296h6q-9 180-9 342v954h99v-1462h-103l-866 1298h-8q12-232 12-350v-948h-98zM446 1890v17h70q114-94 221-207 108 114 221 207h70v-17q-170-188-242-311h-98q-76 128-242 311z" horiz-adv-x="1477" unicode="&#x147;"/><glyph d="M182 0v1087h84l19-149h6q106 170 377 170 370 0 370-397v-711h-98v705q0 164-69 238.5t-214 74.5q-195 0-285.5-98.5t-90.5-319.5v-600h-99zM313 1552v17h70q114-94 221-207 108 114 221 207h70v-17q-170-188-242-311h-98q-76 128-242 311z" horiz-adv-x="1208" unicode="&#x148;"/><glyph d="M258 0v1087h84l19-149h6q106 170 377 170 370 0 370-397v-711h-98v705q0 164-69 238.5t-214 74.5q-195 0-285.5-98.5t-90.5-319.5v-600h-99zM1 961q29 96 61 241.5t49 259.5h117l12-20q-75-265-174-481h-65z" horiz-adv-x="1284" unicode="&#x149;"/><glyph d="M207 0v1462h102l865-1296h6q-9 180-9 342v954h99v-1462q0-369-342-369-93 0-152 27v88q78-20 150-20 241 0 241 264v10l-866 1298h-8q12-232 12-350v-948h-98z" horiz-adv-x="1477" unicode="&#x14a;"/><glyph d="M182 0v1087h84l19-149h6q54 87 147 128.5t205 41.5q201 0 298-99t97-298v-922q0-134-62.5-207.5t-180.5-73.5q-79 0-136 25v86q69-20 129-20 152 0 152 176v930q0 164-72.5 238.5t-224.5 74.5q-189 0-275.5-99.5t-86.5-318.5v-600h-99z" horiz-adv-x="1208" unicode="&#x14b;"/><glyph d="M129 735q0 349 175.5 549.5t479.5 200.5q306 0 479-201.5t173-550.5q0-348-174-550.5t-480-202.5q-305 0-479 202.5t-174 552.5zM240 733q0-314 140-485.5t402-171.5q264 0 403.5 170t139.5 487q0 316-139.5 484.5t-401.5 168.5q-261 0-402.5-170t-141.5-483zM506 1589v82h555v-82h-555z" horiz-adv-x="1565" unicode="&#x14c;"/><glyph d="M119 545q0 266 129 414.5t354 148.5q224 0 351.5-150.5t127.5-412.5q0-266-129-415.5t-356-149.5q-143 0-252 69t-167 198-58 298zM223 545q0-224 98.5-349.5t278.5-125.5 278.5 125.5 98.5 349.5q0 225-99.5 349t-279.5 124-277.5-123.5-97.5-349.5zM324 1251v82h555v-82h-555z" horiz-adv-x="1200" unicode="&#x14d;"/><glyph d="M129 735q0 349 175.5 549.5t479.5 200.5q306 0 479-201.5t173-550.5q0-348-174-550.5t-480-202.5q-305 0-479 202.5t-174 552.5zM240 733q0-314 140-485.5t402-171.5q264 0 403.5 170t139.5 487q0 316-139.5 484.5t-401.5 168.5q-261 0-402.5-170t-141.5-483zM506 1825h82q14-87 60.5-124.5t134.5-37.5 134.5 37.5 61.5 124.5h80q-30-246-278-246-253 0-275 246z" horiz-adv-x="1565" unicode="&#x14e;"/><glyph d="M119 545q0 266 129 414.5t354 148.5q224 0 351.5-150.5t127.5-412.5q0-266-129-415.5t-356-149.5q-143 0-252 69t-167 198-58 298zM223 545q0-224 98.5-349.5t278.5-125.5 278.5 125.5 98.5 349.5q0 225-99.5 349t-279.5 124-277.5-123.5-97.5-349.5zM323 1487h82q14-87 60.5-124.5t134.5-37.5 134.5 37.5 61.5 124.5h80q-30-246-278-246-253 0-275 246z" horiz-adv-x="1200" unicode="&#x14f;"/><glyph d="M129 735q0 349 175.5 549.5t479.5 200.5q306 0 479-201.5t173-550.5q0-348-174-550.5t-480-202.5q-305 0-479 202.5t-174 552.5zM240 733q0-314 140-485.5t402-171.5q264 0 403.5 170t139.5 487q0 316-139.5 484.5t-401.5 168.5q-261 0-402.5-170t-141.5-483zM534 1579v16q31 33 67 90t121 222h136v-17q-135-202-254-311h-70zM872 1579v16q31 33 67 90t121 222h136v-17q-135-202-254-311h-70z" horiz-adv-x="1565" unicode="&#x150;"/><glyph d="M119 545q0 266 129 414.5t354 148.5q224 0 351.5-150.5t127.5-412.5q0-266-129-415.5t-356-149.5q-143 0-252 69t-167 198-58 298zM223 545q0-224 98.5-349.5t278.5-125.5 278.5 125.5 98.5 349.5q0 225-99.5 349t-279.5 124-277.5-123.5-97.5-349.5zM342 1241v16q31 33 67 90t121 222h136v-17q-135-202-254-311h-70zM680 1241v16q31 33 67 90t121 222h136v-17q-135-202-254-311h-70z" horiz-adv-x="1200" unicode="&#x151;"/><glyph d="M129 735q0 347 174.5 545.5t480.5 198.5q78 0 183-17h747v-94h-655v-553h616v-94h-616v-627h655v-94h-756q-76-16-176-16-305 0-479 200t-174 551zM240 733q0-315 140.5-484t401.5-169q109 0 174 18v1266q-62 16-172 16-262 0-403-167.5t-141-479.5z" horiz-adv-x="1839" unicode="&#x152;"/><glyph d="M119 545q0 266 129 414.5t354 148.5q151 0 251-70t157-209q110 279 399 279 192 0 303-134t111-364v-80h-762q2-230 100.5-345t276.5-115q93 0 163.5 13t178.5 56v-90q-92-40-170-54.5t-172-14.5q-156 0-266.5 67.5t-165.5 198.5q-59-128-158-197t-252-69q-143 0-252 69t-167 198-58 298zM223 545q0-224 98.5-349.5t278.5-125.5q174 0 265 122.5t91 352.5q0 224-93 348.5t-265 124.5q-180 0-277.5-123.5t-97.5-349.5zM1065 618h653q0 189-82 295.5t-227 106.5q-155 0-242-104t-102-298z" horiz-adv-x="1942" unicode="&#x153;"/><glyph d="M207 0v1462h348q272 0 402-100.5t130-302.5q0-147-77.5-248t-235.5-145l397-666h-122l-377 637h-363v-637h-102zM309 725h279q185 0 287 82.5t102 243.5q0 167-100 243t-326 76h-242v-645zM491 1579v16q73 79 144.5 171.5t97.5 140.5h141v-17q-36-52-122.5-138t-190.5-173h-70z" horiz-adv-x="1217" unicode="&#x154;"/><glyph d="M182 0v1087h84l10-196h7q67 120 143 168.5t184 48.5q69 0 148-14l-19-95q-68 17-141 17-139 0-228-118t-89-298v-600h-99zM339 1241v16q73 79 144.5 171.5t97.5 140.5h141v-17q-36-52-122.5-138t-190.5-173h-70z" horiz-adv-x="797" unicode="&#x155;"/><glyph d="M207 0v1462h348q272 0 402-100.5t130-302.5q0-147-77.5-248t-235.5-145l397-666h-122l-377 637h-363v-637h-102zM309 725h279q185 0 287 82.5t102 243.5q0 167-100 243t-326 76h-242v-645zM524-436q25 54 50 145t36 166h113v-14q-23-82-63.5-167.5t-81.5-146.5h-54v17z" horiz-adv-x="1217" unicode="&#x156;"/><glyph d="M182 0v1087h84l10-196h7q67 120 143 168.5t184 48.5q69 0 148-14l-19-95q-68 17-141 17-139 0-228-118t-89-298v-600h-99zM109-436q25 54 50 145t36 166h113v-14q-23-82-63.5-167.5t-81.5-146.5h-54v17z" horiz-adv-x="797" unicode="&#x157;"/><glyph d="M207 0v1462h348q272 0 402-100.5t130-302.5q0-147-77.5-248t-235.5-145l397-666h-122l-377 637h-363v-637h-102zM309 725h279q185 0 287 82.5t102 243.5q0 167-100 243t-326 76h-242v-645zM313 1890v17h70q114-94 221-207 108 114 221 207h70v-17q-170-188-242-311h-98q-76 128-242 311z" horiz-adv-x="1217" unicode="&#x158;"/><glyph d="M182 0v1087h84l10-196h7q67 120 143 168.5t184 48.5q69 0 148-14l-19-95q-68 17-141 17-139 0-228-118t-89-298v-600h-99zM163 1552v17h70q114-94 221-207 108 114 221 207h70v-17q-170-188-242-311h-98q-76 128-242 311z" horiz-adv-x="797" unicode="&#x159;"/><glyph d="M111 39v102q158-67 403-67 180 0 285.5 82.5t105.5 216.5q0 83-35 137.5t-114 99.5-232 97q-224 77-309.5 166.5t-85.5 238.5q0 164 128.5 267.5t330.5 103.5q206 0 387-78l-37-88q-182 76-348 76-162 0-258-75t-96-204q0-81 29.5-133t96.5-93.5 230-99.5q171-59 257-114.5t125.5-126 39.5-170.5q0-183-134.5-290t-357.5-107q-268 0-411 59zM456 1579v16q73 79 144.5 171.5t97.5 140.5h141v-17q-36-52-122.5-138t-190.5-173h-70z" horiz-adv-x="1116" unicode="&#x15a;"/><glyph d="M84 47v107q164-82 346-82 161 0 244.5 53.5t83.5 142.5q0 82-66.5 138t-218.5 110q-163 59-229 101.5t-99.5 96-33.5 130.5q0 122 102.5 193t286.5 71q176 0 334-66l-37-90q-160 66-297 66-133 0-211-44t-78-122q0-85 60.5-136t236.5-114q147-53 214-95.5t100.5-96.5 33.5-127q0-146-111-224.5t-315-78.5q-218 0-346 67zM351 1241v16q73 79 144.5 171.5t97.5 140.5h141v-17q-36-52-122.5-138t-190.5-173h-70z" horiz-adv-x="954" unicode="&#x15b;"/><glyph d="M111 39v102q158-67 403-67 180 0 285.5 82.5t105.5 216.5q0 83-35 137.5t-114 99.5-232 97q-224 77-309.5 166.5t-85.5 238.5q0 164 128.5 267.5t330.5 103.5q206 0 387-78l-37-88q-182 76-348 76-162 0-258-75t-96-204q0-81 29.5-133t96.5-93.5 230-99.5q171-59 257-114.5t125.5-126 39.5-170.5q0-183-134.5-290t-357.5-107q-268 0-411 59zM280 1579v16q62 67 131.5 156t110.5 156h98q68-120 242-312v-16h-70q-122 101-221 207-108-114-221-207h-70z" horiz-adv-x="1116" unicode="&#x15c;"/><glyph d="M84 47v107q164-82 346-82 161 0 244.5 53.5t83.5 142.5q0 82-66.5 138t-218.5 110q-163 59-229 101.5t-99.5 96-33.5 130.5q0 122 102.5 193t286.5 71q176 0 334-66l-37-90q-160 66-297 66-133 0-211-44t-78-122q0-85 60.5-136t236.5-114q147-53 214-95.5t100.5-96.5 33.5-127q0-146-111-224.5t-315-78.5q-218 0-346 67zM196 1241v16q62 67 131.5 156t110.5 156h98q68-120 242-312v-16h-70q-122 101-221 207-108-114-221-207h-70z" horiz-adv-x="954" unicode="&#x15d;"/><glyph d="M111 39v102q158-67 403-67 180 0 285.5 82.5t105.5 216.5q0 83-35 137.5t-114 99.5-232 97q-224 77-309.5 166.5t-85.5 238.5q0 164 128.5 267.5t330.5 103.5q206 0 387-78l-37-88q-182 76-348 76-162 0-258-75t-96-204q0-81 29.5-133t96.5-93.5 230-99.5q171-59 257-114.5t125.5-126 39.5-170.5q0-183-134.5-290t-357.5-107q-268 0-411 59zM369-393q30-10 92-10 78 0 119 28t41 80q0 94-193 121l93 174h96l-66-117q168-37 168-174 0-100-67.5-150.5t-188.5-50.5q-68 0-94 11v88z" horiz-adv-x="1116" unicode="&#x15e;"/><glyph d="M84 47v107q164-82 346-82 161 0 244.5 53.5t83.5 142.5q0 82-66.5 138t-218.5 110q-163 59-229 101.5t-99.5 96-33.5 130.5q0 122 102.5 193t286.5 71q176 0 334-66l-37-90q-160 66-297 66-133 0-211-44t-78-122q0-85 60.5-136t236.5-114q147-53 214-95.5t100.5-96.5 33.5-127q0-146-111-224.5t-315-78.5q-218 0-346 67zM279-393q30-10 92-10 78 0 119 28t41 80q0 94-193 121l93 174h96l-66-117q168-37 168-174 0-100-67.5-150.5t-188.5-50.5q-68 0-94 11v88z" horiz-adv-x="954" unicode="&#x15f;"/><glyph d="M111 39v102q158-67 403-67 180 0 285.5 82.5t105.5 216.5q0 83-35 137.5t-114 99.5-232 97q-224 77-309.5 166.5t-85.5 238.5q0 164 128.5 267.5t330.5 103.5q206 0 387-78l-37-88q-182 76-348 76-162 0-258-75t-96-204q0-81 29.5-133t96.5-93.5 230-99.5q171-59 257-114.5t125.5-126 39.5-170.5q0-183-134.5-290t-357.5-107q-268 0-411 59zM277 1890v17h70q114-94 221-207 108 114 221 207h70v-17q-170-188-242-311h-98q-76 128-242 311z" horiz-adv-x="1116" unicode="&#x160;"/><glyph d="M84 47v107q164-82 346-82 161 0 244.5 53.5t83.5 142.5q0 82-66.5 138t-218.5 110q-163 59-229 101.5t-99.5 96-33.5 130.5q0 122 102.5 193t286.5 71q176 0 334-66l-37-90q-160 66-297 66-133 0-211-44t-78-122q0-85 60.5-136t236.5-114q147-53 214-95.5t100.5-96.5 33.5-127q0-146-111-224.5t-315-78.5q-218 0-346 67zM177 1552v17h70q114-94 221-207 108 114 221 207h70v-17q-170-188-242-311h-98q-76 128-242 311z" horiz-adv-x="954" unicode="&#x161;"/><glyph d="M10 1366v96h1053v-96h-475v-1366h-103v1366h-475zM336-393q30-10 92-10 78 0 119 28t41 80q0 94-193 121l93 174h96l-66-117q168-37 168-174 0-100-67.5-150.5t-188.5-50.5q-68 0-94 11v88z" horiz-adv-x="1073" unicode="&#x162;"/><glyph d="M25 1001v58l161 45 50 246h51v-263h319v-86h-319v-688q0-125 44-185t138-60 164 16v-80q-72-24-166-24-144 0-212.5 77t-68.5 242v702h-161zM240-393q30-10 92-10 78 0 119 28t41 80q0 94-193 121l93 174h96l-66-117q168-37 168-174 0-100-67.5-150.5t-188.5-50.5q-68 0-94 11v88z" horiz-adv-x="686" unicode="&#x163;"/><glyph d="M10 1366v96h1053v-96h-475v-1366h-103v1366h-475zM247 1890v17h70q114-94 221-207 108 114 221 207h70v-17q-170-188-242-311h-98q-76 128-242 311z" horiz-adv-x="1073" unicode="&#x164;"/><glyph d="M25 1001v58l161 45 50 246h51v-263h319v-86h-319v-688q0-125 44-185t138-60 164 16v-80q-72-24-166-24-144 0-212.5 77t-68.5 242v702h-161zM480 1229v16q21 45 48 139.5t38 171.5h112v-14q-15-60-53.5-147t-91.5-166h-53z" horiz-adv-x="686" unicode="&#x165;"/><glyph d="M10 1366v96h1053v-96h-475v-573h354v-95h-354v-698h-103v698h-358v95h358v573h-475z" horiz-adv-x="1073" unicode="&#x166;"/><glyph d="M25 1001v58l161 45 50 246h51v-263h319v-86h-319v-313h309v-86h-309v-289q0-125 44-185t138-60 164 16v-80q-72-24-166-24-144 0-212.5 77t-68.5 242v303h-145v86h145v313h-161z" horiz-adv-x="686" unicode="&#x167;"/><glyph d="M190 520v942h103v-946q0-211 117-328.5t331-117.5q209 0 324 115.5t115 320.5v956h102v-946q0-252-146-394t-407-142q-254 0-396.5 142.5t-142.5 397.5zM396 1581q10 111 63 174.5t137 63.5q48 0 88-25t82-59q34-28 66-50t61-22q46 0 77 36.5t48 119.5h76q-16-116-69-177t-132-61q-36 0-75 18.5t-101 71.5q-32 26-62.5 46t-62.5 20q-45 0-75-34.5t-48-121.5h-73z" horiz-adv-x="1473" unicode="&#x168;"/><glyph d="M170 377v710h98v-704q0-164 69-238.5t214-74.5q194 0 285.5 98t91.5 319v600h98v-1087h-84l-18 150h-6q-106-170-377-170-371 0-371 397zM268 1243q10 111 63 174.5t137 63.5q48 0 88-25t82-59q34-28 66-50t61-22q46 0 77 36.5t48 119.5h76q-16-116-69-177t-132-61q-36 0-75 18.5t-101 71.5q-32 26-62.5 46t-62.5 20q-45 0-75-34.5t-48-121.5h-73z" horiz-adv-x="1208" unicode="&#x169;"/><glyph d="M190 520v942h103v-946q0-211 117-328.5t331-117.5q209 0 324 115.5t115 320.5v956h102v-946q0-252-146-394t-407-142q-254 0-396.5 142.5t-142.5 397.5zM459 1589v82h555v-82h-555z" horiz-adv-x="1473" unicode="&#x16a;"/><glyph d="M170 377v710h98v-704q0-164 69-238.5t214-74.5q194 0 285.5 98t91.5 319v600h98v-1087h-84l-18 150h-6q-106-170-377-170-371 0-371 397zM328 1251v82h555v-82h-555z" horiz-adv-x="1208" unicode="&#x16b;"/><glyph d="M190 520v942h103v-946q0-211 117-328.5t331-117.5q209 0 324 115.5t115 320.5v956h102v-946q0-252-146-394t-407-142q-254 0-396.5 142.5t-142.5 397.5zM458 1825h82q14-87 60.5-124.5t134.5-37.5 134.5 37.5 61.5 124.5h80q-30-246-278-246-253 0-275 246z" horiz-adv-x="1473" unicode="&#x16c;"/><glyph d="M170 377v710h98v-704q0-164 69-238.5t214-74.5q194 0 285.5 98t91.5 319v600h98v-1087h-84l-18 150h-6q-106-170-377-170-371 0-371 397zM327 1487h82q14-87 60.5-124.5t134.5-37.5 134.5 37.5 61.5 124.5h80q-30-246-278-246-253 0-275 246z" horiz-adv-x="1208" unicode="&#x16d;"/><glyph d="M190 520v942h103v-946q0-211 117-328.5t331-117.5q209 0 324 115.5t115 320.5v956h102v-946q0-252-146-394t-407-142q-254 0-396.5 142.5t-142.5 397.5zM518 1794q0 94 60 152.5t157 58.5 157-59 60-152q0-97-60-155t-157-58-157 58-60 155zM598 1794q0-66 37.5-103.5t99.5-37.5 99.5 37.5 37.5 103.5q0 64-39 101.5t-98 37.5q-62 0-99.5-38t-37.5-101z" horiz-adv-x="1473" unicode="&#x16e;"/><glyph d="M170 377v710h98v-704q0-164 69-238.5t214-74.5q194 0 285.5 98t91.5 319v600h98v-1087h-84l-18 150h-6q-106-170-377-170-371 0-371 397zM387 1456q0 94 60 152.5t157 58.5 157-59 60-152q0-97-60-155t-157-58-157 58-60 155zM467 1456q0-66 37.5-103.5t99.5-37.5 99.5 37.5 37.5 103.5q0 64-39 101.5t-98 37.5q-62 0-99.5-38t-37.5-101z" horiz-adv-x="1208" unicode="&#x16f;"/><glyph d="M190 520v942h103v-946q0-211 117-328.5t331-117.5q209 0 324 115.5t115 320.5v956h102v-946q0-252-146-394t-407-142q-254 0-396.5 142.5t-142.5 397.5zM475 1579v16q31 33 67 90t121 222h136v-17q-135-202-254-311h-70zM813 1579v16q31 33 67 90t121 222h136v-17q-135-202-254-311h-70z" horiz-adv-x="1473" unicode="&#x170;"/><glyph d="M170 377v710h98v-704q0-164 69-238.5t214-74.5q194 0 285.5 98t91.5 319v600h98v-1087h-84l-18 150h-6q-106-170-377-170-371 0-371 397zM346 1241v16q31 33 67 90t121 222h136v-17q-135-202-254-311h-70zM684 1241v16q31 33 67 90t121 222h136v-17q-135-202-254-311h-70z" horiz-adv-x="1208" unicode="&#x171;"/><glyph d="M190 520v942h103v-946q0-211 117-328.5t331-117.5q209 0 324 115.5t115 320.5v956h102v-946q0-252-146-394t-407-142q-254 0-396.5 142.5t-142.5 397.5zM598-264q0 70 40 139t112 125h90q-72-63-107.5-119.5t-35.5-128.5q0-110 106-110 49 0 82 12v-84q-40-16-104-16-84 0-133.5 47.5t-49.5 134.5z" horiz-adv-x="1473" unicode="&#x172;"/><glyph d="M170 377v710h98v-704q0-164 69-238.5t214-74.5q194 0 285.5 98t91.5 319v600h98v-1087q-72-63-107.5-119.5t-35.5-128.5q0-110 106-110 49 0 82 12v-84q-40-16-104-16-84 0-133.5 47.5t-49.5 134.5q0 70 40 139 39 69 117 129l-17 146h-6q-106-170-377-170-186 0-278.5 99t-92.5 298z" horiz-adv-x="1208" unicode="&#x173;"/><glyph d="M51 1462h107l256-942q15-57 28-105.5t23.5-91 19-82 15.5-79.5q24 136 102 413l250 887h113l293-1018q51-176 73-284 13 72 33.5 153t308.5 1149h103l-404-1462h-84l-321 1128q-40 139-60 228-16-87-45.5-200t-322.5-1156h-86zM618 1579v16q62 67 131.5 156t110.5 156h98q68-120 242-312v-16h-70q-122 101-221 207-108-114-221-207h-70z" horiz-adv-x="1827" unicode="&#x174;"/><glyph d="M31 1087h106l174-630q61-234 80-344h6q59 234 86 311l224 663h90l213-661q72-235 88-311h6q8 65 80 348l166 624h100l-295-1087h-104l-238 727q-23 74-59 217h-6l-21-74-45-145-242-725h-98zM459 1241v16q62 67 131.5 156t110.5 156h98q68-120 242-312v-16h-70q-122 101-221 207-108-114-221-207h-70z" horiz-adv-x="1481" unicode="&#x175;"/><glyph d="M0 1462h117l426-800 428 800h110l-487-897v-565h-105v557zM251 1579v16q62 67 131.5 156t110.5 156h98q68-120 242-312v-16h-70q-122 101-221 207-108-114-221-207h-70z" horiz-adv-x="1081" unicode="&#x176;"/><glyph d="M0 1087h102l230-610q105-281 133-379h6q42 129 137 385l230 604h102l-487-1263q-59-154-99-208t-93.5-81-129.5-27q-57 0-127 21v86q58-16 125-16 51 0 90 24t70.5 74.5 73 160 53.5 142.5zM179 1241v16q62 67 131.5 156t110.5 156h98q68-120 242-312v-16h-70q-122 101-221 207-108-114-221-207h-70z" horiz-adv-x="940" unicode="&#x177;"/><glyph d="M0 1462h117l426-800 428 800h110l-487-897v-565h-105v557zM288 1727q0 46 15.5 66t47.5 20q64 0 64-86t-64-86q-63 0-63 86zM669 1727q0 46 15.5 66t47.5 20q64 0 64-86t-64-86q-63 0-63 86z" horiz-adv-x="1081" unicode="&#x178;"/><glyph d="M82 0v76l856 1290h-817v96h954v-76l-858-1290h881v-96h-1016zM481 1579v16q73 79 144.5 171.5t97.5 140.5h141v-17q-36-52-122.5-138t-190.5-173h-70z" horiz-adv-x="1180" unicode="&#x179;"/><glyph d="M82 0v63l645 936h-598v88h727v-63l-649-936h651v-88h-776zM380 1241v16q73 79 144.5 171.5t97.5 140.5h141v-17q-36-52-122.5-138t-190.5-173h-70z" horiz-adv-x="944" unicode="&#x17a;"/><glyph d="M82 0v76l856 1290h-817v96h954v-76l-858-1290h881v-96h-1016zM526 1727q0 96 64 96 31 0 48-25t17-71q0-45-17-71t-48-26q-64 0-64 97z" horiz-adv-x="1180" unicode="&#x17b;"/><glyph d="M82 0v63l645 936h-598v88h727v-63l-649-936h651v-88h-776zM426 1389q0 96 64 96 31 0 48-25t17-71q0-45-17-71t-48-26q-64 0-64 97z" horiz-adv-x="944" unicode="&#x17c;"/><glyph d="M82 0v76l856 1290h-817v96h954v-76l-858-1290h881v-96h-1016zM309 1890v17h70q114-94 221-207 108 114 221 207h70v-17q-170-188-242-311h-98q-76 128-242 311z" horiz-adv-x="1180" unicode="&#x17d;"/><glyph d="M82 0v63l645 936h-598v88h727v-63l-649-936h651v-88h-776zM198 1552v17h70q114-94 221-207 108 114 221 207h70v-17q-170-188-242-311h-98q-76 128-242 311z" horiz-adv-x="944" unicode="&#x17e;"/><glyph d="M182 0v1180q0 203 74.5 295t239.5 92q90 0 180-27l-23-86q-80 25-159 25-116 0-164.5-68.5t-48.5-222.5v-1188h-99z" horiz-adv-x="627" unicode="&#x17f;"/><glyph d="M190-383q78-18 144-18 176 0 176 217v1038h-207v59l207 37v146q0 201 76.5 294t240.5 93q82 0 183-31l-25-86q-89 29-160 29-115 0-166-67.5t-51-223.5v-162h281v-88h-281v-1028q0-155-71-236.5t-207-81.5q-85 0-140 19v90z" unicode="&#x192;"/><glyph d="M129 735q0 349 175.5 549.5t479.5 200.5q330 0 500-230 81 21 120.5 92t39.5 209h104l13-18q-10-147-67.5-232t-164.5-120q107-182 107-453 0-348-174-550.5t-480-202.5q-305 0-479 202.5t-174 552.5zM240 733q0-314 140-485.5t402-171.5q264 0 403.5 170t139.5 487q0 316-139.5 484.5t-401.5 168.5q-261 0-402.5-170t-141.5-483z" horiz-adv-x="1565" unicode="&#x1a0;"/><glyph d="M119 545q0 266 129 414.5t354 148.5q219 0 348-147 72 24 107.5 92t38.5 202h100l12-18q-11-144-62-225t-147-119q82-137 82-348 0-266-129-415.5t-356-149.5q-143 0-252 69t-167 198-58 298zM223 545q0-224 98.5-349.5t278.5-125.5 278.5 125.5 98.5 349.5q0 225-99.5 349t-279.5 124-277.5-123.5-97.5-349.5z" horiz-adv-x="1200" unicode="&#x1a1;"/><glyph d="M190 520v942h103v-946q0-211 117-328.5t331-117.5q209 0 324 115.5t115 320.5v956h102v-207q89 19 130.5 89t41.5 212h105l12-18q-12-167-85.5-254.5t-203.5-112.5v-655q0-252-146-394t-407-142q-254 0-396.5 142.5t-142.5 397.5z" horiz-adv-x="1497" unicode="&#x1af;"/><glyph d="M170 377v710h98v-704q0-164 72.5-238.5t224.5-74.5q189 0 276 99t87 318v600h98v-122q66 11 104.5 44t55 90 16.5 167h101l12-19q-9-123-41-190t-91.5-113-156.5-63v-881h-84l-18 150h-6q-52-82-143.5-126t-209.5-44q-201 0-298 98t-97 299z" horiz-adv-x="1262" unicode="&#x1b0;"/><glyph d="M-98-381q69-20 129-20 151 0 151 176v1312h99v-1298q0-135-63.5-208t-180.5-73q-80 0-135 25v86zM-58 1552v17h70q114-94 221-207 108 114 221 207h70v-17q-170-188-242-311h-98q-76 128-242 311z" horiz-adv-x="463" unicode="&#x1f0;"/><glyph d="M-12 0l565 1206q-68 17-110 69t-42 136q0 94 60 152.5t157 58.5q98 0 158-58t60-153q0-81-41-133t-109-72l553-1206h-115l-200 446h-617l-209-446h-110zM346 539h539l-207 454q-24 52-60 154-23-70-63-160zM481 1411q0-66 38-103.5t99-37.5q62 0 100 37.5t38 103.5q0 64-39 101.5t-99 37.5-98.5-38-38.5-101zM561 1673v17q103 111 191 272h141v-16q-44-61-121.5-141t-140.5-132h-70z" horiz-adv-x="1229" unicode="&#x1fa;"/><glyph d="M98 289q0 159 132.5 247t383.5 93l207 6v72q0 155-63 234t-203 79q-151 0-313-84l-37 86q179 84 354 84 179 0 267.5-93t88.5-290v-723h-73l-25 172h-8q-82-105-168.5-148.5t-204.5-43.5q-160 0-249 82t-89 227zM203 285q0-102 62.5-158.5t176.5-56.5q174 0 274.5 99.5t100.5 276.5v107l-190-8q-229-11-326.5-71.5t-97.5-188.5zM324 1413q0 94 60 152.5t157 58.5 157-59 60-152q0-97-60-155t-157-58-157 58-60 155zM403 1413q0-66 38-103.5t100-37.5 99.5 37.5 37.5 103.5q0 64-39 101.5t-98 37.5q-60 0-99-37.5t-39-101.5zM467 1700v12q48 50 101.5 123t86.5 127h138v-14q-35-45-112.5-120t-145.5-128h-68z" horiz-adv-x="1085" unicode="&#x1fb;"/><glyph d="M-2 0l653 1462h877v-94h-615v-553h576v-94h-576v-627h615v-94h-717v516h-475l-227-516h-111zM377 608h434v760h-100zM891 1579v16q73 79 144.5 171.5t97.5 140.5h141v-17q-36-52-122.5-138t-190.5-173h-70z" horiz-adv-x="1653" unicode="&#x1fc;"/><glyph d="M98 289q0 154 125 243t377 97l201 6v72q0 155-61.5 234t-198.5 79q-148 0-305-84l-37 86q173 84 346 84 261 0 325-211 111 213 347 213 184 0 289.5-134.5t105.5-363.5v-80h-715q0-460 348-460 85 0 150 12t174 57v-90q-92-41-165-55t-161-14q-295 0-397 256-68-133-168-194.5t-252-61.5q-156 0-242 82.5t-86 226.5zM203 285q0-102 61-158.5t170-56.5q169 0 266 99.5t97 276.5v107l-187-8q-219-11-313-71.5t-94-188.5zM903 618h604q0 188-77.5 295t-212.5 107q-284 0-314-402zM774 1241v16q73 79 144.5 171.5t97.5 140.5h141v-17q-36-52-122.5-138t-190.5-173h-70z" horiz-adv-x="1731" unicode="&#x1fd;"/><glyph d="M129 735q0 349 175.5 549.5t479.5 200.5q232 0 392-121l108 152 72-60-111-153q191-207 191-570 0-348-174-550.5t-480-202.5q-236 0-395 120l-86-120-74 59 90 127q-188 200-188 569zM240 733q0-312 139-483l739 1034q-133 102-334 102-261 0-402.5-170t-141.5-483zM444 182q133-106 338-106 264 0 403.5 170t139.5 487q0 315-139 486zM686 1579v16q73 79 144.5 171.5t97.5 140.5h141v-17q-36-52-122.5-138t-190.5-173h-70z" horiz-adv-x="1565" unicode="&#x1fe;"/><glyph d="M119 545q0 266 129 414.5t354 148.5q179 0 301-104l96 124 74-55-104-137q112-147 112-391 0-266-129-415.5t-356-149.5q-173 0-291 98l-86-113-72 58 93 120q-121 153-121 402zM223 545q0-200 78-322l543 705q-98 90-246 90-180 0-277.5-123.5t-97.5-349.5zM362 152q94-82 238-82 180 0 278.5 125.5t98.5 349.5q0 190-72 309zM499 1241v16q73 79 144.5 171.5t97.5 140.5h141v-17q-36-52-122.5-138t-190.5-173h-70z" horiz-adv-x="1200" unicode="&#x1ff;"/><glyph d="M111 39v102q158-67 403-67 180 0 285.5 82.5t105.5 216.5q0 83-35 137.5t-114 99.5-232 97q-224 77-309.5 166.5t-85.5 238.5q0 164 128.5 267.5t330.5 103.5q206 0 387-78l-37-88q-182 76-348 76-162 0-258-75t-96-204q0-81 29.5-133t96.5-93.5 230-99.5q171-59 257-114.5t125.5-126 39.5-170.5q0-183-134.5-290t-357.5-107q-268 0-411 59zM428-436q25 54 50 145t36 166h113v-14q-23-82-63.5-167.5t-81.5-146.5h-54v17z" horiz-adv-x="1116" unicode="&#x218;"/><glyph d="M84 47v107q164-82 346-82 161 0 244.5 53.5t83.5 142.5q0 82-66.5 138t-218.5 110q-163 59-229 101.5t-99.5 96-33.5 130.5q0 122 102.5 193t286.5 71q176 0 334-66l-37-90q-160 66-297 66-133 0-211-44t-78-122q0-85 60.5-136t236.5-114q147-53 214-95.5t100.5-96.5 33.5-127q0-146-111-224.5t-315-78.5q-218 0-346 67zM326-436q25 54 50 145t36 166h113v-14q-23-82-63.5-167.5t-81.5-146.5h-54v17z" horiz-adv-x="954" unicode="&#x219;"/><glyph d="M10 1366v96h1053v-96h-475v-1366h-103v1366h-475zM403-436q25 54 50 145t36 166h113v-14q-23-82-63.5-167.5t-81.5-146.5h-54v17z" horiz-adv-x="1073" unicode="&#x21a;"/><glyph d="M25 1001v58l161 45 50 246h51v-263h319v-86h-319v-688q0-125 44-185t138-60 164 16v-80q-72-24-166-24-144 0-212.5 77t-68.5 242v702h-161zM263-436q25 54 50 145t36 166h113v-14q-23-82-63.5-167.5t-81.5-146.5h-54v17z" horiz-adv-x="686" unicode="&#x21b;"/><glyph d="M-98-381q69-20 129-20 151 0 151 176v1312h99v-1298q0-135-63.5-208t-180.5-73q-80 0-135 25v86z" horiz-adv-x="463" unicode="&#x237;"/><glyph d="M29 961q29 96 61 241.5t49 259.5h117l12-20q-75-265-174-481h-65z" horiz-adv-x="297" unicode="&#x2bc;"/><glyph d="M299 1241v16q62 67 131.5 156t110.5 156h98q68-120 242-312v-16h-70q-122 101-221 207-108-114-221-207h-70z" horiz-adv-x="1182" unicode="&#x2c6;"/><glyph d="M299 1552v17h70q114-94 221-207 108 114 221 207h70v-17q-170-188-242-311h-98q-76 128-242 311z" horiz-adv-x="1182" unicode="&#x2c7;"/><glyph d="M293 1251v82h555v-82h-555z" horiz-adv-x="1141" unicode="&#x2c9;"/><glyph d="M311 1487h82q14-87 60.5-124.5t134.5-37.5 134.5 37.5 61.5 124.5h80q-30-246-278-246-253 0-275 246z" horiz-adv-x="1182" unicode="&#x2d8;"/><glyph d="M178 1389q0 96 64 96 31 0 48-25t17-71q0-45-17-71t-48-26q-64 0-64 97z" horiz-adv-x="483" unicode="&#x2d9;"/><glyph d="M371 1456q0 94 60 152.5t157 58.5 157-59 60-152q0-97-60-155t-157-58-157 58-60 155zM451 1456q0-66 37.5-103.5t99.5-37.5 99.5 37.5 37.5 103.5q0 64-39 101.5t-98 37.5q-62 0-99.5-38t-37.5-101z" horiz-adv-x="1182" unicode="&#x2da;"/><glyph d="M63-264q0 70 40 139t112 125h90q-72-63-107.5-119.5t-35.5-128.5q0-110 106-110 49 0 82 12v-84q-40-16-104-16-84 0-133.5 47.5t-49.5 134.5z" horiz-adv-x="356" unicode="&#x2db;"/><glyph d="M283 1243q10 111 63 174.5t137 63.5q48 0 88-25t82-59q34-28 66-50t61-22q46 0 77 36.5t48 119.5h76q-16-116-69-177t-132-61q-36 0-75 18.5t-101 71.5q-32 26-62.5 46t-62.5 20q-45 0-75-34.5t-48-121.5h-73z" horiz-adv-x="1182" unicode="&#x2dc;"/><glyph d="M258 1241v16q31 33 67 90t121 222h136v-17q-135-202-254-311h-70zM596 1241v16q31 33 67 90t121 222h136v-17q-135-202-254-311h-70z" horiz-adv-x="1182" unicode="&#x2dd;"/><glyph d="M123-338q0 94 60 152.5t157 58.5 157-59 60-152q0-97-60-155t-157-58-157 58-60 155zM203-338q0-66 37.5-103.5t99.5-37.5 99.5 37.5 37.5 103.5q0 64-39 101.5t-98 37.5q-62 0-99.5-38t-37.5-101z" horiz-adv-x="682" unicode="&#x2f3;"/><glyph d="M-884 1552v17h142q26-48 98.5-142t142.5-170v-16h-69q-96 79-188.5 171.5t-125.5 139.5z" horiz-adv-x="0" unicode="&#x300;"/><glyph d="M-708 1241v16q73 79 144.5 171.5t97.5 140.5h141v-17q-36-52-122.5-138t-190.5-173h-70z" horiz-adv-x="0" unicode="&#x301;"/><glyph d="M-943 1243q10 111 63 174.5t137 63.5q48 0 88-25t82-59q34-28 66-50t61-22q46 0 77 36.5t48 119.5h76q-16-116-69-177t-132-61q-36 0-75 18.5t-101 71.5q-32 26-62.5 46t-62.5 20q-45 0-75-34.5t-48-121.5h-73z" horiz-adv-x="0" unicode="&#x303;"/><glyph d="M-748 1589v78q52 12 107 12 108 0 168.5-45.5t60.5-128.5q0-140-168-176l-10-121h-80l-10 178q89 15 129.5 43t40.5 72q0 48-33.5 72t-111.5 24q-48 0-93-8z" horiz-adv-x="0" unicode="&#x309;"/><glyph d="M-1012 1552v17h135q76-148 115.5-212t73.5-100v-16h-70q-57 50-131.5 142.5t-122.5 168.5zM-674 1552v17h135q79-154 118-216t71-96v-16h-70q-57 50-131.5 142.5t-122.5 168.5z" horiz-adv-x="0" unicode="&#x30f;"/><glyph d="M-662-227q0 96 64 96 31 0 48.5-25t17.5-71q0-45-17.5-71t-48.5-26q-64 0-64 97z" horiz-adv-x="0" unicode="&#x323;"/><glyph d="M530 1241v16q29 75 57 184t42 210h119v-17q-18-77-63-191t-97-202h-58z" horiz-adv-x="1182" unicode="&#x384;"/><glyph d="M309 1389q0 86 64 86 63 0 63-86t-63-86q-64 0-64 86zM526 1389v16q75 164 115 311h117v-18q-21-52-72.5-145t-101.5-164h-58zM745 1389q0 86 64 86 63 0 63-86t-63-86q-64 0-64 86z" horiz-adv-x="1182" unicode="&#x385;"/><glyph d="M0 0l588 1468h65l576-1468h-115l-203 516h-594l-204-516h-113zM354 608h523l-199 527q-25 62-60 172-27-96-59-174zM76 1136v16q29 75 57 184t42 210h119v-17q-18-77-63-191t-97-202h-58z" horiz-adv-x="1229" unicode="&#x386;"/><glyph d="M162 721q0 98 80 98 82 0 82-98t-82-98q-80 0-80 98z" horiz-adv-x="487" unicode="&#x387;"/><glyph d="M297 0v1462h799v-94h-697v-553h658v-94h-658v-627h697v-94h-799zM-40 1136v16q29 75 57 184t42 210h119v-17q-18-77-63-191t-97-202h-58z" horiz-adv-x="1221" unicode="&#x388;"/><glyph d="M297 0v1462h102v-649h854v649h103v-1462h-103v719h-854v-719h-102zM-40 1136v16q29 75 57 184t42 210h119v-17q-18-77-63-191t-97-202h-58z" horiz-adv-x="1563" unicode="&#x389;"/><glyph d="M293 0v1462h102v-1462h-102zM-40 1136v16q29 75 57 184t42 210h119v-17q-18-77-63-191t-97-202h-58z" horiz-adv-x="602" unicode="&#x38a;"/><glyph d="M141 735q0 349 175.5 549.5t479.5 200.5q306 0 479-201.5t173-550.5q0-348-174-550.5t-480-202.5q-305 0-479 202.5t-174 552.5zM252 733q0-314 140-485.5t402-171.5q264 0 403.5 170t139.5 487q0 316-139.5 484.5t-401.5 168.5q-261 0-402.5-170t-141.5-483zM-40 1136v16q29 75 57 184t42 210h119v-17q-18-77-63-191t-97-202h-58z" horiz-adv-x="1577" unicode="&#x38c;"/><glyph d="M240 1462h117l426-800 428 800h110l-487-897v-565h-105v557zM-40 1136v16q29 75 57 184t42 210h119v-17q-18-77-63-191t-97-202h-58z" horiz-adv-x="1321" unicode="&#x38e;"/><glyph d="M102 0v94h407q-133 118-205.5 224.5t-110.5 232-38 270.5q0 200 80 351t229.5 232 348.5 81q311 0 485-174t174-488q0-209-80.5-384t-269.5-345h403v-94h-565v72q215 175 308 350t93 405q0 262-146 414t-402 152q-251 0-399-151.5t-148-412.5q0-226 90.5-397.5t312.5-359.5v-72h-567zM-40 1136v16q29 75 57 184t42 210h119v-17q-18-77-63-191t-97-202h-58z" horiz-adv-x="1608" unicode="&#x38f;"/><glyph d="M166 303v784h98v-774q0-134 46.5-189.5t152.5-55.5q65 0 129 16v-84q-20-7-61-13.5t-78-6.5q-152 0-219.5 80t-67.5 243zM-50 1389q0 86 64 86 63 0 63-86t-63-86q-64 0-64 86zM167 1389v16q75 164 115 311h117v-18q-21-52-72.5-145t-101.5-164h-58zM386 1389q0 86 64 86 63 0 63-86t-63-86q-64 0-64 86z" horiz-adv-x="629" unicode="&#x390;"/><glyph d="M0 0l588 1468h65l576-1468h-115l-203 516h-594l-204-516h-113zM354 608h523l-199 527q-25 62-60 172-27-96-59-174z" horiz-adv-x="1229" unicode="&#x391;"/><glyph d="M207 0v1462h401q271 0 398-92t127-278q0-127-77.5-211.5t-226.5-108.5v-6q175-26 257.5-110.5t82.5-235.5q0-202-134-311t-380-109h-448zM309 90h344q406 0 406 330 0 301-428 301h-322v-631zM309 811h322q206 0 299.5 68.5t93.5 214.5-105.5 212-314.5 66h-295v-561z" horiz-adv-x="1284" unicode="&#x392;"/><glyph d="M207 0v1462h801v-94h-699v-1368h-102z" horiz-adv-x="1028" unicode="&#x393;"/><glyph d="M20 0v59l521 1403h80l528-1405v-57h-1129zM139 96h889q-391 1054-448 1219-53-153-441-1219z" unicode="&#x394;"/><glyph d="M207 0v1462h799v-94h-697v-553h658v-94h-658v-627h697v-94h-799z" horiz-adv-x="1130" unicode="&#x395;"/><glyph d="M82 0v76l856 1290h-817v96h954v-76l-858-1290h881v-96h-1016z" horiz-adv-x="1180" unicode="&#x396;"/><glyph d="M207 0v1462h102v-649h854v649h103v-1462h-103v719h-854v-719h-102z" horiz-adv-x="1473" unicode="&#x397;"/><glyph d="M129 735q0 349 175.5 549.5t479.5 200.5q306 0 479-201.5t173-550.5q0-348-174-550.5t-480-202.5q-305 0-479 202.5t-174 552.5zM240 733q0-314 140-485.5t402-171.5q264 0 403.5 170t139.5 487q0 316-139.5 484.5t-401.5 168.5q-261 0-402.5-170t-141.5-483zM449 698v95h665v-95h-665z" horiz-adv-x="1565" unicode="&#x398;"/><glyph d="M207 0v1462h102v-1462h-102z" horiz-adv-x="516" unicode="&#x399;"/><glyph d="M207 0v1462h102v-760l162 162 573 598h130l-599-618 615-844h-125l-561 772-195-172v-600h-102z" horiz-adv-x="1190" unicode="&#x39a;"/><glyph d="M0 0l596 1468h49l584-1468h-115l-436 1120q-23 60-60 172-29-100-59-174l-446-1118h-113z" horiz-adv-x="1229" unicode="&#x39b;"/><glyph d="M207 0v1462h158l518-1286h6l518 1286h154v-1462h-103v1108q0 116 12 240h-8l-547-1348h-65l-545 1350h-8q8-124 8-254v-1096h-98z" horiz-adv-x="1767" unicode="&#x39c;"/><glyph d="M207 0v1462h102l865-1296h6q-9 180-9 342v954h99v-1462h-103l-866 1298h-8q12-232 12-350v-948h-98z" horiz-adv-x="1477" unicode="&#x39d;"/><glyph d="M41 0v94h1006v-94h-1006zM82 1368v94h924v-94h-924zM164 721v94h760v-94h-760z" horiz-adv-x="1087" unicode="&#x39e;"/><glyph d="M129 735q0 349 175.5 549.5t479.5 200.5q306 0 479-201.5t173-550.5q0-348-174-550.5t-480-202.5q-305 0-479 202.5t-174 552.5zM240 733q0-314 140-485.5t402-171.5q264 0 403.5 170t139.5 487q0 316-139.5 484.5t-401.5 168.5q-261 0-402.5-170t-141.5-483z" horiz-adv-x="1565" unicode="&#x39f;"/><glyph d="M207 0v1462h1048v-1462h-102v1366h-844v-1366h-102z" horiz-adv-x="1462" unicode="&#x3a0;"/><glyph d="M207 0v1462h358q522 0 522-420 0-212-144-325t-408-113h-226v-604h-102zM309 692h201q247 0 357 81.5t110 264.5q0 169-104 250.5t-322 81.5h-242v-678z" horiz-adv-x="1198" unicode="&#x3a1;"/><glyph d="M61 0v84l533 676-520 620v82h964v-94h-647l-182 2 514-604-530-672h905v-94h-1037z" horiz-adv-x="1128" unicode="&#x3a3;"/><glyph d="M10 1366v96h1053v-96h-475v-1366h-103v1366h-475z" horiz-adv-x="1073" unicode="&#x3a4;"/><glyph d="M0 1462h117l426-800 428 800h110l-487-897v-565h-105v557z" horiz-adv-x="1081" unicode="&#x3a5;"/><glyph d="M111 758q0 156 70 281.5t201 194.5 310 69h37v180h102v-180h43q275 0 425.5-141t150.5-392q0-174-69.5-301t-206-195.5-332.5-68.5h-11v-225h-102v225h-18q-193 0-327.5 68t-203.5 191-69 294zM221 764q0-227 128.5-351t363.5-124h16v930h-41q-219 0-343-122t-124-333zM831 289h15q236 0 364.5 124.5t128.5 352.5q0 219-120 336t-345 117h-43v-930z" horiz-adv-x="1561" unicode="&#x3a6;"/><glyph d="M0 0l492 762-447 700h115l395-626 401 626h109l-453-698 490-764h-117l-432 682-440-682h-113z" horiz-adv-x="1102" unicode="&#x3a7;"/><glyph d="M123 979v483h102v-479q0-226 117-333t356-107h23v919h102v-919h23q239 0 356 107t117 333v479h102v-483q0-265-146-395.5t-425-130.5h-27v-453h-102v453h-27q-280 0-425.5 130.5t-145.5 395.5z" horiz-adv-x="1565" unicode="&#x3a8;"/></font>
</defs>
</svg>
