<svg height="115" viewBox="0 0 395 115" width="395" xmlns="http://www.w3.org/2000/svg"><g fill="none" fill-rule="evenodd"><path d="m168.593079 31.9627423c-1.054938-.9563077-2.402439-1.5230481-3.828954-1.5230481-3.106087 0-5.880103 2.4793558-5.880103 5.8979423 0 3.4559423 2.853029 5.8958077 5.880103 5.8958077 1.641132 0 2.930975-.6040961 3.965626-1.5806827l1.191609 1.3469423c-1.328281 1.210327-3.282265 1.9926635-5.157235 1.9926635-5.039784 0-7.872526-3.9842596-7.872526-7.6547308 0-3.6715384 2.832742-7.6547307 7.872526-7.6547307 1.973203 0 3.906899.8004807 5.098509 1.8934038zm10.778088 5.9358317c-.176178-1.678875-1.542899-2.9094807-3.359143-2.9094807-2.149382 0-3.1851 1.523048-3.360212 2.9094807zm1.5429 3.8871347c-1.366721 1.5219807-2.812455 2.206125-4.59026 2.206125-3.613268 0-5.548032-2.6170385-5.548032-5.331202 0-2.8902692 2.071436-5.3119904 5.255468-5.3119904 3.144526 0 5.332347 2.4025097 5.332347 5.9950674h-8.711778c.273345 1.7375769 1.679572 3.007673 3.652776 3.007673 1.250336 0 2.362932-.5859519 3.261978-1.6404519zm2.26203-8.2021529h1.757518v1.4451346h.039506c.878759-1.58175 1.719079-1.6799423 3.20432-1.6799423v1.8560481c-.254124-.058702-.528536-.0981924-.800813-.0981924-1.464954 0-2.443013 1.016077-2.443013 2.8699904v5.7805385h-1.757518zm6.698427-2.4598241h1.757518v2.4601443h1.621913v1.5422596h-1.621913v6.2480192c0 .5475289.176179.7428462.859539.7428462h.801881v1.620173c-.254125.0202789-.664141.0202789-1.075225.0202789-1.797025 0-2.343713-.6254423-2.343713-2.1869135v-6.4444038h-1.406228v-1.5422596h1.406228zm4.978815 12.6336145h1.757517v-10.173577h-1.757517zm.878759-14.6253174c.684428 0 1.231116.5464616 1.231116 1.2295385 0 .6841442-.546688 1.2306058-1.231116 1.2306058-.683361 0-1.230049-.5464616-1.230049-1.2306058 0-.6830769.546688-1.2295385 1.230049-1.2295385zm3.768946 2.9089472c0-2.1282116 1.464954-3.1432212 3.496883-3.2414135v1.7567885h-.352357c-.897979 0-1.387008.7225673-1.387008 1.6212403v1.4056443h1.66142v1.5433269h-1.66142v8.6313173h-1.757518v-8.6313173h-1.5429v-1.5433269h1.5429zm4.842463 11.7163702h1.757517v-10.173577h-1.757517zm.878759-14.6253174c.684428 0 1.231116.5464616 1.231116 1.2295385 0 .6841442-.546688 1.2306058-1.231116 1.2306058-.683361 0-1.230049-.5464616-1.230049-1.2306058 0-.6830769.546688-1.2295385 1.230049-1.2295385zm11.328834 8.7665452c-.176179-1.678875-1.542899-2.9094807-3.359143-2.9094807-2.149382 0-3.185101 1.523048-3.360212 2.9094807zm1.5429 3.8871347c-1.366721 1.5219807-2.812455 2.206125-4.59026 2.206125-3.614336 0-5.548033-2.6170385-5.548033-5.331202 0-2.8902692 2.071437-5.3119904 5.255469-5.3119904 3.144526 0 5.332347 2.4025097 5.332347 5.9950674h-8.711778c.273344 1.7375769 1.679572 3.007673 3.652775 3.007673 1.250336 0 2.362933-.5859519 3.261979-1.6404519zm7.341106-6.7960818c-2.383219 0-3.731788 1.8934039-3.731788 3.5925577 0 2.3438077 1.817311 3.7686635 3.673062 3.7686635 2.01271 0 3.652775-1.6404519 3.652775-3.6704712 0-2.0502981-1.679572-3.69075-3.594049-3.69075zm3.594049-6.0719134h1.758585v14.8398461h-1.758585v-1.5625384h-.038439c-.742087 1.0545-2.03193 1.7973461-3.790515 1.7973461-2.832742 0-5.370786-2.2264038-5.370786-5.4293942 0-2.9286923 2.421659-5.2137981 5.293908-5.2137981 1.503393 0 3.027073.6254423 3.867393 1.8357692h.038439z" fill="#929291"/><g fill="#919191"><path d="m170.489404 52.6919923-13.597805 33.4312789h4.620157l3.036683-7.787077h15.578482l3.035616 7.787077h4.621225l-13.597805-33.4312789zm1.848276 5.5414615 6.3371 16.4087885h-12.6742zm35.287772 4.0033645c-.572314-3.9586443-2.860504-6.3782308-6.425724-6.3782308-4.752558 0-6.02852 3.1229423-6.02852 5.4101827 0 2.5081731 1.584542 4.0909904 4.884959 5.3237308l4.22509 1.5828173c5.323805 1.9798557 7.789241 5.102798 7.789241 9.1500288 0 5.4101827-4.312645 9.3250673-10.738368 9.3250673-6.073366 0-10.384944-3.2115288-10.91348-9.8971442h4.225089c.35129 3.6501923 2.199567 6.202125 6.908347 6.202125 3.652775 0 6.293323-2.331 6.293323-5.2789039 0-2.594625-2.155789-4.2660288-5.192472-5.4539423l-4.268867-1.6714038c-4.973583-1.9360962-7.436884-4.8391731-7.436884-9.1500289 0-5.7623942 4.796336-9.237548 10.297388-9.237548 5.544829 0 9.857474 3.299048 10.341165 10.07325zm25.255934 0c-.572314-3.9586443-2.860504-6.3782308-6.425724-6.3782308-4.752558 0-6.02852 3.1229423-6.02852 5.4101827 0 2.5081731 1.584542 4.0909904 4.884959 5.3237308l4.22509 1.5828173c5.323805 1.9798557 7.789241 5.102798 7.789241 9.1500288 0 5.4101827-4.312645 9.3250673-10.738369 9.3250673-6.073365 0-10.384943-3.2115288-10.913479-9.8971442h4.225089c.35129 3.6501923 2.199567 6.202125 6.908347 6.202125 3.652775 0 6.293323-2.331 6.293323-5.2789039 0-2.594625-2.155789-4.2660288-5.192472-5.4539423l-4.268867-1.6714038c-4.973583-1.9360962-7.436884-4.8391731-7.436884-9.1500289 0-5.7623942 4.796336-9.237548 10.297388-9.237548 5.544829 0 9.857474 3.299048 10.341165 10.07325zm26.179111 20.454525c6.820791 0 13.245447-5.3664231 13.245447-13.2837116 0-7.9183557-6.424656-13.2847788-13.245447-13.2847788s-13.245447 5.3664231-13.245447 13.2847788c0 7.9172885 6.424656 13.2837116 13.245447 13.2837116m0-30.528202c11.353393 0 17.734271 8.9739231 17.734271 17.2444904 0 8.2695-6.380878 17.2423558-17.734271 17.2423558s-17.734271-8.9728558-17.734271-17.2423558c0-8.2705673 6.380878-17.2444904 17.734271-17.2444904m48.488801 7.3908924c-2.376813-2.1559616-5.412429-3.4313943-8.62529-3.4313943-6.996971 0-13.245448 5.5873558-13.245448 13.2847789 0 7.7860096 6.424656 13.2837115 13.245448 13.2837115 3.696552 0 6.600834-1.3629519 8.93387-3.5626731l2.683257 3.0354231c-2.991837 2.7269712-7.393106 4.4869615-11.617127 4.4869615-11.353393 0-17.734271-8.973923-17.734271-17.243423 0-8.2705673 6.380878-17.2434231 17.734271-17.2434231 4.443978 0 8.801468 1.80375 11.485794 4.2670961z"/><path d="m314.761 86.123h4.225v-33.431h-4.225z"/><path d="m338.434306 58.2338808-6.3371 16.4077211h12.674201zm7.789241 20.1027404h-15.578482l-3.036683 7.7860096h-4.620157l13.597805-33.4312789h3.696553l13.597805 33.4312789h-4.620158z"/></g><path d="m137.038555 112.163231c-.239888 0-.434219-.288579-.434219-.644811v-108.8736095c0-.35623138.194331-.6448105.434219-.6448105s.434218.28857912.434218.6448105v108.8736095c0 .356232-.19433.644811-.434218.644811" fill="#bfbfbf"/><path d="m106.624033 49.0707091c0-5.6788093 3.976303-8.3867167 9.488032-8.6476322v4.6881622h-.954569c-2.437675 0-3.762753 1.9282796-3.762753 4.3243358v3.7505298h4.505907v4.1153956h-4.505907v23.0250093h-4.77071v-23.0250093h-4.187719v-4.1153956h4.187719zm-16.7241793 15.1773464c0-4.6333421-2.7558645-6.6931761-6.0424011-6.6931761-3.9763035 0-6.9435827 2.419406-6.9435827 6.8996731v16.2166975h-4.77071v-16.4231945c0-4.6333421-2.7558645-6.6931761-6.0424011-6.6931761-3.9752358 0-6.9435826 2.419406-6.9435826 6.8996731v16.2166975h-4.7696423v-26.8230443h4.7696423v3.1919721h.1057073c1.2727588-2.7286379 4.7173225-3.8094086 7.6333496-3.8094086 2.8081842 0 5.8833062.7201714 8.1629539 4.6333422 1.6955881-3.3984692 5.3526341-4.6333422 9.0096802-4.6333422 5.9377615 0 10.6016965 3.4488092 10.6016965 10.5025846v16.9378962h-4.77071zm-57.8688835 2.276691c-5.8309865 0-7.7913767 2.7309771-7.7913767 5.3591314 0 2.6281542 1.9603902 5.3591313 7.7913767 5.3591313 5.8309864 0 7.7924444-2.7309771 7.7924444-5.3591313 0-2.6281543-1.961458-5.3591314-7.7924444-5.3591314zm7.6333496-3.8126744c0-4.4316685-4.5582277-5.4105429-8.2686613-5.4105429-2.5967696 0-5.0355122.6179659-7.6333496 1.8549258l-2.0671653-3.8640859c4.1877182-1.7006914 7.473187-2.0615999 9.9653171-2.0615999 6.6264607 0 12.7745691 2.7309772 12.7745691 9.1203944v18.3436116h-4.4525203v-2.8852116c-2.4387426 2.4728916-5.1422873 3.5042056-8.7993333 3.5042056-6.7311003 0-12.0314147-3.65844-12.0314147-9.6365654 0-4.8943717 4.2923577-9.2232173 11.9790949-9.2232173 2.9149593 0 5.9890135.8246399 8.5334634 3.0404742zm-29.5510678-21.2216517c1.8557507-.0083677 3.3452629 1.4528352 3.3538049 3.2874451.008542 1.8346098-1.4681572 3.3083642-3.3239078 3.3167319-1.85468298.0083676-3.34633067-1.4528353-3.35487268-3.2874451-.00747425-1.8346099 1.46922494-3.3083643 3.32497558-3.3167319zm-2.3308997 11.9615723 4.77071-.0209191.1409431 30.816006c0 7.1135584-4.6863577 9.5140314-9.94716529 9.5318127h-1.72655285l-.02028726-4.4442744c1.28236856.0418384 1.73082385.0418384 1.76285637.0418384 4.67247696-.0345166 5.16257452-2.5573666 5.16257452-4.8940362z" fill="#444"/><g fill="#919191"><path d="m359.958 56.651h-8.362v-3.959h20.947v3.959h-8.36v29.471h-4.225z"/><path d="m376.808 52.692h17.295v3.958h-13.071v10.602h13.071v3.958h-13.071v10.953h13.071v3.96h-17.295z"/></g></g></svg>