<svg height="24" viewBox="0 0 24 24" width="24" xmlns="http://www.w3.org/2000/svg"><g fill="none" fill-rule="evenodd"><path d="m0 0h24v24h-24z"/><g fill="#335eea"><path d="m5.747 11.043a6 6 0 1 1 9.064-6.543h2.439a3.75 3.75 0 0 1 0 7.5h-9c-.962 0-1.84-.362-2.503-.957z"/><path d="m4 14v2h13.5a1.5 1.5 0 0 1 1.5 1.5v.5a1 1 0 0 1 -2 0v-1h-2v1a3 3 0 0 0 6 0v-.5a3.5 3.5 0 0 0 -3.5-3.5z" opacity=".3"/><path d="m4 17v2h6.5a1.5 1.5 0 0 1 1.5 1.5v.5a1 1 0 0 1 -2 0v-1h-2v1a3 3 0 0 0 6 0v-.5a3.5 3.5 0 0 0 -3.5-3.5z" opacity=".3"/></g></g></svg>