<svg fill="none" height="40" viewBox="0 0 135 40" width="135" xmlns="http://www.w3.org/2000/svg" xmlns:xlink="http://www.w3.org/1999/xlink"><linearGradient id="a" gradientUnits="userSpaceOnUse" x1="21.7099" x2="1.93551" y1="8.70654" y2="13.9538"><stop offset="0" stop-color="#00a0ff"/><stop offset=".00657" stop-color="#00a1ff"/><stop offset=".2601" stop-color="#00beff"/><stop offset=".5122" stop-color="#00d2ff"/><stop offset=".7604" stop-color="#00dfff"/><stop offset="1" stop-color="#00e3ff"/></linearGradient><linearGradient id="b" gradientUnits="userSpaceOnUse" x1="33.6957" x2="9.59802" y1="20" y2="20"><stop offset="0" stop-color="#ffe000"/><stop offset=".4087" stop-color="#ffbd00"/><stop offset=".7754" stop-color="#ffa500"/><stop offset="1" stop-color="#ff9c00"/></linearGradient><linearGradient id="c" gradientUnits="userSpaceOnUse" x1="24.7244" x2="8.76156" y1="22.2973" y2="49.0538"><stop offset="0" stop-color="#ff3a44"/><stop offset="1" stop-color="#c31162"/></linearGradient><linearGradient id="d" gradientUnits="userSpaceOnUse" x1="7.26459" x2="14.3863" y1=".178683" y2="12.1286"><stop offset="0" stop-color="#32a071"/><stop offset=".0685" stop-color="#2da771"/><stop offset=".4762" stop-color="#15cf74"/><stop offset=".8009" stop-color="#06e775"/><stop offset="1" stop-color="#00f076"/></linearGradient><path clip-rule="evenodd" d="m129.998 40h-124.99616c-2.75672 0-5.00184-2.2544-5.00184-5v-30c0-2.75561 2.24512-5 5.00184-5h124.99616c2.754 0 5.002 2.24439 5.002 5v30c0 2.7456-2.248 5-5.002 5z" fill="#000" fill-rule="evenodd"/><path clip-rule="evenodd" d="m129.998.800499c2.312 0 4.205 1.887781 4.205 4.199501v30c0 2.3117-1.88 4.1995-4.205 4.1995h-124.99616c-2.31217 0-4.204625-1.8878-4.204625-4.1995v-30c0-2.31172 1.880035-4.199501 4.204625-4.199501zm0-.800499h-124.99616c-2.75672 0-5.00184 2.25436-5.00184 5v30c0 2.7556 2.24512 5 5.00184 5h124.99616c2.754 0 5.002-2.2444 5.002-5v-30c0-2.74564-2.248-5-5.002-5z" fill="#a6a6a6" fill-rule="evenodd"/><path d="m71.1186 13.232c-.9015 0-1.6615-.3167-2.2625-.9402-.5961-.606-.9289-1.4414-.914-2.29425 0-.91023.308-1.6808.914-2.29177.5985-.62345 1.3585-.94016 2.26-.94016.8916 0 1.6516.31671 2.2625.94016.606.63092.9139 1.40149.9139 2.29177-.0099.91275-.3178 1.68325-.9139 2.29175-.5985.6284-1.3585.9427-2.26.9427zm-26.8247 0c-.8816 0-1.6466-.3118-2.2724-.9277-.6209-.6135-.9363-1.389-.9363-2.3043 0-.91517.3154-1.69073.9363-2.3042.6134-.61596 1.3784-.92768 2.2724-.92768.4371 0 .8618.08728 1.2691.26434.3999.17207.7252.40648.9661.69326l.0596.07232-.673.66335-.0696-.0823c-.3799-.45386-.8891-.67581-1.5621-.67581-.601 0-1.125.21447-1.5572.63841-.4346.42643-.6556.98503-.6556 1.66081 0 .6758.221 1.2344.6556 1.6609.4322.4239.9562.6384 1.5572.6384.6407 0 1.1797-.2145 1.5994-.6384.2483-.2494.4023-.5985.457-1.0399h-2.1582v-.93269h3.0845l.0124.08479c.0224.15711.0447.3192.0447.4688 0 .8604-.2582 1.5561-.7699 2.0699-.5811.6084-1.3411.9177-2.26.9177zm35.6661-.1322h-.9512l-2.9132-4.68081.0248.84289v3.83542h-.9512v-6.19701h1.0853l.0298.04738 2.7394 4.40893-.0249-.8404v-3.61591h.9612zm-15.989 0h-.9636v-5.26684h-1.6715v-.93267h4.304v.93267h-1.6714v5.26684zm-3.4198 0h-.9612v-6.19951h.9612zm-5.4017 0h-.9612v-5.26684h-1.6714v-.93267h4.304v.93267h-1.6714zm-3.241-.01h-3.6856v-6.18951h3.6856v.93267h-2.722v1.70074h2.4562v.9227h-2.4562v1.7007h2.722zm17.6529-1.4389c.4297.4314.9512.6484 1.5572.6484.6234 0 1.1325-.212 1.5572-.6484.4222-.4239.6358-.98.6358-1.6509 0-.67078-.2136-1.22939-.6334-1.65083-.4296-.43143-.9536-.64838-1.5571-.64838-.6234 0-1.1325.21197-1.5547.64838-.4222.42394-.6358.98005-.6358 1.65083 0 .6709.2111 1.2295.6308 1.6509z" fill="#fff"/><g clip-rule="evenodd" fill-rule="evenodd"><path d="m67.8526 21.7557c-2.3469 0-4.2493 1.788-4.2493 4.2543 0 2.4439 1.9148 4.2544 4.2493 4.2544 2.3469 0 4.2493-1.8005 4.2493-4.2544 0-2.4663-1.9024-4.2543-4.2493-4.2543zm0 6.8229c-1.284 0-2.3892-1.0673-2.3892-2.5785 0-1.5337 1.1077-2.5786 2.3892-2.5786 1.284 0 2.3892 1.0449 2.3892 2.5786.0025 1.5211-1.1052 2.5785-2.3892 2.5785zm-9.2711-6.8229c-2.3469 0-4.2493 1.788-4.2493 4.2543 0 2.4439 1.9148 4.2544 4.2493 4.2544 2.347 0 4.2494-1.8005 4.2494-4.2544 0-2.4663-1.9049-4.2543-4.2494-4.2543zm0 6.8229c-1.2839 0-2.3891-1.0673-2.3891-2.5785 0-1.5337 1.1076-2.5786 2.3891-2.5786 1.284 0 2.3892 1.0449 2.3892 2.5786 0 1.5211-1.1052 2.5785-2.3892 2.5785zm-11.0319-5.5237v1.8005h4.304c-.1316 1.01-.4644 1.7556-.9735 2.2668-.6308.6335-1.6044 1.3217-3.3205 1.3217-2.645 0-4.7138-2.1446-4.7138-4.8005 0-2.6558 2.0688-4.8005 4.7138-4.8005 1.428 0 2.4686.5661 3.241 1.2893l1.2716-1.2768c-1.0729-1.0324-2.5009-1.8229-4.5027-1.8229-3.6284 0-6.6733 2.9676-6.6733 6.601 0 3.6434 3.0424 6.601 6.6733 6.601 1.9595 0 3.4298-.6434 4.5921-1.8554 1.1846-1.1895 1.5597-2.8678 1.5597-4.2219 0-.4215-.0323-.8005-.0994-1.1222h-6.0747c.0024-.0025.0024.0199.0024.0199zm45.1235 1.4015c-.3551-.9551-1.428-2.7107-3.6284-2.7107-2.1806 0-3.9936 1.7232-3.9936 4.2544 0 2.389 1.7931 4.2543 4.2047 4.2543 1.9371 0 3.0646-1.1895 3.5291-1.8878l-1.438-.9675c-.4768.7107-1.1399 1.177-2.0812 1.177-.9512 0-1.6168-.4339-2.0589-1.2893l5.665-2.3566c0 .0025-.1987-.4738-.1987-.4738zm-5.7767 1.4215c-.0447-1.6434 1.2716-2.4788 2.2128-2.4788.7426 0 1.361.3665 1.5721.9002zm-4.602 4.1222h1.8602v-12.4988h-1.8602zm-3.0548-7.2993h-.067c-.4197-.5012-1.217-.9551-2.2352-.9551-2.1135 0-4.0606 1.8678-4.0606 4.2668 0 2.389 1.9372 4.2344 4.0606 4.2344 1.0058 0 1.8155-.4563 2.2352-.9675h.067v.6109c0 1.6235-.8642 2.4988-2.2575 2.4988-1.1399 0-1.8478-.823-2.1359-1.5112l-1.6167.6783c.4644 1.1222 1.7037 2.5112 3.7501 2.5112 2.1806 0 4.0283-1.2893 4.0283-4.4339v-7.6334h-1.7583v.7007zm-2.1358 5.8778c-1.284 0-2.3569-1.0773-2.3569-2.5661 0-1.5012 1.0729-2.5885 2.3569-2.5885 1.2716 0 2.2575 1.0997 2.2575 2.5885.0124 1.4888-.9835 2.5661-2.2575 2.5661zm24.2792-11.0773h-4.4481v12.4988h1.8601v-4.7332h2.59c2.059 0 4.083-1.4988 4.083-3.8778 0-2.3791-2.016-3.8878-4.085-3.8878zm.055 6.0199h-2.6454v-4.2892h2.6454c1.393 0 2.18 1.1546 2.18 2.1446 0 .9801-.797 2.1446-2.18 2.1446zm11.486-1.788c-1.351 0-2.744.601-3.321 1.9102l1.649.6883c.356-.6883 1.006-.9227 1.694-.9227.964 0 1.937.5786 1.96 1.611v.1322c-.333-.1896-1.063-.4788-1.937-.4788-1.781 0-3.587.9775-3.587 2.8104 0 1.6783 1.461 2.7557 3.087 2.7557 1.25 0 1.938-.5661 2.367-1.222h.067v.9676h1.793v-4.788c0-2.2295-1.649-3.4639-3.772-3.4639zm-.234 6.8454c-.608 0-1.46-.2992-1.46-1.0673 0-.9676 1.063-1.3342 1.97-1.3342.819 0 1.207.1771 1.693.4215-.134 1.1221-1.078 1.97-2.203 1.98zm10.548-6.5785-2.136 5.4214h-.067l-2.213-5.4214h-2.001l3.32 7.5785-1.892 4.212h1.937l5.108-11.7905zm-16.744 8h1.86v-12.4988h-1.86z" fill="#fff"/><path d="m10.3915 7.53364c-.2881.31172-.45449.78803-.45449 1.41147v22.11219c0 .6235.16639 1.0998.46439 1.399l.077.0674 12.3382-12.3891v-.2768l-12.3481-12.39149z" fill="url(#a)"/><path d="m26.9216 24.2768-4.1152-4.1322v-.2893l4.1152-4.1322.0894.0549 4.8678 2.7781c1.3933.788 1.3933 2.0897 0 2.8877l-4.8678 2.7781z" fill="url(#b)"/><path d="m27.0107 24.2219-4.2047-4.2219-12.4151 12.4663c.4545.4888 1.2169.5437 2.0688.0674z" fill="url(#c)"/><path d="m27.0107 15.7779-14.551-8.29921c-.8519-.48877-1.6168-.42144-2.0688.06734l12.4151 12.45387z" fill="url(#d)"/><path d="m26.9217 24.1323-14.4518 8.2444c-.8071.4663-1.5274.4339-1.9918.01l-.077.0773.077.0673c.4644.4214 1.1847.4564 1.9918-.01l14.5511-8.2992z" fill="#000" opacity=".2"/><path d="m31.8787 21.2993-4.9695 2.8329.0894.0897 4.8677-2.778c.6979-.399 1.0406-.9227 1.0406-1.4439-.0422.4788-.3974.9327-1.0282 1.2993z" fill="#000" opacity=".12"/><path d="m12.4603 7.62354 19.4187 11.07726c.6309.3567.986.823 1.0406 1.2993 0-.5212-.3427-1.0449-1.0406-1.4439l-19.4187-11.0773c-1.3933-.8005-2.52329-.13217-2.52329 1.46633v.14464c0-1.601 1.12999-2.25686 2.52329-1.46633z" fill="#fff" opacity=".25"/></g></svg>