<svg viewBox="0 0 330.78 347.55" xmlns="http://www.w3.org/2000/svg"><path d="m222.1 56v284.59a7 7 0 0 1 -7 7h-208.1a7 7 0 0 1 -7-7v-284.59a7 7 0 0 1 7-7h208.14a7 7 0 0 1 6.96 7z" fill="#585afa"/><path d="m222.1 127.73v212.86a7 7 0 0 1 -7 7h-208.1a7 7 0 0 1 -7-7v-96.06z" fill="#3836bd"/><path d="m171.01 324.91h-152.87v-255.05h185.82v220.82z" fill="#f5f5fd"/><path d="m171.01 324.91v-34.23h32.95z" fill="#aaafd7"/><g fill="none" stroke-linecap="round" stroke-linejoin="round"><g stroke-width="1.97"><g stroke="#92cdf5"><path d="m73.69 131.54h56.89"/><path d="m73.69 148.78h20.29"/><path d="m104.69 148.78h48.39"/><path d="m82.03 140.16h91.65"/><path d="m188.58 131.54h-40.68"/></g><path d="m39.58 131.54h21.71v21.71h-21.71z" stroke="#3836bd"/></g><path d="m46.88 140.17 4.9 5.11 18.72-13.74" stroke="#f2516c" stroke-width="4"/><g stroke-width="1.97"><g stroke="#92cdf5"><path d="m73.69 167.06h18.49"/><path d="m73.69 184.3h13.09"/><path d="m104.69 184.3h58.82"/><path d="m82.03 175.68h34.35"/><path d="m125.48 175.68h60.14"/><path d="m139.9 167.06h-35.21"/></g><path d="m39.58 165.07h21.71v21.71h-21.71z" stroke="#3836bd"/></g><path d="m46.88 174.29 4.9 5.11 18.72-13.74" stroke="#f2516c" stroke-width="4"/><g stroke-width="1.97"><g stroke="#92cdf5"><path d="m73.69 202.58h31"/><path d="m73.69 219.82h58.37"/><path d="m147.48 219.82h31.18"/><path d="m82.03 211.2h39.16"/><path d="m172.89 211.2h-32.99"/><path d="m188.58 202.58h-72.2"/></g><path d="m39.58 198.6h21.71v21.71h-21.71z" stroke="#3836bd"/></g><path d="m46.88 207.23 4.9 5.11 18.72-13.74" stroke="#f2516c" stroke-width="4"/><g stroke-width="1.97"><g stroke="#92cdf5"><path d="m73.69 238.09h56.89"/><path d="m73.69 255.33h20.29"/><path d="m104.69 255.33h48.39"/><path d="m82.03 246.71h91.65"/><path d="m188.58 238.09h-40.68"/></g><path d="m39.58 232.13h21.71v21.71h-21.71z" stroke="#3836bd"/></g><path d="m46.88 240.17 4.9 5.11 18.72-13.75" stroke="#f2516c" stroke-width="4"/></g><path d="m171.19 39.55h-26.69a7.37 7.37 0 0 1 -7.34-8.5 26.54 26.54 0 0 0 -25.78-31.05 26.5 26.5 0 0 0 -26.83 26.5 26.88 26.88 0 0 0 .28 3.83 8.11 8.11 0 0 1 -8.07 9.21h-25.85a7.31 7.31 0 0 0 -7.18 7.31v22.24a7.3 7.3 0 0 0 4 6.51 7.14 7.14 0 0 0 3.19.8h120.27a7.31 7.31 0 0 0 7.18-7.31v-22.23a7.31 7.31 0 0 0 -7.18-7.31zm-60.14-27.5a14.45 14.45 0 1 1 -14.45 14.45 14.45 14.45 0 0 1 14.45-14.45z" fill="#ffc6c2"/><path d="m178.37 46.86v22.23a7.31 7.31 0 0 1 -7.18 7.31h-120.28a7.14 7.14 0 0 1 -3.19-.8l103.45-36.06h20a7.31 7.31 0 0 1 7.2 7.32z" fill="#ffa69b"/><g fill="none" stroke="#ffdad9" stroke-linecap="round" stroke-linejoin="round" stroke-width="2"><path d="m52.43 46.65h117.24"/><path d="m52.43 53.67h117.24"/><path d="m52.43 60.68h117.24"/></g><path d="m236.75 92-3.11 12.77s16.25 10.85 25.15-6.39l-10-12.5z" fill="#ffc6c2"/><path d="m230.45 196.4-12.74 67.42 55.58 54.15 8.33-10.44-33.78-48.8 9.27-70.27z" fill="#70bce5"/><path d="m252.49 190.08 30.19-10.58-27.41 143.5-14.96-2.14z" fill="#70bce5"/><path d="m255.88 197.77-8.04 60.96-7.45-5.9z" fill="#29a0c1"/><path d="m243.3 288.75 12.68 30.54 2.8-14.63z" fill="#29a0c1"/><path d="m233.88 98.73s12.9 17 24.28-2.36l24.52 9.63 9.4 26-14.26 9.22-4.62-14.42-2.55 24 14.19 33.86-54.39 11.74-14.45-66.13-6.76 3.11-8.19-15.51 19.11-14.87z" fill="#585afa"/><path d="m209.25 133.38-8.19-15.51-6.24 5.91 3.51-24.41 11.71-17.33-11.05-8.26-6.5 5.51-1.89-4.35-2.86 1.85 5.42 8.61-13.08 40.44 3.02 17.23z" fill="#ffc6c2"/><path d="m217.18 194.86-12.08 13.85h17.24z" fill="#ffa69b"/><path d="m235.59 96.78 10.63 2.31 3.8-11.68-1.2-1.51-12.07 6.11z" fill="#ffa69b"/><g fill="#ffc6c2"><path d="m229.03 80.18 6.84 13.71 9.31.72 5.49-8.16-7.46-18.86-16.68 6.51z"/><circle cx="230.78" cy="83.22" r="2.12" transform="matrix(.96097252 -.27664384 .27664384 .96097252 -14.02 67.09)"/><circle cx="246.33" cy="76.56" r="2.12" transform="matrix(.96097252 -.27664384 .27664384 .96097252 -11.57 71.14)"/></g><path d="m237.54 84.19h8.28a0 0 0 0 1 0 0v1.93a2.21 2.21 0 0 1 -2.21 2.21h-3.85a2.21 2.21 0 0 1 -2.21-2.21v-1.93a0 0 0 0 1 -.01 0z" fill="#fff" transform="matrix(.91368738 -.40641773 .40641773 .91368738 -14.2 105.67)"/><path d="m237.44 75.02-.4 8.7 4.76-1.29z" fill="#ffa69b"/><path d="m246.33 76.56s2.25-2.14-1.37-10.74c0 0-1.24-1.9-3.16-1.63 0 0-4-6.88-15-1.72 0 0-14.92 6.75 2.64 18.63 0 0 3.92 1.28 6.48-6.87a6.42 6.42 0 0 1 5.17-4.46c1.41-.2 2.75 0 3.28 1.39z" fill="#3836bd"/><path d="m273.2 126.75-11.71 25.29 13.13 35.89 10.22-3.28-14.19-33.86z" fill="#3836bd"/><path d="m217.18 194.86 99.43-41.06 6.15 14.92-100.42 39.99z" fill="#f2516c"/><path d="m316.61 153.8 3-1.24a8.07 8.07 0 0 1 10.52 4.39 8.07 8.07 0 0 1 -4.4 10.54l-3 1.23z" fill="#ffa69b"/><path d="m216.01 130.27 2.65-17.1-9.41 20.21z" fill="#3836bd"/><path d="m198.33 99.37-7.19 23.91 3.68.5z" fill="#ffa69b"/><path d="m322.76 168.72-100.42 39.99-1.4-3.76 100.56-39.29z" fill="#db3e5f"/><path d="m274.62 187.93 10.22-28.17-7.02-18.6 14.26-9.22 9.89 26.18-13.95 27.06-8.68 11.78-10.39.81-5.55-5.42z" fill="#ffc6c2"/><path d="m274.62 187.93-5.67 9.84-5.55-5.42z" fill="#ffa69b"/><path d="m274.93 315.91 2.07 15.21-4.39 11.44 5.7 4.99 15.94-32.22-13.64-6.54z" fill="#2c218a"/><path d="m242.82 321.22-1.53 5.12-3.28 7.77 3.28 12.89h8.09l5.68-9.66-4.05-9.43.35-5.47z" fill="#2c218a"/><g fill="#3836bd"><path d="m278.05 312 3.57 15.32-7.65 16.44-1.36-1.2 3.99-14.39-1.67-12.26z"/><path d="m244.53 321.46-2.61 11.52 1.31 7.62h4.36l2.07-7.84-1.44-10.77z"/></g></svg>