<svg viewBox="0 0 266.7 287.89" xmlns="http://www.w3.org/2000/svg"><path d="m63.32 224.26-1.64-14.07a106.47 106.47 0 0 0 -28 5.34l13.22 11.86a68.79 68.79 0 0 1 16.42-3.13z" fill="#d4ecff"/><path d="m63.32 216.9-1.64-14.07a106.48 106.48 0 0 0 -28 5.34l13.22 11.83a68.77 68.77 0 0 1 16.42-3.1z" fill="#f9bf30"/><path d="m63.32 187.07-16.1.72-.32 2.42v29.82l12.52-4.73 3.9 1.6z" fill="#f9bf30"/><path d="m33.66 178.34v29.83l13.24 11.86v-29.82z" fill="#e8a200"/><path d="m63.32 187.07-1.64-14.07a106.48 106.48 0 0 0 -28 5.34l13.22 11.87a68.79 68.79 0 0 1 16.42-3.14z" fill="#fdd762"/><path d="m68.32 224c10.75-.07 21.52 2.1 30.06 6.51l17.26-10c-13.74-7.38-31.43-10.92-49-10.61z" fill="#d4ecff"/><path d="m68.32 216.71c10.75-.07 21.52 2.1 30.06 6.51l17.26-10c-13.74-7.38-31.43-10.92-49-10.61z" fill="#d3008d"/><path d="m68.32 216.71v-10.3l-1.64-14.07v10.3z" fill="#cc0293"/><path d="m98.38 212.92-19.23-17.28-10.83 10.77v10.3l27.96-.18 2.1 6.69z" fill="#d3008d"/><path d="m115.63 202.96v10.29l-17.25 9.97v-10.3z" fill="#d3008d"/><path d="m68.32 206.41c10.75-.07 21.52 2.1 30.06 6.51l17.26-10c-13.74-7.38-31.43-10.92-49-10.61z" fill="#ff2c9c"/><path d="m31 262.91c-10.55-9.88-8.42-23 6.41-31.57a47.14 47.14 0 0 1 5.29-2.61l-13.23-11.85a74 74 0 0 0 -9.33 4.5c-23.32 13.47-26.39 34.2-9.21 49.62z" fill="#d4ecff"/><path d="m31 255.77c-10.55-9.88-8.42-23 6.41-31.57a47.13 47.13 0 0 1 5.29-2.61l-13.23-11.84a74 74 0 0 0 -9.33 4.5c-23.33 13.47-26.39 34.2-9.21 49.58z" fill="#b45ef4"/><path d="m42.69 203.27v18.33l-11.69 4.35s-15.2-8.3-15.2-8.49 2.57-17.77 4.44-18.56 22.45 4.37 22.45 4.37z" fill="#b45ef4"/><path d="m30.98 255.77v-18.33l-20.05 8.06v18.33z" fill="#983be9"/><path d="m10.93 234v29.83s-10.46-8.83-10.93-20.52v-19.15l12.2-1.76z" fill="#721bd5"/><path d="m31 237.44c-10.55-9.88-8.42-23 6.41-31.57a47.16 47.16 0 0 1 5.29-2.61l-13.23-11.84a74 74 0 0 0 -9.33 4.5c-23.33 13.47-26.39 34.2-9.21 49.58z" fill="#8a2ae3"/><path d="m200.81 225.23c-13.41 7.74-35.15 7.74-48.56 0s-13.41-20.3 0-28 35.15-7.74 48.56 0 13.41 20.25 0 28z" fill="#d4ecff"/><path d="m215.14 176.15-9.2.06c-.67-.45-1.37-.9-2.11-1.33-15.08-8.71-39.53-8.71-54.61 0q-1.42.82-2.66 1.7l-8.65.05v14c0 5.71 3.77 11.41 11.31 15.76 15.08 8.71 39.53 8.71 54.61 0 7.54-4.35 11.31-10.06 11.31-15.77z" fill="#721bd5"/><path d="m175.24 168.37c-9.45.18-18.8 2.35-26 6.51q-1.42.82-2.66 1.7l-8.65.05v14c0 5.71 3.77 11.41 11.31 15.76 7.21 4.16 16.57 6.33 26 6.51z" fill="#983be9"/><path d="m143.22 176.6h-5.31v14c0 3.91 1.77 7.81 5.31 11.29z" fill="#b45ef4"/><path d="m203.83 191.92c-15.08 8.71-39.53 8.71-54.61 0s-15.08-22.82 0-31.53 39.53-8.71 54.61 0 15.09 22.82 0 31.53z" fill="#8a2ae3"/><path d="m203.83 191.92c-15.08 8.71-39.53 8.71-54.61 0-7.16-4.13-10.91-9.49-11.28-14.9-.4 6 3.36 12.05 11.28 16.63 15.08 8.71 39.53 8.71 54.61 0 7.92-4.57 11.67-10.64 11.27-16.63-.35 5.41-4.1 10.77-11.27 14.9z" fill="#b45ef4"/><path d="m204.55 170h-6.67c-.49-.33-1-.65-1.53-1-10.94-6.32-28.68-6.32-39.62 0q-1 .59-1.93 1.23h-6.28v4.82c0 4.14 2.74 8.28 8.21 11.44 10.94 6.32 28.68 6.32 39.62 0 5.47-3.16 8.21-7.3 8.21-11.44z" fill="#721bd5"/><path d="m175.59 164.39c-6.86.13-13.64 1.7-18.88 4.72q-1 .59-1.93 1.23h-6.28v4.82c0 4.14 2.74 8.28 8.21 11.44 5.23 3 12 4.59 18.87 4.73z" fill="#983be9"/><path d="m152.36 170.36h-3.85v4.82a11.53 11.53 0 0 0 3.85 8.19z" fill="#b45ef4"/><path d="m196.34 181.47c-10.94 6.32-28.68 6.32-39.62 0s-10.94-16.56 0-22.88 28.68-6.32 39.62 0 10.94 16.57 0 22.88z" fill="#8a2ae3"/><path d="m125.33 121.26a26.89 26.89 0 0 1 -22.94-12.93l-14.68-24.33a9.28 9.28 0 0 1 7.95-14.08h29v7.56h-29a1.72 1.72 0 0 0 -1.48 2.61l14.68 24.34a19.23 19.23 0 0 0 16.75 9.28l25.25-.38.11 7.56-25.25.38z" fill="#fdd762"/><path d="m227.73 121.26h-.4l-25.25-.38.11-7.56 25.25.38a19.22 19.22 0 0 0 16.76-9.28l14.68-24.34a1.72 1.72 0 0 0 -1.48-2.61h-29v-7.56h29a9.28 9.28 0 0 1 7.95 14.09l-14.68 24.34a26.9 26.9 0 0 1 -22.94 12.92z" fill="#fdd762"/><path d="m251.21 92.8-7 11.63a19.22 19.22 0 0 1 -16.76 9.28l-25.25-.38-.11 7.56 25.25.38h.4a26.9 26.9 0 0 0 21.38-10.66c3.31-8.54 2.78-14.71 2.09-17.81z" fill="#e8a200"/><path d="m161.52 156.84c8.29 4.78 21.72 4.78 30 0s8.29-12.54 0-17.33-21.72-4.78-30 0-8.28 12.54 0 17.33z" fill="#fff"/><path d="m151.75 160.42c4.47-3.32 3.61-6.56 3.61-6.56l3.38 4.08c10.28-5 25.3-5 35.58 0l3.38-4.08s-.86 3.25 3.61 6.56 3 9.83 3 9.83c0 4.11-2.71 8.22-8.14 11.35-10.85 6.27-28.45 6.27-39.3 0-5.43-3.13-8.14-7.24-8.14-11.35.01 0-1.45-6.51 3.02-9.83z" fill="#f9bf30"/><path d="m192.05 161.4s-8-4.75-8-5.75a1.69 1.69 0 0 1 .43-.75 37.34 37.34 0 0 1 9.86 3l3.38-4.08s-.86 3.25 3.61 6.56 3 9.83 3 9.83a10.69 10.69 0 0 1 -2.45 6.56c.07-.51.93-7.22-4.12-9.42-5.26-2.25-5.71-5.95-5.71-5.95z" fill="#e8a200"/><path d="m161.52 161.71c8.29 4.78 21.72 4.78 30 0s8.29-12.54 0-17.33-21.72-4.78-30 0-8.28 12.55 0 17.33z" fill="#e8a200"/><path d="m232 70.36c-.56 30.94-16.51 34.68-25 46.26-8 10.81-7.06 26.44-6.9 28.47v.23c0 3.48-2.3 7-6.91 9.63-9.21 5.32-24.14 5.32-33.36 0-4.32-2.49-6.58-5.71-6.85-9h-.05v-.65c0-.07 0-.15 0-.22.16-2 1.07-17.67-6.9-28.48-8.53-11.58-24.48-15.33-25-46.26z" fill="#f9bf30"/><path d="m191.49 104s-1.3 3.7-5.33 14.27-2.16 37.38-2.16 37.38l6.85.47a24.7 24.7 0 0 0 2.33-1.16c4.61-2.66 6.91-6.14 6.91-9.63 0-.08 0-.15 0-.23-.16-2-1.06-17.67 6.9-28.47 8.53-11.58 24.48-15.33 25-46.26h-5.99z" fill="#e8a200"/><path d="m137.28 93c21.68 12.51 56.82 12.51 78.5 0s21.68-32.81 0-45.32-56.82-12.51-78.5 0-21.68 32.83 0 45.32z" fill="#fdd762"/><path d="m137.28 93c21.68 12.51 56.82 12.51 78.5 0 10.22-5.88 15.61-13.5 16.22-21.23.66 8.66-4.74 17.45-16.2 24.07-21.68 12.52-56.82 12.52-78.5 0-11.46-6.62-16.85-15.4-16.2-24.07.57 7.73 5.96 15.35 16.18 21.23z" fill="#fff"/><path d="m143.59 89.38c18.19 10.5 47.69 10.5 65.88 0s18.19-27.53 0-38-47.69-10.5-65.88 0-18.2 27.5 0 38z" fill="#f2b42a"/><path d="m143.59 89.38c7.62 4.4 17.24 6.93 27.17 7.65a6.44 6.44 0 0 0 1.41-6.3c-4.84-14.5-3-44.53-3-44.53l-8.76-1a57.87 57.87 0 0 0 -16.85 6.2c-18.17 10.45-18.17 27.48.03 37.98z" fill="#e8a200"/><path d="m209.47 53.73c-18.19-10.5-47.69-10.5-65.88 0-8.59 4.95-13.1 11.35-13.59 17.83-.56-7.28 4-14.66 13.6-20.21 18.19-10.5 47.69-10.5 65.88 0 9.62 5.56 14.15 12.94 13.59 20.21-.5-6.49-5.07-12.88-13.6-17.83z" fill="#fff"/><path d="m199.34 93.81a77.38 77.38 0 0 1 -45.61 0c.48-.32 1-.64 1.51-.95 11.76-6.79 30.83-6.79 42.59 0 .52.31 1.02.63 1.51.95z" fill="#e8a200"/><path d="m153 145.1c0-.24 0-.69.07-1.3.36 3.18 2.6 6.31 6.82 8.75 9.21 5.32 24.14 5.32 33.36 0 4.12-2.38 6.39-5.42 6.83-8.54 0 .49 0 .87.06 1.08s0 .15 0 .23c0 3.48-2.3 7-6.91 9.63-9.21 5.32-24.14 5.32-33.36 0-4.32-2.49-6.58-5.71-6.85-9h-.05v-.65c-.03-.05.03-.12.03-.2z" fill="#fff"/><path d="m145.68 131.64s-2.92-1.47-4.71.72-4.35 7.36-4.43 10.85 2.76 3.26 4.45 2.43 6.63-8 6.93-9.39a4.87 4.87 0 0 0 -.83-3.67c-.46-.38-1.41-.94-1.41-.94z" fill="#173d7a"/><path d="m146.32 130.93.14 3a1.71 1.71 0 0 1 -.85 1.57 3.36 3.36 0 0 1 -2.25.35c-2.2-.35-2.39-1-2.55-4s5.51-.92 5.51-.92z" fill="#e8a200"/><path d="m135 125.83s-2.92-1.47-4.71.72-4.35 7.36-4.43 10.85 2.76 3.26 4.45 2.43 6.63-8 6.93-9.39a4.87 4.87 0 0 0 -.83-3.67c-.41-.38-1.41-.94-1.41-.94z" fill="#173d7a"/><path d="m135.65 125.13.13 3a1.71 1.71 0 0 1 -.85 1.57 3.36 3.36 0 0 1 -2.25.35c-2.2-.35-2.39-1-2.55-4s5.52-.92 5.52-.92z" fill="#e8a200"/><path d="m161.67 69.66c-.86-14-15.21 2.07-15.21 2.07l-9.82 9.62-8.84 9.71a8.71 8.71 0 0 0 -2.2 7l3.58 27.23a2.68 2.68 0 0 0 2.68 2.33 9.1 9.1 0 0 0 1.33-.12 3.33 3.33 0 0 0 3-3.53l-.65-25.47 18.57-11.19s8.42-3.61 7.56-17.65z" fill="#fdd762"/><path d="m149.31 81.92s-11.11 12.25-11.73 15.67 11.74-3.15 11.74-3.15l8.46-13.81z" fill="#e8a200"/><path d="m172.34 75c-.86-14-15.21 2.07-15.21 2.07l-9.82 9.62-8.84 9.71a8.71 8.71 0 0 0 -2.2 7l3.58 27.23a2.68 2.68 0 0 0 2.68 2.33 9.1 9.1 0 0 0 1.32-.12 3.33 3.33 0 0 0 3-3.53l-.65-25.47 18.57-11.19s8.43-3.6 7.57-17.65z" fill="#fdd762"/><path d="m163.85 29.93c10.88 4.51 10.66 10.94 10.66 10.94s-2.13 23.57-1.4 39.31c.3 6.58-35 7.08-29.7-10.47 6.2-20.7 3.88-37.46 6.78-40s10.81-.95 13.66.22z" fill="#983be9"/><ellipse cx="161.92" cy="34.23" fill="#ffc2b0" rx="4.13" ry="5.61" transform="matrix(.24936603 -.96840931 .96840931 .24936603 88.38 182.49)"/><path d="m162.75 39a8 8 0 0 1 -2-.26c-3.27-.84-5.42-3.55-4.78-6s3.82-3.82 7.1-3a7.24 7.24 0 0 1 3.81 2.34 4.16 4.16 0 0 1 1 3.69 4.16 4.16 0 0 1 -2.63 2.77 6.66 6.66 0 0 1 -2.5.46zm-1.66-8.48c-2 0-3.71.94-4.1 2.45-.5 1.93 1.31 4.06 4 4.76a6.2 6.2 0 0 0 3.82-.16 3.15 3.15 0 0 0 2-2.06 3.14 3.14 0 0 0 -.76-2.78 6.2 6.2 0 0 0 -3.27-2 7 7 0 0 0 -1.69-.22z" fill="#fff"/><path d="m159.49 29.44a26.82 26.82 0 0 1 -.09 3.88c-.06 1.08 3.73 2.1 4.72 1.11s.59-2 .82-5.69-5.45.7-5.45.7z" fill="#ffc2b0"/><path d="m164.94 28.75s-.93 3.42-5.54 4.73l.07-3.11z" fill="#ea9c92"/><circle cx="159.75" cy="22.16" fill="#ffc2b0" r="8.37" transform="matrix(.96814764 -.25038 .25038 .96814764 -.46 40.69)"/><path d="m161.67 22.46s-4.61 2-7.8 2-2.49-2.65-2.49-2.65l9.47-1.37z" fill="#ea9c92"/><path d="m152.92 23s4-1.7 7.54-1a3.69 3.69 0 0 1 2.13 1.27 1.26 1.26 0 0 0 .64.47c.62.14 1.65-2.45 2.86-2.51s2 .8 1 2.39-.66 3.38-.2 3.63 5.32-3.47 1-12-15.17-3.92-16.86-2.2c0 0-1.78 1.55-3.23.17.05.04-1.57 12.22 5.12 9.78z" fill="#ff2c9c"/><g fill="#ffc2b0"><path d="m144.87 28-5.87-2.52a2.59 2.59 0 0 1 -1.43-1.54l-5.75-16.74-2.68.47 4.67 20.83a3.51 3.51 0 0 0 1.71 2.29l9.74 5.47z"/><path d="m205.71 30.72 1.34-.62a10.79 10.79 0 0 0 3.08-2.1l.93-.92a1.81 1.81 0 0 0 .4-2 1 1 0 0 0 -1.37-.5l-2.8 1.42s.44-1.24.23-1.56-2.38 2.07-3.38 3.77 1.57 2.51 1.57 2.51z"/><path d="m182.37 37.41 5-.56a8.81 8.81 0 0 0 3.36-1.09l13.4-7.58 1.57 2.54-13.7 10.58a6.31 6.31 0 0 1 -1.38.81l-8.17 3.49z"/><path d="m129.14 7.67-.51-.59a4.7 4.7 0 0 1 -1.1-2.4l-.36-2.44a2.09 2.09 0 0 1 .8-2h.07a1.26 1.26 0 0 1 1.85.6l1.2 2.91s-.38-1.51.11-1.67 1 1.75.63 2.79a4.39 4.39 0 0 0 0 2.37z"/></g><path d="m156.43 27.92-2.16-.59a5.22 5.22 0 0 0 2.54 2c1.51.41 1.74-.86 1.74-.86z" fill="#fff"/><path d="m153.19 28.52s-9.77-1.93-12.75-2.84-4.23 7.29-4 9.36 10.39 4.39 11.59 8 5.16-14.52 5.16-14.52z" fill="#983be9"/><path d="m168.12 32.11s7.14 3.06 19.09 4.56a1.29 1.29 0 0 1 1.06.84 14.14 14.14 0 0 1 .63 7.18 2.64 2.64 0 0 1 -2.61 2.08c-3.74 0-11.79.33-13.1 3.83-1.7 4.58-5.07-18.49-5.07-18.49z" fill="#983be9"/><path d="m55.93 269.23c11.75 6.78 30.79 6.78 42.54 0s11.75-17.78 0-24.56-30.79-6.78-42.54 0-11.75 17.78 0 24.56z" fill="#d4ecff"/><path d="m62.85 249.51a4.64 4.64 0 0 0 -2.62 4.64 7.83 7.83 0 0 0 .38 2.27c.54 1.13 2.31 2.68 5.13 1.57s9.08-7 9.32-10.85c.43-7.14-7.75.46-12.21 2.37z" fill="#173d7a"/><path d="m79.42 261.34s-.68 4.13-.35 4.88 2.29 2.37 5.19 2 11.24-3.23 13.1-8.72c2.88-8.52-16.1.64-16.1.64z" fill="#173d7a"/><path d="m87.57 195.39.65 64.4a4.51 4.51 0 0 1 -3.51 4.46q-.37.06-.78.1a4 4 0 0 1 -3.83-1.58 4.73 4.73 0 0 1 -.86-2.6l-.82-27.49-4.1-24.58-5.68 43.51a3.76 3.76 0 0 1 -1.56 2.86 4.35 4.35 0 0 1 -2.59.7 4.76 4.76 0 0 1 -3.44-1.7 3.45 3.45 0 0 1 -.82-2.33l2.24-26.14.84-33.39z" fill="#fdd762"/><path d="m79.23 137.74-1 5.87a2.69 2.69 0 0 0 2.2 2.56c2.24.55 2.93-.89 2.93-.89l1-6.61z" fill="#ffc2b0"/><path d="m91.31 138c-2.42 4.69-7.75 6.73-11.92 4.56s-5.58-7.72-3.16-12.41 7.75-6.73 11.92-4.56 5.58 7.69 3.16 12.41z" fill="#ffc2b0"/><path d="m79.5 143.72c-.15-.06-9.49-6.07-12.93.22-5.62 10.25-5.29 43.25-3.52 47.52 1.64 4 5.75 6.87 8.62 8.52a17.22 17.22 0 0 0 8.33 2.38c2.92 0 8.51-2.57 8.3-6.38-.93-17.53.62-32.31 2-46.65.09 0-1.7-1.92-10.8-5.61z" fill="#983be9"/><path d="m74.31 208.1-5.68 43.51a3.76 3.76 0 0 1 -1.56 2.86 4.19 4.19 0 0 1 -.48.27c1.18-.88 4.62-37.4 5.26-41.46s2.46-5.18 2.46-5.18z" fill="#d8892b"/><path d="m109.33 145.66 5.07-16.61-2.68-1.11-5.97 13.01z" fill="#ffc2b0"/><path d="m58.23 132.57 3.8-17.29 3.02.03-1.13 14.34z" fill="#ffc2b0"/><path d="m90.39 149.33s9.11 1.82 14.9-8.79a1.44 1.44 0 0 1 2.4-.25c.93 1.41 2.16 3.58 1.52 5.93-2.82 10.37-18.13 12.66-20.88 18.67s2.06-15.56 2.06-15.56z" fill="#983be9"/><path d="m73.58 141.57s-7.21.55-8.25-5.69a47.72 47.72 0 0 1 -.73-6.24 1.26 1.26 0 0 0 -1.41-1.22c-1.73.21-4.4.73-4.77 1.89-.54 1.73-1.56 10.21 5.56 23.22 4.67 8.47 9.6-11.96 9.6-11.96z" fill="#983be9"/><path d="m62 115.32.07-2a4.06 4.06 0 0 1 .59-2l2-3.28.52-.66a1.52 1.52 0 0 1 2-.34l.46.29a1.89 1.89 0 0 1 .88 1.72l-1 2.81 1.31-.25a.46.46 0 0 1 .55.37.46.46 0 0 1 -.28.51l-2.13.86-1.97 2.8z" fill="#ffc2b0"/><path d="m114.48 129.14.6-1.88a4.06 4.06 0 0 0 .11-2.05l-.76-3.77-.27-.79a1.52 1.52 0 0 0 -1.76-1l-.53.12a1.89 1.89 0 0 0 -1.41 1.32v3l-1.14-.68a.46.46 0 0 0 -.64.17.46.46 0 0 0 .09.58l1.72 1.53 1 3.64z" fill="#ffc2b0"/><path d="m86.12 161.89c-.83 3.79 1.5 33.19-6.09 40.47 2.92 0 8.51-2.57 8.3-6.38a233.05 233.05 0 0 1 .7-32.24c3-3.85 11.16-6.31 16.28-11.25-.37.11-18.37 5.65-19.19 9.4z" fill="#721bd5"/><path d="m76.14 142.06 1.3-1.33s2.13 2.18 3.84 2.56a20 20 0 0 0 3.07.63l.83 2.3s-6.78-.49-9.04-4.16z" fill="#fff"/><path d="m85.29 137.09a1.09 1.09 0 0 0 1-.3c.44-.45.62-2.81 1.76-3 1.78-.31 5.41 2.48 6.88-3.51.76-3.11-.63-4.22-.32-5.94 0 0 0 .89-8-1s-11.9 4.81-12.68 8.21-.09 9.33 5.32 11.05c.9.29 5.29-2.15 5.26-2.58s-1.49-.65-1.08-1.8a1.55 1.55 0 0 1 1.86-1.13z" fill="#173d7a"/><circle cx="166.95" cy="24.46" fill="#fff" r="1.04"/><path d="m170.46 280.83-12.23-7.05-12.22 7.05 12.22 7.06z" fill="#d4ecff"/><path d="m158.23 281.35v-7.96l14.61-8.43v7.95z" fill="#e8a200"/><path d="m158.23 273.39-14.6-8.43v7.95l14.6 8.44z" fill="#f9bf30"/><path d="m172.84 264.96-14.61-8.43-14.6 8.43 14.6 8.43z" fill="#fdd762"/><path d="m72.33 95.83-12.22-7.06-12.23 7.06 12.23 7.06z" fill="#d4ecff"/><path d="m60.11 96.34v-7.95l14.61-8.44v7.96z" fill="#d3008d"/><path d="m60.11 88.39-14.61-8.44v7.96l14.61 8.43z" fill="#d3008d"/><path d="m74.72 79.95-14.61-8.43-14.61 8.43 14.61 8.44z" fill="#ff2c9c"/><path d="m254.37 264.39-15.03-8.67-15.03 8.67 15.03 8.68z" fill="#d4ecff"/><path d="m243.71 252.88v-54.04l12.77-7.37v54.04z" fill="#721bd5"/><path d="m243.71 198.84-12.76-7.37v54.04l12.76 7.37z" fill="#b45ef4"/><path d="m256.48 191.47-12.77-7.37-12.76 7.37 12.76 7.37z" fill="#8a2ae3"/><path d="m256.48 255.34-12.77-7.37v4.91l12.77 7.37z" fill="#95d359"/><path d="m230.95 260.25v-39.31l12.76-7.36v39.3z" fill="#c13d1a"/><path d="m230.95 220.94-12.77-7.36v39.3l12.77 7.37z" fill="#db5126"/><path d="m243.71 213.58-12.76-7.37-12.77 7.37 12.77 7.36z" fill="#ef602e"/><path d="m230.95 260.25v-39.31l12.76-7.36v39.3z" fill="#d3008d"/><path d="m230.95 220.94-12.77-7.36v39.3l12.77 7.37z" fill="#d3008d"/><path d="m243.71 213.58-12.76-7.37-12.77 7.37 12.77 7.36z" fill="#ff2c9c"/><path d="m243.71 267.62v-22.11l12.77-7.37v22.11z" fill="#e8a200"/><path d="m243.71 245.51-12.76-7.37v22.11l12.76 7.37z" fill="#f9bf30"/><path d="m256.48 238.14-12.77-7.37-12.76 7.37 12.76 7.37z" fill="#fdd762"/></svg>