<svg viewBox="0 0 254.17 300.52" xmlns="http://www.w3.org/2000/svg"><g fill="#d4ecff"><path d="m200.25 300.52-200.25-115.62 7.44-5.03 200.25 115.62z"/><path d="m116.28 173.82c-12.79 7.38-33.52 7.38-46.31 0s-12.79-19.35 0-26.73 33.52-7.38 46.31 0 12.78 19.34 0 26.73z"/><path d="m174.49 207.26c-12.79 7.38-33.52 7.38-46.31 0s-12.79-19.35 0-26.73 33.52-7.38 46.31 0 12.78 19.35 0 26.73z"/><path d="m235.52 242.51c-12.79 7.38-33.52 7.38-46.31 0s-12.79-19.35 0-26.73 33.52-7.38 46.31 0 12.79 19.35 0 26.73z"/><path d="m21.91 239.57-10.52-6.07-10.51 6.07 10.51 6.08z"/></g><path d="m11.39 238.83v-14.53l11.09-6.4v14.53z" fill="#721bd5"/><path d="m11.39 224.3-11.08-6.4v14.53l11.08 6.4z" fill="#b45ef4"/><path d="m11.39 224.3v-10.27l11.09-6.4v10.27z" fill="#e8a200"/><path d="m11.39 214.03-11.08-6.4v10.27l11.08 6.4z" fill="#f9bf30"/><path d="m11.39 214.03v-7.36l11.09-6.4v7.36z" fill="#d3008d"/><path d="m11.39 206.67-11.08-6.4v7.36l11.08 6.4z" fill="#d3008d"/><path d="m22.48 200.27-11.09-6.4-11.08 6.4 11.08 6.4z" fill="#ff2c9c"/><path d="m249.21 151.19-12.27-7.09-12.28 7.09 12.28 7.09z" fill="#d4ecff"/><path d="m242.69 139.73v-44.15l10.43-6.02v44.15z" fill="#721bd5"/><path d="m242.69 95.58-10.43-6.02v44.15l10.43 6.02z" fill="#b45ef4"/><path d="m253.12 89.56-10.43-6.02-10.43 6.02 10.43 6.02z" fill="#8a2ae3"/><path d="m253.12 141.74-10.43-6.02v4.01l10.43 6.02z" fill="#95d359"/><path d="m232.26 145.75v-32.11l10.43-6.02v32.11z" fill="#c13d1a"/><path d="m232.26 113.64-10.43-6.02v32.11l10.43 6.02z" fill="#db5126"/><path d="m242.69 107.62-10.43-6.02-10.43 6.02 10.43 6.02z" fill="#ef602e"/><path d="m232.26 145.75v-32.11l10.43-6.02v32.11z" fill="#d3008d"/><path d="m232.26 113.64-10.43-6.02v32.11l10.43 6.02z" fill="#d3008d"/><path d="m242.69 107.62-10.43-6.02-10.43 6.02 10.43 6.02z" fill="#ff2c9c"/><path d="m242.69 151.77v-18.06l10.43-6.02v18.06z" fill="#e8a200"/><path d="m242.69 133.71-10.43-6.02v18.06l10.43 6.02z" fill="#f9bf30"/><path d="m253.12 127.69-10.43-6.02-10.43 6.02 10.43 6.02z" fill="#fdd762"/><path d="m55.28 58.79-10.49-6.06-10.49 6.06 10.49 6.06z" fill="#d4ecff"/><path d="m44.79 59.23v-6.82l12.53-7.24v6.82z" fill="#e8a200"/><path d="m44.79 52.41-12.53-7.24v6.82l12.53 7.24z" fill="#f9bf30"/><path d="m57.32 45.17-12.53-7.23-12.53 7.23 12.53 7.24z" fill="#fdd762"/><path d="m53.1 45.17-8.31-4.8-8.31 4.8 8.31 4.8z" fill="#e8a200"/><path d="m44.79 46.08v-6.82l12.53-7.24v6.82z" fill="#d3008d"/><path d="m44.79 39.26-12.53-7.24v6.82l12.53 7.24z" fill="#d3008d"/><path d="m57.32 32.02-12.53-7.24-12.53 7.24 12.53 7.24z" fill="#ff2c9c"/><path d="m133.38 133.1h-1.56c-1.75-3.43-5-6.67-9.66-9.38-15-8.64-39.21-8.64-54.17 0-4.69 2.71-7.91 5.95-9.66 9.38h-1.56v6.26c0 5.64 3.74 11.31 11.23 15.64 15 8.64 39.21 8.64 54.17 0 7.48-4.32 11.22-10 11.22-15.64z" fill="#f9bf30"/><path d="m86.76 117.77a50.76 50.76 0 0 0 -18.76 5.95c-4.69 2.71-7.91 5.95-9.66 9.38h-1.57v6.26c0 5.64 3.74 11.31 11.23 15.64a50.77 50.77 0 0 0 18.78 5.95z" fill="#fdd762"/><path d="m122.26 154.93c7.41-4.31 11.12-9.94 11.12-15.58v-6.25h-1.56a22.33 22.33 0 0 0 -7.69-8.15h-1.87z" fill="#e8a200"/><g fill="#e8a200" opacity=".4"><path d="m131.41 132.37a18.27 18.27 0 0 0 -1.66-2.4v18.8a18.26 18.26 0 0 0 1.66-2.41z"/><path d="m68 123.72a30.17 30.17 0 0 0 -5.35 3.89v23.51c.52.48 1.07.95 1.66 1.41v-25.53h3.13v27.62l.56.38c.36.21.73.41 1.1.61v-28.61h3.13v30.1q.82.35 1.66.68v-30.78h3.11v31.82l1.66.48v-32.3h3.13v33.1l1.66.33v-33.43h3.15v33.88l1.66.2v-34.08h3.14v34.33l1.66.07v-34.4h3.13v34.42h1.66v-34.42h3.15v34.2l1.66-.17v-34.03h3.13v33.55l1.66-.3v-33.25h3.13v32.54l1.66-.45v-32.09h3.13v31.07q.84-.3 1.66-.64v-30.43h3.13v29q.85-.42 1.66-.88v-28.12h3.18v26.15c.59-.42 1.14-.85 1.66-1.29v-24.86h.28a31.12 31.12 0 0 0 -4.73-3.32 46.1 46.1 0 0 0 -11.75-4.63h-30.72a46.1 46.1 0 0 0 -11.74 4.67z"/><path d="m59.5 131.16a17.13 17.13 0 0 0 -1.18 1.94h-.48v11.47a16.42 16.42 0 0 0 1.66 3z"/></g><path d="m122.16 148.74c-15 8.64-39.21 8.64-54.17 0s-15-22.64 0-31.28 39.21-8.64 54.17 0 14.96 22.64 0 31.28z" fill="#fdd762"/><path d="m103.65 136.88c11-6.36 13.91-15.62 8.7-23.51-14.35-4.2-32.35-2.84-44.35 4.09-11 6.36-13.91 15.62-8.7 23.51 14.35 4.2 32.35 2.84 44.35-4.09z" fill="#fff" opacity=".2"/><path d="m122.16 148.74c-15 8.64-39.21 8.64-54.17 0-7.23-4.17-11-9.6-11.2-15.07-.26 5.85 3.47 11.75 11.2 16.21 15 8.64 39.21 8.64 54.17 0 7.73-4.46 11.45-10.36 11.2-16.21-.25 5.47-3.97 10.89-11.2 15.07z" fill="#fff" opacity=".7"/><path d="m114.3 144.2c-10.62 6.13-27.83 6.13-38.45 0s-10.62-16.07 0-22.2 27.83-6.13 38.45 0 10.62 16.07 0 22.2z" fill="#e8a200"/><path d="m75.85 123.43c10.62-6.13 27.83-6.13 38.45 0 5 2.88 7.64 6.61 7.93 10.38.33-4.25-2.31-8.57-7.93-11.82-10.62-6.13-27.83-6.13-38.45 0-5.62 3.25-8.27 7.56-7.93 11.82.29-3.81 2.93-7.5 7.93-10.38z" fill="#f9bf30"/><path d="m108.44 125.69-2.11.6.6.24-2.06 1.19a11.62 11.62 0 0 0 -5.22-1.22 10 10 0 0 0 -5 1.36 7.79 7.79 0 0 0 -1.52 1.1 3.23 3.23 0 0 0 -.81 1.16 3.91 3.91 0 0 0 -.27 1.11 6.29 6.29 0 0 0 0 1.21l.24 1.92a5.74 5.74 0 0 1 0 1.35 2.41 2.41 0 0 1 -.46 1.09 3.68 3.68 0 0 1 -1.21 1 2.46 2.46 0 0 1 -2.58.19q-.86-.5-.44-1.24a6.7 6.7 0 0 1 2.4-1.83v-1.44l-1.8.68-2.59-1.1a8.39 8.39 0 0 0 -3.07 2.76l-.3-.33v1.41c0 1 .75 1.92 2.23 2.87l-1 .59-1.39-.64v1.44l1.25.72 2.44-1.41a10.65 10.65 0 0 0 4.93 1 9.8 9.8 0 0 0 4.65-1.25 7.87 7.87 0 0 0 1.65-1.22 4 4 0 0 0 .92-1.33 5 5 0 0 0 .34-1.32 7.07 7.07 0 0 0 0-1.4l-.26-1.88c0-.37 0-.64 0-.81a3.72 3.72 0 0 1 .09-.7 1.63 1.63 0 0 1 .42-.8 3.89 3.89 0 0 1 .9-.68 3.65 3.65 0 0 1 1.38-.44 2.23 2.23 0 0 1 1.38.23 1.28 1.28 0 0 1 .43.33.4.4 0 0 1 .08.24l-2.14.45v1.44l4.34 1.93q.53-.34 1-.63a9.06 9.06 0 0 0 .88-.7 5.18 5.18 0 0 0 .73-.78 2.77 2.77 0 0 0 .41-.85 1.88 1.88 0 0 0 .07-.43s0 0 0 0v-1.47l-.55.12a5.13 5.13 0 0 0 -1.16-1l2.28-1.32z" fill="#f9bf30"/><path d="m82.05 139.72 2.42-1.39q-2.48-1.57-2.22-3.19t3.34-3.51l4.41 1.85a6.7 6.7 0 0 0 -2.29 1.85q-.42.74.44 1.24a2.46 2.46 0 0 0 2.58-.19 3.68 3.68 0 0 0 1.21-1 2.41 2.41 0 0 0 .46-1.09 5.74 5.74 0 0 0 0-1.35l-.31-1.94a6.29 6.29 0 0 1 0-1.21 3.91 3.91 0 0 1 .27-1.11 3.23 3.23 0 0 1 .81-1.16 7.8 7.8 0 0 1 1.52-1.1 10 10 0 0 1 5-1.36 11.62 11.62 0 0 1 5.22 1.22l2.29-1.32 1.27.74-2.31 1.3a5.13 5.13 0 0 1 1.16 1 2.49 2.49 0 0 1 .53.95 1.73 1.73 0 0 1 0 .91 2.77 2.77 0 0 1 -.41.85 5.18 5.18 0 0 1 -.73.78 9.06 9.06 0 0 1 -.88.7q-.42.29-1 .63l-4.34-1.93.81-.5q.31-.2.64-.45a2.66 2.66 0 0 0 .47-.43 1.17 1.17 0 0 0 .21-.38.39.39 0 0 0 -.07-.37 1.28 1.28 0 0 0 -.43-.33 2.23 2.23 0 0 0 -1.38-.23 3.65 3.65 0 0 0 -1.38.44 3.89 3.89 0 0 0 -.9.68 1.63 1.63 0 0 0 -.42.8 3.72 3.72 0 0 0 -.09.7v.81l.21 1.86a7.07 7.07 0 0 1 0 1.4 5 5 0 0 1 -.34 1.32 4 4 0 0 1 -.92 1.33 7.87 7.87 0 0 1 -1.65 1.23 9.8 9.8 0 0 1 -4.58 1.23 10.65 10.65 0 0 1 -4.93-1l-2.44 1.41z" fill="#fdd762"/><path d="m133.38 126.84h-1.56c-1.75-3.43-5-6.67-9.66-9.38-15-8.64-39.21-8.64-54.17 0-4.69 2.71-7.91 5.95-9.66 9.38h-1.56v6.26c0 5.66 3.74 11.32 11.22 15.64 15 8.64 39.21 8.64 54.17 0 7.48-4.32 11.22-10 11.22-15.64z" fill="#f9bf30"/><path d="m86.76 111.51a50.76 50.76 0 0 0 -18.76 5.94c-4.69 2.71-7.91 5.95-9.66 9.38h-1.57v6.26c0 5.66 3.74 11.32 11.22 15.64a50.76 50.76 0 0 0 18.78 5.95z" fill="#fdd762"/><path d="m122.26 148.67c7.41-4.31 11.12-9.94 11.12-15.58v-6.26h-1.56a22.33 22.33 0 0 0 -7.69-8.15h-1.87z" fill="#e8a200"/><g fill="#e8a200" opacity=".4"><path d="m131.41 126.11a18.28 18.28 0 0 0 -1.66-2.4v18.8a18.26 18.26 0 0 0 1.66-2.41z"/><path d="m68 117.45a30.17 30.17 0 0 0 -5.35 3.89v23.51c.52.48 1.07.95 1.66 1.41v-25.48h3.13v27.62l.56.34c.36.21.73.41 1.1.61v-28.57h3.13v30.07q.82.35 1.66.68v-30.75h3.11v31.82l1.66.48v-32.3h3.13v33.06l1.66.33v-33.39h3.15v33.88l1.66.2v-34.08h3.14v34.33l1.66.07v-34.4h3.13v34.42h1.66v-34.42h3.15v34.16l1.66-.17v-34h3.13v33.55l1.66-.3v-33.24h3.13v32.54l1.66-.45v-32.09h3.13v31.07q.84-.3 1.66-.64v-30.43h3.13v29q.85-.42 1.66-.88v-28.12h3.18v26.15c.59-.42 1.14-.85 1.66-1.29v-24.86h.28a31.12 31.12 0 0 0 -4.73-3.32 46.1 46.1 0 0 0 -11.75-4.63h-30.72a46.1 46.1 0 0 0 -11.74 4.62z"/><path d="m59.5 124.9a17.15 17.15 0 0 0 -1.18 1.94h-.48v11.46a16.42 16.42 0 0 0 1.66 3z"/></g><path d="m122.16 142.48c-15 8.64-39.21 8.64-54.17 0s-15-22.64 0-31.28 39.21-8.64 54.17 0 14.96 22.64 0 31.28z" fill="#fdd762"/><path d="m103.65 130.62c11-6.36 13.91-15.62 8.7-23.51-14.35-4.2-32.35-2.84-44.35 4.09-11 6.36-13.91 15.62-8.7 23.51 14.35 4.2 32.35 2.84 44.35-4.09z" fill="#fff" opacity=".2"/><path d="m122.16 142.48c-15 8.64-39.21 8.64-54.17 0-7.23-4.17-11-9.6-11.2-15.07-.26 5.85 3.47 11.75 11.2 16.21 15 8.64 39.21 8.64 54.17 0 7.73-4.46 11.45-10.36 11.2-16.21-.25 5.47-3.97 10.89-11.2 15.07z" fill="#fff" opacity=".7"/><path d="m114.3 137.94c-10.62 6.13-27.83 6.13-38.45 0s-10.62-16.07 0-22.2 27.83-6.13 38.45 0 10.62 16.07 0 22.2z" fill="#e8a200"/><path d="m75.85 117.17c10.62-6.13 27.83-6.13 38.45 0 5 2.88 7.64 6.61 7.93 10.38.33-4.25-2.31-8.57-7.93-11.82-10.62-6.13-27.83-6.13-38.45 0-5.62 3.25-8.27 7.56-7.93 11.82.29-3.77 2.93-7.5 7.93-10.38z" fill="#f9bf30"/><path d="m108.44 119.42-2.11.6.6.24-2.06 1.19a11.61 11.61 0 0 0 -5.22-1.22 10 10 0 0 0 -5 1.36 7.8 7.8 0 0 0 -1.52 1.1 3.23 3.23 0 0 0 -.81 1.16 3.91 3.91 0 0 0 -.32 1.15 6.29 6.29 0 0 0 0 1.21l.24 1.92a5.74 5.74 0 0 1 0 1.35 2.41 2.41 0 0 1 -.46 1.09 3.68 3.68 0 0 1 -1.21 1 2.46 2.46 0 0 1 -2.58.19q-.86-.5-.44-1.24a6.7 6.7 0 0 1 2.45-1.86v-1.44l-1.8.68-2.59-1.1a8.39 8.39 0 0 0 -3.07 2.76l-.3-.33v1.41c0 1 .75 1.92 2.23 2.87l-1 .59-1.39-.64v1.44l1.25.72 2.44-1.41a10.65 10.65 0 0 0 4.93 1 9.8 9.8 0 0 0 4.65-1.25 7.87 7.87 0 0 0 1.65-1.24 4 4 0 0 0 .92-1.33 5 5 0 0 0 .34-1.32 7.07 7.07 0 0 0 0-1.4l-.26-1.86c0-.37 0-.64 0-.81a3.72 3.72 0 0 1 .09-.7 1.63 1.63 0 0 1 .42-.8 3.9 3.9 0 0 1 .9-.68 3.65 3.65 0 0 1 1.38-.44 2.23 2.23 0 0 1 1.38.23 1.28 1.28 0 0 1 .43.33.4.4 0 0 1 .08.24l-2.14.45v1.44l4.34 1.93q.53-.34 1-.63a9.06 9.06 0 0 0 .88-.7 5.18 5.18 0 0 0 .73-.78 2.77 2.77 0 0 0 .41-.85 1.88 1.88 0 0 0 .07-.43s0 0 0 0v-1.47l-.55.12a5.13 5.13 0 0 0 -1.16-1l2.28-1.32z" fill="#f9bf30"/><path d="m82.05 133.46 2.42-1.39q-2.48-1.57-2.22-3.19t3.34-3.51l4.41 1.85a6.7 6.7 0 0 0 -2.29 1.85q-.42.74.44 1.24a2.46 2.46 0 0 0 2.58-.19 3.68 3.68 0 0 0 1.21-1 2.41 2.41 0 0 0 .46-1.09 5.74 5.74 0 0 0 0-1.35l-.24-1.92a6.29 6.29 0 0 1 0-1.21 3.91 3.91 0 0 1 .27-1.11 3.23 3.23 0 0 1 .81-1.16 7.79 7.79 0 0 1 1.52-1.1 10 10 0 0 1 5-1.36 11.62 11.62 0 0 1 5.22 1.22l2.29-1.32 1.27.74-2.28 1.32a5.13 5.13 0 0 1 1.16 1 2.5 2.5 0 0 1 .53.95 1.73 1.73 0 0 1 0 .91 2.77 2.77 0 0 1 -.41.85 5.18 5.18 0 0 1 -.73.78 9.06 9.06 0 0 1 -.88.7q-.42.29-1 .63l-4.34-1.93.81-.5q.31-.2.64-.45a2.66 2.66 0 0 0 .47-.43 1.17 1.17 0 0 0 .21-.38.39.39 0 0 0 -.07-.37 1.28 1.28 0 0 0 -.43-.33 2.23 2.23 0 0 0 -1.38-.23 3.65 3.65 0 0 0 -1.38.44 3.89 3.89 0 0 0 -.9.68 1.63 1.63 0 0 0 -.42.8 3.72 3.72 0 0 0 -.09.7v.81l.21 1.86a7.07 7.07 0 0 1 0 1.4 5 5 0 0 1 -.34 1.32 4 4 0 0 1 -.92 1.33 7.87 7.87 0 0 1 -1.65 1.23 9.8 9.8 0 0 1 -4.65 1.25 10.65 10.65 0 0 1 -4.93-1l-2.44 1.41z" fill="#fdd762"/><path d="m133.38 120.58h-1.56c-1.75-3.43-5-6.67-9.66-9.38-15-8.64-39.21-8.64-54.17 0-4.69 2.71-7.91 5.95-9.66 9.38h-1.56v6.26c0 5.66 3.74 11.32 11.22 15.64 15 8.64 39.21 8.64 54.17 0 7.48-4.32 11.22-10 11.22-15.64z" fill="#f9bf30"/><path d="m86.76 105.25a50.76 50.76 0 0 0 -18.76 5.94c-4.69 2.71-7.91 5.95-9.66 9.38h-1.57v6.26c0 5.66 3.74 11.32 11.22 15.64a50.76 50.76 0 0 0 18.78 5.95z" fill="#fdd762"/><path d="m122.26 142.41c7.41-4.31 11.12-9.94 11.12-15.58v-6.26h-1.56a22.33 22.33 0 0 0 -7.69-8.15h-1.87z" fill="#e8a200"/><g fill="#e8a200" opacity=".4"><path d="m131.41 119.85a18.27 18.27 0 0 0 -1.66-2.4v18.8a18.26 18.26 0 0 0 1.66-2.41z"/><path d="m68 111.19a30.16 30.16 0 0 0 -5.35 3.89v23.51c.52.48 1.07.95 1.66 1.41v-25.48h3.13v27.62l.56.34c.36.21.73.41 1.1.61v-28.57h3.13v30.07q.82.35 1.66.68v-30.75h3.11v31.82l1.66.48v-32.3h3.13v33.06l1.66.33v-33.39h3.15v33.88l1.66.2v-34.08h3.14v34.33l1.66.07v-34.4h3.13v34.42h1.66v-34.42h3.15v34.16l1.66-.17v-34h3.13v33.55l1.66-.3v-33.24h3.13v32.54l1.66-.45v-32.09h3.13v31.07q.84-.3 1.66-.64v-30.43h3.13v29q.85-.42 1.66-.88v-28.12h3.18v26.15c.59-.42 1.14-.85 1.66-1.29v-24.86h.28a31.12 31.12 0 0 0 -4.73-3.32 46.1 46.1 0 0 0 -11.75-4.63h-30.72a46.1 46.1 0 0 0 -11.74 4.62z"/><path d="m59.5 118.64a17.13 17.13 0 0 0 -1.18 1.94h-.48v11.42a16.42 16.42 0 0 0 1.66 3z"/></g><path d="m122.16 136.22c-15 8.64-39.21 8.64-54.17 0s-15-22.64 0-31.28 39.21-8.64 54.17 0 14.96 22.64 0 31.28z" fill="#fdd762"/><path d="m103.65 124.36c11-6.36 13.91-15.62 8.7-23.51-14.35-4.21-32.35-2.85-44.35 4.09-11 6.36-13.91 15.62-8.7 23.51 14.35 4.2 32.35 2.84 44.35-4.09z" fill="#fff" opacity=".2"/><path d="m122.16 136.22c-15 8.64-39.21 8.64-54.17 0-7.23-4.17-11-9.6-11.2-15.07-.26 5.85 3.47 11.75 11.2 16.21 15 8.64 39.21 8.64 54.17 0 7.73-4.46 11.45-10.36 11.2-16.21-.25 5.47-3.97 10.85-11.2 15.07z" fill="#fff" opacity=".7"/><path d="m114.3 131.68c-10.62 6.13-27.83 6.13-38.45 0s-10.62-16.07 0-22.2 27.83-6.13 38.45 0 10.62 16.07 0 22.2z" fill="#e8a200"/><path d="m75.85 110.91c10.62-6.13 27.83-6.13 38.45 0 5 2.88 7.64 6.61 7.93 10.38.33-4.25-2.31-8.57-7.93-11.82-10.62-6.13-27.83-6.13-38.45 0-5.62 3.25-8.27 7.56-7.93 11.82.29-3.77 2.93-7.5 7.93-10.38z" fill="#f9bf30"/><path d="m108.44 113.16-2.11.6.6.24-2.06 1.19a11.62 11.62 0 0 0 -5.21-1.19 10 10 0 0 0 -5 1.36 7.8 7.8 0 0 0 -1.52 1.1 3.23 3.23 0 0 0 -.81 1.16 3.91 3.91 0 0 0 -.27 1.11 6.29 6.29 0 0 0 0 1.21l.24 1.92a5.74 5.74 0 0 1 0 1.35 2.41 2.41 0 0 1 -.46 1.09 3.68 3.68 0 0 1 -1.21 1 2.46 2.46 0 0 1 -2.58.19q-.86-.5-.44-1.24a6.7 6.7 0 0 1 2.39-1.85v-1.4l-1.8.68-2.59-1.1a8.39 8.39 0 0 0 -3.07 2.76l-.3-.33v1.41c0 1 .75 1.92 2.23 2.87l-1 .59-1.39-.64v1.44l1.25.72 2.41-1.4a10.65 10.65 0 0 0 4.93 1 9.8 9.8 0 0 0 4.65-1.25 7.87 7.87 0 0 0 1.68-1.29 4 4 0 0 0 .92-1.33 5 5 0 0 0 .34-1.32 7.07 7.07 0 0 0 0-1.4l-.26-1.86c0-.37 0-.64 0-.81a3.72 3.72 0 0 1 .09-.7 1.63 1.63 0 0 1 .42-.8 3.89 3.89 0 0 1 .9-.68 3.65 3.65 0 0 1 1.38-.44 2.23 2.23 0 0 1 1.38.23 1.28 1.28 0 0 1 .43.33.4.4 0 0 1 .08.24l-2.14.45v1.44l4.34 1.93q.53-.34 1-.63a9.06 9.06 0 0 0 .88-.7 5.18 5.18 0 0 0 .73-.78 2.77 2.77 0 0 0 .41-.85 1.88 1.88 0 0 0 .07-.43s0 0 0 0v-1.47l-.55.12a5.13 5.13 0 0 0 -1.16-1l2.28-1.32z" fill="#f9bf30"/><path d="m82.05 127.2 2.42-1.39q-2.48-1.57-2.22-3.19t3.34-3.51l4.41 1.89a6.7 6.7 0 0 0 -2.29 1.85q-.42.74.44 1.24a2.46 2.46 0 0 0 2.58-.19 3.68 3.68 0 0 0 1.21-1 2.41 2.41 0 0 0 .46-1.09 5.74 5.74 0 0 0 0-1.35l-.24-1.92a6.29 6.29 0 0 1 0-1.21 3.91 3.91 0 0 1 .27-1.11 3.23 3.23 0 0 1 .81-1.16 7.8 7.8 0 0 1 1.52-1.1 10 10 0 0 1 5-1.36 11.61 11.61 0 0 1 5.22 1.22l2.29-1.32 1.27.74-2.28 1.32a5.13 5.13 0 0 1 1.16 1 2.5 2.5 0 0 1 .53.95 1.73 1.73 0 0 1 0 .91 2.77 2.77 0 0 1 -.41.85 5.18 5.18 0 0 1 -.73.78 9.06 9.06 0 0 1 -.88.7q-.42.29-1 .63l-4.34-1.93.81-.5q.31-.2.64-.45a2.66 2.66 0 0 0 .47-.43 1.17 1.17 0 0 0 .21-.38.39.39 0 0 0 -.07-.37 1.28 1.28 0 0 0 -.43-.33 2.23 2.23 0 0 0 -1.38-.23 3.65 3.65 0 0 0 -1.38.44 3.89 3.89 0 0 0 -.9.68 1.63 1.63 0 0 0 -.42.8 3.72 3.72 0 0 0 -.09.7v.81l.21 1.86a7.07 7.07 0 0 1 0 1.4 5 5 0 0 1 -.34 1.32 4 4 0 0 1 -.92 1.23 7.87 7.87 0 0 1 -1.65 1.23 9.8 9.8 0 0 1 -4.65 1.25 10.65 10.65 0 0 1 -4.93-1l-2.44 1.41z" fill="#fdd762"/><path d="m133.38 114.32h-1.56c-1.75-3.43-5-6.67-9.66-9.38-15-8.64-39.21-8.64-54.17 0-4.69 2.71-7.91 5.95-9.66 9.38h-1.56v6.26c0 5.66 3.74 11.32 11.22 15.64 15 8.64 39.21 8.64 54.17 0 7.48-4.32 11.22-10 11.22-15.64z" fill="#f9bf30"/><path d="m86.76 99a50.76 50.76 0 0 0 -18.76 5.93c-4.69 2.71-7.91 5.95-9.66 9.38h-1.57v6.26c0 5.66 3.74 11.32 11.22 15.64a50.77 50.77 0 0 0 18.78 5.95z" fill="#fdd762"/><path d="m122.26 136.15c7.41-4.31 11.12-9.94 11.12-15.58v-6.26h-1.56a22.33 22.33 0 0 0 -7.69-8.15h-1.87z" fill="#e8a200"/><g fill="#e8a200" opacity=".4"><path d="m131.41 113.59a18.27 18.27 0 0 0 -1.66-2.4v18.81a18.26 18.26 0 0 0 1.66-2.41z"/><path d="m68 104.93a30.17 30.17 0 0 0 -5.35 3.89v23.51c.52.48 1.07.95 1.66 1.41v-25.48h3.13v27.62l.56.34c.36.21.73.41 1.1.61v-28.57h3.13v30.07q.82.35 1.66.68v-30.75h3.11v31.82l1.66.48v-32.3h3.13v33.06l1.66.33v-33.39h3.15v33.88l1.66.2v-34.08h3.14v34.33l1.66.07v-34.4h3.13v34.42h1.66v-34.42h3.15v34.16l1.66-.17v-34h3.13v33.55l1.66-.3v-33.24h3.13v32.54l1.66-.45v-32.09h3.13v31.07q.84-.3 1.66-.64v-30.43h3.13v29q.85-.42 1.66-.88v-28.12h3.18v26.15c.59-.42 1.14-.85 1.66-1.29v-24.86h.28a31.12 31.12 0 0 0 -4.73-3.32 46.1 46.1 0 0 0 -11.75-4.63h-30.72a46.1 46.1 0 0 0 -11.74 4.62z"/><path d="m59.5 112.38a17.14 17.14 0 0 0 -1.18 1.94h-.48v11.47a16.42 16.42 0 0 0 1.66 3z"/></g><path d="m122.16 130c-15 8.64-39.21 8.64-54.17 0s-15-22.64 0-31.28 39.21-8.64 54.17 0 14.96 22.6 0 31.28z" fill="#fdd762"/><path d="m103.65 118.1c11-6.36 13.91-15.62 8.7-23.51-14.35-4.21-32.35-2.84-44.35 4.09-11 6.36-13.91 15.62-8.7 23.51 14.35 4.2 32.35 2.81 44.35-4.09z" fill="#fff" opacity=".2"/><path d="m122.16 130c-15 8.64-39.21 8.64-54.17 0-7.23-4.17-11-9.6-11.2-15.07-.26 5.85 3.47 11.75 11.2 16.21 15 8.64 39.21 8.64 54.17 0 7.73-4.46 11.45-10.36 11.2-16.21-.25 5.43-3.97 10.85-11.2 15.07z" fill="#fff" opacity=".7"/><path d="m114.3 125.42c-10.62 6.13-27.83 6.13-38.45 0s-10.62-16.07 0-22.2 27.83-6.13 38.45 0 10.62 16.07 0 22.2z" fill="#e8a200"/><path d="m75.85 104.65c10.62-6.13 27.83-6.13 38.45 0 5 2.88 7.64 6.61 7.93 10.38.33-4.25-2.31-8.57-7.93-11.82-10.62-6.13-27.83-6.13-38.45 0-5.62 3.25-8.27 7.56-7.93 11.82.29-3.77 2.93-7.5 7.93-10.38z" fill="#f9bf30"/><path d="m108.44 106.9-2.11.6.6.24-2.06 1.19a11.61 11.61 0 0 0 -5.22-1.22 10 10 0 0 0 -5 1.36 7.79 7.79 0 0 0 -1.52 1.1 3.23 3.23 0 0 0 -.81 1.16 3.91 3.91 0 0 0 -.27 1.11 6.29 6.29 0 0 0 0 1.21l.24 1.92a5.74 5.74 0 0 1 0 1.35 2.41 2.41 0 0 1 -.46 1.09 3.68 3.68 0 0 1 -1.21 1 2.46 2.46 0 0 1 -2.58.19q-.86-.5-.44-1.24a6.7 6.7 0 0 1 2.4-1.82v-1.44l-1.8.68-2.59-1.1a8.39 8.39 0 0 0 -3.09 2.72l-.3-.33v1.41c0 1 .75 1.92 2.23 2.87l-1 .59-1.39-.64v1.44l1.25.72 2.44-1.41a10.65 10.65 0 0 0 4.93 1 9.8 9.8 0 0 0 4.65-1.25 7.87 7.87 0 0 0 1.67-1.2 4 4 0 0 0 .92-1.33 5 5 0 0 0 .34-1.32 7.07 7.07 0 0 0 0-1.4l-.26-1.86c0-.37 0-.64 0-.81a3.72 3.72 0 0 1 .09-.7 1.63 1.63 0 0 1 .42-.8 3.89 3.89 0 0 1 .9-.68 3.65 3.65 0 0 1 1.38-.44 2.23 2.23 0 0 1 1.38.23 1.28 1.28 0 0 1 .43.33.4.4 0 0 1 .08.24l-2.14.45v1.44l4.34 1.93q.53-.34 1-.63a9.06 9.06 0 0 0 .88-.7 5.18 5.18 0 0 0 .73-.78 2.77 2.77 0 0 0 .41-.85 1.88 1.88 0 0 0 .07-.43s0 0 0 0v-1.47l-.55.12a5.13 5.13 0 0 0 -1.16-1l2.28-1.32z" fill="#f9bf30"/><path d="m82.05 120.94 2.42-1.39q-2.47-1.55-2.22-3.2t3.34-3.51l4.41 1.86a6.7 6.7 0 0 0 -2.29 1.85q-.42.74.44 1.24a2.46 2.46 0 0 0 2.58-.19 3.68 3.68 0 0 0 1.21-1 2.41 2.41 0 0 0 .46-1.09 5.74 5.74 0 0 0 0-1.35l-.24-1.92a6.29 6.29 0 0 1 -.16-1.24 3.91 3.91 0 0 1 .27-1.11 3.23 3.23 0 0 1 .81-1.16 7.8 7.8 0 0 1 1.52-1.1 10 10 0 0 1 5-1.36 11.62 11.62 0 0 1 5.22 1.22l2.29-1.32 1.27.74-2.28 1.32a5.13 5.13 0 0 1 1.16 1 2.49 2.49 0 0 1 .53.95 1.73 1.73 0 0 1 0 .91 2.77 2.77 0 0 1 -.41.85 5.18 5.18 0 0 1 -.73.78 9.06 9.06 0 0 1 -.88.7q-.42.29-1 .63l-4.34-1.93.81-.5q.31-.2.64-.45a2.66 2.66 0 0 0 .47-.43 1.17 1.17 0 0 0 .21-.38.39.39 0 0 0 -.07-.37 1.28 1.28 0 0 0 -.43-.33 2.23 2.23 0 0 0 -1.38-.23 3.65 3.65 0 0 0 -1.38.44 3.89 3.89 0 0 0 -.9.68 1.63 1.63 0 0 0 -.42.8 3.72 3.72 0 0 0 -.09.7v.81l.21 1.86a7.07 7.07 0 0 1 0 1.4 5 5 0 0 1 -.34 1.32 4 4 0 0 1 -.92 1.33 7.87 7.87 0 0 1 -1.51 1.23 9.8 9.8 0 0 1 -4.65 1.25 10.65 10.65 0 0 1 -4.93-1l-2.44 1.41z" fill="#fdd762"/><path d="m133.38 108.06h-1.56c-1.75-3.43-5-6.67-9.66-9.38-14.96-8.68-39.22-8.68-54.16-.01-4.69 2.71-7.91 5.95-9.66 9.38h-1.57v6.26c0 5.66 3.74 11.32 11.22 15.64 15 8.64 39.21 8.64 54.17 0 7.48-4.32 11.22-10 11.22-15.64z" fill="#f9bf30"/><path d="m86.76 92.73a50.76 50.76 0 0 0 -18.76 5.94c-4.69 2.71-7.91 5.95-9.66 9.38h-1.57v6.26c0 5.66 3.74 11.32 11.22 15.64a50.77 50.77 0 0 0 18.78 5.95z" fill="#fdd762"/><path d="m122.26 129.89c7.41-4.31 11.12-9.94 11.12-15.58v-6.26h-1.56a22.33 22.33 0 0 0 -7.69-8.15h-1.87z" fill="#e8a200"/><g fill="#e8a200" opacity=".4"><path d="m131.41 107.33a18.28 18.28 0 0 0 -1.66-2.4v18.8a18.26 18.26 0 0 0 1.66-2.41z"/><path d="m68 98.67a30.17 30.17 0 0 0 -5.35 3.89v23.51c.52.48 1.07.95 1.66 1.41v-25.48h3.13v27.62l.56.34c.36.21.73.41 1.1.61v-28.57h3.13v30.07q.82.35 1.66.68v-30.75h3.11v31.82q.82.25 1.66.48v-32.3h3.13v33.06l1.66.33v-33.39h3.15v33.88l1.66.2v-34.08h3.14v34.33l1.66.07v-34.4h3.13v34.42h1.66v-34.42h3.15v34.16l1.66-.17v-33.99h3.13v33.55l1.66-.3v-33.25h3.13v32.54l1.66-.45v-32.09h3.13v31.07q.84-.3 1.66-.64v-30.43h3.13v29q.85-.42 1.66-.88v-28.12h3.18v26.15c.59-.42 1.14-.85 1.66-1.29v-24.86h.28a31.11 31.11 0 0 0 -4.73-3.32 46.09 46.09 0 0 0 -11.81-4.68h-30.66a46.1 46.1 0 0 0 -11.74 4.67z"/><path d="m59.5 106.12a17.14 17.14 0 0 0 -1.18 1.94h-.48v11.47a16.42 16.42 0 0 0 1.66 3z"/></g><path d="m122.16 123.7c-15 8.64-39.21 8.64-54.17 0s-15-22.64 0-31.28 39.21-8.64 54.17 0 14.96 22.64 0 31.28z" fill="#fdd762"/><path d="m103.65 111.84c11-6.36 13.91-15.62 8.7-23.51-14.35-4.21-32.35-2.84-44.35 4.09-11 6.36-13.91 15.62-8.7 23.51 14.35 4.2 32.35 2.84 44.35-4.09z" fill="#fff" opacity=".2"/><path d="m122.16 123.7c-15 8.64-39.21 8.64-54.17 0-7.23-4.17-11-9.6-11.2-15.07-.26 5.85 3.47 11.75 11.2 16.21 15 8.64 39.21 8.64 54.17 0 7.73-4.46 11.45-10.36 11.2-16.21-.25 5.47-3.97 10.89-11.2 15.07z" fill="#fff" opacity=".7"/><path d="m114.3 119.16c-10.62 6.13-27.83 6.13-38.45 0s-10.62-16.07 0-22.2 27.83-6.13 38.45 0 10.62 16.04 0 22.2z" fill="#e8a200"/><path d="m75.85 98.39c10.62-6.13 27.83-6.13 38.45 0 5 2.88 7.64 6.61 7.93 10.38.33-4.25-2.31-8.57-7.93-11.82-10.62-6.13-27.83-6.13-38.45 0-5.62 3.25-8.27 7.56-7.93 11.82.29-3.77 2.93-7.5 7.93-10.38z" fill="#f9bf30"/><path d="m108.44 100.64-2.11.6.6.24-2.06 1.19a11.62 11.62 0 0 0 -5.22-1.22 10 10 0 0 0 -5 1.36 7.8 7.8 0 0 0 -1.52 1.1 3.23 3.23 0 0 0 -.81 1.16 3.91 3.91 0 0 0 -.27 1.11 6.29 6.29 0 0 0 0 1.21l.24 1.92a5.74 5.74 0 0 1 0 1.35 2.41 2.41 0 0 1 -.46 1.09 3.68 3.68 0 0 1 -1.21 1 2.46 2.46 0 0 1 -2.58.19q-.86-.5-.44-1.24a6.7 6.7 0 0 1 2.4-1.82v-1.44l-1.8.68-2.6-1.12a8.39 8.39 0 0 0 -3.07 2.76l-.3-.33v1.41c0 1 .75 1.92 2.23 2.87l-1 .59-1.39-.64v1.44l1.25.72 2.44-1.41a10.65 10.65 0 0 0 4.93 1 9.8 9.8 0 0 0 4.65-1.25 7.87 7.87 0 0 0 1.66-1.22 4 4 0 0 0 .92-1.33 5 5 0 0 0 .34-1.32 7.07 7.07 0 0 0 0-1.4l-.26-1.89c0-.37 0-.64 0-.81a3.72 3.72 0 0 1 .09-.7 1.63 1.63 0 0 1 .42-.8 3.89 3.89 0 0 1 .9-.68 3.65 3.65 0 0 1 1.38-.44 2.23 2.23 0 0 1 1.38.23 1.28 1.28 0 0 1 .43.33.4.4 0 0 1 .08.24l-2.14.45v1.44l4.34 1.93q.53-.34 1-.63a9.07 9.07 0 0 0 .88-.7 5.18 5.18 0 0 0 .73-.78 2.77 2.77 0 0 0 .41-.85 1.88 1.88 0 0 0 .07-.43s0 0 0 0v-1.47l-.55.12a5.13 5.13 0 0 0 -1.16-1l2.28-1.32z" fill="#f9bf30"/><path d="m82.05 114.68 2.42-1.39q-2.48-1.57-2.22-3.19t3.34-3.51l4.41 1.85a6.7 6.7 0 0 0 -2.29 1.85q-.42.74.44 1.24a2.46 2.46 0 0 0 2.58-.19 3.68 3.68 0 0 0 1.21-1 2.41 2.41 0 0 0 .46-1.09 5.74 5.74 0 0 0 0-1.35l-.31-1.9a6.29 6.29 0 0 1 0-1.21 3.91 3.91 0 0 1 .27-1.11 3.23 3.23 0 0 1 .81-1.16 7.79 7.79 0 0 1 1.52-1.1 10 10 0 0 1 5-1.36 11.61 11.61 0 0 1 5.22 1.22l2.29-1.32 1.27.74-2.31 1.3a5.13 5.13 0 0 1 1.16 1 2.5 2.5 0 0 1 .53.95 1.73 1.73 0 0 1 0 .91 2.77 2.77 0 0 1 -.41.85 5.18 5.18 0 0 1 -.73.78 9.06 9.06 0 0 1 -.88.7q-.42.29-1 .63l-4.34-1.93.81-.5q.31-.2.64-.45a2.66 2.66 0 0 0 .47-.43 1.17 1.17 0 0 0 .21-.38.39.39 0 0 0 -.07-.37 1.28 1.28 0 0 0 -.43-.33 2.23 2.23 0 0 0 -1.38-.23 3.65 3.65 0 0 0 -1.38.44 3.89 3.89 0 0 0 -.9.68 1.63 1.63 0 0 0 -.42.8 3.72 3.72 0 0 0 -.09.7v.81l.21 1.86a7.07 7.07 0 0 1 0 1.4 5 5 0 0 1 -.34 1.32 4 4 0 0 1 -.82 1.29 7.87 7.87 0 0 1 -1.65 1.23 9.8 9.8 0 0 1 -4.68 1.27 10.65 10.65 0 0 1 -4.93-1l-2.44 1.4z" fill="#fdd762"/><path d="m133.38 101.8h-1.56c-1.75-3.43-5-6.67-9.66-9.38-15-8.64-39.21-8.64-54.17 0-4.69 2.71-7.91 5.95-9.66 9.38h-1.56v6.26c0 5.66 3.74 11.32 11.22 15.64 15 8.64 39.21 8.64 54.17 0 7.48-4.32 11.22-10 11.22-15.64z" fill="#f9bf30"/><path d="m86.76 86.47a50.76 50.76 0 0 0 -18.76 5.94c-4.69 2.71-7.91 5.95-9.66 9.38h-1.57v6.26c0 5.66 3.74 11.32 11.22 15.64a50.76 50.76 0 0 0 18.78 5.95z" fill="#fdd762"/><path d="m122.26 123.63c7.41-4.31 11.12-9.94 11.12-15.58v-6.25h-1.56a22.33 22.33 0 0 0 -7.69-8.15h-1.87z" fill="#e8a200"/><g fill="#e8a200" opacity=".4"><path d="m131.41 101.07a18.27 18.27 0 0 0 -1.66-2.4v18.8a18.26 18.26 0 0 0 1.66-2.41z"/><path d="m68 92.41a30.17 30.17 0 0 0 -5.35 3.89v23.51c.52.48 1.07.95 1.66 1.41v-25.48h3.13v27.62l.56.34c.36.21.73.41 1.1.61v-28.57h3.13v30.06q.82.35 1.66.68v-30.74h3.11v31.82l1.66.48v-32.3h3.13v33.06l1.66.33v-33.39h3.15v33.88l1.66.2v-34.08h3.14v34.33l1.66.07v-34.4h3.13v34.42h1.66v-34.42h3.15v34.16l1.66-.17v-34h3.13v33.55l1.66-.3v-33.24h3.13v32.54l1.66-.45v-32.09h3.13v31.07q.84-.3 1.66-.64v-30.43h3.13v29q.85-.42 1.66-.88v-28.12h3.18v26.15c.59-.42 1.14-.85 1.66-1.29v-24.86h.28a31.12 31.12 0 0 0 -4.73-3.32 46.1 46.1 0 0 0 -11.75-4.63h-30.72a46.1 46.1 0 0 0 -11.74 4.62z"/><path d="m59.5 99.86a17.13 17.13 0 0 0 -1.18 1.94h-.48v11.47a16.42 16.42 0 0 0 1.66 3z"/></g><path d="m122.16 117.43c-15 8.64-39.21 8.64-54.17 0s-14.99-22.64.01-31.27 39.21-8.64 54.17 0 14.95 22.64-.01 31.27z" fill="#fdd762"/><path d="m103.65 105.58c11-6.36 13.91-15.62 8.7-23.51-14.35-4.21-32.35-2.84-44.35 4.09-11 6.36-13.91 15.62-8.7 23.51 14.35 4.2 32.35 2.84 44.35-4.09z" fill="#fff" opacity=".2"/><path d="m122.16 117.43c-15 8.64-39.21 8.64-54.17 0-7.23-4.17-11-9.6-11.2-15.07-.26 5.85 3.47 11.75 11.2 16.21 15 8.64 39.21 8.64 54.17 0 7.73-4.46 11.45-10.36 11.2-16.21-.25 5.48-3.97 10.9-11.2 15.07z" fill="#fff" opacity=".7"/><path d="m114.3 112.9c-10.62 6.13-27.83 6.13-38.45 0s-10.62-16.07 0-22.2 27.83-6.13 38.45 0 10.62 16.07 0 22.2z" fill="#e8a200"/><path d="m75.85 92.13c10.62-6.13 27.83-6.13 38.45 0 5 2.88 7.64 6.61 7.93 10.38.33-4.25-2.31-8.57-7.93-11.82-10.62-6.13-27.83-6.13-38.45 0-5.62 3.25-8.27 7.56-7.93 11.82.29-3.77 2.93-7.51 7.93-10.38z" fill="#f9bf30"/><path d="m108.44 94.38-2.11.6.6.24-2.06 1.19a11.61 11.61 0 0 0 -5.22-1.22 10 10 0 0 0 -5 1.36 7.8 7.8 0 0 0 -1.52 1.1 3.23 3.23 0 0 0 -.81 1.16 3.91 3.91 0 0 0 -.32 1.12 6.29 6.29 0 0 0 0 1.21l.24 1.92a5.74 5.74 0 0 1 0 1.35 2.41 2.41 0 0 1 -.46 1.09 3.68 3.68 0 0 1 -1.21 1 2.46 2.46 0 0 1 -2.58.19q-.86-.5-.44-1.24a6.7 6.7 0 0 1 2.45-1.83v-1.44l-1.8.68-2.59-1.1a8.39 8.39 0 0 0 -3.07 2.76l-.3-.33v1.41c0 1 .75 1.92 2.23 2.87l-1 .59-1.39-.64v1.44l1.25.72 2.44-1.41a10.65 10.65 0 0 0 4.93 1 9.8 9.8 0 0 0 4.65-1.25 7.87 7.87 0 0 0 1.65-1.24 4 4 0 0 0 .92-1.33 5 5 0 0 0 .34-1.32 7.07 7.07 0 0 0 0-1.4l-.26-1.86c0-.37 0-.64 0-.81a3.72 3.72 0 0 1 .09-.7 1.63 1.63 0 0 1 .42-.8 3.89 3.89 0 0 1 .9-.68 3.65 3.65 0 0 1 1.38-.44 2.23 2.23 0 0 1 1.38.23 1.28 1.28 0 0 1 .43.33.4.4 0 0 1 .08.24l-2.14.45v1.41l4.34 1.93q.53-.34 1-.63a9 9 0 0 0 .88-.7 5.18 5.18 0 0 0 .73-.78 2.77 2.77 0 0 0 .41-.85 1.88 1.88 0 0 0 .07-.43s0 0 0 0v-1.54l-.55.12a5.13 5.13 0 0 0 -1.16-1l2.28-1.32z" fill="#f9bf30"/><path d="m82.05 108.42 2.42-1.42q-2.48-1.57-2.22-3.19t3.34-3.51l4.41 1.88a6.7 6.7 0 0 0 -2.31 1.82q-.42.74.44 1.24a2.46 2.46 0 0 0 2.58-.19 3.68 3.68 0 0 0 1.21-1 2.41 2.41 0 0 0 .46-1.09 5.74 5.74 0 0 0 0-1.35l-.24-1.92a6.29 6.29 0 0 1 0-1.21 3.91 3.91 0 0 1 .27-1.11 3.23 3.23 0 0 1 .81-1.16 7.8 7.8 0 0 1 1.52-1.1 10 10 0 0 1 5-1.36 11.62 11.62 0 0 1 5.14 1.25l2.29-1.32 1.27.74-2.28 1.32a5.13 5.13 0 0 1 1.16 1 2.5 2.5 0 0 1 .53.95 1.73 1.73 0 0 1 0 .91 2.77 2.77 0 0 1 -.41.85 5.18 5.18 0 0 1 -.73.78 9.06 9.06 0 0 1 -.88.7q-.42.29-1 .63l-4.34-1.93.81-.5q.31-.2.64-.45a2.66 2.66 0 0 0 .47-.43 1.17 1.17 0 0 0 .21-.38.39.39 0 0 0 -.07-.37 1.28 1.28 0 0 0 -.43-.33 2.23 2.23 0 0 0 -1.38-.23 3.65 3.65 0 0 0 -1.38.44 3.89 3.89 0 0 0 -.9.68 1.63 1.63 0 0 0 -.42.8 3.72 3.72 0 0 0 -.09.7v.81l.21 1.86a7.07 7.07 0 0 1 0 1.4 5 5 0 0 1 -.34 1.32 4 4 0 0 1 -.92 1.33 7.87 7.87 0 0 1 -1.65 1.23 9.8 9.8 0 0 1 -4.65 1.25 10.65 10.65 0 0 1 -4.93-1l-2.44 1.41z" fill="#fdd762"/><path d="m136.11 95.54h-1.56c-1.75-3.43-5-6.67-9.66-9.38-15-8.64-39.21-8.64-54.17 0-4.69 2.71-7.91 5.95-9.66 9.38h-1.56v6.26c0 5.66 3.74 11.32 11.22 15.64 15 8.64 39.21 8.64 54.17 0 7.48-4.32 11.22-10 11.22-15.64z" fill="#f9bf30"/><path d="m89.5 80.21a50.76 50.76 0 0 0 -18.78 5.95c-4.69 2.71-7.91 5.95-9.66 9.38h-1.56v6.26c0 5.66 3.74 11.32 11.22 15.64a50.77 50.77 0 0 0 18.78 5.95z" fill="#fdd762"/><path d="m125 117.37c7.41-4.31 11.12-9.94 11.11-15.58v-6.25h-1.56a22.33 22.33 0 0 0 -7.69-8.15h-1.86z" fill="#e8a200"/><g fill="#e8a200" opacity=".4"><path d="m134.14 94.81a18.28 18.28 0 0 0 -1.66-2.4v18.8a18.26 18.26 0 0 0 1.66-2.41z"/><path d="m70.72 86.15a30.17 30.17 0 0 0 -5.35 3.85v23.51c.52.48 1.07.95 1.66 1.41v-25.44h3.13v27.62l.56.34c.36.21.73.41 1.1.61v-28.57h3.18v30.07q.82.35 1.66.68v-30.75h3.13v31.82l1.66.48v-32.3h3.13v33.06l1.66.33v-33.39h3.13v33.88l1.66.2v-34.08h3.13v34.33l1.66.07v-34.4h3.13v34.42h1.66v-34.42h3.13v34.16l1.66-.17v-34h3.13v33.53l1.66-.3v-33.22h3.13v32.52l1.66-.45v-32.07h3.13v31.07q.84-.3 1.66-.64v-30.43h3.13v29q.85-.42 1.66-.88v-28.12h3.13v26.15c.59-.42 1.14-.85 1.66-1.29v-24.86h.28a31.12 31.12 0 0 0 -4.73-3.32 46.1 46.1 0 0 0 -11.75-4.63h-30.67a46.09 46.09 0 0 0 -11.76 4.62z"/><path d="m62.24 93.6a17.17 17.17 0 0 0 -1.18 1.94h-.48v11.46a16.43 16.43 0 0 0 1.66 3z"/></g><path d="m124.89 111.17c-15 8.64-39.21 8.64-54.17 0s-15-22.64 0-31.28 39.21-8.64 54.17 0 14.96 22.65 0 31.28z" fill="#fdd762"/><path d="m106.39 99.32c11-6.36 13.91-15.62 8.7-23.51-14.37-4.21-32.36-2.81-44.37 4.09-11 6.36-13.91 15.62-8.7 23.51 14.37 4.2 32.36 2.84 44.37-4.09z" fill="#fff" opacity=".2"/><path d="m124.89 111.17c-15 8.64-39.21 8.64-54.17 0-7.23-4.17-11-9.6-11.2-15.07-.26 5.85 3.47 11.75 11.2 16.21 15 8.64 39.21 8.64 54.17 0 7.73-4.46 11.45-10.36 11.2-16.21-.24 5.48-3.97 10.9-11.2 15.07z" fill="#fff" opacity=".7"/><path d="m117 106.64c-10.62 6.13-27.83 6.13-38.45 0s-10.62-16.07 0-22.2 27.83-6.13 38.45 0 10.65 16.07 0 22.2z" fill="#e8a200"/><path d="m78.58 85.87c10.62-6.13 27.83-6.13 38.45 0 5 2.88 7.64 6.61 7.93 10.38.33-4.25-2.31-8.57-7.93-11.82-10.62-6.13-27.83-6.13-38.45 0-5.58 3.25-8.27 7.57-7.93 11.82.3-3.77 2.94-7.5 7.93-10.38z" fill="#f9bf30"/><path d="m111.18 88.12-2.11.6.6.24-2.06 1.19a11.61 11.61 0 0 0 -5.22-1.22 10 10 0 0 0 -5 1.36 7.79 7.79 0 0 0 -1.52 1.1 3.23 3.23 0 0 0 -.87 1.16 3.91 3.91 0 0 0 -.27 1.11 6.29 6.29 0 0 0 0 1.21l.24 1.92a5.74 5.74 0 0 1 0 1.35 2.41 2.41 0 0 1 -.46 1.09 3.68 3.68 0 0 1 -1.21 1 2.46 2.46 0 0 1 -2.58.19q-.86-.5-.44-1.24a6.69 6.69 0 0 1 2.29-1.85v-1.41l-1.8.68-2.59-1.1a8.39 8.39 0 0 0 -3.07 2.76l-.3-.33v1.41c0 1 .75 1.92 2.23 2.87l-1 .59-1.39-.64v1.44l1.25.72 2.44-1.41a10.65 10.65 0 0 0 4.93 1 9.8 9.8 0 0 0 4.65-1.25 7.87 7.87 0 0 0 1.65-1.23 4 4 0 0 0 .92-1.33 5 5 0 0 0 .34-1.32 7.07 7.07 0 0 0 0-1.4l-.21-1.86c0-.37 0-.64 0-.81a3.72 3.72 0 0 1 .09-.7 1.63 1.63 0 0 1 .42-.8 3.89 3.89 0 0 1 .9-.68 3.65 3.65 0 0 1 1.38-.44 2.23 2.23 0 0 1 1.38.23 1.28 1.28 0 0 1 .43.33.4.4 0 0 1 .08.24l-2.14.45v1.44l4.34 1.93q.53-.34 1-.63a9.06 9.06 0 0 0 .88-.7 5.18 5.18 0 0 0 .73-.78 2.77 2.77 0 0 0 .41-.85 1.88 1.88 0 0 0 .07-.43s0 0 0 0v-1.54l-.55.12a5.13 5.13 0 0 0 -1.16-1l2.28-1.32z" fill="#f9bf30"/><path d="m84.79 102.16 2.42-1.39q-2.48-1.58-2.21-3.2t3.34-3.51l4.39 1.86a6.7 6.7 0 0 0 -2.29 1.85q-.42.74.44 1.24a2.46 2.46 0 0 0 2.58-.19 3.68 3.68 0 0 0 1.21-1 2.41 2.41 0 0 0 .46-1.09 5.74 5.74 0 0 0 0-1.35l-.24-1.92a6.28 6.28 0 0 1 0-1.21 3.91 3.91 0 0 1 .11-1.14 3.23 3.23 0 0 1 .86-1.11 7.8 7.8 0 0 1 1.52-1.1 10 10 0 0 1 5-1.36 11.61 11.61 0 0 1 5.22 1.22l2.29-1.32 1.27.74-2.28 1.32a5.13 5.13 0 0 1 1.16 1 2.5 2.5 0 0 1 .53.95 1.73 1.73 0 0 1 0 .91 2.77 2.77 0 0 1 -.41.85 5.18 5.18 0 0 1 -.73.78 9 9 0 0 1 -.88.7q-.42.29-1 .63l-4.34-1.93.81-.5q.32-.2.64-.45a2.66 2.66 0 0 0 .47-.43 1.17 1.17 0 0 0 .21-.38.39.39 0 0 0 -.07-.37 1.28 1.28 0 0 0 -.43-.33 2.23 2.23 0 0 0 -1.38-.23 3.65 3.65 0 0 0 -1.38.44 3.89 3.89 0 0 0 -.9.68 1.63 1.63 0 0 0 -.42.8 3.72 3.72 0 0 0 -.09.7v.81l.21 1.86a7.07 7.07 0 0 1 0 1.4 5 5 0 0 1 -.34 1.32 4 4 0 0 1 -.92 1.33 7.88 7.88 0 0 1 -1.65 1.23 9.8 9.8 0 0 1 -4.65 1.25 10.65 10.65 0 0 1 -4.93-1l-2.39 1.36z" fill="#fdd762"/><path d="m128.42 87.9h-1.56c-1.75-3.43-5-6.67-9.66-9.38-15-8.64-39.21-8.64-54.17 0-4.69 2.71-7.91 5.95-9.66 9.38h-1.56v6.26c0 5.66 3.74 11.32 11.22 15.64 15 8.64 39.21 8.64 54.17 0 7.48-4.32 11.22-10 11.22-15.64z" fill="#f9bf30"/><path d="m81.81 72.57a50.77 50.77 0 0 0 -18.81 5.94c-4.69 2.71-7.91 5.95-9.66 9.38h-1.53v6.26c0 5.66 3.74 11.32 11.22 15.64a50.76 50.76 0 0 0 18.78 5.95z" fill="#fdd762"/><path d="m117.31 109.73c7.41-4.31 11.12-9.94 11.11-15.58v-6.25h-1.56a22.33 22.33 0 0 0 -7.69-8.15h-1.87z" fill="#e8a200"/><g fill="#e8a200" opacity=".4"><path d="m126.45 87.17a18.28 18.28 0 0 0 -1.66-2.4v18.8a18.27 18.27 0 0 0 1.66-2.41z"/><path d="m63 78.51a30.18 30.18 0 0 0 -5.35 3.89v23.51c.52.48 1.07.95 1.66 1.41v-25.48h3.13v27.62l.56.34c.36.21.73.41 1.1.61v-28.57h3.13v30.06q.82.35 1.66.68v-30.74h3.13v31.82l1.66.48v-32.3h3.13v33.06l1.66.33v-33.39h3.13v33.88l1.66.2v-34.08h3.13v34.33l1.66.07v-34.4h3.13v34.42h1.66v-34.42h3.16v34.16l1.66-.17v-34h3.13v33.55l1.66-.3v-33.24h3.13v32.54l1.66-.45v-32.09h3.13v31.07q.84-.3 1.66-.64v-30.43h3.13v29q.85-.42 1.66-.88v-28.12h3.18v26.16c.59-.42 1.14-.85 1.66-1.29v-24.87h.28a31.11 31.11 0 0 0 -4.73-3.32 46.1 46.1 0 0 0 -11.75-4.63h-30.68a46.1 46.1 0 0 0 -11.78 4.62z"/><path d="m54.55 86a17.13 17.13 0 0 0 -1.18 1.94h-.48v11.42a16.42 16.42 0 0 0 1.66 3z"/></g><path d="m117.2 103.53c-15 8.64-39.21 8.64-54.17 0s-15-22.64 0-31.28 39.21-8.64 54.17 0 14.96 22.65 0 31.28z" fill="#fdd762"/><path d="m98.7 91.68c11-6.36 13.91-15.62 8.7-23.51-14.4-4.17-32.4-2.84-44.4 4.09-11 6.36-13.91 15.62-8.7 23.51 14.39 4.23 32.39 2.84 44.4-4.09z" fill="#fff" opacity=".2"/><path d="m117.2 103.53c-15 8.64-39.21 8.64-54.17 0-7.23-4.17-11-9.6-11.2-15.07-.26 5.85 3.47 11.75 11.2 16.21 15 8.64 39.21 8.64 54.17 0 7.73-4.46 11.45-10.36 11.2-16.21-.25 5.48-3.97 10.9-11.2 15.07z" fill="#fff" opacity=".7"/><path d="m109.34 99c-10.62 6.13-27.83 6.13-38.45 0s-10.62-16.07 0-22.2 27.83-6.13 38.45 0 10.66 16.07 0 22.2z" fill="#e8a200"/><path d="m70.89 78.23c10.62-6.13 27.83-6.13 38.45 0 5 2.88 7.64 6.61 7.93 10.38.33-4.25-2.31-8.57-7.93-11.82-10.62-6.13-27.83-6.13-38.45 0-5.63 3.21-8.27 7.57-7.89 11.82.25-3.77 2.9-7.5 7.89-10.38z" fill="#f9bf30"/><path d="m103.49 80.48-2.11.6.6.24-2.06 1.19a11.61 11.61 0 0 0 -5.22-1.22 10 10 0 0 0 -5 1.36 7.79 7.79 0 0 0 -1.52 1.1 3.23 3.23 0 0 0 -.81 1.16 3.91 3.91 0 0 0 -.29 1.09 6.29 6.29 0 0 0 0 1.21l.24 1.92a5.74 5.74 0 0 1 0 1.35 2.41 2.41 0 0 1 -.32 1.11 3.68 3.68 0 0 1 -1.21 1 2.46 2.46 0 0 1 -2.58.19q-.86-.5-.44-1.24a6.69 6.69 0 0 1 2.23-1.82v-1.44l-1.8.68-2.59-1.1a8.39 8.39 0 0 0 -3.07 2.76l-.3-.33v1.41c0 1 .75 1.92 2.23 2.87l-1 .59-1.39-.64v1.48l1.25.72 2.44-1.41a10.65 10.65 0 0 0 4.93 1 9.8 9.8 0 0 0 4.67-1.31 7.87 7.87 0 0 0 1.63-1.22 4 4 0 0 0 .92-1.33 5 5 0 0 0 .34-1.32 7.07 7.07 0 0 0 0-1.4l-.21-1.86c0-.37 0-.64 0-.81a3.71 3.71 0 0 1 .09-.7 1.63 1.63 0 0 1 .42-.8 3.89 3.89 0 0 1 .9-.68 3.65 3.65 0 0 1 1.38-.44 2.23 2.23 0 0 1 1.38.23 1.28 1.28 0 0 1 .43.33.4.4 0 0 1 .08.24l-2.14.45v1.44l4.34 1.93q.53-.34 1-.63a9 9 0 0 0 .88-.7 5.18 5.18 0 0 0 .73-.78 2.77 2.77 0 0 0 .41-.85 1.88 1.88 0 0 0 .07-.43s0 0 0 0v-1.52l-.55.12a5.13 5.13 0 0 0 -1.16-1l2.28-1.32z" fill="#f9bf30"/><path d="m77.1 94.52 2.42-1.39q-2.52-1.58-2.22-3.2t3.34-3.51l4.36 1.86a6.69 6.69 0 0 0 -2.29 1.85q-.42.74.44 1.24a2.46 2.46 0 0 0 2.58-.19 3.68 3.68 0 0 0 1.21-1 2.41 2.41 0 0 0 .46-1.09 5.74 5.74 0 0 0 0-1.35l-.24-1.92a6.3 6.3 0 0 1 0-1.21 3.92 3.92 0 0 1 .27-1.11 3.23 3.23 0 0 1 .81-1.16 7.8 7.8 0 0 1 1.52-1.1 10 10 0 0 1 5-1.36 11.62 11.62 0 0 1 5.22 1.22l2.29-1.32 1.27.74-2.28 1.32a5.13 5.13 0 0 1 1.16 1 2.49 2.49 0 0 1 .53.95 1.73 1.73 0 0 1 0 .91 2.77 2.77 0 0 1 -.41.85 5.18 5.18 0 0 1 -.73.78 9.05 9.05 0 0 1 -.87.7q-.42.29-1 .63l-4.34-1.93.81-.5q.31-.2.64-.45a2.66 2.66 0 0 0 .47-.43 1.17 1.17 0 0 0 .21-.38.39.39 0 0 0 -.07-.37 1.28 1.28 0 0 0 -.43-.33 2.23 2.23 0 0 0 -1.42-.27 3.65 3.65 0 0 0 -1.38.44 3.89 3.89 0 0 0 -.9.68 1.63 1.63 0 0 0 -.42.8 3.71 3.71 0 0 0 -.09.7v.81l.21 1.86a7.08 7.08 0 0 1 0 1.4 5 5 0 0 1 -.29 1.31 4 4 0 0 1 -.94 1.34 7.87 7.87 0 0 1 -1.65 1.23 9.8 9.8 0 0 1 -4.65 1.25 10.65 10.65 0 0 1 -4.93-1l-2.44 1.41z" fill="#fdd762"/><path d="m191.47 167.2h-1.56c-1.75-3.43-5-6.67-9.66-9.38-15-8.64-39.21-8.64-54.17 0-4.69 2.71-7.91 5.95-9.66 9.38h-1.56v6.26c0 5.66 3.74 11.32 11.22 15.64 15 8.64 39.21 8.64 54.17 0 7.48-4.32 11.22-10 11.22-15.64z" fill="#f9bf30"/><path d="m144.86 151.87a50.76 50.76 0 0 0 -18.78 5.95c-4.69 2.71-7.91 5.95-9.66 9.38h-1.56v6.26c0 5.66 3.74 11.32 11.22 15.64a50.77 50.77 0 0 0 18.78 5.9z" fill="#fdd762"/><path d="m180.36 189c7.41-4.31 11.12-9.94 11.11-15.58v-6.22h-1.56a22.33 22.33 0 0 0 -7.69-8.15h-1.87z" fill="#e8a200"/><g fill="#e8a200" opacity=".4"><path d="m189.5 166.47a18.29 18.29 0 0 0 -1.66-2.4v18.8a18.26 18.26 0 0 0 1.66-2.41z"/><path d="m126.08 157.82a30.17 30.17 0 0 0 -5.35 3.89v23.51c.52.48 1.07.95 1.66 1.41v-25.49h3.13v27.62l.56.34c.36.21.73.41 1.1.61v-28.57h3.13v30.07q.82.35 1.66.68v-30.75h3.13v31.86l1.66.48v-32.34h3.13v33.06l1.66.33v-33.39h3.13v33.86l1.66.2v-34.06h3.13v34.33l1.66.07v-34.4h3.13v34.42h1.66v-34.42h3.13v34.16l1.66-.17v-34h3.13v33.55l1.66-.3v-33.24h3.13v32.54l1.66-.45v-32.09h3.13v31.07q.84-.3 1.66-.64v-30.43h3.13v29q.85-.42 1.66-.88v-28.12h3.13v26.15c.59-.42 1.14-.85 1.66-1.29v-24.86h.34a31.11 31.11 0 0 0 -4.73-3.32 46.1 46.1 0 0 0 -11.75-4.63h-30.68a46.1 46.1 0 0 0 -11.76 4.63z"/><path d="m117.6 165.26a17.16 17.16 0 0 0 -1.18 1.94h-.48v11.47a16.43 16.43 0 0 0 1.66 3z"/></g><path d="m180.26 182.84c-15 8.64-39.21 8.64-54.17 0s-15-22.64 0-31.28 39.21-8.64 54.17 0 14.95 22.64 0 31.28z" fill="#fdd762"/><path d="m161.75 171c11-6.36 13.91-15.62 8.7-23.51-14.37-4.2-32.36-2.84-44.37 4.1-11 6.36-13.91 15.62-8.7 23.51 14.37 4.18 32.36 2.81 44.37-4.1z" fill="#fff" opacity=".2"/><path d="m180.26 182.84c-15 8.64-39.21 8.64-54.17 0-7.23-4.17-11-9.6-11.2-15.07-.26 5.85 3.47 11.75 11.2 16.21 15 8.64 39.21 8.64 54.17 0 7.73-4.46 11.45-10.36 11.2-16.21-.25 5.47-3.98 10.9-11.2 15.07z" fill="#fff" opacity=".7"/><path d="m172.4 178.3c-10.62 6.13-27.83 6.13-38.45 0s-10.62-16.07 0-22.2 27.83-6.13 38.45 0 10.6 16.07 0 22.2z" fill="#e8a200"/><path d="m133.94 157.53c10.62-6.13 27.83-6.13 38.45 0 5 2.88 7.64 6.61 7.93 10.38.33-4.25-2.31-8.57-7.93-11.82-10.62-6.13-27.83-6.13-38.45 0-5.62 3.25-8.27 7.56-7.93 11.82.3-3.77 2.94-7.49 7.93-10.38z" fill="#f9bf30"/><path d="m166.54 159.79-2.11.6.6.24-2.03 1.19a11.61 11.61 0 0 0 -5.22-1.22 10 10 0 0 0 -5 1.36 7.79 7.79 0 0 0 -1.52 1.1 3.23 3.23 0 0 0 -.81 1.16 3.91 3.91 0 0 0 -.27 1.11 6.29 6.29 0 0 0 0 1.21l.24 1.92a5.74 5.74 0 0 1 0 1.35 2.41 2.41 0 0 1 -.46 1.09 3.68 3.68 0 0 1 -1.21 1 2.46 2.46 0 0 1 -2.58.19q-.86-.5-.44-1.24a6.69 6.69 0 0 1 2.29-1.85v-1.44l-1.8.68-2.59-1.1a8.39 8.39 0 0 0 -3.07 2.76l-.3-.33v1.43c0 1 .75 1.92 2.23 2.87l-1 .59-1.39-.64v1.44l1.25.72 2.44-1.41a10.65 10.65 0 0 0 4.93 1 9.8 9.8 0 0 0 4.65-1.25 7.87 7.87 0 0 0 1.65-1.23 4 4 0 0 0 .92-1.33 5 5 0 0 0 .34-1.32 7.06 7.06 0 0 0 0-1.4l-.21-1.86c0-.37 0-.64 0-.81a3.71 3.71 0 0 1 .09-.7 1.63 1.63 0 0 1 .42-.8 3.89 3.89 0 0 1 .9-.68 3.65 3.65 0 0 1 1.38-.44 2.23 2.23 0 0 1 1.38.23 1.28 1.28 0 0 1 .43.33.4.4 0 0 1 .08.24l-2.14.45v1.44l4.34 1.93q.53-.34 1-.63a9.06 9.06 0 0 0 .88-.7 5.18 5.18 0 0 0 .73-.78 2.77 2.77 0 0 0 .41-.85 1.88 1.88 0 0 0 .03-.41s0 0 0 0v-1.47l-.55.12a5.13 5.13 0 0 0 -1.16-1l2.28-1.32z" fill="#f9bf30"/><path d="m140.15 173.82 2.42-1.39q-2.48-1.57-2.22-3.19t3.34-3.51l4.39 1.86a6.69 6.69 0 0 0 -2.29 1.85q-.42.74.44 1.24a2.46 2.46 0 0 0 2.58-.19 3.68 3.68 0 0 0 1.21-1 2.41 2.41 0 0 0 .46-1.09 5.74 5.74 0 0 0 0-1.35l-.24-1.92a6.29 6.29 0 0 1 0-1.21 3.91 3.91 0 0 1 .27-1.11 3.23 3.23 0 0 1 .81-1.16 7.8 7.8 0 0 1 1.52-1.1 10 10 0 0 1 5-1.36 11.61 11.61 0 0 1 5.22 1.22l2.29-1.32 1.27.74-2.28 1.32a5.13 5.13 0 0 1 1.16 1 2.49 2.49 0 0 1 .53.95 1.73 1.73 0 0 1 0 .91 2.77 2.77 0 0 1 -.41.85 5.18 5.18 0 0 1 -.73.78 9 9 0 0 1 -.88.7q-.42.29-1 .63l-4.4-1.97.81-.5q.31-.2.64-.45a2.66 2.66 0 0 0 .47-.43 1.17 1.17 0 0 0 .21-.38.39.39 0 0 0 -.07-.37 1.28 1.28 0 0 0 -.43-.33 2.23 2.23 0 0 0 -1.38-.23 3.65 3.65 0 0 0 -1.38.44 3.89 3.89 0 0 0 -.9.68 1.63 1.63 0 0 0 -.42.8 3.72 3.72 0 0 0 -.09.7v.81l.21 1.86a7.07 7.07 0 0 1 0 1.4 5 5 0 0 1 -.34 1.32 4 4 0 0 1 -.92 1.33 7.88 7.88 0 0 1 -1.65 1.23 9.8 9.8 0 0 1 -4.65 1.25 10.65 10.65 0 0 1 -4.93-1l-2.44 1.41z" fill="#fdd762"/><path d="m191.47 160.94h-1.56c-1.75-3.43-5-6.67-9.66-9.38-15-8.64-39.21-8.64-54.17 0-4.69 2.71-7.91 5.95-9.66 9.38h-1.56v6.26c0 5.66 3.74 11.32 11.22 15.64 15 8.64 39.21 8.64 54.17 0 7.48-4.32 11.22-10 11.22-15.64z" fill="#f9bf30"/><path d="m144.86 145.61a50.76 50.76 0 0 0 -18.78 5.95c-4.69 2.71-7.91 5.95-9.66 9.38h-1.56v6.26c0 5.66 3.74 11.32 11.22 15.64a50.77 50.77 0 0 0 18.78 5.95z" fill="#fdd762"/><path d="m180.36 182.77c7.41-4.31 11.12-9.94 11.11-15.58v-6.26h-1.56a22.33 22.33 0 0 0 -7.69-8.15h-1.87z" fill="#e8a200"/><g fill="#e8a200" opacity=".4"><path d="m189.5 160.21a18.29 18.29 0 0 0 -1.66-2.4v18.8a18.27 18.27 0 0 0 1.66-2.41z"/><path d="m126.08 151.56a30.17 30.17 0 0 0 -5.35 3.89v23.55c.52.48 1.07.95 1.66 1.41v-25.53h3.13v27.62l.56.34c.36.21.73.41 1.1.61v-28.57h3.13v30.07q.82.35 1.66.68v-30.75h3.13v31.82q.82.25 1.66.48v-32.3h3.13v33.06l1.66.33v-33.39h3.13v33.88l1.66.2v-34.08h3.13v34.33l1.66.07v-34.4h3.13v34.42h1.66v-34.42h3.13v34.12l1.66-.17v-34h3.13v33.55l1.66-.3v-33.2h3.13v32.54l1.66-.45v-32.09h3.13v31.12q.84-.3 1.66-.64v-30.48h3.13v29q.85-.42 1.66-.88v-28.12h3.13v26.12c.59-.42 1.14-.85 1.66-1.29v-24.83h.34a31.1 31.1 0 0 0 -4.73-3.32 46.09 46.09 0 0 0 -11.75-4.63h-30.68a46.1 46.1 0 0 0 -11.76 4.63z"/><path d="m117.6 159a17.16 17.16 0 0 0 -1.18 1.94h-.48v11.47a16.42 16.42 0 0 0 1.66 3z"/></g><path d="m180.26 176.58c-15 8.64-39.21 8.64-54.17 0s-15-22.64 0-31.28 39.21-8.64 54.17 0 14.95 22.64 0 31.28z" fill="#fdd762"/><path d="m161.75 164.72c11-6.36 13.91-15.62 8.7-23.51-14.37-4.2-32.36-2.84-44.37 4.1-11 6.36-13.91 15.62-8.7 23.51 14.37 4.18 32.36 2.83 44.37-4.1z" fill="#fff" opacity=".2"/><path d="m180.26 176.58c-15 8.64-39.21 8.64-54.17 0-7.23-4.17-11-9.6-11.2-15.07-.26 5.85 3.47 11.75 11.2 16.21 15 8.64 39.21 8.64 54.17 0 7.73-4.46 11.45-10.36 11.2-16.21-.25 5.49-3.98 10.9-11.2 15.07z" fill="#fff" opacity=".7"/><path d="m172.4 172c-10.62 6.13-27.83 6.13-38.45 0s-10.62-16.07 0-22.2 27.83-6.13 38.45 0 10.6 16.11 0 22.2z" fill="#e8a200"/><path d="m133.94 151.27c10.62-6.13 27.83-6.13 38.45 0 5 2.88 7.64 6.61 7.93 10.38.33-4.25-2.31-8.57-7.93-11.82-10.62-6.13-27.83-6.13-38.45 0-5.62 3.25-8.27 7.56-7.93 11.82.3-3.77 2.94-7.49 7.93-10.38z" fill="#f9bf30"/><path d="m166.54 153.53-2.11.6.6.24-2.03 1.19a11.62 11.62 0 0 0 -5.22-1.22 10 10 0 0 0 -5 1.36 7.8 7.8 0 0 0 -1.52 1.1 3.23 3.23 0 0 0 -.81 1.16 3.91 3.91 0 0 0 -.27 1.11 6.29 6.29 0 0 0 0 1.21l.24 1.92a5.74 5.74 0 0 1 0 1.35 2.41 2.41 0 0 1 -.46 1.09 3.68 3.68 0 0 1 -1.21 1 2.46 2.46 0 0 1 -2.58.19q-.86-.5-.44-1.24a6.69 6.69 0 0 1 2.29-1.85v-1.44l-1.8.68-2.59-1.1a8.39 8.39 0 0 0 -3.07 2.76l-.3-.33v1.41c0 1 .75 1.92 2.23 2.87l-1 .59-1.39-.64v1.46l1.25.72 2.44-1.41a10.65 10.65 0 0 0 4.93 1 9.8 9.8 0 0 0 4.65-1.25 7.87 7.87 0 0 0 1.65-1.23 4 4 0 0 0 .92-1.33 5 5 0 0 0 .34-1.32 7.06 7.06 0 0 0 0-1.4l-.21-1.86c0-.37 0-.64 0-.81a3.71 3.71 0 0 1 .09-.7 1.63 1.63 0 0 1 .42-.8 3.89 3.89 0 0 1 .9-.68 3.65 3.65 0 0 1 1.38-.44 2.23 2.23 0 0 1 1.38.23 1.28 1.28 0 0 1 .43.33.4.4 0 0 1 .08.24l-2.14.45v1.44l4.39 1.92q.53-.34 1-.63a9.06 9.06 0 0 0 .88-.7 5.18 5.18 0 0 0 .73-.78 2.77 2.77 0 0 0 .41-.85 1.88 1.88 0 0 0 .07-.43s0 0 0 0v-1.47l-.55.12a5.13 5.13 0 0 0 -1.16-1l2.28-1.32z" fill="#f9bf30"/><path d="m140.15 167.56 2.42-1.39q-2.48-1.57-2.22-3.19t3.34-3.51l4.39 1.86a6.69 6.69 0 0 0 -2.29 1.85q-.42.74.44 1.24a2.46 2.46 0 0 0 2.58-.19 3.68 3.68 0 0 0 1.21-1 2.41 2.41 0 0 0 .46-1.09 5.74 5.74 0 0 0 0-1.35l-.24-1.92a6.29 6.29 0 0 1 0-1.21 3.91 3.91 0 0 1 .27-1.11 3.23 3.23 0 0 1 .81-1.16 7.79 7.79 0 0 1 1.52-1.1 10 10 0 0 1 5-1.36 11.61 11.61 0 0 1 5.22 1.22l2.29-1.32 1.27.74-2.28 1.32a5.13 5.13 0 0 1 1.16 1 2.5 2.5 0 0 1 .53.95 1.73 1.73 0 0 1 0 .91 2.77 2.77 0 0 1 -.41.85 5.18 5.18 0 0 1 -.73.78 9.06 9.06 0 0 1 -.88.7q-.42.29-1 .63l-4.34-1.93.81-.5q.31-.2.64-.45a2.66 2.66 0 0 0 .47-.43 1.17 1.17 0 0 0 .21-.38.39.39 0 0 0 -.07-.37 1.28 1.28 0 0 0 -.43-.33 2.23 2.23 0 0 0 -1.38-.23 3.65 3.65 0 0 0 -1.38.44 3.89 3.89 0 0 0 -.9.68 1.63 1.63 0 0 0 -.42.8 3.72 3.72 0 0 0 -.09.7v.81l.21 1.86a7.07 7.07 0 0 1 0 1.4 5 5 0 0 1 -.34 1.22 4 4 0 0 1 -.92 1.33 7.87 7.87 0 0 1 -1.65 1.23 9.8 9.8 0 0 1 -4.65 1.25 10.65 10.65 0 0 1 -4.93-1l-2.44 1.41z" fill="#fdd762"/><path d="m186.11 158h-1.56c-1.75-3.43-5-6.67-9.66-9.38-15-8.64-39.21-8.64-54.17 0-4.69 2.71-7.91 5.95-9.66 9.38h-1.56v6.26c0 5.66 3.74 11.32 11.22 15.64 15 8.64 39.21 8.64 54.17 0 7.48-4.32 11.22-10 11.22-15.64z" fill="#f9bf30"/><path d="m139.5 142.67a50.76 50.76 0 0 0 -18.78 5.95c-4.69 2.71-7.91 5.95-9.66 9.38h-1.56v6.26c0 5.66 3.74 11.32 11.22 15.64a50.77 50.77 0 0 0 18.78 5.95z" fill="#fdd762"/><path d="m175 179.83c7.41-4.31 11.12-9.94 11.12-15.58v-6.25h-1.56a22.33 22.33 0 0 0 -7.69-8.15h-1.87z" fill="#e8a200"/><g fill="#e8a200" opacity=".4"><path d="m184.14 157.27a18.28 18.28 0 0 0 -1.66-2.4v18.8a18.26 18.26 0 0 0 1.66-2.41z"/><path d="m120.72 148.61a30.17 30.17 0 0 0 -5.35 3.89v23.5c.52.48 1.07.95 1.66 1.41v-25.47h3.13v27.62l.56.34c.36.21.73.41 1.1.61v-28.57h3.18v30.06q.82.35 1.66.68v-30.74h3.13v31.82l1.66.48v-32.3h3.13v33.06l1.66.33v-33.39h3.13v33.88l1.66.2v-34.08h3.13v34.33l1.66.07v-34.4h3.13v34.42h1.66v-34.42h3.13v34.16l1.66-.17v-34h3.13v33.55l1.66-.3v-33.24h3.13v32.54l1.68-.48v-32.06h3.13v31.06q.84-.3 1.66-.64v-30.42h3.13v29q.85-.42 1.66-.88v-28.12h3.13v26.15c.59-.42 1.14-.85 1.66-1.29v-24.86h.28a31.12 31.12 0 0 0 -4.73-3.32 46.1 46.1 0 0 0 -11.78-4.62h-30.67a46.1 46.1 0 0 0 -11.75 4.61z"/><path d="m112.24 156.06a17.14 17.14 0 0 0 -1.18 1.94h-.48v11.47a16.42 16.42 0 0 0 1.66 3z"/></g><path d="m174.89 173.64c-15 8.64-39.21 8.64-54.17 0s-15-22.64 0-31.28 39.21-8.64 54.17 0 14.96 22.64 0 31.28z" fill="#fdd762"/><path d="m156.39 161.78c11-6.36 13.91-15.62 8.7-23.51-14.37-4.2-32.36-2.84-44.37 4.1-11 6.36-13.91 15.62-8.7 23.51 14.37 4.19 32.36 2.83 44.37-4.1z" fill="#fff" opacity=".2"/><path d="m174.89 173.64c-15 8.64-39.21 8.64-54.17 0-7.23-4.17-11-9.6-11.2-15.07-.26 5.85 3.47 11.75 11.2 16.21 15 8.64 39.21 8.64 54.17 0 7.73-4.46 11.45-10.36 11.2-16.21-.25 5.43-3.97 10.89-11.2 15.07z" fill="#fff" opacity=".7"/><path d="m167 169.1c-10.62 6.13-27.83 6.13-38.45 0s-10.62-16.07 0-22.2 27.83-6.13 38.45 0 10.65 16.1 0 22.2z" fill="#e8a200"/><path d="m128.58 148.33c10.62-6.13 27.83-6.13 38.45 0 5 2.88 7.64 6.61 7.93 10.38.33-4.25-2.31-8.57-7.93-11.82-10.62-6.13-27.83-6.13-38.45 0-5.62 3.25-8.27 7.56-7.93 11.82.29-3.77 2.94-7.5 7.93-10.38z" fill="#f9bf30"/><path d="m161.18 150.59-2.11.6.6.24-2.06 1.19a11.61 11.61 0 0 0 -5.22-1.22 10 10 0 0 0 -5 1.36 7.79 7.79 0 0 0 -1.52 1.1 3.23 3.23 0 0 0 -.87 1.14 3.91 3.91 0 0 0 -.27 1.11 6.28 6.28 0 0 0 0 1.21l.24 1.92a5.74 5.74 0 0 1 0 1.35 2.41 2.41 0 0 1 -.46 1.09 3.68 3.68 0 0 1 -1.21 1 2.46 2.46 0 0 1 -2.58.19q-.86-.5-.44-1.24a6.7 6.7 0 0 1 2.29-1.85v-1.44l-1.8.68-2.59-1.1a8.39 8.39 0 0 0 -3.07 2.76l-.3-.33v1.41c0 1 .75 1.92 2.23 2.87l-1 .59-1.39-.64v1.44l1.25.72 2.44-1.41a10.65 10.65 0 0 0 4.93 1 9.8 9.8 0 0 0 4.65-1.25 7.88 7.88 0 0 0 1.65-1.23 4 4 0 0 0 .92-1.33 5 5 0 0 0 .34-1.32 7.07 7.07 0 0 0 0-1.4l-.21-1.86c0-.37 0-.64 0-.81a3.72 3.72 0 0 1 .09-.7 1.63 1.63 0 0 1 .42-.8 3.89 3.89 0 0 1 .9-.68 3.65 3.65 0 0 1 1.38-.44 2.23 2.23 0 0 1 1.38.23 1.28 1.28 0 0 1 .43.33.4.4 0 0 1 .08.24l-2.14.45v1.44l4.34 1.93q.53-.34 1-.63a9.06 9.06 0 0 0 .88-.7 5.18 5.18 0 0 0 .73-.78 2.77 2.77 0 0 0 .41-.85 1.88 1.88 0 0 0 .07-.43s0 0 0 0v-1.47l-.55.12a5.13 5.13 0 0 0 -1.16-1l2.28-1.32z" fill="#f9bf30"/><path d="m134.79 164.62 2.42-1.39q-2.48-1.57-2.22-3.19t3.34-3.51l4.39 1.86a6.7 6.7 0 0 0 -2.29 1.85q-.42.74.44 1.24a2.46 2.46 0 0 0 2.58-.19 3.68 3.68 0 0 0 1.21-1 2.41 2.41 0 0 0 .46-1.09 5.74 5.74 0 0 0 0-1.35l-.24-1.92a6.29 6.29 0 0 1 0-1.21 3.91 3.91 0 0 1 .27-1.11 3.23 3.23 0 0 1 .81-1.16 7.8 7.8 0 0 1 1.52-1.1 10 10 0 0 1 5-1.36 11.62 11.62 0 0 1 5.22 1.22l2.29-1.32 1.27.74-2.28 1.32a5.13 5.13 0 0 1 1.16 1 2.49 2.49 0 0 1 .53.95 1.73 1.73 0 0 1 0 .91 2.77 2.77 0 0 1 -.41.85 5.18 5.18 0 0 1 -.73.78 9 9 0 0 1 -.88.7q-.42.29-1 .63l-4.34-1.93.81-.5q.32-.2.64-.45a2.66 2.66 0 0 0 .47-.43 1.17 1.17 0 0 0 .21-.38.39.39 0 0 0 -.07-.37 1.28 1.28 0 0 0 -.43-.33 2.23 2.23 0 0 0 -1.38-.23 3.65 3.65 0 0 0 -1.38.44 3.89 3.89 0 0 0 -.9.68 1.63 1.63 0 0 0 -.42.8 3.72 3.72 0 0 0 -.09.7v.81l.21 1.86a7.07 7.07 0 0 1 0 1.4 5 5 0 0 1 -.34 1.32 4 4 0 0 1 -.92 1.33 7.87 7.87 0 0 1 -1.65 1.23 9.8 9.8 0 0 1 -4.65 1.25 10.65 10.65 0 0 1 -4.93-1l-2.49 1.37z" fill="#fdd762"/><path d="m191.47 148.42h-1.56c-1.75-3.43-5-6.67-9.66-9.38-15-8.64-39.21-8.64-54.17 0-4.69 2.71-7.91 5.95-9.66 9.38h-1.56v6.26c0 5.66 3.74 11.32 11.22 15.64 15 8.64 39.21 8.64 54.17 0 7.48-4.32 11.22-10 11.22-15.64z" fill="#f9bf30"/><path d="m144.86 133.09a50.76 50.76 0 0 0 -18.78 5.91c-4.69 2.71-7.91 5.95-9.66 9.38h-1.56v6.26c0 5.66 3.74 11.32 11.22 15.64a50.76 50.76 0 0 0 18.78 5.95z" fill="#fdd762"/><path d="m180.36 170.25c7.41-4.31 11.12-9.94 11.11-15.58v-6.26h-1.56a22.33 22.33 0 0 0 -7.69-8.15h-1.87z" fill="#e8a200"/><g fill="#e8a200" opacity=".4"><path d="m189.5 147.69a18.29 18.29 0 0 0 -1.66-2.4v18.8a18.26 18.26 0 0 0 1.66-2.41z"/><path d="m126.08 139a30.17 30.17 0 0 0 -5.35 3.89v23.51c.52.48 1.07.95 1.66 1.41v-25.45h3.13v27.64l.56.34c.36.21.73.41 1.1.61v-28.59h3.13v30.07q.82.35 1.66.68v-30.75h3.13v31.82l1.66.48v-32.3h3.13v33.06l1.66.33v-33.39h3.13v33.88l1.66.2v-34.08h3.13v34.33l1.66.07v-34.4h3.13v34.42h1.66v-34.42h3.13v34.16l1.66-.17v-34h3.13v33.55l1.66-.3v-33.24h3.13v32.54l1.66-.45v-32.09h3.13v31.07q.84-.3 1.66-.64v-30.43h3.13v29q.85-.42 1.66-.88v-28.12h3.13v26.15c.59-.42 1.14-.85 1.66-1.29v-24.86h.34a31.11 31.11 0 0 0 -4.73-3.32 46.1 46.1 0 0 0 -11.75-4.63h-30.68a46.1 46.1 0 0 0 -11.76 4.59z"/><path d="m117.6 146.48a17.17 17.17 0 0 0 -1.18 1.94h-.48v11.47a16.43 16.43 0 0 0 1.66 3z"/></g><path d="m180.26 164.06c-15 8.64-39.21 8.64-54.17 0s-15-22.64 0-31.28 39.21-8.64 54.17 0 14.95 22.64 0 31.28z" fill="#fdd762"/><path d="m161.75 152.2c11-6.36 13.91-15.62 8.7-23.51-14.37-4.2-32.36-2.84-44.37 4.1-11 6.36-13.91 15.62-8.7 23.51 14.37 4.19 32.36 2.83 44.37-4.1z" fill="#fff" opacity=".2"/><path d="m180.26 164.06c-15 8.64-39.21 8.64-54.17 0-7.23-4.17-11-9.6-11.2-15.07-.26 5.85 3.47 11.75 11.2 16.21 15 8.64 39.21 8.64 54.17 0 7.73-4.46 11.45-10.36 11.2-16.21-.25 5.47-3.98 10.9-11.2 15.07z" fill="#fff" opacity=".7"/><path d="m172.4 159.52c-10.62 6.13-27.83 6.13-38.45 0s-10.62-16.07 0-22.2 27.83-6.13 38.45 0 10.6 16.07 0 22.2z" fill="#e8a200"/><path d="m133.94 138.75c10.62-6.13 27.83-6.13 38.45 0 5 2.88 7.64 6.61 7.93 10.38.33-4.25-2.31-8.57-7.93-11.82-10.62-6.13-27.83-6.13-38.45 0-5.62 3.25-8.27 7.56-7.93 11.82.3-3.77 2.94-7.49 7.93-10.38z" fill="#f9bf30"/><path d="m166.54 141-2.11.6.6.24-2.03 1.16a11.61 11.61 0 0 0 -5.22-1.22 10 10 0 0 0 -5 1.36 7.8 7.8 0 0 0 -1.52 1.1 3.23 3.23 0 0 0 -.81 1.16 3.91 3.91 0 0 0 -.27 1.11 6.29 6.29 0 0 0 0 1.21l.24 1.92a5.74 5.74 0 0 1 0 1.35 2.41 2.41 0 0 1 -.46 1.09 3.68 3.68 0 0 1 -1.21 1 2.46 2.46 0 0 1 -2.58.19q-.86-.5-.44-1.24a6.69 6.69 0 0 1 2.29-1.85v-1.38l-1.8.68-2.59-1.1a8.39 8.39 0 0 0 -3.07 2.76l-.3-.33v1.41c0 1 .75 1.92 2.23 2.87l-1 .59-1.39-.64v1.44l1.25.72 2.44-1.41a10.65 10.65 0 0 0 4.93 1 9.8 9.8 0 0 0 4.65-1.25 7.87 7.87 0 0 0 1.65-1.23 4 4 0 0 0 .98-1.31 5 5 0 0 0 .34-1.32 7.06 7.06 0 0 0 0-1.4l-.21-1.86c0-.37 0-.64 0-.81a3.71 3.71 0 0 1 .09-.7 1.63 1.63 0 0 1 .42-.8 3.89 3.89 0 0 1 .9-.68 3.65 3.65 0 0 1 1.38-.44 2.23 2.23 0 0 1 1.38.23 1.28 1.28 0 0 1 .43.33.4.4 0 0 1 .08.24l-2.14.45v1.44l4.34 1.93q.53-.34 1-.63a9.06 9.06 0 0 0 .88-.7 5.18 5.18 0 0 0 .73-.78 2.77 2.77 0 0 0 .41-.85 1.88 1.88 0 0 0 .07-.43s0 0 0 0v-1.47l-.55.12a5.13 5.13 0 0 0 -1.16-1l2.28-1.32z" fill="#f9bf30"/><path d="m140.15 155 2.42-1.39q-2.48-1.57-2.22-3.19t3.34-3.51l4.39 1.86a6.69 6.69 0 0 0 -2.29 1.85q-.42.74.44 1.24a2.46 2.46 0 0 0 2.58-.19 3.68 3.68 0 0 0 1.21-1 2.41 2.41 0 0 0 .46-1.09 5.74 5.74 0 0 0 0-1.35l-.24-1.92a6.29 6.29 0 0 1 0-1.21 3.91 3.91 0 0 1 .27-1.11 3.23 3.23 0 0 1 .81-1.16 7.8 7.8 0 0 1 1.52-1.1 10 10 0 0 1 5-1.36 11.62 11.62 0 0 1 5.16 1.23l2.29-1.32 1.27.74-2.28 1.32a5.13 5.13 0 0 1 1.16 1 2.5 2.5 0 0 1 .53.95 1.73 1.73 0 0 1 0 .91 2.77 2.77 0 0 1 -.41.85 5.18 5.18 0 0 1 -.73.78 9 9 0 0 1 -.88.7q-.42.29-1 .63l-4.34-1.93.81-.5q.31-.2.64-.45a2.66 2.66 0 0 0 .47-.43 1.17 1.17 0 0 0 .21-.38.39.39 0 0 0 -.07-.37 1.28 1.28 0 0 0 -.43-.33 2.23 2.23 0 0 0 -1.38-.23 3.65 3.65 0 0 0 -1.38.44 3.89 3.89 0 0 0 -.9.68 1.63 1.63 0 0 0 -.42.8 3.72 3.72 0 0 0 -.09.7v.81l.21 1.86a7.07 7.07 0 0 1 0 1.4 5 5 0 0 1 -.34 1.32 4 4 0 0 1 -.92 1.33 7.88 7.88 0 0 1 -1.65 1.23 9.8 9.8 0 0 1 -4.65 1.25 10.65 10.65 0 0 1 -4.93-1l-2.44 1.41z" fill="#fdd762"/><path d="m249.57 201.3h-1.57c-1.75-3.43-5-6.67-9.66-9.38-15-8.64-39.21-8.64-54.17 0-4.69 2.71-7.91 5.95-9.66 9.38h-1.51v6.26c0 5.66 3.74 11.32 11.22 15.64 15 8.64 39.21 8.64 54.17 0 7.48-4.32 11.22-10 11.22-15.64z" fill="#f9bf30"/><path d="m203 186a50.77 50.77 0 0 0 -18.78 5.95c-4.69 2.71-7.91 5.95-9.66 9.38h-1.56v6.26c0 5.66 3.74 11.32 11.22 15.64a50.76 50.76 0 0 0 18.78 5.92z" fill="#fdd762"/><path d="m238.46 223.14c7.41-4.31 11.12-9.94 11.12-15.58v-6.26h-1.58a22.33 22.33 0 0 0 -7.69-8.15h-1.87z" fill="#e8a200"/><g fill="#e8a200" opacity=".4"><path d="m247.6 200.58a18.29 18.29 0 0 0 -1.66-2.4v18.82a18.26 18.26 0 0 0 1.66-2.41z"/><path d="m184.18 191.92a30.17 30.17 0 0 0 -5.35 3.89v23.51c.52.48 1.07.95 1.66 1.41v-25.49h3.13v27.62l.56.34c.36.21.73.41 1.1.61v-28.57h3.13v30.07q.82.35 1.66.68v-30.75h3.13v31.82l1.66.48v-32.3h3.14v33.06l1.66.33v-33.39h3.13v33.88l1.66.2v-34.08h3.13v34.33l1.66.07v-34.4h3.13v34.42h1.66v-34.42h3.13v34.16l1.66-.17v-34h3.18v33.57l1.66-.3v-33.26h3.13v32.54l1.66-.45v-32.09h3.13v31.07q.84-.3 1.66-.64v-30.43h3.13v29q.85-.42 1.66-.88v-28.12h3.13v26.16c.59-.42 1.14-.85 1.66-1.29v-24.87h.28a31.11 31.11 0 0 0 -4.73-3.32 46.1 46.1 0 0 0 -11.75-4.63h-30.69a46.1 46.1 0 0 0 -11.75 4.63z"/><path d="m175.7 199.37a17.17 17.17 0 0 0 -1.18 1.94h-.52v11.47a16.43 16.43 0 0 0 1.66 3z"/></g><path d="m238.35 216.94c-15 8.64-39.21 8.64-54.17 0s-15-22.64 0-31.28 39.21-8.64 54.17 0 14.96 22.65 0 31.28z" fill="#fdd762"/><path d="m219.85 205.08c11-6.36 13.91-15.62 8.7-23.51-14.37-4.2-32.36-2.84-44.37 4.1-11 6.36-13.91 15.62-8.7 23.51 14.37 4.2 32.36 2.82 44.37-4.1z" fill="#fff" opacity=".2"/><path d="m238.35 216.94c-15 8.64-39.21 8.64-54.17 0-7.23-4.17-11-9.6-11.2-15.07-.26 5.85 3.47 11.75 11.2 16.21 15 8.64 39.21 8.64 54.17 0 7.73-4.46 11.45-10.36 11.2-16.21-.25 5.47-3.97 10.9-11.2 15.07z" fill="#fff" opacity=".7"/><path d="m230.49 212.41c-10.62 6.13-27.83 6.13-38.45 0s-10.62-16.07 0-22.2 27.83-6.13 38.45 0 10.62 16.06 0 22.2z" fill="#e8a200"/><path d="m192 191.64c10.62-6.13 27.83-6.13 38.45 0 5 2.88 7.64 6.61 7.93 10.38.33-4.25-2.31-8.57-7.93-11.82-10.62-6.13-27.83-6.13-38.45 0-5.62 3.25-8.27 7.56-7.93 11.82.33-3.77 2.93-7.5 7.93-10.38z" fill="#f9bf30"/><path d="m224.64 193.89-2.11.6.6.24-2.06 1.19a11.61 11.61 0 0 0 -5.22-1.22 10 10 0 0 0 -5 1.36 7.8 7.8 0 0 0 -1.52 1.1 3.23 3.23 0 0 0 -.81 1.16 3.91 3.91 0 0 0 -.27 1.11 6.29 6.29 0 0 0 0 1.21l.24 1.92a5.75 5.75 0 0 1 0 1.35 2.41 2.41 0 0 1 -.46 1.09 3.68 3.68 0 0 1 -1.21 1 2.46 2.46 0 0 1 -2.58.19q-.86-.5-.44-1.24a6.69 6.69 0 0 1 2.29-1.85v-1.44l-1.8.68-2.59-1.1a8.39 8.39 0 0 0 -3.07 2.76l-.3-.33v1.41c0 1 .75 1.92 2.23 2.87l-1 .59-1.39-.64v1.44l1.25.72 2.44-1.41a10.65 10.65 0 0 0 4.93 1 9.8 9.8 0 0 0 4.65-1.25 7.87 7.87 0 0 0 1.65-1.23 4 4 0 0 0 .92-1.33 5 5 0 0 0 .34-1.32 7.07 7.07 0 0 0 0-1.4l-.21-1.86c0-.37 0-.64 0-.81a3.72 3.72 0 0 1 .09-.7 1.63 1.63 0 0 1 .42-.8 3.89 3.89 0 0 1 .9-.68 3.65 3.65 0 0 1 1.38-.44 2.23 2.23 0 0 1 1.38.23 1.28 1.28 0 0 1 .43.33.4.4 0 0 1 .08.24l-2.14.45v1.44l4.34 1.93q.53-.34 1-.63a9.06 9.06 0 0 0 .88-.7 5.18 5.18 0 0 0 .73-.78 2.77 2.77 0 0 0 .41-.85 1.88 1.88 0 0 0 .07-.43s0 0 0 0v-1.47l-.55.12a5.13 5.13 0 0 0 -1.16-1l2.28-1.32z" fill="#f9bf30"/><path d="m198.25 207.92 2.42-1.39q-2.48-1.57-2.22-3.19t3.34-3.51l4.39 1.86a6.69 6.69 0 0 0 -2.29 1.85q-.42.74.44 1.24a2.46 2.46 0 0 0 2.58-.19 3.68 3.68 0 0 0 1.21-1 2.41 2.41 0 0 0 .46-1.09 5.75 5.75 0 0 0 0-1.35l-.24-1.92a6.29 6.29 0 0 1 0-1.21 3.91 3.91 0 0 1 .27-1.11 3.23 3.23 0 0 1 .81-1.16 7.79 7.79 0 0 1 1.52-1.1 10 10 0 0 1 5-1.36 11.62 11.62 0 0 1 5.22 1.22l2.29-1.32 1.27.74-2.28 1.32a5.13 5.13 0 0 1 1.16 1 2.5 2.5 0 0 1 .53.95 1.73 1.73 0 0 1 0 .91 2.77 2.77 0 0 1 -.41.85 5.18 5.18 0 0 1 -.73.78 9 9 0 0 1 -.87.7q-.42.29-1 .63l-4.34-1.93.81-.5q.32-.2.64-.45a2.65 2.65 0 0 0 .47-.43 1.17 1.17 0 0 0 .21-.38.39.39 0 0 0 -.07-.37 1.28 1.28 0 0 0 -.43-.33 2.23 2.23 0 0 0 -1.38-.23 3.65 3.65 0 0 0 -1.38.44 3.89 3.89 0 0 0 -.9.68 1.63 1.63 0 0 0 -.42.8 3.71 3.71 0 0 0 -.09.7v.81l.21 1.86a7.07 7.07 0 0 1 0 1.4 5 5 0 0 1 -.34 1.32 4 4 0 0 1 -.92 1.33 7.87 7.87 0 0 1 -1.65 1.23 9.8 9.8 0 0 1 -4.65 1.25 10.65 10.65 0 0 1 -4.93-1l-2.44 1.41z" fill="#fdd762"/><path d="m254.17 191.92h-1.56c-1.75-3.43-5-6.67-9.66-9.38-15-8.64-39.21-8.64-54.17 0-4.69 2.71-7.91 5.95-9.66 9.38h-1.56v6.26c0 5.66 3.74 11.32 11.22 15.64 15 8.64 39.21 8.64 54.17 0 7.48-4.32 11.22-10 11.22-15.64z" fill="#f9bf30"/><path d="m207.56 176.59a50.76 50.76 0 0 0 -18.78 5.95c-4.69 2.71-7.91 5.95-9.66 9.38h-1.56v6.26c0 5.66 3.74 11.32 11.22 15.64a50.77 50.77 0 0 0 18.78 5.95z" fill="#fdd762"/><path d="m243.05 213.75c7.41-4.31 11.12-9.94 11.12-15.58v-6.26h-1.56a22.33 22.33 0 0 0 -7.69-8.15h-1.87z" fill="#e8a200"/><g fill="#e8a200" opacity=".4"><path d="m252.2 191.19a18.29 18.29 0 0 0 -1.66-2.4v18.8a18.26 18.26 0 0 0 1.66-2.41z"/><path d="m188.78 182.53a30.17 30.17 0 0 0 -5.35 3.89v23.51c.52.48 1.07.95 1.66 1.41v-25.48h3.13v27.62l.56.34c.36.21.73.41 1.1.61v-28.57h3.12v30.07q.82.35 1.66.68v-30.75h3.13v31.82l1.66.48v-32.3h3.13v33.06l1.66.33v-33.39h3.13v33.88l1.66.2v-34.08h3.13v34.33l1.66.07v-34.4h3.18v34.42h1.66v-34.42h3.13v34.14l1.66-.17v-34h3.13v33.55l1.66-.3v-33.22h3.13v32.54l1.66-.45v-32.09h3.13v31.07q.84-.3 1.66-.64v-30.43h3.13v29q.85-.42 1.66-.88v-28.12h3.13v26.14c.59-.42 1.14-.85 1.66-1.29v-24.85h.28a31.11 31.11 0 0 0 -4.73-3.32 46.09 46.09 0 0 0 -11.75-4.63h-30.67a46.09 46.09 0 0 0 -11.75 4.62z"/><path d="m180.29 190a17.15 17.15 0 0 0 -1.18 1.94h-.48v11.47a16.42 16.42 0 0 0 1.66 3z"/></g><path d="m242.95 207.56c-15 8.64-39.21 8.64-54.17 0s-15-22.64 0-31.28 39.21-8.64 54.17 0 14.96 22.64 0 31.28z" fill="#fdd762"/><path d="m224.44 195.7c11-6.36 13.91-15.62 8.7-23.51-14.37-4.2-32.36-2.84-44.37 4.1-11 6.36-13.91 15.62-8.7 23.51 14.37 4.2 32.37 2.83 44.37-4.1z" fill="#fff" opacity=".2"/><path d="m242.95 207.56c-15 8.64-39.21 8.64-54.17 0-7.23-4.17-11-9.6-11.2-15.07-.26 5.85 3.47 11.75 11.2 16.21 15 8.64 39.21 8.64 54.17 0 7.73-4.46 11.45-10.36 11.2-16.21-.25 5.51-3.97 10.89-11.2 15.07z" fill="#fff" opacity=".7"/><path d="m235.09 203c-10.62 6.13-27.83 6.13-38.45 0s-10.62-16.07 0-22.2 27.83-6.13 38.45 0 10.62 16.09 0 22.2z" fill="#e8a200"/><path d="m196.64 182.25c10.62-6.13 27.83-6.13 38.45 0 5 2.88 7.64 6.61 7.93 10.38.33-4.25-2.31-8.57-7.93-11.82-10.62-6.13-27.83-6.13-38.45 0-5.62 3.25-8.27 7.56-7.93 11.82.29-3.77 2.93-7.5 7.93-10.38z" fill="#f9bf30"/><path d="m229.23 184.5-2.11.6.6.24-2.06 1.19a11.61 11.61 0 0 0 -5.22-1.22 10 10 0 0 0 -5 1.36 7.8 7.8 0 0 0 -1.52 1.1 3.23 3.23 0 0 0 -.81 1.16 3.91 3.91 0 0 0 -.27 1.11 6.29 6.29 0 0 0 0 1.21l.24 1.92a5.74 5.74 0 0 1 0 1.35 2.41 2.41 0 0 1 -.46 1.09 3.68 3.68 0 0 1 -1.21 1 2.46 2.46 0 0 1 -2.58.19q-.86-.5-.44-1.24a6.7 6.7 0 0 1 2.29-1.85v-1.41l-1.68.7-2.59-1.1a8.39 8.39 0 0 0 -3.07 2.76l-.3-.33v1.41c0 1 .75 1.92 2.23 2.87l-1 .59-1.39-.64v1.44l1.25.72 2.44-1.41a10.65 10.65 0 0 0 4.93 1 9.8 9.8 0 0 0 4.65-1.25 7.87 7.87 0 0 0 1.65-1.23 4 4 0 0 0 .92-1.33 5 5 0 0 0 .34-1.32 7.07 7.07 0 0 0 0-1.4l-.21-1.86c0-.37 0-.64 0-.81a3.72 3.72 0 0 1 .09-.7 1.63 1.63 0 0 1 .42-.8 3.9 3.9 0 0 1 .9-.68 3.65 3.65 0 0 1 1.38-.44 2.23 2.23 0 0 1 1.38.23 1.28 1.28 0 0 1 .43.33.4.4 0 0 1 .08.24l-2.14.45v1.44l4.34 1.93q.53-.34 1-.63a9.07 9.07 0 0 0 .88-.7 5.18 5.18 0 0 0 .73-.78 2.77 2.77 0 0 0 .41-.85 1.88 1.88 0 0 0 .07-.43s0 0 0 0v-1.47l-.55.12a5.13 5.13 0 0 0 -1.16-1l2.28-1.32z" fill="#f9bf30"/><path d="m202.84 198.54 2.42-1.39q-2.48-1.57-2.22-3.19t3.34-3.51l4.39 1.86a6.7 6.7 0 0 0 -2.29 1.85q-.42.74.44 1.24a2.46 2.46 0 0 0 2.58-.19 3.68 3.68 0 0 0 1.21-1 2.41 2.41 0 0 0 .46-1.09 5.74 5.74 0 0 0 0-1.35l-.24-1.92a6.29 6.29 0 0 1 0-1.21 3.91 3.91 0 0 1 .27-1.11 3.23 3.23 0 0 1 .81-1.16 7.79 7.79 0 0 1 1.52-1.1 10 10 0 0 1 5-1.36 11.62 11.62 0 0 1 5.22 1.22l2.29-1.32 1.27.74-2.31 1.27a5.13 5.13 0 0 1 1.16 1 2.5 2.5 0 0 1 .53.95 1.73 1.73 0 0 1 0 .91 2.77 2.77 0 0 1 -.41.85 5.18 5.18 0 0 1 -.73.78 9.06 9.06 0 0 1 -.88.7q-.42.29-1 .63l-4.34-1.93.81-.5q.32-.2.64-.45a2.66 2.66 0 0 0 .47-.43 1.17 1.17 0 0 0 .21-.38.39.39 0 0 0 -.07-.37 1.28 1.28 0 0 0 -.43-.33 2.23 2.23 0 0 0 -1.38-.23 3.65 3.65 0 0 0 -1.38.44 3.89 3.89 0 0 0 -.9.68 1.63 1.63 0 0 0 -.42.8 3.72 3.72 0 0 0 -.09.7v.81l.21 1.86a7.07 7.07 0 0 1 0 1.4 5 5 0 0 1 -.34 1.32 4 4 0 0 1 -.92 1.33 7.87 7.87 0 0 1 -1.65 1.23 9.8 9.8 0 0 1 -4.65 1.25 10.65 10.65 0 0 1 -4.93-1l-2.44 1.41z" fill="#fdd762"/><path d="m153.53 141.76c-.25.62-4.51 5.81-8.77 7.11a9.8 9.8 0 0 1 -3.92.54 1.29 1.29 0 0 1 -1-1.72 16.19 16.19 0 0 1 8.18-9c7.18-3.6 5.51 3.07 5.51 3.07z" fill="#983be9"/><path d="m154.95 143.75a35.29 35.29 0 0 0 -2.1 6.92c-.3 1.92.75 4.42 1.62 6.07a1.77 1.77 0 0 0 2.76.48 10.26 10.26 0 0 0 3.46-6.61c.49-5.31 0-6.24 0-6.24z" fill="#983be9"/><path d="m165.22 79.53a101.05 101.05 0 0 1 0 14.12c-.56 7.41-2.55 42.09-2.92 50.43 0 0 .19 2.53-4.7 2s-4.49-3.36-4.49-3.36-6.87-.09-7.08-4.14-7-48.32-7-64.24z" fill="#fdd762"/><path d="m153.1 142.69a14 14 0 0 1 -2-.2l-1.34-53.9z" fill="#d8892b"/><path d="m158 30.86c11.21 4.65 11 11.28 11 11.28s-2.2 24.3-1.45 40.53c.31 6.78-36 7.3-30.62-10.8 6.39-21.34 4-38.62 7-41.23s11.13-.99 14.07.22z" fill="#983be9"/><ellipse cx="155.97" cy="35.29" fill="#ffc2b0" rx="4.26" ry="5.78" transform="matrix(.24936603 -.96840931 .96840931 .24936603 82.89 177.53)"/><path d="m156.8 40.19a8.14 8.14 0 0 1 -2-.26c-3.37-.87-5.58-3.66-4.92-6.22s3.94-3.93 7.32-3.07 5.58 3.66 4.92 6.22c-.55 2.05-2.74 3.33-5.32 3.33zm-1.69-8.74c-2.08 0-3.82 1-4.22 2.52-.51 2 1.35 4.19 4.15 4.91s5.5-.31 6-2.29c.51-2-1.35-4.19-4.15-4.91a7.14 7.14 0 0 0 -1.77-.22z" fill="#fff"/><path d="m153.47 30.35a27.66 27.66 0 0 1 -.1 4c-.06 1.12 3.85 2.16 4.86 1.15s.61-2.06.85-5.86-5.61.71-5.61.71z" fill="#ffc2b0"/><path d="m159.08 29.64s-1 3.53-5.71 4.88l.07-3.2z" fill="#ea9c92"/><circle cx="153.73" cy="22.84" fill="#ffc2b0" r="8.63" transform="matrix(.96814764 -.25038 .25038 .96814764 -.82 39.21)"/><path d="m155.72 23.16s-4.75 2-8 2.06-2.57-2.73-2.57-2.73l9.77-1.41z" fill="#ea9c92"/><path d="m146.69 23.7s4.14-1.76 7.77-1a3.81 3.81 0 0 1 2.19 1.3 1.3 1.3 0 0 0 .66.48c.64.15 1.7-2.53 2.95-2.59s2.09.83 1.06 2.47-.68 3.48-.21 3.75 5.48-3.57 1.06-12.33-15.64-4-17.39-2.26c0 0-1.84 1.6-3.33.18.02-.03-1.66 12.53 5.24 10z" fill="#ff2c9c"/><g fill="#ffc2b0"><path d="m138.39 28.87-6-2.6a2.68 2.68 0 0 1 -1.47-1.58l-6-17.26-2.76.48 4.84 21.47a3.62 3.62 0 0 0 1.76 2.36l10 5.64z"/><path d="m201.12 31.67 1.38-.63a11.13 11.13 0 0 0 3.18-2.19l1-1a1.87 1.87 0 0 0 .41-2.05 1 1 0 0 0 -1.41-.52l-2.89 1.46s.45-1.28.23-1.61-2.45 2.14-3.49 3.89 1.59 2.65 1.59 2.65z"/><path d="m177.06 38.57 5.16-.58a9.09 9.09 0 0 0 3.47-1.12l13.82-7.82 1.62 2.62-14.13 10.91a6.51 6.51 0 0 1 -1.42.83l-8.43 3.59z"/><path d="m122.17 7.91-.53-.61a4.85 4.85 0 0 1 -1.13-2.47l-.37-2.52a2.16 2.16 0 0 1 .83-2h.07a1.3 1.3 0 0 1 1.96.52l1.24 3s-.39-1.55.11-1.72 1.06 1.8.65 2.87a4.53 4.53 0 0 0 0 2.45z"/></g><path d="m150.31 28.79-2.23-.61a5.38 5.38 0 0 0 2.62 2.1c1.55.43 1.79-.89 1.79-.89z" fill="#fff"/><path d="m147 29.4s-10.07-2-13.15-2.92-4.36 7.51-4.13 9.66 10.71 4.53 12 8.2 5.28-14.94 5.28-14.94z" fill="#983be9"/><path d="m162.37 33.11s7.36 3.16 19.68 4.7a1.33 1.33 0 0 1 1.1.87 14.58 14.58 0 0 1 .65 7.41 2.72 2.72 0 0 1 -2.69 2.14c-3.86 0-12.16.34-13.5 3.95-1.77 4.72-5.24-19.07-5.24-19.07z" fill="#983be9"/><circle cx="160.91" cy="25.22" fill="#fff" r="1.17"/><g fill="#721bd5"><path d="m16.69 160.09-2.25 2.72 2.44-1.57z"/><path d="m71.26 215.85-2.44 1.57.85-2.73 1.56.72z"/><path d="m11.54 136.67 22.95 10.26-6.12 4.98 43.31 53.06 20.09-16.31 41.67 51.29 18.48-15 54.69 66.93-5.6 4.55-49.77-60.97-18.47 15.01-41.42-50.94-20.09 16.32-48.49-59.39-5.89 4.78z"/><path d="m132.77 250.47-2.44 1.57 2.63-5.1z"/><path d="m91.77 188.66-2.45 1.57.5 1.36z"/><path d="m151.92 224.95-2.45 1.57.41.97z"/></g><path d="m9.1 138.25 22.95 10.26-6.12 4.97 43.31 53.07 20.08-16.32 41.68 51.3 18.47-15.01 54.7 66.93-5.6 4.55-49.77-60.96-18.47 15-41.42-50.94-20.09 16.32-48.5-59.39-5.88 4.78z" fill="#b45ef4"/><path d="m9.1 138.25 2.44-1.58 22.95 10.26-2.44 1.58z" fill="#983be9"/><path d="m206.61 291.88-2.44 1.57-5.6 4.55 2.44-1.57z" fill="#721bd5"/></svg>