<svg viewBox="0 0 410.54 417.35" xmlns="http://www.w3.org/2000/svg"><path d="m285.84 336.6c4.23-8.6 11.07-15.72 18.62-21.5 6.09-4.66 13-9.2 20.19-11.88 6.4-2.38 7.82 3.21 13 5.12 3.3 1.22 7-.65 9.56-3s4.57-5.17 7.56-6.89c2.2-1.27 5.49-1.9 7.81-.54 2.87 1.69 2.38 5.83 6.26 6.3a9.54 9.54 0 0 0 5.24-1.23 74.15 74.15 0 0 1 11.78-4.84c3.73-1.09 8.56-1.46 10.71 1.78s.1 7.32-2.38 10.09c-6 6.69-14.83 10.3-23.73 11.48a26.05 26.05 0 0 0 -7.16 1.48c-2.24 1-4.22 3-4.31 5.47 0 1.32.44 2.6.46 3.92 0 3.66-3.56 6.39-7.13 7.21-9.18 2.1-15.15-6-23.78-7.2-9.78-1.4-24.85.13-31.64 8.36" fill="#b0eeff"/><path d="m302 332.58a64.06 64.06 0 0 1 35.13-16.37c8.18-1.06 16.47-.55 24.68-1.29s16.72-3 22.64-8.43" style="fill:none;stroke:#fff;stroke-linecap:round;stroke-linejoin:round;stroke-width:.89;opacity:.5"/><path d="m344.82 296.19c4.89-2.83 10.14-6.76 8.75-12.75-.45-2-1.9-3.76-1.66-5.76a10.6 10.6 0 0 1 1.69-3.59 10.91 10.91 0 0 0 .56-9.17c-1.26-3.16-3.93-5.53-5.6-8.5a15 15 0 0 1 -1.9-8c-5.16.54-9.62 3.8-14.62 5.21-3.82 1.08-7.9 1.06-11.67 2.29a18.68 18.68 0 0 0 -12.5 16.2 10.28 10.28 0 0 0 -8.76 3.85 13.35 13.35 0 0 0 -2.65 10c2.25 14.54 9.73 26.1 19.3 36.88-2.08-2.35 4.31-9.63 5.55-11.05 5.37-6.17 12.75-9.73 19.79-13.59 1.13-.59 2.41-1.27 3.72-2.02z" fill="#b0eeff"/><g style="opacity:.5;fill:none;stroke:#fff;stroke-linecap:round;stroke-linejoin:round;stroke-width:.89"><path d="m316.93 303.37c-1.22-6.23.41-12.65 2.41-18.68a73.25 73.25 0 0 1 7.66-16.88 36.12 36.12 0 0 1 13.29-12.66"/><path d="m318.58 261a50.94 50.94 0 0 0 2.9 17.7"/><path d="m322.34 276.62a44.15 44.15 0 0 1 23.29-8.35"/><path d="m306.78 279.11c8 2.55 9.37 13.86 9.87 17.06"/><path d="m318.08 288.76c5.51-4.77 15-9.87 21.42-8.87"/><path d="m316.92 302.78c4.38-5.84 16.35-13 22.77-12"/><path d="m331.4 256.91a9.35 9.35 0 0 0 -1.43 6.78"/><path d="m331.5 261.94a14.83 14.83 0 0 1 10.18-1.68"/></g><path d="m205.64 347.08c-6.61-18.12-23.57-35-40.27-44.67-4.07-2.35-10-4.13-11.88 1.49-1.2 3.61-5.41 2.67-7.81 1-3-2.07-4.72-5.43-7.25-8a13.91 13.91 0 0 0 -7.46-4 9.53 9.53 0 0 0 -8 2.27c-1.58 1.5-2.53 3.62-4.28 4.93-2.93 2.19-7.2 1.37-10.32-.54s-5.58-4.74-8.6-6.81-7.1-3.28-10.32-1.54c-4.26 2.31-4.65 8.47-2.84 13 1.12 2.78 2.88 6.81 5 9a22.65 22.65 0 0 0 11.59 6c3.09.61 6.28.59 9.35 1.32 1.11.26 2.38.73 2.6 2 .32 1.84-2 3-3.29 3.64-2.3 1.16-4.58 3.69-3.51 6 .67 1.47 2.4 2.13 4 2.4 4.79.81 9.53-.57 14.07-2 2.76-.85 5.18-2.58 8-3.31 1.47-.38 5.24-.55 4.84 1.94a3.42 3.42 0 0 1 -1.28 1.93 13.58 13.58 0 0 0 -1.77 1.56c-2.18 2.65 0 5.76 2.84 6.45 2.2.53 4.49 0 6.69-.55 14.38-3.36 29.46-4.66 43.93-1.73 3.08.62 6.45 1.68 8 4.42" fill="#b0eeff"/><path d="m190.13 335.66a71.4 71.4 0 0 0 -39.23-18.08c-9.12-1.14-18.36-.54-27.51-1.33s-18.64-3.25-25.26-9.25" style="fill:none;stroke:#fff;stroke-linecap:round;stroke-linejoin:round;stroke-width:.89;opacity:.5"/><path d="m193.42 337.07s-25.15-16.73-32.25-33.7a27.63 27.63 0 0 1 11.27 5.6c3.63 5.13 12.28 13 18.15 18.12.83 2.8 1.77 6.09 2.83 9.98z" fill="#fcccb1" opacity=".25"/><path d="m192.47 331.32c-.94-5.91-3.55-11.77-4.57-17.78a82 82 0 0 1 -.11-28.88c1.52-8.15 4-16.69 1.28-24.94-.73-2.19-2.09-4.56-4.93-4.54a4.7 4.7 0 0 0 -3 1.21c-2.07 1.84-2.45 4.48-2.79 7l-1.13 8.43c-.37 2.74-4.54 3.07-5.38.4v-.07a18.65 18.65 0 0 1 -.38-6.92c.39-5 1-10.1.27-15.11-.93-6.06-4.26-12.21-10.74-14.49a11.9 11.9 0 0 0 -7.16-.25c-6.49 1.85-7.8 8-6.5 13.09.92 3.6 2.95 6.87 4.81 10.16 4.54 8 2.09 15.65 3.23 24.62 2.34 19.02 20.94 37.39 37.1 48.07z" fill="#b0eeff"/><path d="m156.95 246.4c13.59 16.44 8.68 55.26 32.36 76.21" style="fill:none;stroke:#fff;stroke-linecap:round;stroke-linejoin:round;stroke-width:.89;opacity:.5"/><path d="m183.47 265.71c1.55 8.31-3.79 17.64-5 22.81s-1.89 14-.56 19.17" style="fill:none;stroke:#fff;stroke-linecap:round;stroke-linejoin:round;stroke-width:.89;opacity:.5"/><path d="m144.45 346.91c-.59-3.32-9.87-24-20.61-18.49-6.38 3.3-5.23 15.43 4.73 24.59-2-1.89-4.21-4-6.88-4.57a5.32 5.32 0 0 0 -4.29 1.37 5 5 0 0 0 -1.29 3.6 14.15 14.15 0 0 0 6.3 12.11c-2.2-1.23-4.11-2.77-6.63-3a3.08 3.08 0 0 0 -2.58 1.13c-.41.79-.38 3.76 4.47 6-19.78-3.75-20.93 4.68-13.82 4.68h58.31" fill="#e9f9ff"/><path d="m181.51 330.46c-.94-5.32-10.74-38.76-27.93-29.88-10.21 5.28-8.38 24.7 7.58 39.37-3.13-3-6.75-6.46-11-7.31a8.52 8.52 0 0 0 -6.86 2.2c-1.54 1.42-2 3.66-2.06 5.76a22.66 22.66 0 0 0 10.06 19.4c-3.53-2-6.59-4.44-10.61-4.79-1.31-.11-3.53.64-4.13 1.8s-.61 6 7.15 9.57c-31.66-6-33.51 7.49-22.13 7.49h75.22" fill="#d7f6ff"/><path d="m350.89 346.91c.59-3.32 9.87-24 20.61-18.49 6.38 3.3 5.23 15.43-4.73 24.59 2-1.89 4.21-4 6.88-4.57a5.32 5.32 0 0 1 4.29 1.37 5 5 0 0 1 1.29 3.6 14.15 14.15 0 0 1 -6.3 12.11c2.2-1.23 4.11-2.77 6.63-3a3.08 3.08 0 0 1 2.58 1.13c.41.79.38 3.76-4.47 6 19.78-3.75 20.93 4.68 13.82 4.68h-58.31" fill="#e9f9ff"/><path d="m313.83 330.46c.94-5.32 10.74-38.76 27.93-29.88 10.21 5.28 8.38 24.7-7.58 39.37 3.13-3 6.75-6.46 11-7.31a8.52 8.52 0 0 1 6.86 2.2c1.54 1.42 2 3.66 2.06 5.76a22.66 22.66 0 0 1 -10.1 19.4c3.53-2 6.59-4.44 10.61-4.79 1.31-.11 3.53.64 4.13 1.8s.61 6-7.15 9.57c31.66-6 33.51 7.49 22.13 7.49h-75.18" fill="#d7f6ff"/><path d="m260.44 262c-8.71-2.4-15.34-9.79-15.86-18.81 0-.44 0-.87 0-1.3a2.61 2.61 0 0 1 0-.39 2.48 2.48 0 0 1 0-.39c0-.43 0-.86 0-1.3.52-9 7.15-16.41 15.86-18.81a77.72 77.72 0 0 0 56.92-74.86 76.68 76.68 0 0 0 -1.28-14.06c-.14-.78-.29-1.55-.46-2.31-.12-.56-.24-1.12-.38-1.68a.36.36 0 0 0 0-.1c-.07-.29-.14-.58-.22-.87-.13-.56-.27-1.1-.43-1.65-.23-.84-.47-1.67-.73-2.5h-2.65c.09.27.18.54.25.81a.78.78 0 0 1 .05.14q.22.7.42 1.41c.09.31.18.61.25.92.14.49.27 1 .39 1.46.08.31.16.62.22.92.13.5.24 1 .34 1.49 0 .17.08.34.11.51s0 .13 0 .2q.18.85.33 1.71a75.16 75.16 0 0 1 -53.82 86c-10 2.77-17.15 11.24-17.71 21.11v1.44.39s0 .27 0 .39v1.44c.56 9.87 7.68 18.35 17.71 21.11a75.17 75.17 0 0 1 53.82 86 73.15 73.15 0 0 1 -5.83 18.25h-136.11a73.53 73.53 0 0 1 -5.84-18.26 75.23 75.23 0 0 1 53.83-86c10-2.76 17.14-11.24 17.71-21.11 0-.48 0-1 0-1.44 0-.12 0-.26 0-.39s0-.26 0-.39c0-.48 0-1 0-1.44-.57-9.87-7.68-18.34-17.71-21.11a75.23 75.23 0 0 1 -53.83-86c.14-.79.3-1.57.47-2.36 0 0 0 0 0-.06.17-.76.34-1.52.53-2.28v-.13c.15-.58.3-1.17.47-1.74 0 0 0-.09 0-.14.05-.22.12-.45.19-.67.11-.42.24-.83.37-1.24a.78.78 0 0 1 .05-.14c.07-.27.16-.54.25-.81h-2.65c-.26.83-.5 1.66-.73 2.5-.16.55-.3 1.09-.43 1.65-.08.29-.15.58-.22.87a.36.36 0 0 0 0 .1c-.14.56-.26 1.12-.38 1.68-.17.76-.32 1.53-.46 2.31a76.68 76.68 0 0 0 -1.25 14.05 77.71 77.71 0 0 0 56.95 74.88c8.7 2.4 15.34 9.79 15.85 18.81v1.3.39s0 .27 0 .39v1.3c-.51 9-7.15 16.41-15.85 18.81a77.72 77.72 0 0 0 -56.95 74.84 77.81 77.81 0 0 0 8 34.39h139.35a77.81 77.81 0 0 0 8-34.39 77.73 77.73 0 0 0 -56.91-74.84z" fill="#389fe5" opacity=".2"/><path d="m314.83 336.84a74.81 74.81 0 0 1 -1.24 13.61 73.15 73.15 0 0 1 -5.83 18.25h-136.13a73.53 73.53 0 0 1 -5.84-18.26 75.23 75.23 0 0 1 53.83-86c10-2.76 17.14-11.24 17.71-21.11 0-.48 0-1 0-1.44 0-.12 0-.26 0-.39s0-.26 0-.39c0-.48 0-1 0-1.44-.57-9.87-7.68-18.34-17.71-21.11a75.23 75.23 0 0 1 -53.83-86c.14-.79.3-1.57.47-2.36 0 0 0 0 0-.06.16-.76.34-1.52.53-2.28v-.13c.16-.63.32-1.25.51-1.88s.36-1.28.56-1.91l.3-1h143l.3 1q.22.7.42 1.41c.09.31.18.61.25.92.14.49.27 1 .39 1.46.08.31.16.62.22.92.13.5.24 1 .34 1.49l.15.71q.18.85.33 1.71a75.16 75.16 0 0 1 -53.82 86c-10 2.77-17.15 11.24-17.71 21.11v1.44.39s0 .27 0 .39v1.44c.56 9.87 7.68 18.35 17.71 21.11a75.35 75.35 0 0 1 55.09 72.4z" fill="#fff"/><path d="m314.83 336.84a74.81 74.81 0 0 1 -1.24 13.61 73.15 73.15 0 0 1 -5.83 18.25h-136.13a73.53 73.53 0 0 1 -5.84-18.26 75.23 75.23 0 0 1 53.83-86c10-2.76 17.14-11.24 17.71-21.11 0-.48 0-1 0-1.44 0-.12 0-.26 0-.39s0-.26 0-.39c0-.48 0-1 0-1.44-.57-9.87-7.68-18.34-17.71-21.11a75.23 75.23 0 0 1 -53.83-86c.14-.79.3-1.57.47-2.36 0 0 0 0 0-.06.16-.76.34-1.52.53-2.28v-.13c.16-.63.32-1.25.51-1.88s.36-1.28.56-1.91l.3-1h143l.3 1q.22.7.42 1.41c.09.31.18.61.25.92.14.49.27 1 .39 1.46.08.31.16.62.22.92.13.5.24 1 .34 1.49l.15.71q.18.85.33 1.71a75.16 75.16 0 0 1 -53.82 86c-10 2.77-17.15 11.24-17.71 21.11v1.44.39s0 .27 0 .39v1.44c.56 9.87 7.68 18.35 17.71 21.11a75.35 75.35 0 0 1 55.09 72.4z" fill="#d7ecfa" opacity=".5"/><path d="m177.72 190.37s11.85 19.42 40.27 28.35c7.28 2.14 9.73 3.72 13.92 7.58s5.62 10.65 5.46 16c-.06 4.16 2.33 65 2.33 72.58 0 7.15.93 1.85.72.32.74-43.06 1.61-74.73 1.61-74.73s2.58-13.54 6.56-15.4 18.44-8.58 24.35-10.24 20.21-14.69 20.21-14.69 18.16-25.9 19.26-29.21-8.21-3.63-8.21-3.63z" fill="#ff9a30"/><ellipse cx="244.01" cy="177.46" fill="#fdcf33" rx="69.76" ry="14.41" transform="matrix(.98793285 -.15488282 .15488282 .98793285 -24.55 39.95)"/><g fill="#fff" opacity=".5"><path d="m219.25 209a7.57 7.57 0 0 1 -2.46-.41 72.2 72.2 0 0 1 -15-7.06 7.58 7.58 0 0 1 8.06-12.84 57.05 57.05 0 0 0 11.82 5.56 7.58 7.58 0 0 1 -2.42 14.75z"/><path d="m189.61 186.64a7.57 7.57 0 0 1 -6.4-3.51c-13.21-20.77-9.81-44.13-9.66-45.08a7.58 7.58 0 0 1 15 2.28c0 .31-2.58 18.86 7.47 34.66a7.58 7.58 0 0 1 -6.39 11.65z"/></g><g fill="#fff" opacity=".5"><path d="m219.25 273.11a7.57 7.57 0 0 0 -2.46.41 72.2 72.2 0 0 0 -15 7.06 7.58 7.58 0 0 0 8.06 12.84 57 57 0 0 1 11.82-5.56 7.58 7.58 0 0 0 -2.46-14.75z"/><path d="m189.61 295.47a7.57 7.57 0 0 0 -6.4 3.51c-13.22 20.77-9.81 44.09-9.66 45.08a7.58 7.58 0 0 0 15-2.28c0-.31-2.58-18.86 7.47-34.66a7.58 7.58 0 0 0 -6.39-11.65z"/></g><path d="m260.44 262c-8.71-2.4-15.34-9.79-15.86-18.81 0-.44 0-.87 0-1.3a2.61 2.61 0 0 1 0-.39 2.48 2.48 0 0 1 0-.39c0-.43 0-.86 0-1.3.52-9 7.15-16.41 15.86-18.81a77.72 77.72 0 0 0 56.92-74.86 76.68 76.68 0 0 0 -1.28-14.06c-.14-.78-.29-1.55-.46-2.31-.12-.56-.24-1.12-.38-1.68a.36.36 0 0 0 0-.1c-.07-.29-.14-.58-.22-.87-.13-.56-.27-1.1-.43-1.65-.23-.84-.47-1.67-.73-2.5h-2.65c.09.26.17.54.25.81a.78.78 0 0 1 .05.14q.22.7.42 1.41c.09.31.18.61.25.92.14.49.27 1 .39 1.46.08.31.16.62.22.92.13.5.24 1 .34 1.49 0 .17.07.34.11.51s0 .13 0 .2q.18.85.33 1.71a75.16 75.16 0 0 1 -53.82 86c-10 2.77-17.15 11.24-17.71 21.11v1.44.39s0 .27 0 .39v1.44c.56 9.87 7.68 18.35 17.71 21.11a75.17 75.17 0 0 1 53.82 86 73.15 73.15 0 0 1 -5.83 18.25h-136.11a73.53 73.53 0 0 1 -5.84-18.26 75.23 75.23 0 0 1 53.83-86c10-2.76 17.14-11.24 17.71-21.11 0-.48 0-1 0-1.44 0-.12 0-.26 0-.39s0-.26 0-.39c0-.48 0-1 0-1.44-.57-9.87-7.68-18.34-17.71-21.11a75.23 75.23 0 0 1 -53.83-86c.14-.79.3-1.58.47-2.36 0 0 0 0 0-.06.17-.76.34-1.52.53-2.28v-.13c.15-.58.3-1.17.47-1.74 0 0 0-.09 0-.14.06-.22.12-.45.19-.67.11-.42.24-.83.37-1.24a.78.78 0 0 1 .05-.14c.08-.27.16-.55.25-.81h-2.65c-.26.83-.5 1.66-.73 2.5-.16.55-.3 1.09-.43 1.65-.08.29-.15.58-.22.87a.36.36 0 0 0 0 .1c-.14.56-.26 1.12-.38 1.68-.17.76-.32 1.53-.46 2.31a76.68 76.68 0 0 0 -1.25 14.05 77.71 77.71 0 0 0 56.95 74.88c8.7 2.4 15.34 9.79 15.85 18.81v1.3.39s0 .27 0 .39v1.3c-.51 9-7.15 16.41-15.85 18.81a77.72 77.72 0 0 0 -56.95 74.84 77.81 77.81 0 0 0 8 34.39h139.35a77.81 77.81 0 0 0 8-34.39 77.73 77.73 0 0 0 -56.91-74.84z" fill="#b7ddf6"/><path d="m336.49 367.1a7.35 7.35 0 0 1 -7.35 7.35h-178.91a7.35 7.35 0 0 1 -7.35-7.35 7.35 7.35 0 0 1 7.35-7.35h178.92a7.35 7.35 0 0 1 7.34 7.35z" fill="#389fe5"/><g fill="#ff9a30"><ellipse cx="295.6" cy="170.37" rx="3.63" ry="1.03" transform="matrix(.97832867 -.20705802 .20705802 .97832867 -28.86 64.87)"/><ellipse cx="292.36" cy="176.47" rx="2.32" ry="1.03" transform="matrix(.97836479 -.20688726 .20688726 .97836479 -30.19 64.33)"/><ellipse cx="286.63" cy="174.79" rx="2.32" ry="1.03" transform="matrix(.97836479 -.20688726 .20688726 .97836479 -29.97 63.11)"/><ellipse cx="248.06" cy="179.67" rx="1.25" ry=".55" transform="matrix(.97832867 -.20705802 .20705802 .97832867 -31.81 55.23)"/><ellipse cx="278.67" cy="170.37" rx="1.25" ry=".55" transform="matrix(.97832867 -.20705802 .20705802 .97832867 -29.23 61.37)"/><ellipse cx="267.57" cy="181.05" rx="1.25" ry=".55" transform="matrix(.97832867 -.20705802 .20705802 .97832867 -31.68 59.31)"/><ellipse cx="252.77" cy="188.13" rx="1.25" ry=".55" transform="matrix(.97832867 -.20705802 .20705802 .97832867 -33.46 56.39)"/><path d="m240.55 307.2-.55-.2-.52.2s-4.47 35-52.48 52.55h106c-48-17.58-52.45-52.55-52.45-52.55z"/></g><ellipse cx="239.69" cy="123.74" fill="#b9dbef" rx="74.39" ry="7.07"/><path d="m329.15 112.86h-178.91a7.35 7.35 0 1 0 0 14.69h178.91a7.35 7.35 0 1 0 0-14.69z" fill="#389fe5"/><path d="m0 374.44h410.54" fill="none" stroke="#389fe5" stroke-miterlimit="10"/><ellipse cx="67.78" cy="411.46" fill="#e6ecef" rx="60.9" ry="5.15"/><path d="m69.1 230.55a26.57 26.57 0 0 0 -.3 7.27l.92.19h.68l.73-.78.34-4.94-.93-2.89-6.54-4.57-1.05-.38z" fill="#ffbd1d"/><path d="m63 244.27 2.66 6.34h7.7.88a26.5 26.5 0 0 0 4.79 5.24l-.28 9.21 6.4 2.63 5.85-5.9.2-.2a26.56 26.56 0 0 0 7.17.3l6.28 6.7 6-2.5.4-.17v-8.58a26.33 26.33 0 0 0 5.26-4.81l9 .3h.2l2.63-6.4-6.09-6a26.49 26.49 0 0 0 .3-7.22l6.65-6.21-2.67-6.38h-8.57a26.38 26.38 0 0 0 -4.73-5.19v-.18l.21-9.08-6.4-2.63-6 6.06a26.53 26.53 0 0 0 -7.05-.31l-.57-.6-5.8-6.11h-.05l-6.37 2.76v8.58a26.49 26.49 0 0 0 -5.28 4.83l-9.17-.32-2.55 6.4 6.08 6a26.42 26.42 0 0 0 -.3 7.17z" fill="#ff9a30"/><circle cx="96.34" cy="235.67" fill="#ff9a30" opacity=".3" r="23.44" transform="matrix(.99237502 -.12325508 .12325508 .99237502 -28.32 13.68)"/><circle cx="95.9" cy="235.06" fill="#fffae4" r="17.94" transform="matrix(.99237502 -.12325508 .12325508 .99237502 -28.25 13.62)"/><g fill="none" stroke="#e49f05" stroke-miterlimit="10" stroke-width=".36"><path d="m95.9 217.11v2.31"/><path d="m108.67 222.55-1.63 1.64"/><path d="m113.86 235.44h-2.31"/><path d="m108.41 248.22-1.63-1.63"/><path d="m95.52 253.41v-2.32"/><path d="m82.74 247.96 1.64-1.64"/><path d="m80.14 235.07h-2.31"/><path d="m83.13 222.41 1.63 1.63"/><path d="m102.86 218.43-.55 1.32"/><path d="m112.74 228.22-1.32.55"/><path d="m112.81 242.13-1.32-.55"/><path d="m103.02 252.01-.54-1.32"/><path d="m89.12 252.08.54-1.32"/><path d="m79.23 242.29 1.32-.54"/><path d="m79.16 228.39 1.32.54"/><path d="m88.95 218.5.55 1.32"/></g><circle cx="95.9" cy="235.06" fill="#8cc64b" r="1.36"/><path d="m94.39 235.62a1.74 1.74 0 0 0 1.74 1.74h.23l4.72 8 2.49 1.12a.48.48 0 0 0 .67-.53l-.51-2.68-6.59-6.27a1.34 1.34 0 0 0 .74-1.34 1.74 1.74 0 0 0 -1.59-1.73l1.11-8.7-.77-2.05a.42.42 0 0 0 -.77 0l-.86 2 .79 8.69a1.66 1.66 0 0 0 -1.4 1.75zm.89-10.46 8.76 21.2" fill="#3d3d3d" opacity=".3"/><path d="m96.24 223.1.63 1.67a.39.39 0 0 1 0 .19l-1.13 8.85-1-8.91a.39.39 0 0 1 0-.2l.69-1.61a.39.39 0 0 1 .81.01z" fill="#ff9a30"/><path d="m104 245.8-2.11-.94a.46.46 0 0 1 -.21-.19l-5.09-8.67 7.5 6.78a.46.46 0 0 1 .14.25l.43 2.26a.46.46 0 0 1 -.66.51z" fill="#ff9a30"/><circle cx="95.84" cy="235.26" fill="#e49f05" r="1.74"/><circle cx="95.84" cy="235.26" fill="#ff9a30" r="1.52"/><path d="m72.12 210.54s9.49.27 4.47 11.1-4.47-11.1-4.47-11.1z" fill="#1f3a71"/><path d="m74.76 214.48s2.56 1.57 2.52 10c0 .29 1 2.8 1.13 3.09.36 1.14-.36 1.21-1.33 1.69-.39 6.39-1.35 6.27-2.19 6.84s-8.31-.87-13-3.21-6.32-9.32-4.33-13.6 11.69-8.5 17.2-4.81z" fill="#ffc8b0"/><path d="m53.52 220.47c-.76 4 1.21 10.15 9.08 12.81 0 0 .7-2.42 1.2-4.8s7.18-5.1 10.07-7.69q.22-.19.41-.39a6 6 0 0 0 .07-7.89c-1.62-2-5.21-5.31-11.63-3.13-5.72 1.94-8.26 6.12-9.2 11.09z" fill="#1f3a71"/><path d="m72.5 229.4c-1.24 1.34-1.47 4.06-1.37 6.65l.08 1.31a40.78 40.78 0 0 0 .71 4.87l-9.08-.23a55.52 55.52 0 0 0 -.22-8.75s12.81-7.03 9.88-3.85z" fill="#ffc8b0"/><path d="m71.21 237.36a26.91 26.91 0 0 1 -6-3c2.54.83 5.94 1.74 5.94 1.74z" fill="#f2a181"/><path d="m77.68 301.75-14.2-15.31s-8.6 9.09-7 19.08c.78 4.91 2.21 7.47 2.68 9.81.44 2.19 1.55 32.53.93 34.67s-3.93 7.91-5.69 14.19c-2.12 7.56-4.28 18.51-6 25s1.11 15.27 1.73 13.06c5.25-18.88 19-40.61 21.24-50.09s3.96-27.1 6.31-50.41z" fill="#ffbe9d"/><path d="m54.43 388.59s-4.35 12.35-4 13.92c.21 1 1.18 4.19 1.4 4.65.09.18 3.21 2.66 1.13 2.61s-6.9-6.5-7.61-7a3.07 3.07 0 0 1 -1.43-3.17c.43-1.9 1.7-3.35 2.64-4.68s1.69-5.1 1.69-5.1z" fill="#ffbe9d"/><path d="m55.72 410.32a12.46 12.46 0 0 0 -3.36-2.68c-.38-.49-.7-.8-.54-.49.27.52-1.12.79-1.8.23-2.38-1.91-3.06-4.75-4.23-6.1-1.67-1.92-.5-4.45-.32-4.88a11.06 11.06 0 0 0 -3.42 1.53 6.41 6.41 0 0 0 -1.81 2 27.34 27.34 0 0 1 -1.63 3.72l2.25 1.79 2.18-2 .6.64a5.18 5.18 0 0 1 1.16 2.38 12.79 12.79 0 0 0 .57 1.76 5.45 5.45 0 0 0 1.66 2.31l1 .79a4 4 0 0 0 2.55.91h4.42a1 1 0 0 0 1-1.12 2.14 2.14 0 0 0 -.28-.79z" fill="#1f3a71"/><path d="m88.54 408.42c-.31-.41-3.94-1.34-5.6-2.22a10 10 0 0 1 -3.68-4.2c-.3-1 .21-5.72.44-7.71 1.58-13.71 6.43-32.91 7.52-40.92 1.9-13.92 1.38-28.52-2-51.44l-18.62-17.17s-6.55 9.92-5.57 20.06c.57 5.88 5.29 7.2 5.9 9.53s9.46 39.65 9.46 39.65a68.5 68.5 0 0 0 -4 16.2c-.78 7.32 1.28 15.56 1.13 24-.08 1.65-.15 5.62-.74 6.83-.73 1.48-2.41 3.15-2.51 5.1a3 3 0 0 0 2 2.84c1.38.57 2.24-.18 2.73-.16 2.83.14 3.44 2.15 8.32 2.59a7.74 7.74 0 0 0 5-1.58 1 1 0 0 0 .22-1.4z" fill="#ffbe9d"/><path d="m88.8 410.18a3.62 3.62 0 0 1 -1 1.12 5.15 5.15 0 0 1 -3.14 1h-2.39a5.49 5.49 0 0 1 -2.76-.74 13.14 13.14 0 0 1 -1.55-1 5.14 5.14 0 0 0 -2.41-1.1 7 7 0 0 0 -1.54 0l-.17 2.88h-3.29a16.28 16.28 0 0 0 -.84-4.12 5.57 5.57 0 0 1 .23-2.52 11.7 11.7 0 0 1 2.12-3.34c.13.45.83 3.15 3.35 3.57 1.75.3 4.08 2.08 7.13 2 .88 0 1.79-1.08 1.25-1.32s1 0 1.93.38a27.81 27.81 0 0 1 3.1 1.53c.35.18.31 1.06-.02 1.66z" fill="#1f3a71"/><path d="m48.14 265.35s1 4.91 1.56 6.94 3.57 14.88 6.39 14.65 18.23-13.1 18.23-13.1l-2.18-4.37-13.57 6.47s-1.23-14.69-2.3-18.19z" fill="#ffc8b0"/><path d="m52.06 265.89c1.44 5.08 4.2 12.9 5.26 14.37.47.66 9.57-2.63 9.6-6.16l-9.43-10.69z" fill="#f2a181"/><g fill="#389fe5"><path d="m60.63 242.27a16.41 16.41 0 0 0 -8.24 2.8c-5.88 4.37-4.48 20.93-4.48 20.93s-.29.86 3.62.64a28.13 28.13 0 0 0 7-1.33l-1.09-13.31z"/><path d="m50.85 252.27s-.49 9.5 1.23 14.29a15.51 15.51 0 0 0 3.19-.42z"/><path d="m60.45 243.16c.16-1.08.45-2.33 1.45-2.76a3.14 3.14 0 0 1 .88-.19 29 29 0 0 1 5.79-.44 8.6 8.6 0 0 1 3.74.66c1.79.89 2.77 2.82 3.64 4.63z"/><path d="m60.45 243.16c.16-1.08.45-2.33 1.45-2.76a3.14 3.14 0 0 1 .88-.19 29 29 0 0 1 5.79-.44 8.6 8.6 0 0 1 3.74.66c1.79.89 2.77 2.82 3.64 4.63z"/></g><path d="m48.3 387.71c1.2-5.29 4.27-18.93 6.46-24.72s5.22-12 5.33-13c.09-.79-.71-6.65-1-8.54a.21.21 0 0 1 0-.13c0-.65-3.19-24.72-4.25-28.37a30.53 30.53 0 0 1 -1.93-12.31c.37-6.59 5.61-14.45 7-15.88l24.26-.4s4.18 9.89 4.59 16c.84 12.89-.45 40-.45 40h-.05a101.22 101.22 0 0 1 -.74 10.64c-.73 5.35-8.17 49-8.17 49a13.4 13.4 0 0 1 -6.61-.73 4.43 4.43 0 0 0 .05-.94c.28-5.27-2.11-22 0-32.29s3-12.46 3-12.46l-2.31-11.2c0-.19-.08-.65-.15-.65a87.65 87.65 0 0 1 -1.65 10.72c-1.11 4.1-11.7 27.12-15.91 37-1.44 3.39-2.74 7.19-2.74 7.19s-5.05-.58-6.49-2.81a33.48 33.48 0 0 0 1.76-6.12z" fill="#285faf"/><path d="m83.84 280.51c-.85-1.67-1.6-8.73-1.3-10.53s2-3 2.79-7.27a15.89 15.89 0 0 0 -2.54-11.71c-1.79-2.61-4.26-7.9-4.77-8-7.49-2.28-8.71-1.19-13.75-1a33.4 33.4 0 0 0 -6.54.75c-2.71.6-6 1.5-6.52 5.18a37 37 0 0 0 1.59 16.83c1.15 3.57 8 15.94 6.29 18.34a8.17 8.17 0 0 0 -1.47 2.27c-.43 2.5 3.61 3.11 7.64 3.58a64.23 64.23 0 0 0 11.6-.07c11.38-.76 7.34-7.67 6.98-8.37z" fill="#389fe5"/><path d="m52.29 250.83c4.31 2.59 9.62 2.29 13.3 1.59-.17-2.94.08-9 .08-9a79.35 79.35 0 0 0 1.21 8.67 24.46 24.46 0 0 0 3.12-.89s-2.9-14.24-2.9-20.5c0-5.38 5.68-9.08 5.68-9.08l-9.6-12.41a15.14 15.14 0 0 0 -9.7 11.26c-1.02 4.53-1.19 30.36-1.19 30.36z" fill="#1f3a71"/><path d="m61.29 306.38a20 20 0 0 0 3.49 7.43l8.22 30.77s.15-1.29.32-2.8c-2.66-11.19-6-26-6.36-27.42-.58-2.11-4.51-3.36-5.67-7.98z" fill="#5275a0" opacity=".35"/><path d="m80.92 261.38s11.28 18.1 15.28 18.1c2.91 0 19.18-19.43 19.18-19.43l-5.51-1.48-13.3 9.16-8.07-13.29z" fill="#ffc8b0"/><path d="m121.83 253.28a8.39 8.39 0 0 1 0-1c.12-.73.62-1.36.79-2.08a10.42 10.42 0 0 0 .11-1.74c0-.66.45-1.77-.09-1.85.11-.42.27-.89.36-1.31s0-.93-.32-.88c-.55.07-1.15.81-1.5 1.15s-1.18 1.64-1.59 2.14a6.05 6.05 0 0 1 -2 1.61s.26-.47.06-.7-1.31.28-2.41.44c-.57.08-2 1.79-2.42 2.28s-.9 3.51-1 4.13c-.34 1.64-2.4 3.51-2.4 3.51l4.74 2.34c.11.05.63-.63.7-.71a3.18 3.18 0 0 1 1.07-.86c1.46-1.43 3.62-2.12 4.88-3.78a4.87 4.87 0 0 0 1-2.61z" fill="#ffc8b0"/><path d="m117.61 249.29a6.31 6.31 0 0 1 -2.06 1.23c-.51.27-.53.53-1.09.8.81.16.8-.35 2-.8a2.25 2.25 0 0 0 1.41-1 .19.19 0 0 0 -.29-.23z" fill="#f2a181"/><path d="m71 241.58c2.4.12 10.1.65 14.83 7.6 2.65 3.89 5.54 8.47 6.85 12.08-.63 2.15-4.67 6.51-8.39 6.47-.19-.14-5.66-6.85-6.71-12.33z" fill="#389fe5"/><path d="m45.85 209.49 5.23 2.79-2.62-6.8" fill="#cfeffe"/><circle cx="40.67" cy="200.79" fill="#cfeffe" r="11.06"/><g fill="#67c2ef"><path d="m40 194.54a4.07 4.07 0 0 1 4.4 3.69 4 4 0 0 1 -.33 1.94l-.38 1-1.35 3.5-1.43.13-1.43.13-1.92-3.21-.56-.92a4 4 0 0 1 -.66-1.85 4.07 4.07 0 0 1 3.69-4.4m-.06-.62a4.68 4.68 0 0 0 -4.25 5.07 4.63 4.63 0 0 0 .76 2.14l2.69 4.39 1.82-.16 1.82-.16 1.87-4.8a4.63 4.63 0 0 0 .38-2.24 4.68 4.68 0 0 0 -5.06-4.25z"/><path d="m41.29 208.84a1.83 1.83 0 0 1 -2-1.66l-.12-1.33 3.65-.32.12 1.33a1.83 1.83 0 0 1 -1.65 1.98z"/><path d="m38.45 199.64a.31.31 0 0 1 0-.62l4-.35a.31.31 0 0 1 .05.62l-4 .35z"/><path d="m41 205.35a.31.31 0 0 1 -.31-.28l-.52-5.89a.31.31 0 0 1 .28-.34.31.31 0 0 1 .34.28l.52 5.89a.31.31 0 0 1 -.28.34z"/></g><path d="m278.78 340.69 4 4s4.89-3.5 4.87-4.26-3.57-4.6-4.56-4.57-4.31 4.83-4.31 4.83z" fill="#ff9a30"/><path d="m262.8 340.69-4 4s-4.89-3.5-4.87-4.26 3.57-4.6 4.56-4.57 4.31 4.83 4.31 4.83z" fill="#ff9a30"/><path d="m268.81 333.31h3.95v3.36h-3.95z" fill="#153351" transform="matrix(-1 0 0 -1 541.58 669.97)"/><circle cx="270.79" cy="353.76" fill="#ff9a30" r="18.13"/><path d="m287.46 354.53a18.11 18.11 0 0 1 -9 15.64 18.13 18.13 0 1 0 -16.88-32 18.14 18.14 0 0 1 25.83 16.41z" fill="#ff9a30" opacity=".3"/><path d="m252.67 353.76a18.12 18.12 0 0 0 28.61 14.79 18.58 18.58 0 0 1 -8.51 2c-10 0-18.12-7.8-18.12-17.42s8.11-17.42 18.12-17.42a17.63 17.63 0 0 0 -2-.11 18.12 18.12 0 0 0 -18.1 18.16z" fill="#fdd622" opacity=".6"/><circle cx="270.79" cy="353.76" fill="#153351" r="13.53"/><circle cx="270.79" cy="353.76" fill="#fffdff" r="12.4"/><path d="m268 334.34h5.59s1-2.38.43-2.59a27.9 27.9 0 0 0 -6.46 0c-.65.25.44 2.59.44 2.59z" fill="#ff9a30"/><rect fill="#153351" height="10.32" rx=".45" transform="matrix(-.92084548 .38992769 -.38992769 -.92084548 653.08 566.98)" width="1.41" x="268.28" y="344.63"/><circle cx="270.79" cy="353.76" fill="#153351" r="1.97"/><path d="m272.09 369.75a4.45 4.45 0 0 1 1.28.11 0 0 0 0 1 0 .06 4.44 4.44 0 0 1 -1.28.11.14.14 0 0 1 0-.28zm-1.91 0a1.2 1.2 0 0 0 .74.06 0 0 0 0 0 0-.06 5.68 5.68 0 0 1 -.65-.22.12.12 0 1 0 -.09.23zm-11.9-25a6.61 6.61 0 0 1 .84-1.34c.14-.18-.1-.43-.26-.26a7 7 0 0 0 -.94 1.38c-.13.22.25.47.36.19zm-1.61 2.51c0 .28.39.41.44.12s.12-.62.19-.92.21-.47.17-.7c-.23.08-.35.37-.46.58a2.75 2.75 0 0 0 -.34.89zm6.27-7a25.71 25.71 0 0 1 2.24-1.47c.23-.13.07-.54-.19-.44a11.43 11.43 0 0 0 -2.45 1.23c-.4.29-.01.96.4.68z" fill="#fdd622" opacity=".6"/><path d="m220.38 386.8a15.73 15.73 0 0 1 -.79-13.19 16.19 16.19 0 0 1 4.67-6.55 17.82 17.82 0 0 1 6.34-3.06 15.65 15.65 0 0 1 11.8 1.36 16.73 16.73 0 0 1 6.48 7.55c1.38 3 2 6.66 4.92 8.58.85.55 2.25.77 2.67 1.79.5 1.21-.41 2.42-.89 3.47l-1.71 3.76c-.41.9-.8 2.45-1.88 2.78s-2.14-.53-3.12-.8c-2.56-.71-5.34.29-7.68 1.32-2.68 1.17-7.07.56-10 .31-5.45-.51-8.35-2.48-10.81-7.32z" fill="#95e2f9"/><path d="m255.81 387.93s-8.26-4.08-12.21-6.31a17.92 17.92 0 0 1 -3.57-2.46c-.93-.82-2.8-2.77-1.6-4.06 1.42-1.52 3.09 1 3.08 2.34a5.26 5.26 0 0 1 -1.93 3.48 5.6 5.6 0 0 1 -5.79-.1 1.32 1.32 0 0 1 .81-2.43c1.28.08 4.89 2.78 4.06 5a4.9 4.9 0 0 1 -2.46 2.58c-2 1-4.54-1.54-1.76-2.43 2-.63 4.5 0 6.35.77 5.07 2 9 3.65 14 5.71" fill="none" stroke="#fff" stroke-miterlimit="10" stroke-width=".62"/><path d="m250.53 388.13h9.33v.92h-9.33z" fill="#389fe5" transform="matrix(-.40864907 .91269159 -.91269159 -.40864907 714.15 314.51)"/><path d="m256.42 393.92c-.11-.23-.43.56-.66.65l-.11-.56c-.23.08-.49.55-.61.33l-.07-.13a.54.54 0 0 0 -.66-.25.54.54 0 0 1 -.65-.24l-.2-.36a.48.48 0 0 1 0-.43l3.79-8.46a.48.48 0 0 1 .33-.27l.41-.09a.54.54 0 0 1 .61.33.54.54 0 0 0 .62.33h.15a.54.54 0 0 1 .61.3v.08a.54.54 0 0 0 .63.3h.11a.54.54 0 0 1 .63.31v.05a1 1 0 0 1 0 .77l-3.35 7.51c-.11.24-.12-.31-.38-.21l-.46-1c-.24.09-.29 1.43-.41 1.2z" fill="#67c2ef"/><g fill="#389fe5"><path d="m254.55 393.64h-.06a.15.15 0 0 1 -.08-.2l1.77-3.94a.15.15 0 0 1 .28.12l-1.77 3.94a.15.15 0 0 1 -.14.08z"/><path d="m257.11 387.94h-.11a.15.15 0 0 1 -.08-.2l1-2.19a.15.15 0 0 1 .28.12l-1 2.19a.15.15 0 0 1 -.09.08z"/><path d="m256.75 391.33h-.06a.15.15 0 0 1 -.08-.2l2.56-5.72a.15.15 0 0 1 .28.12l-2.56 5.72a.15.15 0 0 1 -.14.08z"/><path d="m255.51 394.09h-.06a.15.15 0 0 1 -.08-.2l.76-1.69a.15.15 0 1 1 .28.12l-.76 1.69a.15.15 0 0 1 -.14.08z"/><path d="m258.65 389.68h-.06a.15.15 0 0 1 -.08-.2l1.37-3.06a.15.15 0 0 1 .28.12l-1.37 3.06a.15.15 0 0 1 -.14.08z"/><path d="m257.2 392.91h-.06a.15.15 0 0 1 -.08-.2l.55-1.23a.15.15 0 0 1 .28.12l-.55 1.23a.15.15 0 0 1 -.14.08z"/><path d="m256.66 388.93h-.06a.15.15 0 0 1 -.08-.2l.2-.44a.15.15 0 0 1 .28.12l-.2.44a.15.15 0 0 1 -.14.08z"/></g><path d="m220.38 386.8a15.73 15.73 0 0 1 -.79-13.19c.21-.49.43-1 .67-1.45-2.61 6.94.64 15.43 7.81 18.37 6 2.47 11.56 1.47 16.85-3.37a3.84 3.84 0 0 1 3.87-1.1c1.41.41 2.57 1.43 4 1.75a1.23 1.23 0 0 0 .66 0 1.33 1.33 0 0 0 .5-.37 9.72 9.72 0 0 0 2.36-4.49 1.49 1.49 0 0 1 .15.28c.5 1.21-.41 2.42-.89 3.47l-1.71 3.76c-.41.9-.8 2.45-1.88 2.78s-2.14-.53-3.12-.8c-2.56-.71-5.34.29-7.68 1.32-2.68 1.17-7.07.56-10 .31-5.44-.46-8.34-2.43-10.8-7.27z" fill="#95e2f9" opacity=".5"/><ellipse cx="308.41" cy="412.2" fill="#e6ecef" rx="94.98" ry="5.15"/><path d="m332.49 397.44s-.28 7.32.1 9c.3 1.32 4.4 1.45 4.9.75s1.14-9.2 1.14-9.2" fill="#ffbe9d"/><path d="m338.62 408.38c0 .93.46 3.7-.67 3.7h-11.95c-3.06 0-4.8-.39-4.88-.93-.32-2.2 10.38-5.91 11.4-5.9a.35.35 0 0 1 .13 0 1.47 1.47 0 0 1 .75.67 2.81 2.81 0 0 0 3.57 1.16 2.45 2.45 0 0 0 .72-.51 1.81 1.81 0 0 1 .93 1.81z" fill="#4c4051"/><path d="m376.78 399.09s1.29 3.47 1.85 4.63 4.4-.27 4.6-1.06-2.92-6.76-2.92-6.76" fill="#ffbe9d"/><path d="m385 403.38c1.21 2.42.92 3.55.54 3.78l-3.21 1.93c-.11.05-1.47.75-2.52 1.4a14.19 14.19 0 0 1 -3.57 1.5c-3.28.76-5.82.39-6.08-.06-1.05-1.83 7.07-8.86 8-9.24a.34.34 0 0 1 .13 0 1.42 1.42 0 0 1 .93.36 2.39 2.39 0 0 0 2.79.33 2.85 2.85 0 0 0 1.19-1.3 2.44 2.44 0 0 1 1.8 1.3z" fill="#4c4051"/><path d="m381.51 396.57a.5.5 0 0 1 -.17.59 11.59 11.59 0 0 1 -5 2.31c-.68-1.07-22-34.71-26.07-41.24l-.24-.39s0 0 0-.07a7.75 7.75 0 0 1 -.66-1.3l-.1-.23a3.51 3.51 0 0 1 -.22-.7c0-.14-.06-.27-.08-.42s0 0 0-.07c-.57-2.9-1.93-7.88-3.58-13.67-.94-3.28-2-6.82-3-10.4-.81-2.8-1.62-5.59-2.36-8.23l-6.03-23.16a.5.5 0 0 1 .45-.62l4.77-.32c6.06-.41 13.45-3.46 15-4.14a.5.5 0 0 1 .55.11c6.94 6.94 5.62 15.65 4.78 20a23.34 23.34 0 0 0 -.34 6.08c.48 6.27 1.41 18 1.5 26.1 0 .23.35 5.07 5 10.82a24.77 24.77 0 0 1 2.46 3.11c6.94 10.5 9.5 26.71 13.34 35.84z" fill="#285faf"/><path d="m376.34 399.45c-.68-1.07-22-34.71-26.07-41.24l-.24-.39s0 0 0-.07a7.75 7.75 0 0 1 -.66-1.3l-.1-.23a3.51 3.51 0 0 1 -.22-.7c0-.14-.06-.27-.08-.42s0 0 0-.07c-.57-2.88-1.91-7.79-3.54-13.52a.5.5 0 0 1 0-.31l9.51-25.51a.49.49 0 0 1 .46-.32h2.5a.49.49 0 0 1 .47.65c-.85 2.56-4 12.11-5.38 16.77-1.62 5.39-2.06 13.84-2.21 16.93-.32 6.79 8 18.32 10.42 22.52 2.5 4.5 14.19 25.34 15.14 27.21z" fill="#5275a0" opacity=".35"/><path d="m354.51 319.55c.71-.33 3.58-1.95 5.4-7.08a.51.51 0 0 0 -.2-.59c-2.77-1.76-22.07-13.82-26.69-12.35-1.42.46-4.1 45.35-4.08 46.31v5.9c.3 7.65 3 45.71 3.28 49.93a.48.48 0 0 0 .41.45 32.21 32.21 0 0 0 5.24.35l.5-.43c1.21-10.21 6.47-29.44 3.82-41.49 0-.15-.05-.3-.08-.45s0-.55-.09-1c-.64-5.33-.66-3.77.8-10.49v-.07c3.26-8.4 9.41-23.71 11.43-28.78a.45.45 0 0 1 .26-.21z" fill="#285faf"/><path d="m362.53 267.32c0 2.56-.18 5.11-.38 7.57-.27 3-.64 5.88-1 8.48-.9 6.2-1.89 10.8-1.79 11.91a6.07 6.07 0 0 0 .63 2 1.32 1.32 0 0 1 -.3 1.53c-.41.18-.84.34-1.28.51-10.81 4-26.73.59-26.73.59-.66 0-1.32-.47-1.06-1.72a61.52 61.52 0 0 0 1.16-6.5c0-.9.22-3.94.73-8.16.18-1.5.39-3.13.64-4.88.2-1.48.44-3 .68-4.64.3-1.87.54-3.7.79-5.48.27-2 .53-4 .81-5.91a77.68 77.68 0 0 1 2-9.66 40.2 40.2 0 0 1 2.94-7.52c3-5.8 10.31-6.71 11.57-6.82a.47.47 0 0 1 .33.08c5.44 3.64 8.22 9.89 9.44 17a64.56 64.56 0 0 1 .82 11.62z" fill="#389fe5"/><path d="m351.7 252.13c-.43 5.4-2.44 22.81-10.75 30.54l-.11.08c-.43.23-3 1.47-7.85.83a.5.5 0 0 1 -.44-.55c.32-2.63.74-5.67 1.24-8.91a.5.5 0 0 1 .1-.23l2.11-14.58s2.12-7.06 5-9.91c1.8-1.8 9.88 2.4 9.88 2.4a.49.49 0 0 1 .82.33z" opacity=".08"/><path d="m310.66 305.71a7.26 7.26 0 0 0 -3 2.61h3.18" fill="#f2a181"/><path d="m291.1 359.22.04 33.09-33.77.03v-33.08z" fill="#fdcf33"/><path d="m257.37 359.22v33.09h-7.86l-.03-33.08z" fill="#ffd86c"/><path d="m295.41 367.59h-33.76l-4.28-8.37h33.77z" fill="#f4bf2a"/><path d="m223.6 394.58h78.32a4.59 4.59 0 0 0 4.59-4.59v-78.73a1.13 1.13 0 0 1 1.13-1.13h13.43a1.18 1.18 0 0 0 0-2.36h-13.43a3.5 3.5 0 0 0 -3.49 3.49v78.74a2.23 2.23 0 0 1 -2.23 2.23h-78.32a1.18 1.18 0 0 0 0 2.36z" fill="#c1ced6"/><circle cx="291.62" cy="403.58" fill="#b3eaff" r="8.5"/><circle cx="291.62" cy="403.58" fill="#fff" r="4.36"/><circle cx="236.77" cy="403.58" fill="#b3eaff" r="8.5"/><circle cx="236.77" cy="403.58" fill="#fff" r="4.36"/><g fill="#ffbe9d"><path d="m349.79 255.65a23.16 23.16 0 0 0 .57-4.3c-.47-4.39-5.11-3.59-5.95-3.06s-3.4 2.49-6.13 10.58c-1.88 5.57-3 9.87-3.7 12.55-.22.8-.53 1.77-.78 2.59l5.59 8c4.61-2.86 8.89-18.48 10.4-26.36z"/><path d="m330.77 280.37c-2.45 3.56-11.41 17.42-15.45 22.44l3.1 2.44c.13-.21.26-.44.42-.66l1.4-.93c2.71-3 5.74-5.48 10.08-9.89 4.49-4.58 8.64-9.38 10.32-12.33a51 51 0 0 0 2.68-4.73l-8.95-4.5a32 32 0 0 1 -3.6 8.16z"/><path d="m316.53 301.23a11.1 11.1 0 0 1 -2.4 2.46c-1 .49-2.36 1.53-3.31 1.92s-2.84 4.93-2.24 5.49a8.08 8.08 0 0 0 6.43.44c2.09-1 1.31-2.43 1.83-3.28a44.7 44.7 0 0 1 3.38-4.61l-.72-1.43z"/><path d="m352.39 238.68a4.32 4.32 0 0 1 -.81 1c-1.94 1.88-5.39 2.23-6.87 2.29a.49.49 0 0 1 -.5-.6 7.17 7.17 0 0 0 -.36-3.45.5.5 0 0 0 -.65-.31c-2.5.93-4.88 1.38-6.39.79a.57.57 0 0 1 -.21-.14 17.22 17.22 0 0 1 -2.72-4 .48.48 0 0 0 -.5-.27c-.7.1-1.7.12-1.91-.46-.27-.75.24-3.4.45-4.39 0 0 0-.07 0-.11a7.74 7.74 0 0 0 0-2.52c-.06-.24-.58-.52-.71-.71a14.3 14.3 0 0 1 -1.7-4.86.47.47 0 0 1 .19-.47c1.07-.77 5.35-3.84 5.69-3.91s10.24-1.9 10.58-1.76 5.32 6 6 12.36a9.14 9.14 0 0 1 -1 5.64s-.2 4.5 1.42 5.88z"/></g><path d="m336.9 260c1.75 2.12 8.72 4.49 11.62 4.69 1.62-4.21 6.91-17.82 1-20.18-6.52-2.63-10.39 7.49-12.62 15.49z" fill="#389fe5"/><path d="m351.56 239.75c-1.94 1.88-5.39 2.23-6.87 2.29a.49.49 0 0 1 -.5-.6 7.34 7.34 0 0 0 -.41-3.61.5.5 0 0 1 .16-.55 17 17 0 0 0 2-1.84.49.49 0 0 1 .86.35l-.21 4.49a.49.49 0 0 0 .45.52 6.82 6.82 0 0 0 4.52-1.05z" fill="#ffbe9d" opacity=".5"/><path d="m330.55 223.28c3.57 2 9.59 0 11.1.92s2.07 4.61 2.76 4.72.57-1 .48-2.36-.31-2.9 2.08-2.45c1.06.19 1.68 3.26 2.44 5.66a9 9 0 0 0 1.37 3 .49.49 0 0 0 .79-.09c3.85-6.71 3.08-21.55-7.15-21.45a.48.48 0 0 1 -.3-.1 9.22 9.22 0 0 0 -6.31-1.92h-.07c-2.91.3-11.54 3.2-13 6.08-1.79 3.43 3.97 6.92 5.81 7.99z" fill="#153351"/><g fill="#389fe5" opacity=".6"><path d="m358.24 207.34-4.33 2.31 2.17-5.63"/><circle cx="362.53" cy="200.13" r="9.17"/></g><path d="m367.62 201.07a4.62 4.62 0 0 0 0-2.3l-.84.09a4.36 4.36 0 0 0 -.49-1.21l.67-.53a4.65 4.65 0 0 0 -1.08-1.27l-.1-.08a4.55 4.55 0 0 0 -.43-.29l-.53.67-.13-.08-.15-.08a4.35 4.35 0 0 0 -.92-.36l.09-.85a4.63 4.63 0 0 0 -2.3 0l.09.85a4.35 4.35 0 0 0 -1.21.48l-.53-.67a4.61 4.61 0 0 0 -1.64 1.61l.66.53a4.35 4.35 0 0 0 -.51 1.2l-.84-.09a4.62 4.62 0 0 0 0 2.3l.84-.09a4.35 4.35 0 0 0 .49 1.21l-.66.53a4.63 4.63 0 0 0 1.61 1.64l.53-.66a4.37 4.37 0 0 0 1.2.52l-.09.84a4.62 4.62 0 0 0 2.3 0l-.09-.83a4.36 4.36 0 0 0 1.21-.49l.53.66a4.62 4.62 0 0 0 1.64-1.61l-.66-.53a4.36 4.36 0 0 0 .51-1.2zm-2.39-1.1a2.69 2.69 0 1 1 -2.78-2.78 2.7 2.7 0 0 1 2.78 2.81z" fill="#fff" opacity=".5"/><path d="m175.9 20.68a3.13 3.13 0 0 0 -.9 5.24 1.72 1.72 0 0 0 -1.41 2 4.37 4.37 0 0 0 1.35 2.33 4 4 0 0 0 2.64 1.54 3 3 0 0 0 2-.88 3.73 3.73 0 0 0 .94-1.31 6.07 6.07 0 0 0 .34-1.81l.55-6.47a1.56 1.56 0 0 0 -.25-1.25" fill="#153351"/><path d="m194.48 34.92c.14 2.8-.06 7.68.75 8.41s6.45.7 6.45.7-12.32 11.62-13.15 11-11.78-9.57-9.32-10 4.87-.36 4.8-1.64l-.21-3.82" fill="#ffbe9d"/><path d="m194.48 34.92c.14 2.8-.06 7.68.75 8.41s6.45.7 6.45.7-12.32 11.62-13.15 11-11.78-9.57-9.32-10 4.87-.36 4.8-1.64l-.21-3.82" fill="#ffbe9d" opacity=".5"/><path d="m212.48 77.16-5.53 18.2-1.95 2.09s-16.56 1.88-21.62 2.11h-.6c-4.16.09-4-2.08-4-2.08 0-1-.11-2.23-.2-3.64-.35-5.21-1-12.51-1.65-15.38-.8-3.42-1.16-4.68-1.86-7.92-1.55-7.21-1.48-8.58-3.13-17.48l10.79-8.67s1.12 3.32 5.64 3.37c6.05.08 7.93-4.16 7.93-4.16l14.8 9.8z" fill="#b0eeff"/><path d="m194.69 32.38a31.15 31.15 0 0 1 -1.27 4.15c-1 2.48-2.36 3.37-5 3.43l-5.53.13c-1.42 0-3.18.08-4.32-.91s-1.16-2.64-1.41-4q-.48-2.62-.78-5.26a77.7 77.7 0 0 1 -.49-10.41 7.54 7.54 0 0 1 .12-1.42 1 1 0 0 1 .24-.52 1.16 1.16 0 0 1 .66-.26 56.75 56.75 0 0 1 10.46-.67c2.47.07 5.09.36 7 1.87s2.9 4 3.74 6.33c.14.38.24.88-.09 1.11" fill="#ffbe9d"/><path d="m155.17 158.3a38.09 38.09 0 0 0 1 4.66c.46 1.19 4.36.09 4.61-.67s-1.23-6.41-1.23-6.41" fill="#ed9c80"/><path d="m162.18 163.27c.34 1.28.76 3.74.76 3.74l-3.94 1.69-.64-.6a7.22 7.22 0 0 1 -2.16 1.72 16.16 16.16 0 0 1 -3.77 1c-3.4.37-5.9-.27-6.1-.74-.84-2 3.67-2.5 4.56-2.73a6 6 0 0 0 4.27-4.28c.2-1-.06-1.21.52-1.18a1.37 1.37 0 0 1 1 .46 2.46 2.46 0 0 0 2.77.64 2.94 2.94 0 0 0 1.38-1.15 1.7 1.7 0 0 1 1.35 1.43z" fill="#1f3a71"/><path d="m183.42 99.56-11.05 13.37q-.66.14-1.32.24a61.28 61.28 0 0 1 -9.07.76 65.53 65.53 0 0 1 -9.48-.53c.86 2.47 3 5.63 3.77 9.1 2.65 11.46 3.57 26.86 4.25 36.38 0 0-1.28 2.44-5.36.58-6.09-15.05-16.73-45.56-16.63-52.17a5.84 5.84 0 0 1 2.37-4.29l.24-.21a24.23 24.23 0 0 1 7.14-3.67 2.67 2.67 0 0 0 .26-.09c7.22-2.53 17.71-4.23 29.33-5.11h.27.53c.09 1.41.16 2.66.2 3.63 0 0-.21 2.17 4 2.08z" fill="#285faf"/><path d="m183.42 99.56-11.05 13.37q-.66.14-1.32.24a53.64 53.64 0 0 1 -9.07.76 7.54 7.54 0 0 1 -.77-2c-.19-.92-.09-1.88-.25-2.8a6.5 6.5 0 0 0 -3.17-4.27 14.22 14.22 0 0 0 -5.18-1.68 68.28 68.28 0 0 0 -11.71-.18h-.06l.3-.21a31.5 31.5 0 0 1 7.14-3.67 2.67 2.67 0 0 0 .26-.09c9.6-3.55 22.12-4.63 29.33-5.11h.27.53c.09 1.41.16 2.66.2 3.63 0 0-.21 2.17 4 2.08z" fill="#5275a0" opacity=".35"/><path d="m165.22 166.32a38.1 38.1 0 0 0 .22 4.77c.25 1.25 4.27.85 4.66.14s-.1-6.53-.1-6.53" fill="#ed9c80"/><path d="m171.26 172.42c.11 1.32.1 3.81.1 3.81l-4.13 1-.53-.7a7.21 7.21 0 0 1 -2.43 1.32 16.15 16.15 0 0 1 -3.89.38c-3.41-.23-5.76-1.29-5.88-1.79-.49-2.08 4-1.82 5-1.9a6 6 0 0 0 4.95-3.47c.37-1 .15-1.2.72-1.07a1.37 1.37 0 0 1 .88.62 2.46 2.46 0 0 0 2.61 1.11 2.94 2.94 0 0 0 1.56-.89 1.7 1.7 0 0 1 1.04 1.58z" fill="#1f3a71"/><path d="m209.81 95.36c1.62 3.77 2.69 10.6 1.06 13.52-1.43 2.56-2.1 4.15-4.54 5-10.4 3.45-20.25 2-31.69.51 4.85 13.09-2.18 41.14-3.27 53-4.4 2-6.89-.12-6.89-.12.5-24.2-4.89-58-1.63-63.79 2-3.52 25.67-8.16 26.14-8.1" fill="#285faf"/><path d="m191.65 28.14c.2-.83 1.49-.89 2.08-.27a3.63 3.63 0 0 1 .68 2.41 5.67 5.67 0 0 1 -1 3c-.56.9-1.39 1.42-2.16.69a2.78 2.78 0 0 0 2.27 2.87 2.51 2.51 0 0 0 2.48-1.68c4.68 1.72 6.16-5.06 6.45-8.45a13.92 13.92 0 0 0 -2.11-8.12 5.75 5.75 0 0 0 -3.43-2.59 5.46 5.46 0 0 0 -2.91-4 14 14 0 0 0 -4.54-1.59c-1-.21-3.89.55-4.42 1.62-2-1.14-3.76 0-5.34.14s-3.34 1.65-2.66 3.09c-2.48-.75-5.17 2.07-4.43 4.55s4.33 3.45 6.32 1.78a4.77 4.77 0 0 0 4.35 2.55 9.26 9.26 0 0 0 5-1.71 3.73 3.73 0 0 0 -.18 3.24c.48 1.07.88 1.86 2.46 1.53 0 0-.14 2.46.42 2.23s.67-1.29.67-1.29z" fill="#153351"/><path d="m160 89.22c6.31-9.09 9.68-16.26 15.17-25.87l7.66-19-3.08.18a23.74 23.74 0 0 0 -6.38 1.21c-2.93 1.08-5.95 3.07-7.37 5.93-1.27 2.55-2 5.32-3.12 8-1.2 2.94-2.48 5.85-3.76 8.76-2.55 5.77-5.16 11.52-7.31 17.46" fill="#b0eeff"/><path d="m174.1 65.23-1.03-6.15-7.55 16.55 2.5.6z" fill="#b0d9ef"/><path d="m210.39 53.07a213.35 213.35 0 0 1 0 22.62c-.41 7.55-1.68 15-2.35 22.48 0 .43.64.51.74.1 1.75-7.14 2.2-14.79 2.58-22.1a188.11 188.11 0 0 0 -.22-23.1c0-.49-.8-.5-.77 0z"/><path d="m142.56 97.03h58.35v2.1h-58.35z" fill="#aabde2" transform="matrix(-1 0 0 -1 343.48 196.17)"/><path d="m132.15 99.13h46.71l-8.38-27.31a3.59 3.59 0 0 0 -3.43-2.54h-40.9a2.33 2.33 0 0 0 -2.23 3z" fill="#aabde2"/><path d="m131.57 99.13h46l-8.37-27.3a3.59 3.59 0 0 0 -3.43-2.54h-40.91a2.33 2.33 0 0 0 -2.23 3l8 26.16a1 1 0 0 0 .94.68z" fill="#e1e8f9"/><circle cx="148.3" cy="84.52" fill="#aabde2" r="4.71"/><path d="m204.08 58c-2.41 10.88-3.17 23.42-3.84 31.2-9 .67-11.55 4.13-19.82 7.81 0 0-6.53-1.08-7.21 1.38-.4 1.42 7.64 2.55 7.64 2.55 7.66 0 26.23-3.55 27.59-3.93s7-28.07 7.15-42c0-2 0-4.13-1.28-5.67a7.43 7.43 0 0 0 -2.49-1.84c-5.39-2.76-9.38-3.51-15.43-3.89" fill="#b0d9ef"/><path d="m181.56 98.72c-.91-1.14-2.56-1.31-4-1.27a29.41 29.41 0 0 0 -3.23.26c-.49.07-1 .18-1.1.71s2.37 0 3.64.37a64 64 0 0 1 -7.48.2 2.13 2.13 0 0 0 -.86.09.71.71 0 0 0 -.48.65.89.89 0 0 0 .34.57 5.06 5.06 0 0 0 2.57 1 19.81 19.81 0 0 0 11.36-1" fill="#ed9c80"/><path d="m204.08 58c-.2 11.63-1.86 22.19-1.63 33.82-9 .67-13.61 2.42-21.87 6.1a4.36 4.36 0 0 0 .27 3c.63.23 27-.88 29.16-2.88 2-1.8 5.42-29.12 5.58-43.05 0-2 0-4.13-1.28-5.67a7.43 7.43 0 0 0 -2.49-1.84c-5.39-2.76-9.38-3.51-15.43-3.89" fill="#b0eeff"/><path d="m177.52 27.58s-2.78 4.88-2.36 5.51 3.7 0 3.7 0" fill="#ffbe9d"/><g fill="#389fe5" opacity=".5"><path d="m162.81 13.41 3.55 1.9-1.78-4.62"/><circle cx="158.85" cy="7.51" r="7.51"/></g><path d="m155.69 6.79 2.28 2.84 4.04-4.24" fill="none" stroke="#fff" stroke-linecap="round" stroke-linejoin="round" stroke-width=".75"/></svg>