<svg height="600pt" preserveAspectRatio="xMidYMid meet" viewBox="0 0 1650 600" width="1650pt" xmlns="http://www.w3.org/2000/svg"><g fill="#2b3644" transform="matrix(.1 0 0 -.1 0 600)"><path d="m3205 4393c-35-9-87-54-101-89-12-28-14-188-14-941 0-542-4-932-10-967-15-93-54-162-139-247-130-129-272-184-476-183-104 0-130 3-193 26-106 38-177 83-259 165-121 122-183 274-183 453 0 116 17 189 72 300 122 249 432 401 683 334 106-28 172-8 223 66 15 23 22 48 22 82 0 138-108 194-375 192-170-1-253-20-400-93-118-58-208-124-289-212-452-488-303-1270 296-1554 147-69 243-90 423-89 129 1 164 5 250 28 311 82 557 297 640 559 42 131 46 248 43 1188l-3 875-25 37c-40 59-114 87-185 70zm123-71c83-78 35-202-77-202-111 0-158 126-75 200 48 42 109 42 152 2zm-599-827c28-14 61-68 61-100s-33-86-61-100c-37-20-99-19-127 1-28 19-52 65-52 99s24 80 52 99c28 20 90 21 127 1z"/><path d="m12430 4308c-85-44-85-42-88-354l-3-274h-157c-179 0-221-12-263-71-34-48-34-149-1-197 42-59 69-66 252-72l165-5 5-810c5-775 6-811 24-842 43-70 159-96 226-50 18 12 43 35 54 50 21 28 21 36 26 840l5 812 165 5c178 5 189 8 238 64 55 63 55 149-1 213-49 56-76 63-252 63h-155v269c0 262-1 269-23 302-26 39-97 79-142 79-17 0-51-10-75-22z"/><path d="m4738 3665c-411-67-734-363-839-768-27-104-36-294-19-408 62-431 385-773 810-861 139-29 358-22 485 16 117 35 252 102 340 169 94 71 115 104 115 177 0 96-59 160-152 167-59 5-72-1-192-84-372-256-892-84-1041 344-37 105-45 275-20 387 69 314 349 536 675 536 320 0 594-211 677-521 21-80 23-229 4-326-13-65-12-76 3-117 60-156 274-144 321 18 23 80 34 229 24 337-24 258-130 481-311 655-101 97-150 131-270 189-182 88-415 122-610 90zm814-1594c51-57 32-153-38-186-50-23-95-13-133 31-74 83-13 201 99 190 34-3 51-11 72-35z"/><path d="m7202 3654c-147-43-282-123-389-230l-63-62v72c0 57-5 83-25 122-35 70-82 99-160 99s-132-33-164-97c-21-44-21-48-21-919 0-558 4-887 10-910 15-55 86-116 144-124 89-14 181 46 205 132 7 25 11 265 11 687v649l88 86c90 89 181 146 279 176 66 20 198 19 264-2 74-24 148-98 180-178l24-60 5-685c4-506 8-690 17-706 26-46 91-92 138-99 88-14 180 46 204 132 7 25 11 264 11 685v646l39 49c45 57 142 133 221 173 85 43 155 60 246 60 181 0 289-82 328-250 13-55 16-167 16-705 0-603 2-642 19-681 25-54 79-95 135-101 94-11 157 21 197 99 19 38 20 56 17 791l-3 752-28 82c-54 161-152 262-303 314-61 21-87 24-224 24-148 0-159-1-242-31-161-58-314-164-402-280l-34-44-35 75c-66 137-187 234-338 270-102 24-267 19-367-11z"/><path d="m10533 3669c-81-10-180-36-254-65-129-50-291-158-328-217-62-101-14-227 99-257 57-15 110 2 186 60 129 99 258 141 428 141 193-1 337-62 477-201 136-136 197-269 207-456 14-281-134-537-383-659-106-53-183-70-310-69-131 1-206 19-320 77-110 56-244 190-298 297-73 146-93 299-62 461 17 91 9 133-36 184-36 41-86 59-146 52-123-14-169-121-167-387 2-150 25-262 83-402 94-225 313-445 538-538 150-63 210-74 408-74 210-1 284 14 443 89 285 135 468 347 558 650 38 127 45 355 16 495-109 528-609 888-1139 819zm-363-288c101-101-12-252-139-186-38 19-64 75-55 120 16 87 133 127 194 66z"/><path d="m13565 3626c-37-16-82-67-91-102-11-43 2-120 25-153 48-67 38-65 539-71l453-5-502-700c-276-385-508-716-516-735-32-74 7-173 83-210 40-20 58-20 686-18l645 3 36 28c49 37 67 75 67 140 0 64-26 110-80 141-34 20-54 21-488 26l-453 5 502 700c276 385 508 714 515 732 32 74-1 170-72 210l-39 23-640-1c-510 0-646-2-670-13zm125-51c40-21 60-53 60-98 0-50-25-93-66-112s-58-19-100 1c-41 20-64 59-64 109 0 47 14 71 53 95 38 24 78 25 117 5zm1183-1669c44-18 67-56 67-108 0-50-19-82-60-103-104-54-210 58-156 164 15 29 67 60 99 61 10 0 32-6 50-14z"/></g></svg>