<svg height="288pt" preserveAspectRatio="xMidYMid meet" viewBox="0 0 792 288" width="792pt" xmlns="http://www.w3.org/2000/svg"><g transform="matrix(.1 0 0 -.1 0 288)"><path d="m7015 2555c-49-14-157-47-240-73l-150-49-3 48-3 49h-225-224v-1119-1119l138 44c75 24 175 56 222 72l85 29 3 261 2 261 333 3 332 3 56 26c68 32 120 82 157 152l27 52 3 509c3 485 2 513-18 590-61 243-231 332-495 261zm28-379c14-13 28-39 32-57 3-19 4-212 3-429l-3-395-228-3-227-2 2 401 3 402 155 53c178 60 225 65 263 30z"/><path d="m2935 2541c-38-11-140-42-226-70s-164-51-173-51c-13 0-16 11-16 60v60l-222-2-223-3-3-787-2-788h225 225v564 564l168 56c92 31 182 56 200 56 24 0 42-9 63-29l29-29v-591-591h230 231l-4 633c-3 570-5 638-21 692-36 120-94 198-180 243-69 35-199 41-301 13z"/><path d="m620 2521c-93-29-169-94-209-180l-26-56-3-524c-2-448 0-531 13-577 30-103 123-191 233-219 52-14 125-16 479-13l418 3 56 26c72 34 134 96 168 168l26 56v530c0 487-1 534-18 582-23 66-89 140-159 178l-53 30-450 2c-247 1-461-2-475-6zm700-781v-450h-240-240v450 450h240 240z"/><path d="m3974 2513c-98-29-195-130-224-233-13-47-13-375 1-424 13-48 87-124 149-154 37-18 471-150 630-192 73-19 80-31 80-127v-83h-205-205v65 65h-231-232l5-132c4-110 9-142 28-186 26-59 73-105 139-136 44-20 64-21 439-24 412-3 503 3 572 38 55 28 98 85 121 161 18 59 20 89 17 260-3 219-9 241-83 314-67 67-161 107-465 199-207 63-290 93-303 108-14 17-17 36-15 92l3 71h205 205l3-62 3-63h214 215v108c0 59-5 125-11 147-24 86-105 159-208 189-78 23-770 22-847-1z"/><path d="m5362 1743 3-788 243-3 242-2v790 790h-245-245z"/></g></svg>