<svg viewBox="0 0 567.67 163.02" xmlns="http://www.w3.org/2000/svg"><g fill="#1088e7"><path d="m175 112.29v-41.29c0-4.92-2.05-7-7-7h-8.12v6.75h4.8a2.3 2.3 0 0 1 2.52 2.52v41.29c0 4.91 2.06 7 7 7h8.12v-6.76h-4.8a2.24 2.24 0 0 1 -2.52-2.51z"/><path d="m167 41.15h7.55v9.84h-7.55z"/><path d="m231.6 70.31v2.18h-.22s-3.66-9.84-19.1-9.84-24.94 11.78-24.94 29.05 10.18 29.51 25.62 29.51c8.92 0 14.64-3.66 18.07-9.95h.23s-.11 1.95-.11 4.12v5c0 12.81-8.92 18.07-20.13 18.07a35.35 35.35 0 0 1 -15.56-4l-3 6.52a42 42 0 0 0 18.76 4.57c14.18 0 27.67-7.09 27.67-25.39v-46.86a2.24 2.24 0 0 1 2.52-2.52h4.69v-6.77h-8c-4.67 0-6.5 2.2-6.5 6.31zm-17.49 43.92c-11.33 0-18.76-8.92-18.76-22.64s6.52-21.85 17.73-21.85c10.18 0 18.18 5.15 18.18 22s-8 22.49-17.15 22.49z"/><path d="m308.63 112.29v-27.29c0-14.18-5-22.3-19.33-22.3a24.42 24.42 0 0 0 -22.87 14.53h-.23a36.82 36.82 0 0 0 .23-4.12v-2.68c0-4.35-2.18-6.41-7-6.41h-8v6.75h4.81a2.29 2.29 0 0 1 2.51 2.52v48.26h7.78v-27.55a28.33 28.33 0 0 1 .92-7.78 21.86 21.86 0 0 1 20.94-16.22c11.09 0 12.46 8 12.46 17v27.57c0 4.91 2.06 7 7 7h8.15v-6.77h-4.81a2.23 2.23 0 0 1 -2.56-2.51z"/><path d="m372 112a2.23 2.23 0 0 1 -2.51 2.51h-28.26a2.24 2.24 0 0 1 -2.52-2.51v-27.39h30.19v-7.09h-30.19v-29.28h27.45a2.24 2.24 0 0 1 2.52 2.52v5.37h7.54v-8c0-4.92-2.05-7-7-7h-46v7.09h7.44v66.09h-7.44v7.18h13.35 1.06 34.77c4.92 0 7-2.06 7-7v-8h-7.4z"/><path d="m431.77 112.29v-27.56c0-12.36-4.35-22.08-22.53-22.08-5 0-18.76 1.72-18.76 9.72v5.49h7.44v-3.66c0-4.23 8.35-5 11.2-5 10.53 0 14.87 4.23 14.87 16.24v.69h-3.2c-10 0-35.23.68-35.23 19.78 0 11.44 9.95 17.05 19.56 17.05a20.35 20.35 0 0 0 19.1-12.47h.23s-.11 1.71-.11 4.23c0 4.69 1.94 6.86 6.86 6.86h7.89v-6.78h-4.8a2.24 2.24 0 0 1 -2.52-2.51zm-7.77-17.38c0 9.94-6.63 21.38-17.61 21.38-8.58 0-12.81-5.49-12.81-10.86 0-12.93 18.07-13.16 27.11-13.16h3.31z"/><path d="m454.25 77.75c0-5.61 4.8-8.35 12.81-8.35 3.77 0 9.95 1.6 9.95 5.83v2.77h7.32v-4.94c0-8.12-11.67-10.41-17.5-10.41-11.55 0-20.47 5.15-20.47 15.56 0 18.52 32.25 16.24 32.25 28.82 0 6.06-5.72 9.15-12.12 9.15-11.33 0-17.73-8.69-17.73-8.69l-4.46 5.37s7.09 10.07 22.07 10.07c11.44 0 20.13-6.52 20.13-16.13 0-19.1-32.25-16.13-32.25-29.05z"/><path d="m545.63 64c-5.26 0-7 1.15-8.92 6.29l-14.18 35.92a52 52 0 0 0 -1.95 6.17h-.23s-.91-3.31-2.06-6.17l-14.75-35.9c-2.06-5.14-3.66-6.29-8.81-6.29h-3.54v6.75h1.14c2.06 0 3.09.57 4 2.63l20.25 47.93-3.43 7.88c-2.18 5.27-5.61 9.38-10.64 9.38s-8.58-4.23-8.58-4.34l-3.66 5.75a16.77 16.77 0 0 0 12.47 5.6c7.66 0 13.49-4.69 16.47-12l24.79-60.2c.8-2.06 1.94-2.63 4-2.63h1.14v-6.77z"/><path d="m155.21 102.25v-1.51c0-26.54-39.69-22-39.69-40.6 0-6.87 6.07-12.93 16.47-12.93 7.44 0 14.07 3.55 14.07 8.35v3.78h7.55v-5.72c0-10.53-13.95-13.84-21.73-13.84-14.87 0-24.59 9.38-24.59 20.58 0 24.94 39.69 20.93 39.69 40.83v.68.64c0 6.86-6.06 12.92-16.47 12.92-7.43 0-15.77-3.54-15.77-8.35v-3.77h-7.55v5.69c0 10.52 15.66 13.84 23.43 13.84 14.86 0 24.57-9.4 24.59-20.59z"/><path d="m109.85 20h-35.21l-11.76 12.56c-11.26 11.98-32.74 31.56-44.15 43.44 0 0-5.28 50.87-10.49 59.18 0 0-4.3 7.15-.47 9.64h.07c3.84 2.49 8.63-4.35 8.63-4.35 5.46-8.14 49.79-33.66 49.79-33.66 6.23-15.18 15.38-42.81 21.74-57.9zm-48.56 82-40.22 26.43 19.93-30.72a7.06 7.06 0 0 0 7.84-3 7.16 7.16 0 1 0 -12-7.8 7 7 0 0 0 .44 8.48l-19.92 30.61 7.91-47.4c14.65-13.6 30.27-27.03 44.48-40.81l10.73 7c-6.81 18.55-12.75 38.31-19.19 57.21z"/></g></svg>