<svg enable-background="new 0 0 431 71.5" viewBox="0 0 431 71.5" xmlns="http://www.w3.org/2000/svg"><g fill="#68686b"><path d="m67 2c7 0 12.9 2.3 17.7 7 4.7 4.7 7.1 10.5 7.1 17.3s-2.4 12.6-7.1 17.3-10.5 7.1-17.3 7.1c-6.9 0-12.7-2.4-17.4-7.1s-7.1-10.4-7.1-17.1c0-4.5 1.1-8.6 3.2-12.4s5.1-6.8 8.8-9c3.7-2 7.8-3.1 12.1-3.1zm.2 4.5c-3.4 0-6.7.9-9.8 2.7s-5.5 4.2-7.2 7.2-2.6 6.4-2.6 10.1c0 5.5 1.9 10.2 5.7 14s8.4 5.7 13.8 5.7c3.6 0 6.9-.9 10-2.6s5.5-4.1 7.2-7.2c1.7-3 2.6-6.4 2.6-10.1s-.9-7-2.6-10-4.1-5.4-7.3-7.2c-3-1.7-6.3-2.6-9.8-2.6z"/><path d="m104.4 51.1v-49.3h1.1l32.8 37.8v-37.8h4.9v49.3h-1.2l-32.6-37.3v37.3z"/><path d="m156.5 1.8h4.6v49.2h-4.6z"/><path d="m323.3 1.8h-9.5l-13.3 35.6 26.8.1 5.1 13.4h9.7zm-11.2 29.8 6.6-16.8 6.5 16.8z"/><path d="m352.2 1.8h9.3v40.1h18.6v8.9h-27.9z"/><path d="m390 1.8h9.3v40.1h18.6v8.9h-27.9z"/></g><path d="m315.1 71.5s-22.8-8.2-27.8-21.9c-5.6-15.3 15.2-18.8 36.6-18.2 11.5.3 25.6 2.1 25.6 2.1s-33.2 4.2-45.2 13.9c-11.8 9.5 10.8 24.1 10.8 24.1z" fill="#ff6c0e"/><g fill="#68686b"><path d="m216.1 39.2c-4.4 4.9-9.7 7.4-16.1 7.4-5.9 0-10.9-1.9-14.8-5.7s-5.9-8.6-5.9-14.2c0-3.8.9-7.2 2.6-10.2s4.2-5.4 7.4-7.2 6.6-2.7 10.3-2.7c3.4 0 6.5.7 9.4 2 2.7 1.3 5.1 3.2 7 5.7v-6.4c-1.4-1.2-3-2.6-4.7-3.4-3.5-1.7-7.4-2.6-11.8-2.6-7.2 0-13.2 2.3-18 7s-7.2 10.4-7.2 17.2c0 6.5 2 12 5.9 16.6 4.7 5.4 11.2 8.2 19.3 8.2 4.3 0 8.2-.8 11.7-2.4 1.7-.8 3.3-2.2 4.8-3.3v-6z"/><path d="m17.7 24.1c-11.1-2.3-13.2-5.2-13.2-9.7v-.1c0-4.8 4.6-8.3 10.9-8.3 5.3 0 9.5 1.6 13.6 5.2l.4.3.1-.1v-5.5c-4.3-2.9-8.5-4.1-14-4.1-8.8 0-15.5 5.5-15.5 12.8v.1c0 7.4 4.7 11.3 16.1 13.7 10.8 2.2 12.8 5 12.8 9.5v.1c0 5.2-4.7 8.8-11.3 8.8-6.5 0-11.1-1.9-16.4-6.8l-.4-.3-.1.1v5.6c5.1 3.8 10.3 5.6 16.7 5.6 9.4 0 16-5.4 16-13.2v-.1c0-7.3-4.7-11.3-15.7-13.6z"/><path d="m286.5 1.8-11.2 33.3-.2.7-.3-.7-11-33.4h-8.9l-11.1 33.4-.2.7-.3-.7-11.2-33.3h-11.1l17.7 49.2h9.2l11.1-32.1.2-.7.2.7 11.1 32.1h9.1l17.7-49.2z"/><path d="m425.4 11.1c-3 0-5.5-2.5-5.5-5.5s2.5-5.5 5.5-5.5c3.1 0 5.6 2.5 5.6 5.5s-2.5 5.5-5.6 5.5zm0-10.4c-2.7 0-4.8 2.2-4.8 4.8 0 2.7 2.2 4.8 4.8 4.8 2.7 0 4.8-2.2 4.8-4.8.1-2.6-2.1-4.8-4.8-4.8zm1.4 8.1-1.5-2.5h-.6v2.5h-1.7v-6.6h2.9c1.6 0 2.3 1 2.3 2 0 .8-.4 1.5-1.2 1.8l1.9 2.7h-2.1zm-2.2-5.5v1.8h.8c.7 0 1-.3 1-.9s-.3-.9-1-.9z"/></g></svg>