<svg height="645.33331" viewBox="0 0 1860 645.33331" width="1860" xmlns="http://www.w3.org/2000/svg" xmlns:xlink="http://www.w3.org/1999/xlink"><clipPath id="a"><path d="m2420 4840c1336.53 0 2420-1083.47 2420-2420s-1083.47-2420-2420-2420-2420 1083.47-2420 2420 1083.47 2420 2420 2420z"/></clipPath><clipPath id="b"><path d="m2420 4792c1310.02 0 2372-1061.98 2372-2372s-1061.98-2372-2372-2372-2372 1061.98-2372 2372 1061.98 2372 2372 2372z"/></clipPath><clipPath id="c"><path d="m2420 4602c1205.08 0 2182-976.91 2182-2182 0-1205.08-976.92-2182-2182-2182-1205.09 0-2182 976.92-2182 2182 0 1205.09 976.91 2182 2182 2182z"/></clipPath><clipPath id="d"><path d="m996.004 3103v-1024c.992-232 189.996-419 421.996-418h1495c42 0 76 34 77 76v1025c-1 232-190 419-422 418h-1495c-42-1-76.004-34-76.996-77zm2087.996-400 617 451c54 44 95 34 95-47v-1375c0-91-51-81-95-47l-617 451z"/></clipPath><g transform="matrix(.13333333 0 0 -.13333333 0 645.33333)"><path d="m8657 2018c-223-222-583-221-805 1-221 222-221 582 0 804 222 223 582 223 805 1l1-1c223-222 222-583-1-805zm-401 1351h-1c-524 0-948-425-948-948 0-524 424-949 948-949s949 424 949 948-424 949-948 949" fill="#4a8cff"/><path d="m7117 1846-95 5h-854l1139 1139-5 95c-4 153-127 276-280 280l-95 5h-1423l5-95c7-151 128-273 280-280l95-5h854l-1139-1139 5-95c5-152 128-275 280-280l95-5h1423l-5 95c-13 157-124 271-280 280" fill="#4a8cff"/><path d="m8657 2825c-223 222-583 221-805-1-221-222-221-582 0-804 222-223 582-223 805-1s223 582 1 805c0 0 0 0-1 1" fill="#fff"/><path d="m13190 3369c-218 0-425-94-569-257-252 286-678 341-994 127-73 83-239 130-334 130v-1898l95 5c158 10 274 122 280 280l5 95v664l5 95c0 66 17 131 47 190 104 181 336 243 518 138 57-33 105-81 138-138h-1c31-59 47-124 47-190l5-95v-664l5-95c6-152 127-274 279-280l95-5v1044l5 95c0 67 16 132 47 191 105 181 338 243 519 137 57-33 105-81 138-138 30-59 46-124 46-190l5-95v-664l5-95c5-152 127-274 279-280l95-5v1139c-1 419-341 759-760 759" fill="#4a8cff"/><path d="m10650 2018c-223-222-583-221-805 1-221 222-221 582 0 804 222 223 582 223 805 1l1-1c223-222 222-583-1-805zm269 1073c-178 178-419 278-671 278s-493-100-671-278c-370-371-370-972 1-1342s972-370 1342 1c371 370 370 971-1 1341z" fill="#4a8cff"/><path d="m10650 2825c-223 222-583 221-805-1-221-222-221-582 0-804 222-223 582-223 805-1s223 582 1 805c0 0 0 0-1 1" fill="#fff"/><g clip-path="url(#a)"><path d="m-118.996 4959h5076.996v-5077h-5076.996z" fill="#e5e5e4"/></g><g clip-path="url(#b)"><path d="m-71 4911h4982v-4982h-4982z" fill="#fff"/></g><g clip-path="url(#c)"><path d="m119 4721h4602v-4602h-4602z" fill="#4a8cff"/></g><g clip-path="url(#d)"><path d="m878 3298h3037v-1755h-3037z" fill="#fff"/></g></g></svg>