<svg height="24" viewBox="0 0 24 24" width="24" xmlns="http://www.w3.org/2000/svg"><g fill="none" fill-rule="evenodd"><path d="m0 0h24v24h-24z"/><g fill="#335eea"><path d="m12 20.022-3.527 1.707-1.604-3.575-3.799-.959 1.069-3.77-2.293-3.176 3.241-2.2.285-3.908 3.898.398 2.73-2.81 2.73 2.81 3.898-.398.285 3.907 3.241 2.201-2.293 3.177 1.069 3.769-3.8.96-1.603 3.574z" opacity=".3"/><path d="m14.09 8.603-5.73 6.097 1.35 1.35 5.728-6.099z"/><path d="m10.854 9.175a1.718 1.718 0 1 1 -3.435.002 1.718 1.718 0 0 1 3.435-.002m4.01 7.447a1.719 1.719 0 1 1 0-3.437 1.719 1.719 0 0 1 0 3.437z" opacity=".3"/></g></g></svg>