<svg height="24" viewBox="0 0 24 24" width="24" xmlns="http://www.w3.org/2000/svg"><g fill="none" fill-rule="evenodd"><path d="m0 0h24v24h-24z"/><g fill="#335eea"><path d="m3.5 21h17a1.5 1.5 0 0 0 1.5-1.5v-11a1.5 1.5 0 0 0 -1.5-1.5h-10.5l-2.56-2.56a1.5 1.5 0 0 0 -1.062-.44h-2.878a1.5 1.5 0 0 0 -1.5 1.5v14a1.5 1.5 0 0 0 1.5 1.5z" opacity=".3"/><circle cx="13.5" cy="16.5" opacity=".3" r="2.5"/><circle cx="10.5" cy="16.5" opacity=".3" r="2.5"/><circle cx="9.5" cy="13.5" opacity=".3" r="2.5"/><circle cx="14.5" cy="13.5" opacity=".3" r="2.5"/><circle cx="12" cy="11.5" opacity=".3" r="2.5"/></g></g></svg>