<svg fill="none" viewBox="0 0 620 390" xmlns="http://www.w3.org/2000/svg" xmlns:xlink="http://www.w3.org/1999/xlink"><linearGradient id="a"><stop offset="0" stop-color="#fff" stop-opacity=".01"/><stop offset=".853"/><stop offset="1" stop-opacity=".01"/></linearGradient><linearGradient id="b" gradientUnits="userSpaceOnUse" x1="492.4" x2="28" xlink:href="#a" y1="360.921" y2="360.921"/><linearGradient id="c" gradientUnits="userSpaceOnUse" x1="11" x2="11" y1="352" y2="360"><stop offset="0" stop-color="#d6d9dc"/><stop offset="1" stop-color="#b0b4b7"/></linearGradient><linearGradient id="d" gradientUnits="userSpaceOnUse" x1="11" x2="11" y1="352" y2="360"><stop offset="0" stop-color="#f1f3f5"/><stop offset="1" stop-color="#a9adb1"/></linearGradient><linearGradient id="e" gradientUnits="userSpaceOnUse" x1="257" x2="364" y1="352" y2="352"><stop offset="0" stop-color="#afb2b6"/><stop offset=".022" stop-color="#c9cbce"/><stop offset=".066" stop-color="#d8dbde"/><stop offset=".129" stop-color="#edeeef"/><stop offset=".332" stop-color="#f0f1f2"/><stop offset=".514" stop-color="#eeeff0"/><stop offset=".73" stop-color="#eeeff0"/><stop offset=".935" stop-color="#d8dbde"/><stop offset=".977" stop-color="#c9cbce"/><stop offset="1" stop-color="#afb2b6"/></linearGradient><linearGradient id="f" gradientUnits="userSpaceOnUse" x1="10" x2="610" y1="351" y2="351"><stop offset="0" stop-color="#c9cccf"/><stop offset=".029" stop-color="#d9dee3"/><stop offset=".091" stop-color="#f1f4f7"/><stop offset=".196" stop-color="#e1e5e9"/><stop offset=".277" stop-color="#d9dbde"/><stop offset=".405" stop-color="#d6d8db"/><stop offset=".595" stop-color="#d6d8db"/><stop offset=".666" stop-color="#d9dbde"/><stop offset=".741" stop-color="#e1e5e9"/><stop offset=".875" stop-color="#f1f4f7"/><stop offset=".973" stop-color="#d9dee3"/><stop offset="1" stop-color="#c9cccf"/></linearGradient><linearGradient id="g" gradientUnits="userSpaceOnUse" x1="464.205" x2="0" y1=".034" y2=".034"><stop offset="0" stop-opacity=".01"/><stop offset=".142"/><stop offset=".491"/><stop offset=".853"/><stop offset="1" stop-opacity=".01"/></linearGradient><linearGradient id="h" gradientUnits="userSpaceOnUse" x1="-27.239" x2="11.531" y1="51.135" y2="381.904"><stop offset="0" stop-color="#f4f7fa"/><stop offset="1" stop-color="#eceef1"/></linearGradient><linearGradient id="i" gradientUnits="userSpaceOnUse" x1="464.4" x2="0" xlink:href="#a" y1=".014" y2=".014"/><filter id="j" color-interpolation-filters="sRGB" filterUnits="userSpaceOnUse" height="14.791" width="488.791" x="21.205" y="354.112"><feFlood flood-opacity="0" result="BackgroundImageFix"/><feBlend in="SourceGraphic" in2="BackgroundImageFix" result="shape"/><feGaussianBlur result="effect1_foregroundBlur" stdDeviation="3.398"/></filter><filter id="k" color-interpolation-filters="sRGB" filterUnits="userSpaceOnUse" height="364" width="539" x="41" y="1"><feFlood flood-opacity="0" result="BackgroundImageFix"/><feColorMatrix in="SourceAlpha" values="0 0 0 0 0 0 0 0 0 0 0 0 0 0 0 0 0 0 127 0"/><feOffset dy="1"/><feColorMatrix values="0 0 0 0 0.130051 0 0 0 0 0.186328 0 0 0 0 0.270742 0 0 0 0.2 0"/><feBlend in2="BackgroundImageFix" result="effect1_dropShadow"/><feColorMatrix in="SourceAlpha" values="0 0 0 0 0 0 0 0 0 0 0 0 0 0 0 0 0 0 127 0"/><feOffset dy="-4"/><feGaussianBlur stdDeviation="8.5"/><feColorMatrix values="0 0 0 0 0 0 0 0 0 0 0 0 0 0 0 0 0 0 0.03 0"/><feBlend in2="effect1_dropShadow" result="effect2_dropShadow"/><feBlend in="SourceGraphic" in2="effect2_dropShadow" result="shape"/></filter><filter id="l" color-interpolation-filters="sRGB" filterUnits="userSpaceOnUse" height="68.031" width="533.019" x="43.49" y="326.391"><feFlood flood-opacity="0" result="BackgroundImageFix"/><feBlend in="SourceGraphic" in2="BackgroundImageFix" result="shape"/><feGaussianBlur result="effect1_foregroundBlur" stdDeviation="8.155"/></filter><filter id="m" color-interpolation-filters="sRGB" filterUnits="userSpaceOnUse" height="14.791" width="488.791" x="105.205" y="354.112"><feFlood flood-opacity="0" result="BackgroundImageFix"/><feBlend in="SourceGraphic" in2="BackgroundImageFix" result="shape"/><feGaussianBlur result="effect1_foregroundBlur" stdDeviation="3.398"/></filter><filter id="n" color-interpolation-filters="sRGB" filterUnits="userSpaceOnUse" height="16.591" width="488.591" x="66.205" y="350.205"><feFlood flood-opacity="0" result="BackgroundImageFix"/><feBlend in="SourceGraphic" in2="BackgroundImageFix" result="shape"/><feGaussianBlur result="effect1_foregroundBlur" stdDeviation="3.398"/></filter><mask id="o" height="390" maskUnits="userSpaceOnUse" width="620" x="0" y="0"><path clip-rule="evenodd" d="m620 0h-620v390h620zm-81 45h-456v285.003h456v-285.004z" fill="#fff" fill-rule="evenodd"/></mask><g mask="url(#o)"><g filter="url(#n)" opacity=".8"><path d="m0 0h475v3h-475z" fill="url(#g)" transform="matrix(1 0 0 -1 73 360)"/></g><g filter="url(#j)"><path d="m28 360.907h475.2v1.2h-475.2z" fill="url(#b)"/></g><g filter="url(#m)"><path d="m0 0h475.2v1.2h-475.2z" fill="url(#i)" transform="matrix(-1 0 0 1 587.2 360.907)"/></g><g filter="url(#l)" opacity=".05"><rect fill="#000" height="35.411" rx="17.706" width="500.4" x="59.8" y="342.701"/></g><g filter="url(#k)"><rect fill="url(#h)" height="330" rx="15.6" width="505" x="58" y="22"/></g><path d="m10 349h600v4h-600z" fill="url(#f)"/><path d="m257 349h107a3 3 0 0 1 -3 3h-101a3 3 0 0 1 -3-3z" fill="url(#e)"/><path d="m257 349h107a3 3 0 0 1 -3 3h-101a3 3 0 0 1 -3-3z" fill="#fff"/><path clip-rule="evenodd" d="m106 360c-81.576 0-95-7-95-7l300-1 298 1s-13.386 7-95 7z" fill="url(#d)" fill-rule="evenodd"/><path d="m11 353-.001-.3-.138.566zm300-1 .001-.3h-.002zm298 1 .139.266-.138-.566zm-598 0-.138.266.001.001.003.002.01.005.036.017a10.712 10.712 0 0 0 .721.292c.537.195 1.39.471 2.664.801 2.548.66 6.788 1.537 13.574 2.414 13.569 1.752 37.334 3.502 78.129 3.502v-.6c-40.78 0-64.517-1.75-78.052-3.498-6.768-.873-10.983-1.746-13.5-2.399-1.26-.326-2.093-.596-2.61-.784a9.707 9.707 0 0 1 -.668-.27l-.026-.013-.005-.002h-.001zm299.999-1.3-300 1 .002.6 300-1zm0 .6 298 1 .002-.6-298-1zm298.001.7-.139-.266-.005.003a9.737 9.737 0 0 1 -.693.282c-.515.188-1.348.458-2.605.784-2.515.653-6.726 1.526-13.491 2.399-13.531 1.748-37.267 3.498-78.067 3.498v.6c40.814 0 64.578-1.75 78.144-3.502 6.783-.877 11.019-1.754 13.565-2.414 1.272-.33 2.123-.606 2.659-.801a10.6 10.6 0 0 0 .72-.292l.036-.017.01-.006.003-.001.001-.001zm-95 6.7h-203v.6h203zm-408 .6h205v-.6h-205z" fill="url(#c)"/></g></svg>