<svg enable-background="new 0 0 512.132 512.132" viewBox="0 0 512.132 512.132" xmlns="http://www.w3.org/2000/svg"><g transform="translate(1 1)"><path d="m511 475.292-85.333-469.334c-.853-4.267-5.973-7.68-10.24-6.827l-126.538 23.374c-.853-3.856-3.955-6.307-8.289-6.307h-136.533-136.534c-5.12 0-8.533 3.414-8.533 8.534v477.867c0 5.12 3.413 8.533 8.533 8.533h136.533 136.534c5.12 0 8.533-3.413 8.533-8.533v-386.78l68.267 388.486c0 1.707 1.707 3.413 3.413 5.12 1.707.853 3.413 1.707 5.12 1.707h1.707l136.533-25.6c4.267-.854 7.68-5.974 6.827-10.24zm-494.933-442.027h119.467v460.8h-119.467zm256 460.8h-119.467v-460.8h119.467zm100.693-1.707-80.213-453.973 117.76-20.48 81.92 452.267z"/><path d="m109.933 75.932h-68.266c-5.12 0-8.533 3.413-8.533 8.533v136.533c0 5.12 3.413 8.533 8.533 8.533h68.267c5.12 0 8.533-3.413 8.533-8.533v-136.533c0-5.12-3.414-8.533-8.534-8.533zm-59.733 51.2h51.2v17.067h-51.2zm0 34.133h51.2v17.067h-51.2zm51.2-68.267v17.067h-51.2v-17.067zm-51.2 119.467v-17.067h51.2v17.067z"/><path d="m75.8 391.665c-23.893 0-42.667 18.773-42.667 42.667s18.773 42.667 42.667 42.667c23.893 0 42.667-18.773 42.667-42.667s-18.774-42.667-42.667-42.667zm0 68.267c-14.507 0-25.6-11.093-25.6-25.6s11.093-25.6 25.6-25.6 25.6 11.093 25.6 25.6c0 14.506-11.093 25.6-25.6 25.6z"/><path d="m178.2 229.532h68.267c5.12 0 8.533-3.413 8.533-8.533v-136.534c0-5.12-3.413-8.533-8.533-8.533h-68.267c-5.12 0-8.533 3.413-8.533 8.533v136.533c0 5.12 3.413 8.534 8.533 8.534zm59.733-51.2h-51.2v-17.067h51.2zm0-34.134h-51.2v-17.067h51.2zm-51.2 68.267v-17.067h51.2v17.067zm51.2-119.467v17.067h-51.2v-17.067z"/><path d="m212.333 476.998c23.893 0 42.667-18.773 42.667-42.667s-18.773-42.667-42.667-42.667c-23.893 0-42.667 18.773-42.667 42.667s18.774 42.667 42.667 42.667zm0-68.266c14.507 0 25.6 11.093 25.6 25.6s-11.093 25.6-25.6 25.6-25.6-11.093-25.6-25.6 11.094-25.6 25.6-25.6z"/><path d="m408.68 106.237c.075-.723.06-1.446-.08-2.145-.115-.576-.314-1.134-.572-1.671l-5.402-31.609c-.853-4.267-5.973-7.68-10.24-6.827l-67.413 11.947c-1.707 0-3.413 2.56-5.12 4.267s-1.707 3.413-1.707 5.973l11.831 66.336c.014.363.045.723.116 1.077.065.326.15.638.244.944l5.618 31.498c.02.282.056.562.111.838.04.201.091.394.143.587l5.831 32.693c.853 4.267 4.267 6.827 8.533 6.827 0 0 .853 0 .853.853l67.413-11.947c4.267-.853 7.68-5.973 6.827-10.24l-5.256-30.755c.288-1.125.355-2.279.136-3.378-.192-.961-.609-1.874-1.176-2.709l-4.777-27.952c.143-.88.15-1.767-.021-2.619-.144-.72-.418-1.411-.78-2.066zm-12.615 26.627-50.363 8.925-2.956-16.996 50.384-8.929zm-47.508 25.341 50.45-8.302 2.811 16.279-50.323 8.918zm38.71-76.3 2.903 16.812-50.405 8.932-2.845-16.357zm-29.867 127.147-2.923-16.808 50.302-8.914 2.968 17.189z"/><path d="m414.573 381.425c-23.893 4.267-39.253 26.453-34.987 49.493 3.413 20.48 21.333 34.987 41.813 34.987 1.707 0 4.267-.853 8.533-.853 11.093-2.56 20.48-8.533 27.307-17.92 5.973-9.387 8.533-20.48 6.827-31.573-2.56-11.093-8.533-20.48-17.92-27.307-9.386-5.974-20.479-8.534-31.573-6.827zm22.187 20.48c5.12 3.413 9.387 9.387 10.24 16.213.853 5.973 0 12.8-4.267 18.773-3.413 5.12-9.387 9.387-16.213 10.24-14.507 2.56-27.307-6.827-29.867-20.48-.853-5.973 0-12.8 4.267-18.773 3.413-5.12 9.387-9.387 16.213-10.24h4.267c5.12 0 10.24.854 15.36 4.267z"/></g></svg>