<svg enable-background="new 0 0 512 512" viewBox="0 0 512 512" xmlns="http://www.w3.org/2000/svg"><path d="m387.799 235.367c-3.131-3.131-8.208-3.131-11.338 0l-141.46 141.461c-.208.207-.547.207-.756 0l-83.74-83.74c-3.131-3.131-8.207-3.131-11.337 0-3.131 3.131-3.131 8.207 0 11.337l83.74 83.74c3.129 3.13 7.29 4.853 11.715 4.853s8.586-1.723 11.715-4.853l141.461-141.461c3.131-3.131 3.131-8.207-0-11.337z"/><path d="m486.881 64.134h-43.29v-17.637c0-4.427-3.589-8.017-8.017-8.017-4.427 0-8.017 3.589-8.017 8.017v17.637h-343.114v-17.637c0-4.427-3.589-8.017-8.017-8.017s-8.017 3.589-8.017 8.017v17.637h-43.29c-13.851 0-25.119 11.268-25.119 25.119v51.307c0 11.048 7.172 20.446 17.102 23.8v284.041c0 13.851 11.268 25.119 25.119 25.119h427.557c13.851 0 25.119-11.268 25.119-25.119v-284.042c9.93-3.354 17.102-12.752 17.102-23.8v-51.306c.001-13.851-11.267-25.119-25.118-25.119zm-51.307 41.686c5.01 0 9.086 4.076 9.086 9.086s-4.076 9.086-9.086 9.086-9.086-4.076-9.086-9.086 4.076-9.086 9.086-9.086zm-359.148 0c5.01 0 9.086 4.076 9.086 9.086s-4.076 9.086-9.086 9.086-9.086-4.076-9.086-9.086 4.076-9.086 9.086-9.086zm402.438 342.581c0 5.01-4.076 9.086-9.086 9.086h-427.557c-5.01 0-9.086-4.076-9.086-9.086v-282.722h445.729zm17.103-307.841c0 5.01-4.076 9.086-9.086 9.086h-461.762c-5.01 0-9.086-4.076-9.086-9.086v-51.307c0-5.01 4.076-9.086 9.086-9.086h43.29v10.939c-9.93 3.354-17.102 12.752-17.102 23.8 0 13.851 11.268 25.119 25.119 25.119s25.119-11.268 25.119-25.119c0-11.048-7.172-20.446-17.102-23.8v-10.939h343.115v10.939c-9.93 3.354-17.102 12.752-17.102 23.8 0 13.851 11.268 25.119 25.119 25.119s25.119-11.268 25.119-25.119c0-11.048-7.172-20.446-17.102-23.8v-10.939h43.29c5.01 0 9.086 4.076 9.086 9.086v51.307z"/></svg>