<svg enable-background="new 0 0 512 512" viewBox="0 0 512 512" xmlns="http://www.w3.org/2000/svg"><g transform="translate(1 1)"><path d="m41.667 229.4c-5.12 0-8.533 3.413-8.533 8.533v25.6c0 5.12 3.413 8.533 8.533 8.533s8.533-3.413 8.533-8.533v-25.6c0-5.12-3.413-8.533-8.533-8.533z"/><path d="m172.227 435.907-23.04-11.093c-4.267-1.707-9.387 0-11.093 4.267s0 9.387 4.267 11.093l23.04 11.093c.853.853 2.56.853 3.413.853 2.56 0 5.973-1.707 7.68-5.12 1.706-4.267-.001-9.387-4.267-11.093z"/><path d="m109.933 406.893-27.023-12.76c.925-3.539 1.423-7.267 1.423-11.133 0-8.1-2.163-15.609-5.947-22l15.333-10.427c4.267-2.56 5.12-7.68 2.56-11.947s-7.68-5.12-11.947-2.56l-17.782 12.092c-4.784-3.391-10.319-5.816-16.351-7v-43.492c0-5.12-3.413-8.533-8.533-8.533s-8.533 3.413-8.533 8.533v43.492c-19.681 3.861-34.133 20.879-34.133 41.842 0 23.893 18.773 42.667 42.667 42.667 13.928 0 26.108-6.387 33.852-16.441l27.588 13.028c.853.853 2.56.853 3.413.853 3.413 0 6.827-1.707 7.68-5.12 1.707-4.267 0-9.387-4.267-11.094zm-68.266 1.707c-14.507 0-25.6-11.093-25.6-25.6s11.093-25.6 25.6-25.6 25.6 11.093 25.6 25.6-11.094 25.6-25.6 25.6z"/><path d="m468.333 263.533c-5.12 0-8.533 3.413-8.533 8.533v25.6c0 5.12 3.413 8.533 8.533 8.533s8.533-3.413 8.533-8.533v-25.6c.001-5.119-3.413-8.533-8.533-8.533z"/><path d="m476.867 212.333c0-5.12-3.413-8.533-8.533-8.533s-8.533 3.413-8.533 8.533v25.6c0 5.12 3.413 8.533 8.533 8.533s8.533-3.413 8.533-8.533z"/><path d="m33.133 160.308v26.425c0 5.12 3.413 8.533 8.533 8.533s8.533-3.413 8.533-8.533v-26.425c10.262-2.013 19.094-7.608 25.205-15.47l17.462 11.176c.853 1.707 2.56 1.707 4.267 1.707 3.413 0 5.973-1.707 7.68-4.267 2.56-4.267 1.707-9.387-2.56-11.947l-19.233-12.31c.858-3.419 1.313-7.012 1.313-10.731 0-6.61-1.443-12.826-4.027-18.363l30.481-12.357c4.267-1.707 5.973-6.827 4.267-11.093s-6.827-5.973-11.093-4.267l-31.573 12.8c-.824.33-1.551.789-2.178 1.343-7.514-6.697-17.477-10.729-28.543-10.729-23.894 0-42.667 18.773-42.667 42.667 0 20.963 14.452 37.981 34.133 41.841zm8.534-67.441c14.507 0 25.6 11.093 25.6 25.6s-11.093 25.6-25.6 25.6-25.6-11.093-25.6-25.6 11.093-25.6 25.6-25.6z"/><path d="m476.867 341.159v-17.892c0-5.12-3.413-8.533-8.533-8.533s-8.533 3.413-8.533 8.533v17.892c-9.713 1.905-18.146 7.017-24.203 14.225l-7.37-7.37c-3.413-3.413-8.533-3.413-11.947 0-3.413 3.413-3.413 8.533 0 11.947l11.049 11.049c-1.076 3.793-1.662 7.811-1.662 11.991 0 3.865.498 7.593 1.423 11.133l-27.023 12.761c-4.267 1.707-5.973 6.827-4.267 11.093 1.707 3.413 4.267 5.12 7.68 5.12.853 0 2.56 0 3.413-.853l27.588-13.028c7.744 10.054 19.924 16.441 33.852 16.441 23.893-.001 42.666-18.775 42.666-42.668 0-20.963-14.452-37.981-34.133-41.841zm-8.534 67.441c-14.507 0-25.6-11.093-25.6-25.6s11.093-25.6 25.6-25.6 25.6 11.093 25.6 25.6-11.093 25.6-25.6 25.6z"/><path d="m162.84 348.867h189.44c15.114 0 28.774-4.932 39.561-13.346l6.519 6.519c1.707 1.707 3.413 2.56 5.973 2.56 1.707 0 4.267-.853 5.973-2.56 3.413-3.413 3.413-8.533 0-11.947l-6.683-6.683c8.286-11.217 13.013-25.409 12.656-41.104 0-31.573-18.773-58.027-46.08-66.56-.936-10.666-3.595-20.879-7.698-30.327l23.912-13.193c4.267-2.56 5.973-7.68 3.413-11.947s-7.68-5.973-11.947-3.413l-23.799 13.131c-16.929-25.296-45.323-42.144-77.747-42.144-29.013 0-58.027 14.507-75.947 37.547-1.735-.651-3.582-1.189-5.482-1.633-5.203-1.703-10.809-2.633-16.705-2.633-11.359 0-21.532 3.281-29.717 8.951l-17.216-10.658c-4.267-2.56-9.387-1.707-11.947 2.56s-1.707 9.387 2.56 11.947l14.178 8.777c-5.232 7.853-8.205 17.408-8.205 27.916 0 .105.01.204.013.307-.002.183-.013.363-.013.546-21.333 12.8-34.987 36.693-34.987 63.147 0 17.891 6.025 34.316 16.011 47.144-.748 2.349-.399 5.046 1.055 7.47 1.707 1.707 4.267 3.413 6.827 3.413.82 0 1.64-.002 2.46-.097 11.998 10.194 27.179 16.31 43.622 16.31zm-23.04-124.587 5.12-2.56v-5.12c0-.853 0-.853 0-2.56v-.853-2.56c0-18.773 13.653-32.427 33.28-32.427 18.773 0 34.133 15.36 34.133 34.133 0 5.12 3.413 8.533 8.533 8.533s8.533-3.413 8.533-8.533c0-15.309-6.182-28.714-16.28-37.965 14.999-19.405 39.47-31.155 63.213-31.155 42.667 0 76.8 34.987 77.653 77.653v6.827l6.827 1.707c23.04 4.267 39.253 26.453 39.253 52.053 0 13.424-4.391 25.198-11.807 33.981-.966.426-1.882 1.042-2.7 1.859-.873.873-1.519 1.858-1.945 2.897-8.263 7.325-19.111 11.61-31.335 11.61h-189.438c-29.013 0-52.907-25.6-52.907-57.173 0-22.187 11.094-41.814 29.867-50.347z"/><path d="m307.053 450.413-11.202 5.377c-5.248-17.603-21.34-30.124-40.851-30.124s-35.603 12.521-40.851 30.124l-11.202-5.377c-4.267-1.707-9.387 0-11.093 4.267s0 9.387 4.267 11.093l16.55 7.944c2.578 21.268 20.264 37.283 42.329 37.283s39.751-16.015 42.33-37.283l16.55-7.944c4.267-1.707 5.973-6.827 4.267-11.093s-6.827-5.973-11.094-4.267zm-52.053 43.52c-14.507 0-25.6-11.093-25.6-25.6s11.093-25.6 25.6-25.6 25.6 11.093 25.6 25.6-11.093 25.6-25.6 25.6z"/><path d="m360.813 424.813-23.04 11.093c-4.267 1.707-5.973 6.827-4.267 11.093 1.707 3.413 4.267 5.12 7.68 5.12 1.707 0 2.56 0 4.267-.853l22.187-11.093c4.267-1.707 5.973-6.827 4.267-11.093s-6.827-5.973-11.094-4.267z"/><path d="m336.067 62.147 23.893 9.387c.853.853 2.56.853 3.413.853 3.413 0 5.973-2.56 7.68-5.12 2.56-4.267 0-9.387-4.267-11.093l-23.893-9.387c-4.267-2.56-9.387 0-11.093 4.267-1.707 4.266 0 8.533 4.267 11.093z"/><path d="m399.213 87.747 30.481 12.357c-2.585 5.537-4.027 11.753-4.027 18.363 0 3.832.488 7.53 1.398 11.042l-19.318 11.145c-4.267 2.56-5.973 7.68-3.413 11.947 1.707 2.56 4.267 4.267 7.68 4.267.853 0 2.56-.853 4.267-.853l18.643-10.756c6.097 7.642 14.798 13.074 24.877 15.05v26.425c0 5.12 3.413 8.533 8.533 8.533s8.533-3.413 8.533-8.533v-26.425c19.681-3.861 34.133-20.879 34.133-41.842 0-23.893-18.773-42.667-42.667-42.667-11.047 0-20.994 4.019-28.503 10.696-.663-.539-1.409-.986-2.217-1.309l-31.573-12.8c-4.267-2.56-9.387 0-11.093 4.267-2.56 4.266 0 9.386 4.266 11.093zm69.12 5.12c14.507 0 25.6 11.093 25.6 25.6s-11.093 25.6-25.6 25.6-25.6-11.093-25.6-25.6 11.094-25.6 25.6-25.6z"/><path d="m146.627 72.387c.853 0 2.56-.853 3.413-.853l23.893-9.387c4.267-1.707 5.973-6.827 4.267-11.093s-6.827-5.973-11.093-4.267l-23.893 9.387c-4.267 1.707-5.973 6.827-4.267 11.093.853 3.413 4.266 5.12 7.68 5.12z"/><path d="m202.093 49.347c.853 0 2.56 0 3.413-.853l7.01-2.868c1.944 21.974 19.928 38.707 42.484 38.707s40.54-16.733 42.484-38.707l7.01 2.867c.853.853 2.56.853 3.413.853 3.413 0 6.827-1.707 7.68-5.12 2.56-4.267 0-9.387-4.267-11.093l-16.372-6.698c-6.022-16.174-21.446-27.435-39.948-27.435s-33.926 11.261-39.948 27.436l-16.372 6.698c-4.267 1.707-5.973 6.827-4.267 11.093.854 3.413 4.267 5.12 7.68 5.12zm52.907-33.28c14.507 0 25.6 11.093 25.6 25.6s-11.093 25.6-25.6 25.6-25.6-11.093-25.6-25.6 11.093-25.6 25.6-25.6z"/></g></svg>