<svg enable-background="new 0 0 512 512" viewBox="0 0 512 512" xmlns="http://www.w3.org/2000/svg"><g transform="translate(1 1)"><path d="m485.4 67.267h-230.4-230.4c-14.507 0-25.6 11.093-25.6 25.6v324.267c0 14.507 11.093 25.6 25.6 25.6h230.4 230.4c14.507 0 25.6-11.093 25.6-25.6v-324.267c0-14.507-11.093-25.6-25.6-25.6zm-236.373 224.426c-1.707 1.707-2.56 3.413-2.56 5.973v128h-221.867c-5.12 0-8.533-3.413-8.533-8.533v-324.266c0-5.12 3.413-8.533 8.533-8.533h221.867v128c0 2.56.853 4.267 2.56 5.973l36.693 36.693zm244.906 125.44c0 5.12-3.413 8.533-8.533 8.533h-221.867v-124.586l40.107-40.107c3.413-3.413 3.413-8.533 0-11.947l-40.107-40.107v-124.586h221.867c5.12 0 8.533 3.413 8.533 8.533z"/><path d="m50.2 127h68.267c5.12 0 8.533-3.413 8.533-8.533s-3.413-8.533-8.533-8.533h-68.267c-5.12 0-8.533 3.413-8.533 8.533s3.413 8.533 8.533 8.533z"/><path d="m75.8 152.6c0 5.12 3.413 8.533 8.533 8.533h68.267c5.12 0 8.533-3.413 8.533-8.533s-3.413-8.533-8.533-8.533h-68.267c-5.12 0-8.533 3.413-8.533 8.533z"/><path d="m186.733 178.2h-102.4c-5.12 0-8.533 3.413-8.533 8.533s3.413 8.533 8.533 8.533h102.4c5.12 0 8.533-3.413 8.533-8.533s-3.413-8.533-8.533-8.533z"/><path d="m50.2 229.4h68.267c5.12 0 8.533-3.413 8.533-8.533s-3.413-8.533-8.533-8.533h-68.267c-5.12 0-8.533 3.413-8.533 8.533s3.413 8.533 8.533 8.533z"/><path d="m50.2 263.533h34.133c5.12 0 8.533-3.413 8.533-8.533s-3.413-8.533-8.533-8.533h-34.133c-5.12 0-8.533 3.413-8.533 8.533s3.413 8.533 8.533 8.533z"/><path d="m75.8 289.133c0 5.12 3.413 8.533 8.533 8.533h68.267c5.12 0 8.533-3.413 8.533-8.533s-3.413-8.533-8.533-8.533h-68.267c-5.12 0-8.533 3.413-8.533 8.533z"/><path d="m186.733 314.733h-68.267c-5.12 0-8.533 3.413-8.533 8.533s3.413 8.533 8.533 8.533h68.267c5.12 0 8.533-3.413 8.533-8.533s-3.413-8.533-8.533-8.533z"/><path d="m297.667 331.8h42.667c5.12 0 8.533-3.413 8.533-8.533s-3.413-8.533-8.533-8.533h-42.667c-5.12 0-8.533 3.413-8.533 8.533s3.413 8.533 8.533 8.533z"/><path d="m135.533 383h-68.266c-5.12 0-8.533 3.413-8.533 8.533s3.413 8.533 8.533 8.533h68.267c5.12 0 8.533-3.413 8.533-8.533s-3.414-8.533-8.534-8.533z"/><path d="m92.867 357.4c0-5.12-3.413-8.533-8.533-8.533h-34.134c-5.12 0-8.533 3.413-8.533 8.533s3.413 8.533 8.533 8.533h34.133c5.12 0 8.534-3.413 8.534-8.533z"/><path d="m374.467 118.467c0-5.12-3.413-8.533-8.533-8.533h-68.267c-5.12 0-8.533 3.413-8.533 8.533s3.413 8.533 8.533 8.533h68.267c5.119 0 8.533-3.413 8.533-8.533z"/><path d="m323.267 152.6c0 5.12 3.413 8.533 8.533 8.533h93.867c5.12 0 8.533-3.413 8.533-8.533s-3.413-8.533-8.533-8.533h-93.867c-5.12 0-8.533 3.413-8.533 8.533z"/><path d="m442.733 178.2h-110.933c-5.12 0-8.533 3.413-8.533 8.533s3.413 8.533 8.533 8.533h110.933c5.12 0 8.533-3.413 8.533-8.533s-3.413-8.533-8.533-8.533z"/><path d="m417.133 229.4c5.12 0 8.533-3.413 8.533-8.533s-3.413-8.533-8.533-8.533h-51.2c-5.12 0-8.533 3.413-8.533 8.533s3.413 8.533 8.533 8.533z"/><path d="m348.867 255c0 5.12 3.413 8.533 8.533 8.533h17.067c5.12 0 8.533-3.413 8.533-8.533s-3.413-8.533-8.533-8.533h-17.067c-5.12-0-8.533 3.413-8.533 8.533z"/><path d="m425.667 280.6h-85.333c-5.12 0-8.533 3.413-8.533 8.533s3.413 8.533 8.533 8.533h85.333c5.12 0 8.533-3.413 8.533-8.533s-3.413-8.533-8.533-8.533z"/><path d="m365.933 383h-68.267c-5.12 0-8.533 3.413-8.533 8.533s3.413 8.533 8.533 8.533h68.267c5.12 0 8.533-3.413 8.533-8.533s-3.413-8.533-8.533-8.533z"/><path d="m383 348.867h-59.733c-5.12 0-8.533 3.413-8.533 8.533s3.413 8.533 8.533 8.533h59.733c5.12 0 8.533-3.413 8.533-8.533s-3.413-8.533-8.533-8.533z"/></g></svg>