<svg enable-background="new 0 0 512 512" viewBox="0 0 512 512" xmlns="http://www.w3.org/2000/svg"><path d="m409.921 0c-56.287 0-102.079 45.792-102.079 102.079 0 16.939 4.285 33.666 12.426 48.628l-6.87 17.175c-2.746-7.716-8.269-14.249-15.529-18.243.235-1.592.354-3.195.354-4.805 0-17.331-13.162-31.645-30.016-33.472-5.868-10.54-17.03-17.3-29.309-17.3-1.813 0-3.648.167-5.49.498-6.829-5.799-15.5-9.049-24.439-9.049-1.4 0-2.808.086-4.246.26-7.382-5.708-16.359-8.811-25.683-8.811s-18.302 3.103-25.683 8.811c-1.438-.174-2.845-.26-4.246-.26-8.868 0-17.308 3.054-24.095 8.662-11.192.915-21.16 7.433-26.59 17.189-16.854 1.828-30.017 16.141-30.017 33.472 0 1.61.118 3.213.354 4.805-10.568 5.814-17.456 17.005-17.456 29.4 0 6.036 1.659 11.93 4.752 17.102-3.093 5.172-4.752 11.066-4.752 17.102 0 12.31 6.793 23.496 17.378 29.352.486 3.242 1.604 6.309 3.238 9.054-7.229 4.416-12.065 12.38-12.065 21.453v17.102c0 13.851 11.268 25.119 25.119 25.119h6.162l.998 6.24c1.613 10.08 6.82 19.229 14.662 25.765l4.365 3.638v29.219c0 4.014-2.577 7.505-6.413 8.684l-74.947 23.06c-17.826 5.488-29.804 21.705-29.804 40.356v34.596c0 13.851 11.268 25.119 25.119 25.119h307.841c13.851 0 25.119-11.268 25.119-25.119v-34.596c0-18.652-11.978-34.869-29.805-40.354l-74.947-23.06c-3.836-1.18-6.413-4.67-6.413-8.684v-29.22l4.365-3.637c7.842-6.535 13.049-15.686 14.662-25.765l.998-6.24h6.162c13.851 0 25.119-11.268 25.119-25.119v-17.102c0-6.616-2.576-12.641-6.773-17.131 3.419-3.656 5.735-8.297 6.497-13.375 10.585-5.856 17.378-17.042 17.378-29.353 0-1.025-.065-2.045-.16-3.059l46.129-18.451c14.962 8.14 31.69 12.425 48.628 12.425 56.287 0 102.079-45.792 102.079-102.079s-45.79-102.081-102.077-102.081zm-324.944 299.29c-5.01 0-9.086-4.076-9.086-9.086v-17.102c0-4.318 3.031-7.935 7.076-8.854l5.606 35.042zm-25.119 196.677h-34.739c-5.01 0-9.086-4.076-9.086-9.086v-34.596c0-4.537 1.157-8.833 3.212-12.596l34.267 28.555c4.033 3.361 6.346 8.3 6.346 13.549zm278.976-56.278c2.057 3.762 3.212 8.058 3.212 12.596v34.596c0 5.01-4.076 9.086-9.086 9.086h-34.739v-14.172c0-5.25 2.313-10.189 6.346-13.549zm-51.85-23.687 36.575 11.253c1.216.375 2.382.843 3.505 1.371l-32.76 27.302c-7.7 6.416-12.116 15.843-12.116 25.866v14.172h-206.297v-14.172c0-10.023-4.416-19.451-12.115-25.866l-32.762-27.302c1.123-.529 2.289-.997 3.505-1.371l43.482-13.379c.123.217.254.432.401.641 23.908 34.269 63.095 54.727 104.825 54.727 41.122 0 79.76-19.875 103.757-53.242zm-38.371-11.806 22.079 6.794c-21.132 26.56-53.324 42.221-87.464 42.221-35.021 0-67.987-16.487-89.072-44.305l15.311-4.711c10.606-3.263 17.732-12.911 17.732-24.008v-15.858l13.92 11.601c6.039 5.032 13.695 7.804 21.555 7.804h32.732c7.861 0 15.516-2.772 21.555-7.804l13.92-11.602v15.858c0 11.097 7.126 20.746 17.732 24.01zm4.138-101.668c-1.872 2.102-21.345 22.416-73.711 22.416-4.427 0-8.017 3.589-8.017 8.017s3.589 8.017 8.017 8.017c33.609 0 55.601-7.707 69.003-15.148-1.617 3.519-4.006 6.665-7.027 9.183l-34.32 28.6c-3.163 2.636-7.173 4.087-11.291 4.087h-32.732c-4.117 0-8.128-1.452-11.291-4.087l-34.32-28.6c-4.863-4.053-8.094-9.729-9.094-15.981l-8.801-55.014h3.706c8.132 0 15.005-5.822 16.342-13.844l4.878-29.27c6.083-.895 11.765-3.435 16.465-7.311 5.946 4.903 13.463 7.67 21.378 7.67s15.432-2.766 21.378-7.67c5.946 4.903 13.463 7.67 21.378 7.67s15.432-2.766 21.378-7.67c4.7 3.876 10.382 6.417 16.465 7.311l4.878 29.271c1.067 6.402 5.664 11.391 11.608 13.151zm29.437-12.323c0 5.01-4.076 9.086-9.086 9.086h-3.597l5.606-35.042c4.045.918 7.076 4.535 7.076 8.854v17.102zm12.505-88.697c2.964 3.291 4.597 7.46 4.597 11.736 0 7.43-4.773 14.085-11.877 16.559-3.473 1.21-5.677 4.627-5.347 8.289.028.307.066.61.107.913l.012.089c-.089 3.992-2.845 7.479-6.765 8.521-.369.098-.727.221-1.072.368h-10.592c-.263 0-.484-.188-.527-.447l-5.968-35.803c-.648-3.89-4.016-6.699-7.901-6.699-.201 0-.402.008-.605.022-.422.032-.838.083-1.253.14-.068.01-.137.02-.205.029-5.857-.049-11.286-3.001-14.547-7.918-1.486-2.24-3.993-3.586-6.681-3.586s-5.196 1.346-6.681 3.586c-3.288 4.959-8.782 7.918-14.697 7.918s-11.408-2.961-14.697-7.918c-1.486-2.24-3.993-3.586-6.681-3.586s-5.196 1.346-6.681 3.586c-3.288 4.959-8.782 7.918-14.697 7.918s-11.408-2.961-14.697-7.918c-1.486-2.24-3.993-3.586-6.681-3.586s-5.196 1.346-6.681 3.586c-3.26 4.917-8.689 7.868-14.547 7.918-.068-.009-.137-.019-.205-.029-.415-.057-.831-.109-1.253-.14-4.144-.315-7.825 2.586-8.506 6.676l-5.968 35.802c-.044.26-.265.447-.527.447h-10.588c-.345-.146-.703-.269-1.072-.368-3.92-1.042-6.677-4.529-6.765-8.521l.012-.089c.041-.302.079-.606.107-.913.33-3.662-1.874-7.08-5.347-8.289-7.104-2.473-11.877-9.128-11.877-16.558 0-4.278 1.632-8.445 4.597-11.736 2.747-3.05 2.747-7.682 0-10.731-2.965-3.292-4.597-7.46-4.597-11.738 0-7.886 5.369-14.847 13.058-16.927 2.211-.599 4.06-2.113 5.082-4.163s1.117-4.438.264-6.564c-.864-2.147-1.301-4.35-1.301-6.55 0-9.643 7.778-17.502 17.39-17.635l.012.001c.423.059.847.11 1.279.136 3.568.215 6.869-1.976 8.05-5.365 2.445-7.017 8.969-11.76 16.289-11.874.188.015.377.024.569.027 2.145.029 4.221-.788 5.755-2.293 4.133-4.054 9.576-6.287 15.325-6.287 1.501 0 3.077.19 4.819.583 2.591.583 5.308-.157 7.247-1.977 4.915-4.614 11.259-7.156 17.863-7.156s12.949 2.542 17.863 7.156c1.938 1.82 4.655 2.56 7.247 1.977 1.741-.392 3.318-.583 4.819-.583 6.17 0 11.907 2.58 16.157 7.266 2.141 2.361 5.479 3.229 8.498 2.21 1.848-.623 3.573-.926 5.274-.926 7.43 0 14.085 4.773 16.559 11.877 1.18 3.387 4.466 5.577 8.05 5.365.433-.026.857-.077 1.279-.136l.012-.001c9.611.133 17.39 7.992 17.39 17.635 0 2.2-.437 4.403-1.3 6.551-.854 2.125-.758 4.514.264 6.564 1.022 2.049 2.871 3.565 5.081 4.163 7.688 2.079 13.057 9.04 13.057 16.926 0 4.278-1.632 8.445-4.597 11.736-2.748 3.052-2.748 7.684-.001 10.734zm115.228-13.383c-15.382 0-30.568-4.204-43.915-12.156-2.144-1.277-4.763-1.485-7.081-.557l-37.226 14.891 14.891-37.226c.928-2.318.721-4.936-.557-7.081-7.953-13.347-12.157-28.533-12.157-43.915 0-47.446 38.6-86.046 86.046-86.046s86.046 38.6 86.046 86.046-38.601 86.044-86.047 86.044z"/><path d="m471.172 66.482c-3.131-3.131-8.207-3.131-11.337 0l-9.793 9.793-11.93-2.386-2.386-11.93 9.793-9.793c3.131-3.131 3.131-8.206 0-11.337s-8.207-3.131-11.337 0l-12.827 12.827c-1.895 1.895-2.718 4.612-2.192 7.241l3.434 17.171-32.412 32.412-17.171-3.434c-2.63-.526-5.346.297-7.241 2.192l-12.827 12.827c-3.131 3.131-3.131 8.206 0 11.337s8.207 3.131 11.337 0l9.793-9.793 11.93 2.386 2.386 11.93-9.793 9.793c-3.131 3.131-3.131 8.206 0 11.337 1.565 1.565 3.617 2.348 5.668 2.348s4.103-.782 5.668-2.348l12.827-12.827c1.895-1.895 2.718-4.612 2.192-7.241l-3.434-17.171 32.412-32.412 17.171 3.434c.524.105 1.05.156 1.572.156 2.105 0 4.151-.829 5.668-2.348l12.827-12.827c3.132-3.131 3.132-8.206.002-11.337z"/></svg>