<svg enable-background="new 0 0 491.52 491.52" viewBox="0 0 491.52 491.52" xmlns="http://www.w3.org/2000/svg"><path d="m284.738 409.6h-30.72v-71.68h130.26l78.505-235.52h-55.165v-61.44h-190.97l-51.2-40.96h-136.71v337.92h204.8v71.68h-30.72v30.72h-122.881v20.48h122.88v30.72h81.92v-30.72h122.88v-20.48h-122.88v-30.72zm-235.52-389.12h109.05l51.2 40.96h177.67v40.96h-273.295l-64.625 169.64zm4.62 296.96 15.603-40.96h124.592v-20.48h-116.79l11.702-30.72h124.113v-20.48h-116.312l31.206-81.92h306.42l-64.855 194.56zm210.42 153.6h-40.96v-40.96h40.96z"/></svg>