<svg enable-background="new 0 0 512 512" viewBox="0 0 512 512" xmlns="http://www.w3.org/2000/svg"><g transform="translate(1 1)"><path d="m203.8 200.387v-78.507c0-11.093-9.387-20.48-20.48-20.48h-129.707c-11.093 0-20.48 9.387-20.48 20.48v78.507c0 11.093 9.387 20.48 20.48 20.48h129.707c11.093 0 20.48-9.387 20.48-20.48zm-153.6 0v-78.507c0-1.707 1.707-3.413 3.413-3.413h129.707c1.707 0 3.413 1.707 3.413 3.413v78.507c0 1.707-1.707 3.413-3.413 3.413h-129.707c-1.706 0-3.413-1.707-3.413-3.413z"/><path d="m476.867 200.387v-78.507c0-11.093-9.387-20.48-20.48-20.48h-129.707c-11.093 0-20.48 9.387-20.48 20.48v78.507c0 11.093 9.387 20.48 20.48 20.48h129.707c11.093 0 20.48-9.387 20.48-20.48zm-153.6 0v-78.507c0-1.707 1.707-3.413 3.413-3.413h129.707c1.707 0 3.413 1.707 3.413 3.413v78.507c0 1.707-1.707 3.413-3.413 3.413h-129.707c-1.707 0-3.413-1.707-3.413-3.413z"/><path d="m431.64 306.2c11.093 0 19.627-8.533 19.627-19.627v-31.573h37.547c11.946 0 22.186-10.24 22.186-22.187v-143.36c0-11.947-10.24-22.187-22.187-22.187h-194.56c-11.947 0-22.187 10.24-22.187 22.187v143.36c0 11.947 10.24 22.187 22.187 22.187h37.547v31.573c0 11.093 8.533 19.627 18.773 19.627h32.427v52.025c-16.93 3.32-29.988 16.378-33.308 33.308h-189.384c-3.32-16.93-16.378-29.988-33.308-33.308v-52.025h31.573c11.093 0 19.627-8.533 19.627-19.627v-31.573h37.547c11.947 0 22.187-10.24 22.187-22.187v-143.36c0-11.947-10.24-22.187-22.187-22.187h-194.56c-11.947.001-22.187 10.241-22.187 22.187v143.36c0 11.947 10.24 22.187 22.187 22.187h37.547v31.573c0 11.093 8.533 19.627 19.627 19.627h31.573v52.025c-16.93 3.32-29.988 16.378-33.308 33.308h-69.093c-5.12 0-8.533 3.413-8.533 8.533s3.413 8.533 8.533 8.533h69.092c3.86 19.681 20.878 34.133 41.841 34.133s37.981-14.452 41.841-34.133h189.384c3.86 19.681 20.878 34.133 41.841 34.133s37.981-14.452 41.841-34.133h69.092c5.12 0 8.533-3.413 8.533-8.533s-3.413-8.533-8.533-8.533h-69.092c-3.32-16.93-16.378-29.988-33.308-33.308v-52.025zm-410.453-68.267c-2.56 0-5.12-2.56-5.12-5.12v-143.36c0-2.56 2.56-5.12 5.12-5.12h194.56c2.56 0 5.12 2.56 5.12 5.12v143.36c0 2.56-2.56 5.12-5.12 5.12h-37.547-119.467zm54.613 48.64v-31.573h86.187v31.573c0 1.707-1.707 2.56-2.56 2.56h-81.067c-1.707 0-2.56-.853-2.56-2.56zm42.667 139.094c-14.507 0-25.6-11.093-25.6-25.6s11.093-25.6 25.6-25.6 25.6 11.093 25.6 25.6c0 14.506-11.094 25.6-25.6 25.6zm298.666-25.6c0 14.507-11.093 25.6-25.6 25.6s-25.6-11.093-25.6-25.6 11.093-25.6 25.6-25.6 25.6 11.093 25.6 25.6zm-122.88-162.134c-2.56 0-5.12-2.56-5.12-5.12v-143.36c0-2.56 2.56-5.12 5.12-5.12h194.56c2.56 0 5.12 2.56 5.12 5.12v143.36c0 2.56-2.56 5.12-5.12 5.12h-37.547-119.466zm54.614 48.64v-31.573h86.187v31.573c0 1.707-1.707 2.56-2.56 2.56h-81.067c-1.707 0-2.56-1.706-2.56-2.56z"/></g></svg>