<svg enable-background="new 0 0 491.52 491.52" viewBox="0 0 491.52 491.52" xmlns="http://www.w3.org/2000/svg"><path d="m420.635 158.89c3.07-11.97 7.195-30.945 6.44-44.03-3.65-62.83-56.585-114.355-118.005-114.855-.32 0-.635-.005-.955-.005-49.655 0-93.91 32.04-111.31 78.57-18.185-15.155-41.67-22.57-65.565-20.17-34.04 3.385-63.705 27.41-75.57 61.21-5.285 15.045-6.575 30.5-3.87 46.06-31.315 15.475-51.8 48.3-51.8 84.33 0 52.01 38.76 89.76 92.16 89.76h40.96v4.625c0 29.647 43.358 52.367 102.4 54.739v32.843c-8.675 3.093-15.5 9.918-18.593 18.593h-73.567v20.48h73.568c4.241 11.894 15.501 20.48 28.833 20.48s24.592-8.586 28.833-20.48h73.567v-20.48h-73.567c-3.093-8.675-9.918-15.5-18.593-18.593v-32.843c59.042-2.372 102.4-25.092 102.4-54.739h-20.48c0 14.405-35.06 34.495-92.16 34.495s-92.16-20.09-92.16-34.495v-30.293c20.038 13.879 53.142 22.638 92.16 22.638s72.122-8.759 92.16-22.638v30.288h20.48v-13.326c12.666 6.279 26.695 9.701 40.96 9.701 50.815 0 92.16-41.345 92.16-92.16-.001-43.405-29.736-80.075-70.886-89.705zm-174.875 291.67c5.645 0 10.24 4.595 10.24 10.24s-4.595 10.24-10.24 10.24-10.24-4.595-10.24-10.24 4.595-10.24 10.24-10.24zm92.16-168.81c0 14.405-35.06 34.5-92.16 34.5s-92.16-20.095-92.16-34.5v-30.288c20.038 13.879 53.142 22.638 92.16 22.638s72.122-8.759 92.16-22.638zm-92.16-28.13c-57.1 0-92.16-20.095-92.16-34.5s35.06-34.495 92.16-34.495 92.16 20.09 92.16 34.495-35.06 34.5-92.16 34.5zm153.6 66.655c-14.914 0-28.909-4.668-40.96-13.138v-88.017c0-31.34-48.425-54.975-112.64-54.975s-112.64 23.635-112.64 54.975v100.16h-40.96c-42.205 0-71.68-28.49-71.68-69.28 0-30.605 18.78-58.22 46.73-68.72l8.705-3.265-2.415-8.98c-3.88-14.42-3.38-28.77 1.49-42.645 9.245-26.32 32.12-45.01 58.28-47.61 23.145-2.275 45.745 7.325 60.445 25.775l13.51 16.955 4.515-21.2c9.935-46.64 50.955-79.74 97.16-79.825 50.85.415 94.69 43.285 97.725 95.56.785 13.565-6 39.29-8.68 48.06l-3.65 11.925 12.405 1.26c36.68 3.72 64.34 34.38 64.34 71.305 0 39.525-32.155 71.68-71.68 71.68z"/></svg>