<svg enable-background="new 0 0 54 54" viewBox="0 0 54 54" xmlns="http://www.w3.org/2000/svg"><path d="m9 35c-2.206 0-4 1.794-4 4s1.794 4 4 4 4-1.794 4-4-1.794-4-4-4zm0 6c-1.103 0-2-.897-2-2s.897-2 2-2 2 .897 2 2-.897 2-2 2z"/><circle cx="49" cy="37" r="1"/><circle cx="45" cy="37" r="1"/><circle cx="47" cy="41" r="1"/><circle cx="43" cy="41" r="1"/><circle cx="41" cy="37" r="1"/><circle cx="39" cy="41" r="1"/><circle cx="37" cy="37" r="1"/><circle cx="35" cy="41" r="1"/><circle cx="33" cy="37" r="1"/><circle cx="31" cy="41" r="1"/><circle cx="49" cy="23" r="1"/><circle cx="45" cy="23" r="1"/><circle cx="47" cy="27" r="1"/><circle cx="43" cy="27" r="1"/><circle cx="41" cy="23" r="1"/><circle cx="39" cy="27" r="1"/><circle cx="37" cy="23" r="1"/><circle cx="35" cy="27" r="1"/><circle cx="33" cy="23" r="1"/><circle cx="31" cy="27" r="1"/><circle cx="49" cy="9" r="1"/><circle cx="45" cy="9" r="1"/><circle cx="47" cy="13" r="1"/><circle cx="43" cy="13" r="1"/><circle cx="41" cy="9" r="1"/><circle cx="39" cy="13" r="1"/><circle cx="37" cy="9" r="1"/><circle cx="35" cy="13" r="1"/><circle cx="33" cy="9" r="1"/><circle cx="31" cy="13" r="1"/><path d="m9 29c2.206 0 4-1.794 4-4s-1.794-4-4-4-4 1.794-4 4 1.794 4 4 4zm0-6c1.103 0 2 .897 2 2s-.897 2-2 2-2-.897-2-2 .897-2 2-2z"/><path d="m54 5.406c0-1.327-1.079-2.406-2.406-2.406h-49.188c-1.327 0-2.406 1.079-2.406 2.406v11.188c0 .526.175 1.01.462 1.406-.287.396-.462.88-.462 1.406v11.188c0 .526.175 1.01.462 1.406-.287.396-.462.88-.462 1.406v11.188c0 1.327 1.079 2.406 2.406 2.406h.594c0 2.206 1.794 4 4 4s4-1.794 4-4h32c0 2.206 1.794 4 4 4s4-1.794 4-4h.594c1.327 0 2.406-1.079 2.406-2.406v-11.188c0-.526-.175-1.01-.462-1.406.287-.396.462-.88.462-1.406v-11.188c0-.526-.175-1.01-.462-1.406.287-.396.462-.88.462-1.406zm-52 0c0-.223.183-.406.406-.406h49.188c.223 0 .406.183.406.406v11.188c0 .223-.183.406-.406.406h-49.188c-.223 0-.406-.183-.406-.406zm50 14v11.188c0 .223-.183.406-.406.406h-49.188c-.223 0-.406-.183-.406-.406v-11.188c0-.223.183-.406.406-.406h49.188c.223 0 .406.183.406.406zm-45 29.594c-1.103 0-2-.897-2-2h4c0 1.103-.897 2-2 2zm40 0c-1.103 0-2-.897-2-2h4c0 1.103-.897 2-2 2zm5-4.406c0 .223-.183.406-.406.406h-.594-8-32-8-.594c-.223 0-.406-.183-.406-.406v-11.188c0-.223.183-.406.406-.406h49.188c.223 0 .406.183.406.406z"/><path d="m9 15c2.206 0 4-1.794 4-4s-1.794-4-4-4-4 1.794-4 4 1.794 4 4 4zm0-6c1.103 0 2 .897 2 2s-.897 2-2 2-2-.897-2-2 .897-2 2-2z"/></svg>