<svg enable-background="new 0 0 60 60" viewBox="0 0 60 60" xmlns="http://www.w3.org/2000/svg"><path d="m32.53 30.553-12.944-9.363c-.396-.285-.945-.243-1.293.104-.348.348-.391.896-.104 1.293l9.365 12.946c.614.845 1.563 1.376 2.604 1.457.094.007.187.01.279.01.942 0 1.848-.372 2.519-1.044.737-.737 1.114-1.756 1.033-2.797s-.612-1.99-1.459-2.606zm-.988 3.989c-.324.323-.775.488-1.228.453-.456-.035-.873-.269-1.141-.637l-5.713-7.897 7.895 5.711c.371.27.604.687.64 1.144.036.455-.13.903-.453 1.226z"/><path d="m56.081 26.022c-.001-.003 0-.007-.001-.01-.001-.004-.004-.007-.005-.011-.612-2.279-1.518-4.437-2.67-6.437-.01-.021-.01-.043-.022-.064-.012-.02-.031-.031-.044-.05-1.011-1.735-2.207-3.347-3.566-4.809l2.147-2.147 1.415 1.414 4.242-4.242-4.242-4.243-4.243 4.243 1.414 1.414-2.147 2.147c-1.462-1.358-3.074-2.555-4.809-3.566-.019-.013-.03-.032-.05-.044s-.044-.011-.064-.022c-2-1.153-4.158-2.058-6.436-2.67-.004-.001-.007-.004-.011-.005s-.007 0-.01 0c-1.292-.346-2.62-.598-3.979-.749v-1.171h1.5c1.379 0 2.5-1.121 2.5-2.5s-1.121-2.5-2.5-2.5h-9c-1.379 0-2.5 1.121-2.5 2.5s1.121 2.5 2.5 2.5h1.5v1.171c-1.359.151-2.687.403-3.978.749-.004.001-.007 0-.01.001-.004.001-.007.004-.011.005-2.278.612-4.436 1.518-6.436 2.67-.021.01-.044.01-.065.022-.02.012-.031.031-.05.044-1.734 1.011-3.347 2.207-4.809 3.566l-2.147-2.148 1.414-1.414-4.243-4.243-4.242 4.243 4.242 4.242 1.415-1.414 2.147 2.147c-1.358 1.462-2.555 3.074-3.565 4.809-.013.019-.033.03-.044.05-.012.021-.011.043-.022.064-1.153 2-2.058 4.158-2.67 6.437-.001.004-.004.007-.005.011-.001.003 0 .007-.001.01-.597 2.228-.92 4.565-.92 6.978s.323 4.75.919 6.978c.001.004 0 .007.001.01.001.005.005.009.006.014.612 2.278 1.517 4.435 2.669 6.434.01.021.01.043.022.064.017.029.041.051.06.078 1.165 1.993 2.573 3.827 4.191 5.454.016.019.022.042.04.06s.041.024.06.04c1.634 1.626 3.478 3.039 5.482 4.207.019.013.03.032.05.044.03.017.063.025.094.039 1.991 1.144 4.14 2.044 6.407 2.653.004.001.007.004.011.005.005.001.01.001.015.002 2.226.596 4.562.918 6.973.918s4.747-.322 6.973-.918c.005-.001.01 0 .015-.002.004-.001.007-.004.011-.005 2.267-.609 4.415-1.509 6.407-2.653.031-.014.064-.021.094-.039.02-.012.031-.031.05-.044 2.004-1.168 3.847-2.581 5.482-4.207.019-.016.042-.022.06-.04s.024-.042.04-.06c1.618-1.627 3.026-3.461 4.191-5.454.019-.027.043-.048.06-.078.012-.021.011-.043.022-.064 1.152-1.999 2.057-4.156 2.669-6.434.001-.005.005-.009.006-.014.001-.003 0-.007.001-.01.596-2.228.919-4.565.919-6.978s-.323-4.75-.919-6.978zm-2.746-17.771 1.414 1.415-1.414 1.414-1.415-1.414zm-48.084 1.415 1.414-1.415 1.415 1.415-1.415 1.414zm46.706 30.253 1.915.513c-.455 1.458-1.045 2.857-1.747 4.188l-1.707-.986c-.478-.277-1.09-.114-1.366.366-.276.479-.112 1.09.366 1.366l1.703.983c-.813 1.282-1.736 2.486-2.762 3.596l-1.389-1.389c-.391-.391-1.023-.391-1.414 0s-.391 1.023 0 1.414l1.389 1.389c-1.11 1.026-2.314 1.949-3.596 2.762l-.983-1.703c-.277-.48-.89-.644-1.366-.366-.479.276-.643.888-.366 1.366l.986 1.707c-1.331.702-2.729 1.292-4.188 1.747l-.513-1.914c-.143-.534-.691-.852-1.225-.707-.533.143-.85.691-.707 1.225l.511 1.908c-1.456.328-2.959.53-4.498.591v-1.975c0-.553-.447-1-1-1s-1 .447-1 1v1.975c-1.539-.061-3.042-.263-4.498-.591l.511-1.908c.143-.533-.174-1.082-.707-1.225-.533-.144-1.082.173-1.225.707l-.513 1.914c-1.458-.455-2.857-1.045-4.188-1.747l.986-1.707c.276-.479.112-1.09-.366-1.366-.478-.277-1.09-.114-1.366.366l-.983 1.703c-1.282-.813-2.486-1.736-3.596-2.762l1.389-1.389c.391-.391.391-1.023 0-1.414s-1.023-.391-1.414 0l-1.389 1.389c-1.026-1.11-1.949-2.314-2.762-3.596l1.703-.983c.479-.276.643-.888.366-1.366-.277-.48-.89-.644-1.366-.366l-1.707.986c-.702-1.331-1.292-2.729-1.747-4.188l1.915-.513c.533-.143.85-.691.707-1.225-.142-.534-.69-.852-1.225-.707l-1.909.511c-.327-1.456-.53-2.959-.591-4.498h1.975c.553 0 1-.447 1-1s-.447-1-1-1h-1.975c.061-1.539.263-3.042.591-4.498l1.909.512c.087.023.174.034.26.034.441 0 .845-.294.965-.741.144-.533-.174-1.082-.707-1.225l-1.915-.514c.455-1.458 1.045-2.857 1.747-4.188l1.707.986c.156.091.328.134.498.134.346 0 .682-.179.867-.5.276-.479.112-1.09-.366-1.366l-1.703-.983c.813-1.282 1.736-2.486 2.762-3.596l1.389 1.389c.195.195.451.293.707.293s.512-.098.707-.293c.391-.391.391-1.023 0-1.414l-1.389-1.389c1.11-1.025 2.314-1.949 3.596-2.762l.983 1.704c.186.32.521.5.867.5.17 0 .342-.043.499-.134.479-.276.643-.888.366-1.366l-.986-1.708c1.331-.702 2.729-1.292 4.188-1.747l.513 1.915c.119.446.523.741.965.741.086 0 .173-.011.26-.034.533-.143.85-.691.707-1.225l-.511-1.909c1.172-.264 2.373-.445 3.6-.537.31-.023.59-.04.861-.053.013 0 .025 0 .038-.001v1.975c0 .553.447 1 1 1s1-.447 1-1v-1.975c.013 0 .025 0 .038.001.271.013.55.03.861.053 1.227.093 2.429.273 3.6.537l-.511 1.909c-.143.533.174 1.082.707 1.225.087.023.174.034.26.034.441 0 .846-.295.965-.741l.513-1.915c1.458.455 2.857 1.045 4.188 1.747l-.986 1.708c-.276.479-.112 1.09.366 1.366.157.091.329.134.499.134.346 0 .682-.18.867-.5l.983-1.704c1.282.813 2.486 1.737 3.596 2.762l-1.389 1.389c-.391.391-.391 1.023 0 1.414.195.195.451.293.707.293s.512-.098.707-.293l1.389-1.389c1.026 1.11 1.949 2.314 2.762 3.596l-1.703.983c-.479.276-.643.887-.366 1.366.186.321.521.5.867.5.17 0 .342-.043.499-.134l1.707-.986c.702 1.331 1.292 2.729 1.747 4.188l-1.915.514c-.533.143-.851.691-.707 1.225.12.447.523.741.965.741.086 0 .173-.011.26-.034l1.909-.512c.328 1.456.53 2.959.591 4.498h-1.976c-.553 0-1 .447-1 1s.447 1 1 1h1.975c-.061 1.539-.263 3.042-.591 4.499l-1.909-.511c-.531-.144-1.082.174-1.225.707s.174 1.081.707 1.224zm-22.957-33.897v-3.022h-3.5c-.275 0-.5-.225-.5-.5s.225-.5.5-.5h9c.275 0 .5.225.5.5s-.225.5-.5.5h-3.5v3.022c-.35-.015-.679-.022-1-.022s-.65.007-1 .022z"/></svg>