<svg height="24" viewBox="0 0 24 24" width="24" xmlns="http://www.w3.org/2000/svg"><g fill="none" fill-rule="evenodd"><path d="m0 0h24v24h-24z"/><g fill="#335eea"><path d="m10.084 15.443-3.792 1.38a2.779 2.779 0 1 1 -1.9-5.222l3.94-1.434.854-4.849a.75.75 0 0 1 .87-.608l3.564.629a.75.75 0 0 1 .609.868l-1.444 8.19a1.5 1.5 0 0 1 -1.738 1.216z" opacity=".3"/><path d="m14.47 18.689-5.106 1.858a3.799 3.799 0 0 1 -2.599-7.14l5.178-1.884 1.108-6.285a1 1 0 0 1 1.159-.81l4.924.867a1 1 0 0 1 .81 1.159l-1.91 10.833a2 2 0 0 1 -2.316 1.622l-1.249-.22z"/></g></g></svg>