<svg fill="none" height="32" viewBox="0 0 107 32" width="107" xmlns="http://www.w3.org/2000/svg"><g clip-rule="evenodd" fill="#758a99" fill-rule="evenodd"><path d="m66.6436 25.0257c-6.1539 4.5502-15.1049 6.9744-22.8252 6.9744-10.8158 0-20.5128-3.9907-27.8974-10.6294-.5595-.5222-.0746-1.2308.634-.8206 7.9441 4.6248 17.7529 7.3847 27.8974 7.3847 6.8252 0 14.359-1.4172 21.2961-4.3637 1.0443-.4102 1.9021.7087.8951 1.4546z"/><path d="m69.2169 22.0792c-.7832-1.007-5.2214-.4848-7.1981-.2237-.5968.0746-.7086-.4476-.1492-.8206 3.5431-2.4988 9.324-1.7529 9.9953-.9324.6714.8206-.1865 6.6387-3.5058 9.3987-.5221.4102-1.007.1864-.7832-.373.7459-1.8648 2.4242-6.0047 1.641-7.049z"/><path d="m62.1307 3.50582v-2.42424c0-.372958.261-.596736.5967-.596736h10.8159c.3356 0 .634.261074.634.596736v2.05128c0 .33567-.2984.78322-.8205 1.52914l-5.5944 7.9814c2.0886-.0373 4.289.261 6.1538 1.3053.4103.2238.5222.5968.5595.9324v2.5734c0 .373-.373.7833-.7832.5595-3.3194-1.7529-7.7576-1.9394-11.4126.0373-.373.1865-.7833-.1865-.7833-.5595v-2.4615c0-.373 0-1.0443.4103-1.641l6.4895-9.28674h-5.6317c-.3357 0-.634-.26107-.634-.59674zm-39.4219 15.03028h-3.2821c-.2984-.0373-.5594-.2611-.5967-.5594v-16.85782c0-.335663.2983-.596738.634-.596738h3.0583c.3356 0 .5594.261072.5967.559438v2.20047h.0746c.7832-2.12588 2.3124-3.132868 4.3264-3.132868 2.0512 0 3.3566 1.006988 4.2517 3.132868.7832-2.12588 2.6107-3.132868 4.5501-3.132868 1.38 0 2.8718.55944 3.8042 1.864798 1.0443 1.41725.8205 3.46854.8205 5.29604v10.66668c0 .3356-.2983.5967-.634.5967h-3.2448c-.3356-.0373-.5967-.2984-.5967-.5967v-8.95107c0-.70862.0746-2.49883-.0746-3.17016-.2611-1.11888-.9697-1.45454-1.9394-1.45454-.7832 0-1.641.52215-1.9767 1.37996-.3356.8578-.2983 2.27505-.2983 3.24474v8.95107c0 .3356-.2984.5967-.6341.5967h-3.282c-.3357-.0373-.5968-.2984-.5968-.5967v-8.95107c0-1.8648.2984-4.662-2.014-4.662-2.3496 0-2.275 2.68531-2.275 4.662v8.95107c-.0373.2983-.2984.5594-.6713.5594zm60.7925-18.386918c4.8858 0 7.5338 4.177158 7.5338 9.510488 0 5.14683-2.9091 9.24943-7.5338 9.24943-4.7739 0-7.3846-4.1772-7.3846-9.39861-.0373-5.25874 2.6107-9.361308 7.3846-9.361308zm0 3.468528c-2.4242 0-2.5734 3.31935-2.5734 5.37064 0 2.05125-.0373 6.45225 2.5361 6.45225 2.5361 0 2.6853-3.5432 2.6853-5.70633 0-1.41725-.0746-3.13287-.4848-4.47553-.373-1.19347-1.1189-1.64103-2.1632-1.64103zm13.8368 14.91839h-3.282c-.3357-.0373-.5967-.2983-.5967-.5967v-16.89512c.0373-.298364.2983-.559436.634-.559436h3.0583c.2983 0 .5221.223783.5967.484855v2.573421h.0746c.9324-2.31235 2.2-3.393938 4.476-3.393938 1.454 0 2.909.52214 3.841 1.976688.858 1.34265.858 3.61771.858 5.25874v10.62939c-.037.2983-.299.5221-.634.5221h-3.282c-.299-.0373-.56-.261-.597-.5221v-9.17485c0-1.8648.224-4.55011-2.051-4.55011-.7835 0-1.5294.52215-1.9024 1.34266-.4475 1.04429-.5221 2.05128-.5221 3.20745v9.10025c-.0373.3357-.3357.5967-.6714.5967zm-43.8228-8.0559c0 1.2681.0373 2.3496-.5967 3.5058-.5222.9324-1.3427 1.4919-2.2751 1.4919-1.2681 0-2.014-.9697-2.014-2.387 0-2.7972 2.4988-3.31935 4.8858-3.31935zm3.3193 8.0186c-.2237.1865-.5221.2238-.7832.0746-1.0816-.8951-1.3053-1.3426-1.9021-2.2004-1.7902 1.8275-3.0956 2.3869-5.4079 2.3869-2.7599 0-4.9231-1.7156-4.9231-5.1095 0-2.6854 1.4546-4.47558 3.5059-5.37069 1.7902-.78321 4.289-.93239 6.1911-1.15617v-.41025c0-.78322.0746-1.71562-.4103-2.38695-.4102-.59673-1.1561-.85781-1.8275-.85781-1.268 0-2.3869.63404-2.648 1.97669-.0746.29837-.2611.59673-.5594.59673l-3.1702-.33566c-.2611-.07459-.5594-.26107-.4848-.67133.7459-3.87878 4.2144-5.03496 7.3473-5.03496 1.6037 0 3.6923.410254 4.9604 1.64102 1.6037 1.49184 1.4545 3.50583 1.4545 5.669v5.10958c0 1.5291.634 2.2004 1.2308 3.0583.2237.2983.261.6713 0 .8578-.7087.5594-1.9021 1.6037-2.5735 2.1631zm-46.3962-8.0186c0 1.2681.0373 2.3496-.59677 3.5058-.52214.9324-1.34266 1.4919-2.27506 1.4919-1.26806 0-2.01398-.9697-2.01398-2.387 0-2.7972 2.49883-3.31935 4.88581-3.31935zm3.282 8.0186c-.2238.1865-.5221.2238-.7832.0746-1.0816-.8951-1.3054-1.3426-1.9021-2.2004-1.79021 1.8275-3.09557 2.3869-5.40792 2.3869-2.75991 0-4.923078-1.7156-4.923078-5.1095 0-2.6854 1.454538-4.47558 3.505828-5.37069 1.79021-.78321 4.28904-.93239 6.19117-1.15617v-.41025c0-.78322.0746-1.71562-.41029-2.38695-.41025-.59673-1.15617-.85781-1.8275-.85781-1.26807 0-2.38695.63404-2.64802 1.97669-.07459.29837-.26107.59673-.55944.59673l-3.17017-.33566c-.26107-.07459-.55943-.26107-.48484-.67133.74592-3.87878 4.21445-5.03496 7.34732-5.03496 1.60374 0 3.69234.410254 4.96034 1.64102 1.6038 1.49184 1.4546 3.50583 1.4546 5.669v5.10958c0 1.5291.634 2.2004 1.2307 3.0583.2238.2983.2611.6713 0 .8578-.7086.5594-1.9021 1.6037-2.5734 2.1631z"/></g></svg>