<svg fill="none" height="32" viewBox="0 0 107 32" width="107" xmlns="http://www.w3.org/2000/svg"><g clip-rule="evenodd" fill-rule="evenodd"><path d="m65.9419 25.0257c-6.1538 4.5502-15.1049 6.9744-22.8251 6.9744-10.8159 0-20.5129-3.9907-27.8975-10.6294-.5594-.5222-.0746-1.2308.6341-.8206 7.944 4.6248 17.7529 7.3847 27.8974 7.3847 6.8252 0 14.359-1.4172 21.296-4.3637 1.0443-.4102 1.9021.7087.8951 1.4546z" fill="#99a9c0"/><path d="m68.5153 22.0793c-.7833-1.007-5.2215-.4849-7.1982-.2238-.5967.0746-.7086-.4476-.1492-.8205 3.5432-2.4989 9.324-1.7529 9.9954-.9324.6713.8205-.1865 6.6387-3.5059 9.3986-.5221.4102-1.007.1865-.7832-.373.7459-1.8648 2.4243-6.0047 1.6411-7.0489z" fill="#99a9c0"/><path d="m61.429 3.50582v-2.42424c0-.372958.2611-.596736.5967-.596736h10.8159c.3357 0 .634.261074.634.596736v2.05128c0 .33567-.2983.78322-.8205 1.52914l-5.5944 7.9814c2.0886-.0373 4.2891.261 6.1539 1.3053.4102.2238.5221.5968.5594.9324v2.5734c0 .373-.373.7833-.7832.5595-3.3194-1.7529-7.7576-1.9394-11.4126.0373-.373.1865-.7832-.1865-.7832-.5595v-2.4615c0-.373 0-1.0443.4102-1.641l6.4896-9.28674h-5.6318c-.3356 0-.634-.26107-.634-.59674zm-39.4219 15.03028h-3.282c-.2984-.0373-.5595-.2611-.5968-.5594v-16.85782c0-.335663.2984-.596738.6341-.596738h3.0582c.3357 0 .5595.261072.5968.559438v2.20047h.0746c.7832-2.12588 2.3123-3.132868 4.3263-3.132868 2.0513 0 3.3566 1.006988 4.2517 3.132868.7833-2.12588 2.6108-3.132868 4.5502-3.132868 1.3799 0 2.8718.55944 3.8042 1.864798 1.0442 1.41725.8205 3.46854.8205 5.29604v10.66668c0 .3356-.2984.5967-.6341.5967h-3.2447c-.3357-.0373-.5968-.2984-.5968-.5967v-8.95107c0-.70862.0746-2.49883-.0745-3.17016-.2611-1.11888-.9697-1.45454-1.9394-1.45454-.7833 0-1.6411.52215-1.9767 1.37996-.3357.8578-.2984 2.27505-.2984 3.24474v8.95107c0 .3356-.2984.5967-.634.5967h-3.2821c-.3357-.0373-.5967-.2984-.5967-.5967v-8.95107c0-1.8648.2983-4.662-2.014-4.662-2.3497 0-2.2751 2.68531-2.2751 4.662v8.95107c-.0373.2983-.2983.5594-.6713.5594zm60.7925-18.386918c4.8858 0 7.5339 4.177158 7.5339 9.510488 0 5.14683-2.9091 9.24943-7.5339 9.24943-4.7738 0-7.3846-4.1772-7.3846-9.39861-.0373-5.25874 2.6108-9.361308 7.3846-9.361308zm0 3.468528c-2.4242 0-2.5734 3.31935-2.5734 5.37064 0 2.05125-.0373 6.45225 2.5362 6.45225 2.5361 0 2.6853-3.5432 2.6853-5.70633 0-1.41725-.0746-3.13287-.4849-4.47553-.3729-1.19347-1.1189-1.64103-2.1632-1.64103zm13.8369 14.91839h-3.2821c-.3356-.0373-.5967-.2983-.5967-.5967v-16.89512c.0373-.298364.2984-.559436.634-.559436h3.0583c.2984 0 .5221.223783.5967.484855v2.573421h.0746c.9324-2.31235 2.2005-3.393938 4.4757-3.393938 1.454 0 2.909.52214 3.841 1.976688.858 1.34265.858 3.61771.858 5.25874v10.62939c-.037.2983-.298.5221-.634.5221h-3.282c-.298-.0373-.559-.261-.597-.5221v-9.17485c0-1.8648.224-4.55011-2.051-4.55011-.7832 0-1.5291.52215-1.9021 1.34266-.4475 1.04429-.5221 2.05128-.5221 3.20745v9.10025c-.0373.3357-.3357.5967-.6713.5967zm-43.8229-8.0559c0 1.2681.0373 2.3496-.5967 3.5058-.5221.9324-1.3427 1.4919-2.2751 1.4919-1.268 0-2.0139-.9697-2.0139-2.387 0-2.7972 2.4988-3.31935 4.8857-3.31935zm3.3194 8.0186c-.2238.1865-.5222.2238-.7832.0746-1.0816-.8951-1.3054-1.3426-1.9021-2.2004-1.7902 1.8275-3.0956 2.3869-5.408 2.3869-2.7599 0-4.923-1.7156-4.923-5.1095 0-2.6854 1.4545-4.47558 3.5058-5.37069 1.7902-.78321 4.289-.93239 6.1911-1.15617v-.41025c0-.78322.0746-1.71562-.4102-2.38695-.4103-.59673-1.1562-.85781-1.8275-.85781-1.2681 0-2.387.63404-2.648 1.97669-.0746.29837-.2611.59673-.5595.59673l-3.1702-.33566c-.261-.07459-.5594-.26107-.4848-.67133.7459-3.87878 4.2144-5.03496 7.3473-5.03496 1.6037 0 3.6923.410254 4.9604 1.64102 1.6037 1.49184 1.4545 3.50583 1.4545 5.669v5.10958c0 1.5291.6341 2.2004 1.2308 3.0583.2238.2983.2611.6713 0 .8578-.7086.5594-1.9021 1.6037-2.5734 2.1631zm-46.39629-8.0186c0 1.2681.03729 2.3496-.59674 3.5058-.52214.9324-1.34266 1.4919-2.27506 1.4919-1.26806 0-2.01398-.9697-2.01398-2.387 0-2.7972 2.49883-3.31935 4.88578-3.31935zm3.28209 8.0186c-.2238.1865-.5222.2238-.7833.0746-1.0815-.8951-1.3053-1.3426-1.9021-2.2004-1.79017 1.8275-3.09553 2.3869-5.40788 2.3869-2.75991 0-4.92307859-1.7156-4.92307859-5.1095 0-2.6854 1.45453859-4.47558 3.50582859-5.37069 1.79021-.78321 4.28904-.93239 6.19114-1.15617v-.41025c0-.78322.07459-1.71562-.41026-2.38695-.41025-.59673-1.15617-.85781-1.8275-.85781-1.26807 0-2.38695.63404-2.64802 1.97669-.07459.29837-.26107.59673-.55944.59673l-3.17017-.33566c-.261068-.07459-.559432-.26107-.48484-.67133.74592-3.87878 4.21445-5.03496 7.34732-5.03496 1.60373 0 3.6923.410254 4.9604 1.64102 1.6037 1.49184 1.4545 3.50583 1.4545 5.669v5.10958c0 1.5291.6341 2.2004 1.2308 3.0583.2238.2983.2611.6713 0 .8578-.7086.5594-1.9021 1.6037-2.5734 2.1631z" fill="#000"/></g></svg>