<svg fill="none" height="32" viewBox="0 0 160 32" width="160" xmlns="http://www.w3.org/2000/svg" xmlns:xlink="http://www.w3.org/1999/xlink"><clipPath id="a"><path d="m0 0h159.363v32h-159.363z"/></clipPath><g clip-path="url(#a)" fill="#758a99"><path d="m18.4939 5.91684-9.24694 5.90236 9.24694 5.9023-9.24694 5.9023-9.24696-5.9515 9.24696-5.9023-9.24696-5.85316 9.24696-5.9023136zm-9.29612 19.57606 9.24692-5.9024 9.247 5.9024-9.247 5.9023zm9.29612-7.8206 9.247-5.9023-9.247-5.85316 9.1978-5.9023136 9.247 5.9023136-9.247 5.90236 9.247 5.9023-9.247 5.9023z"/><path d="m44.1689 5.91685h7.4763c4.7711 0 8.7059 2.75441 8.7059 9.05025v1.328c0 6.345-3.6889 9.1978-8.5583 9.1978h-7.6239zm4.1809 3.54139v12.44406h3.197c2.7053 0 4.5251-1.7707 4.5251-5.7056v-1.0329c0-3.9349-1.9182-5.70556-4.6726-5.70556zm14.2147.19674h3.3446l.5411 3.68892c.6394-2.5085 2.2625-3.83648 5.2137-3.83648h1.0329v4.22998h-1.7215c-3.3938 0-4.23 1.1805-4.23 4.5251v7.2796h-4.1316v-15.88712zm10.9685 8.26322v-.4426c0-5.3121 3.3938-8.21411 8.0173-8.21411 4.7218 0 8.0173 2.90201 8.0173 8.21411v.4426c0 5.2137-3.1971 8.0173-8.0173 8.0173-5.1154-.0491-8.0173-2.8036-8.0173-8.0173zm11.8046-.0492v-.3934c0-2.9512-1.4756-4.7219-3.8365-4.7219-2.3117 0-3.8365 1.6231-3.8365 4.7219v.3934c0 2.8528 1.4756 4.476 3.8365 4.476 2.3609-.0492 3.8365-1.6232 3.8365-4.476zm6.3942-8.21402h3.443l.3935 3.00032c.8361-2.0166 2.6068-3.39381 5.2137-3.39381 4.033 0 6.689 2.90201 6.689 8.26321v.4427c0 5.2137-2.951 7.9681-6.689 7.9681-2.5085 0-4.23-1.1312-5.0662-2.9511v8.0173h-4.0332zm11.5582 8.21402v-.3443c0-3.1479-1.623-4.7218-3.7868-4.7218-2.3118 0-3.8365 1.7707-3.8365 4.7218v.2952c0 2.8036 1.4755 4.5742 3.7873 4.5742 2.361-.0491 3.836-1.5739 3.836-4.5251zm10.28 4.7219-.344 2.902h-3.541v-21.15h4.033v8.1157c.885-2.0658 2.656-3.19711 5.164-3.19711 3.788.04919 6.591 2.65601 6.591 7.91891v.4919c0 5.2629-2.656 8.2632-6.689 8.2632-2.656-.0491-4.377-1.2788-5.214-3.3446zm7.673-4.9186v-.3935c0-2.902-1.574-4.5251-3.787-4.5251-2.263 0-3.836 1.8199-3.836 4.5743v.3443c0 2.9512 1.524 4.6727 3.787 4.6727 2.41 0 3.836-1.5248 3.836-4.6727zm6.001.2459v-.4426c0-5.3121 3.394-8.21411 8.017-8.21411 4.722 0 8.018 2.90201 8.018 8.21411v.4426c0 5.2137-3.247 8.0173-8.018 8.0173-5.115-.0491-8.017-2.8036-8.017-8.0173zm11.854-.0492v-.3934c0-2.9512-1.476-4.7219-3.837-4.7219-2.311 0-3.836 1.6231-3.836 4.7219v.3934c0 2.8528 1.475 4.476 3.836 4.476 2.361-.0492 3.837-1.6232 3.837-4.476zm9.591-.5902-5.558-7.62382h4.771l3.197 4.77102 3.247-4.77102h4.721l-5.656 7.57462 5.951 8.2633h-4.672l-3.64-5.2629-3.541 5.2629h-4.87z"/></g></svg>