<svg fill="none" height="32" viewBox="0 0 160 32" width="160" xmlns="http://www.w3.org/2000/svg" xmlns:xlink="http://www.w3.org/1999/xlink"><clipPath id="a"><path d="m0 0h159.363v32h-159.363z"/></clipPath><g clip-path="url(#a)"><path d="m18.4939 5.91688-9.24694 5.90232 9.24694 5.9023-9.24694 5.9023-9.24696-5.9515 9.24696-5.9023-9.24696-5.85312 9.24696-5.9023136zm-9.29612 19.57602 9.24692-5.9023 9.247 5.9023-9.247 5.9023zm9.29612-7.8206 9.247-5.9023-9.247-5.85312 9.1978-5.9023136 9.247 5.9023136-9.247 5.90232 9.247 5.9023-9.247 5.9023z" fill="#48586f"/><path d="m44.1689 5.91688h7.4763c4.7711 0 8.7059 2.75441 8.7059 9.05022v1.328c0 6.345-3.6889 9.1978-8.5583 9.1978h-7.6239zm4.1809 3.54139v12.44403h3.197c2.7053 0 4.5251-1.7707 4.5251-5.7056v-1.0329c0-3.9348-1.9182-5.70553-4.6726-5.70553zm14.2147.19674h3.3446l.5411 3.68899c.6394-2.5085 2.2625-3.83655 5.2137-3.83655h1.0329v4.22995h-1.7215c-3.3938 0-4.23 1.1805-4.23 4.5252v7.2795h-4.1316v-15.88709zm10.9685 8.26329v-.4427c0-5.3121 3.3938-8.21408 8.0173-8.21408 4.7218 0 8.0173 2.90198 8.0173 8.21408v.4427c0 5.2137-3.1971 8.0173-8.0173 8.0173-5.1154-.0492-8.0173-2.8036-8.0173-8.0173zm11.8046-.0492v-.3935c0-2.9512-1.4756-4.7219-3.8365-4.7219-2.3117 0-3.8365 1.6232-3.8365 4.7219v.3935c0 2.8528 1.4756 4.4759 3.8365 4.4759 2.3609-.0492 3.8365-1.6231 3.8365-4.4759zm6.3942-8.21409h3.443l.3935 3.00039c.8361-2.0167 2.6068-3.39388 5.2137-3.39388 4.033 0 6.689 2.90198 6.689 8.26328v.4426c0 5.2138-2.951 7.9682-6.689 7.9682-2.5085 0-4.23-1.1313-5.0662-2.9512v8.0173h-4.0332zm11.5582 8.21409v-.3443c0-3.1479-1.623-4.7219-3.7868-4.7219-2.3118 0-3.8365 1.7707-3.8365 4.7219v.2951c0 2.8036 1.4755 4.5743 3.7873 4.5743 2.361-.0492 3.836-1.574 3.836-4.5251zm10.28 4.7218-.344 2.902h-3.541v-21.14997h4.033v8.11567c.885-2.0658 2.656-3.19708 5.164-3.19708 3.788.04919 6.591 2.65608 6.591 7.91898v.4918c0 5.2629-2.656 8.2633-6.689 8.2633-2.656-.0492-4.377-1.2789-5.214-3.3447zm7.673-4.9186v-.3935c0-2.9019-1.574-4.5251-3.787-4.5251-2.263 0-3.836 1.8199-3.836 4.5743v.3443c0 2.9512 1.524 4.6727 3.787 4.6727 2.41 0 3.836-1.5248 3.836-4.6727zm6.001.246v-.4427c0-5.3121 3.394-8.21408 8.017-8.21408 4.722 0 8.018 2.90198 8.018 8.21408v.4427c0 5.2137-3.247 8.0173-8.018 8.0173-5.115-.0492-8.017-2.8036-8.017-8.0173zm11.854-.0492v-.3935c0-2.9512-1.476-4.7219-3.837-4.7219-2.311 0-3.836 1.6232-3.836 4.7219v.3935c0 2.8528 1.475 4.4759 3.836 4.4759 2.361-.0492 3.837-1.6231 3.837-4.4759zm9.591-.5903-5.558-7.62379h4.771l3.197 4.77099 3.247-4.77099h4.721l-5.656 7.57469 5.951 8.2632h-4.672l-3.64-5.2629-3.541 5.2629h-4.87z" fill="#000"/></g></svg>