<svg fill="none" height="28" viewBox="0 0 74 28" width="74" xmlns="http://www.w3.org/2000/svg"><path d="m33.0483 21h9.6903v-1.9879h-6.7436l6.7053-9.62645v-1.47656h-9.6904v1.98793h6.75l-6.7116 9.62638zm15.8294.1918c2.2884 0 3.8608-1.1186 4.2699-2.8253l-2.1605-.2429c-.3132.8309-1.0803 1.2656-2.0774 1.2656-1.4958 0-2.4865-.9844-2.5057-2.6655h6.8395v-.7095c0-3.4453-2.0711-4.9602-4.4872-4.9602-2.8125 0-4.6471 2.0646-4.6471 5.0944 0 3.081 1.809 5.0434 4.7685 5.0434zm-2.4673-6.0277c.0703-1.2529.9971-2.3076 2.3778-2.3076 1.3296 0 2.2244.9716 2.2372 2.3076zm14.6484 1.7066c0 1.4958-1.0674 2.2373-2.0902 2.2373-1.1122 0-1.8536-.7863-1.8536-2.0327v-5.8935h-2.314v6.2514c0 2.3587 1.3424 3.6946 3.2728 3.6946 1.4701 0 2.5056-.7734 2.9531-1.8728h.1023v1.745h2.2436v-9.8182h-2.314zm12.0533-3.0937c-.3196-1.6619-1.6491-2.723-3.9502-2.723-2.3651 0-3.9759 1.1633-3.9695 2.9787-.0064 1.4318.8757 2.3778 2.7614 2.7677l1.6747.3516c.9013.1981 1.3231.5625 1.3231 1.1186 0 .6712-.7287 1.1761-1.8281 1.1761-1.0611 0-1.7514-.4602-1.9496-1.3423l-2.2564.2173c.2877 1.8026 1.8026 2.8701 4.2124 2.8701 2.4545 0 4.1868-1.2721 4.1932-3.1321-.0064-1.3999-.9077-2.2564-2.7614-2.6591l-1.6747-.358c-.9972-.2237-1.3935-.5689-1.3871-1.1378-.0064-.6647.7287-1.125 1.6939-1.125 1.0675 0 1.63.5817 1.809 1.2273z" fill="#fff"/><path d="m19 10.9999h-5v-5.99995c0-.3-.2-.6-.4-.8-.4-.3-1.1-.2-1.4.2l-8 10.99995c-.1.2-.2.4-.2.6 0 .6.4 1 1 1h5v6c0 .6.4 1 1 1 .3 0 .6-.2.8-.4l8-11c.1-.2.2-.4.2-.6 0-.6-.4-1-1-1z" fill="#ff4564"/></svg>