<svg fill="none" height="28" viewBox="0 0 70 28" width="70" xmlns="http://www.w3.org/2000/svg"><path d="m29.0483 21v-1.4766l6.7116-9.62638h-6.75v-1.98793h9.6904v1.47656l-6.7053 9.62645h6.7436v1.9879zm15.8294.1918c-.9844 0-1.8345-.2046-2.5504-.6137-.7117-.4133-1.2593-.9971-1.6428-1.7514-.3835-.7585-.5753-1.6513-.5753-2.6783 0-1.0099.1918-1.8963.5753-2.6591.3878-.767.929-1.3636 1.6236-1.7897.6946-.4304 1.5107-.6456 2.4482-.6456.6051 0 1.1761.098 1.713.294.5412.1918 1.0185.4901 1.4318.8949.4177.4048.7458.9205.9844 1.5469.2386.6221.358 1.3636.358 2.2244v.7095h-8.0476v-1.5596h5.8295c-.0042-.4432-.1001-.8374-.2876-1.1826-.1875-.3494-.4496-.6243-.7862-.8245-.3324-.2003-.7202-.3005-1.1634-.3005-.473 0-.8885.1151-1.2464.3452-.358.2259-.6371.5242-.8374.8949-.196.3665-.2962.7692-.3004 1.2081v1.3615c0 .571.1044 1.0611.3132 1.4702.2088.4048.5007.7159.8757.9332.375.2131.8139.3196 1.3168.3196.3366 0 .6413-.0469.914-.1406.2727-.098.5093-.2408.7095-.4283.2003-.1875.3516-.4197.4539-.6967l2.1605.2429c-.1364.571-.3963 1.0696-.7798 1.4957-.3793.4219-.8651.75-1.4574.9844-.5924.2301-1.2699.3452-2.0327.3452zm12.1811-4.3211v-5.6889h2.314v9.8182h-2.2436v-1.745h-.1023c-.2216.5497-.586.9993-1.0931 1.3487-.5028.3494-1.1228.5241-1.86.5241-.6435 0-1.2124-.1427-1.7067-.4282-.4901-.2898-.8736-.7095-1.1506-1.2593-.277-.5539-.4155-1.223-.4155-2.0071v-6.2514h2.314v5.8935c0 .6221.1704 1.1165.5113 1.4829.3409.3665.7884.5498 1.3423.5498.341 0 .6712-.0831.9908-.2493s.5817-.4134.7862-.7415c.2088-.3324.3132-.7479.3132-1.2465zm12.0533-3.0937-2.1093.2301c-.0597-.2131-.1641-.4133-.3132-.6009-.1449-.1874-.341-.3387-.5881-.4538-.2472-.115-.5497-.1726-.9077-.1726-.4815 0-.8863.1044-1.2145.3132-.3238.2088-.4836.4794-.4794.8118-.0042.2855.1002.5178.3132.6968.2174.1789.5753.326 1.0739.441l1.6747.358c.929.2003 1.6193.5177 2.071.9524.456.4346.6861 1.0035.6904 1.7067-.0043.6179-.1854 1.1633-.5433 1.6363-.3537.4688-.8459.8352-1.4766 1.0995-.6307.2642-1.3551.3963-2.1733.3963-1.2017 0-2.169-.2515-2.902-.7543-.7329-.5071-1.1697-1.2124-1.3104-2.1158l2.2564-.2173c.1023.4432.3196.7777.652 1.0036.3324.2258.7649.3387 1.2976.3387.5497 0 .9908-.1129 1.3232-.3387.3366-.2259.5049-.505.5049-.8374 0-.2813-.1086-.5135-.326-.6967-.213-.1833-.5454-.3239-.9971-.4219l-1.6747-.3516c-.9418-.196-1.6385-.5263-2.0902-.9907-.4517-.4688-.6755-1.0611-.6712-1.777-.0043-.6051.1598-1.1293.4922-1.5725.3366-.4474.8033-.7926 1.3998-1.0355.6009-.2471 1.2934-.3707 2.0775-.3707 1.1505 0 2.0561.245 2.7166.7351.6648.49 1.076 1.1527 1.2336 1.9879z" fill="#071263"/><path d="m19 11h-5v-5.99999c0-.3-.2-.6-.4-.8-.4-.3-1.1-.2-1.4.2l-8 10.99999c-.1.2-.2.4-.2.6 0 .6.4 1 1 1h5v6c0 .6.4 1 1 1 .3 0 .6-.2.8-.4l8-11c.1-.2.2-.4.2-.6 0-.6-.4-1-1-1z" fill="#ffcb33"/></svg>