<svg fill="none" height="32" viewBox="0 0 104 32" width="104" xmlns="http://www.w3.org/2000/svg"><g fill="#fff"><path d="m30.896 22.216c-.828 0-1.596-.156-2.304-.468s-1.32-.738-1.836-1.278l.9-1.044c.42.444.912.804 1.476 1.08.576.264 1.17.396 1.782.396.78 0 1.386-.174 1.818-.522.432-.36.648-.828.648-1.404 0-.3-.054-.552-.162-.756-.096-.216-.234-.396-.414-.54-.168-.156-.372-.294-.612-.414s-.498-.246-.774-.378l-1.692-.738c-.276-.12-.558-.264-.846-.432s-.546-.372-.774-.612-.414-.522-.558-.846c-.144-.336-.216-.72-.216-1.152 0-.444.09-.858.27-1.242.192-.384.45-.714.774-.99.336-.288.726-.51 1.17-.666.456-.156.954-.234 1.494-.234.708 0 1.362.138 1.962.414.6.264 1.11.612 1.53 1.044l-.81.972c-.36-.348-.762-.618-1.206-.81-.432-.204-.924-.306-1.476-.306-.66 0-1.194.156-1.602.468-.396.3-.594.72-.594 1.26 0 .288.054.534.162.738.12.192.276.366.468.522.192.144.402.276.63.396.228.108.462.21.702.306l1.674.72c.336.144.654.312.954.504.3.18.558.396.774.648.216.24.384.528.504.864.132.324.198.702.198 1.134 0 .468-.096.906-.288 1.314-.18.408-.444.768-.792 1.08-.348.3-.768.54-1.26.72-.492.168-1.05.252-1.674.252zm6.1952-.216v-12.816h1.476v3.492l-.054 1.8c.42-.396.858-.732 1.314-1.008.456-.288.99-.432 1.602-.432.924 0 1.596.288 2.016.864.432.576.648 1.428.648 2.556v5.544h-1.476v-5.346c0-.828-.132-1.422-.396-1.782-.264-.372-.684-.558-1.26-.558-.456 0-.858.114-1.206.342s-.744.564-1.188 1.008v6.336zm12.3471.216c-.936 0-1.62-.288-2.052-.864-.42-.576-.63-1.428-.63-2.556v-5.544h1.494v5.346c0 .828.126 1.428.378 1.8.264.36.684.54 1.26.54.456 0 .858-.114 1.206-.342.348-.24.732-.618 1.152-1.134v-6.21h1.476v8.748h-1.224l-.126-1.368h-.054c-.408.48-.84.864-1.296 1.152-.444.288-.972.432-1.584.432zm12.617-.216v-7.542h-3.654v7.542h-1.476v-7.542h-1.188v-1.116l1.188-.09v-1.152c0-.912.222-1.632.666-2.16.456-.528 1.14-.792 2.052-.792.288 0 .57.03.846.09.288.06.54.138.756.234l-.306 1.116c-.36-.156-.75-.234-1.17-.234-.432 0-.768.156-1.008.468-.24.3-.36.738-.36 1.314v1.116h3.654v-1.386c0-.9.204-1.608.612-2.124.42-.516 1.068-.774 1.944-.774.276 0 .534.03.774.09.252.048.48.114.684.198l-.324 1.134c-.324-.144-.654-.216-.99-.216-.816 0-1.224.564-1.224 1.692v1.386h1.854v1.206h-1.854v7.542zm6.5726.216c-.564 0-.966-.168-1.206-.504s-.36-.828-.36-1.476v-11.052h1.476v11.16c0 .24.042.408.126.504s.18.144.288.144h.126c.048 0 .114-.012.198-.036l.198 1.116c-.096.048-.21.084-.342.108s-.3.036-.504.036zm6.5679 0c-.588 0-1.14-.102-1.656-.306-.504-.216-.948-.516-1.332-.9-.372-.396-.666-.876-.882-1.44s-.324-1.206-.324-1.926.108-1.362.324-1.926c.228-.576.522-1.062.882-1.458.372-.396.792-.696 1.26-.9.468-.216.954-.324 1.458-.324.552 0 1.044.096 1.476.288.444.192.81.468 1.098.828.3.36.528.792.684 1.296s.234 1.068.234 1.692c0 .156-.006.312-.018.468 0 .144-.012.27-.036.378h-5.904c.06.936.348 1.68.864 2.232.528.54 1.212.81 2.052.81.42 0 .804-.06 1.152-.18.36-.132.702-.3 1.026-.504l.522.972c-.384.24-.81.45-1.278.63s-1.002.27-1.602.27zm-2.754-5.292h4.68c0-.888-.192-1.56-.576-2.016-.372-.468-.9-.702-1.584-.702-.312 0-.612.06-.9.18-.276.12-.528.3-.756.54-.228.228-.42.51-.576.846-.144.336-.24.72-.288 1.152zm16.0792 5.292c-.6 0-1.164-.084-1.692-.252-.516-.18-.966-.468-1.35-.864-.372-.408-.666-.936-.882-1.584s-.324-1.446-.324-2.394v-6.93h1.494v6.966c0 .708.072 1.302.216 1.782s.336.864.576 1.152c.252.288.546.498.882.63.336.12.696.18 1.08.18.396 0 .762-.06 1.098-.18.336-.132.63-.342.882-.63s.45-.672.594-1.152.216-1.074.216-1.782v-6.966h1.44v6.93c0 .948-.108 1.746-.324 2.394s-.516 1.176-.9 1.584c-.372.396-.816.684-1.332.864-.516.168-1.074.252-1.674.252zm5.8818-.216 3.438-6.102-3.204-5.706h1.656l1.602 3.024c.156.276.3.546.432.81.144.252.306.552.486.9h.072c.168-.348.312-.648.432-.9.132-.264.27-.534.414-.81l1.5662-3.024h1.584l-3.2222 5.778 3.4382 6.03h-1.656l-1.7282-3.186c-.156-.288-.318-.582-.486-.882-.156-.312-.33-.648-.522-1.008h-.072c-.168.36-.33.696-.486 1.008-.156.3-.306.594-.45.882l-1.71 3.186z"/><path d="m19 12.9999h-5v-5.99995c0-.3-.2-.6-.4-.8-.4-.3-1.1-.2-1.4.2l-8 10.99995c-.1.2-.2.4-.2.6 0 .6.4 1 1 1h5v6c0 .6.4 1 1 1 .3 0 .6-.2.8-.4l8-11c.1-.2.2-.4.2-.6 0-.6-.4-1-1-1z"/></g></svg>