<svg fill="none" height="32" viewBox="0 0 119 32" width="119" xmlns="http://www.w3.org/2000/svg" xmlns:xlink="http://www.w3.org/1999/xlink"><clipPath id="a"><path d="m0 0h118.343v32h-118.343z"/></clipPath><g clip-path="url(#a)"><path d="m16.2725 29.93c-1.7802.3126-3.5917.4063-5.4657.6559l-5.71585-16.7409v17.4594c-1.78023.1874-3.40433.4372-5.09095.6871v-31.98295508h4.7476l6.4964 18.14685508v-18.14685508h5.0285zm9.8386-18.2089c1.9366 0 4.9037-.0938 6.684-.0938v4.9973c-2.2177 0-4.8099 0-6.684.0937v7.4336c2.936-.1873 5.872-.4374 8.839-.5311v4.8096l-13.8365 1.0934v-29.51525508h13.8365v4.99734508h-8.839zm27.4228-6.7151h-5.1847v22.9877c-1.6866 0-3.3732 0-4.9971.0623v-23.05h-5.1847v-4.99745508h15.3667zm8.1206 6.3716h6.8402v4.9972h-6.8402v11.3378h-4.904v-27.70405508h13.9618v4.99734508h-9.0578zm17.1784 11.9622c2.8423.0623 5.7156.2813 8.4955.4372v4.935c-4.4663-.2813-8.9327-.562-13.4928-.656v-28.04745508h4.9973zm12.7119 5.7158c1.5929.0938 3.2795.1875 4.9036.3746v-29.42165508h-4.9036zm26.7982-29.04705508-6.34 15.21065508 6.34 16.7723c-1.874-.2499-3.748-.5935-5.622-.9059l-3.592-9.2448-3.654 8.4955c-1.812-.3126-3.561-.4063-5.372-.6562l6.434-14.6484-5.809-15.02315508h5.372l3.279 8.40178508 3.498-8.40178508z" fill="#758a99"/></g></svg>