<svg fill="none" height="32" viewBox="0 0 127 32" width="127" xmlns="http://www.w3.org/2000/svg" xmlns:xlink="http://www.w3.org/1999/xlink"><clipPath id="a"><path d="m0 0h126.462v32h-126.462z"/></clipPath><g clip-path="url(#a)" fill="#758a99"><path clip-rule="evenodd" d="m40.458 25.1963 1.5783-3.6674c1.7047 1.2747 3.9759 1.9374 6.2168 1.9374 1.6542 0 2.7013-.6374 2.7013-1.6035-.0253-2.7013-9.9096-.5868-9.9855-7.3601-.0253-3.4398 3.0301-6.09045 7.3601-6.09045 2.5748 0 5.1445.63737 6.9807 2.08915l-1.477 3.7433c-1.6795-1.0724-3.7686-1.8362-5.7566-1.8362-1.3506 0-2.2409.6373-2.2409 1.4517.0253 2.6507 9.9854 1.1989 10.0866 7.6687 0 3.5157-2.9794 5.9893-7.2589 5.9893-3.1363-.0051-6.0146-.7436-8.2049-2.3219zm60.606-4.9927c-.789 1.3759-2.2664 2.3168-3.9762 2.3168-2.5242 0-4.5577-2.0386-4.5577-4.5577 0-2.5192 2.0386-4.5577 4.5577-4.5577 1.7047 0 3.1872.9409 3.9762 2.3168l4.355-2.418c-1.629-2.9036-4.765-4.89155-8.3312-4.89155-5.276 0-9.5555 4.27945-9.5555 9.55545s4.2795 9.5555 9.5555 9.5555c3.5912 0 6.7022-1.9627 8.3312-4.8915zm-42.9519-19.718004h5.4531v26.673404h-5.4531zm49.4469 0v26.673404h5.453v-8.0025l6.47 8.0025h6.98l-8.23-9.5049 7.618-8.86752h-6.677l-6.166 7.36012v-15.661104z" fill-rule="evenodd"/><path d="m79.7675 20.2542c-.7891 1.3-2.418 2.2662-4.2542 2.2662-2.5242 0-4.5577-2.0386-4.5577-4.5577s2.0386-4.5577 4.5577-4.5577c1.8362 0 3.4651 1.0168 4.2542 2.3421zm0-11.46253v2.16503c-.8903-1.50237-3.1059-2.54947-5.4278-2.54947-4.7904 0-8.5589 4.22887-8.5589 9.53017s3.7685 9.5808 8.5589 9.5808c2.3168 0 4.5324-1.042 5.4278-2.5495v2.1651h5.453v-18.34213z"/><g clip-rule="evenodd" fill-rule="evenodd"><path d="m6.75318 20.2289c0 1.8615-1.50237 3.3639-3.36389 3.3639-1.86153 0-3.3638994-1.5074-3.3638994-3.3639s1.5023694-3.3639 3.3638994-3.3639h3.36389zm1.67942 0c0-1.8615 1.50237-3.3639 3.3639-3.3639 1.8615 0 3.3639 1.5024 3.3639 3.3639v8.4072c0 1.8615-1.5024 3.3639-3.3639 3.3639-1.86153 0-3.3639-1.5024-3.3639-3.3639z"/><path d="m11.7964 6.72779c-1.86153 0-3.3639-1.50237-3.3639-3.36389 0-1.86153 1.50237-3.3639 3.3639-3.3639 1.8615 0 3.3639 1.50237 3.3639 3.3639v3.36389zm0 1.70471c1.8615 0 3.3639 1.50237 3.3639 3.3639 0 1.8615-1.5024 3.3639-3.3639 3.3639h-8.4325c-1.86153 0-3.3639-1.5074-3.3639-3.3639 0-1.85647 1.50237-3.3639 3.3639-3.3639z"/><path d="m25.2724 11.7964c0-1.86153 1.5024-3.3639 3.3639-3.3639 1.8616 0 3.3639 1.50237 3.3639 3.3639 0 1.8615-1.5023 3.3639-3.3639 3.3639h-3.3639zm-1.6794 0c0 1.8615-1.5023 3.3639-3.3639 3.3639-1.8615 0-3.3639-1.5024-3.3639-3.3639v-8.4325c0-1.86153 1.5024-3.3639 3.3639-3.3639 1.8616 0 3.3639 1.50237 3.3639 3.3639z"/><path d="m20.2291 25.2722c1.8616 0 3.3639 1.5024 3.3639 3.3639s-1.5023 3.3639-3.3639 3.3639c-1.8615 0-3.3639-1.5024-3.3639-3.3639v-3.3639zm0-1.6794c-1.8615 0-3.3639-1.5024-3.3639-3.3639s1.5024-3.3639 3.3639-3.3639h8.4325c1.8616 0 3.3639 1.5024 3.3639 3.3639s-1.5023 3.3639-3.3639 3.3639z"/></g></g></svg>