<svg fill="none" height="32" viewBox="0 0 107 32" width="107" xmlns="http://www.w3.org/2000/svg" xmlns:xlink="http://www.w3.org/1999/xlink"><clipPath id="a"><path d="m0 0h106.693v32h-106.693z"/></clipPath><g clip-path="url(#a)"><path d="m15.9999.00001907c-8.83631 0-15.9999 7.16339093-15.9999 15.99968093 0 8.8373 7.16359 16.0003 15.9999 16.0003 8.8367 0 15.9999-7.163 15.9999-16.0003 0-8.83572-7.1628-15.99891727-16.0001-15.99891727zm7.3375 23.07618093c-.2874.4713-.9015.619-1.3713.3319-3.7572-2.2964-8.4863-2.8151-14.05567-1.5428-.53669.123-1.07165-.2135-1.19392-.75-.12286-.5366.21206-1.0716.75009-1.1939 6.0948-1.3934 11.3228-.7936 15.54 1.7834.47.2885.619.9018.3306 1.3718zm1.9583-4.356c-.3619.5872-1.1295.7713-1.7159.4108-4.2998-2.6431-10.8564-3.4087-15.94334-1.8645-.65974.1992-1.35653-.1726-1.55676-.8311-.1987-.6598.1733-1.3552.83188-1.5559 5.81072-1.763 13.03422-.909 17.97312 2.126.5866.3611.7719 1.1291.4108 1.7149zm.1681-4.5365c-5.1574-3.0629-13.6646-3.3445-18.58797-1.8502-.79059.2398-1.62667-.2066-1.86626-.9972-.23959-.7909.20634-1.62645.99752-1.86681 5.65171-1.7157 15.04711-1.38422 20.98411 2.14021.7111.4221.9444 1.3405.5229 2.0507-.4203.7111-1.3413.9455-2.0501.5233zm18.0666.5869c-2.7625-.6587-3.2543-1.1211-3.2543-2.0926 0-.9179.8642-1.5356 2.1492-1.5356 1.2458 0 2.4809.4691 3.776 1.4347.0391.0292.0882.0409.1366.0332.0483-.0072.0911-.0338.1194-.0737l1.3489-1.9014c.0554-.0784.0403-.1863-.0344-.2461-1.5413-1.23676-3.2769-1.83803-5.3055-1.83803-2.9829 0-5.0664 1.79003-5.0664 4.35123 0 2.7465 1.7973 3.7189 4.9032 4.4696 2.6435.6089 3.0896 1.1191 3.0896 2.031 0 1.0105-.9022 1.6387-2.354 1.6387-1.6126 0-2.9278-.5432-4.3992-1.8174-.0365-.0315-.0865-.0458-.1328-.0431-.0487.004-.0932.0265-.1242.0638l-1.5124 1.8c-.0634.0746-.0554.1862.018.2508 1.7119 1.5283 3.8173 2.3355 6.0894 2.3355 3.2142 0 5.2912-1.7562 5.2912-4.4744.0058-2.2946-1.3679-3.5652-4.7325-4.3837zm12.01-2.7245c-1.3932 0-2.5359.5488-3.4782 1.6731v-1.2655c0-.1-.081-.1814-.1807-.1814h-2.4737c-.0999 0-.1807.0814-.1807.1814v14.0623c0 .0999.0808.1813.1807.1813h2.4737c.0997 0 .1807-.0813.1807-.1813v-4.4389c.9425 1.0577 2.0854 1.5746 3.4782 1.5746 2.5887 0 5.2093-1.9928 5.2093-5.8021.0038-3.8103-2.6175-5.8037-5.2064-5.8037zm2.3329 5.8035c0 1.9398-1.1949 3.2935-2.9059 3.2935-1.6914 0-2.9673-1.4152-2.9673-3.2935 0-1.8781 1.2759-3.2935 2.9673-3.2935 1.6833-.0002 2.9061 1.3846 2.9061 3.2933zm9.5931-5.8035c-3.3338 0-5.9456 2.5671-5.9456 5.8449 0 3.2421 2.5938 5.7822 5.9047 5.7822 3.3456 0 5.9655-2.5584 5.9655-5.8236 0-3.254-2.6023-5.8031-5.9248-5.8031zm0 9.1162c-1.7732 0-3.1101-1.4247-3.1101-3.3137 0-1.897 1.2906-3.2736 3.0692-3.2736 1.7847 0 3.1305 1.4247 3.1305 3.3151 0 1.8966-1.2992 3.2722-3.0894 3.2722zm13.0436-8.8899h-2.722v-2.78303c0-.09973-.0806-.18112-.1806-.18112h-2.4732c-.1001 0-.1813.08139-.1813.18112v2.78303h-1.1894c-.0995 0-.1802.0813-.1802.1813v2.1259c0 .0997.0807.1813.1802.1813h1.1894v5.5008c0 2.223 1.1064 3.35 3.2885 3.35.8873 0 1.6234-.1832 2.3172-.5766.0563-.0315.0913-.0923.0913-.1568v-2.0245c0-.0625-.0325-.1215-.086-.1542-.0539-.0338-.1209-.0355-.1762-.0082-.4765.2398-.9371.3504-1.452.3504-.7937 0-1.1477-.3603-1.1477-1.1679v-5.112h2.722c.0999 0 .1804-.0814.1804-.1813v-2.1258c.0038-.0999-.0764-.1813-.1777-.1813zm9.4842.0108v-.3418c0-1.0055.3856-1.4539 1.2503-1.4539.5157 0 .9299.1024 1.3938.2571.0571.018.1167.009.1632-.0252.0477-.0342.0747-.089.0747-.1471v-2.08447c0-.07968-.0512-.15017-.128-.17368-.4901-.14578-1.1172-.29538-2.056-.29538-2.2847 0-3.4924 1.2866-3.4924 3.71933v.5235h-1.1884c-.0997 0-.1815.0814-.1815.1812v2.1368c0 .0997.0818.1813.1815.1813h1.1884v8.4847c0 .1.0806.1814.1804.1814h2.4736c.0999 0 .1813-.0814.1813-.1814v-8.4841h2.3096l3.5378 8.4826c-.4016.8913-.7965 1.0686-1.3357 1.0686-.4358 0-.8947-.1301-1.364-.3869-.0441-.0242-.0965-.0282-.144-.0135-.0472.0166-.087.0517-.107.0976l-.8384 1.8393c-.0399.087-.0057.189.078.2341.8752.474 1.6653.6763 2.6418.6763 1.8265 0 2.836-.8508 3.726-3.1397l4.2918-11.0891c.021-.0557.015-.1188-.02-.1683-.034-.0491-.088-.0787-.148-.0787h-2.575c-.078 0-.1467.0491-.1719.1215l-2.6379 7.535-2.8894-7.5399c-.0263-.0702-.094-.1166-.1689-.1166h-4.2262zm-5.4987-.0108h-2.4736c-.0999 0-.1813.0813-.1813.1813v10.792c0 .0999.0814.1813.1813.1813h2.4736c.0998 0 .1813-.0814.1813-.1813v-10.7913c.0001-.0238-.0046-.0474-.0137-.0695-.0091-.022-.0225-.042-.0393-.0589-.0169-.0168-.0369-.0302-.059-.0393-.022-.009-.0456-.0137-.0695-.0136zm-1.2228-4.91391c-.9799 0-1.7751.79327-1.7751 1.77322 0 .98049.7954 1.77479 1.7752 1.77479.9795 0 1.7739-.7943 1.7739-1.77479 0-.97976-.7948-1.77322-1.773-1.77322zm21.6703 8.38371c-.979 0-1.741-.7862-1.741-1.741 0-.9547.772-1.7499 1.75-1.7499.979 0 1.741.786 1.741 1.74 0 .9547-.772 1.7509-1.75 1.7509zm.009-3.3178c-.891 0-1.566.7089-1.566 1.5768 0 .8676.67 1.5669 1.557 1.5669.892 0 1.567-.7082 1.567-1.5768 0-.8676-.67-1.5669-1.557-1.5669zm.386 1.7459.493.6894h-.416l-.443-.6324h-.381v.6324h-.348v-1.8273h.815c.425 0 .704.2172.704.5829.002.2996-.172.4826-.422.555zm-.294-.8244h-.453v.578h.453c.226 0 .361-.1107.361-.2893 0-.188-.135-.2887-.361-.2887z" fill="#7989a0"/></g></svg>