<svg fill="none" height="32" viewBox="0 0 107 32" width="107" xmlns="http://www.w3.org/2000/svg" xmlns:xlink="http://www.w3.org/1999/xlink"><clipPath id="a"><path d="m0 0h106.693v32h-106.693z"/></clipPath><g clip-path="url(#a)"><path d="m15.9999 0c-8.83631 0-15.9999 7.16339-15.9999 15.9997 0 8.8373 7.16359 16.0003 15.9999 16.0003 8.8367 0 15.9999-7.163 15.9999-16.0003 0-8.83574-7.1628-15.99893635-16.0001-15.99893635zm7.3375 23.0762c-.2874.4713-.9015.619-1.3713.3318-3.7572-2.2963-8.4863-2.815-14.05567-1.5428-.53669.1231-1.07165-.2134-1.19392-.7499-.12286-.5367.21206-1.0716.75009-1.1939 6.0948-1.3934 11.3228-.7937 15.54 1.7833.47.2886.619.9019.3306 1.3719zm1.9583-4.356c-.3619.5871-1.1295.7713-1.7159.4108-4.2998-2.6431-10.8564-3.4087-15.94334-1.8646-.65974.1993-1.35653-.1725-1.55676-.8311-.1987-.6597.1733-1.3552.83188-1.5558 5.81072-1.7631 13.03422-.909 17.97312 2.126.5866.3611.7719 1.1291.4108 1.7149zm.1681-4.5365c-5.1574-3.0629-13.6646-3.3445-18.58797-1.8502-.79059.2397-1.62667-.2066-1.86626-.9972-.23959-.791.20634-1.62647.99752-1.86682 5.65171-1.71571 15.04711-1.38423 20.98411 2.14022.7111.4221.9444 1.3405.5229 2.0507-.4203.7111-1.3413.9455-2.0501.5233zm18.0666.5869c-2.7625-.6588-3.2543-1.1211-3.2543-2.0927 0-.9178.8642-1.5355 2.1492-1.5355 1.2458 0 2.4809.4691 3.776 1.4347.0391.0292.0882.0408.1366.0332.0483-.0072.0911-.0338.1194-.0737l1.3489-1.9015c.0554-.0783.0403-.1862-.0344-.2461-1.5413-1.23668-3.2769-1.83795-5.3055-1.83795-2.9829 0-5.0664 1.79005-5.0664 4.35125 0 2.7464 1.7973 3.7189 4.9032 4.4696 2.6435.6089 3.0896 1.119 3.0896 2.031 0 1.0105-.9022 1.6387-2.354 1.6387-1.6126 0-2.9278-.5432-4.3992-1.8174-.0365-.0315-.0865-.0458-.1328-.0432-.0487.0041-.0932.0266-.1242.0639l-1.5124 1.7999c-.0634.0747-.0554.1863.018.2509 1.7119 1.5283 3.8173 2.3355 6.0894 2.3355 3.2142 0 5.2912-1.7562 5.2912-4.4744.0058-2.2946-1.3679-3.5652-4.7325-4.3837zm12.01-2.7245c-1.3932 0-2.5359.5487-3.4782 1.6731v-1.2656c0-.0999-.081-.1813-.1807-.1813h-2.4737c-.0999 0-.1807.0814-.1807.1813v14.0624c0 .0999.0808.1813.1807.1813h2.4737c.0997 0 .1807-.0814.1807-.1813v-4.4389c.9425 1.0577 2.0854 1.5745 3.4782 1.5745 2.5887 0 5.2093-1.9927 5.2093-5.8021.0038-3.8103-2.6175-5.8036-5.2064-5.8036zm2.3329 5.8034c0 1.9399-1.1949 3.2935-2.9059 3.2935-1.6914 0-2.9673-1.4151-2.9673-3.2935 0-1.8781 1.2759-3.2934 2.9673-3.2934 1.6833-.0002 2.9061 1.3846 2.9061 3.2932zm9.5931-5.8034c-3.3338 0-5.9456 2.5671-5.9456 5.8449 0 3.2421 2.5938 5.7822 5.9047 5.7822 3.3456 0 5.9655-2.5585 5.9655-5.8237 0-3.2539-2.6023-5.803-5.9248-5.803zm0 9.1162c-1.7732 0-3.1101-1.4247-3.1101-3.3137 0-1.8971 1.2906-3.2736 3.0692-3.2736 1.7847 0 3.1305 1.4247 3.1305 3.315 0 1.8967-1.2992 3.2723-3.0894 3.2723zm13.0436-8.89h-2.722v-2.78295c0-.09973-.0806-.18112-.1806-.18112h-2.4732c-.1001 0-.1813.08139-.1813.18112v2.78295h-1.1894c-.0995 0-.1802.0814-.1802.1813v2.126c0 .0997.0807.1813.1802.1813h1.1894v5.5008c0 2.2229 1.1064 3.35 3.2885 3.35.8873 0 1.6234-.1832 2.3172-.5766.0563-.0315.0913-.0923.0913-.1569v-2.0244c0-.0625-.0325-.1215-.086-.1542-.0539-.0338-.1209-.0355-.1762-.0082-.4765.2398-.9371.3504-1.452.3504-.7937 0-1.1477-.3604-1.1477-1.168v-5.112h2.722c.0999 0 .1804-.0813.1804-.1813v-2.1257c.0038-.0999-.0764-.1813-.1777-.1813zm9.4842.0109v-.3418c0-1.0055.3856-1.454 1.2503-1.454.5157 0 .9299.1024 1.3938.2572.0571.018.1167.009.1632-.0252.0477-.0342.0747-.089.0747-.1471v-2.08449c0-.07968-.0512-.15017-.128-.17368-.4901-.14578-1.1172-.29538-2.056-.29538-2.2847 0-3.4924 1.2866-3.4924 3.71935v.5235h-1.1884c-.0997 0-.1815.0814-.1815.1811v2.1369c0 .0997.0818.1813.1815.1813h1.1884v8.4847c0 .0999.0806.1813.1804.1813h2.4736c.0999 0 .1813-.0814.1813-.1813v-8.4841h2.3096l3.5378 8.4826c-.4016.8913-.7965 1.0686-1.3357 1.0686-.4358 0-.8947-.1301-1.364-.3869-.0441-.0243-.0965-.0283-.144-.0136-.0472.0167-.087.0518-.107.0977l-.8384 1.8393c-.0399.0869-.0057.189.078.2341.8752.474 1.6653.6763 2.6418.6763 1.8265 0 2.836-.8508 3.726-3.1397l4.2918-11.0891c.021-.0558.015-.1188-.02-.1683-.034-.0491-.088-.0787-.148-.0787h-2.575c-.078 0-.1467.0491-.1719.1215l-2.6379 7.535-2.8894-7.54c-.0263-.0701-.094-.1165-.1689-.1165h-4.2262zm-5.4987-.0109h-2.4736c-.0999 0-.1813.0814-.1813.1813v10.792c0 .1.0814.1813.1813.1813h2.4736c.0998 0 .1813-.0813.1813-.1813v-10.7912c.0001-.0238-.0046-.0475-.0137-.0695s-.0225-.0421-.0393-.0589c-.0169-.0169-.0369-.0302-.059-.0393-.022-.0091-.0456-.0137-.0695-.0136zm-1.2228-4.91383c-.9799 0-1.7751.79327-1.7751 1.77322 0 .98051.7954 1.77481 1.7752 1.77481.9795 0 1.7739-.7943 1.7739-1.77481 0-.97976-.7948-1.77322-1.773-1.77322zm21.6703 8.38373c-.979 0-1.741-.7863-1.741-1.741s.772-1.7499 1.75-1.7499c.979 0 1.741.786 1.741 1.74 0 .9547-.772 1.7509-1.75 1.7509zm.009-3.3178c-.891 0-1.566.7088-1.566 1.5768 0 .8676.67 1.5669 1.557 1.5669.892 0 1.567-.7082 1.567-1.5768 0-.8676-.67-1.5669-1.557-1.5669zm.386 1.7459.493.6894h-.416l-.443-.6325h-.381v.6325h-.348v-1.8273h.815c.425 0 .704.2172.704.5829.002.2996-.172.4826-.422.555zm-.294-.8244h-.453v.578h.453c.226 0 .361-.1107.361-.2893 0-.188-.135-.2887-.361-.2887z" fill="#758a99"/></g></svg>