<svg fill="none" height="32" viewBox="0 0 77 32" width="77" xmlns="http://www.w3.org/2000/svg" xmlns:xlink="http://www.w3.org/1999/xlink"><clipPath id="a"><path d="m0 0h76.555v32h-76.555z"/></clipPath><g clip-path="url(#a)"><path d="m5.38008 12.484c0-.8292.68048-1.1483 1.80772-1.1483 1.61603 0 3.6574.4892 5.2736 1.3611v-4.99749c-1.7649-.70171-3.50865-.97817-5.2736-.97817-4.31699 0-7.1878 2.25419-7.1878 6.01826 0 5.869 8.08074 4.9334 8.08074 7.4641 0 .978-.85048 1.2971-2.04142 1.2971-1.76495 0-4.01913-.7231-5.805468-1.7013v5.0612c1.977718.8506 3.976678 1.212 5.805468 1.212 4.42318 0 7.46408-2.1902 7.46408-5.9967-.0212-6.337-8.12332-5.2101-8.12332-7.5918zm14.37532-10.01585-5.1887 1.10571-.0212 17.03354c0 3.1474 2.3605 5.4651 5.5077 5.4651 1.7437 0 3.0196-.3189 3.7213-.7017v-4.3168c-.6803.2764-4.0404 1.2546-4.0404-1.8927v-7.5492h4.0404v-4.52942h-4.0404zm10.6328 6.1881-.3404-1.57357h-4.5933v18.60702h5.3164v-12.6102c1.2545-1.6374 3.3812-1.3397 4.0404-1.1058v-4.89102c-.6805-.25523-3.1685-.72308-4.4231 1.57357zm5.7202-1.57357h5.3376v18.60702h-5.3376zm0-1.61618 5.3376-1.14832v-4.31683723l-5.3376 1.12709723v4.33791zm16.4381 1.25464c-2.084 0-3.4237.97817-4.1679 1.65879l-.2766-1.31848h-4.6783v24.79515l5.3163-1.1269.0214-6.0181c.7655.5529 1.8925 1.3397 3.7639 1.3397 3.8065 0 7.2727-3.0622 7.2727-9.8032-.0212-6.1671-3.5301-9.52696-7.2515-9.52696zm-1.2759 14.65176c-1.2546 0-1.9991-.4465-2.5092-.9994l-.0214-7.8895c.5529-.6166 1.3185-1.0419 2.5306-1.0419 1.9351 0 3.2749 2.169 3.2749 4.9547 0 2.8496-1.3185 4.9761-3.2749 4.9761zm25.2844-4.9122c0-5.444-2.6369-9.73956-7.6767-9.73956-5.0613 0-8.1235 4.29576-8.1235 9.69706 0 6.4007 3.6153 9.6331 8.8038 9.6331 2.5307 0 4.4445-.5742 5.8906-1.3822v-4.2531c-1.4459.7231-3.1047 1.1697-5.21 1.1697-2.0628 0-3.8916-.7231-4.1254-3.2324h10.3988c0-.2766.0424-1.3823.0424-1.8926zm-10.5051-2.0202c0-2.403 1.4674-3.4025 2.8072-3.4025 1.2971 0 2.6794.9995 2.6794 3.4025z" fill="#758a99"/></g></svg>