<svg fill="none" height="32" viewBox="0 0 77 32" width="77" xmlns="http://www.w3.org/2000/svg" xmlns:xlink="http://www.w3.org/1999/xlink"><clipPath id="a"><path d="m0 0h76.555v32h-76.555z"/></clipPath><g clip-path="url(#a)"><path d="m5.38008 12.484c0-.8293.68048-1.1484 1.80772-1.1484 1.61603 0 3.6574.4893 5.2736 1.3611v-4.99742c-1.7649-.70171-3.50865-.97817-5.2736-.97817-4.31699 0-7.1878 2.25418-7.1878 6.01819 0 5.8691 8.08074 4.9335 8.08074 7.4642 0 .978-.85048 1.2971-2.04142 1.2971-1.76495 0-4.01913-.7231-5.805468-1.7013v5.0612c1.977718.8506 3.976678 1.212 5.805468 1.212 4.42318 0 7.46408-2.1902 7.46408-5.9967-.0212-6.3371-8.12332-5.2101-8.12332-7.5918zm14.37532-10.01588-5.1887 1.10571-.0212 17.03347c0 3.1474 2.3605 5.4652 5.5077 5.4652 1.7437 0 3.0196-.3189 3.7213-.7017v-4.3169c-.6803.2765-4.0404 1.2547-4.0404-1.8926v-7.5492h4.0404v-4.52945h-4.0404zm10.6328 6.18809-.3404-1.57356h-4.5933v18.60705h5.3164v-12.6102c1.2545-1.6374 3.3812-1.3397 4.0404-1.1059v-4.89095c-.6805-.25523-3.1685-.72309-4.4231 1.57356zm5.7202-1.57356h5.3376v18.60705h-5.3376zm0-1.61618 5.3376-1.14832v-4.31684061l-5.3376 1.12709061v4.33792zm16.4381 1.25464c-2.084 0-3.4237.97817-4.1679 1.65879l-.2766-1.31848h-4.6783v24.79518l5.3163-1.127.0214-6.0181c.7655.553 1.8925 1.3397 3.7639 1.3397 3.8065 0 7.2727-3.0622 7.2727-9.8032-.0212-6.167-3.5301-9.52689-7.2515-9.52689zm-1.2759 14.65179c-1.2546 0-1.9991-.4465-2.5092-.9994l-.0214-7.8895c.5529-.6167 1.3185-1.0419 2.5306-1.0419 1.9351 0 3.2749 2.169 3.2749 4.9547 0 2.8496-1.3185 4.9761-3.2749 4.9761zm25.2844-4.9123c0-5.4439-2.6369-9.73949-7.6767-9.73949-5.0613 0-8.1235 4.29579-8.1235 9.69709 0 6.4007 3.6153 9.633 8.8038 9.633 2.5307 0 4.4445-.5741 5.8906-1.3821v-4.2532c-1.4459.7231-3.1047 1.1697-5.21 1.1697-2.0628 0-3.8916-.723-4.1254-3.2323h10.3988c0-.2766.0424-1.3823.0424-1.8927zm-10.5051-2.0201c0-2.403 1.4674-3.4026 2.8072-3.4026 1.2971 0 2.6794.9996 2.6794 3.4026z" fill="#6e7e95"/></g></svg>