<svg height="24" viewBox="0 0 24 24" width="24" xmlns="http://www.w3.org/2000/svg"><g fill="none" fill-rule="evenodd"><path d="m0 0h24v24h-24z"/><g fill="#335eea"><rect height="18" opacity=".3" rx="2" width="20" x="2" y="3"/><path d="m9.949 13.316a1 1 0 0 1 -.949.684h-4a1 1 0 0 1 0-2h3.28l1.771-5.316c.317-.95 1.676-.897 1.92.073l1.844 7.378.79-1.582a1 1 0 0 1 .895-.553h3.5a1 1 0 0 1 0 2h-2.882l-1.724 3.447c-.415.83-1.639.696-1.864-.204l-1.667-6.669z"/><circle cx="19" cy="6" opacity=".3" r="1"/></g></g></svg>