<svg enable-background="new 0 0 1000 401.149" height="401.149" viewBox="0 0 1000 401.149" width="1000" xmlns="http://www.w3.org/2000/svg"><g fill="#fff"><path d="m0 373.217h194.433v27.833h-194.433z"/><path d="m0 319.83h194.433v27.931h-194.433z"/><path d="m55.468 266.541h83.399v27.932h-83.399z"/><path d="m55.468 213.253h83.399v27.932h-83.399z"/><path d="m55.468 159.964h83.399v27.932h-83.399z"/><path d="m55.468 106.577h83.399v27.932h-83.399z"/><path d="m0 53.288h194.433v27.932h-194.433z"/><path d="m0 0h194.433v27.932h-194.433z"/><path d="m222.167 347.761h299.029c5.051-8.617 8.815-18.027 11.094-27.932h-310.123z"/><path d="m497.92 213.253h-220.186v27.932h243.463c-6.34-10.698-14.165-20.107-23.277-27.932z"/><path d="m277.734 159.964v27.932h220.186c9.311-7.825 17.135-17.235 23.277-27.932z"/><path d="m521.197 53.288h-299.03v27.932h310.123c-2.575-9.905-6.339-19.314-11.093-27.932z"/><path d="m429.279 0h-207.112v27.932h278.526c-18.621-17.235-43.878-27.932-71.414-27.932z"/><path d="m277.734 106.577h83.3v27.932h-83.3z"/><path d="m444.433 134.509h87.163c2.476-8.914 3.764-18.324 3.764-27.932h-90.927z"/><path d="m277.734 266.541h83.3v27.932h-83.3z"/><path d="m444.433 266.541v27.932h90.927c0-9.608-1.288-19.017-3.764-27.932z"/><path d="m222.167 400.852 207.112.297c27.734 0 52.793-10.697 71.513-27.932h-278.625z"/><path d="m555.567 373.217h138.866v27.833h-138.866z"/><path d="m555.567 319.83h138.866v27.931h-138.866z"/><path d="m611.034 266.541h83.399v27.932h-83.399z"/><path d="m611.034 213.253h83.399v27.932h-83.399z"/><path d="m733.063 53.288h-177.496v27.932h187.103z"/><path d="m714.639 0h-159.072v27.932h168.68z"/><path d="m861.034 373.217h138.966v27.833h-138.966z"/><path d="m861.034 319.83h138.966v27.931h-138.966z"/><path d="m861.034 266.541h83.399v27.932h-83.399z"/><path d="m861.034 213.253h83.399v27.932h-83.399z"/><path d="m861.034 187.896h83.399v-27.932h-83.399-75.475l-7.825 22.584-7.825-22.584h-75.476-83.399v27.932h83.399v-25.654l8.816 25.654h148.97l8.815-25.654z"/><path d="m944.433 106.577h-140.451l-9.608 27.932h150.059z"/><path d="m840.927 0-9.608 27.932h168.681v-27.932z"/><path d="m777.734 400.852 9.607-27.635h-19.215z"/><path d="m759.311 347.761h36.846l9.905-27.931h-56.557z"/><path d="m740.59 294.473h74.287l9.806-27.932h-93.899z"/><path d="m721.969 241.185h111.628l9.509-27.932h-130.745z"/><path d="m611.034 134.509h150.059l-9.607-27.932h-140.452z"/><path d="m812.896 81.22h187.104v-27.932h-177.595z"/></g></svg>