<svg enable-background="new -153 -46 652 652" viewBox="-153 -46 652 652" xmlns="http://www.w3.org/2000/svg"><path d="m-116 284.6c-5.1-5.1-5.1-13.4 0-18.5s13.4-5.1 18.5 0c3.4 3.4 4.7 8.4 3.3 13-.1.3 0 .6.2.8l6.4 6.4c.3.3.8.3 1.1 0 .1-.1.1-.1.2-.2 6-11.3 1.7-25.3-9.6-31.3s-25.3-1.7-31.3 9.6-1.7 25.3 9.6 31.3c6.8 3.6 14.9 3.6 21.7 0 .4-.2.5-.7.3-1.1 0-.1-.1-.1-.2-.2l-6.5-6.4c-.2-.2-.5-.3-.8-.2-4.5 1.5-9.5.2-12.9-3.2z" fill="#0f69a0"/><path d="m-115.9 315.6c5.1-5.1 13.4-5.1 18.5 0s5.1 13.4 0 18.5c-3.4 3.4-8.4 4.7-13 3.3-.3-.1-.6 0-.8.2l-6.4 6.4c-.3.3-.3.8 0 1.2.1.1.1.1.2.1 11.3 6 25.3 1.7 31.3-9.6s1.7-25.3-9.6-31.3-25.3-1.7-31.3 9.6c-3.6 6.8-3.6 14.9 0 21.7.2.4.7.5 1.1.3.1 0 .1-.1.2-.2l6.4-6.4c.2-.2.3-.5.2-.8-1.5-4.6-.2-9.6 3.2-13z" fill="#1d2d5c"/><path d="m-56.9 337.9c-7.2 0-13.1-5.8-13.1-13s5.8-13.1 13-13.1c4.8 0 9.3 2.6 11.5 6.9.1.3.4.4.7.4h9.1c.5 0 .8-.4.8-.8 0-.1 0-.2 0-.2-3.7-12.2-16.7-19.1-28.9-15.3s-19.1 16.7-15.3 28.9c3.7 12.2 16.7 19.1 28.9 15.3 7.3-2.3 13.1-8 15.3-15.3.1-.4-.1-.9-.6-1-.1 0-.1 0-.2 0h-9.1c-.3 0-.6.2-.7.4-2.2 4.2-6.6 6.8-11.4 6.8z" fill="#0f69a0"/><path d="m-70 275.4c0-7.2 5.8-13.1 13-13.1s13.1 5.8 13.1 13c0 4.8-2.6 9.2-6.9 11.5-.3.1-.4.4-.4.7v9.1c0 .4.4.8.8.8h.2c12.2-3.7 19.1-16.7 15.3-28.9-3.7-12.2-16.7-19.1-28.9-15.3s-19.1 16.7-15.3 28.9c2.3 7.3 8 13.1 15.3 15.3.4.1.9-.1 1-.6 0-.1 0-.2 0-.2v-9.1c0-.3-.2-.6-.4-.7-4.1-2.2-6.8-6.6-6.8-11.4z" fill="#00a4e4"/><path d="m-93.7 225.9c0 7.2-5.8 13.1-13.1 13.1-7.2 0-13.1-5.8-13.1-13.1 0-4.8 2.6-9.2 6.9-11.5.3-.1.4-.4.4-.7v-9.1c0-.4-.3-.8-.8-.8-.1 0-.2 0-.2 0-12.2 3.7-19.1 16.7-15.3 28.9 3.7 12.2 16.7 19.1 28.9 15.3s19.1-16.7 15.3-28.9c-2.3-7.3-8-13.1-15.3-15.3-.4-.1-.9.1-1 .6v.2 9.1c0 .3.2.6.4.7 4.3 2.3 6.9 6.7 6.9 11.5z" fill="#00a4e4"/><path d="m2.1 315.6c5.1 5.1 5.1 13.4 0 18.5s-13.4 5.1-18.5 0c-3.4-3.4-4.7-8.4-3.3-13 .1-.3 0-.6-.2-.8l-6.4-6.5c-.3-.3-.8-.3-1.2 0-.1.1-.1.1-.1.2-6 11.3-1.7 25.3 9.6 31.3s25.3 1.7 31.3-9.6 1.7-25.3-9.6-31.3c-6.8-3.6-14.9-3.6-21.7 0-.4.2-.5.7-.3 1.1 0 .1.1.1.2.2l6.4 6.4c.2.2.5.3.8.2 4.6-1.3 9.6-.1 13 3.3z" fill="#00a4e4"/><path d="m2.1 284.6c-5.1 5.1-13.4 5.1-18.5 0s-5.1-13.4 0-18.5c3.4-3.4 8.4-4.7 13-3.3.3.1.6 0 .8-.2l6.4-6.4c.3-.3.3-.9 0-1.2 0 0-.1-.1-.2-.1-11.3-6-25.3-1.7-31.3 9.6s-1.7 25.3 9.6 31.3 25.3 1.7 31.3-9.6c3.6-6.8 3.6-14.9 0-21.7-.2-.4-.7-.6-1.1-.3-.1 0-.1.1-.2.1l-6.4 6.4c-.2.2-.3.5-.2.8 1.4 4.7.2 9.7-3.2 13.1z" fill="#36ac91"/><path d="m-6.9 239c-7.2 0-13.1-5.8-13.1-13s5.8-13.1 13-13.1c4.8 0 9.2 2.6 11.5 6.9.1.3.4.4.7.4h9.1c.5 0 .8-.4.8-.8 0-.1 0-.1 0-.2-3.7-12.2-16.7-19.1-28.9-15.3-12.2 3.7-19.1 16.7-15.3 28.9 3.7 12.2 16.7 19.1 28.9 15.3 7.3-2.3 13.1-8 15.3-15.3.1-.4-.1-.9-.6-1-.1 0-.1 0-.2 0h-9c-.3 0-.6.2-.7.4-2.3 4.1-6.7 6.7-11.5 6.8z" fill="#6cb33f"/><path d="m-66.1 216.7c5.1-5.1 13.4-5.1 18.5 0s5.1 13.4 0 18.5c-3.4 3.4-8.4 4.7-13 3.3-.3-.1-.6 0-.8.2l-6.4 6.4c-.3.3-.3.8 0 1.1l.2.2c11.3 6 25.3 1.7 31.3-9.6s1.7-25.3-9.6-31.3-25.3-1.7-31.3 9.6c-3.6 6.8-3.6 14.9 0 21.7.2.4.7.5 1.1.3.1 0 .1-.1.2-.1l6.4-6.4c.2-.2.3-.5.2-.8-1.5-4.7-.2-9.7 3.2-13.1z" fill="#36ac91"/><g fill="#1d2d5c"><path d="m63.8 230c0-1.4 1.2-2.5 2.6-2.6h12.7c1.4.1 2.5 1.2 2.6 2.6v90.4c0 1.4-1.2 2.6-2.6 2.6h-12.7c-1.4-.1-2.5-1.2-2.6-2.6z"/><path d="m103 309.7 4.9-8.5c.9-1.5 2.8-2 4.3-1.1.1.1.2.1.3.2.7.4 11.8 8.5 20.6 8.5 7.1 0 12.4-4.6 12.4-10.5 0-7-5.9-11.8-17.4-16.4-12.7-5.2-25.6-13.4-25.6-29.5 0-12.2 9-26.2 30.7-26.2 9.8.2 19.4 3.4 27.3 9.2 1.4 1.1 1.8 3 .8 4.5l-5.2 7.8c-1.1 1.6-3.1 2.7-4.8 1.6-1.1-.7-11.5-7.5-19-7.5-7.8 0-12 5.2-12 9.6 0 6.4 5.1 10.8 16.2 15.3 13.2 5.3 28.6 13.2 28.6 30.9 0 14.1-12.2 27.1-31.4 27.1-17.2 0-27.3-8.1-30.1-10.7-1.1-1.5-1.8-2.1-.6-4.3z"/><path d="m171.5 319.5 42.5-91.9c.4-.9 1.3-1.5 2.3-1.5h1.4c1-.1 1.9.5 2.3 1.5l42.1 91.9c.6 1.2.2 2.7-1 3.3-.4.2-.9.3-1.3.3h-11.9c-1.8.1-3.4-1-4-2.7l-6.7-14.7h-40.8l-6.7 14.7c-.6 1.7-2.2 2.8-4 2.7h-11.9c-1.3.1-2.5-.9-2.6-2.2-0-.5.1-1 .3-1.4zm59.1-29.1-13.7-30.1h-.4l-13.4 30.1z"/><path d="m316.8 226.1c12.3-.3 24.2 4.3 33.1 12.7 1.1.9 1.3 2.5.4 3.6-.1.1-.2.2-.2.3l-8.3 8.6c-.7.9-2.1 1.1-3.1.4-.1-.1-.3-.2-.4-.4-5.8-5.1-13.3-8-21-8.1-17.5 0-30.5 14.7-30.5 31.8s13.1 31.6 30.6 31.6c7.7-.1 15.1-2.8 20.9-7.8 1-.9 2.4-.9 3.4 0l8.5 8.8c1 1.1.9 2.7-.1 3.7-8.9 8.6-20.8 13.4-33.2 13.2-27.2.5-49.6-21.2-50-48.3-.5-27.2 21.2-49.6 48.3-50 .5-.1 1-.1 1.6-.1z"/><path d="m357.5 319.5 42.5-91.9c.4-.9 1.3-1.5 2.3-1.5h1.4c1-.1 1.9.5 2.3 1.5l42.1 91.9c.6 1.2.2 2.6-1 3.3-.4.2-.9.3-1.4.3h-11.9c-1.8.1-3.4-1-3.9-2.7l-6.7-14.7h-40.9l-6.7 14.7c-.6 1.7-2.2 2.8-4 2.7h-11.9c-1.3.1-2.5-.9-2.6-2.2.1-.5.2-1 .4-1.4zm59-29.1-13.7-30.1h-.4l-13.4 30.1z"/><path d="m462 307.9c4.5 0 8.1 3.6 8.1 8.1s-3.6 8.1-8.1 8.1-8.1-3.6-8.1-8.1c.1-4.5 3.7-8.1 8.1-8.1zm0 14.8c3.7 0 6.7-3 6.7-6.7s-3-6.7-6.7-6.7-6.7 3-6.7 6.7c0 3.7 3 6.7 6.7 6.7zm-2.8-10.4c0-.2.2-.4.4-.4h3.2c1.4-.1 2.6.9 2.8 2.3v.2c.1 1.2-.7 2.2-1.8 2.5.5.9.9 1.8 1.4 2.6.1.2 0 .5-.2.6-.1 0-.1 0-.2 0h-.8c-.2 0-.3-.2-.4-.3l-1.3-2.8h-1.7v2.7c0 .2-.2.4-.4.4h-.6c-.2 0-.4-.2-.4-.4zm3.6 3.4c.7 0 1.3-.5 1.3-1.2v-.1c0-.7-.5-1.3-1.2-1.3-.1 0-.1 0-.2 0h-2.2v2.6z"/></g></svg>