<svg height="1024pt" preserveAspectRatio="xMidYMid meet" viewBox="0 0 1024 1024" width="1024pt" xmlns="http://www.w3.org/2000/svg"><g transform="matrix(.1 0 0 -.1 0 1024)"><path d="m0 5120v-5120h5120 5120v5120 5120h-5120-5120zm5301 3830c139-14 284-45 394-85 123-44 1553-698 1638-749 38-23 102-72 142-109 212-195 282-457 191-717-47-137-169-280-324-384-65-43-1356-646-1598-747-199-82-404-114-672-106-190 5-327 27-468 73-43 14-335 140-648 281-314 140-646 288-737 327-237 103-307 145-415 251-209 206-278 453-194 692 29 84 76 157 157 243 88 94 188 164 341 240 488 241 1445 694 1518 718 210 70 441 95 675 72zm2314-2588c423-191 504-239 636-380 167-176 237-358 227-587-9-192-82-356-227-508-157-165-203-191-826-470-275-124-727-329-1005-457-618-284-758-333-1060-370-265-32-628 5-877 88-87 30-1931 835-2089 913-236 116-410 279-504 474-65 133-84 224-78 368 4 91 11 128 35 194 69 190 210 353 408 472 44 27 218 115 387 196 275 132 311 146 335 137 53-19 848-373 855-380 4-4-246-128-554-277-670-322-750-370-716-425 7-11 36-36 63-55 52-36 648-305 675-305 8 0 214 97 457 215 487 237 567 271 758 320 231 60 327 70 640 70s408-10 641-70c177-45 238-70 743-300l434-197 146 68c385 178 525 251 570 298l45 46-50 48c-45 43-104 72-657 322l-607 275 427 212c236 117 430 212 433 212 3 1 154-66 335-147zm791-1985c237-103 399-229 516-401 181-265 205-633 60-921-93-185-227-323-427-438-44-25-327-159-630-298-302-138-579-265-615-281-142-66-1015-465-1170-535-351-160-622-217-1030-217-229 0-331 10-528 50-261 53-197 27-2248 927-269 118-522 231-560 250-179 90-371 250-463 386-54 80-106 188-128 271-25 91-25 329 0 420 64 238 245 456 506 611 103 61 296 159 314 159 15 0 848-367 859-378 4-4-160-86-364-182-352-167-459-224-524-280-48-41-84-95-84-125 0-59 99-160 217-219 48-24 2219-981 2360-1040 327-137 803-153 1168-39 88 27 2386 1071 2555 1161 58 30 119 65 136 78 33 24 84 114 84 147 0 27-114 136-187 178-35 20-227 110-428 200-200 90-364 167-365 170 0 8 842 388 861 389 9 0 61-19 115-43z"/><path d="m5000 8219c-30-5-77-17-105-26-27-9-338-155-690-326-352-170-682-329-734-353l-93-42 29-16c122-63 852-376 868-373 11 3 62 23 112 46 122 54 261 94 419 122 170 30 508 33 682 6 156-24 317-67 443-116l105-41 410 191c225 105 428 199 451 208l41 16-731 335c-403 183-763 342-802 352-82 23-319 32-405 17z"/><path d="m4985 4884c-16-2-66-9-110-15-100-14-243-50-332-86-93-36-346-174-336-183 14-12 419-190 479-210 255-88 614-91 863-9 84 28 547 244 544 254-3 12-309 149-399 179-152 50-262 67-479 71-110 2-213 1-230-1z"/></g></svg>