<svg height="24" viewBox="0 0 24 24" width="24" xmlns="http://www.w3.org/2000/svg"><g fill="none" fill-rule="evenodd"><path d="m0 0h24v24h-24z"/><g fill="#335eea"><path d="m4 4h8v16h-8z" opacity=".3"/><path d="m6 18h3c.667.114 1 .448 1 1s-.333.886-1 1h-5v-5c0-.667.333-1 1-1s1 .333 1 1zm12 0v-3c.114-.667.448-1 1-1s.886.333 1 1v5h-5c-.667 0-1-.333-1-1s.333-1 1-1zm0-12h-3c-.667-.114-1-.448-1-1s.333-.886 1-1h5v5c0 .667-.333 1-1 1s-1-.333-1-1zm-12 0v3c-.114.667-.448 1-1 1s-.886-.333-1-1v-5h5c.667 0 1 .333 1 1s-.333 1-1 1z"/></g></g></svg>