<svg height="400" viewBox="0 0 400 400" width="400" xmlns="http://www.w3.org/2000/svg"><g fill-rule="evenodd"><path d="m96.6 270.357c-.44.184-1.88.466-3.2.627s-2.58.43-2.8.598-.975.414-1.678.547c-5.199.984-14.713 7.655-18.885 13.242-14.262 19.1-6.796 48.829 14.363 57.198.99.391 2.391.964 3.114 1.271.722.308 1.622.563 2 .566.377.003 1.496.307 2.486.674 2.631.978 18.551.968 22.6-.013 5.78-1.402 8.057-2.177 11.936-4.067l2.464-1.2.113-4.978c.143-6.304.138-6.317-1.976-4.982-2.76 1.742-8.019 4.063-11.537 5.091-17.113 5-32.884-.355-39.476-13.405-9.296-18.404 2.071-39.413 22.719-41.99 4.052-.506 12.2-.046 14.431.814.509.197 2.225.757 3.814 1.245 1.588.488 4.596 1.726 6.684 2.751 4.844 2.38 4.628 2.537 4.628-3.369v-4.956l-1.185-.613c-2.531-1.309-9.46-3.462-14.415-4.48-3.332-.684-14.948-1.094-16.2-.571m80 .325c-10.101 2.415-16.152 10.463-15.241 20.27.742 7.975 4.097 11.747 18.513 20.816 6.148 3.867 7.277 4.685 9.464 6.855 11.605 11.513-2.936 23.887-18.446 15.697-2.707-1.429-4.407-2.661-6.99-5.063-1.045-.971-1.915-1.607-1.933-1.412-.267 2.913.017 11.454.397 11.912 1.199 1.445 6.297 3.982 10.636 5.293 3.532 1.067 14.07 1.067 16.613 0 2.565-1.077 4.556-2.017 4.787-2.26.11-.116.955-.798 1.877-1.516 6.568-5.111 8.611-17.192 4.267-25.234-.977-1.81-1.616-2.681-3.697-5.04-.83-.941-4.368-3.91-5.006-4.202-.242-.11-1.431-.849-2.641-1.642-1.21-.792-3.46-2.114-5-2.938-9.829-5.258-13.4-9.044-13.4-14.211 0-9.914 16.124-12.062 26.84-3.575 1.825 1.445 2.959 1.561 2.612.268-.133-.495-.244-2.88-.247-5.3l-.006-4.4-2.099-1.2c-6.101-3.488-14.569-4.727-21.3-3.118m49.456.136c-15.73 3.904-20.322 21.324-8.559 32.467 2.257 2.138 4.851 3.928 14.869 10.262 11.145 7.046 14 14.708 7.544 20.238-2.821 2.416-4.737 3.055-9.147 3.05-6.655-.008-11.379-2.177-17.5-8.035l-1.463-1.4-.111 5.946c-.071 3.822.043 6.131.32 6.465.589.709 5.13 3.389 5.743 3.389.272 0 .844.264 1.272.587.427.323 1.159.593 1.627.6s1.548.317 2.4.689c2.381 1.038 14.103 1.013 16.349-.035.88-.411 2.41-1.117 3.4-1.57 10.668-4.878 13.181-22.46 4.526-31.671-2.905-3.092-12.543-9.8-14.08-9.8-.245 0-.446-.18-.446-.4s-.189-.4-.421-.4c-1.999 0-9.962-6.67-11.223-9.4-5.349-11.583 14.699-17.42 25.918-7.547 2.908 2.559 3.043 2.36 2.86-4.214-.16-5.734.084-5.437-6.934-8.425-3.913-1.666-11.922-2.042-16.944-.796m98.744-.07c-2.249.815-5.074 3.37-5.409 4.892-.139.633-.419 1.254-.622 1.379-.647.4-.397 4.05.406 5.923 2.756 6.428 10.51 7.894 15.359 2.904 6.691-6.886-.71-18.366-9.734-15.098m-184.302 37.352.102 36.9h5 5l.102-36.9.102-36.9h-5.204-5.204zm123.2-.009.102 36.909h4.8 4.8l.105-15.365c.072-10.529.244-15.533.549-15.9.329-.397 1.797-.535 5.689-.535 20.846 0 30.074-6.578 30.018-21.4-.033-8.93-3.038-14.277-10.177-18.11-3.955-2.123-4.969-2.238-21.086-2.379l-14.902-.13zm67-35.876c7.979 3.334 5.795 14.969-2.812 14.981-2.868.004-3.991-.456-5.839-2.396-5.652-5.931 1.093-15.743 8.651-12.585m-6.431 2.852c-.405.405-.307 8.251.112 8.912.283.447.426.311.631-.6.501-2.234.622-2.506 1.221-2.736.853-.327 1.817.39 2.949 2.195.54.859 1.13 1.562 1.313 1.562.774 0 .752-1.343-.039-2.413-1.064-1.438-1.065-1.421.146-2.86 2.091-2.485.618-4.327-3.459-4.327-1.434 0-2.728.12-2.874.267m4.706 1.463c1.558 1.14-.244 3.04-2.375 2.505-2.092-.525-1.429-3.035.802-3.035.466 0 1.174.239 1.573.53m-37.958 4.016c2.992.797 5.818 2.765 6.708 4.672.15.32.431.852.626 1.182 3.056 5.184.58 12.68-5.22 15.802-2.801 1.508-18.012 2.119-19.003.764-.665-.909-.765-20.971-.112-22.192.526-.984 13.51-1.157 17.001-.228" fill="#f1f6f5"/><path d="m24 .399c-.33.214-1.005.392-1.5.395s-.9.186-.9.406-.347.4-.771.4c-.425 0-1.042.27-1.372.6s-.964.6-1.409.6c-.444 0-.952.225-1.128.5s-1.016.855-1.866 1.288c-.851.433-1.635 1.018-1.743 1.3s-.447.512-.754.512c-.306 0-.557.27-.557.6s-.27.6-.6.6-.6.27-.6.6-.18.6-.4.6-.4.27-.4.6-.27.6-.6.6-.6.18-.6.4-.27.4-.6.4-.6.27-.6.6-.27.6-.6.6-.6.251-.6.557c0 .307-.27.661-.6.788-.33.126-.6.506-.6.842 0 .337-.177.613-.392.613-.216 0-.502.437-.636.971-.135.534-.498 1.068-.808 1.188-.31.119-.564.56-.564.979 0 .42-.27.988-.6 1.262s-.6.926-.6 1.449-.18.951-.4.951-.4.349-.4.776-.18.888-.4 1.024c-.603.373-.549 351.873.054 353.772.72 2.261 2.461 5.798 3.028 6.148.285.176.518.676.518 1.112s.27.897.6 1.023c.33.127.6.481.6.788 0 .306.227.557.505.557.48 0 1.145.964 1.724 2.5.145.385.513.7.818.7.304 0 .553.27.553.6s.27.6.6.6.6.227.6.505c0 .48.964 1.145 2.5 1.724.385.145.7.513.7.818 0 .304.251.553.557.553.307 0 .661.27.788.6.126.33.506.6.842.6.337 0 .613.177.613.392 0 .216.45.506 1 .644s1 .397 1 .576c0 .178.54.443 1.2.588s1.2.388 1.2.541c0 1.233 3.769 1.259 179.6 1.259s179.6-.026 179.6-1.259c0-.153.54-.396 1.2-.541s1.2-.41 1.2-.588c0-.179.45-.438 1-.576s1-.428 1-.644c0-.215.276-.392.613-.392.336 0 .716-.27.842-.6.127-.33.481-.6.788-.6.306 0 .557-.227.557-.505 0-.48.964-1.145 2.5-1.724.385-.145.7-.513.7-.818 0-.304.27-.553.6-.553s.6-.27.6-.6.227-.6.505-.6c.48 0 1.145-.964 1.724-2.5.145-.385.513-.7.818-.7.304 0 .553-.251.553-.557 0-.307.27-.661.6-.788.33-.126.6-.587.6-1.023s.233-.936.518-1.112c.57-.352 2.37-3.941 3.05-6.08.307-.965.432-52.362.432-177.171 0-176.952-.011-178.469-1.28-178.469-.176 0-.32-.428-.32-.951s-.27-1.175-.6-1.449-.6-.842-.6-1.262c0-.419-.254-.86-.564-.979-.31-.12-.673-.654-.808-1.188-.134-.534-.42-.971-.636-.971-.215 0-.392-.276-.392-.613 0-.336-.27-.716-.6-.842-.33-.127-.6-.481-.6-.788 0-.306-.27-.557-.6-.557s-.6-.27-.6-.6-.186-.6-.413-.6c-.518 0-2.787-2.291-2.787-2.814 0-.212-.27-.386-.6-.386s-.6-.27-.6-.6-.251-.6-.557-.6c-.307 0-.646-.23-.754-.512s-.892-.867-1.743-1.3c-.85-.433-1.69-1.013-1.866-1.288s-.684-.5-1.128-.5c-.445 0-1.079-.27-1.409-.6s-.947-.6-1.372-.6c-.424 0-.771-.16-.771-.355s-.585-.498-1.3-.673c-1.941-.475-352.367-.647-353.1-.173m85.8 268.818c6.589.945 17.163 4.21 19.1 5.897.943.822 1.069 11.859.139 12.216-.591.226-2.298-.094-2.639-.495-.25-.293-2.381-1.327-5-2.425-1.1-.461-2.313-1.012-2.695-1.224s-1.012-.387-1.4-.388c-.388-.002-1.221-.272-1.851-.6-.63-.329-1.636-.598-2.236-.598s-1.974-.268-3.054-.596c-2.688-.815-11.058-.818-13.364-.004-.935.33-2.113.6-2.618.6-.504 0-1.427.254-2.05.565-.622.31-2.16 1.048-3.417 1.64-1.257.591-2.658 1.372-3.113 1.735-5.143 4.097-6.572 5.894-9.611 12.088-2.914 5.94-1.997 18.517 1.806 24.761 4.125 6.774 13.305 12.778 19.579 12.806.647.003 2.202.217 3.457.476 5.592 1.155 17.538-1.951 25.585-6.654 3.739-2.185 3.982-1.873 3.982 5.108 0 6.5.094 6.281-3.4 7.867-1.1.499-2.478 1.155-3.062 1.458-.584.302-1.428.55-1.876.55s-.92.17-1.048.377-1.041.498-2.028.646c-.988.148-1.894.429-2.015.623-.12.195-.883.356-1.695.359-.812.002-2.466.27-3.676.595-3.057.82-14.254.818-16.964-.004-1.08-.328-2.554-.596-3.276-.596s-1.411-.16-1.532-.355-.873-.477-1.673-.627c-.799-.15-1.746-.411-2.104-.58-6.327-2.985-8.688-4.409-11.583-6.984-4.648-4.134-8.47-9.656-10.558-15.254-.328-.88-.824-2.23-1.103-3-.278-.77-.649-2.703-.824-4.295-.174-1.593-.437-3.44-.583-4.105-.849-3.868 1.445-14.956 4.139-20 .529-.99 1.309-2.46 1.734-3.266s1.212-1.941 1.75-2.521c.537-.58.977-1.202.977-1.383 0-.396 5.235-5.41 7.2-6.896 8.019-6.064 21.329-9.133 32.6-7.517m82.8.976c3.695 1.22 8.099 3.659 8.417 4.66.178.561.307 7.714.207 11.447-.039 1.441-1.801 1.164-3.812-.6-1.553-1.361-4.194-2.832-8.326-4.638-4.814-2.105-13.485-.377-15.973 3.183-3.825 5.474 1.503 12.348 14.487 18.693 5.442 2.66 12.149 8.759 14.163 12.882 8.71 17.824-7.434 36.258-26.928 30.748-3.6-1.017-6.163-1.882-7.235-2.441-.55-.287-1.225-.523-1.5-.525-.275-.001-.5-.162-.5-.359 0-.196-.45-.469-1-.607s-1-.428-1-.644c0-.215-.236-.392-.525-.392s-1.014-.51-1.61-1.133l-1.085-1.132.11-6.568c.134-8.013.491-8.424 4.055-4.669 8.987 9.472 22.78 10.601 27.092 2.218 2.84-5.523-1.206-11.04-13.437-18.321-.88-.524-1.69-1.052-1.8-1.174-.11-.121-.83-.567-1.6-.989-6.663-3.657-12.272-9.673-14.015-15.032-.749-2.304-.81-10.135-.085-10.86.275-.275.5-.852.5-1.282 0-2.441 4.743-8.302 8.4-10.38 6.453-3.667 15.679-4.503 23-2.085m49.2-.184c8.483 2.651 9.455 3.824 9.311 11.238-.134 6.93-.376 7.175-4.234 4.275-2.17-1.632-4.685-3.009-8.191-4.485-2.319-.976-9.63-.886-11.935.148-6.123 2.747-6.912 8.697-1.823 13.753 1.466 1.457 10.083 7.062 10.857 7.062.956 0 8.896 5.807 11.433 8.361 12.145 12.228 7.236 31.428-9.253 36.193-4.144 1.198-13.637.634-16.86-1.002-.382-.193-.903-.352-1.158-.352-.674 0-6.523-2.851-6.68-3.256-.074-.189-.357-.344-.631-.344-1.767 0-2.173-1.53-2.28-8.6-.127-8.403.106-8.653 4.209-4.509 7.41 7.483 17.642 9.657 23.991 5.098 6.361-4.569 3.716-12.871-5.956-18.695-1.32-.795-2.49-1.567-2.6-1.716-.11-.148-.605-.397-1.1-.551-.495-.155-.9-.449-.9-.654s-.243-.373-.54-.373-1.285-.54-2.197-1.2c-.911-.66-1.758-1.2-1.883-1.2-.622 0-6.726-5.035-8.452-6.972-14.985-16.813 3.86-39.409 26.872-32.219m91.165.553c4.948 2.911 6.721 9.485 3.827 14.188-5.591 9.088-19.192 5.374-19.192-5.24 0-8.161 8.394-13.049 15.365-8.948m-181.594.067c.643.642 1.017 73.095.386 74.738-.364.948-11.95.948-12.314 0-.444-1.155-.277-73.756.171-74.593.568-1.062 10.716-1.187 11.757-.145m145.213.524c3.613 1.208 10.216 5.737 10.216 7.007 0 .11.54 1 1.2 1.978s1.2 2.031 1.2 2.34.212.774.47 1.032c1.066 1.066 1.703 10.449.958 14.09-.459 2.242-2.598 6.796-3.328 7.087-.275.109-.5.373-.5.587 0 .873-4.407 4.501-6.8 5.596-3.325 1.523-4.493 1.93-5.534 1.93-.608 0-1.318.212-1.578.472-.322.322-3.266.529-9.28.652l-8.808.18-.006 15.448c-.003 8.496-.152 15.678-.331 15.959-.244.386-1.746.484-6.094.4l-5.769-.111-.102-37.357c-.077-28.106.014-37.496.367-37.921.908-1.095 30.197-.547 33.719.631m30.014 1.65c-.281.455.121.622 2.402.998 2.991.493 4.465 3.438 2.813 5.623-.76 1.005-.765 1.952-.013 2.576.33.274.6.837.6 1.252 0 1.38 1.494-.046 2.022-1.929.825-2.947-1.364-7.723-3.54-7.723-.401 0-1.078-.264-1.506-.587-.899-.681-2.416-.795-2.778-.21m-5.132 4.228c-.865 1.814-.842 3.255.083 5.069 1.024 2.009 1.251 1.549 1.251-2.543 0-3.925-.351-4.589-1.334-2.526m5.132.172c-.303.491.797.971 1.389.605.234-.145.322-.431.196-.636-.305-.494-1.272-.475-1.585.031m-51.798 14.647v10.75l7.107-.038c12.236-.066 16.315-2.816 16.262-10.962-.052-8.033-2.924-9.996-15.069-10.295l-8.3-.204zm51.6-8.873c0 .923-.263 1.562-.798 1.937-1.473 1.032 2.202 2.047 3.974 1.099.658-.352.583-.541-.826-2.067-.852-.923-1.55-1.829-1.55-2.013 0-.183-.18-.333-.4-.333s-.4.62-.4 1.377" fill="#047353"/><path d="m97 269.074c-6.585.845-15.19 4.174-19.8 7.66-1.965 1.486-7.2 6.5-7.2 6.896 0 .181-.44.803-.977 1.383-.538.58-1.325 1.715-1.75 2.521s-1.219 2.299-1.765 3.317c-.546 1.017-1.314 2.817-1.707 4-.393 1.182-.959 2.828-1.258 3.657-.298.83-.522 2.36-.497 3.4.026 1.041.118 1.532.204 1.092.842-4.275 1.141-5.505 1.822-7.492 7.179-20.961 29.209-30.615 54.528-23.895.88.234 1.96.579 2.4.768s2.15.823 3.8 1.41c4.472 1.589 4.4 1.47 4.4 7.238 0 6.647-.109 6.8-3.513 4.902-6.78-3.78-14.796-5.931-22.104-5.931-4.628 0-11.948 1.147-9.662 1.513.506.082 1.753-.136 2.771-.482 2.472-.843 10.728-.859 13.472-.027 1.08.328 2.454.596 3.054.596s1.606.269 2.236.598c.63.328 1.463.598 1.851.6.388.001 1.018.176 1.4.388s1.595.763 2.695 1.224c2.619 1.098 4.75 2.132 5 2.425.341.401 2.048.721 2.639.495.93-.357.804-11.394-.139-12.216-1.937-1.687-12.511-4.952-19.1-5.897-2.675-.383-10.265-.468-12.8-.143m80.736.137c-7.546 1.36-16.536 8.628-16.536 13.369 0 .386.654-.569 1.453-2.122 5.91-11.489 23.697-14.822 36.247-6.79l1.9 1.215v5.735c0 6.941-.361 7.335-3.786 4.124-.668-.626-1.353-1.139-1.522-1.14s-.979-.419-1.8-.928c-7.822-4.857-19.325-3.357-21.922 2.859-2.187 5.234 1.908 10.332 13.23 16.474 13.576 7.364 18.442 13.776 18.364 24.193-.067 8.888-3.365 14.343-11.06 18.29-2.925 1.501-3.231 2.102-.418.821 11.173-5.086 15.496-17.993 9.877-29.491-2.014-4.123-8.721-10.222-14.163-12.882-12.984-6.345-18.312-13.219-14.487-18.693 2.488-3.56 11.159-5.288 15.973-3.183 4.132 1.806 6.773 3.277 8.326 4.638 2.011 1.764 3.773 2.041 3.812.6.1-3.733-.029-10.886-.207-11.447-1.132-3.565-15.493-7.045-23.281-5.642m49.864-.034c-16.779 3.139-23.562 20.832-12.672 33.051 1.726 1.937 7.83 6.972 8.452 6.972.125 0 .972.54 1.883 1.2.912.66 1.9 1.2 2.197 1.2s.54.168.54.373.405.499.9.654c.495.154.99.403 1.1.551.11.149 1.28.921 2.6 1.716 9.672 5.824 12.317 14.126 5.956 18.695-6.349 4.559-16.581 2.385-23.991-5.098-4.103-4.144-4.336-3.894-4.209 4.509.107 7.07.513 8.6 2.28 8.6.274 0 .557.155.631.344.18.464 6.054 3.256 6.851 3.256.349 0 .746.18.882.4s.732.386 1.324.368c.879-.025.747-.14-.724-.627-4.035-1.335-7.972-3.354-9.9-5.076-.996-.891-1.433-13.088-.49-13.671.226-.14 1.778 1.023 3.449 2.584 7.086 6.617 15.514 8.967 21.85 6.091 6.166-2.799 7.829-8.426 4.1-13.869-2.12-3.094-4.067-4.547-16.882-12.6-12.419-7.804-16.426-17.99-11.288-28.698 5.168-10.768 23.96-14.25 35.872-6.646l2.11 1.348-.11 5.865c-.129 6.813-.116 6.796-3.332 4.295-10.512-8.175-25.826-6.292-25.762 3.167.029 4.26 2.907 7.825 9.183 11.376 14.139 8 17.763 10.94 20.784 16.862 5.264 10.317.961 23.461-9.232 28.205-1.624.756-2.649 1.386-2.279 1.4 1.358.053 5.715-2.641 8.114-5.017 8.423-8.342 8.173-21.794-.569-30.596-2.537-2.554-10.477-8.361-11.433-8.361-.774 0-9.391-5.605-10.857-7.062-5.089-5.056-4.3-11.006 1.823-13.753 2.305-1.034 9.616-1.124 11.935-.148 3.506 1.476 6.021 2.853 8.191 4.485 3.858 2.9 4.1 2.655 4.234-4.275.132-6.817.115-6.856-3.756-8.905-5.534-2.929-13.877-4.265-19.755-3.165m98.537.075c-6.748 1.19-10.739 8.864-7.703 14.814 1.39 2.725 4.996 5.545 7.058 5.521.884-.01.703-.154-.892-.709-6.694-2.329-8.89-10.956-4.08-16.027 5.611-5.915 15.486-3.091 17.062 4.88l.33 1.669.044-1.477c.144-4.86-6.361-9.633-11.819-8.671m-186.523 1.522c-.448.837-.615 73.438-.171 74.593.133.348.538.628.9.621.583-.011.578-.058-.043-.42-1.15-.67-1.078-74.138.074-74.754.823-.441 9.128-.58 10.193-.171.852.327.983 74.749.133 75.092-.316.127-.258.213.157.233.362.018.767-.253.9-.601.631-1.643.257-74.096-.386-74.738-1.041-1.042-11.189-.917-11.757.145m123.251-.252c-.964 1.161-.438 75.241.535 75.387.731.11.74.083.1-.314-.658-.409-.7-2.627-.7-37.401v-36.966l.831-.444c1.857-.995 29.357-.283 32.593.843 5.495 1.913 8.925 4.57 11.551 8.949.784 1.308 1.425 2.144 1.425 1.858 0-.285-.54-1.318-1.2-2.296s-1.2-1.868-1.2-1.978c0-1.27-6.603-5.799-10.216-7.007-3.522-1.178-32.811-1.726-33.719-.631m63.117 1.806c-3.144 1.382-5.636 4.676-5.522 7.298.058 1.329.065 1.335.212.174.211-1.657 1.366-4.224 1.784-3.965.405.25.47 7.106.071 7.505-.151.15-.513-.297-.806-.994-.294-.697-.649-1.151-.791-1.009-.379.379 1.164 3.063 1.761 3.063.28 0 .509.165.509.367 0 .841 2.733 2.033 4.658 2.033 2.943 0 4.98-1.652 2.619-2.125-.754-.15-1.375-.691-1.886-1.64-1.266-2.351-2.591-2.361-2.591-.019 0 1.32-1.511 2.407-2.278 1.639-.411-.411-.638-6.068-.339-8.461l.285-2.276 3.135.143c4.687.213 6.623 2.6 4.4 5.426-.788 1.001-.788 1.032-.035 2.463.419.798.871 1.79 1.005 2.204.569 1.763 3.027-2.002 3.027-4.635 0-4.496-5.533-8.811-9.218-7.191m3.394.685c.428.323 1.105.587 1.506.587 2.176 0 4.365 4.776 3.54 7.723-.528 1.883-2.022 3.309-2.022 1.929 0-.415-.27-.978-.6-1.252-.752-.624-.747-1.571.013-2.576 1.652-2.185.178-5.13-2.813-5.623-2.281-.376-2.683-.543-2.402-.998.362-.585 1.879-.471 2.778.21m-2.993 4.007c-.753.908.28 1.831 1.517 1.353 1.04-.401 1.191-1.376.267-1.73-.944-.362-1.218-.304-1.784.377m1.8.152c.126.205.038.491-.196.636-.592.366-1.692-.114-1.389-.605.313-.506 1.28-.525 1.585-.031m9.484 3.732c-.177 2.906-3.948 7.52-6.606 8.082-.473.101-1.221.259-1.661.352s-.172.19.597.216c3.242.107 8.227-5.132 7.892-8.295-.118-1.111-.171-1.196-.222-.355m-63.086.002c-.107.278-.146 5.363-.088 11.3l.107 10.794 7.4-.004c8.437-.004 10.302-.408 13.158-2.852 5.711-4.889 4.748-14.767-1.758-18.037-3.191-1.604-18.295-2.568-18.819-1.201m18.467 1.465c6.583 3.441 7.185 13.811 1.039 17.897-2.99 1.988-4.392 2.252-12.18 2.294l-7.107.038v-10.75-10.749l8.3.204c7.489.185 8.461.289 9.948 1.066m-204.048.816c-19.278 9.514-20.881 37.268-2.8 48.489 2.116 1.313 7.676 3.532 8.749 3.492.468-.017-.319-.428-1.749-.913-9.206-3.119-15.007-8.739-17.775-17.217-1.65-5.056-1.345-15.514.566-19.41 2.44-4.973 4.589-8.017 7.078-10.028.954-.77 1.98-1.615 2.281-1.877.858-.749 5.012-2.923 5.583-2.923.606 0 2.255-1.17 1.667-1.184-.22-.004-1.84.702-3.6 1.571m238.2-1.254c0 .184.698 1.09 1.55 2.013 1.409 1.526 1.484 1.715.826 2.067-1.772.948-5.447-.067-3.974-1.099.535-.375.798-1.014.798-1.937 0-.757.18-1.377.4-1.377s.4.15.4.333m-17.97 1.267c.003.11.255 1.1.561 2.2.537 1.935.556 1.954.582.576.015-.782-.237-1.772-.56-2.2-.323-.427-.585-.686-.583-.576m-148.721 1.043c-.54 1.323-.349 8.633.276 10.557 1.743 5.359 7.352 11.375 14.015 15.032.77.422 1.49.868 1.6.989.11.122.92.65 1.8 1.174 12.231 7.281 16.277 12.798 13.437 18.321-4.312 8.383-18.105 7.254-27.092-2.218-3.564-3.755-3.921-3.344-4.055 4.669l-.11 6.568 1.085 1.132c.596.623 1.321 1.133 1.61 1.133s.525.177.525.392c0 .216.45.506 1 .644s1 .411 1 .607c0 .197.225.358.5.359.275.002.95.234 1.5.516 1.821.934 4.794 1.951 5.255 1.797.249-.083-.336-.392-1.301-.687-2.64-.807-7.261-3.136-8.9-4.488l-1.454-1.198v-6.348c0-7.321.116-7.542 2.632-5.026 11.265 11.266 28.059 10.935 28.891-.569.394-5.447-3.328-9.555-14.675-16.199-13.407-7.851-18.868-15.637-17.315-24.693.479-2.792.376-3.931-.224-2.464m149.991 7.984c-.01 2.849.121 4.468.335 4.129.449-.709.463-7.582.017-8.286-.192-.303-.343 1.47-.352 4.157m-.574 5.773c-.144.55-.386 1.45-.539 2l-.278 1 .671-.905c.37-.498.613-1.398.54-2l-.133-1.095zm-1.909 4.871c-1.382 2.481-5.1 5.982-7.637 7.192-5.674 2.706-7.85 3.12-17.88 3.406l-8.1.232v15.729c0 14.559-.052 15.761-.7 16.138-.621.362-.626.409-.043.42 1.093.02 1.143-.7 1.143-16.569v-15.315l8.808-.18c6.014-.123 8.958-.33 9.28-.652.26-.26.97-.472 1.578-.472 1.041 0 2.209-.407 5.534-1.93 2.457-1.124 6.8-4.727 6.8-5.639 0-.237.162-.431.36-.431.464 0 2.113-2.78 1.947-3.28-.07-.208-.56.399-1.09 1.351m-246.569 4.229c-.129 1.705-.087 3.82.093 4.7.249 1.213.338.463.37-3.1.049-5.43-.126-6.035-.463-1.6m.724 8.7c.059 1.1.34 2.63.625 3.4.284.77.785 2.12 1.113 3 2.088 5.598 5.91 11.12 10.558 15.254 2.895 2.575 5.256 3.999 11.583 6.984.358.169 1.305.43 2.104.58.8.15 1.552.432 1.673.627s.794.343 1.496.328c.971-.021.56-.244-1.724-.934-14.441-4.363-24.783-15.795-27.358-30.239-.098-.55-.13-.1-.07 1m64.828 12.897c-.88.53-2.922 1.593-4.537 2.363-1.616.769-2.856 1.481-2.755 1.581.206.206 5.323-2.154 7.554-3.484 2.529-1.507 2.738-1.127 2.738 4.968 0 4.624-.097 5.439-.713 5.996-1.427 1.292-6.943 3.507-13.087 5.254-1.766.503-1.851.573-.724.597.702.015 1.375-.131 1.495-.326.121-.194 1.027-.475 2.015-.623.987-.148 1.9-.439 2.028-.646s.6-.377 1.048-.377 1.292-.249 1.876-.554c.584-.304 2.068-1.015 3.297-1.58 3.248-1.492 3.203-1.378 3.076-7.875-.129-6.629-.393-7.05-3.311-5.294m-10.4 4.698c-.66.3-2.19.814-3.4 1.142-1.21.329-1.784.613-1.275.631 1.018.035 4.396-.919 6.275-1.772.906-.412 1.004-.545.4-.545-.44 0-1.34.245-2 .544m-18.2 2.402c3.307.72 6.697.719 10-.002l2.6-.567-2.6.263c-3.147.32-6.516.314-10-.015l-2.6-.246zm-3.6 10.794c2.471.82 13.781.83 16.6.015l2-.578-2.8.286c-3.676.375-12.17.366-15.2-.017l-2.4-.304zm80.4-.022c1.937.789 10.872.786 12.8-.004l1.4-.573-1.8.299c-2.338.388-9.243.393-11.8.008l-2-.3zm49.8.012c2.189.763 10.705.758 12.6-.008l1.4-.565-1.8.296c-2.299.378-9.2.383-11.8.007l-2-.288z" fill="#549e8c"/><path d="m93.775 270.412c-11.978 2.442-22.049 9.695-27.029 19.467-2.092 4.104-3.277 7.127-3.056 7.791.086.258.465-.511.842-1.71 3.3-10.493 14.68-21.709 24.118-23.771.632-.138 1.51-.408 1.95-.6 1.888-.824 6.827-1.358 12.6-1.362 7.512-.005 10.412.48 18.064 3.022 3.515 1.168 4.622 1.411 3.536.776-6.103-3.568-22.107-5.431-31.025-3.613m82.425-.041c-10.662 2.69-16.641 11.318-15.127 21.827 1.053 7.315 5.277 11.881 18.327 19.816 13.62 8.282 17.208 15.193 10.98 21.145-3.746 3.58-14.829 4.525-17.833 1.521-.154-.154-.47-.28-.703-.28-.813 0 1.174 1.091 3.198 1.755 14.127 4.639 24.195-7.71 14.294-17.532-2.187-2.17-3.316-2.988-9.464-6.855-14.416-9.069-17.771-12.841-18.513-20.816-1.608-17.311 19.187-27.072 36.541-17.152l2.099 1.2.006 4.4c.003 2.42.114 4.805.247 5.3.347 1.293-.787 1.177-2.612-.268-10.716-8.487-26.84-6.339-26.84 3.575 0 5.167 3.571 8.953 13.4 14.211 1.54.824 3.79 2.146 5 2.938 1.21.793 2.399 1.532 2.641 1.642.638.292 4.176 3.261 5.006 4.202 2.081 2.359 2.72 3.23 3.697 5.04 4.885 9.045 2.266 20.463-6.111 26.637-.091.068-.069.22.05.339.99.99 6.559-6.17 7.946-10.216 4.142-12.077-1.529-21.678-18.429-31.201-9.615-5.418-12.8-8.753-12.8-13.402 0-9.007 13.63-11.618 24.16-4.629 4.886 3.244 4.61 3.111 5.044 2.432.575-.899.482-9.605-.116-10.8-2.013-4.024-16.094-6.847-24.088-4.829m52-.512c-17.541 3.646-23.75 20.905-11.841 32.912 2.425 2.445 10.535 8.429 11.424 8.429 2.436 0 13.324 9.538 14.35 12.571 4.59 13.566-15.423 17.421-27.89 5.372-1.333-1.289-2.563-2.343-2.733-2.343-.363 0-.349-.259-.349 6.4 0 2.86.009 5.522.02 5.915.019.709 5.066 4.372 5.468 3.969.109-.109-.781-.759-1.978-1.444-3.189-1.824-3.107-1.596-2.982-8.294l.111-5.946 1.463 1.4c6.121 5.858 10.845 8.027 17.5 8.035 4.41.005 6.326-.634 9.147-3.05 6.456-5.53 3.601-13.192-7.544-20.238-13.218-8.357-15.984-10.524-18.564-14.547-4.716-7.352-3.281-18.013 3.192-23.711 5.839-5.14 18.397-6.914 26.006-3.675 7.018 2.988 6.774 2.691 6.934 8.425.183 6.574.048 6.773-2.86 4.214-11.219-9.873-31.267-4.036-25.918 7.547 1.261 2.73 9.224 9.4 11.223 9.4.232 0 .421.18.421.4s.201.4.446.4c1.537 0 11.175 6.708 14.08 9.8 8.655 9.211 6.142 26.793-4.526 31.671-.99.453-2.52 1.159-3.4 1.57-2.246 1.048-13.968 1.073-16.349.035-.852-.372-1.932-.663-2.4-.648-2.907.096 7.697 2.372 11.049 2.372 19.503-.004 28.708-22.369 14.904-36.212-2.234-2.24-9.206-7.388-10.006-7.388-.096 0-1.545-.81-3.22-1.8-1.674-.99-3.119-1.8-3.21-1.8-.366 0-4.464-3.026-5.916-4.369-12.94-11.965 9.854-21.911 23.177-10.113 2.484 2.199 2.753 1.833 2.887-3.923.146-6.312.132-6.357-2.403-7.789-5.438-3.071-14.316-4.669-19.713-3.547m96.437.494c-2.706.953-6.237 4.651-6.237 6.532 0 .785.753-.161.991-1.245.8-3.643 6.875-6.352 11.134-4.964 5.19 1.691 7.435 6.159 6.091 12.124-.193.86-.143.832.362-.2 3.322-6.801-4.83-14.891-12.341-12.247m-184.411.804c-.373.604-.272 73.757.102 74.131.185.185 2.662.286 5.504.224l5.168-.112v-37.2-37.2l-5.269-.111c-3.029-.064-5.37.05-5.505.268m123.174-.135c-.405.18-.426 73.013-.021 74.068.145.377 1.55.51 5.404.51h5.208l.104-15.9.105-15.9 7.4-.25c9.718-.329 13.026-.955 18.4-3.482 15.55-7.31 13.429-32.134-3.259-38.136-2.39-.86-31.655-1.658-33.341-.91m-112.698 37.078-.102 36.9h-5-5l-.102-36.9-.102-36.9h5.204 5.204zm144.682-36.129c9.223 2.461 14.339 9.517 14.377 19.829.056 14.822-9.172 21.4-30.018 21.4-3.892 0-5.36.138-5.689.535-.305.367-.477 5.371-.549 15.9l-.105 15.365h-4.8-4.8l-.102-36.909-.102-36.91 14.902.13c10.732.094 15.457.279 16.886.66m29.816-.081c-3.959 1.495-6.28 6.793-4.653 10.623 3.337 7.852 14.974 5.514 15.036-3.021.038-5.229-5.646-9.391-10.383-7.602m5.074.535c2.791 1.052 4.926 4.127 4.926 7.094 0 7.883-10.531 10.117-14.149 3.001-2.811-5.529 3.375-12.3 9.223-10.095m-203.374 2.802 1.5.792v4.957c0 5.907.216 5.75-4.628 3.37-2.088-1.025-5.096-2.263-6.684-2.751-1.589-.488-3.305-1.048-3.814-1.245-7.204-2.777-20.914-.653-28.274 4.381-5.826 3.985-11.408 12.567-11.363 17.469.007.768.298.133.807-1.762 5.238-19.51 28.434-26.544 50.189-15.221 4.605 2.397 4.428 2.591 4.245-4.644l-.123-4.827-1.139-.673c-.627-.37-1.382-.665-1.678-.655-.296.009.137.374.962.809m196.967-.56c-.555.554-.295 9.212.291 9.698.78.647 1.842-.477 1.842-1.951 0-1.529 1.005-1.839 1.893-.584 1.809 2.557 2.214 2.97 2.912 2.97 1.206 0 1.305-.693.367-2.57l-.88-1.761.854-1.382c1.846-2.987.372-4.687-4.061-4.687-1.623 0-3.072.12-3.218.267m6.807 1.003c1.188 1.115 1.169 1.979-.074 3.457-1.211 1.439-1.21 1.422-.146 2.86.791 1.07.813 2.413.039 2.413-.183 0-.773-.703-1.313-1.562-1.132-1.805-2.096-2.522-2.949-2.195-.599.23-.72.502-1.221 2.736-.205.911-.348 1.047-.631.6-.419-.661-.517-8.507-.112-8.912.711-.712 5.486-.262 6.407.603m-4.847.86c-1.584 1.159.435 3.148 2.524 2.486 1.947-.618 1.191-3.016-.951-3.016-.466 0-1.174.239-1.573.53m2.874.331c.694.694-.141 1.939-1.301 1.939s-1.995-1.245-1.301-1.939c.253-.253.839-.461 1.301-.461s1.048.208 1.301.461m-10.633 2.539c-.172 6.852 7.873 12.102 13.848 9.039 1.552-.795 4.484-3.504 4.484-4.142 0-.204-.795.447-1.766 1.447-6.026 6.2-15.188 2.737-16.253-6.144l-.263-2.2zm-44.054 1.374c-.254.475-.414 4.724-.414 11.026 0 13.112-.917 11.821 8.314 11.71l7.486-.09-7.2-.115c-9.079-.146-8.2 1.077-8.2-11.408 0-12.698-.805-11.498 7.714-11.492 8.957.006 11.309.582 14.386 3.523 1.557 1.489 2.02 1.509.8.035-2.543-3.072-5.918-3.952-15.186-3.958-6.797-.005-7.314.047-7.7.769m24.09 5.985c.341.911.539 1.109.634.635.077-.379-.147-.974-.496-1.323-.579-.58-.591-.52-.138.688m.894 3.352c.72 5.408-2.349 10.452-7.486 12.3-1.162.418-1.724.767-1.249.775 5.254.087 11.728-10.373 8.902-14.386-.308-.438-.353-.086-.167 1.311m-236.207 10.689c-.824 3.698-.717 14.026.168 16.2.529 1.299.61 1.374.427.4-.934-4.993-.997-13.267-.124-16.234.232-.788.352-1.778.265-2.2-.086-.421-.417.404-.736 1.834m10.259 4.05c-.336 1.679-.247 5.91.15 7.15.203.633.335-.727.36-3.7.041-4.835-.075-5.623-.51-3.45m.604 9.337c-.181 3.958 4.745 12.317 9.425 15.99 8.328 6.536 23.489 8.706 32.521 4.654l1-.448-1 .186c-.55.102-2.71.554-4.8 1.004-17.465 3.762-34.332-6.093-36.924-21.573-.151-.903-.172-.885-.222.187m-10.033 5.064c-.079 2.492 4.544 10.621 8.537 15.01 4.037 4.438 14.898 11.217 16.079 10.035.104-.103-.402-.41-1.124-.68-3.673-1.376-4.777-1.934-7.881-3.982-6.919-4.566-11.76-10.843-14.989-19.434-.331-.88-.611-1.307-.622-.949m97.822 8.182c-.134.348-.243 3.219-.243 6.379v5.747l1.326 1.012c1.595 1.216 6.542 3.835 7.203 3.813.259-.009-.519-.518-1.729-1.131-2.849-1.445-5.456-3.097-5.822-3.689-.221-.358-.391-9.817-.211-11.704.018-.187 1.068.607 2.333 1.766 2.396 2.193 6.431 4.976 6.751 4.656.102-.102-.596-.642-1.55-1.202-.954-.559-3.014-2.201-4.577-3.648-3.133-2.901-3.135-2.902-3.481-1.999m-34.465 2.027c-2.042 1.263-6.735 3.48-8.778 4.148-.88.287-1.357.604-1.061.704.297.099.927-.007 1.4-.237.474-.23 2.224-1.039 3.889-1.796 1.666-.758 3.785-1.856 4.709-2.439 2.114-1.335 2.119-1.322 1.976 4.982l-.113 4.978-2.6 1.279c-1.43.704-2.952 1.372-3.382 1.485-.431.112-.673.315-.538.449.314.314 6.387-2.479 6.798-3.126.17-.268.313-2.853.316-5.744.007-5.977-.129-6.219-2.616-4.683m-7.578 14.354c-1.618.741-.252.743 1.454.002.896-.389 1.079-.579.546-.568-.44.009-1.34.264-2 .566m73.176-.027c-.427.323-.596.588-.376.588s.749-.265 1.176-.588c.428-.323.597-.587.377-.587s-.749.264-1.177.587m25.424.013c1.309.748 2.018.739 1.024-.013-.428-.323-1.058-.581-1.4-.573-.4.009-.265.22.376.586m-127.8 1.212c.88.317 1.96.571 2.4.564.449-.006.099-.264-.8-.588-.88-.317-1.96-.571-2.4-.564-.449.006-.099.264.8.588m24 .082c-1.489.442-4.366.609-11.258.65-8.874.054-9.123.076-6 .539 4.402.653 7.04.63 12.79-.108 4.623-.594 9.69-1.746 7.468-1.697-.55.011-1.9.289-3 .616m57.498-.087c1.846.677 8.177 1.793 10.178 1.793 2.935 0 10.681-1.881 9.445-2.293-.257-.086-1.064.167-1.794.561-1.864 1.007-13.595 1.011-16.327.006-.99-.364-2.07-.652-2.4-.64s.074.27.898.573" fill="#84bcac"/><path d="m101.7 269.491c.825.087 2.175.087 3 0 .825-.086.15-.157-1.5-.157s-2.325.071-1.5.157m80.6-.002c.715.089 1.885.089 2.6 0 .715-.088.13-.161-1.3-.161s-2.015.073-1.3.161m49.6 0c.715.089 1.885.089 2.6 0 .715-.088.13-.161-1.3-.161s-2.015.073-1.3.161m-88.8 1.207c1.375.078 3.625.078 5 0s.25-.142-2.5-.142-3.875.064-2.5.142m127.6.003c3.795.066 10.005.066 13.8 0 3.795-.065.69-.119-6.9-.119s-10.695.054-6.9.119m-130.908 37.301c0 19.91.048 28.055.108 18.1.059-9.955.059-26.245 0-36.2-.06-9.955-.108-1.81-.108 18.1m123.2-.2c0 19.58.048 27.531.108 17.67.06-9.862.059-25.882 0-35.6-.06-9.719-.109-1.65-.108 17.93m59.536-33.5c-.374.275-.477.5-.228.5s.576-.199.726-.443c.151-.243.387-.288.524-.1.138.189 1.51.248 3.05.131l2.8-.212-3.095-.188c-2.114-.128-3.312-.029-3.777.312m-193.577 6.1c0 2.53.065 3.565.145 2.3.079-1.265.079-3.335 0-4.6-.08-1.265-.145-.23-.145 2.3m175.049-4.275c0 .069.585.654 1.3 1.3l1.3 1.175-1.175-1.3c-1.095-1.212-1.425-1.484-1.425-1.175m19.344 3.475c0 2.09.068 2.945.15 1.9s.082-2.755 0-3.8-.15-.19-.15 1.9m-221.239.287c.609.092 1.509.09 2-.005.492-.095-.005-.171-1.105-.168s-1.503.081-.895.173m80.795 0c.605.091 1.595.091 2.2 0 .605-.092.11-.167-1.1-.167s-1.705.075-1.1.167m49.807.003c.719.089 1.799.087 2.4-.004s.013-.164-1.307-.162-1.812.077-1.093.166m41.467 11.91c.001 5.72.057 8.004.125 5.076.069-2.928.068-7.608 0-10.4-.069-2.792-.125-.396-.125 5.324m59.25-7.827c-.384.425-.929.685-1.209.577-.282-.108-.606.173-.725.628-.239.914 1.307.071 2.495-1.359.74-.893.269-.763-.561.154m-112.51 4.227c.003 1.1.081 1.503.173.895.092-.609.09-1.509-.005-2-.095-.492-.171.005-.168 1.105m-60.39 1.2c.002 1.32.077 1.812.166 1.093s.087-1.799-.004-2.4-.164-.013-.162 1.307m166.376.076c.385.1 1.015.1 1.4 0 .385-.101.07-.183-.7-.183s-1.085.082-.7.183m-104.5 3.849c0 .069.585.654 1.3 1.3l1.3 1.175-1.175-1.3c-1.095-1.212-1.425-1.484-1.425-1.175m-56 9.675c.746.77 1.447 1.4 1.557 1.4s-.411-.63-1.157-1.4-1.447-1.4-1.557-1.4.411.63 1.157 1.4m138.378 3.7-1.378 1.5 1.5-1.378c1.396-1.284 1.684-1.622 1.378-1.622-.066 0-.741.675-1.5 1.5m-59.178 2.625c0 .069.585.654 1.3 1.3l1.3 1.175-1.175-1.3c-1.095-1.212-1.425-1.484-1.425-1.175m28.582 20.275c0 8.69.053 12.245.118 7.9.064-4.345.064-11.455 0-15.8-.065-4.345-.118-.79-.118 7.9m-20.868-3.4c.003 1.1.081 1.503.173.895.092-.609.09-1.509-.005-2-.095-.492-.171.005-.168 1.105m-60.405 1c0 .99.078 1.395.173.9.096-.495.096-1.305 0-1.8-.095-.495-.173-.09-.173.9m18.029-.183c-.13.34-.125.73.013.867.137.137.249-.07.249-.46 0-.477.204-.631.621-.471.356.136.516.069.376-.158-.364-.588-.99-.478-1.259.222m3.262 2.183c.859.88 1.652 1.6 1.762 1.6s-.503-.72-1.362-1.6-1.652-1.6-1.762-1.6.503.72 1.362 1.6m-85.078-.493c.397.28.493 1.675.4 5.812-.067 2.994.018 5.303.19 5.13.623-.626.148-10.967-.512-11.147-.467-.127-.484-.081-.078.205m81.829 4.493c0 2.53.065 3.565.145 2.3.079-1.265.079-3.335 0-4.6-.08-1.265-.145-.23-.145 2.3m-139.351.925c0 .069.585.654 1.3 1.3l1.3 1.175-1.175-1.3c-1.095-1.212-1.425-1.484-1.425-1.175m125.978 6.575-1.378 1.5 1.5-1.378c1.396-1.284 1.684-1.622 1.378-1.622-.066 0-.741.675-1.5 1.5m-54.478 5.196c1.375.078 3.625.078 5 0s.25-.142-2.5-.142-3.875.064-2.5.142m123.216.001c1.383.078 3.543.077 4.8-.002 1.256-.079.124-.143-2.516-.142-2.64 0-3.668.065-2.284.144" fill="#79b4a4"/></g></svg>