<svg height="60" viewBox="0 0 246 60" width="246" xmlns="http://www.w3.org/2000/svg"><g fill="#fff" fill-rule="evenodd"><path d="m26.25 0 26.25 14.9998427v14.9904049l-13.1310392 7.5030673v-14.9891465l-13.1189608-7.4967754-13.1183251 7.4967754v14.9929216l12.8493251 7.34191.0000241-14.852833 25.9745444 14.996638v15.0048163l-25.7065685-14.8416213.0003643 14.854-26.2493643-14.9992135v-30.0009438z"/><g transform="translate(67.5 16.875)"><path d="m148.53176 29.2392061v-26.44134125c0-.87502979-.715466-1.59049532-1.590496-1.59049532-.833852 0-1.549317.71546553-1.549317 1.59049532v26.44134125z"/><path d="m118.730819 4.30729123h8.96305v24.93148597h3.179275v-24.93148597h8.964766c.793532 0 1.469535-.6356834 1.469535-1.43007319 0-.79524766-.676003-1.47039319-1.469535-1.47039319h-21.107091c-.795248 0-1.471251.67514553-1.471251 1.47039319 0 .79438979.676003 1.43007319 1.471251 1.43007319"/><path d="m34.1281348 17.6218989v-14.78457192c0-.87502979.7146077-1.59049532 1.5501753-1.59049532.8733141 0 1.5887796.71546553 1.5887796 1.59049532v14.58554552c0 6.0016749 3.2195949 9.3791183 8.5049464 9.3791183 5.127503 0 8.38656-3.0994928 8.38656-9.1800919v-14.78457192c0-.87502979.7154655-1.59049532 1.5896374-1.59049532.8347098 0 1.5501754.71546553 1.5501754 1.59049532v14.54608342c0 8.1077515-4.650526 12.3199047-11.6061549 12.3199047-6.8741311 0-11.5641192-4.2121532-11.5641192-12.0814162"/><path d="m153.418458 15.4596317v-.0797822c0-7.86926295 5.881573-14.38651912 14.068248-14.38651912 4.49182 0 7.353682 1.47039319 9.935878 3.61678979.319128.27795064.636541.71546553.636541 1.27136681 0 .83470979-.754928 1.55017532-1.589637 1.55017532-.437515 0-.795248-.19902639-1.033737-.35773277-2.146396-1.90790808-4.569885-3.17927489-7.987649-3.17927489-6.160381 0-10.770587 5.00654298-10.770587 11.40541276v.0797821c0 6.4391898 4.649668 11.4860528 10.770587 11.4860528 3.457226 0 5.881573-1.1924426 8.2656-3.3783013.239347-.2384885.597079-.436657.993416-.436657.795248 0 1.510713.7154655 1.510713 1.5098553 0 .476977-.238488.8741719-.516439 1.1126604-2.742618 2.5041294-5.763186 4.0937669-10.333072 4.0937669-8.028827 0-13.949862-6.3190877-13.949862-14.3075949"/><path d="m111.873674 1.20762689c-.87503 0-1.550176.71546554-1.550176 1.55017532v20.98527319l-16.8906483-21.54203234c-.4375149-.55590127-.8750298-.91363404-1.5896374-.91363404h-.4366571c-.8347098 0-1.5501753.71546553-1.5501753 1.54931745v26.40273703h3.0591728v-22.90433363l17.2492393 22.05675573c.476977.5567592.953954.9548119 1.629099.9548119h.159565c.833852 0 1.430931-.6356834 1.430931-1.471251v-25.11764429c0-.83470978-.676004-1.55017532-1.510713-1.55017532"/><path d="m15.3814795 17.4510107v3.6202213l6.3268085 3.6528204c-1.5304443 1.0157209-3.6176477 1.8452834-6.3671285 1.8452834-3.2753566 0-6.1226349-1.1778587-8.23214299-3.406611-2.02457872-2.1386758-3.13981277-5.0254162-3.13981277-8.1283405v-.0814978c0-3.1029243 1.12981788-6.00424854 3.18013277-8.16951833 1.49012426-1.57333787 4.13494469-3.44693106 8.27332089-3.44693106 3.2753566 0 6.1226349 1.17785872 8.2321429 3.40661106 2.0254366 2.13781787 3.1406707 5.02455833 3.1406707 8.12748253v.0823558c0 2.8215421-.9436596 5.4689361-2.654257 7.5552817zm14.548657-2.58048c0-7.86411572-5.8283847-14.66875913-14.5074791-14.66875913-8.67909451 0-14.58811919 6.88614128-14.58811919 14.75111493v.0814978c0 7.8641158 5.82666894 14.6687592 14.50662129 14.6687592 3.6862774 0 6.8706996-1.2447728 9.3164936-3.2762145l5.2390264 3.0231421v-3.6193634l-3.0059847-1.7354757c1.9413651-2.5513123 3.0394417-5.7554655 3.0394417-9.1423455z"/><path d="m82.544305 29.2392061h3.4143319l-11.5237991-26.71929189c-.3174128-.79524766-.9144919-1.31254468-1.828126-1.31254468h-.1595642c-.9136341 0-1.4695353.51729702-1.8272681 1.31254468l-11.4937736 26.71929189h3.3336919l2.3548596-5.6224953h12.9238468l-1.3194077-3.1398128h-10.2893208l6.3576919-15.17490379z"/></g></g></svg>