<svg enable-background="new 0 0 478 828" viewBox="0 0 478 828" xmlns="http://www.w3.org/2000/svg"><path d="m365.9 74h-28.5c-6.1 0-8.3-.3-8.7 7.4-.4 8-5.9 13-13.3 15.3-2.5.8-5.3 1.2-8 1.2h-5.4-120.9-5.4c-2.7 0-5.5-.5-8-1.3-7.4-2.3-13-7.3-13.3-15.3-.4-7.7-2.6-7.4-8.7-7.4h-28.8c-17.5.1-31.9 13.5-31.9 30.9v613.3c0 17.5 14.4 31.9 31.9 31.9h249c17.5 0 31.1-14.4 31.1-31.9v-613.3c0-17.4-13.7-30.8-31.1-30.8z" fill="none"/><path d="m416 106.6c0-28.8-23.2-51.6-52-51.6h-248.7c-28.8 0-52.3 22.9-52.3 51.6v94.3 519.5c0 28.8 23.5 52.6 52.3 52.6h248.7c28.8 0 52-23.8 52-52.6zm-138.9-32.5c2.4 0 4.4 2 4.4 4.4s-2 4.4-4.4 4.4-4.4-2-4.4-4.4 2-4.4 4.4-4.4zm-55.1 2.9h39c1.7 0 3 1 3 2.5s-1.3 2.5-3 2.5h-39c-1.7 0-3-1-3-2.5s1.3-2.5 3-2.5zm175 641.1c0 17.5-13.7 31.9-31.1 31.9h-249c-17.5 0-31.9-14.4-31.9-31.9v-613.3c0-17.4 14.4-30.8 31.9-30.8h28.8c6.1 0 8.3-.4 8.7 7.3.4 8 5.9 13.2 13.3 15.5 2.5.8 5.3 1.2 8 1.2h5.4 120.7 5.4c2.7 0 5.5-.6 8-1.4 7.4-2.3 13-7.1 13.3-15.1.4-7.7 2.6-7.5 8.7-7.5h28.5c17.5 0 31.1 13.4 31.1 30.8v613.3z"/></svg>