<svg height="24" viewBox="0 0 24 24" width="24" xmlns="http://www.w3.org/2000/svg"><g fill="none" fill-rule="evenodd"><path d="m0 0h24v24h-24z"/><g fill="#335eea"><rect height="8" opacity=".3" rx="1" width="2" x="5" y="8"/><path d="m6 21a2 2 0 1 0 0-4 2 2 0 0 0 0 4zm0 2a4 4 0 1 1 0-8 4 4 0 0 1 0 8z"/><rect height="8" opacity=".3" rx="1" width="2" x="17" y="8"/><path d="m18 21a2 2 0 1 0 0-4 2 2 0 0 0 0 4zm0 2a4 4 0 1 1 0-8 4 4 0 0 1 0 8zm-12-16a2 2 0 1 0 0-4 2 2 0 0 0 0 4zm0 2a4 4 0 1 1 0-8 4 4 0 0 1 0 8zm12-2a2 2 0 1 0 0-4 2 2 0 0 0 0 4zm0 2a4 4 0 1 1 0-8 4 4 0 0 1 0 8z"/></g></g></svg>