<svg height="24" viewBox="0 0 24 24" width="24" xmlns="http://www.w3.org/2000/svg"><g fill="none" fill-rule="evenodd"><path d="m0 0h24v24h-24z"/><g fill="#335eea"><rect height="13" opacity=".3" rx="2" width="20" x="2" y="9"/><rect height="2" opacity=".3" rx=".5" width="14" x="5" y="5"/><rect height="2" opacity=".3" rx=".5" width="10" x="7" y="1"/><path d="m10.833 20c-1.012 0-1.833-.684-1.833-1.528s.82-1.528 1.833-1.528c.215 0 .42.031.611.087v-4.24c0-.313.196-.59.483-.683l3.514-1.075c.442-.144.892.2.892.684v1.075c0 .358-.335.587-.61.652-.397.095-1.416.299-3.056.612v4.448a.837.837 0 0 1 -.013.152c-.11.757-.883 1.344-1.82 1.344z"/></g></g></svg>