<svg height="24" viewBox="0 0 24 24" width="24" xmlns="http://www.w3.org/2000/svg"><g fill="none" fill-rule="evenodd"><path d="m0 0h24v24h-24z"/><g fill="#335eea"><path d="m10.586 12-2.122 2.121a1 1 0 0 0 1.415 1.415l2.121-2.122.707.707a2 2 0 0 1 0 2.829l-2.827 2.828a2 2 0 0 1 -2.829 0l-2.829-2.828a2 2 0 0 1 0-2.829l2.828-2.828a2 2 0 0 1 2.829 0z" opacity=".3"/><path d="m13.414 12 2.122-2.121a1 1 0 1 0 -1.415-1.415l-2.121 2.122-.707-.707a2 2 0 0 1 0-2.829l2.828-2.828a2 2 0 0 1 2.829 0l2.828 2.828a2 2 0 0 1 0 2.829l-2.828 2.828a2 2 0 0 1 -2.829 0z"/></g></g></svg>