<svg viewBox="0 0 1024 265" xmlns="http://www.w3.org/2000/svg"><path d="m103.3 0h18.2c29.8 1.4 59.8 4.5 88.5 12.9 16.9 5 33.5 11.9 47.8 22.3 14 10 25.4 24.2 30.1 40.9 5.8 20.2 2.2 42-5.8 61.1-12.4 29.5-33.6 54.6-57.6 75.5-23.8 20.2-51.1 36.8-81.1 46-10.6 3.3-21.6 5.4-32.7 6.4h-17.3c-17.7-1.5-35.3-7.8-49-19.4-14-11.7-23.9-27.7-30.5-44.7-9.3-24-12.6-49.9-13.9-75.6v-21.9c1.2-18.9 4.1-39.1 16.1-54.4 5.9-7.5 14.3-12.7 23.4-15.2-.5 21-1 42-.8 63 .4 19.3 1.8 38.7 7.1 57.4 3.6 12.6 9.3 24.9 18.2 34.7 10.7 12.1 26.1 19.3 41.9 21.9 15.4 2.5 31.6 2.5 46.6-2.5 16.8-5.4 31.6-16.8 41.3-31.5 12.2-18 17.2-40.6 14-62-2.6-18-11.2-35-23.8-48-8.1-7.6-17.4-14.1-27.6-18.5-15.9-6.8-34.1-8.5-50.9-3.9v40.6c16.2-7.4 37.4-4.8 50.2 8.1 16 16.5 16.1 45.2.9 62.2-6.7 7.5-16.6 12-26.6 12.6-10.4.6-21.5-.8-30.5-6.6-7.2-4.7-11.9-12.4-14.3-20.5-3.3-10.7-3.7-21.9-3.9-33 0-26.7-.1-53.4 0-80.1.4-7 .1-14.6 4-20.8 3.9-5.6 11.6-6.3 18-7" fill="#3c6"/><g fill="#384145"><path d="m876.5 39.9c9.7-3.5 19.3-6.9 29-10.4v119.6c-.2 3.4 1 7.5 4.6 8.7 4.3 1.2 8.6-.8 12.8-1.5 1.1 7 2.1 14 3 21-11.2 4.3-24.1 6-35.5 1.2-6.2-2.5-10.8-8.2-12.5-14.6-1.9-6.1-1.4-12.6-1.4-18.9 0-35 0-70.1 0-105.1"/><path d="m623.4 76.5c7.4-2.4 15.6-2.3 23-.1 7.3 2.3 13.2 8.1 16.2 15.1 3.8 8.6 4.7 18.2 4.6 27.6v60.9c-9.8 0-19.5 0-29.2 0 0-20.3 0-40.7 0-61-.1-5.2-.6-10.9-4-15.1-3.6-4.4-10.5-5.2-15.4-2.5-5.3 2.9-9 8.1-12.1 13.1-2.1 2.7-1.1 6.2-1.3 9.4.5 18.7.1 37.3.3 56-9.8.1-19.7 0-29.5.1 0-34.6 0-69.2 0-103.8h27.3c.4 4.9.2 9.7.7 14.6 5.6-5.7 11.6-11.7 19.4-14.3"/><path d="m803.8 79.8c10.2-6 22.9-6 34.1-3.1 10.9 2.8 19.9 10.6 25.8 20-6.5 4.8-13.2 9.4-19.8 14.2-3.2-4.6-7.5-8.7-13-10.4-4.5-1.4-9.9-2.3-14.1.3-3.5 2.3-5 8.9-.4 10.9 10.4 4.9 22.3 5.9 32.5 11.2 7.5 3.5 14.7 9.7 16.1 18.2 1.7 11.1-1.6 23.3-10 31.1-7.7 7.4-18.7 10.5-29.1 10.7-8.5.1-17.2-.9-24.8-4.7-8-4.1-14.1-11.3-18.7-18.9 6.8-4.8 13.5-9.8 20.4-14.5 4.4 6.9 11.6 12.6 20.1 13.2 6 .7 13.8-1.4 15.9-7.8 1.3-3.9-2.7-6.4-5.8-7.6-11.9-4.6-25.2-6.1-36-13.5-5.8-4-10-10.6-9.8-17.8-.5-12.7 5.7-25.4 16.6-31.5"/><path d="m681.8 76.2c9.8.1 19.6 0 29.5 0v64.8c.1 4.2 1 8.6 3.9 11.8 4.1 3.8 10.6 4.3 15.6 1.9 4.9-2.4 8.6-6.8 11.6-11.3.6-1.1 1.5-2.1 1.4-3.4.1-21.3-.1-42.5.1-63.8 9.8.1 19.6 0 29.4 0v103.8c-8.8 0-17.7 0-26.5 0-.5-4.4-.9-8.8-1.4-13.2-4.7 3.8-8.7 8.5-14.2 11.3-9 5.2-20.2 5.8-29.9 2.6-7.5-2.5-13.1-8.9-15.7-16.1-3.7-9.8-3.9-20.4-3.8-30.7 0-19.2-.1-38.4 0-57.7"/><path d="m919.2 76.2h32.4c7.2 23.5 13.8 47.2 20.1 71 7.4-23.5 14.1-47.3 20.7-71h31.6v1.4c-14.8 41.3-29.9 82.5-44.8 123.7-3.1 8.8-8.2 17.8-17.1 21.7-11.9 5-25.3 3.2-37.3-.3 1.3-7.9 2.7-15.9 4-23.8 4.4.8 8.7 2.2 13.1 2.5 4.4.2 7.5-3.7 9.3-7.3 2.8-6 4.8-12.3 7.1-18.5-12.9-33-26-66.2-39.1-99.4"/><path d="m562.5 111c-3.1-12.1-10.4-23.6-21.5-30-10.2-6-22.5-7.1-34.1-5.8-11.1 1.5-21.7 7.2-28.7 16-11 13.8-15 32.7-11.5 50 2.4 12.6 8.9 24.9 19.5 32.6 11.8 8.7 27.6 10.5 41.7 7.4 11.4-2.4 21.5-9.7 27.7-19.5 9.4-14.9 11.4-33.9 6.9-50.7zm-34 39.5c-3.9 4.8-10.4 7.6-16.5 6.1-5.7-1.3-10.1-5.8-12.8-10.8-5.2-9.8-5.5-21.8-1.5-32.1 2.4-6.1 7.1-11.7 13.7-13.2 6.7-1.7 14.4 1 18.4 6.8 4.3 6 5.5 13.5 5.7 20.7 0 7.9-1.8 16.3-7 22.5z"/><path d="m457.8 128.9c-2-11.9-11.4-21.3-22.3-25.8 5.7-4.8 11.4-10.6 12.7-18.3 1.9-12-1.3-25.3-10.3-33.8-10-9.7-24.4-13.1-38-13.5-17.3-.1-34.7 0-52-.1-.1 47.5 0 95 0 142.5h63.1c11.5-.5 23.6-2.7 33-9.9 12.5-9.3 15.7-26.4 13.8-41.1zm-79.8-64.7h20c4.9 0 9.9.8 14 3.7 6 4 7.7 13 3.9 19-2.7 4.2-8 5.9-12.8 6-8.4.1-16.7 0-25.1 0 0-9.5 0-19.1 0-28.7zm49.3 74.6c-.4 3.8-2 7.9-5.4 10-4.4 2.7-9.8 3.2-14.8 3.4-9.7 0-19.4 0-29.1 0 0-11 0-22 0-33h29.1c5.6.1 11.5 1.1 15.9 4.9 3.9 3.7 5 9.6 4.3 14.7z"/></g></svg>