<svg height="41.28pt" viewBox="0 0 266.89 41.28" width="266.89pt" xmlns="http://www.w3.org/2000/svg" xmlns:xlink="http://www.w3.org/1999/xlink"><clipPath id="a"><path d="m233 0h33.890625v41.28125h-33.890625zm0 0"/></clipPath><clipPath id="b"><path d="m257 36h5v5.28125h-5zm0 0"/></clipPath><clipPath id="c"><path d="m218 36h5v5.28125h-5zm0 0"/></clipPath><clipPath id="d"><path d="m171 36h5v5.28125h-5zm0 0"/></clipPath><path d="m98.914063 37.988281h4.722656v1.152344h-15.582031v-1.152344h4.734375v-36.761718h-4.734375v-1.1523442h26.523437l.664063 8.7382812h-1.296875c-.550782-3.316406-1.921875-5.148437-3.125-6.128906-1.734375-1.417969-4.011719-1.457031-8.042969-1.457031h-3.863281v15.605468c24.171875-8.921875 45.269531-9.703125 59.53125-8.546875.507812-.441406 1.171875-.890625 1.613281-1.4375 2.148437-2.601562 2.378906-4.082031 2.65625-5.246093h.828125v7.210937c8.964844 1.113281 14.148437 2.828125 14.148437 2.828125v2.59375c-4.871093-1.097656-9.585937-1.917969-14.148437-2.5v22.226563c0 1.707031-.054688 4.027343 2.714844 4.027343 2.761718 0 3.152343-2.265625 3.320312-3.148437h1.21875c-.277344 1.324219-1.054687 4.9375-6.203125 4.9375-2.703125 0-4.902344-1.0625-5.730469-3.28125-.4375-1.046875-.4375-2.261719-.4375-5.078125v-20.234375c-23.980468-2.164063-43.566406 2.324219-59.511718 8.03125zm30.09375-16.253906c.273437-.773437.609375-1.65625 1.382812-2.824219 1.273438-1.824218 2.988281-3.039062 5.148438-3.039062 2.050781 0 3.601562 1.328125 3.601562 3.261719 0 1.597656-1.164062 2.867187-2.878906 2.867187-1.496094 0-2.4375-.9375-2.605469-2.449219-.109375-1.167968-.109375-1.441406-.664062-1.441406-.109375 0-1.160157.054688-2.324219 2.824219-1.546875 3.714844-1.605469 6.445312-1.660156 10.058594v7.003906h3.097656v1.152344h-11.621094v-1.152344h3.261719v-19.628906l-3.140625.3125.011719-1.464844s3.351562-.765625 8.449218-1.253906zm-68.316407.511719c.273438-.769531.601563-1.644531 1.367188-2.796875 1.261719-1.804688 2.960937-3.007813 5.097656-3.007813 2.027344 0 3.5625 1.3125 3.5625 3.222657 0 1.585937-1.152344 2.84375-2.851562 2.84375-1.476563 0-2.410157-.929688-2.574219-2.429688-.109375-1.148437-.109375-1.425781-.65625-1.425781-.109375 0-1.152344.054687-2.304688 2.800781-1.53125 3.671875-1.589843 6.378906-1.640625 9.957031v6.566407h3.066407v1.144531h-11.507813v-1.144531h3.230469v-19.066407l-3.109375.308594.011719-1.449219s3.558593-.824218 8.363281-1.242187zm55.191407 15.757812h3.097656v1.152344h-11.609375v-1.152344h3.320312v-19.117187s3.707032-1.058594 5.203125-1.246094zm-41.132813-8.246093c2.394531-1.960938 5.945313-4.65625 9.964844-7.003907-.207031-3.085937-1.515625-5.171875-4.398438-5.171875-2.835937 0-4.445312 2.289063-5.3125 5.667969-.066406.328125-.207031 1.03125-.339843 1.984375-.09375.644531-.09375 1.371094-.09375 2.03125 0 .835938.058593 1.675781.179687 2.492188zm14.550781-7.5c.039063.105468.046875.121093.089844.40625-6.121094 3.035156-9.78125 5.457031-14.335937 8.609375.855468 3.265625 2.910156 5.851562 6.6875 5.851562 2.710937 0 6.242187-2.738281 7.273437-4.6875l.066406-.125c.191407-.039062.695313.0625.695313.214844 0 .535156-1.046875 2.199219-1.390625 2.660156-2.152344 2.921875-4.804688 4.28125-8.796875 4.28125-6.066406 0-10.109375-5.578125-10.109375-11.78125 0-6.449219 5.050781-11.546875 11.078125-11.546875 3.351562 0 6.59375 1.457031 8.214844 4.71875.257812.542969.40625.871094.527343 1.398438zm-56.6875-18.863282.546875 9.324219h-1.414062c-1.09375-5.347656-5.316406-10.417969-11.714844-10.417969l-.28125-.015625c-7.449219 0-13.035156 7.363282-13.035156 18.941407 0 6.015625 2.742187 16.453125 13.859375 16.503906 4.3125.023437 7.816406-1.71875 9.941406-4.109375.21875-3.210938 2.695313-4.972656 6.132813-6.0625 2.421875-.710938 5.136718-1.15625 7.484375-1.222656v-4.570313c-.109375-1.589844-.222657-4.160156-3.851563-4.160156-2.476562 0-4.507812 1.476562-4.507812 2.296875 0 .660156 1.152343 1.371094 1.152343 2.628906 0 1.207031-1.042968 2.355469-2.519531 2.355469-1.476562 0-2.40625-1.203125-2.40625-2.574219 0-2.683594 3.46875-6.035156 9.019531-6.035156 2.640625 0 5.292969 1.113281 6.652344 2.421875 1.527344 1.585937 1.527344 3.394531 1.527344 5.476562v10.605469c0 1.863281 0 3.175781 1.261719 3.175781.25 0 .347656.007813.4375-.011718.082031-.019532.164062-.0625.355468-.152344l.003907 1.074219c-.648438.398437-1.023438.566406-2.546875.566406-1.203125 0-2.347657-.378906-3.164063-1.03125-1.253906-1.03125-1.414062-2.304688-1.523437-3.398438-1.207032 2.40625-3.617188 4.523438-7.34375 4.523438-3.007813 0-5.4375-1.488281-6.035157-4.117188-2.128906 2.34375-5.863281 4.425782-12.363281 4.425782-11.339844 0-18.28125-8.433594-18.28125-19.339844 0-8.484375 6.128906-19.269531 19.160156-19.269531 8.179688.128906 9.652344 2.429687 11.027344 2.429687.949219 0 1.320313-.894531 2.054688-.894531.109375 0 .371093.105469.371093.632812zm11.519532 26.808594v-2.878906c-4.273438.054687-8.492188 1.378906-8.492188 5.871094 0 2.683593 1.699219 3.832031 3.449219 3.832031 1.535156 0 2.574219-.820313 3.070312-1.257813 1.75-1.699218 1.863282-2.773437 1.972657-5.566406zm108.984375-7.097656c-.59375-3.324219-1.859375-6.101563-5.917969-6.101563-2.113281 0-3.894531.984375-3.894531 3.238282 0 1.464843.570312 2.3125 1.769531 2.980468.605469.339844 1.308594.621094 2.0625.890625.75.269532 1.542969.550782 2.355469.8125 2.617187.832032 6.410156 2.804688 6.410156 7.617188 0 4.785156-4.425781 7.136719-8.609375 7.136719-2.792969 0-5.042969-.476563-7.667969-1.40625v-7.65625h1.402344c.328125 3.570312 1.808594 7.863281 6.359375 7.886718 2.394531.019532 5.121094-1.40625 5.121094-4.128906 0-2.4375-2.070313-3.511719-3.984375-4.296875-3.59375-1.476562-8.601563-2.464844-8.601563-7.535156 0-4.554688 3.476563-6.996094 7.515625-6.996094 2.429688 0 4.53125.714844 6.804688 1.457031v6.101563z" fill="#231f20"/><g clip-path="url(#a)"><path d="m250.355469 41.28125c7.757812-4.285156 12.457031-11.105469 14.878906-18.59375 2.511719-7.769531 2.097656-16.957031-.816406-22.6875-4.425781 2.234375-8.882813 3.351563-14.0625 3.367188-5.175781.015625-9.628906-1.132813-14.054688-3.367188-2.910156 5.730469-3.332031 14.917969-.816406 22.6875 2.421875 7.488281 7.121094 14.308594 14.871094 18.59375" fill="#0093d0"/></g><path d="m216.972656 40.847656v-11.230468h11.226563v-17.949219h-11.226563v-11.226563h-17.886718v11.226563h-11.230469v17.949219h11.230469v11.230468z" fill="#0093d0"/><path d="m197.675781 16.765625 7.445313.71875c1.398437.195313 1.558594 1.550781 1.1875 2.363281l-5.097656 9.566407.007812-.011719c-2.585937-2.03125-4.246094-5.1875-4.246094-8.726563 0-1.378906.246094-2.695312.710938-3.910156z" fill="#fff"/><path d="m208.09375 10.996094c-1.316406 0-1.722656 1.484375-1.144531 2.253906.523437.675781.625.875.597656 1.515625-.023437.535156-.519531 1.195313-1.648437 1.21875h-7.890625c1.765625-3.78125 5.601562-6.398437 10.054687-6.398437" fill="#fff"/><path d="m198.78125 18.402344 5.636719.519531c.40625.03125.433594.203125.34375.4375l-3.949219 7.535156c-1.433594-1.667968-2.300781-3.84375-2.300781-6.21875 0-.785156.09375-1.542968.269531-2.273437" fill="#0093d0"/><path d="m205.410156 11.5c-.5625.9375-.109375 2.15625.421875 2.738281.097657.097657.046875.203125-.042968.230469h-4.984375c1.191406-1.398437 2.785156-2.445312 4.605468-2.96875" fill="#0093d0"/><path d="m218.441406 16.765625-7.445312.71875c-1.394531.195313-1.554688 1.550781-1.183594 2.363281l5.097656 9.566407-.007812-.011719c2.585937-2.03125 4.246094-5.1875 4.246094-8.726563 0-1.378906-.25-2.695312-.707032-3.910156" fill="#fff"/><path d="m208.027344 10.996094c1.316406 0 1.722656 1.484375 1.144531 2.253906-.527344.675781-.625.875-.597656 1.515625.019531.535156.519531 1.195313 1.644531 1.21875h7.890625c-1.765625-3.78125-5.601562-6.398437-10.046875-6.398437" fill="#fff"/><path d="m217.335938 18.402344-5.636719.519531c-.402344.03125-.433594.203125-.339844.4375l3.949219 7.535156c1.433594-1.667968 2.300781-3.84375 2.300781-6.21875 0-.785156-.09375-1.542968-.273437-2.273437" fill="#0093d0"/><path d="m210.714844 11.5c.5625.9375.105469 2.15625-.425781 2.738281-.097657.097657-.050782.203125.039062.230469h4.988281c-1.195312-1.398437-2.789062-2.445312-4.601562-2.96875" fill="#0093d0"/><path d="m208.0625 31.765625c2.25 0 4.34375-.671875 6.09375-1.828125v.007813l-5.402344-8.082032c-.382812-.515625-.988281-.5625-1.386718 0l-5.40625 8.082032v-.007813c1.75 1.15625 3.847656 1.828125 6.101562 1.828125" fill="#fff"/><path d="m250.351563 37.8125c6.378906-3.953125 9.78125-9.617187 11.960937-16.015625 1.933594-5.675781 2.40625-12.316406.277344-17.5-3.1875 1.09375-5.054688 1.433594-6.792969 1.699219-1.613281.257812-3.0625.410156-5.429687.441406h-.015625c-2.367188-.03125-3.8125-.183594-5.433594-.441406-1.730469-.265625-3.601563-.605469-6.789063-1.699219-2.128906 5.183594-1.65625 11.824219.277344 17.5 2.175781 6.398438 5.574219 12.0625 11.960938 16.015625z" fill="#fff"/><path d="m250.355469 36.242188c4.316406-2.714844 9.210937-8.878907 11.167969-16.984375 1.035156-4.300782 1.324218-9.132813-.027344-12.964844-1.933594.511719-3.734375.941406-5.601563 1.191406-1.867187.25-3.710937.433594-5.527343.445313h-.015625c-1.816407-.011719-3.660157-.195313-5.527344-.445313-1.863281-.25-3.667969-.679687-5.601563-1.191406-1.355468 3.832031-1.066406 8.664062-.027343 12.964844 1.957031 8.105468 6.851562 14.269531 11.164062 16.984375z" fill="#0093d0"/><g fill="#fff"><path d="m245.949219 10.808594c-1.453125.757812-1.960938 2.542969-1.304688 3.980469.5625 1.246093 1.6875 2.074218 2.992188 2.464843.652344.191407 1.3125.242188 1.988281.273438.828125.042969 1.578125.066406 2.375.269531.167969.042969.351563.140625.4375.308594.214844.398437.023438.832031-.398437.953125-.007813.695312-.070313 2.09375-.070313 2.09375s3.386719-.320313 2.816406-3.367188c-.140625-.730468-.714843-1.476562-1.367187-1.8125-1.699219-.875-3.566406-.496093-5.308594-1.058593-.582031-.1875-1.398437-.480469-1.554687-1.136719-.066407-.265625-.007813-.792969.261718-.878906.445313-.136719.925782.226562 1.5625.375.402344.09375.804688.09375 1.117188-.003907.140625-.039062.347656-.097656.363281-.175781-.015625-.070312-.171875-.136719-.257812-.175781-.191407-.101563-.398438-.148438-.609375-.230469-.351563-.132812-.699219-.300781-1.054688-.496094.332031-.070312.890625-.085937 1.222656-.046875.269532.03125 1.089844.019532 1.332032-.042968.054687-.015625.175781-.0625.125-.15625-.097657-.160157-.257813-.21875-.363282-.367188-.242187-.324219-.449218-.660156-.839843-.808594-1.109375-.429687-2.355469-.539062-3.464844.039063"/><path d="m251.601563 21.675781.019531-3.550781s-.457031-.097656-1.09375-.140625c-.832031-.054687-1.210938-.039062-1.210938-.039062v.296875s-.402343.167968-.460937.277343c-.027344.046875-.136719.183594-.085938.316407.328125.875.78125 1.730468.910157 2.667968.617187.085938 1.167968.066407 1.921875.171875"/><path d="m247.355469 21.136719c-.152344 1.394531.757812 2.140625 1.761719 2.382812.796875.1875 1.570312.230469 2.398437.328125.105469.011719.328125.015625.496094.085938.144531.066406.21875.152344.25.242187.035156.132813.019531.230469-.066406.335938-.089844.109375-.328125.171875-.328125.171875l-.046875 1.679687s.675781-.027343 1.222656-.355468c.519531-.3125.835937-.707032.953125-1.207032.132812-.582031.039062-1.144531-.363281-1.703125-.273438-.375-.746094-.640625-1.226563-.808593-.984375-.347657-2.058594-.296875-3.078125-.441407-.164062-.023437-.304687-.140625-.316406-.285156-.027344-.257812.21875-.375.21875-.375s-.125-.398437-.253906-.789062c-.117188-.296875-.28125-.707032-.398438-.921875-.695312.296875-1.148437.941406-1.222656 1.660156"/><path d="m251.515625 24.234375-.027344 3.007813-.753906-.34375-.742187-.308594-.015625-2.511719c.667968.082031.972656.085938 1.539062.15625"/><path d="m248.148438 25.894531c-.410157.972657.105468 1.925782.925781 2.332032.425781.207031.988281.398437 1.449219.574218.453125.175782 1.25.667969 1.3125.90625.039062.152344-.132813.289063-.132813.289063l-.019531 1.175781s.488281-.101562.851562-.402344c.339844-.28125.589844-.644531.585938-1.230468-.003906-.644532-.300781-1.144532-1.21875-1.679688-.707031-.417969-1.566406-.753906-2.234375-1.046875-.097656-.042969-.1875-.234375-.148438-.347656.039063-.125.117188-.171875.117188-.171875l-.015625-1.359375s-.515625.105469-.757813.246094c-.226562.132812-.558593.355468-.714843.714843"/><path d="m251.394531 29.894531c.003907-.097656-.027343-.113281-.074218-.179687-.203125-.207031-.492188-.351563-.5625-.394531-.207032-.121094-.671875-.296875-.671875-.296875s.03125 3.078125.089843 4.667968c.011719.359375.21875.457032.558594.476563.429688.023437.550781-.242188.554688-.398438.019531-.507812.082031-2.714843.105468-3.875"/><path d="m251.71875 10.09375c.152344.113281.152344.121094.199219.347656.105469.492188-.007813 1.261719.09375 1.601563.046875.105469.15625.101562.242187.058594.683594-.367188 1.140625-1 1.835938-1.292969.320312-.140625 1.21875.3125 1.011719.988281-.097657.316406-.242188.363281-.4375.566406-.402344.417969-.972657.8125-1.46875 1.355469-.332032.363281-.738282.628906-1 1.046875-.082032.128906-.214844.3125-.214844.3125-.957031-.195312-1.921875-.160156-2.667969-.316406v-1.109375s.757813-.125.902344-.5c.015625-.03125-.011719-.160156-.121094-.242188-.125-.097656-.355469-.195312-.421875-.222656.761719.121094 1.238281.246094 1.976563.570313.046875-.082032.019531-.261719-.035157-.324219-.101562-.113281-.15625-.152344-.414062-.214844-.457031-.113281-1.679688-.265625-1.679688-.265625s.566407-.003906 1.042969-.082031c.230469-.035156.421875-.078125.46875-.160156.058594-.121094-.042969-.296875-.203125-.46875-.105469-.113282-.230469-.234375-.320312-.355469-.113282-.152344-.292969-.433594-.492188-.609375-.175781-.15625-.609375-.375-.609375-.375s-.074219-.597656.042969-.835938c.09375-.175781.324219-.28125.445312-.21875.550782.304688 1.089844.621094 1.824219.746094"/></g><path d="m249.304688 11.242188c-.144532.097656-.242188.199218-.398438.226562-.3125.050781-.269531-.222656-.480469-.375-.136718-.09375-.261718.027344-.375-.191406.453125.011719 1.050782-.03125 1.390625.320312-.042968-.023437-.113281.003907-.136718.019532" fill="#0093d0"/><path d="m207.902344 23.691406c.085937-.117187.210937-.121093.316406 0l3.726563 5.710938c-1.1875.527344-2.5.820312-3.882813.820312-1.386719 0-2.703125-.292968-3.886719-.820312l3.726563-5.710938c.105469-.121093.226562-.117187.316406 0" fill="#0093d0"/><path d="m249.34375 31.03125c-.1875.191406-.492187.585938-.546875 1.210938-.050781.5625.078125.722656.222656 1.023437.117188.246094.382813.230469.480469.003906.078125-.1875-.035156-.363281.035156-.777343.054688-.300782.292969-.464844.292969-.464844l-.023437-1.371094s-.214844.113281-.460938.375" fill="#fff"/><g clip-path="url(#b)"><path d="m258.824219 38.855469v-.71875h.488281c.246094 0 .511719.054687.511719.339844 0 .355468-.269531.378906-.574219.378906zm0 .300781h.410156l.621094 1.023438h.398437l-.667968-1.039063c.347656-.042969.609375-.226562.609375-.644531 0-.457031-.273438-.664063-.832032-.664063h-.898437v2.347657h.359375zm.429687 1.882813c1.113282 0 2.058594-.859375 2.058594-2.042969 0-1.164063-.945312-2.023438-2.058594-2.023438-1.117187 0-2.0625.859375-2.0625 2.023438 0 1.183594.945313 2.042969 2.0625 2.042969zm-1.652343-2.042969c0-.957031.71875-1.6875 1.652343-1.6875.929688 0 1.652344.730469 1.652344 1.6875 0 .984375-.722656 1.707031-1.652344 1.707031-.933593 0-1.652343-.722656-1.652343-1.707031" fill="#0093d0"/></g><g clip-path="url(#c)"><path d="m220.441406 38.855469v-.71875h.484375c.25 0 .515625.054687.515625.339844 0 .355468-.269531.378906-.574218.378906zm0 .300781h.414063l.621094 1.023438h.394531l-.667969-1.039063c.34375-.042969.609375-.226562.609375-.644531 0-.457031-.277344-.664063-.832031-.664063h-.894531v2.347657h.355468zm.429688 1.882813c1.113281 0 2.058594-.859375 2.058594-2.042969 0-1.164063-.945313-2.023438-2.058594-2.023438-1.121094 0-2.058594.859375-2.058594 2.023438 0 1.183594.9375 2.042969 2.058594 2.042969zm-1.65625-2.042969c0-.957031.722656-1.6875 1.65625-1.6875.925781 0 1.652344.730469 1.652344 1.6875 0 .984375-.726563 1.707031-1.652344 1.707031-.933594 0-1.65625-.722656-1.65625-1.707031" fill="#0093d0"/></g><g clip-path="url(#d)"><path d="m173.328125 38.871094v-.71875h.492188c.242187 0 .507812.050781.507812.339844 0 .355468-.265625.378906-.570312.378906zm0 .300781h.410156l.625 1.023438h.402344l-.671875-1.039063c.347656-.042969.609375-.226562.609375-.644531 0-.457031-.273437-.664063-.832031-.664063h-.898438v2.347657h.355469zm.433594 1.878906c1.117187 0 2.058594-.855468 2.058594-2.042968 0-1.160157-.941407-2.019532-2.058594-2.019532-1.121094 0-2.0625.859375-2.0625 2.019532 0 1.1875.941406 2.042968 2.0625 2.042968zm-1.65625-2.042968c0-.953125.722656-1.683594 1.65625-1.683594.925781 0 1.652344.730469 1.652344 1.683594 0 .984375-.726563 1.710937-1.652344 1.710937-.933594 0-1.65625-.726562-1.65625-1.710937" fill="#231f20"/></g><path d="m179.386719 35.101563-.730469 3.433593h-1.324219l.726563-3.433593z" fill="#231f20"/></svg>