<svg height="103.581662" viewBox="0 0 400 103.58166189" width="400" xmlns="http://www.w3.org/2000/svg"><g fill-rule="evenodd"><path d="m56.167 49.083c0 7.654.059 13.917.131 13.917s2.172-2.024 4.666-4.498l4.536-4.498v-9.419-9.418h-4.667-4.666zm-13.334 5.491v12.913l.708.631c.389.348 1.412 1.329 2.273 2.18s1.626 1.526 1.7 1.5 1.151-1.051 2.395-2.276l2.26-2.228-.043-12.772-.043-12.772-4.625-.044-4.625-.045zm48-10.279c-.687.235-1.812.641-2.5.901-.687.26-1.4.473-1.583.473s-.539.107-.791.238c-.448.234-3.941 1.44-5.834 2.015-1.182.358-1.182.35.047 1.61l1.005 1.031-16.846 16.819-16.846 16.82-11.587-11.559c-13.14-13.108-11.986-11.976-12.219-11.976-.124 0-.179 1.62-.179 5.224v5.225l11.94 11.942c6.568 6.568 11.966 11.942 11.997 11.942s8.886-8.813 19.679-19.584l19.622-19.584.877.866c.482.476.915.828.961.782.094-.094 1.078-3.205 1.18-3.73.035-.183.303-1.158.595-2.167.909-3.14 1.44-4.962 1.749-6 .553-1.852.508-1.897-1.267-1.288m-61.5 6.55v3.012l4.602 4.57c2.531 2.514 4.668 4.529 4.75 4.478.164-.101.21-14.384.047-14.808-.089-.232-.664-.264-4.75-.264h-4.649z" fill="#2484ac"/><path d="m23.542 23.614c-12.948 12.963-23.541 23.696-23.541 23.852.001.156 2.776 3.055 6.167 6.441l6.165 6.157v6.282 6.283l-.568.27c-3.975 1.886-3.538 9.1.672 11.081.264.124.597.284.74.354 1.651.819 4.176.438 5.964-.899 3.673-2.747 3.523-8.622-.273-10.636l-.535-.283v-8.733-8.733l-3.774-3.771c-3.245-3.243-3.743-3.807-3.559-4.029.702-.846 36.42-36.416 36.53-36.379.074.025 7.361 7.264 16.192 16.087 8.832 8.823 16.183 16.042 16.337 16.042.153 0 .409-.063.568-.14.31-.15 2.473-.897 3.706-1.281 2.145-.666 3.499-1.18 3.5-1.329.001-.36-40.078-40.25-40.417-40.227-.203.015-9.494 9.196-23.874 23.591m290.458 4.482c-.229.04-.979.154-1.667.255-.687.101-1.587.336-2 .523-.412.187-1.05.469-1.416.628-.367.158-.81.448-.984.643-.175.195-.378.355-.452.355-.113 0-.533.416-1.918 1.9-.103.11-.478.797-.833 1.525l-.646 1.325-.001 2.417v2.416l.635 1.242c.575 1.123 2.451 3.333 2.835 3.34.075.001.375.179.666.395.859.636 4.874 2.607 5.313 2.607.125 0 .375.099.556.22.181.12.728.387 1.216.593 3.231 1.359 4.588 3.112 4.026 5.198-.63 2.341-3.536 3.336-6.981 2.392-1.905-.522-4.653-2.01-5.27-2.853-.247-.339-.744-.175-.864.284-.048.183-.145.332-.215.332s-.445.488-.833 1.084c-.389.595-.772 1.083-.853 1.083s-.147.099-.147.22-.225.472-.5.78c-.627.702-.629.682.141 1.356 2.194 1.918 4.646 3.105 7.525 3.642 7.903 1.474 13.966-2.186 14.278-8.618.23-4.737-1.369-7.216-6.111-9.472-.504-.24-1.264-.618-1.689-.839s-.875-.402-1-.402c-.214 0-.889-.304-3.469-1.56-3.84-1.87-4.093-5.17-.522-6.798 2.11-.961 6.744.018 8.582 1.813.913.893.876.932 3.125-3.243l.649-1.204-.623-.587c-.342-.324-.719-.588-.838-.588-.118 0-.215-.056-.215-.125 0-.132-.766-.541-2.379-1.272-1.458-.66-5.67-1.256-7.121-1.007m33.219.166c-1.774.215-3.84.824-5.136 1.516-.275.146-.841.44-1.259.653-.417.213-.897.54-1.067.728s-.381.341-.469.341c-.137 0-1.906 1.601-2.301 2.083-.075.092-.403.476-.729.854-.325.378-.591.747-.591.82s-.105.252-.232.397c-1.446 1.641-2.654 5.888-2.657 9.346-.003 2.805.596 5.643 1.569 7.442.265.49.446.891.402.891-.105 0 1.324 2.228 1.706 2.661.72.816 2.766 2.839 2.87 2.839.063 0 .367.225.675.5s.623.5.7.5.424.179.77.398c3.551 2.242 10.298 2.718 14.613 1.033.642-.251 1.373-.534 1.625-.63s.459-.222.459-.279c0-.058.42-.324.933-.592s.971-.587 1.018-.709c.046-.121.176-.221.287-.221.699 0 4.158-4.235 4.876-5.969.139-.338.398-.933.574-1.324.577-1.276 1.145-4.507 1.145-6.515 0-1.614-.095-2.342-.657-5.054-.126-.606-1.136-3.065-1.392-3.388-.073-.091-.397-.598-.721-1.125s-.658-.958-.743-.958c-.084 0-.154-.107-.154-.238s-.173-.375-.385-.542c-.213-.167-.521-.51-.686-.762s-.4-.458-.522-.458c-.121 0-.332-.159-.468-.353-.247-.352-.577-.596-2.171-1.6-3.316-2.089-7.253-2.846-11.882-2.285m-224.262.236c-1.866.333-4.953 1.617-6.228 2.59-.297.226-.601.412-.674.412-.074 0-.323.185-.553.411s-.812.779-1.294 1.229c-.481.45-.876.884-.878.964-.001.08-.189.323-.417.539s-.62.76-.872 1.208-.514.815-.583.815c-.068.001-.125.087-.125.193s-.222.663-.495 1.239c-.272.576-.529 1.221-.571 1.433s-.246 1.023-.454 1.802c-.536 2.017-.54 5.626-.007 7.667.204.779.403 1.604.444 1.834.04.229.277.829.525 1.333.249.504.469 1.008.49 1.119.02.112.269.547.553.967.283.42.515.806.515.857 0 .288 3.192 3.723 3.459 3.723.083 0 .325.186.538.414.214.227.658.555.988.729.329.174.824.435 1.099.58 1.09.576 2.453 1.128 3.125 1.268 2.786.578 3.501.676 4.931.675 2.324-.001 5.279-.551 6.734-1.253.471-.227.924-.413 1.008-.413s.487-.225.894-.5c.408-.275.805-.5.882-.5.078 0 .355-.181.617-.403.261-.222.813-.69 1.226-1.042 3.508-2.984 5.833-7.973 5.833-12.513v-1.542h-7-7v2.667 2.667h3.333c1.833 0 3.333.035 3.333.078 0 .257-.853 1.942-1.164 2.299-.203.235-.366.467-.361.516.016.151-2.239 2.273-2.415 2.273-.09 0-.334.159-.542.353-2.109 1.965-7.61 2.025-10.464.114-.384-.257-.738-.467-.787-.467-.579 0-2.676-2.582-3.518-4.333-1.798-3.737-1.323-10.055.906-12.073.19-.171.345-.378.345-.459 0-.142 1.065-1.219 1.848-1.868 3.259-2.704 10.121-2.711 12.656-.013.213.227.442.413.509.413.174 0 1.321 1.172 1.321 1.35 0 .267.418.159.713-.185.157-.185.287-.391.287-.459 0-.067.225-.385.5-.706.274-.321.499-.677.499-.792 0-.114.057-.208.126-.208.068 0 .384-.394.701-.875.318-.481.721-1.04.896-1.242.341-.39.277-.883-.115-.883-.129 0-.355-.182-.5-.404-.146-.222-.436-.458-.644-.524s-.454-.214-.546-.329c-.329-.411-2.821-1.615-4.562-2.205-1.881-.638-6.862-.935-9.065-.54m28.71 16.669v16.666h3.166 3.167v-6.166-6.167h2.659 2.658l.508.738c.28.406.508.841.508.967s.069.3.153.387.469.758.856 1.491c.746 1.417 1.163 2.196 2.313 4.334.394.733 1.09 2.027 1.545 2.875l.829 1.541h3.402c3.905 0 3.767.072 2.877-1.5-.285-.504-.7-1.254-.922-1.666-.222-.413-.658-1.2-.969-1.75-.312-.55-.81-1.469-1.107-2.042-.298-.573-.601-1.042-.675-1.042s-.135-.131-.136-.291c0-.161-.225-.629-.499-1.042s-.499-.817-.499-.899c-.001-.083-.264-.545-.584-1.029-.321-.483-.584-.941-.584-1.017 0-.077-.264-.511-.588-.966l-.587-.827.558-.286c.307-.158.655-.404.775-.548.119-.144.288-.261.376-.261.215 0 1.633-1.429 1.633-1.646 0-.094.1-.231.221-.304.249-.15.607-.769 1.095-1.893 1.233-2.841.747-8.51-.883-10.305-.134-.148-.597-.663-1.028-1.144s-.857-.875-.945-.875c-.089 0-.374-.178-.633-.396-1.48-1.246-4.224-1.604-12.281-1.604h-6.379zm42.32-16.625c-.007.023-.039.185-.072.36s-.252.746-.487 1.27c-.236.524-.476 1.206-.535 1.516-.059.309-.163.637-.232.729-.069.091-.355.841-.636 1.666-.876 2.579-1.845 5.32-2.003 5.667-.084.183-.244.671-.356 1.083-.112.413-.345 1.029-.518 1.369s-.315.769-.315.953-.181.732-.403 1.218c-.222.485-.455 1.106-.518 1.38-.062.273-.326 1.06-.586 1.747-.26.688-.748 2.038-1.086 3-.337.962-.815 2.313-1.061 3-.481 1.339-1.027 2.889-1.352 3.833-.11.321-.41 1.146-.667 1.834-.256.687-.51 1.449-.562 1.693-.053.243-.142.562-.198.708-.092.237.241.265 3.124.264l3.226-.002.515-1.457c1.108-3.136 1.28-3.646 1.445-4.29.095-.366.333-1.116.531-1.666l.359-1 5.686-.044 5.687-.044.111.544c.062.299.322 1.144.578 1.877.835 2.39 1.037 2.988 1.297 3.833.141.459.368 1.152.504 1.542l.249.708h3.227c2.47 0 3.228-.049 3.229-.208.001-.115-.215-.771-.48-1.458-.265-.688-.572-1.513-.682-1.834-.321-.933-.868-2.484-1.351-3.833-.246-.687-.669-1.888-.939-2.667s-.617-1.773-.77-2.208c-.154-.435-.403-1.148-.553-1.583-.151-.436-.48-1.354-.732-2.042-.253-.687-.507-1.458-.564-1.713-.058-.254-.291-.868-.518-1.364s-.412-1.015-.412-1.154c0-.138-.254-.912-.565-1.719s-.655-1.729-.766-2.05-.534-1.521-.941-2.667c-.407-1.145-.93-2.645-1.162-3.333-.232-.687-.492-1.321-.578-1.408-.085-.087-.155-.322-.155-.522 0-.199-.114-.634-.252-.966l-.252-.604h-3.248c-1.787 0-3.254.019-3.261.042m24.846 16.625v16.666l6.125-.001c9.239-.002 12.015-.514 15.625-2.879 2.768-1.813 4.72-4.525 5.846-8.12 1.298-4.146.679-11.602-1.191-14.342-.223-.326-.405-.656-.405-.734 0-.863-4.719-5.257-5.647-5.257-.075 0-.471-.178-.881-.396-.839-.446-3.629-1.189-5.388-1.434-.642-.09-4.073-.165-7.625-.167l-6.459-.003zm32.004-16.375c.002.16.198.816.435 1.458 1.036 2.802 1.368 3.702 1.565 4.25.115.321.462 1.224.77 2.006.308.783.56 1.506.56 1.608 0 .101.225.713.5 1.359.275.647.5 1.29.5 1.43s.183.65.408 1.134.568 1.367.764 1.963.45 1.308.565 1.583c.198.474.34.869 1.02 2.834.159.458.504 1.349.766 1.98.262.63.477 1.253.477 1.384 0 .13.142.552.315.936.174.385.518 1.262.765 1.95.247.687.71 1.962 1.03 2.833.319.871.717 1.996.885 2.5s.399 1.123.515 1.375l.21.458h3.03 3.029l.194-.424c.106-.234.193-.527.193-.651 0-.125.225-.728.5-1.341s.5-1.226.5-1.362.251-.86.558-1.609c.307-.75.649-1.625.762-1.946.112-.321.36-1.033.551-1.583s.476-1.3.633-1.667c.156-.367.38-.967.496-1.333.116-.367.426-1.183.689-1.814.263-.63.478-1.268.479-1.416.001-.149.109-.477.241-.731.132-.253.43-1.003.661-1.666.415-1.19 1.167-3.265 2.127-5.873.27-.734.676-1.859.902-2.5.226-.642.559-1.485.74-1.874.18-.388.328-.79.328-.893s.251-.835.559-1.627c.649-1.675.941-2.551.941-2.826 0-.145-.876-.197-3.297-.197h-3.298l-.452 1.163c-.249.64-.453 1.268-.453 1.394 0 .127-.225.776-.5 1.443s-.5 1.342-.5 1.5-.225.833-.5 1.5-.5 1.298-.5 1.402-.224.77-.497 1.481c-.274.71-.533 1.459-.577 1.663-.043.204-.46 1.458-.926 2.787-.467 1.33-.926 2.679-1.021 3-.094.321-.382 1.184-.639 1.917-1.15 3.279-1.347 3.947-1.694 5.749l-.209 1.082-.298-1.166c-.164-.641-.3-1.329-.302-1.529-.002-.201-.218-.951-.48-1.667-.727-1.989-1.198-3.369-1.526-4.469-.322-1.083-1.104-3.362-1.429-4.167-.111-.275-.334-.912-.497-1.416-.437-1.353-1.135-3.435-1.566-4.667-.208-.596-.474-1.421-.589-1.833-.116-.413-.407-1.217-.647-1.787s-.436-1.145-.436-1.277-.161-.659-.357-1.172l-.356-.931h-3.31c-3.043 0-3.31.024-3.307.292m37.663 16.375v16.666h3.167 3.166v-16.666-16.667h-3.166-3.167zm86.5 0v16.666h3.167 3.166v-6.166-6.167l2.709.002 2.708.001.287.624c.157.343.56 1.11.894 1.706s.824 1.496 1.088 2 .548 1.029.631 1.167c.082.137.326.606.541 1.042.216.435.448.791.517.791s.125.118.125.262.184.576.408.959c.806 1.377 1.43 2.541 1.694 3.154l.268.625h3.398 3.399v-.414c0-.228-.225-.78-.5-1.227s-.5-.868-.5-.936-.225-.458-.5-.865c-.275-.408-.5-.819-.5-.915s-.139-.374-.308-.617-.751-1.251-1.292-2.24c-.541-.988-1.264-2.301-1.608-2.916-.343-.616-.851-1.532-1.128-2.036-.278-.504-.648-1.154-.823-1.443l-.317-.527.476-.197c.262-.108.605-.34.764-.515.158-.175.36-.318.448-.318.551 0 2.332-2.43 2.916-3.98 2.191-5.811-.293-11.857-5.545-13.496-1.872-.584-3.289-.68-10.125-.686l-6.458-.005zm-22.417-10.985c.55.173 1.102.315 1.226.316s.559.227.967.502c.407.275.801.5.874.5.13 0 .776.546 1.734 1.467 2.392 2.298 3.571 6.454 2.938 10.353-.247 1.518-1.257 3.972-1.899 4.614-.141.141-.256.322-.256.401 0 .174-2.353 2.498-2.529 2.498-.068 0-.483.21-.922.467-2.918 1.705-8.197 1.577-10.016-.243-.123-.123-.316-.224-.428-.224-.633 0-2.987-2.775-3.816-4.5-4.209-8.75 3.402-18.886 12.127-16.151m-187.913.115c4.243.97 5.009 6.822 1.192 9.107-.65.388-2.306.585-4.987.59l-2.875.006v-5-5l2.708.005c1.948.004 3.061.086 3.962.292m67.955.028c1.594.314 3.483 1.12 4.264 1.819.687.615 1.939 1.948 1.941 2.068.002.071.187.408.411.75 1.065 1.621 1.758 5.264 1.453 7.629-.285 2.209-1.289 5.242-1.735 5.242-.069 0-.126.107-.126.238 0 .13-.497.732-1.105 1.337-2.184 2.173-4.712 2.925-9.831 2.925h-2.73v-11.166-11.167h2.904c2.205 0 3.302.078 4.554.325m155.831.067c2.661.778 3.833 4.031 2.5 6.941-.99 2.16-2.298 2.667-6.881 2.667h-2.742v-5.018-5.018l3.125.086c2.082.057 3.417.171 3.998.342m-190.807 2.233c.415 1.671 1.184 4.184 1.875 6.133.262.738.476 1.435.476 1.547 0 .113.219.785.486 1.492.268.708.536 1.53.597 1.828l.11.542h-4.033c-3.762 0-4.026-.02-3.947-.292.047-.16.215-.667.372-1.125.158-.458.489-1.433.735-2.167.246-.733.657-1.933.914-2.666.256-.734.598-1.784.76-2.334.558-1.9.998-3.501 1.089-3.958.131-.667.166-.605.566 1m-183.059 49.655c-2.253.627-2.757 2.65-2.757 11.071v6.149h3.584 3.583l-.003-5.708c-.005-7.823-.234-9.188-1.817-10.825-.609-.629-1.729-.926-2.59-.687" fill="#044464"/></g></svg>