<svg enable-background="new 0 0 607.6 99.3" viewBox="0 0 607.6 99.3" xmlns="http://www.w3.org/2000/svg"><path d="m48.2 7.4c-14.3 0-28.4-.7-42.4-2-.8 16.5 14.5 32.1 33.8 35.9l3.2.4c.9-6.1 5.3-29 6.9-34.4-.5.1-1 .1-1.5.1z" fill="#a49dff"/><path d="m49.7 7.4s22.8 16.5 31.5 38.6c4-13.2 7-27 9.2-40.6-13.7 1.3-27.2 2-40.7 2z" fill="#28289a"/><path d="m42.8 41.8-.5 3.2s-4.1 33 24.8 42.4c5.4-13.5 10.1-27.3 14.1-41.4-17.3-1.3-38.4-4.2-38.4-4.2z" fill="#5adcee"/><path d="m49.7 7.4c-1.6 5.4-6 28.2-6.9 34.4 0 0 21.1 2.9 38.4 4.2-8.8-22.1-31.5-38.6-31.5-38.6z" fill="#7878ff"/><g fill="#324063"><path d="m461.9 21c-2.8 0-5.1-2.3-5.1-5.1s2.3-5.1 5.1-5.1c1.4 0 2.6.5 3.6 1.5s1.5 2.2 1.5 3.6c0 2.8-2.3 5.1-5.1 5.1z"/><path d="m278.2 21c-2.8 0-5.1-2.3-5.1-5.1s2.3-5.1 5.1-5.1c1.4 0 2.6.5 3.6 1.5s1.5 2.2 1.5 3.6c0 2.8-2.3 5.1-5.1 5.1z"/><path d="m274 95.1v-63h8.4v63.1z"/><path d="m457.7 95.1v-63h8.4v63.1z"/><path d="m436.4 95.1v-89.8l8.4.1v89.8z"/><path d="m524.8 95.1.1-37c0-11.3-6.9-19.1-17.5-19.2-11.5 0-19.8 8-19.8 18.3l-.1 37.8h-8.4v-62.9h8.4l.1 7.9.5-.5c5.1-5.2 12.4-8.1 19.7-8.1 13.6 0 25.5 11.5 25.5 24.8l-.1 39z"/><path d="m232.5 95.8c-6.5 0-12.9-2.7-17.8-7.5-4.8-4.7-7.6-11.1-7.6-17.4v-38.8h8.4v36.9c0 11.3 6.7 19.4 17.4 19.4 11.5 0 19.8-8.3 19.8-18.6l.1-37.7h8.4l-.1 63.1h-8.4v-8l-.5.5c-5.3 5.2-12.4 8.1-19.7 8.1z"/><path d="m396 31.4c-17.4 0-29.8 13.6-29.9 32.4 0 9.1 2.8 17.3 8.2 23.3 5.5 6 13.3 8.7 22 8.8h.1c15.1 0 22.6-7.6 25.1-10.3l.4-.4-5.9-4.8-.1.1c-4.9 4.2-9.6 8-19.2 8-11.9 0-20.6-8-22.1-20.5v-.3l50.4.1.1-.4c.3-1.2.4-3.3.4-4.7-.1-18.2-12.4-31.3-29.5-31.3zm-21.6 28.9v-.3c1.2-12.4 10.1-21 21.5-21 12.1 0 20.6 8.5 21.2 21.1v.3z"/><path d="m573.8 31.4c-17.4 0-29.8 13.6-29.8 32.4 0 9.1 2.8 17.3 8.2 23.3 5.5 6 13.3 8.7 22 8.8h.1c15.1 0 22.6-7.6 25.1-10.3l.4-.4-5.9-4.8-.1.1c-4.9 4.2-9.6 8-19.2 8-11.9 0-20.6-8-22.1-20.5v-.3l50.4.1.1-.4c.3-1.2.4-3.3.4-4.7-.1-18.2-12.4-31.3-29.6-31.3zm-21.5 28.9v-.3c1.2-12.4 10.1-21 21.5-21 12.1 0 20.6 8.5 21.2 21.1v.3z"/><path d="m153.2 48v7.7l34.1.1v.3c-.8 18.7-13.9 31.3-32.6 31.3-19.3 0-34.1-15.9-34.1-36.9 0-21.7 14.6-37 36.7-37 0 0 6.9-.1 13.3 2.3 5 1.9 10.2 4.8 14 9.9l6.7-5.5c-5.6-6.7-12.5-11-21.1-13.2l-.3-.1c-.4-.1-.8-.2-1.2-.3l-.2-.1c-4.6-1-8.3-1.2-10.2-1.2-.3 0-1.2 0-1.2 0-26.4.1-45 18.6-45 45.1 0 26.2 17.8 45.2 42.5 45.3h.1c25 0 41.7-17.1 41.8-42.6v-5.1z"/><path d="m322.9 95.8c-18.7 0-29.3-14.5-29.3-32.4 0-19.4 11.8-32 29.4-32 9.4 0 17.2 3.6 22.9 11.1l.5.7.1-37.9h8.4l-.2 89.8h-8.4v-11.2l-.5.7c-4.1 5.2-11.1 11.2-22.9 11.2zm.5-56.8c-12.7 0-21.3 10.2-21.3 24.4 0 6.8 2 12.9 5.7 17.3 3.9 4.6 9.4 7.7 15.8 7.7 13.2 0 22.8-10.9 22.8-24.9 0-6.6-2.2-12.7-6.3-17.2-4.2-4.6-10.3-7.3-16.7-7.3z"/></g></svg>