<svg height="89.561271" viewBox="0 0 400 89.5612708" width="400" xmlns="http://www.w3.org/2000/svg"><path d="m79.625.111c-.252.043-.458.148-.458.233 0 .086-.225.156-.5.156s-.5.066-.5.148c0 .081-.338.198-.75.26-.413.062-.75.183-.75.269s-.188.156-.417.156-.417.075-.417.167-.225.167-.5.167-.5.075-.5.166c0 .092-.187.167-.416.167s-.417.066-.417.148c0 .081-.338.198-.75.26-.413.062-.75.183-.75.269s-.225.156-.5.156-.5.075-.5.167-.187.167-.417.167c-.229 0-.416.075-.416.166 0 .092-.188.167-.417.167s-.417.058-.417.13c0 .143-1.766.703-2.216.703-.156 0-.284.075-.284.167s-.187.167-.416.167-.417.075-.417.166c0 .092-.225.167-.5.167s-.5.075-.5.167c0 .091-.15.166-.333.166-.184 0-.334.068-.334.151s-.375.203-.833.266-.833.183-.833.266-.225.151-.5.151-.5.075-.5.166c0 .092-.15.167-.334.167-.183 0-.333.075-.333.167 0 .091-.187.166-.417.166-.229 0-.416.061-.416.134 0 .118-.808.354-2.209.643-.252.052-.458.161-.458.242 0 .082-.15.148-.333.148-.184 0-.334.075-.334.167 0 .091-.187.166-.416.166s-.417.075-.417.167-.225.167-.5.167-.5.066-.5.147c0 .082-.337.199-.75.261-.413.061-.75.182-.75.269 0 .086-.187.156-.417.156-.229 0-.416.075-.416.167 0 .091-.225.166-.5.166s-.5.075-.5.167-.188.167-.417.167-.417.065-.417.144c0 .08-.317.188-.704.24-.388.052-.732.174-.764.272-.033.097-.278.177-.546.177-.267 0-.486.075-.486.167 0 .091-.187.166-.416.166s-.417.075-.417.167-.225.167-.5.167-.5.074-.5.164c0 .091-.302.213-.67.272-.369.059-.711.173-.76.252-.049.08-.273.145-.497.145-.223 0-.406.075-.406.167 0 .091-.183.166-.407.166s-.453.075-.51.167-.286.167-.51.167-.407.075-.407.166c0 .092-.15.167-.333.167s-.333.068-.333.151-.375.203-.833.266c-.459.063-.876.182-.927.265s-.276.151-.5.151-.407.075-.407.167-.15.167-.333.167c-.184 0-.334.075-.334.166 0 .092-.187.167-.416.167s-.417.065-.417.145-.372.195-.826.255c-.455.06-.872.182-.927.271-.055.09-.283.162-.507.162s-.407.075-.407.167-.15.167-.333.167-.333.075-.333.166c0 .092-.225.167-.5.167s-.5.075-.5.167c0 .091-.188.166-.417.166s-.417.067-.417.148-.337.198-.75.26c-.412.062-.75.183-.75.269s-.183.157-.406.157c-.224 0-.454.075-.51.166-.057.092-.286.167-.51.167s-.407.075-.407.167c0 .091-.187.166-.417.166-.229 0-.416.065-.416.145s-.317.187-.705.239-.731.175-.764.272c-.032.098-.278.178-.545.178-.268 0-.486.075-.486.166 0 .092-.188.167-.417.167s-.417.075-.417.167c0 .091-.225.166-.5.166s-.5.074-.5.165-.301.213-.67.272-.711.172-.76.252-.272.145-.496.145-.407.075-.407.166c0 .092-.225.167-.5.167s-.5.075-.5.167c0 .091-.187.166-.417.166-.229 0-.416.075-.416.167s-.15.167-.334.167c-.183 0-.333.068-.333.151s-.375.202-.833.265-.875.183-.927.266c-.051.083-.276.151-.5.151s-.407.075-.407.167c0 .091-.15.166-.333.166s-.333.075-.333.167-.188.167-.417.167-.417.065-.417.145-.372.194-.826.255c-.455.06-.872.182-.927.271s-.23.162-.39.162c-.365 0-1.187.375-1.189.542 0 .068-.116.125-.257.125-.322 0-1.244.93-1.244 1.255 0 .135-.075.245-.167.245-.091 0-.166.15-.166.333s-.075.333-.167.333c-.22 0-.22 2.781 0 2.917.092.057.167.286.167.51s.07.407.156.407.207.337.269.75c.062.412.179.75.26.75.082 0 .148.223.148.496 0 .383.09.52.392.596.775.194 7.745.004 7.967-.217.114-.115.38-.209.591-.209s.383-.075.383-.166c0-.092.15-.167.334-.167.183 0 .333-.075.333-.167 0-.091.225-.166.5-.166s.5-.067.5-.148.336-.198.746-.26c.41-.061.79-.182.843-.269.054-.086.243-.157.421-.157s.323-.075.323-.166c0-.092.225-.167.5-.167s.5-.075.5-.167c0-.091.188-.166.417-.166s.417-.067.417-.148.337-.198.75-.26c.412-.062.75-.183.75-.269s.183-.157.406-.157c.224 0 .454-.075.51-.166.057-.092.286-.167.51-.167s.407-.075.407-.167c0-.091.188-.166.417-.166s.416-.075.416-.167.225-.167.5-.167.5-.07.5-.156.338-.207.75-.269c.413-.062.75-.179.75-.26 0-.082.188-.148.417-.148s.417-.075.417-.167c0-.091.225-.166.5-.166s.5-.075.5-.167.112-.167.25-.167c.137 0 .25-.065.25-.145s.372-.194.826-.255c.455-.06.872-.182.927-.271s.23-.162.39-.162c.365 0 1.187-.375 1.189-.542 0-.068.226-.125.501-.125s.5-.075.5-.166c0-.092.188-.167.417-.167s.416-.065.416-.145c0-.079.317-.187.705-.239s.731-.174.764-.272c.032-.097.278-.177.545-.177.268 0 .486-.075.486-.167s.188-.167.417-.167.417-.075.417-.166c0-.092.225-.167.5-.167s.5-.066.5-.148c0-.081.337-.198.75-.26.412-.062.75-.183.75-.269s.187-.156.416-.156c.23 0 .417-.075.417-.167s.225-.167.5-.167.5-.075.5-.166c0-.092.188-.167.417-.167s.416-.07.416-.156c0-.087.338-.208.75-.269.413-.062.75-.179.75-.261 0-.081.183-.147.407-.147s.453-.075.51-.167.286-.167.51-.167.407-.075.407-.166c0-.092.15-.167.333-.167s.333-.075.333-.167c0-.091.188-.166.417-.166s.417-.066.417-.146c0-.079.372-.194.826-.254.455-.061.872-.183.927-.272s.245-.162.423-.162.324-.075.324-.166c0-.092.187-.167.416-.167.23 0 .417-.075.417-.167 0-.091.225-.166.5-.166s.5-.067.5-.148.336-.198.746-.26c.41-.061.79-.182.843-.269.054-.086.243-.157.421-.157s.323-.075.323-.166c0-.092.225-.167.5-.167s.5-.075.5-.167c0-.091.188-.166.417-.166s.417-.067.417-.148.337-.198.75-.26c.412-.062.75-.183.75-.269s.183-.157.406-.157c.224 0 .454-.075.51-.166.057-.092.286-.167.51-.167s.407-.075.407-.167c0-.091.188-.166.417-.166s.416-.075.416-.167.15-.167.334-.167c.183 0 .333-.065.333-.145s.372-.194.826-.255c.455-.06.872-.182.927-.271s.283-.162.507-.162.407-.075.407-.167c0-.091.15-.166.333-.166s.333-.075.333-.167.225-.167.5-.167.5-.066.5-.147c0-.082.336-.199.746-.26.411-.062.79-.183.844-.269.053-.086.275-.157.494-.157.218 0 .443-.075.5-.167.056-.091.248-.166.426-.166s.324-.075.324-.167.187-.167.416-.167c.23 0 .417-.075.417-.166 0-.092.188-.167.417-.167s.416-.065.416-.145c0-.079.317-.187.705-.239s.731-.174.764-.272c.032-.097.278-.177.545-.177.268 0 .486-.075.486-.167s.188-.167.417-.167.417-.075.417-.166c0-.092.218-.167.486-.167.267 0 .513-.08.545-.177.033-.098.376-.22.764-.272s.705-.16.705-.24c0-.079.187-.144.416-.144.23 0 .417-.075.417-.167s.225-.167.5-.167.5-.075.5-.166c0-.092.112-.167.25-.167.137 0 .25-.065.25-.144s.349-.192.775-.25c.426-.059.857-.171.958-.251.714-.56 1.434-.198 1.434.721 0 .414.074.591.25.591.181 0 .25-.187.25-.679 0-.381-.11-.788-.25-.928-.138-.138-.25-.466-.25-.729s-.075-.524-.167-.581-.167-.234-.167-.393c0-.365-.374-1.187-.541-1.189-.069-.001-.125-.226-.125-.501s-.075-.5-.167-.5-.167-.188-.167-.417-.065-.417-.144-.417c-.08 0-.188-.317-.24-.704-.052-.388-.174-.732-.272-.764-.097-.033-.177-.203-.177-.379s-.066-.319-.147-.319-.187-.15-.234-.333c-.048-.183-.226-.384-.395-.447-.169-.062-.445-.269-.612-.458-.307-.346-3.139-.547-4.487-.318m8.542 10.972c0 .321.075.584.166.584.092 0 .167.112.167.25 0 .137.075.25.167.25.091 0 .166.3.166.666 0 .367.075.667.167.667s.167.188.167.417c0 .352-.078.416-.5.416-.275 0-.5.075-.5.167s-.188.167-.417.167-.417.075-.417.166c0 .092-.225.167-.5.167s-.5.075-.5.167c0 .091-.168.167-.375.167-.206.001-.589.113-.852.25s-.619.249-.792.249-.314.075-.314.167-.183.167-.407.167-.453.075-.51.166c-.056.092-.286.167-.51.167-.223 0-.406.075-.406.167 0 .091-.15.166-.334.166-.183 0-.333.068-.333.151s-.375.203-.833.266-.875.183-.927.266c-.051.083-.276.151-.5.151s-.407.075-.407.166c0 .092-.187.167-.416.167s-.417.075-.417.167c0 .091-.15.166-.333.166-.184 0-.334.066-.334.146 0 .079-.372.194-.826.254-.455.061-.872.183-.927.272s-.283.162-.507.162c-.223 0-.406.075-.406.166 0 .092-.15.167-.334.167-.183 0-.333.075-.333.167 0 .091-.225.166-.5.166s-.5.067-.5.148-.336.198-.746.26c-.41.061-.79.182-.843.269-.054.086-.243.157-.421.157s-.323.075-.323.166c0 .092-.183.167-.407.167s-.453.075-.51.167c-.057.091-.286.166-.51.166s-.407.075-.407.167-.187.167-.416.167-.417.065-.417.144c0 .08-.317.188-.705.24-.387.052-.731.174-.764.272-.032.097-.278.177-.545.177s-.486.075-.486.167c0 .091-.187.166-.417.166-.229 0-.416.075-.416.167s-.219.167-.486.167c-.268 0-.513.08-.546.177-.032.098-.376.22-.764.272-.387.052-.704.16-.704.239 0 .08-.188.145-.417.145s-.417.075-.417.167c0 .091-.225.166-.5.166s-.5.075-.5.167-.187.167-.416.167-.418.056-.418.125c-.001.068-.47.261-1.042.428-.572.168-1.171.374-1.33.459s-.44.154-.625.154c-.184 0-.335.075-.335.167s-.15.167-.334.167c-.183 0-.333.075-.333.166 0 .092-.187.167-.417.167-.229 0-.416.065-.416.145s-.372.195-.827.255c-.454.06-.871.182-.926.271-.055.09-.231.162-.391.162-.364 0-1.187.375-1.188.542-.001.069-.227.125-.502.125s-.5.075-.5.167c0 .091-.141.166-.314.166-.472 0-2.019.53-2.019.692 0 .078-.225.142-.5.142s-.5.075-.5.166c0 .092-.187.167-.417.167-.229 0-.416.075-.416.167 0 .091-.142.166-.315.166-.172 0-.529.112-.791.249-.263.137-.684.25-.936.25-.252.001-.458.076-.458.168s-.188.167-.417.167-.417.075-.417.166c0 .092-.187.167-.416.167s-.417.075-.417.167c0 .091-.225.166-.5.166s-.5.071-.5.157-.338.207-.75.269c-.413.062-.75.179-.75.26s-.187.148-.417.148c-.229 0-.416.075-.416.166 0 .092-.225.167-.5.167-.423 0-.5.065-.5.417v.416h20.25c13.389 0 20.25.057 20.25.167 0 .092.3.167.666.167.367 0 .667.075.667.166 0 .092.112.167.25.167.137 0 .25.075.25.167 0 .091.15.166.333.166.184 0 .334.06.334.133s.325.267.723.431.827.442.954.617c.126.176.291.319.367.319s.325.188.554.417.488.417.576.417c.087 0 .159.118.159.262s.094.366.208.494c.495.551.625.74.625.903 0 .096.075.174.167.174s.167.15.167.333c0 .184.075.334.166.334.092 0 .167.112.167.25 0 .137.075.25.167.25.091 0 .166.21.166.466 0 .257.094.561.209.675.155.156.221 1.538.259 5.463l.05 5.255.7-.116c.384-.064.724-.182.755-.263.03-.081.274-.147.541-.147.268 0 .486-.075.486-.167 0-.091.188-.166.417-.166s.417-.075.417-.167.225-.167.5-.167.5-.075.5-.166c0-.092.187-.167.416-.167.23 0 .417-.07.417-.156 0-.087.337-.208.75-.269.412-.062.75-.179.75-.261 0-.081.183-.147.407-.147s.453-.075.51-.167c.056-.092.286-.167.51-.167.223 0 .406-.075.406-.166 0-.092.142-.167.315-.167.172 0 .529-.112.791-.249.263-.137.642-.249.843-.25s.411-.076.468-.168c.057-.091.286-.166.51-.166s.407-.075.407-.167.1-.167.223-.167c.252 0 1.277-1.066 1.277-1.329 0-.094.075-.171.166-.171.092 0 .167-.15.167-.333s.075-.333.167-.333c.099 0 .166-.636.166-1.574 0-.869-.074-1.619-.166-1.676s-.167-.286-.167-.51-.075-.407-.167-.407c-.091 0-.166-.15-.166-.333 0-.184-.061-.334-.134-.334-.118 0-.354-.808-.643-2.208-.052-.252-.161-.458-.242-.458-.082 0-.148-.15-.148-.334 0-.183-.075-.333-.167-.333-.091 0-.166-.187-.166-.417 0-.229-.075-.416-.167-.416s-.167-.225-.167-.5-.066-.5-.147-.5c-.082 0-.199-.338-.261-.75-.061-.413-.182-.75-.269-.75-.086 0-.156-.188-.156-.417s-.075-.417-.167-.417c-.091 0-.166-.183-.166-.406 0-.224-.075-.454-.167-.51-.092-.057-.167-.286-.167-.51s-.068-.407-.152-.407c-.083 0-.202-.3-.264-.666s-.181-.708-.265-.76c-.084-.051-.152-.277-.152-.501 0-.223-.075-.406-.167-.406-.091 0-.166-.15-.166-.334 0-.183-.075-.333-.167-.333s-.167-.225-.167-.5-.066-.5-.147-.5c-.082 0-.199-.336-.26-.746-.062-.41-.183-.79-.269-.843-.086-.054-.157-.243-.157-.421s-.075-.323-.167-.323c-.091 0-.166-.225-.166-.5s-.075-.5-.167-.5-.167-.188-.167-.417-.075-.417-.166-.417c-.092 0-.167-.187-.167-.416s-.07-.417-.156-.417c-.087 0-.208-.338-.27-.752s-.179-.793-.26-.843-.147-.274-.147-.498-.075-.407-.167-.407-.167-.187-.167-.417c0-.229-.075-.416-.166-.416-.092 0-.167-.15-.167-.334 0-.183-.06-.333-.134-.333-.118 0-.353-.808-.643-2.208-.052-.252-.161-.459-.242-.459s-.148-.15-.148-.333-.075-.333-.166-.333c-.092 0-.167-.188-.167-.417s-.075-.417-.167-.417c-.091 0-.166-.225-.166-.5s-.075-.5-.167-.5-.167-.182-.167-.404c0-.223-.112-.518-.25-.655-.137-.138-.25-.481-.25-.762 0-.401-.072-.512-.333-.512-.27 0-.333.111-.333.583m168.333 32.167v27.083h6.5 6.5l.01-8.041c.007-6.29.053-7.974.208-7.728.109.173.367.488.574.701.206.212.375.464.375.559s.15.267.333.381c.183.115.333.337.333.494s.188.473.417.703c.229.229.417.461.417.515s.187.286.416.515c.23.229.417.509.417.622s.15.314.333.446c.184.132.334.344.334.47s.225.44.5.697.5.546.5.642c0 .097.187.363.416.593.23.229.417.478.417.554 0 .075.15.245.333.377.184.132.334.361.334.508s.187.444.416.659c.23.215.417.463.417.551s.137.281.304.429c.166.149.445.514.619.812.173.298.374.541.446.541s.131.123.131.272c0 .274.596.895.859.895.077 0 .141.147.141.326s.188.513.417.742.416.479.416.554c0 .076.15.246.334.378.183.132.333.374.333.537 0 .28.442.296 8 .296h8v-.392c0-.227-.2-.561-.475-.792-.262-.219-.573-.586-.693-.816-.12-.229-.506-.698-.858-1.041-.352-.344-.641-.69-.641-.769 0-.08-.412-.574-.916-1.099-.505-.525-.917-1.022-.917-1.105s-.375-.534-.833-1.002c-.459-.468-.834-.916-.834-.995 0-.197-1.139-1.322-1.339-1.322-.088 0-.161-.15-.161-.334 0-.314-1.081-1.499-1.368-1.499-.072 0-.132-.139-.132-.309 0-.169-.412-.686-.916-1.148-.505-.462-.917-.934-.917-1.05 0-.115-.338-.529-.75-.919-.413-.389-.75-.788-.75-.887 0-.098-.338-.516-.75-.929-.413-.412-.75-.813-.75-.891 0-.205-1.463-1.701-1.664-1.701-.093 0-.169-.146-.169-.325 0-.18-.197-.523-.437-.763l-.436-.436.353-.247c.194-.136.353-.358.353-.493s.262-.487.583-.781c.321-.295.584-.596.584-.669 0-.074.187-.322.416-.551.23-.229.417-.483.417-.564 0-.082.15-.196.333-.254.184-.058.334-.22.334-.359 0-.14.337-.582.75-.983.412-.401.75-.809.75-.908s.337-.507.75-.908c.412-.401.75-.812.75-.913 0-.102.337-.508.75-.903.412-.395.75-.844.75-.997 0-.154.071-.279.159-.279.145 0 .607-.436 1.132-1.068.115-.138.209-.367.209-.508 0-.142.074-.257.165-.257.212 0 1.168-.996 1.168-1.217 0-.092.337-.486.75-.875.412-.39.75-.789.75-.887 0-.099.337-.517.75-.929.412-.413.75-.793.75-.845 0-.118.26-.434.958-1.168.298-.312.542-.611.542-.664 0-.119.258-.434.958-1.169 1.239-1.301 1.565-1.246-7.458-1.246-7.289 0-8 .024-8 .272 0 .274-.596.894-.859.894-.077 0-.141.118-.141.262s-.094.367-.208.494c-.457.509-.625.735-.625.837 0 .059-.225.317-.5.574s-.5.531-.5.61-.188.346-.417.593-.417.548-.417.67c0 .121-.15.328-.333.46s-.333.304-.333.382-.094.247-.209.374c-.456.509-.625.735-.625.837 0 .059-.212.306-.472.549-.259.243-.522.643-.583.889-.062.246-.262.495-.445.553s-.333.22-.333.361c0 .14-.225.465-.5.722s-.5.546-.5.643c0 .096-.187.363-.417.592-.229.229-.416.461-.416.515s-.188.3-.417.547-.417.554-.417.682c0 .243-.615.854-.859.854-.077 0-.141.116-.141.258 0 .141-.187.459-.416.706l-.417.45v-14.29-14.29h-6.5-6.5zm-127.5 1.333v25.75h6.417 6.416v-9.083-9.083h4.334c2.777 0 4.333-.06 4.333-.167 0-.1.667-.167 1.667-.167.916 0 1.666-.064 1.666-.142 0-.079.58-.187 1.289-.24.708-.054 1.315-.177 1.347-.274.032-.098.263-.177.512-.177.495 0 1.349-.342 1.351-.542.001-.068.226-.125.501-.125s.5-.075.5-.166c0-.092.081-.167.179-.167s.291-.113.428-.25c.138-.138.395-.25.572-.25s.321-.075.321-.167c0-.091.112-.166.249-.166s.342-.15.457-.334c.114-.183.313-.333.443-.333.129 0 .489-.263.801-.583.311-.321.641-.584.733-.584.177 0 .984-.751.984-.916 0-.109.232-.402.792-1.001.206-.22.375-.479.375-.575s.064-.174.142-.174c.079 0 .36-.488.625-1.083.266-.596.539-1.083.608-1.084.068 0 .125-.225.125-.5s.075-.5.166-.5c.092 0 .167-.181.167-.403 0-.221.073-.428.163-.458.089-.031.213-.712.274-1.514.062-.802.176-1.458.254-1.458s.142-1.013.142-2.25c0-1.238-.064-2.25-.142-2.25s-.192-.657-.254-1.459c-.061-.802-.185-1.483-.274-1.514-.09-.03-.163-.274-.163-.541 0-.268-.075-.486-.167-.486-.091 0-.166-.188-.166-.417s-.075-.417-.167-.417-.167-.15-.167-.333-.065-.333-.145-.333c-.081 0-.188-.207-.239-.459s-.248-.624-.438-.826c-.189-.202-.344-.44-.344-.529 0-.088-.207-.392-.459-.676-1.525-1.713-1.805-2.004-1.933-2.007-.078-.002-.351-.228-.608-.503s-.578-.5-.713-.5c-.136 0-.34-.113-.454-.25-.114-.138-.311-.25-.437-.25s-.23-.075-.23-.167-.15-.167-.333-.167-.333-.075-.333-.166c0-.092-.113-.167-.25-.167-.138 0-.25-.075-.25-.167 0-.091-.15-.166-.334-.166-.183 0-.333-.071-.333-.157s-.338-.207-.75-.269c-.413-.062-.75-.179-.75-.26s-.225-.148-.5-.148-.5-.075-.5-.166c0-.092-.263-.167-.583-.167-.321 0-.584-.075-.584-.167 0-.091-.408-.166-.906-.166-.499 0-.954-.075-1.01-.167-.067-.109-4.335-.167-12.26-.167h-12.157zm174.333-8.166c0 11.611.057 17.583.167 17.583.092 0 .167.413.167.917s.064.916.143.916.19.388.246.863c.056.474.179.939.273 1.033s.171.291.171.438c0 .346.38 1.163.542 1.165.068.001.125.151.125.335 0 .183.075.333.166.333.092 0 .169.131.172.292.003.16.116.437.25.615.135.178.245.442.245.588s.15.373.333.505c.184.132.334.32.334.417s.15.284.333.416.333.361.333.508c0 .146.357.604.792 1.017s.958.933 1.161 1.155c.507.554 1.182 1.154 1.299 1.154.053 0 .284.187.513.416.23.23.564.417.743.417s.326.075.326.167c0 .091.112.166.25.166.137 0 .25.075.25.167s.15.167.333.167.333.075.333.166c0 .092.15.167.334.167.183 0 .333.057.333.127 0 .174 1.257.706 1.668.706.183 0 .332.075.332.167s.225.167.5.167.5.075.5.166c0 .092.262.167.583.167s.584.075.584.167c0 .091.322.166.716.166s.81.093.923.206c.296.296 9.092.296 9.388 0 .113-.113.529-.206.923-.206s.716-.075.716-.166c0-.092.263-.167.584-.167.32 0 .583-.075.583-.167 0-.091.225-.166.5-.166s.5-.067.5-.148.337-.198.75-.26c.412-.062.75-.169.75-.238s.262-.228.583-.354.584-.29.584-.365c0-.074.15-.135.333-.135s.333-.075.333-.167.113-.167.25-.167c.138 0 .25-.075.25-.166 0-.092.145-.167.322-.167s.434-.113.571-.25c.138-.138.33-.25.427-.25.098 0 .271-.15.386-.333.114-.184.307-.334.428-.334.301 0 3.033-2.709 3.035-3.009 0-.132.225-.418.5-.634.274-.217.498-.498.498-.625 0-.128.074-.232.163-.232.09 0 .211-.187.269-.416.057-.23.171-.417.253-.417.081 0 .148-.15.148-.333 0-.184.075-.334.167-.334s.167-.15.167-.333.075-.333.166-.333c.092 0 .167-.113.167-.25 0-.138.07-.25.156-.25.087 0 .208-.338.269-.75.062-.413.179-.75.261-.75.081 0 .147-.225.147-.5s.075-.5.167-.5.167-.263.167-.584.075-.583.166-.583c.092 0 .167-.333.167-.74s.075-.787.167-.843c.095-.059.166-.919.166-2.01 0-1.167.065-1.907.168-1.907.111 0 .153-5.21.125-15.542l-.043-15.541-6.458-.044-6.458-.044v15.752c0 10.391-.057 15.752-.167 15.752-.094 0-.167.473-.167 1.084s-.072 1.083-.166 1.083c-.092 0-.167.262-.167.583s-.075.584-.167.584c-.091 0-.166.15-.166.333s-.058.333-.128.333-.252.289-.405.643c-.372.858-2.164 2.634-2.799 2.774-.274.06-.541.178-.593.263-.052.084-.278.154-.502.154s-.407.075-.407.166c0 .092-.337.167-.75.167-.412 0-.75.075-.75.167 0 .1-.666.166-1.666.166s-1.667-.066-1.667-.166c0-.092-.258-.167-.573-.167-.316 0-.62-.075-.677-.167-.057-.091-.286-.166-.51-.166s-.407-.069-.407-.154c0-.084-.243-.207-.541-.272-.298-.066-.663-.259-.811-.43-.149-.171-.323-.311-.387-.311-.15 0-.594-.44-.594-.588 0-.061-.225-.322-.5-.579s-.5-.587-.5-.733c0-.147-.072-.267-.159-.267-.088 0-.208-.262-.269-.583-.06-.321-.176-.583-.257-.583-.082 0-.148-.263-.148-.584s-.075-.583-.167-.583c-.094 0-.167-.472-.167-1.083s-.072-1.084-.166-1.084c-.11 0-.167-5.361-.167-15.75v-15.75h-6.333-6.334zm-219.984-14.47c.621.306 1.477 1.181 1.482 1.511.001.115.077.209.169.209s.167.375.167.833-.06.833-.133.833-.267.326-.431.725c-.23.557-.449.79-.951 1.012-.359.158-.652.357-.652.442s-.113.155-.25.155c-.138 0-.25.075-.25.166 0 .092-.225.167-.5.167s-.5.06-.5.134c0 .118-.808.353-2.208.643-.252.052-.459.161-.459.242s-.187.148-.416.148-.417.075-.417.166c0 .092-.15.167-.333.167-.184 0-.334.075-.334.167 0 .091-.225.166-.5.166s-.5.075-.5.167c0 .099-.611.167-1.5.167s-1.5-.068-1.5-.167c0-.092-.077-.167-.172-.167-.216 0-1.328-1.1-1.328-1.314 0-.087-.083-.186-.185-.22-.113-.037-.183-.503-.179-1.188.006-1.136.893-2.444 1.656-2.444.115 0 .208-.075.208-.167s.15-.167.334-.167c.183 0 .333-.075.333-.166 0-.092.188-.167.417-.167s.416-.065.416-.145.372-.195.827-.255c.454-.06.871-.182.926-.271.055-.09.279-.162.497-.162.219 0 .444-.075.5-.167.057-.092.286-.167.51-.167s.407-.075.407-.166c0-.092.15-.167.333-.167.184 0 .334-.068.334-.151s.375-.203.833-.266.875-.182.926-.265c.159-.257 1.823-.168 2.423.129m109.401 6.72c-.057.091-.661.166-1.343.166-.716 0-1.24.071-1.24.167 0 .092-.338.167-.75.167-.413 0-.75.075-.75.166 0 .092-.263.167-.584.167s-.583.075-.583.167c0 .091-.225.166-.5.166s-.5.069-.5.154c0 .084-.244.203-.542.264-.71.145-1.458.464-1.458.623 0 .069-.15.126-.333.126-.184 0-.334.075-.334.167 0 .091-.15.166-.333.166s-.333.07-.333.156c0 .085-.169.208-.375.274-.207.065-.497.257-.645.428-.148.17-.387.309-.53.309-.144 0-.308.146-.364.325-.057.178-.25.371-.428.428-.179.056-.325.173-.325.258 0 .086-.094.156-.209.156-.194 0-1.291 1.072-1.291 1.261 0 .046-.263.346-.583.666-.321.321-.584.677-.584.791 0 .115-.15.316-.333.448s-.333.357-.333.5-.148.366-.328.496c-.179.13-.373.445-.429.701-.056.257-.172.509-.256.561-.085.053-.154.241-.154.419s-.075.323-.167.323c-.091 0-.166.188-.166.417s-.075.417-.167.417-.167.15-.167.333-.075.333-.166.333c-.092 0-.167.173-.167.384 0 .21-.073.456-.162.545s-.212.704-.274 1.367c-.061.662-.176 1.204-.255 1.204-.078 0-.142.488-.142 1.084 0 .611-.073 1.083-.167 1.083-.104 0-.167 1.028-.167 2.75s.063 2.75.167 2.75c.095 0 .167.5.167 1.167 0 .641.067 1.166.149 1.166.083 0 .203.526.267 1.168.065.642.185 1.209.267 1.259.083.051.15.276.15.5s.075.407.167.407c.091 0 .166.15.166.333s.075.333.167.333.167.188.167.417.075.417.166.417c.092 0 .167.145.167.323s.069.366.154.419c.084.052.2.304.256.561.056.256.25.571.429.701.18.13.328.364.328.521s.15.333.333.391c.183.059.333.249.333.423s.263.579.584.9c.32.32.583.624.583.673 0 .174.921 1.04 1.333 1.254.23.119.597.43.816.692.22.261.501.475.625.475s.226.07.226.155c0 .086.169.209.375.274s.496.258.645.428c.148.17.392.31.541.31.15 0 .272.075.272.166 0 .092.15.167.334.167.183 0 .333.057.333.127 0 .174 1.257.706 1.668.706.183 0 .332.075.332.167s.225.167.5.167.5.075.5.166c0 .092.188.167.417.167s.416.075.416.167c0 .091.248.166.55.166.303 0 .644.094.759.209.156.156 1.36.208 4.858.208s4.702-.052 4.858-.208c.115-.115.452-.209.749-.209s.586-.075.643-.166c.057-.092.361-.167.677-.167.315 0 .573-.075.573-.167 0-.091.112-.166.25-.166.137 0 .25-.075.25-.167s.187-.167.416-.167c.474 0 1.751-.514 1.751-.706 0-.07.15-.127.333-.127s.333-.075.333-.167c0-.091.085-.166.189-.166s.31-.138.458-.307c.149-.169.476-.358.728-.42s.459-.187.459-.277c0-.089.076-.163.17-.163.248 0 3.33-3.076 3.33-3.323 0-.116.225-.42.5-.677s.5-.515.5-.574.146-.264.325-.455c.178-.192.372-.564.43-.827.057-.262.174-.477.258-.477s.153-.15.153-.334c0-.183.075-.333.167-.333s.167-.15.167-.333c0-.184.075-.334.166-.334.092 0 .167-.181.167-.402 0-.222.074-.428.165-.459.091-.03.214-.524.274-1.097l.108-1.042h-6.697-6.698l-.41.409c-.225.225-.409.485-.409.577 0 .486-2.235 2.348-2.817 2.348-.181 0-.376.075-.433.166-.056.092-.436.167-.843.167s-.74.075-.74.167c0 .091-.412.166-.917.166-.504 0-.916-.075-.916-.166 0-.092-.263-.167-.584-.167s-.583-.075-.583-.167c0-.091-.211-.166-.468-.166-.258 0-.614-.11-.792-.245s-.415-.247-.527-.25c-.255-.007-1.88-1.66-1.88-1.912 0-.103-.152-.296-.337-.43-.189-.136-.383-.521-.439-.874-.055-.346-.166-.67-.246-.72-.079-.049-.144-.347-.144-.663 0-.315-.075-.573-.167-.573s-.167-.225-.167-.5v-.5h14.084 14.083v-3.99c0-2.48-.063-4.029-.167-4.093-.091-.057-.166-.394-.166-.75s-.075-.694-.167-.75c-.092-.057-.167-.361-.167-.677 0-.315-.066-.573-.147-.573-.082 0-.199-.338-.261-.75-.061-.413-.182-.75-.269-.75-.086 0-.156-.188-.156-.417s-.075-.417-.167-.417c-.091 0-.166-.15-.166-.333s-.075-.333-.167-.333-.167-.15-.167-.334c0-.183-.067-.333-.148-.333-.082 0-.196-.187-.253-.417-.058-.229-.179-.416-.269-.416-.089 0-.163-.134-.163-.297s-.15-.405-.333-.537c-.184-.132-.334-.302-.334-.377 0-.076-.187-.325-.416-.554-.229-.23-.417-.495-.417-.591 0-.202-1.811-1.978-2.017-1.978-.076 0-.401-.262-.722-.583s-.629-.583-.684-.583-.213-.113-.351-.25c-.137-.138-.394-.25-.571-.25s-.322-.075-.322-.167-.112-.167-.25-.167c-.137 0-.25-.075-.25-.166 0-.092-.15-.167-.333-.167s-.333-.057-.333-.127c0-.192-1.277-.706-1.751-.706-.229 0-.416-.075-.416-.167s-.187-.167-.417-.167c-.229 0-.416-.075-.416-.166 0-.092-.263-.167-.584-.167s-.583-.075-.583-.167c0-.091-.3-.166-.667-.166-.366 0-.666-.075-.666-.167 0-.097-.553-.167-1.324-.167-.728 0-1.37-.075-1.426-.166-.058-.094-.86-.167-1.834-.167-.973 0-1.775.073-1.833.167m187.583 0c-.137.089-.676.162-1.198.164-.522.001-.995.077-1.052.169-.056.092-.361.167-.676.167-.316 0-.574.075-.574.166 0 .092-.187.167-.416.167s-.417.075-.417.167c0 .091-.225.166-.5.166s-.5.069-.5.154c0 .084-.215.2-.477.258-.263.058-.635.251-.827.43s-.41.325-.486.325c-.075 0-.245.15-.377.333-.132.184-.355.335-.495.336-.272.002-2.393 2.079-2.551 2.498-.052.137-.1-.932-.107-2.375l-.013-2.625h-6.5-6.5v30.166 30.167h6.499 6.498l.043-12.02.043-12.02 1.366 1.353c.751.745 1.475 1.354 1.607 1.354.133 0 .283.109.334.242.09.234 1.41.924 1.767.924.097 0 .176.075.176.167s.15.167.333.167c.184 0 .334.075.334.166 0 .092.187.167.416.167.23 0 .417.075.417.167 0 .091.294.166.653.166.374 0 .682.089.722.209.053.158 1.005.208 4.006.208 2.926 0 3.989-.053 4.144-.208.115-.115.403-.209.642-.209.479 0 1.33-.346 1.332-.541 0-.069.226-.125.501-.125s.5-.072.5-.159c0-.088.262-.209.583-.269s.584-.158.584-.217.243-.214.541-.344.663-.373.812-.54c.148-.168.358-.305.467-.305.235 0 3.68-3.422 3.68-3.656 0-.089.187-.349.416-.579.23-.229.417-.532.417-.674 0-.141.075-.257.167-.257.091 0 .166-.078.166-.174 0-.095.147-.331.325-.522.179-.192.373-.564.43-.827.058-.262.174-.477.259-.477.084 0 .153-.225.153-.5s.075-.5.167-.5c.091 0 .166-.113.166-.25 0-.138.075-.25.167-.25s.167-.225.167-.5.071-.5.158-.5.21-.452.272-1.004.179-1.044.258-1.093c.08-.049.145-.416.145-.816 0-.427.085-.754.205-.795.294-.098.29-9.488-.003-9.586-.118-.039-.202-.376-.202-.804 0-.404-.065-.736-.145-.736s-.196-.45-.258-1c-.063-.55-.185-1-.272-1s-.158-.225-.158-.5-.075-.5-.167-.5-.167-.112-.167-.25c0-.137-.075-.25-.166-.25-.092 0-.167-.225-.167-.5s-.069-.5-.153-.5c-.085 0-.201-.215-.259-.477-.057-.263-.251-.635-.43-.827-.178-.191-.325-.464-.325-.605 0-.142-.075-.257-.166-.257-.092 0-.167-.079-.167-.175 0-.095-.187-.361-.417-.59-.229-.23-.416-.492-.416-.584 0-.265-3.238-3.432-3.639-3.559-.199-.063-.361-.185-.361-.27 0-.086-.15-.156-.334-.156-.183 0-.333-.075-.333-.166 0-.092-.085-.167-.189-.167s-.31-.14-.459-.312c-.149-.171-.589-.365-.978-.431s-.707-.188-.707-.272c0-.083-.15-.152-.334-.152-.183 0-.333-.075-.333-.166 0-.092-.262-.167-.583-.167s-.584-.075-.584-.167c0-.091-.262-.166-.583-.166s-.583-.075-.583-.167c0-.094-.469-.167-1.074-.167-.59 0-1.12-.075-1.176-.166-.132-.214-2.753-.214-3.084 0m-134.5.333c0 .092-.262.167-.583.167s-.583.075-.583.166c0 .092-.263.167-.584.167s-.583.075-.583.167c0 .091-.15.166-.333.166-.184 0-.334.067-.334.148 0 .082-.262.198-.583.258s-.583.181-.583.269c0 .087-.15.159-.334.159-.183 0-.333.075-.333.166 0 .092-.112.167-.249.167-.136 0-.342.15-.456.333-.115.184-.325.334-.467.334-.222 0-.542.268-1.602 1.343-.104.106-.442.443-.75.749-.759.754-.976 1.029-.976 1.234 0 .096-.075.174-.167.174-.105 0-.166-1.111-.166-3v-3h-6.5-6.5v20.583 20.583h6.5 6.5v-10.406c0-6.759.058-10.443.166-10.51.092-.057.167-.469.167-.917s.065-.854.145-.903c.079-.049.193-.391.252-.76s.181-.67.272-.67c.09 0 .164-.114.164-.253 0-.324 1.594-1.914 1.919-1.914.136 0 .248-.075.248-.167 0-.091.112-.166.25-.166.137 0 .25-.071.25-.157s.338-.207.752-.269.793-.179.843-.26.462-.148.915-.148.823-.075.823-.166c0-.105 1.028-.167 2.75-.167h2.75v-6.833-6.834h-1.5c-.889 0-1.5.068-1.5.167m-95.25.667c.057.091.278.166.491.166s.603.112.865.249c.263.137.592.25.733.25.14.001.365.162.5.358.134.196.413.53.62.742.206.212.375.465.375.56 0 .096.075.175.166.175.092 0 .167.143.167.319s.094.351.208.389c.155.052.209.746.209 2.708 0 1.963-.054 2.657-.209 2.709-.114.038-.208.159-.208.268 0 .11-.15.308-.333.44-.184.132-.334.357-.334.499s-.262.4-.583.573c-.321.172-.583.377-.583.454s-.15.141-.334.141c-.183 0-.333.075-.333.166 0 .092-.106.167-.236.167s-.267.094-.306.208c-.052.159-1.215.223-4.847.267l-4.778.059v-6.017-6.017h4.324c2.702 0 4.362.062 4.426.167m45.417 9.666c0 .092.258.167.573.167.316 0 .616.068.668.152s.38.201.73.26.741.253.869.431c.129.178.295.324.371.324s.325.187.554.416c.229.23.488.417.576.417.087 0 .159.15.159.333 0 .184.064.334.142.334.077 0 .28.337.45.75.17.412.369.75.442.75s.133.412.133.916v.917h-7.25-7.25v-.573c0-.316.065-.614.144-.663.08-.05.191-.374.246-.72.056-.353.25-.738.439-.874.185-.134.337-.34.337-.457 0-.249 1.294-1.546 1.543-1.546.092 0 .29-.137.438-.304.302-.34 1.771-.863 2.426-.863.235 0 .427-.075.427-.167 0-.098.583-.166 1.416-.166.834 0 1.417.068 1.417.166m-193.667.334c0 .091-.144.166-.321.166s-.434.113-.572.25c-.137.138-.33.25-.428.25s-.179.123-.179.272c0 .15-.168.419-.375.598l-.375.325v22.889 22.888l.375.326c.207.178.375.439.375.579s.188.301.417.358c.229.058.417.179.417.269 0 .089.15.163.333.163s.333.075.333.167c0 .11 12.695.166 37.75.166 25.056 0 37.75-.056 37.75-.166 0-.092.116-.167.257-.167.463 0 1.577-1.065 1.577-1.508 0-.179.075-.325.166-.325.092 0 .167-.113.167-.25 0-.138.075-.25.167-.25.11 0 .166-7.528.166-22.25 0-14.723-.056-22.25-.166-22.25-.092 0-.167-.15-.167-.334 0-.183-.075-.333-.167-.333-.091 0-.166-.11-.166-.244 0-.36-1.125-1.423-1.506-1.423-.18 0-.328-.075-.328-.166 0-.111-12.694-.167-37.75-.167-25.055 0-37.75.056-37.75.167m377.5.5c0 .091.225.166.5.166s.5.075.5.167.188.167.417.167.417.075.417.166c0 .092.15.167.333.167s.333.07.333.155c0 .086.16.207.355.268.463.147 2.645 2.344 2.645 2.664 0 .135.075.246.167.246s.167.113.167.25c0 .138.068.25.152.25.083 0 .202.3.264.666s.181.708.265.76.152.39.152.751.075.657.167.657c.102 0 .166.805.166 2.083s-.064 2.083-.166 2.083c-.092 0-.167.258-.167.574 0 .315-.075.62-.167.676-.091.057-.166.248-.166.426 0 .403-.535 1.658-.706 1.658-.07 0-.128.116-.128.258 0 .313-2.457 2.742-2.774 2.742-.124 0-.226.075-.226.166 0 .092-.15.167-.333.167s-.333.075-.333.167c0 .091-.107.166-.236.166-.13 0-.262.068-.292.151-.184.498-5.602.504-5.778.007-.03-.087-.199-.158-.375-.158s-.319-.075-.319-.166c0-.092-.113-.167-.25-.167-.138 0-.25-.075-.25-.167 0-.091-.116-.166-.257-.166-.241 0-.409-.107-.987-.625-.128-.115-.281-.209-.34-.209-.169 0-.583-.458-.583-.645 0-.093-.143-.269-.318-.392-.175-.122-.455-.539-.623-.926-.167-.387-.362-.703-.432-.703s-.127-.15-.127-.334c0-.183-.075-.333-.167-.333-.091 0-.166-.219-.166-.486s-.094-.517-.209-.556c-.297-.099-.293-6.485.004-6.584.113-.038.205-.25.205-.471 0-.222.075-.403.166-.403.092 0 .167-.15.167-.333 0-.184.075-.334.167-.334.091 0 .166-.112.166-.25 0-.137.075-.25.167-.25s.167-.15.167-.334.199-.503.442-.708c.812-.687 1.558-1.467 1.558-1.63 0-.089.144-.161.321-.161s.434-.113.572-.25c.137-.138.33-.25.428-.25s.179-.075.179-.167c0-.091.225-.166.5-.166s.5-.075.5-.167.187-.167.416-.167c.23 0 .417-.075.417-.166 0-.1.667-.167 1.667-.167s1.666.067 1.666.167m-312.5 9.666c0 .092.15.167.334.167.183 0 .333.075.333.167 0 .091.077.166.172.166.709 0 1.403 1.237 1.407 2.507l.004 1.277-.75.687c-.412.378-.843.689-.958.692-.115.002-.208.079-.208.171 0 .108-2.084.166-5.917.166s-5.917-.058-5.917-.166c0-.092-.15-.167-.333-.167s-.333-.075-.333-.167c0-.091-.081-.166-.179-.166-.231 0-.655-.424-.655-.655 0-.098-.075-.179-.166-.179-.092 0-.167-.15-.167-.333s-.075-.333-.167-.333c-.091 0-.166-.413-.166-.917s.075-.917.166-.917c.092 0 .167-.077.167-.171 0-.262 1.025-1.329 1.277-1.329.123 0 .223-.075.223-.166 0-.092.15-.167.333-.167.184 0 .334-.075.334-.167 0-.107 1.972-.166 5.583-.166s5.583.059 5.583.166m-30 10c0 .092.189.167.419.167.43 0 1.4.889 1.41 1.292.002.114.08.208.171.208.092 0 .167.15.167.333 0 .184.075.334.167.334.091 0 .166.262.166.583s-.075.583-.166.583c-.092 0-.167.22-.167.489 0 .319-.101.521-.292.582-.16.052-.441.319-.625.595-.235.353-.467.5-.791.501-.252 0-.459.075-.459.167 0 .109-4.25.166-12.416.166-8.167 0-12.417-.057-12.417-.166 0-.092-.113-.167-.25-.167-.138 0-.25-.075-.25-.167 0-.091-.118-.166-.262-.166-.26 0-.738-.378-.738-.584 0-.059-.113-.219-.25-.357-.35-.35-.35-2.602 0-2.952.137-.138.25-.298.25-.357 0-.206.478-.584.738-.584.144 0 .262-.075.262-.166 0-.092.112-.167.25-.167.137 0 .25-.075.25-.167 0-.109 4.25-.166 12.417-.166 8.166 0 12.416.057 12.416.166m-19.666 13.334c0 .091.115.166.255.166.323 0 1.245.93 1.245 1.256 0 .134.075.244.166.244.092 0 .167.15.167.334 0 .183.075.333.167.333.091 0 .166.188.166.417s-.075.416-.166.416c-.092 0-.167.225-.167.5s-.075.5-.167.5c-.091 0-.166.113-.166.25 0 .138-.07.25-.156.25-.085 0-.203.15-.261.334-.058.183-.244.333-.414.333s-.339.094-.378.208c-.052.156-.782.209-2.893.209h-2.824l-.829-.83-.829-.829v-1.49c0-1.079.06-1.51.218-1.563.12-.04.398-.252.618-.472.219-.22.515-.4.657-.4.141 0 .257-.075.257-.166 0-.104 1-.167 2.667-.167s2.667.063 2.667.167m16.666 0c0 .091.113.166.25.166.364 0 1.584 1.277 1.584 1.657 0 .178.075.37.166.427.092.056.167.361.167.676 0 .316-.075.574-.167.574-.091 0-.166.15-.166.333s-.075.333-.167.333-.167.113-.167.25c0 .138-.07.25-.155.25-.086 0-.203.15-.261.334-.059.183-.245.333-.414.333-.17 0-.34.094-.378.208-.052.156-.782.209-2.893.209h-2.824l-.787-.788c-.433-.433-.788-.864-.788-.958s-.075-.171-.166-.171c-.094 0-.167-.472-.167-1.083s.073-1.084.167-1.084c.091 0 .166-.145.166-.322s.15-.369.334-.428c.183-.058.333-.175.333-.261 0-.085.113-.155.25-.155s.25-.075.25-.167.15-.167.333-.167c.184 0 .334-.075.334-.166 0-.104.972-.167 2.583-.167s2.583.063 2.583.167m16.667 0c0 .091.103.166.23.166.314 0 1.603 1.273 1.603 1.583 0 .138.075.251.167.251s.167.337.167.75c0 .412-.075.75-.167.75s-.167.15-.167.333-.075.333-.166.333c-.092 0-.167.079-.167.175 0 .218-.763.992-.979.992-.088 0-.191.094-.229.208-.147.441-5.901.281-6.219-.173-.147-.209-.449-.562-.67-.784-.222-.221-.403-.481-.403-.577s-.075-.174-.167-.174c-.091 0-.166-.413-.166-.917s.075-.916.166-.916c.092 0 .167-.15.167-.334 0-.183.075-.333.167-.333.091 0 .166-.08.166-.179 0-.098.107-.285.238-.416s.319-.238.417-.238.179-.075.179-.167.15-.167.333-.167.333-.075.333-.166c0-.104.973-.167 2.584-.167s2.583.063 2.583.167m16.667 0c0 .091.093.166.208.166s.546.309.958.686l.75.685v1.278c0 1.262-.696 2.518-1.397 2.518-.087 0-.189.094-.228.208-.052.156-.778.209-2.875.209-2.096 0-2.823-.053-2.875-.209-.038-.114-.213-.208-.389-.208-.175 0-.319-.072-.319-.159 0-.088-.187-.347-.417-.576-.229-.229-.416-.495-.416-.591s-.075-.174-.167-.174-.167-.413-.167-.917.075-.916.167-.916.167-.15.167-.334c0-.183.075-.333.166-.333.092 0 .167-.08.167-.179 0-.098.107-.285.238-.416s.319-.238.417-.238.178-.075.178-.167.15-.167.334-.167c.183 0 .333-.075.333-.166 0-.104.972-.167 2.583-.167s2.584.063 2.584.167" fill="#042444" fill-rule="evenodd"/></svg>