<svg height="24" viewBox="0 0 24 24" width="24" xmlns="http://www.w3.org/2000/svg"><g fill="none" fill-rule="evenodd"><path d="m0 0h24v24h-24z"/><g fill="#335eea"><path d="m18.778 12.5a5.5 5.5 0 1 1 -7.778-7.778 5.5 5.5 0 0 1 7.778 7.778zm-2.475-2.475a2 2 0 1 0 -2.828-2.828 2 2 0 0 0 2.828 2.828zm-.707-.707a1 1 0 1 0 -1.414-1.414 1 1 0 0 0 1.414 1.414z" opacity=".3"/><path d="m3.575 16.39 7.071-7.072a3 3 0 1 1 4.243 4.243l-7.071 7.07a3 3 0 0 1 -4.243-4.243z" opacity=".3"/><path d="m20.44 13.455c-3.316 2.332-7.581 2.318-10.147-.248s-2.58-6.831-.248-10.147z"/></g></g></svg>