<svg height="24" viewBox="0 0 24 24" width="24" xmlns="http://www.w3.org/2000/svg"><g fill="none" fill-rule="evenodd"><path d="m0 0h24v24h-24z"/><g fill="#335eea"><path d="m8.464 11.293-1.06-1.06a.5.5 0 0 1 0-.708l.707-.707a.5.5 0 0 1 .707 0l6.364 6.364a.5.5 0 0 1 0 .707l-.707.707a.5.5 0 0 1 -.707 0l-1.06-1.06-5.658 5.656a2 2 0 0 1 -2.828 0l-1.414-1.414a2 2 0 0 1 0-2.828zm-3.889 6.717a.5.5 0 0 0 .707.708l4.243-4.243a.5.5 0 1 0 -.707-.707z" opacity=".3"/><path d="m16.95 5.636-.171-.17a.5.5 0 0 1 .168-.819l2.525-1.01a.5.5 0 0 1 .54.11l.24.242a.5.5 0 0 1 .11.539l-1.01 2.525a.5.5 0 0 1 -.817.168l-.171-.17-5.657 5.656-1.414-1.414z"/></g></g></svg>