<svg height="24" viewBox="0 0 24 24" width="24" xmlns="http://www.w3.org/2000/svg"><g fill="none" fill-rule="evenodd"><path d="m0 0h24v24h-24z"/><g fill="#335eea"><path d="m6.343 4.929 7.071 7.071-1.414 1.414-7.071-7.07h-3.036a.5.5 0 0 1 -.353-.854l3.95-3.95a.5.5 0 0 1 .853.353v3.037z" opacity=".3"/><path d="m16.95 9.879 2.825 3.26a5.517 5.517 0 0 1 1.24 4.695l-.399 1.998a1 1 0 0 1 -.784.784l-1.998.4a5.517 5.517 0 0 1 -4.696-1.241l-3.26-2.825zm-3.405 6.145c-.763-.646-1.732.499-.969 1.145l2.298 1.944c.764.646 1.733-.499.97-1.145z"/></g></g></svg>