<svg enable-background="new 0 0 203.3600006 64.2600021" height="64.260002" viewBox="0 0 203.3600006 64.2600021" width="203.360001" xmlns="http://www.w3.org/2000/svg"><g fill="#495057"><path d="m51.4311218 46.330101c-.0780983.222599-1.3280983 4.5312004-4.375 8.982399-2.6307983 3.8496017-5.3631973 7.6855011-9.669899 7.7636986-4.2284927.080101-5.5897999-2.5098-10.4218998-2.5098-4.8377991 0-6.3495941 2.4316025-10.3475933 2.589901-4.1543064.1562004-7.3223066-4.1622009-9.9727058-7.9961014-5.4276996-7.8437996-9.5682945-22.1621971-3.9999998-31.8203983 2.7577999-4.8027 7.7011995-7.8417997 13.0644999-7.9198999 4.0839987-.0761003 7.9296999 2.7421999 10.4257994 2.7421999 2.4921989 0 7.169899-3.3926001 12.0878983-2.8944998 2.058506.0879002 7.8398018.8280993 11.5527 6.2636995-.294899.1875-6.8983994 4.0291996-6.8261909 12.0175018.0859982 9.5625 8.384792 12.742199 8.482391 12.7812996zm-16.4315986-36.2461014c2.2108993-2.6737995 3.6934013-6.3866996 3.2870979-10.0839996-3.1777.1172-7.027298 2.1152-9.3026981 4.7852001-2.044899 2.3631997-3.8379002 6.1444998-3.3516006 9.7656002 3.5410003.2753992 7.1660022-1.8008003 9.3672008-4.4668007z"/><path d="m68.2104797 24.1112099c0-5.6904297 3.2119141-9.2763672 8.2294922-9.2763672 4.0722656 0 7.1474609 2.5029297 7.6210938 6.2509766h-2.7646484c-.4980469-2.3037109-2.4150391-3.8105469-4.8564453-3.8105469-3.2617188 0-5.3789062 2.6772461-5.3789062 6.8359375 0 4.1962891 2.0917969 6.8481445 5.3916016 6.8481445 2.5029297 0 4.2832031-1.2827148 4.84375-3.4487305h2.7763672c-.6845703 3.7099609-3.4980469 5.8891602-7.6328125 5.8891602-5.0419924 0-8.2294924-3.5610352-8.2294924-9.2885742z"/><path d="m85.6802063 26.5516396c0-4.1210938 2.4277344-6.7109375 6.2128906-6.7109375 3.7978516 0 6.2128906 2.5898438 6.2128906 6.7109375 0 4.1337891-2.4023438 6.7109375-6.2128906 6.7109375-3.8095703 0-6.2128906-2.5771485-6.2128906-6.7109375zm9.6875 0c0-2.8261719-1.2949219-4.4951172-3.4746094-4.4951172-2.1787109 0-3.4736328 1.6811523-3.4736328 4.4951172 0 2.8388672 1.2949219 4.4951172 3.4736328 4.4951172 2.1796875-.0000001 3.4746094-1.6562501 3.4746094-4.4951172z"/><path d="m100.3144836 20.0023232h2.5654297v2.2290039h.0615234c.7851562-1.5693359 2.1044922-2.378418 4.1220703-2.378418 2.8886719 0 4.5439453 1.8549805 4.5439453 4.855957v8.3920898h-2.7011719v-7.8691406c0-1.9672852-.9091797-3.0629883-2.8017578-3.0629883-1.9296875 0-3.1005859 1.3696289-3.1005859 3.3867188v7.5454102h-2.6894531z"/><path d="m119.4746399 19.8529091c2.9013672 0 4.9804688 1.605957 5.0429688 3.9223633h-2.5273438c-.1123047-1.1582031-1.0957031-1.8681641-2.5898438-1.8681641-1.4570312 0-2.4287109.6728516-2.4287109 1.6933594 0 .784668.6474609 1.3076172 2.0048828 1.6435547l2.2041016.5107422c2.6396484.6347656 3.6357422 1.6064453 3.6357422 3.5234375 0 2.3662109-2.2412109 3.984375-5.4414062 3.984375-3.0878906 0-5.1669922-1.5810547-5.3662109-3.9716797h2.6640625c.1865234 1.2578125 1.1953125 1.9296875 2.8271484 1.9296875 1.6054688 0 2.6142578-.659668 2.6142578-1.7055664 0-.809082-.4980469-1.2451172-1.8681641-1.59375l-2.3398438-.5727539c-2.3662109-.5727539-3.5615234-1.7802734-3.5615234-3.5986328 0-2.3154297 2.0791015-3.8969727 5.1298828-3.8969727z"/><path d="m138.5224915 33.100956h-2.5771484v-2.253418h-.0625c-.7470703 1.5683594-2.0546875 2.402832-4.0595703 2.402832-2.8505859 0-4.5947266-1.8427734-4.5947266-4.8432617v-8.4047852h2.6894531v7.8813477c0 1.9921875.9472656 3.0507812 2.8017578 3.0507812 1.9423828 0 3.1132812-1.3447266 3.1132812-3.3867188v-7.5454102h2.6894531v13.098633z"/><path d="m141.6572571 15.1336708h2.6894531v17.9672852h-2.6894531z"/><path d="m150.9804993 16.9022255v3.1000977h2.4902344v2.1293945h-2.4902344v7.2216797c0 1.1201172.4980469 1.6435547 1.59375 1.6435547.2744141 0 .7099609-.0375977.8847656-.0625v2.1166992c-.2988281.074707-.8964844.1245117-1.4941406.1245117-2.6523438 0-3.6855469-.9960938-3.6855469-3.5361328v-7.5078125h-1.9052734v-2.1293945h1.9052734v-3.1000977z"/><path d="m155.4355774 29.3778114c0-2.2910156 1.7558594-3.6728516 4.8681641-3.859375l3.5859375-.1992188v-.9960938c0-1.4570312-.9589844-2.2788086-2.5898438-2.2788086-1.4941406 0-2.5400391.7094727-2.7519531 1.8427734h-2.5146484c.0742188-2.3657227 2.2783203-4.0463867 5.3417969-4.0463867 3.125 0 5.1914062 1.7055664 5.1914062 4.2832031v8.9770508h-2.5771484v-2.1538086h-.0625c-.7587891 1.456543-2.4150391 2.3779297-4.1337891 2.3779297-2.5644532.0000002-4.3574219-1.5937498-4.3574219-3.9472655zm8.4541016-1.1826172v-1.0087891l-3.2246094.1992188c-1.6064453.0996094-2.515625.796875-2.515625 1.9179688 0 1.1455078.9462891 1.8925781 2.390625 1.8925781 1.8798828 0 3.3496094-1.2949219 3.3496094-3.0009766z"/><path d="m169.5527649 20.0023232h2.5654297v2.2290039h.0615234c.7851562-1.5693359 2.1044922-2.378418 4.1220703-2.378418 2.8886719 0 4.5439453 1.8549805 4.5439453 4.855957v8.3920898h-2.7011719v-7.8691406c0-1.9672852-.9091797-3.0629883-2.8017578-3.0629883-1.9296875 0-3.1005859 1.3696289-3.1005859 3.3867188v7.5454102h-2.6894531z"/><path d="m187.0498352 16.9022255v3.1000977h2.4902344v2.1293945h-2.4902344v7.2216797c0 1.1201172.4980469 1.6435547 1.59375 1.6435547.2744141 0 .7099609-.0375977.8837891-.0625v2.1166992c-.2988281.074707-.8964844.1245117-1.4941406.1245117-2.6513672 0-3.6855469-.9960938-3.6855469-3.5361328v-7.5078125h-1.9042969v-2.1293945h1.9042969v-3.1000977z"/><path d="m197.0215149 19.8529091c2.9013672 0 4.9804688 1.605957 5.0429688 3.9223633h-2.5273438c-.1123047-1.1582031-1.0957031-1.8681641-2.5898438-1.8681641-1.4570312 0-2.4287109.6728516-2.4287109 1.6933594 0 .784668.6474609 1.3076172 2.0048828 1.6435547l2.2041016.5107422c2.6396484.6347656 3.6357422 1.6064453 3.6357422 3.5234375 0 2.3662109-2.2412109 3.984375-5.4414062 3.984375-3.0878906 0-5.1669922-1.5810547-5.3662109-3.9716797h2.6640625c.1865234 1.2578125 1.1953125 1.9296875 2.8271484 1.9296875 1.6054688 0 2.6142578-.659668 2.6142578-1.7055664 0-.809082-.4980469-1.2451172-1.8681641-1.59375l-2.3398438-.5727539c-2.3662109-.5727539-3.5615234-1.7802734-3.5615234-3.5986328 0-2.3154297 2.0791015-3.8969727 5.1298828-3.8969727z"/><path d="m69.8784485 63.1014442v-17.9667968h2.5273438l9.3134766 13.2480469h.0996094v-13.2480469h2.7148438v17.9667969h-2.515625l-9.3134766-13.2353516h-.1123047v13.2353516h-2.7138673z"/><path d="m99.136261 59.253788c-.3613281 2.3789062-2.6767578 4.0097656-5.640625 4.0097656-3.8095703 0-6.1757812-2.5527344-6.1757812-6.6494141 0-4.1083984 2.3779297-6.7734375 6.0634766-6.7734375 3.6230469 0 5.9023438 2.4902344 5.9023438 6.4619141v.921875h-9.2519531v.1621094c0 2.2412109 1.4072266 3.7099609 3.5244141 3.7099609 1.4941406 0 2.6640625-.7099609 3.0253906-1.8427734zm-9.0898438-3.9091797h6.5498047c-.0625-2.0048828-1.3447266-3.3251953-3.2128906-3.3251953-1.8554688 0-3.1992188 1.3457031-3.3369141 3.3251953z"/><path d="m105.2344055 46.9022255v3.1005859h2.4902344v2.1289062h-2.4902344v7.2216797c0 1.1210938.4980469 1.6435547 1.59375 1.6435547.2744141 0 .7099609-.0371094.8847656-.0615234v2.1162109c-.2988281.0751953-.8964844.1240234-1.4941406.1240234-2.6523438 0-3.6855469-.9960938-3.6855469-3.5351562v-7.5087891h-1.9052734v-2.1289062h1.9052734v-3.1005859z"/><path d="m124.007843 63.1014442h-2.8007812l-2.7519531-9.8115234h-.0625l-2.7265625 9.8115234h-2.7773438l-3.5976562-13.0986328h2.6894531l2.390625 10.3095703h.0498047l2.7265625-10.3095703h2.5898438l2.7392578 10.3095703h.0625l2.390625-10.3095703h2.6640625z"/><path d="m128.3994446 56.5526161c0-4.1220703 2.4277344-6.7119141 6.2128906-6.7119141 3.7978516 0 6.2138672 2.5898438 6.2138672 6.7119141 0 4.1328125-2.4033203 6.7109375-6.2138672 6.7109375-3.8095703 0-6.2128906-2.578125-6.2128906-6.7109375zm9.6865234 0c0-2.8271484-1.2949219-4.4951172-3.4736328-4.4951172s-3.4736328 1.6806641-3.4736328 4.4951172c0 2.8378906 1.2949219 4.4941406 3.4736328 4.4941406s3.4736328-1.65625 3.4736328-4.4941406z"/><path d="m143.2881165 50.0028114h2.5654297v2.2285156h.0625c.4101562-1.4814453 1.6054688-2.3652344 3.1494141-2.3652344.3857422 0 .7099609.0498047.921875.0996094v2.5146484c-.2119141-.0869141-.6845703-.1621094-1.2080078-.1621094-1.7304688 0-2.8017578 1.1708984-2.8017578 3.0136719v7.7695312h-2.6894531v-13.0986327z"/><path d="m160.1445618 50.0028114h3.1621094l-5.4287109 5.640625 5.640625 7.4580078h-3.1259766l-4.4443359-5.8144531-1.1210938 1.1074219v4.7070312h-2.6894531v-17.9667968h2.6894531v10.4833984h.0253906z"/></g></svg>