<svg height="24" viewBox="0 0 24 24" width="24" xmlns="http://www.w3.org/2000/svg"><g fill="none" fill-rule="evenodd"><path d="m0 0h24v24h-24z"/><g fill="#335eea"><path d="m12.886 11.478c-1.601-5.836-.611-9.529 2.97-11.08 2.204 3.101 1.215 6.795-2.97 11.08z" opacity=".3"/><path d="m23.06 7.669c-5.836-1.601-9.53-.612-11.08 2.969 3.1 2.205 6.794 1.215 11.08-2.969z" opacity=".3"/><path d="m20.005 3.495c-5.854 1.53-8.558 4.234-8.11 8.11 3.787.36 6.49-2.344 8.11-8.11z" opacity=".3"/><path d="m2.578 17.513.29.29a1 1 0 1 0 1.414-1.414l-.69-.691 1.012-1.816 1.093 1.093a1 1 0 0 0 1.413-1.415l-1.414-1.415a1.011 1.011 0 0 0 -.083-.074l1.016-1.82 1.895 1.894a1 1 0 1 0 1.414-1.414l-2.12-2.12a1.002 1.002 0 0 0 -.19-.15l.245-.437a2 2 0 0 1 3.16-.44l4.883 4.883a2 2 0 0 1 -.44 3.16l-12.007 6.7a1.687 1.687 0 0 1 -2.295-2.296z"/></g></g></svg>