<svg height="24" viewBox="0 0 24 24" width="24" xmlns="http://www.w3.org/2000/svg"><g fill="none" fill-rule="evenodd"><path d="m0 0h24v24h-24z"/><g fill="#335eea"><path d="m12 20.66-2.536-.025-2.146-1.35-2.12-1.391-1.075-2.297-1.031-2.316.336-2.513.385-2.507 1.642-1.931 1.68-1.9 2.425-.74 2.44-.69 2.44.69 2.426.739 1.679 1.9 1.642 1.932.385 2.507.336 2.513-1.03 2.316-1.076 2.297-2.12 1.391-2.146 1.35z" opacity=".3"/><circle cx="8.5" cy="13.5" opacity=".3" r="1.5"/><circle cx="13.5" cy="7.5" opacity=".3" r="1.5"/><circle cx="14.5" cy="15.5" opacity=".3" r="1.5"/></g></g></svg>