<svg height="24" viewBox="0 0 24 24" width="24" xmlns="http://www.w3.org/2000/svg"><g fill="none" fill-rule="evenodd"><path d="m0 0h24v24h-24z"/><g fill="#335eea"><path d="m12 2a4.854 4.854 0 0 1 4.342 2.683l2.658 5.317a5.528 5.528 0 0 1 -4.944 8h-4.112a5.528 5.528 0 0 1 -4.944-8l2.658-5.317a4.854 4.854 0 0 1 4.342-2.683zm-4.45 11.6c1.456 1.092 2.944 1.65 4.45 1.65s2.994-.558 4.45-1.65l-.9-1.2c-1.21.908-2.39 1.35-3.55 1.35s-2.34-.442-3.55-1.35z"/><path d="m6.16 21.06 2-3.464a1 1 0 1 1 1.732 1l-2 3.464a1 1 0 1 1 -1.732-1zm11.672-.03a1 1 0 0 1 -1.732 1l-2-3.464a1 1 0 1 1 1.732-1z" opacity=".3"/></g></g></svg>