<svg height="24" viewBox="0 0 24 24" width="24" xmlns="http://www.w3.org/2000/svg"><g fill="none" fill-rule="evenodd"><path d="m0 0h24v24h-24z"/><g fill="#335eea"><path d="m5.133 2.036c6.945 3.876 9.445 8.206 7.5 12.99-4.97-.79-7.47-5.12-7.5-12.99z" opacity=".3"/><path d="m18.742 2.036c-6.945 3.876-9.445 8.206-7.5 12.99 4.97-.79 7.47-5.12 7.5-12.99z" opacity=".3"/><path d="m12 1c-4.076 6.83-4.076 11.83 0 15 3.91-3.17 3.91-8.17 0-15z" opacity=".3"/><path d="m6.344 13h11.312a1 1 0 0 1 .958 1.287l-2.186 7.288a2 2 0 0 1 -1.916 1.425h-5.024a2 2 0 0 1 -1.916-1.425l-2.186-7.288a1 1 0 0 1 .958-1.287z"/></g></g></svg>