<svg xmlns="http://www.w3.org/2000/svg"><defs><font horiz-adv-x="2000"><font-face ascent="2000" descent="0" units-per-em="2000"/><missing-glyph horiz-adv-x="500"/><glyph d="M0 0z" horiz-adv-x="500" unicode="&#x25fc;"/><glyph d="M1448 894l-707 707 150 150q25 28 85 34.5t134-11 132-55.5q45-30 126.5-97t164.5-113q43-24 73-38t76.5-30.5 87.5-23 95.5-6 112.5 12.5zM1377 823l-707 707-177-177q-29-29-29-70.5t29-70.5l106-106q29-29 29-71t-29-71q-27-27-61.5-54t-86-63-73.5-52q-66-49-101-84-52-52-92-108.5t-64-113-20.5-108.5 39.5-88 88-39.5 108.5 20.5 113 63.5 108.5 91.5q34 34 85 102 13 17 51 72t64 88.5 54 60.5q29 29 70.5 29t70.5-29l106-106q29-29 70.5-29t70.5 29z" unicode="&#xf100;"/><glyph d="M500 1800h900q82 0 141-59t59-141v-700q0-82-59-141t-141-59h-200l-500-500v500h-200q-82 0-141 59t-59 141v700q0 82 59 141t141 59z" unicode="&#xf101;"/><glyph d="M1600 1150l153-153-106-106-647 647-647-647-106 106 753 753 400-400v200h200v-400zM1000 1396l600-599v-597h-1200v597zM1200 300v500h-400v-500h400z" unicode="&#xf102;"/><glyph d="M1774 1724q126-127 126-305t-126-305l-153-152q-82-82-195-110.5t-219 1.5l262 261 76 77 76 76q63 63 63 152t-63 152q-63 64-152 64t-152-64l-77-76-338-338q-29 106-.5 219t110.5 195l152 153q127 126 305.5 126t304.5-126zM859 657l534 534q31 31 31 76t-31 76q-34 32-78 31t-75-31l-533-534q-31-31-31-76t31-76q34-32 78-31t74 31zM783 428l414 415q30-106 1.5-219t-110.5-195l-152-153q-127-126-305-126t-305 126q-126 126-126 305t126 305l153 152q82 82 195 110.5t219-.5l-414-415q-64-63-64-152t64-153q63-63 152-63t152 63z" unicode="&#xf103;"/><glyph d="M1300 900v700q0 41-29.5 70.5t-70.5 29.5h-167l-133 200h-400l-133-200h-167q-41 0-70.5-29.5t-29.5-70.5v-700q0-41 29.5-70.5t70.5-29.5h1000q41 0 70.5 29.5t29.5 70.5zM700 1550q104 0 177-73t73-177-73-177-177-73-177 73-73 177 73 177 177 73zM1400 1400h500v-1050q0-104-73-177t-177-73-177 73-73 177 73 177 177 73q23 0 50-5v505h-300v300zM1000 595v105h200v-350q0-104-73-177t-177-73-177 73-73 177 73 177 177 73q23 0 50-5z" unicode="&#xf104;"/><glyph d="M600 500v1300h1000v-1300h-1000zM500 400h800v-200h-1000v1300h200v-1100z" unicode="&#xf105;"/><glyph d="M1311 1564l-324-324-187 187 324 324q26 26 72 16.5t84-48.5q39-38 48-83.5t-17-71.5zM511 1387l91 112 901-901-119-84q-50-50-167.5-83t-214.5-33h-388l-124-124q-44-44-106-44t-106 44q-44 43-44 105.5t44 106.5l124 124v388q0 96 30.5 218t78.5 171zM1237 990l324 324q25 26 71 17t84-48q39-38 48-83.5t-17-71.5l-324-325z" unicode="&#xf106;"/><glyph d="M1668 1023q-99-99-236-125t-259 26l-541-652q-74-74-179-74t-179 74-74 179 74 178l652 542q-52 122-26 259t125 236q94 94 224 122t248-16l-289-289 282-282 286 287q41-117 13-244.5t-121-220.5zM381 379q30-29 72-29t71 29q30 30 30 72t-30 71q-29 30-71 30t-72-30q-29-29-29-71t29-72z" unicode="&#xf107;"/><glyph d="M1800 400v1200q0 41-29.5 70.5t-70.5 29.5h-1300q-41 0-70.5-29.5t-29.5-70.5v-1200q0-41 29.5-70.5t70.5-29.5h1300q41 0 70.5 29.5t29.5 70.5zM800 900h100q41 0 70.5-29.5t29.5-70.5-29.5-70.5-70.5-29.5h-100v-150q0-21-14.5-35.5t-35.5-14.5-35.5 14.5-14.5 35.5v150h-100q-41 0-70.5 29.5t-29.5 70.5 29.5 70.5 70.5 29.5h100v550q0 21 14.5 35.5t35.5 14.5 35.5-14.5 14.5-35.5v-550zM1300 1100h-100q-41 0-70.5 29.5t-29.5 70.5 29.5 70.5 70.5 29.5h100v150q0 21 14.5 35.5t35.5 14.5 35.5-14.5 14.5-35.5v-150h100q41 0 70.5-29.5t29.5-70.5-29.5-70.5-70.5-29.5h-100v-550q0-21-14.5-35.5t-35.5-14.5-35.5 14.5-14.5 35.5v550z" unicode="&#xf108;"/><glyph d="M1044 1698l182 182 636-635-183-182q-78 52-175 42.5t-166-78.5l-75-75q-68-69-77.5-165.5t42.5-175.5l-183-182-241 241-280-279q-54-54-203.5-155t-176.5-74 74 177.5 154 203.5l279 279-241 242 183 182q78-52 175-42.5t165 78.5l75 75q69 68 78.5 165t-42.5 176z" unicode="&#xf109;"/><glyph d="M1000 1075q-46 0-86.5 19t-67.5 49.5-49 67-34.5 73-21 67-11.5 49.5l-3 19q-6 55-3 108.5t24.5 103 53 87 82.5 60 113 22.5q103 0 171-59t91-144 9-178q-1-7-3-19.5t-10.5-48-20.5-68-33.5-72.5-48-68.5-66.5-48-86-19.5zM1000 818l272 182q116 0 221.5-67t168-172 62.5-214v-249q-15-5-41.5-12.5t-109-27-164.5-34.5-195-27-214-12q-162 0-343 28.5t-281 56.5l-100 28v249q0 112 58 215t162.5 168 226.5 65z" unicode="&#xf110;"/><glyph d="M1800 800h-218q-26-107-81-193l154-154-210-210-154 154q-88-55-191-79v-218h-300v218q-103 24-191 79l-154-154-212 212 154 154q-55 88-79 191h-218v297h217q23 101 80 194l-154 154 210 210 154-154q85 54 193 81v218h300v-218q103-24 191-79l154 154 212-212-154-154q57-93 80-194h217v-297zM950 650q124 0 212 88t88 212-88 212-212 88-212-88-88-212 88-212 212-88z" unicode="&#xf111;"/><glyph d="M1695 1742q96-96 130.5-225t0-257.5-130.5-224.5q-112-112-267.5-138.5t-291.5 37.5l-187-331-299-31-150-372h-300l-100 200 795 769q-71 139-46.5 298.5t139.5 274.5q96 96 225 130.5t257.5 0 224.5-130.5zM1444 1363q55 0 94 39t39 95q0 55-39 94t-94 39-94-39-39-94 39-94.5 94-39.5z" unicode="&#xf112;"/><glyph d="M1000 1700q154 0 290.5-63t234.5-175l-171-195q-62 82-155 130t-199 48q-157 0-277.5-98t-154.5-247h232l-350-400-350 400h208q24 168 121 305t247.5 216 323.5 79zM1000 296q-155 0-291 63t-234 175l171 195q62-82 155-130t199-48q157 0 277.5 98t154.5 247h-232l350 400 350-400h-208q-18-126-79.5-236.5t-152.5-190.5-210.5-126.5-249.5-46.5z" unicode="&#xf113;"/><glyph d="M1800 600v1000q0 41-29.5 70.5t-70.5 29.5h-1400q-41 0-70.5-29.5t-29.5-70.5v-1000q0-41 29.5-70.5t70.5-29.5h1400q41 0 70.5 29.5t29.5 70.5zM1000 1400q169 0 323-79t277-221q-123-142-277-221t-323-79-323 79-277 221q123 142 277 221t323 79zM1200 1100q0 82-59 141t-141 59-141-59-59-141 59-141 141-59 141 59 59 141zM1400 300h300v-100h-1400v100h300v100h800v-100z" unicode="&#xf115;"/><glyph d="M1900 400v1300q0 41-29.5 70.5t-70.5 29.5h-1500q-41 0-70.5-29.5t-29.5-70.5v-1300q0-41 29.5-70.5t70.5-29.5h1500q41 0 70.5 29.5t29.5 70.5zM400 1600h1300v-400h-1300v400zM500 1500v-200h300v200h-300zM900 1500v-200h300v200h-300zM1300 1500v-200h300v200h-300zM450 1000q21 0 35.5-14.5t14.5-35.5-14.5-35.5-35.5-14.5-35.5 14.5-14.5 35.5 14.5 35.5 35.5 14.5zM600 1000h400v-100h-400v100zM1200 1000h500v-500h-500v500zM450 800q21 0 35.5-14.5t14.5-35.5-14.5-35.5-35.5-14.5-35.5 14.5-14.5 35.5 14.5 35.5 35.5 14.5zM600 800h400v-100h-400v100zM1300 800v-200h300v200h-300zM450 600q21 0 35.5-14.5t14.5-35.5-14.5-35.5-35.5-14.5-35.5 14.5-14.5 35.5 14.5 35.5 35.5 14.5zM600 600h400v-100h-400v100z" unicode="&#xf116;"/><glyph d="M500 1800h1000q82 0 141-59t59-141v-800q0-82-59-141t-141-59h-200l-500-500v500h-300q-82 0-141 59t-59 141v800q0 82 59 141t141 59zM1350 950l-250 250 250 250-100 100-250-250-250 250-100-100 250-250-250-250 100-100 250 250 250-250z" unicode="&#xf117;"/><glyph d="M1000 1000l-746 298 46-1098h-200l48 1141-148 59 1000 400 1000-400zM1000 1500q-41 0-70.5-14.5t-29.5-35.5 29.5-35.5 70.5-14.5 70.5 14.5 29.5 35.5-29.5 35.5-70.5 14.5zM1000 900l557 223q112-149 136-330-52 7-93 7-188 0-347.5-92.5t-252.5-248.5q-93 156-252.5 248.5t-347.5 92.5q-40 0-93-7 24 181 136 330z" unicode="&#xf118;"/><glyph d="M1689 1880l141-141q29-29 29-70.5t-29-70.5l-430-431v-967h-1100v1500h1067l180 180q30 29 71.5 29.5t70.5-29.5zM1123 1032l537 536-142 142-536-537-71-212z" unicode="&#xf119;"/><glyph d="M2000 1000q0 163-50.5 315.5t-143 275.5-215.5 215.5-275.5 143-315.5 50.5-315.5-50.5-275.5-143-215.5-215.5-143-275.5-50.5-315.5 50.5-315.5 143-275.5 215.5-215.5 275.5-143 315.5-50.5 315.5 50.5 275.5 143 215.5 215.5 143 275.5 50.5 315.5zM1000 1899q183 0 349.5-71t287-191.5 191.5-287 71-349.5-71-349.5-191.5-287-287-191.5-349.5-71-349.5 71-287 191.5-191.5 287-71 349.5 71 349.5 191.5 287 287 191.5 349.5 71zM801 518l-305 821 105 8q20 2 27 27.5t-2.5 49-30.5 22.5q-129-10-213-10-33 0-52 1 110 166 287 263t383 97q154 0 293.5-55t247.5-154q-52 7-98.5-30.5t-46.5-111.5q0-29 11.5-61.5t22.5-52.5 37-61q5-8 8-13 50-87 50-221 0-60-31.5-172t-63.5-194l-32-82-271 750q21 1 40 5t27 8l8 3q20 2 27.5 29.5t-2.5 53.5-30 25q-130-11-214-11-35 0-87.5 3l-87.5 5-36 3q-20 1-30-25.5t-2.5-54 27.5-28.5l84-8 112-304zM1403 303l261 697q3 7 7 19.5t15 53.5 15.5 82 8 105-6.5 121q94-170 94-381 0-219-106.5-405t-287.5-292zM268 1323l382-1048q-202 99-324.5 294.5t-122.5 430.5q0 179 65 323zM1013 870l229-625q-117-42-242-42-103 0-206 30z" unicode="&#xf120;"/><glyph d="M300 1900h1400v-1800h-1400v1800zM1400 1500v100h-800v-100h800zM1400 1200v100h-800v-100h800zM1400 900v100h-800v-100h800zM1200 600v100h-600v-100h600z" unicode="&#xf121;"/><glyph d="M854 726q0 130-72 222-50 63-136.5 82t-159.5 3q-25 143 78 303.5t264 241.5l-163 228q-98-47-188.5-114t-169.5-157-133.5-192.5-79.5-227-9-252.5q26-211 139.5-337t283.5-126q151 0 248 88 98 88 98 238zM1797 726q0 130-72 222-50 63-136.5 82t-159.5 3q-25 143 78 303.5t264 241.5l-163 228q-98-47-188.5-114t-169.5-157-133.5-192.5-79.5-227-9-252.5q26-211 139.5-337t283.5-126q151 0 248 88 98 88 98 238z" unicode="&#xf122;"/><glyph d="M100 1900h1800v-1200l-600-600h-1200v1800zM400 1600v-100h1200v100h-1200zM400 1200v-100h1200v100h-1200zM1000 700v100h-600v-100h600zM1200 300l500 500h-500v-500z" unicode="&#xf123;"/><glyph d="M1100 1400h-82q-81 0-149.5-71t-68.5-145v-184l-300-300v300h-200q-82 0-141 59t-59 141v500q0 82 59 141t141 59h600q82 0 141-59t59-141v-300zM1100 1300h600q82 0 141-59t59-141v-500q0-82-59-141t-141-59h-200v-300l-300 300h-100q-82 0-141 59t-59 141v500q0 82 59 141t141 59z" unicode="&#xf125;"/><glyph d="M200 1900h1600q41 0 70.5-29.5t29.5-70.5v-1600l-1800 2v1598q0 41 29.5 70.5t70.5 29.5zM600 1800l-200-300h100l200 300h-100zM1000 1800h-100l-200-300h100zM1300 1800h-100l-200-300h100zM1600 1800h-100l-200-300h100zM1700 400v1000h-1400v-1000h1400zM800 1300l600-400-600-400v800z" unicode="&#xf126;"/><glyph d="M699 1692l1102 200q40 6 69.5-25.5t29.5-74.5v-200-1042q0-145-102.5-247.5t-247.5-102.5-247.5 102.5-102.5 247.5 102.5 247.5 247.5 102.5q73 0 150-35v627l-900-200v-892q-18-128-118-214t-232-86q-145 0-247.5 102.5t-102.5 247.5 102.5 247.5 247.5 102.5q73 0 150-35v827q0 40 28 66.5t71 33.5z" unicode="&#xf127;"/><glyph d="M225 1900h1550q52 0 88.5-36.5t36.5-88.5v-1550q0-52-36.5-88.5t-88.5-36.5h-1550q-52 0-88.5 36.5t-36.5 88.5v1550q0 52 36.5 88.5t88.5 36.5zM1700 300v1400h-1400v-1400h1400zM1000 1400q0 82-59 141t-141 59-141-59-59-141 59-141 141-59 141 59 59 141zM1300 900q0 8 .5 21t3 54 7.5 81 15.5 94 25 100.5 37.5 93.5 52 80.5 70 54.5 89 21v-1000q0-41-29.5-70.5t-70.5-29.5h-1000q-41 0-70.5 29.5t-29.5 70.5v700q41 0 79.5-22t67.5-57.5 55-78 43.5-85 30-78 18.5-57.5l6-22q4 12 12 32.5t36 72 60 91 84 72 108 32.5 107.5-20.5 85-50 59-59 36.5-50.5z" unicode="&#xf128;"/><glyph d="M1500 1600h294q44 0 75-31t31-75v-1181q0-45-31-79t-75-34h-1588q-44 0-75 34t-31 79v1181q0 44 31 75t75 31h294l300 200h400zM1000 500q166 0 283 117t117 283-117 283-283 117-283-117-117-283 117-283 283-117z" unicode="&#xf129;"/><glyph d="M1000 1900q205 0 362-33.5t257.5-91 164.5-142 90-177.5 26-206-26-206-90-177.5-164.5-142-257.5-91-362-33.5-362 33.5-257.5 91-164.5 142-90 177.5-26 206 26 206 90 177.5 164.5 142 257.5 91 362 33.5zM550 1100q62 0 106 44t44 106-44 106-106 44-106-44-44-106 44-106 106-44zM1000 1100q62 0 106 44t44 106-44 106-106 44-106-44-44-106 44-106 106-44zM1450 1100q62 0 106 44t44 106-44 106-106 44-106-44-44-106 44-106 106-44zM600 550q62 0 106-44t44-106-44-106-106-44-106 44-44 106 44 106 106 44zM300 350q41 0 70.5-29.5t29.5-70.5-29.5-70.5-70.5-29.5-70.5 29.5-29.5 70.5 29.5 70.5 70.5 29.5z" unicode="&#xf130;"/><glyph d="M1700 1300v-300h-500v-500h-300v500h-500v300h500v500h300v-500h500z" unicode="&#xf132;"/><glyph d="M1700 1300v300h-200v200h-300v-100h-900v-1500h1100v900h100v200h200zM1600 1500v-100h-200v-200h-100v200h-200v100h200v200h100v-200h200z" unicode="&#xf133;"/><glyph d="M300 1500h1400v200h-1400v-200zM1500 700v600h-1000v-600h1000zM300 300h1400v200h-1400v-200z" unicode="&#xf134;"/><glyph d="M300 1500h1400v200h-1400v-200zM1200 700v600h-900v-600h900zM1400 1100h300v200h-300v-200zM1400 700h300v200h-300v-200zM300 300h1400v200h-1400v-200z" unicode="&#xf135;"/><glyph d="M300 1500h1400v200h-1400v-200zM300 1100h300v200h-300v-200zM1700 700v600h-900v-600h900zM300 700h300v200h-300v-200zM300 300h1400v200h-1400v-200z" unicode="&#xf136;"/><glyph d="M300 1500h1400v200h-1400v-200zM1300 700v600h-1000v-600h1000zM300 300h1400v200h-1400v-200z" unicode="&#xf138;"/><glyph d="M800 1400l600-403-600-397v800z" unicode="&#xf139;"/><glyph d="M1500 1200l-403-600-397 600h800z" unicode="&#xf140;"/><glyph d="M1300 600l-600 403 600 397v-800z" unicode="&#xf141;"/><glyph d="M700 700l403 600 397-600h-800z" unicode="&#xf142;"/><glyph d="M700 700l403 600 397-600h-800z" unicode="&#xf143;"/><glyph d="M1500 1600h300v-1400h-1600v1400h300v100q0 62 44 106t106 44 106-44 44-106v-100h400v100q0 62 44 106t106 44 106-44 44-106v-100zM600 1700v-250q0-21 14.5-35.5t35.5-14.5 35.5 14.5 14.5 35.5v250q0 21-14.5 35.5t-35.5 14.5-35.5-14.5-14.5-35.5zM1300 1700v-250q0-21 14.5-35.5t35.5-14.5 35.5 14.5 14.5 35.5v250q0 21-14.5 35.5t-35.5 14.5-35.5-14.5-14.5-35.5zM1700 300v900h-1400v-900h1400zM700 400v700h-200v-700h200zM1100 400v700h-200v-700h200zM1500 400v700h-200v-700h200z" unicode="&#xf145;"/><glyph d="M1483 1511l134-94-581-838h-134l-324 454 134 125 257-240z" unicode="&#xf147;"/><glyph d="M1000 1784q160 0 305-62t250-167 167-250 62-305-62-305-167-250-250-167-305-62-305 62-250 167-167 250-62 305q0 213 106 393.5t286.5 285.5 391.5 105zM1200 612v776l-582-385z" unicode="&#xf148;"/><glyph d="M1000 1800q163 0 311-63.5t255-170.5 170.5-255 63.5-311-63.5-311-170.5-255-255-170.5-311-63.5-311 63.5-255 170.5-170.5 255-63.5 311 63.5 311 170.5 255 255 170.5 311 63.5zM1500 700l-300 300 300 300-200 200-300-300-300 300-200-200 300-300-300-300 200-200 300 300 300-300z" unicode="&#xf153;"/><glyph d="M1000 1900l-300-600-600-75 413-462-113-663 600 300 600-300-112 663 412 462-600 75zM1000 1676l234-469 465-58-318-356 87-515-468 234-468-234 87 515-318 356 465 58z" unicode="&#xf154;"/><glyph d="M1000 1900l300-600 600-75-412-462 112-663-600 300-600-300 113 663-413 462 600 75z" unicode="&#xf155;"/><glyph d="M1100 1300h-1000l500-700zM900 600h1000l-500 700z" unicode="&#xf156;"/><glyph d="M1476 1900q134 0 229-95.5t95-229.5-95-229-229-95q-33 0-70 8l-106-106v-1053h-1100v1500h954q9 145 99 222.5t223 77.5zM1476 1351q93 0 158.5 66t65.5 158q0 93-65.5 159t-158.5 66-158.5-66-65.5-159q0-54 27-103l-322-322q-35-35-101.5-133t-48.5-116q3-4 10-4 32 0 120.5 61.5t118.5 91.5l324 324q48-23 96-23z" unicode="&#xf157;"/><glyph d="M1212 1000l353-353-212-212-353 353-354-354-212 212 354 354-354 354 212 212 354-354 354 353 212-212z" unicode="&#xf158;"/><glyph d="M1000 1800q163 0 311-63.5t255-170.5 170.5-255 63.5-311-63.5-311-170.5-255-255-170.5-311-63.5-311 63.5-255 170.5-170.5 255-63.5 311 63.5 311 170.5 255 255 170.5 311 63.5zM1000 500q136 0 251 67t182 182 67 251-67 251-182 182-251 67-251-67-182-182-67-251 67-251 182-182 251-67z" unicode="&#xf159;"/><glyph d="M1400 1100h100q41 0 70.5-29.5t29.5-70.5v-700q0-41-29.5-70.5t-70.5-29.5h-1000q-41 0-70.5 29.5t-29.5 70.5v700q0 41 29.5 70.5t70.5 29.5h100v300q0 166 117 283t283 117 283-117 117-283v-300zM1200 1100v300q0 82-59 141t-141 59-141-59-59-141v-300h400zM1100 400l-36 215q39 18 62.5 54.5t23.5 80.5q0 62-44 106t-106 44-106-44-44-106q0-44 23.5-80.5t62.5-54.5l-36-215h200z" unicode="&#xf160;"/><glyph d="M1600 1600h196q43 0 73.5-30.5t30.5-73.5v-1292q0-43-30.5-73.5t-73.5-30.5h-1292q-43 0-73.5 30.5t-30.5 73.5v196h-196q-43 0-73.5 30.5t-30.5 73.5v1292q0 43 30.5 73.5t73.5 30.5h1292q43 0 73.5-30.5t30.5-73.5v-196zM300 600h1100v1100h-1100v-1100zM800 1450q0 62-44 106t-106 44-106-44-44-106 44-106 106-44 106 44 44 106zM1000 1000q2 10 6 28t18.5 70 30.5 99.5 43 105 55.5 99 67 70 79.5 28.5v-800h-900v600q56 0 97-31t60-75 30-88 12-75l1-31q1 4 2.5 11.5t8 28 15.5 39.5 25.5 42 36 39.5 49 28 63.5 11.5q47 0 84.5-20.5t58-50 34.5-59 19-50.5zM1700 300v1100h-100v-896q0-43-30.5-73.5t-73.5-30.5h-896v-100h1100z" unicode="&#xf161;"/><glyph d="M200 100h1600q41 0 70.5 29.5t29.5 70.5v1600q0 41-29.5 70.5t-70.5 29.5h-1600q-41 0-70.5-29.5t-29.5-70.5v-1600q0-41 29.5-70.5t70.5-29.5zM400 1700q41 0 70.5-29.5t29.5-70.5-29.5-70.5-70.5-29.5-70.5 29.5-29.5 70.5 29.5 70.5 70.5 29.5zM1700 1700v-200h-1100v200h1100zM400 1300q41 0 70.5-29.5t29.5-70.5-29.5-70.5-70.5-29.5-70.5 29.5-29.5 70.5 29.5 70.5 70.5 29.5zM1700 1300v-200h-1100v200h1100zM400 900q41 0 70.5-29.5t29.5-70.5-29.5-70.5-70.5-29.5-70.5 29.5-29.5 70.5 29.5 70.5 70.5 29.5zM1700 900v-200h-1100v200h1100zM400 500q41 0 70.5-29.5t29.5-70.5-29.5-70.5-70.5-29.5-70.5 29.5-29.5 70.5 29.5 70.5 70.5 29.5zM1700 500v-200h-1100v200h1100z" unicode="&#xf163;"/><glyph d="M1900 200v1600q0 41-29.5 70.5t-70.5 29.5h-1600q-41 0-70.5-29.5t-29.5-70.5v-1600q0-41 29.5-70.5t70.5-29.5h1600q41 0 70.5 29.5t29.5 70.5zM400 1700q41 0 70.5-29.5t29.5-70.5-29.5-70.5-70.5-29.5-70.5 29.5-29.5 70.5 29.5 70.5 70.5 29.5zM1700 1700v-600h-1100v600h1100zM400 900q41 0 70.5-29.5t29.5-70.5-29.5-70.5-70.5-29.5-70.5 29.5-29.5 70.5 29.5 70.5 70.5 29.5zM1700 900v-600h-1100v600h1100z" unicode="&#xf164;"/><glyph d="M1900 800v-300h-400v-400h-300v400h-800v800h-400v300h400v400h300v-400h700l300 300 100-100-300-300v-700h400zM1100 1300h-400v-400zM800 800h400v400z" unicode="&#xf165;"/><glyph d="M700 1500h-195q0 137 71.5 213.5t223.5 76.5v210q-232 0-368-139.5t-136-360.5h-178l262-339zM2000 1900v-1400h-500v-500h-1400v1000h900v900h1000zM1800 1700h-600v-700h300v-300h300v1000zM1300 800h-1000v-600h1000v600z" unicode="&#xf166;"/><glyph d="M1595 1500h-195l320-339 262 339h-178q0 221-136 360.5t-368 139.5v-210q152 0 223.5-76.5t71.5-213.5zM100 1900h1000v-900h900v-1000h-1400v500h-500v1400zM300 1700v-1000h300v300h300v700h-600zM800 800v-600h1000v600h-1000z" unicode="&#xf167;"/><glyph d="M2000 1100v-200h-300v-800h-1400v800h-300v200h300v800h1400v-800h300zM650 1300h700l-350 400zM1700 1050h-1400v-100h1400v100zM1350 700h-700l350-400z" unicode="&#xf168;"/><glyph d="M1900 1700v-1400h-800v-300h-200v300h-800v1400h800v300h200v-300h800zM1050 300v1400h-100v-1400h100zM700 1350l-400-350 400-350v700zM1700 1000l-400 350v-700z" unicode="&#xf169;"/><glyph d="M1723 990q79-186 79-390t-79-390l-278 117q55 132 55 273 0 142-55 272-52 125-150 223-97 97-222 150-132 55-273 55v-300l-600 450 600 450v-298q204 0 390-79 182-77 318-215 138-136 215-318z" unicode="&#xf171;"/><glyph d="M277 990q77 182 215 318 136 138 318 215 186 79 390 79v298l600-450-600-450v300q-141 0-273-55-124-53-222-150-98-98-150-223-55-130-55-272 0-141 55-273l-278-117q-79 186-79 390t79 390z" unicode="&#xf172;"/><glyph d="M1400 1400q0-138-84.5-245t-215.5-141v-614q0-44-50-94t-100-78l-50-28v814q-131 34-215.5 141t-84.5 245q0 166 117 283t283 117 283-117 117-283zM800 1500q0-41 29.5-70.5t70.5-29.5 70.5 29.5 29.5 70.5-29.5 70.5-70.5 29.5-70.5-29.5-29.5-70.5z" unicode="&#xf173;"/><glyph d="M600 700h900q41 0 70.5-29.5t29.5-70.5-29.5-70.5-70.5-29.5h-1000q-41 0-70.5 29.5t-29.5 70.5v1000h-200q-41 0-70.5 29.5t-29.5 70.5 29.5 70.5 70.5 29.5h300q41 0 70.5-29.5t29.5-70.5v-200h1300l-400-700h-900v-100zM550 400q62 0 106-44t44-106-44-106-106-44-106 44-44 106 44 106 106 44zM1450 400q62 0 106-44t44-106-44-106-106-44-106 44-44 106 44 106 106 44z" unicode="&#xf174;"/><glyph d="M200 1800h1600q41 0 70.5-29.5t29.5-70.5v-1400q0-41-29.5-70.5t-70.5-29.5h-1600q-41 0-70.5 29.5t-29.5 70.5v1400q0 41 29.5 70.5t70.5 29.5zM1700 400v900h-1400v-900h1400zM400 1200v-100h300v100h-300zM800 1200v-300h800v300h-800zM400 800v-100h300v100h-300zM800 800v-300h800v300h-800z" unicode="&#xf175;"/><glyph d="M1485 997q133-14 224-113t91-234q0-145-102.5-247.5t-247.5-102.5h-1000q-145 0-247.5 102.5t-102.5 247.5q0 133 88 231t218 115q-6 26-6 54 0 104 73 177t177 73q49 0 95-19 50 99 145.5 159t209.5 60q166 0 283-117t117-283q0-48-15-103z" unicode="&#xf176;"/><glyph d="M1000 1491q294 0 536-151t364-399q-122-248-364-399t-536-151-536 151-364 399q122 248 364 399t536 151zM1235 1181q0 44-26 78t-66 46q-17 2-49 4-49-4-83-40.5t-34-87.5q0-53 38-91t91-38q54 0 91.5 38t37.5 91zM1000 511q244 0 449.5 121t310.5 309q-69 123-189 208.5t-276 126.5q109-117 109-276 0-167-118.5-285.5t-285.5-118.5-285.5 118.5-118.5 285.5q0 159 109 276-156-41-276-126.5t-189-208.5q105-188 310.5-309t449.5-121z" unicode="&#xf177;"/><glyph d="M1800 300v1400q0 41-29.5 70.5t-70.5 29.5h-1400q-41 0-70.5-29.5t-29.5-70.5v-1400q0-41 29.5-70.5t70.5-29.5h1400q41 0 70.5 29.5t29.5 70.5zM1700 300h-1400v1400h1400v-1400zM475 1600h1050q31 0 53-22t22-53v-125h-100v-300h100v-200h-100v-300h100v-125q0-31-22-53t-53-22h-1050q-31 0-53 22t-22 53v1050q0 31 22 53t53 22zM1300 1000q0 166-117 283t-283 117-283-117-117-283 117-283 283-117 283 117 117 283zM900 1300l77-115q55-24 89-74t34-111q0-82-59-141t-141-59-141 59-59 141q0 61 34 111t89 74z" unicode="&#xf178;"/><glyph d="M1214 1582q139-139 158-334.5t-86-354.5q3-3 15.5-14t20.5-17q34-27 81-59 62-43 66-47 61-45 94-78 49-49 84-100 36-50 59-104 22-55 18-100-3-48-36-81t-81-36q-49-3-99 19-52 21-104 59-51 35-100 84-33 33-77 93-2 3-47 66-32 46-56 78-24 30-44 50-154-83-334-57t-310 155q-160 161-160 389.5t160 388.5q106 106 247.5 143.5t283 0 247.5-143.5zM1073 946q102 103 102 247.5t-102 247.5q-103 103-248 103t-247-103q-103-103-103-247.5t103-247.5q102-103 247-103t248 103z" unicode="&#xf179;"/><glyph d="M900 1100v600h-600v-600h600zM1700 1100v600h-600v-600h600zM900 300v600h-600v-600h600zM1700 300v600h-600v-600h600z" unicode="&#xf180;"/><glyph d="M500 600v800h1000v-800h-1000zM200 700v600h200v-600h-200zM600 1300v-600h800v600h-800zM1600 1300h200v-600h-200v600zM1300 1100v100h-600v-100h600zM1300 800v200h-600v-200h600z" unicode="&#xf181;"/><glyph d="M1200 1600h300q41 0 70.5-29.5t29.5-70.5v-100h-1300v100q0 41 29.5 70.5t70.5 29.5h300q17 86 88.5 143t161.5 57 161.5-57 88.5-143zM800 1600h300q-16 43-58.5 71.5t-91.5 28.5-91.5-28.5-58.5-71.5zM400 1300h1100v-1000q0-41-29.5-70.5t-70.5-29.5h-900q-41 0-70.5 29.5t-29.5 70.5v1000zM700 400v700h-100v-700h100zM1000 400v700h-100v-700h100zM1300 400v700h-100v-700h100z" unicode="&#xf182;"/><glyph d="M1800 200v1600h-1600v-1600h1600zM1600 1500h-1200v100h1200v-100zM700 1300v-300h300q0-124-88-212t-212-88-212 88-88 212 88 212 212 88zM800 1100v200q82 0 141-59t59-141h-200zM1600 1200h-400v100h400v-100zM1600 900h-400v200h400v-200zM1600 700h-400v100h400v-100zM1600 400h-1200v100h1200v-100z" unicode="&#xf183;"/><glyph d="M1000 1000v700q143 0 272.5-55.5t223-149 149-223 55.5-272.5h-700zM900 1600v-700h700q0-143-55.5-272.5t-149-223-223-149-272.5-55.5-272.5 55.5-223 149-149 223-55.5 272.5 55.5 272.5 149 223 223 149 272.5 55.5z" unicode="&#xf184;"/><glyph d="M1800 200v1600h-400v-1600h400zM1200 200v1100h-400v-1100h400zM600 200v800h-400v-800h400z" unicode="&#xf185;"/><glyph d="M600 1600v-1300h454q207 0 326 100 120 99 120 277 0 126-51 201-52 76-167 103v9q85 15 136 90t51 191q0 172-117 250-115 79-374 79h-378zM857 1085v289h136q109 0 161-32 51-33 51-107 0-80-47-115t-151-35h-150zM857 866h160q216 0 216-161 0-91-51-134-50-43-157-43h-168v338z" unicode="&#xf200;"/><glyph d="M1478 1400h-213l-280-900h212l-62-200h-675l62 200h214l280 900h-213l62 200h675z" unicode="&#xf201;"/><glyph d="M550 1300q-62 0-106 44t-44 106 44 106 106 44 106-44 44-106-44-106-106-44zM800 1500h900v-100h-900v100zM550 800q-62 0-106 44t-44 106 44 106 106 44 106-44 44-106-44-106-106-44zM800 1000h900v-100h-900v100zM550 300q-62 0-106 44t-44 106 44 106 106 44 106-44 44-106-44-106-106-44zM800 500h900v-100h-900v100z" unicode="&#xf203;"/><glyph d="M600 1300v400h-69l-129-103 40-51 46 37q12 10 30 28l-2-42v-269h84zM800 1500h900v-100h-900v100zM677 805v70h-172v4l51 48q56 52 70 71 21 26 30 49 10 23 10 51 0 33-16 56-14 23-44 37t-65 14q-29 0-51-6-17-3-42-15-21-12-48-35l45-54q24 19 45 30 21 10 45 10 23 0 35-11 13-12 13-36 0-15-6-30-7-16-19-33-11-13-58-62l-99-100v-58h276zM800 1000h900v-100h-900v100zM671 605q0 46-37 71-37 26-100 26-78 0-133-40l40-60q27 18 46 23 20 7 41 7 58 0 58-46 0-31-22-43t-70-12h-31v-66h31q51 0 75-12 23-12 23-41 0-32-20-47-21-15-63-15-27 0-57 8-25 7-52 20v-74q50-22 118-22 80 0 122 33 43 33 43 92 0 40-26 64-25 24-74 30v2q40 9 65 37 23 28 23 65zM800 500h900v-100h-900v100z" unicode="&#xf204;"/><glyph d="M949 678q0 113-61 190-43 53-117 69.5t-136 2.5q-21 122 66.5 259t225.5 206l-139 195q-106-51-199.5-129t-167.5-179.5-110-231-19-265.5q22-180 119.5-287.5t242.5-107.5q128 0 212 75 83 74 83 203zM1754 678q0 113-61 190-43 54-117 70t-136 2q-21 122 66.5 259t225.5 206l-139 195q-106-51-199.5-129t-167-179.5-109.5-231-19-265.5q22-180 119-287.5t242-107.5q128 0 212 75 83 74 83 203z" unicode="&#xf205;"/><glyph d="M1200 1500v200h-900v-200h900zM1700 1100v200h-1400v-200h1400zM1200 700v200h-900v-200h900zM1700 300v200h-1400v-200h1400z" unicode="&#xf206;"/><glyph d="M1400 1500v200h-800v-200h800zM1700 1100v200h-1400v-200h1400zM1400 700v200h-800v-200h800zM1700 300v200h-1400v-200h1400z" unicode="&#xf207;"/><glyph d="M1700 1500v200h-900v-200h900zM1700 1100v200h-1400v-200h1400zM1700 700v200h-900v-200h900zM1700 300v200h-1400v-200h1400z" unicode="&#xf208;"/><glyph d="M1700 1300v400h-1400v-400h1400zM600 900v200h-300v-200h300zM1200 900v200h-400v-200h400zM1700 900v200h-300v-200h300zM1700 300v400h-1400v-400h1400z" unicode="&#xf209;"/><glyph d="M1584 1724q36 0 71-11 26-8 64-25l35 81q-78 39-169 39-86 0-152-37-65-37-99-108-34-68-34-163 0-149 70-228t202-79q88 0 160 26v84q-32-10-74-19-38-8-74-8-89 0-134 57-47 54-47 166 0 105 48 165 49 60 133 60zM650 1200h104l-224 600h-106l-224-600h103l58 166h229zM800 1800v-600h217q101 0 157 46 56 44 56 126 0 60-30 95-28 35-93 47v4q50 9 78 44 28 37 28 88 0 78-56 114-54 36-179 36h-178zM898 1552v166h85q68 0 97-19 31-18 31-61 0-46-29-66-28-20-89-20h-95zM564 1450h-174l54 156q23 65 32 110l15-52q8-26 17-51zM898 1473h99q64 0 98-23 32-23 32-69 0-51-32-75-31-24-93-24h-104v191zM400 700l500-500 900 800-100 100-800-600-400 300z" unicode="&#xf210;"/><glyph d="M600 1700l-125-125 225-375-375 225-125-125v400h400zM1400 1700h400v-400l-125 125-375-225 225 375zM700 800v400h600v-400h-600zM200 700l125-125 375 225-225-375 125-125h-400v400zM1400 300l125 125-225 375 375-225 125 125v-400h-400z" unicode="&#xf211;"/><glyph d="M1900 1800v-600h-1800v600h1800zM1800 1300v400h-1600v-400h1600zM500 1600v-200h-200v200h200zM800 1600v-200h-200v200h200zM1100 1600v-200h-200v200h200zM1400 1600v-200h-200v200h200zM1700 1600v-200h-200v200h200zM1900 1100v-900h-1800v900h1800zM1800 300v700h-1600v-700h1600zM500 900v-200h-200v200h200zM800 900v-200h-200v200h200zM1100 900v-200h-200v200h200zM1700 900v-200h-500v200h500zM1100 600v-200h-800v200h800zM1400 600v-200h-200v200h200zM1700 600v-200h-200v200h200z" unicode="&#xf212;"/><glyph d="M1400 1500h-200v-571q0-143-70-220.5t-175-77.5q-106 0-180.5 78t-74.5 218v573h-200v-587q0-61 12.5-120.5t45-121 82-108 129-75.5 179.5-29 180.5 28.5 130 74 82.5 106.5 46 120.5 13 120.5v591zM1400 200v200h-900v-200h900z" unicode="&#xf213;"/><glyph d="M200 1700h1600v-200h-1600v200zM200 1300h1600v-200h-1600v200zM200 900h1600v-200h-1600v200zM200 500h1600v-200h-1600v200z" unicode="&#xf214;"/><glyph d="M1323 500h190l-413 1100h-200l-400-1100h188l107 300h418zM1170 954h-319l149 486z" unicode="&#xf215;"/><glyph d="M1238 1800l262-300v-100h-1000v100l264 300h474zM1000 1500q41 0 70.5 29.5t29.5 70.5-29.5 70.5-70.5 29.5-70.5-29.5-29.5-70.5 29.5-70.5 70.5-29.5zM1800 300v1200q0 41-29.5 70.5t-70.5 29.5h-154l54-63v-237h-1200v238l55 62h-155q-41 0-70.5-29.5t-29.5-70.5v-1200q0-41 29.5-70.5t70.5-29.5h1400q41 0 70.5 29.5t29.5 70.5zM1500 1100l-200-700h-200l-100 500-100-500h-208l-192 700h200l100-500 100 500h200l100-500 100 500h200z" unicode="&#xf216;"/><glyph d="M1238 1800l262-300v-100h-1000v100l264 300h474zM1000 1500q41 0 70.5 29t29.5 71q0 41-29.5 70.5t-70.5 29.5-70.5-29.5-29.5-70.5q0-42 29.5-71t70.5-29zM1545 1600h155q41 0 70.5-29.5t29.5-70.5v-1200q0-42-29.5-71t-70.5-29h-1400q-41 0-70.5 29t-29.5 71v1200q0 41 29.5 70.5t70.5 29.5h155l-55-63v-237h1200v237zM1400 900v200h-800v-200h300v-500h200v500h300z" unicode="&#xf217;"/><glyph d="M1429 1541l110-111q61-60 61-147v-212q0-87-61-147l-663-663q-60-61-147-61t-147 61l-111 110-110 111q-61 60-61 147v212q0 87 61 148l663 662q60 61 147 61 86 0 147-61zM808 571l642 642q29 29 29 71t-29 72l-214 214q-29 29-72 29-42 0-71-29l-642-642q-29-30-29-72t29-71l214-214q29-29 71.5-29t71.5 29z" unicode="&#xf218;"/><glyph d="M1600 1800h-300v-100h-600v100h-300v-1500h300v100h600v-100h300v1500zM600 1700v-100h-100v100h100zM1500 1700v-100h-100v100h100zM1300 1600v-500h-600v500h600zM600 1500v-100h-100v100h100zM1500 1500v-100h-100v100h100zM600 1300v-100h-100v100h100zM1500 1300v-100h-100v100h100zM600 1100v-100h-100v100h100zM1500 1100v-100h-100v100h100zM1300 1000v-500h-600v500h600zM600 900v-100h-100v100h100zM1500 900v-100h-100v100h100zM600 700v-100h-100v100h100zM1500 700v-100h-100v100h100zM600 500v-100h-100v100h100zM1500 500v-100h-100v100h100z" unicode="&#xf219;"/><glyph d="M1000 1460q190 0 291-108 100-108 100-313 0-192-69-327-33-62-87.5-111.5t-134.5-100.5v-200h600v200h-369q146 101 212 234 74 153 74 335 0 267-165 422-166 155-452 155-287 0-452-157-165-156-165-420 0-181 73-333 62-130 210-236h-366v-200h600v200q-84 55-139 105t-85 112q-67 133-67 322 0 206 100 313 99 108 291 108z" unicode="&#xf220;"/><glyph d="M700 1600v100h-400v-100h400zM1700 1500v200h-900v-200h900zM700 1300h-200v200l-400-350 400-350v200h200v300zM1700 1200v200h-900v-200h900zM1500 900v200h-700v-200h700zM1700 600v200h-900v-200h900zM700 600v100h-400v-100h400zM1100 300v200h-300v-200h300z" unicode="&#xf221;"/><glyph d="M300 1500v200h900v-200h-900zM1300 1600v100h400v-100h-400zM1300 1300h200v200l400-350-400-350v200h-200v300zM300 1200v200h900v-200h-900zM500 900v200h700v-200h-700zM300 600v200h900v-200h-900zM1300 600v100h400v-100h-400zM900 300v200h300v-200h-300z" unicode="&#xf222;"/><glyph d="M1700 1000q0 190-94 351.5t-255 255-351 93.5q-143 0-272.5-55.5t-223-149-149-223-55.5-272.5 55.5-272.5 149-223 223-149 272.5-55.5q190 0 351 93.5t255 255 94 351.5zM1070 852h-156v43q0 56 24 98 22 39 88 89 61 43 81 71 20 26 20 62 0 37-28 58-28 19-79 19-88 0-200-57l-64 128q131 74 277 74 120 0 192-58 71-58 71-155 0-66-29-111-27-45-111-106-55-40-71-63-15-22-15-57v-35zM923 578q-27 26-27 73 0 50 26 75t77 25q47 0 75-26 27-26 27-74 0-47-27-72-27-27-75-27t-76 26z" unicode="&#xf223;"/><glyph d="M1582 775q40 0 74 7 33 7 73 20v-84q-70-26-158-26-131 0-201 79-59 67-68 179h-94q18-32 18-79 0-80-55-126-57-45-156-45h-215v250h-141l93-250h-103l-59 167h-228l-58-167h-104l93 250h-93v100h131l93 249h106l92-249h178v250h177q115 0 177-41 55-36 55-113 0-52-27-87l-8-9h129q8 62 31 110 36 71 98 106 64 37 151 37 93 0 169-38l-35-81q-26 13-64 25-35 11-71 11-83 0-131-59-35-44-44-111h293v-100h-295q9-77 44-119 45-56 133-56zM444 1104l-18-54h104l-22 61q-2 5-7.5 22t-9.5 29q-12 41-14 51-14-59-33-109zM897 1213v-163h119q39 3 64 18 28 19 28 66 0 42-30 61-30 18-97 18h-84zM564 949v1h-173v-1h173zM1092 948l-3 2h-192v-168h104q60 0 92 23 31 24 31 74 0 46-32 69z" unicode="&#xf224;"/><glyph d="M1774 1774q126-127 126-305t-126-305l-153-152q-45-46-108-77l-213 65 169 164 76 77 76 76q63 63 63 152t-63 152q-63 64-152 64t-152-64l-77-76-76-76-164-169-65 214q31 63 77 107l152 153q127 126 305.5 126t304.5-126zM200 1600l800-600-600 800zM600 1800l400-800-200 800h-200zM200 1400l800-400-800 200v200zM936 631l64 69 74-235-138-139q-127-126-305-126t-305 126q-126 126-126 305t126 305l139 138 235-74-69-64-152-153q-64-63-64-152t64-152q63-64 152-64t152 64zM1800 400l-800 600 600-800zM1400 200l-400 800 200-800h200zM1800 600l-800 400 800-200v-200z" unicode="&#xf225;"/><glyph d="M376 400h1248q176 219 176 500 0 163-63.5 311t-170.5 255-255 170.5-311 63.5-311-63.5-255-170.5-170.5-255-63.5-311q0-281 176-500zM1000 1600q41 0 70.5-29.5t29.5-70.5-29.5-70.5-70.5-29.5-70.5 29.5-29.5 70.5 29.5 70.5 70.5 29.5zM600 1400q41 0 70.5-29.5t29.5-70.5-29.5-70.5-70.5-29.5-70.5 29.5-29.5 70.5 29.5 70.5 70.5 29.5zM1400 1400q41 0 70.5-29.5t29.5-70.5-29.5-70.5-70.5-29.5-70.5 29.5-29.5 70.5 29.5 70.5 70.5 29.5zM863 845l337 455v-600q0-82-59-141t-141-59-141 59-59 141q0 85 63 145zM400 1000q41 0 70.5-29.5t29.5-70.5-29.5-70.5-70.5-29.5-70.5 29.5-29.5 70.5 29.5 70.5 70.5 29.5zM1600 1000q41 0 70.5-29.5t29.5-70.5-29.5-70.5-70.5-29.5-70.5 29.5-29.5 70.5 29.5 70.5 70.5 29.5zM1100 700q0 41-29.5 70.5t-70.5 29.5-70.5-29.5-29.5-70.5 29.5-70.5 70.5-29.5 70.5 29.5 29.5 70.5z" unicode="&#xf226;"/><glyph d="M500 200v1500h-200v-1500h200zM600 800v800q83 28 189 28.5t214.5-14 220.5-29 239-13.5 237 28v-800q-83-35-201-39t-229.5 13-239 32.5-229.5 19.5-201-26z" unicode="&#xf227;"/><glyph d="M300 1600h1400v-200h-1400v200zM300 1100h1400v-200h-1400v200zM300 600h1400v-200h-1400v200z" unicode="&#xf228;"/><glyph d="M300 997l600 403v-800zM1100 1400l600-403-600-397v800z" unicode="&#xf229;"/><glyph d="M1000 1800q-163 0-301-80.5t-218.5-218.5-80.5-301q0-142 70-266.5t183-222.5q4-3 23.5-19.5t29.5-25.5 30-27.5 34.5-33 33-35.5 34.5-42q133-174 162-271 29 97 162 271 16 21 34.5 42t33 35.5 34.5 33 30 27.5 29.5 25.5 23.5 19.5q113 98 183 222.5t70 266.5q0 163-80.5 301t-218.5 218.5-301 80.5zM1000 1544q142 0 243-101t101-243-101-243-243-101-243 101-101 243 101 243 243 101z" unicode="&#xf230;"/><glyph d="M1300 686l117 594q60 33 96.5 91.5t36.5 128.5q0 104-73 177t-177 73-177-73-73-177q0-70 36.5-128.5t96.5-91.5zM1300 1650q62 0 106-44t44-106-44-106-106-44-106 44-44 106 44 106 106 44zM1472 1170l328 133v-900l-488-203-612 203-500-200v900l500 200 427-141 173-730z" unicode="&#xf231;"/><glyph d="M400 500v300h-200v1000h1200v-300h200v-300h200v-1000h-1200v300h-200zM1100 1700q-82 0-141-59t-59-141h400q0 83-58.5 141.5t-141.5 58.5zM400 900v500h-100v-500h100zM1100 1200h400q0 83-58.5 141.5t-141.5 58.5q-82 0-141-59t-59-141zM600 600v500h-100v-500h100zM1500 700q83 0 141.5 58.5t58.5 141.5q0 82-59 141t-141 59-141-59-59-141q0-83 58.5-141.5t141.5-58.5zM1700 300v200q-101 0-185.5 16.5t-144.5 43-115 58.5l-110 64t-115 58.5-144.5 43-185.5 16.5v-500h1000z" unicode="&#xf232;"/><glyph d="M500 1700h1400v-1100h-200v-200h-200v-200h-1400v1100h200v200h200v200zM1800 700v900h-1200v-900h1200zM1500 1100q-82 0-141 59t-59 141 59 141 141 59 141-59 59-141-59-141-141-59zM1600 500v100h-1100v800h-100v-900h1200zM700 1400l1000-600h-1000v600zM1400 300v100h-1100v800h-100v-900h1200z" unicode="&#xf233;"/><glyph d="M800 1500q0 41-29.5 70.5t-70.5 29.5h-500q-41 0-70.5-29.5t-29.5-70.5q0-42 30.5-71t69.5-29h500q41 0 70.5 29.5t29.5 70.5zM1400 1000l400 400v-1000l-400 400v200zM1300 600v600q0 41-29.5 70.5t-70.5 29.5h-800q-41 0-70.5-29.5t-29.5-70.5v-600q0-41 29.5-70.5t70.5-29.5h800q41 0 70.5 29.5t29.5 70.5z" unicode="&#xf234;"/><glyph d="M1200 700v600q0 82-59 141t-141 59h-700q-82 0-141-59t-59-141v-600q0-82 59-141t141-59h700q82 0 141 59t59 141zM1300 950l600-450v1000l-600-450v-100z" unicode="&#xf235;"/><glyph d="M1900 500v1000q0 82-59 141t-141 59h-1300q-82 0-141-59t-59-141v-1000q0-82 59-141t141-59h1300q82 0 141 59t59 141zM800 600v800l600-400z" unicode="&#xf236;"/><glyph d="M1450 800q124 0 212-88t88-212-88-212-212-88-212 88-88 212q0 34 9 69l-438 230q-89-99-221-99-124 0-212 88t-88 212 88 212 212 88q130 0 221-99l438 230q-9 35-9 69 0 124 88 212t212 88 212-88 88-212-88-212-212-88q-130 0-221 99l-438-230q9-35 9-69t-9-69l438-230q89 99 221 99z" unicode="&#xf237;"/><glyph d="M1800 1650q0-46-25.5-83.5t-66.5-54.5v-1311h-1509l422 673q-21 37-21 76 0 62 44 106t106 44 106-44 44-106q0-17-5-37l144-63q45 50 111 50 22 0 51-9l358 641q-59 44-59 118 0 62 44 106t106 44q25 0 53-10l5 9v-11q41-17 66.5-54.5t25.5-83.5zM1608 301v1114l-329-589q21-37 21-76 0-62-44-106t-106-44-106 44-44 106l1 7-163 72q-40-29-88-29-24 0-51 10l-320-509h1229z" unicode="&#xf238;"/><glyph d="M1800 200l1 1228q45 27 72 72.5t27 99.5q0 82-59 141t-141 59-141-59-59-141q0-59 31.5-107.5t82.5-72.5l-413-658q-52 38-116 38-62 0-112-34t-73-90l-214 153q14 34 14 71 0 83-58.5 141.5t-141.5 58.5-141.5-58.5-58.5-141.5q0-54 26.5-99t71.5-72l-298-529h1700zM1700 1700q41 0 70.5-29.5t29.5-70.5-29.5-70.5-70.5-29.5-70.5 29.5-29.5 70.5 29.5 70.5 70.5 29.5zM500 1000q41 0 70.5-29.5t29.5-70.5-29.5-70.5-70.5-29.5-70.5 29.5-29.5 70.5 29.5 70.5 70.5 29.5zM1085 700q41 0 70.5-29.5t29.5-70.5-29.5-70.5-70.5-29.5-70.5 29.5-29.5 70.5 29.5 70.5 70.5 29.5z" unicode="&#xf239;"/><glyph d="M1622 1420q35-52 23.5-112.5t-63.5-95.5-112.5-23.5-95.5 63.5q-21 31-55 67-36 34-67 55-37 25-77 41-42 19-84 26-90 20-182 1-43-9-84-27-40-16-77-41-33-22-66-55-34-34-56-67-24-36-41-76-1-2-1-4-12-30-23-72h-461v300h266q9 16 12 20 42 62 91 111 51 51 111 91 63 43 128 70 71 30 141 43 151 32 302 0 70-13 141-43 65-27 128-70 60-40 111-91 49-49 91-111zM1250 1000q0 104-73 177t-177 73-177-73-73-177 73-177 177-73 177 73 73 177zM378 580q-35 52-23.5 113t63.5 96 113 23 95-64q21-31 55-67 36-34 67-55 37-25 77-41 36-16 84-26 87-19 182 0 48 10 84 26 40 16 77 41 33 22 66 55 31 31 56 67 26 41 41 76 1 2 1 4 12 30 23 72h461v-300h-266q-2-2-5.5-9t-6.5-11q-42-62-91-111-51-51-111-91-63-43-128-70-64-27-141-43-151-32-302 0-77 16-141 43-65 27-128 70-60 40-111 91-49 49-91 111z" unicode="&#xf240;"/><glyph d="M1800 1200l-500-400v299q-86-2-152.5-9t-143.5-26-141-50.5-132.5-85.5-130.5-128q22 269 199 421t501 173v306zM400 600h1100v200l200 160v-560h-1500v1100h943q-274-48-441-200h-302v-700z" unicode="&#xf242;"/><glyph d="M1894 1554q-75-112-183-190 1-15 1-47 0-147-43-294.5t-131-282.5-210-239-293-166-366-62q-304 0-563 165 48-5 88-5 255 0 455 157-119 2-212.5 73t-129.5 182q39-7 69-7 47 0 96 13-127 26-210.5 127t-83.5 233v4q80-43 166-46-75 51-119 131.5t-44 174.5q0 100 50 184 138-169 334.5-270.5t421.5-112.5q-10 45-10 84 0 151 107.5 258.5t259.5 107.5q160 0 268-116 126 26 233 89-43-132-162-202 107 11 211 57z" unicode="&#xf301;"/><glyph d="M605 1800q-87 0-148.5-61.5t-61.5-148.5v-908q0-6-1-9 0-209 117.5-337.5t342.5-134.5q2 0 7-.5t8-.5h521q86 0 148 62t62 149-62 148.5-148 61.5h-544q-30 0-30 39v303h574q86 0 148 61.5t62 148.5-62 149-148 62h-574v206q0 87-62 148.5t-149 61.5z" unicode="&#xf302;"/><glyph d="M1492 200h308q0 214-57.5 418t-161 376.5-251 318-323 247.5-383 158.5-424.5 56.5v-302q210 0 407-64.5t356-182 278.5-274 185-351 65.5-401.5zM948 200h308q0 211-84 403.5t-225.5 332-337 222-409.5 82.5v-302q150 0 286-56t243-160q106-104 162.5-239t56.5-283zM413 202q88 0 150.5 61t62.5 148q0 86-62.5 147.5t-150.5 61.5-150.5-61.5-62.5-147.5q0-87 62-148t151-61z" unicode="&#xf303;"/><glyph d="M289 1800h1423q37 0 62.5-25.5t25.5-62.5v-1424q0-36-25.5-62t-62.5-26h-408v620h208l31 241h-239v154q0 59 25 88.5t95 29.5h128v216q-66 9-186 9-142 0-226.5-83.5t-84.5-235.5v-178h-209v-241h209v-620h-766q-37 0-63 26t-26 62v1424q0 37 26 62.5t63 25.5z" unicode="&#xf304;"/><glyph d="M846 200h293v730h245l37 284h-282v182q0 69 29.5 103.5t111.5 34.5h151v255q-95 11-219 11-167 0-266.5-98.5t-99.5-277.5v-210h-246v-284h246v-730z" unicode="&#xf305;"/><glyph d="M600 1500v200h-300v-200h300zM1800 500v1100h-900l-200-200h-500v-900h1600zM1100 1300q124 0 212-88t88-212-88-212-212-88-212 88-88 212 88 212 212 88z" unicode="&#xf306;"/><glyph d="M803 1554q-7-40-4.5-85.5t20.5-92 42-84 61-61 78-23.5q50 0 94 36t68 89 35.5 113-1.5 108q-16 72-72.5 117.5t-123.5 45.5q-68 0-124-45.5t-73-117.5zM390 1464q-13-55 4-123t61.5-119 101.5-51 101.5 51 61.5 119 4 123q-14 61-62 100t-105 39-105-39-62-100zM1276 1464q-13-55 4-123t61.5-119 100.5-51q57 0 101.5 51t61.5 119 4 123q-14 61-62 100t-105 39-104.5-39-61.5-100zM1217 321l125 430q37 126 6 215t-122 138-226 49q-207 0-304-109t-40-293l126-430q17-53 79.5-87t138.5-34q75 0 137.5 34t79.5 87zM607 1084q-107-147-42-359l112-379q-53-31-120-31-65 0-117.5 28.5t-67.5 74.5l-107 365q-48 156 34 248t258 92q41 0 79-6-11-11-29-33zM1442 1123q176 0 258.5-92t33.5-248l-107-365q-15-46-67.5-74.5t-117.5-28.5q-67 0-120 31l111 377q67 215-42 361-13 18-28 33 38 6 79 6z" unicode="&#xf307;"/><glyph d="M1770 1368l141-142-347-341-142 142 84 82q-54 129-151 231l-461-659-526-470q-29-29-70.5-29t-71.5 29l-120 121q-29 29-29 70.5t29 70.5l1097 992q-231 145-567 148 412 125 658 30 25-10 50-23.5t44.5-25 45-33 39.5-32.5 40-39 35.5-37.5 37-43 33-40 34.5-44 32-40.5z" unicode="&#xf308;"/><glyph d="M855 1694q20-7 21-22t-11-35.5-30-44.5-32-51.5-19.5-54 9-54.5 52.5-51q23-17 61-5t75 37 82.5 63.5 83.5 74 78 69 65 47.5q39 22 84.5 30t95 0 96-47 77.5-106q33-72 41-182t-14.5-239.5-70-255.5-135-242-200.5-187q-117-74-246.5-106t-252.5-20-233.5 58.5-198.5 132.5-139 201q-29 66-39.5 141t-2.5 147.5 30 147.5 57.5 142.5 79 131 95 113.5 106.5 91 113 62 113.5 27.5 108.5-13.5zM976 1049q30-68 126-56 91 12 173 84 96 86 93 187-1 34-13 65-26 65-124 33-92-29-176-112-94-94-87-171 2-16 8-30z" unicode="&#xf309;"/><glyph d="M400 1400h600v200h-800v-1201h800v201h-600v800zM600 1200h600v300l600-500-600-500v300h-600v400z" unicode="&#xf310;"/><glyph d="M376 299h1248q176 221 176 501 0 162-63.5 310.5t-170.5 255.5-255 170.5-311 63.5-311-63.5-255-170.5-170.5-255.5-63.5-310.5q0-280 176-501zM900 1400q0 41 29.5 70.5t70.5 29.5 70.5-29.5 29.5-70.5q0-42-29.5-71t-70.5-29-70.5 29-29.5 71zM400 1200q0 41 29.5 70.5t70.5 29.5 70.5-29.5 29.5-70.5q0-42-29.5-71t-70.5-29-70.5 29-29.5 71zM852 860q37 37 200 124.5t307 156.5l144 69q-30-64-76.5-160.5t-141-275-131.5-215.5q-63-63-151-63t-151 63q-62 62-62 150.5t62 150.5zM300 700q0 41 29.5 70.5t70.5 29.5 70.5-29.5 29.5-70.5q0-42-29.5-71t-70.5-29-70.5 29-29.5 71zM900 700q0 41 29.5 70.5t70.5 29.5 70.5-29.5 29.5-70.5q0-42-29.5-71t-70.5-29-70.5 29-29.5 71zM1500 700q0 41 29.5 70.5t70.5 29.5 70.5-29.5 29.5-70.5q0-42-29.5-71t-70.5-29-70.5 29-29.5 71z" unicode="&#xf311;"/><glyph d="M1700 1200h100v-1100h-1600v1100h100v200q0 136 67 251t182 182 251 67q105 0 200-42 95 42 200 42 136 0 251-67t182-182 67-251v-200zM500 1400v-200h200v200q0 164 102 300h-2q-124 0-212-88t-88-212zM1500 1200v200q0 124-88 212t-212 88h-2q102-136 102-300v-200h200zM1000 1622q-100-90-100-222v-200h200v200q0 132-100 222z" unicode="&#xf312;"/><glyph d="M446 1484l54-230-54-229 201-124 123-201 230 54 230-54 123 201 201 124-54 229 54 230-200 124-124 201-230-55-229 54-125-200zM1001 850q-167 0-284 117t-117 284q0 165 117.5 282t283.5 117q165 0 282-117t117-282q0-166-117-283.5t-282-117.5zM999 950q-124 0-211.5 87.5t-87.5 212.5q0 124 87.5 212t211.5 88 212.5-88 88.5-212-88-212-213-88zM1383 840l-128-224-208 47 253-583 140 220h250zM613 833l125-225 213 51-251-579-140 220h-250z" unicode="&#xf313;"/><glyph d="M200 1800h700v-700h-700v700zM1100 1800v-700h700v700h-700zM550 1550l150 150h-300zM1200 1200v500h500v-500h-500zM450 1450l-150 150v-300zM800 1600l-150-150 150-150v300zM550 1350l-150-150h300zM900 200v700h-700v-700h700zM1800 200h-700v700h700v-700zM800 800v-500h-500v500h500zM1450 650l150 150h-300zM1200 400l150 150-150 150v-300zM1550 550l150-150v300zM1450 450l-150-150h300z" unicode="&#xf314;"/><glyph d="M1500 1400v-200q82 0 141-59t59-141v-700q0-82-59-141t-141-59h-1000q-82 0-141 59t-59 141v700q0 82 59 141t141 59v200q0 136 67 251t182 182 251 67 251-67 182-182 67-251zM800 1400v-200h400v200q0 82-59 141t-141 59-141-59-59-141zM1080 375v217q54 24 87 73.5t33 109.5q0 83-59 141.5t-141 58.5-141-58.5-59-141.5q0-60 33-109.5t87-73.5v-217h160z" unicode="&#xf315;"/><glyph d="M1401 1600v-600h200v800h-1201v-800h201v600h800zM1201 1400v-600h300l-500-600-500 600h300v600h400z" unicode="&#xf316;"/><glyph d="M800 600v600h-300l500 600 500-600h-300v-600h-400zM600 400v600h-200v-800h1201v800h-201v-600h-800z" unicode="&#xf317;"/><glyph d="M500 1300h1300v-1000h-1600v1300h700l200-200h-700v-900h100v800z" unicode="&#xf318;"/><glyph d="M1900 1000q0 183-71.5 349.5t-192 287-287 192-349.5 71.5-349.5-71.5-287-192-192-287-71.5-349.5 71.5-349.5 192-287 287-192 349.5-71.5 349.5 71.5 287 192 192 287 71.5 349.5zM800 990q-378 39-548 229 74 240 271.5 396t453.5 167q-33-55-56-126t-32-149 12-154.5 73-127.5q-35-5-69 6t-58.5 30-51 40-45.5 36-43 17.5-44-14.5q-88-69-42-150 50-88 228-144 62-20 134-33 97-17 164.5-40.5t106.5-49.5 60-62.5 27-71 5-84.5q-6-298-406-470 2 86-11.5 153t-38 109-55 73.5-63.5 52-62.5 37-54 36.5-35.5 43q10 42 18.5 67.5t27.5 61.5 52 66 82 56zM1649 1422q31-48 54.5-97.5t38.5-92.5 23-89 11.5-81 1.5-75.5-4.5-66-10-58.5-11.5-46.5-12-37.5l-7-24q-21 51-52 95.5t-60.5 74.5-57.5 58-50.5 60-32.5 66q-39 137 169 314z" unicode="&#xf319;"/><glyph d="M552 1800h743q41 0 70.5-29.5t29.5-70.5-29.5-70.5-70.5-29.5h-100v-1300q0-41-29.5-70.5t-70.5-29.5-70.5 29.5-29.5 70.5v1200q0 41-29.5 70.5t-70.5 29.5-70.5-29.5-29.5-70.5v-1200q0-41-29.5-70.5t-70.5-29.5-70.5 29.5-29.5 70.5v596h-43q-123 0-227 60.5t-164.5 164.5-60.5 227 60.5 227 164.5 164.5 227 60.5zM1400 600l500 400-500 400v-800z" unicode="&#xf320;"/><glyph d="M1365 1712q145-74 248-198t149-268.5 35-305-85-305.5-198-247.5-268-149-305-35.5-306 85q-138 71-237 185t-149 255l164 103q34-120 113.5-218t194.5-158q111-57 234-65.5t233 27 204.5 114.5 151.5 190 66 234-27 233-114.5 205-189.5 152-234 65.5-233-27-204.5-114.5-151.5-190l188-97-495-308-39 582 178-91q74 145 198.5 248t269 149 305 34.5 304.5-84.5zM929 929q-29 29-29 71 0 4 2 10t2 9h-1l97 481 97-481 303-319-450 212 2 2q-13 7-23 15z" unicode="&#xf321;"/><glyph d="M400 1500h-322q-30 0-51.5-23.5t-17.5-60.5l156-999q185 736 221 913 8 36 36.5 53t61.5 17h516q-70 208-77 231-19 69-78 69h-331q-28 0-50.5-17t-29.5-47zM888 1500h-400q2 4 5 11t12.5 24 19.5 30 23.5 24 26.5 11h213q21 0 46-25t40-50zM267 375q-49-75-126-75h1573q40 0 67.5 22t35.5 61l168 844q5 35-15 54t-47 19h-323v147q0 15-19.5 34t-46.5 19h-376q-23 0-45-14.5t-32-29.5l-10-14-71-142h-441q-25 0-45-13.5t-24-36.5q-159-670-172-733-17-92-51-142zM1538 1300h-438q2 4 6.5 11t17.5 24 25.5 30 30.5 24 33 11h229q20 0 37-10.5t27.5-25 18-29 10.5-25.5z" unicode="&#xf322;"/><glyph d="M1100 1800h700v-700l-1000-1000-700 700zM1400 1200q82 0 141 59t59 141-59 141-141 59-141-59-59-141 59-141 141-59z" unicode="&#xf323;"/><glyph d="M2000 1000q0 203-79.5 388t-213.5 319-319 213.5-388 79.5-388.5-79.5-319.5-213.5-213-319-79-388q0-163 50.5-315.5t143-275.5 215.5-215.5 275.5-143 315.5-50.5q203 0 388 79t319 213 213.5 319.5 79.5 388.5zM778 463l-341 915 117 8q24 3 32 31t-3 54.5-35 25.5q-145-11-237-11-37 0-58 1 121 186 318.5 294t428.5 108q172 0 327.5-61t277.5-173q-58 9-111.5-33.5t-53.5-124.5q0-18 4.5-37.5t8.5-32.5 16-36.5 17-31.5 22.5-37 21.5-35q55-96 55-246 0-66-35-191t-70-217l-35-92-303 837q24 1 44.5 5t29.5 8l8 4q24 2 32 33t-3 60.5-35 28.5q-144-12-238-12-39 0-97 3t-97 6l-39 3q-24 1-35-29t-3-61 32-32l92-8 126-341zM1741 1000q12 32 17.5 47t16.5 60.5 14.5 85 3.5 102-9 130.5q105-193 105-425 0-245-119-453.5t-321-324.5q247 661 292 778zM610 191q-226 109-362.5 328t-136.5 481q0 196 72 359 336-921 427-1168zM1013 854l258-698q-133-45-271-45-121 0-229 33 28 83 112.5 329.5t129.5 380.5z" unicode="&#xf324;"/><glyph d="M1800 700h100q41 0 70.5-29.5t29.5-71.5v-298q0-42-29.5-71.5t-70.5-29.5h-400q-41 0-70.5 29.5t-29.5 71.5v298q0 42 29.5 71.5t70.5 29.5h100v200h-500v-200h100q41 0 70.5-29.5t29.5-71.5v-298q0-42-29.5-71.5t-70.5-29.5h-400q-41 0-70.5 29.5t-29.5 71.5v298q0 42 29.5 71.5t70.5 29.5h100v200h-500v-200h100q41 0 70.5-29.5t29.5-71.5v-298q0-42-29.5-71.5t-70.5-29.5h-400q-41 0-70.5 29.5t-29.5 71.5v298q0 42 29.5 71.5t70.5 29.5h100v200q0 82 59 141t141 59h500v200h-100q-41 0-70.5 29.5t-29.5 71.5v298q0 42 29.5 71.5t70.5 29.5h400q41 0 70.5-29.5t29.5-71.5v-298q0-42-29.5-71.5t-70.5-29.5h-100v-200h500q82 0 141-59t59-141v-200z" unicode="&#xf325;"/><glyph d="M1100 1300h-151q-46 0-89.5-19.5t-69.5-50.5l-90 270h-287l-239-700h169l74 200h283v-400h-500q-82 0-141 59t-59 141v700q0 82 59 141t141 59h700q82 0 141-59t59-141v-200zM651 1100h-202l100 293zM1000 1200h700q82 0 141-59t59-141v-700q0-82-59-141t-141-59h-700q-82 0-141 59t-59 141v700q0 82 59 141t141 59zM1725 700v108h-317v217h-116v-217h-317v-108h128q9-66 42-136t86-126q-64-26-131.5-44t-99.5-18l5-26q5-26 10.5-62t4.5-58q62 0 154 32.5t174 82.5q83-50 177-82.5t157-32.5q-1 14 1 33.5t5 38.5 6 35.5 6 27.5l2 11q-33 0-103 18.5t-135 44.5q51 56 83.5 126t41.5 135h136zM1344 507q-76 70-101 193h209q-26-124-100-193l-4-3q-3 2-4 3z" unicode="&#xf326;"/><glyph d="M1480 1812l334-335q41-44 40.5-104t-37.5-98l-986-988-686-143 143 688q937 940 985 989 35 37 100 35t107-44zM1143 1468l-688-691 137-137 682 697zM777 454l688 691-132 132-689-689z" unicode="&#xf327;"/><glyph d="M700 1480q83 0 141.5-58.5t58.5-141.5q0-52-28-100-72 20-172 20-44 0-87-5t-64-10l-21-5q-28 48-28 100 0 83 58.5 141.5t141.5 58.5zM1300 1480q83 0 141.5-58.5t58.5-141.5q0-52-28-100-72 20-172 20-44 0-87-5t-64-10l-21-5q-28 48-28 100 0 83 58.5 141.5t141.5 58.5zM1000 110q279 0 506 162t317 426l-132 46q-76-222-266.5-358t-424.5-136-424.5 136-266.5 358l-132-46q90-264 317-426t506-162z" unicode="&#xf328;"/><glyph d="M1500 1300v200h-1000v-200h1000zM1500 900v200h-1000v-200h1000zM1500 500v200h-1000v-200h1000z" unicode="&#xf329;"/><glyph d="M1600 1700h200v-1600h-1300q-124 0-212 88t-88 212v1200q0 124 88 212t212 88h900v-1400h-900q-41 0-70.5-29.5t-29.5-70.5 29.5-70.5 70.5-29.5h1100v1400z" unicode="&#xf330;"/><glyph d="M500 300h1300v-200h-1300q-124 0-212 88t-88 212v1200q0 124 88 212t212 88h1300v-1400h-1300q-41 0-70.5-29.5t-29.5-70.5 29.5-70.5 70.5-29.5zM700 650v1100q0 21-14.5 35.5t-35.5 14.5-35.5-14.5-14.5-35.5v-1100q0-21 14.5-35.5t35.5-14.5 35.5 14.5 14.5 35.5z" unicode="&#xf331;"/><glyph d="M1000 1800q12-8 34.5-21.5t96-48 150.5-61 192-48 227-21.5q0-224-38.5-423t-100.5-336.5-136.5-252.5-149-184.5-136.5-117.5-101-67l-38-19q-9 4-24.5 11.5t-63.5 38.5-94 68.5-109 103.5-117.5 141.5-109.5 185-94 231-63.5 282.5-24.5 338q112 0 225.5 20.5t195 50 147 59 98.5 50.5zM1000 1000h500q4 4 11 13t24 48 30 90 24 144 11 205q-20 4-54.5 11.5t-126 30-167 45-150 54-102.5 59.5v-700h-500q28-112 90-225.5t130-195 132-147 106-98.5l42-34v700z" unicode="&#xf332;"/><glyph d="M1700 1300v200h-1400v-200h1400zM1700 900v200h-1400v-200h1400zM1700 500v200h-1400v-200h1400z" unicode="&#xf333;"/><glyph d="M1000 1800q12-8 34.5-21.5t96-48 150.5-61 192-48 227-21.5q0-224-38.5-423t-100.5-336.5-136.5-252.5-149-184.5-136.5-117.5-101-67l-38-19q-9 4-24.5 11.5t-63.5 38.5-94 68.5-109 103.5-117.5 141.5-109.5 185-94 231-63.5 282.5-24.5 338q112 0 225.5 20.5t195 50 147 59 98.5 50.5z" unicode="&#xf334;"/><glyph d="M1495 1354l-354-354 354-354-141-141-354 353-353-353-142 142 353 353-353 353 142 142 353-353 354 353z" unicode="&#xf335;"/><glyph d="M1800 400h-1600v1200h1600v-1200zM705 1147q19 11 33 24 14 16 24 34 13 26 17 37 5 13 10 34l6 24q0 2 .5 5t.5 4q7 45-4 90-12 43-46 72-35 29-86 29-29 0-56-11-26-12-41-30-17-20-27-44t-12-51q-1-18 1-55l2-9q2-11 6-25 9-30 10-33 6-18 17-37 13-20 25-33 15-17 34-25 19-9 43-9t43 9zM1700 1100v400h-500v-400h500zM662 1017l-138 88q-61 0-114-32-53-33-81-85-29-52-29-107v-125l20-5q26-8 55-14 41-10 80-17 34-7 100-14 55-6 107-6 50 0 107 6 48 5 98 14 54 10 82 17 16 3 34 8t20 5q13 4 21 6v125q0 55-31 107-32 53-84 86-53 33-111 33zM1700 900v100h-500v-100h500zM1700 700v100h-500v-100h500zM1700 500v100h-1400v-100h1400z" unicode="&#xf336;"/><glyph d="M1800 200h-1600v1600h1600v-1600zM805 1247q19 11 33 24 14 16 24 34 13 26 17 37 5 13 10 34l6 24q0 2 .5 5t.5 4q7 45-4 90-12 43-46 72-35 29-86 29-29 0-56-11-26-12-41-30-17-20-27-44t-12-51q-1-18 1-55l2-9q2-11 6-25 9-30 10-33 6-18 17-37 13-20 25-33 15-17 34-25 19-9 43-9t43 9zM1600 1500v100h-500v-100h500zM1600 1300v100h-500v-100h500zM762 1117l-138 88q-61 0-114-32-53-33-81-85-29-52-29-107v-125l20-5q26-8 55-14 41-10 80-17 34-7 100-14 56-6 107-6 50 0 107 6 48 5 98 14 54 10 82 17 16 3 34 8t20 5q13 4 21 6v125q0 55-31 107-32 53-84 86-53 33-111 33zM1600 1100v100h-300v-100h300zM1600 900v100h-300v-100h300zM1600 600v100h-1200v-100h1200zM1600 400v100h-1200v-100h1200z" unicode="&#xf337;"/><glyph d="M730 1400l-3 19q-6 55-3 108 3 56 25 104 22 50 52 86 33 39 83 60 52 23 113 23 103 0 171-59 69-60 91-144 22-85 9-178l-3-19q-1-10-11-48-7-33-20-69-13-34-34-72-18-35-47-69-25-26-67-48-39-19-86-19-46 0-87 19-42 21-67 50-25 28-49 66-22 36-34 73-14 39-21 67-9 33-12 50zM1650 776q50-85 50-214v-249q0-4-29-13-7-2-37-10.5t-60-16.5q-110-24-165-34-85-15-195-27-112-12-213-12t-214 12q-90 8-198 27-44 8-156 34-43 10-106 29l-27 11v249q0 134 46 215 65 115 150 168 47 29 136 42t168 13l167-167-67-133v-300l102-108 98 108v300l-68 133 165 167q209 0 290-52 96-61 163-172z" unicode="&#xf338;"/><glyph d="M1000 1900q153 0 282.5-75.5t205-204.5 75.5-282q0-52-21-118t-50.5-123.5-59.5-107.5-51-79l-21-30q-25-33-42.5-86t-17.5-94v-100q0-41-29.5-70.5t-70.5-29.5h-400q-41 0-70.5 29.5t-29.5 70.5v100q0 41-17.5 94t-42.5 86q-8 11-21.5 30.5t-48.5 77-61.5 110.5-48.5 120.5-22 119.5q0 153 75 282t204.5 204.5 282.5 75.5zM700 313v87h600v-87q0-53-16-83t-59-30h-25q0-46-27.5-73t-74.5-27h-200q-46 0-72 26.5t-26 73.5h-25q-43 0-59 30t-16 83z" unicode="&#xf339;"/><glyph d="M1800 1100v-200h-1200l400-400-100-200-700 700 700 700 100-200-400-400h1200z" unicode="&#xf340;"/><glyph d="M1400 1500l-500-500 500-500-100-200-700 700 700 700z" unicode="&#xf341;"/><glyph d="M1100 200h-200v1200l-400-400-200 100 700 700 700-700-200-100-400 400v-1200z" unicode="&#xf342;"/><glyph d="M1500 600l-500 500-500-500-200 100 700 700 700-700z" unicode="&#xf343;"/><glyph d="M200 900v200h1200l-400 400 100 200 700-700-700-700-100 200 400 400h-1200z" unicode="&#xf344;"/><glyph d="M600 500l500 500-500 500 100 200 700-700-700-700z" unicode="&#xf345;"/><glyph d="M900 1800h200v-1200l400 400 200-100-700-700-700 700 200 100 400-400v1200z" unicode="&#xf346;"/><glyph d="M500 1400l500-500 500 500 200-100-700-700-700 700z" unicode="&#xf347;"/><glyph d="M1000 1800q163 0 311-63.5t255-170.5 170.5-255 63.5-311-63.5-311-170.5-255-255-170.5-311-63.5-311 63.5-255 170.5-170.5 255-63.5 311 63.5 311 170.5 255 255 170.5 311 63.5zM1100 1400q0 41-29.5 70.5t-70.5 29.5-70.5-29.5-29.5-70.5 29.5-70.5 70.5-29.5 70.5 29.5 29.5 70.5zM1100 500v600h-200v-600h200z" unicode="&#xf348;"/><glyph d="M2000 1500v300h-2000v-300h2000zM2000 900v300h-2000v-300h2000zM2000 300v300h-2000v-300h2000z" unicode="&#xf349;"/><glyph d="M1000 2000q163 0 315.5-50.5t275.5-143 215.5-215.5 143-275.5 50.5-315.5-50.5-315.5-143-275.5-215.5-215.5-275.5-143-315.5-50.5-315.5 50.5-275.5 143-215.5 215.5-143 275.5-50.5 315.5 50.5 315.5 143 275.5 215.5 215.5 275.5 143 315.5 50.5zM1000 1950q-193 0-369-75t-303.5-202.5-202.5-303.5-75-369 75-369 202.5-303.5 303.5-202.5 369-75 369 75 303.5 202.5 202.5 303.5 75 369-75 369-202.5 303.5-303.5 202.5-369 75zM1000 1850q173 0 330.5-67t271.5-181 181-271.5 67-330.5-67-330.5-181-271.5-271.5-181-330.5-67-330.5 67-271.5 181-181 271.5-67 330.5 67 330.5 181 271.5 271.5 181 330.5 67zM1180 1679q-83 0-155-45 118-28 195.5-124t77.5-221q0-100-55-187 99 22 164 101.5t65 183.5q0 121-85.5 206.5t-206.5 85.5zM942 1579q-121 0-206.5-86t-85.5-207 85.5-206.5 206.5-85.5 207 85.5 86 206.5q0 122-85.5 207.5t-207.5 85.5zM1367 1078l-51-59q66-19 115-63.5t72.5-94 38-96 16.5-77.5l3-30h128q0 76-11 138.5t-29.5 104.5-43 75-51 51-53 30.5-51 16.5-43 5.5-29.5.5zM1157 998l-212-209-212 209q-68-4-123-23t-90.5-48.5-62.5-67-41-78-22-81-9.5-76.5-.5-63.5 3-44.5l2-16h1108q10 102-4 184t-43 132.5-67 88-77.5 54.5-73 27-54.5 11z" unicode="&#xf448;"/><glyph d="M1350 1300h-700q-62 0-106 44t-44 106 44 106 106 44h159q-9 29-9 50 0 62 44 106t106 44h100q62 0 106-44t44-106q0-21-9-50h159q62 0 106-44t44-106-44-106-106-44zM400 1200h1200q41 0 70.5-29.5t29.5-70.5-29.5-70.5-70.5-29.5h-1200q-41 0-70.5 29.5t-29.5 70.5 29.5 70.5 70.5 29.5zM500 900h1000q41 0 70.5-29.5t29.5-70.5-29.5-70.5-70.5-29.5h-1000q-41 0-70.5 29.5t-29.5 70.5 29.5 70.5 70.5 29.5zM700 600h600q41 0 70.5-29.5t29.5-70.5-29.5-70.5-70.5-29.5h-109q9-29 9-50 0-62-44-106t-106-44h-100q-62 0-106 44t-44 106q0 21 9 50h-109q-41 0-70.5 29.5t-29.5 70.5 29.5 70.5 70.5 29.5z" unicode="&#xf449;"/><glyph d="M1044 1834q-44 44-106 44t-106-44l-566-566q-44-44-44-106t44-106q46-44 107.5-43.5t104.5 43.5l566 566q44 44 44 106t-44 106zM1327 1551q-44 44-106.5 44t-105.5-44l-566-566q-44-43-44-105.5t44-106.5q46-44 107.5-43t104.5 43l566 566q43 43 43 105.5t-43 106.5zM1433 879l418-418q44-44 44-106t-44-106-106.5-44-105.5 44l-418 418-177-177q-44-44-106-44t-106 44-44 106.5 44 106.5l566 565q44 44 106 44t106-44 44-106-44-106zM500 500q0 45-17 102.5t-41.5 107.5-49 94-41.5 70l-17 26q-15-31-37-80.5t-59.5-157.5-37.5-162q0-90 38.5-145t95.5-55h32q62 0 98 44.5t36 155.5z" unicode="&#xf450;"/><glyph d="M1754 971q88-88 88-212.5t-88-212.5-212.5-88-212.5 88l-34 52q0-66-9.5-124t-22.5-99.5-36.5-79.5-42.5-60.5-49.5-47-48-35.5-47.5-28.5-39-23.5q-11 8-49.5 32t-64.5 42-63.5 58.5-60.5 85.5-40 118.5-17 161.5l-34-52q-88-88-212.5-88t-212.5 88-88 212.5 88 212.5q102 67 210 130-136 184-136 411 0 47 8 100 18-131 84-245.5t168-196.5q53 28 126.5 57t110.5 35h-17q-82 0-141 59t-59 141 59 141 141 59v50q0 21 14.5 35.5t35.5 14.5 35.5-14.5 14.5-35.5v-50h200v50q0 21 14.5 35.5t35.5 14.5 35.5-14.5 14.5-35.5v-50q82 0 141-59t59-141-59-141-141-59h-17q36-6 112.5-36.5t125.5-55.5q102 82 168 196.5t84 245.5q8-53 8-100 0-227-136-411 48-28 100-60.5t81-50.5zM850 1362q38 0 69 30t31 70q0 41-29.5 70.5t-70.5 29.5-70.5-29.5-29.5-70.5 29.5-70.5 70.5-29.5zM1150 1562q-41 0-70.5-29.5t-29.5-70.5 29.5-70.5 70.5-29.5 70.5 29.5 29.5 70.5-29.5 70.5-70.5 29.5zM920 989q-19-17-19-43 2-19 16-32.5t33-13.5h100q19 0 33 13.5t16 32.5q0 21-19 43-15 11-30 11h-100q-15 0-30-11zM1200 750q0 23-19 38-15 12-31 12h-300q-16 0-31-12-19-17-19-38t14.5-35.5 35.5-14.5h300q21 0 35.5 14.5t14.5 35.5zM850 500h300q21 0 35.5 14.5t14.5 35.5-14.5 35.5-35.5 14.5h-300q-21 0-35.5-14.5t-14.5-35.5 14.5-35.5 35.5-14.5zM950 300h100q21 0 35.5 14.5t14.5 35.5-14.5 35.5-35.5 14.5h-100q-21 0-35.5-14.5t-14.5-35.5 14.5-35.5 35.5-14.5z" unicode="&#xf451;"/><glyph d="M800 1900v-700h200v200q0 115 92 207.5t208 92.5v-86q91 86 200 86v-300h100q82 0 141-59t59-141-59-141-141-59h-100v-100-1-499q0-41-29.5-70.5t-70.5-29.5-70.5 29.5-29.5 70.5v218q-51-18-100-18v-200q0-41-29.5-70.5t-70.5-29.5-70.5 29.5-29.5 70.5v200h-200v-200q0-41-29.5-70.5t-70.5-29.5-70.5 29.5-29.5 70.5v200q-49 0-100 18v-218q0-41-29.5-70.5t-70.5-29.5-70.5 29.5-29.5 70.5v400h-100v100q0 124 88 212t212 88h200v700h100zM1300 1200q41 0 70.5 29.5t29.5 70.5-29.5 70.5-70.5 29.5-70.5-29.5-29.5-70.5 29.5-70.5 70.5-29.5z" unicode="&#xf452;"/><glyph d="M900 1700q0 92-100 200-40-40-70-98t-30-102q0-37 30-68.5t70-31.5q41 0 70.5 30t29.5 70zM1300 1700q0 92-100 200-40-40-70-98t-30-102q0-37 30-68.5t70-31.5q41 0 70.5 30t29.5 70zM900 1100v350q0 41-29.5 70.5t-70.5 29.5q-42 0-71-30.5t-29-69.5v-350q0-41 29.5-70.5t70.5-29.5q42 0 71 30.5t29 69.5zM1300 1100v350q0 41-29.5 70.5t-70.5 29.5q-42 0-71-30.5t-29-69.5v-350q0-41 29.5-70.5t70.5-29.5q42 0 71 30.5t29 69.5zM1700 1000q0 109-95 201t-255 145v-246q0-62-44-106t-106-44-106 44-44 106v299q-8 0-25 .5t-25 .5-25-.5-25-.5v-299q0-62-44-106t-106-44-106 44-44 106v246q-160-53-255-145t-95-201q0-110 78.5-197.5t242.5-139.5q32-10 108.5-42t142.5-51 128-19 128 19 142.5 51.5 108.5 42.5q163 51 242 138.5t79 197.5zM1000 457q63 0 131.5 19.5t144 50.5 112.5 41q68 19 118.5 43.5t86.5 57.5 57 59.5 50 71.5v-300q0-109-93.5-201t-255-145.5-351.5-53.5-351.5 53.5-255 145.5-93.5 201v300q37-58 70-94.5t95.5-75 149.5-63.5q35-10 111.5-41t143.5-50 130-19z" unicode="&#xf453;"/><glyph d="M875 1423q0 39-18 92t-43.5 101-51.5 90.5-44 67.5l-18 26q-7-10-19-27t-42-65.5-53-93-42-98.5-19-93q0-98 43-135.5t132-37.5 132 37.5 43 135.5zM1475 1423q0 39-18 92t-43.5 101-51.5 90.5-44 67.5l-18 26q-7-10-19-27t-42-65.5-53-93-42-98.5-19-93q0-98 43-135.5t132-37.5 132 37.5 43 135.5zM900 300v800q0 41-29.5 70.5t-70.5 29.5h-200q-41 0-70.5-29.5t-29.5-70.5v-800q0-41 29.5-70.5t70.5-29.5h200q41 0 70.5 29.5t29.5 70.5zM1500 300v800q0 41-29.5 70.5t-70.5 29.5h-200q-41 0-70.5-29.5t-29.5-70.5v-800q0-41 29.5-70.5t70.5-29.5h200q41 0 70.5 29.5t29.5 70.5zM600 900l200 100v-200l-200-100v200zM1200 900l200 100v-200l-200-100v200zM600 600l200 100v-200l-200-100v200zM1200 600l200 100v-200l-200-100v200z" unicode="&#xf454;"/><glyph d="M1098 1322l452-822q-48-96-142-166t-199-102-209-32-209 32-199 102-142 166l450 818q-57 93-168 146t-261 57l246 292q199-141 297-331 51 80 109.5 131t160.5 81l183-286q-192 46-369-86zM817 960l-93-169q71-16 154-16 199 0 355 95l-101 182q-136-83-315-92zM903 422q147 0 272 50t202 136l-98 176q-77-86-202-136.5t-272-50.5q-87 0-176 21l-63-115q152-81 337-81z" unicode="&#xf455;"/><glyph d="M1545 1375q89-46 127.5-130t22.5-181-80-187q-59-83-159.5-134.5t-186.5-43.5l-264-499h-105l-265 499q-85-12-189.5 40t-165.5 139q-64 90-80 187t23 181 128 129q68 34 143 31-2-62 7-121 20-129 99.5-252t186.5-185q-30-86-88-125l201-381v566q-102 28-191.5 144t-108.5 248q-20 132 16 246t124 184 210 70 210-70 124-184 16-246q-19-132-108.5-248t-191.5-144v-577l207 384q-63 33-99 130 109 61 190 185.5t101 254.5q9 59 7 122 73 2 139-32z" unicode="&#xf456;"/><glyph d="M1000 1800q84 0 197.5-51.5t215-125 191-147 142.5-124.5l54-52v-1100h-1600v1100q20 20 55.5 54t138 120 196.5 152 210 120 200 54zM1700 328l-373 292 373 280-43 37-226-130 24 431-877 52-46-454-199 95-33-31 373-280-344-285 40-43 631 408 653-415z" unicode="&#xf457;"/><glyph d="M1000 1900l-300-600-600-75 413-462-113-663 600 300 600-300-112 663 412 462-600 75zM1000 1676l234-469 465-58-318-356 87-515-468 234v1164z" unicode="&#xf459;"/><glyph d="M400 1100h1200v-200h-1200v200z" unicode="&#xf460;"/><glyph d="M673 1000h540q9-52 9-95 0-247-151.5-403.5t-397.5-156.5q-156 0-288 77t-208.5 209-76.5 287q0 117 45.5 223t122 182.5 182.5 122 223 45.5q223 0 383-150l-155-150q-93 89-228 89-147 0-251-106t-104-256q0-149 104-255t251-106q80 0 143.5 26t99.5 66.5 55.5 79.5 25.5 75h-324v196zM1900 1000v-164h-164v-163h-163v163h-164v164h164v164h163v-164h164z" unicode="&#xf462;"/><glyph d="M1020 1672q173 0 323.5-79t247.5-216 121-305h208l-350-400-350 400h232q-34 149-154.5 247t-277.5 98q-106 0-199-48t-155-130l-171 195q98 112 234.5 175t290.5 63zM980 328q-130 0-249.5 46.5t-210.5 126.5-152.5 190.5-79.5 236.5h-208l350 400q59-67 175.5-200t174.5-200h-232q34-149 154.5-247t277.5-98q106 0 199 48t155 130l171-195q-98-112-234-175t-291-63z" unicode="&#xf463;"/><glyph d="M1389 1661l271-272q34-35 33.5-84t-30.5-80l-801-802-556-116 116 558q760 763 799 803 29 30 81.5 28.5t86.5-35.5zM1116 1382l-559-561 111-111 554 565zM819 559l558 560-107 108-559-560z" unicode="&#xf464;"/><glyph d="M387 1600h1325q188 0 188-179v-842q0-179-188-179h-1325q-188 0-188 179v842q0 179 188 179zM1049 740l674 553q21 17 27 45.5t-14 61.5q-21 30-56.5 33.5t-60.5-16.5l-570-386-569 386q-25 20-60.5 16.5t-56.5-33.5q-20-33-14-61.5t27-45.5z" unicode="&#xf465;"/><glyph d="M1900 550v900q0 62-44 106t-106 44h-1401q-62 0-106-44t-44-106v-900q0-62 44-106t106-44h1401q62 0 106 44t44 106zM1769 1461q15-15 17.5-32.5t-4-29.5-16.5-22l-406-372 390-406q26-30 6-51-9-11-28-12t-28 7l-437 373-214-195-213 195-437-373q-9-8-28-7t-28 12q-20 21 6 51l390 406-406 372q-10 10-16.5 22t-4 29.5 17.5 32.5q40 40 95-7l624-504 625 504q55 47 95 7z" unicode="&#xf466;"/><glyph d="M1801 882v867q0 89-59 129.5t-141 7.5l-1201-477q-83-33-141.5-120t-58.5-177v-866q0-90 58.5-130t141.5-7l1201 477q83 33 141.5 119.5t58.5 176.5zM1658 1628l-604-933-665 460q-7 5-13 12.5t-10.5 22 6.5 29.5q9 16 25.5 21.5t28.5 2.5l11-3 630-232q483 634 511 670 12 15 30 20.5t43-7.5q33-23 7-63z" unicode="&#xf467;"/><glyph d="M1800 1000q0 163-63.5 311t-170.5 255-255 170.5-311 63.5-311-63.5-255-170.5-170.5-255-63.5-311 63.5-311 170.5-255 255-170.5 311-63.5 311 63.5 255 170.5 170.5 255 63.5 311zM723 1643l149-373q-97-45-142-142l-373 149q53 123 148 218t218 148zM1643 1277l-373-149q-45 97-142 142l149 373q123-53 218-148t148-218zM1000 800q-82 0-141 59t-59 141 59 141 141 59 141-59 59-141-59-141-141-59zM357 723l373 149q45-97 142-142l-149-373q-123 53-218 148t-148 218zM1277 357l-149 373q97 45 142 142l373-149q-53-123-148-218t-218-148z" unicode="&#xf468;"/><glyph d="M1000 1800q163 0 311-63.5t255-170.5 170.5-255 63.5-311-63.5-311-170.5-255-255-170.5-311-63.5-311 63.5-255 170.5-170.5 255-63.5 311 63.5 311 170.5 255 255 170.5 311 63.5zM1000 400q163 0 301 80.5t218.5 218.5 80.5 301-80.5 301-218.5 218.5-301 80.5-301-80.5-218.5-218.5-80.5-301 80.5-301 218.5-218.5 301-80.5zM929 929q14-10 23-15l-2-2 450-212-303 319-97 481-97-481h1q0-1-2-9t-2-10q0-42 29-71z" unicode="&#xf469;"/><glyph d="M600 1800h800q41 0 70.5-29.5t29.5-70.5v-1400q0-41-29.5-70.5t-70.5-29.5h-800q-41 0-70.5 29.5t-29.5 70.5v1400q0 41 29.5 70.5t70.5 29.5zM1300 600v1000h-600v-1000h600zM800 1500h400l-400-500v500z" unicode="&#xf470;"/><glyph d="M400 1800h1200q41 0 70.5-29.5t29.5-70.5v-1400q0-41-29.5-70.5t-70.5-29.5h-1200q-41 0-70.5 29.5t-29.5 70.5v1400q0 41 29.5 70.5t70.5 29.5zM1500 400v1200h-1000v-1200h1000zM600 1500h600l-600-500v500z" unicode="&#xf471;"/><glyph d="M300 1800h1400q41 0 70.5-29.5t29.5-70.5v-1000q0-41-29.5-70.5t-70.5-29.5h-500v-200h200q41 0 70.5-29.5t29.5-70.5v-100h-1000v100q0 41 29.5 70.5t70.5 29.5h200v200h-500q-41 0-70.5 29.5t-29.5 70.5v1000q0 41 29.5 70.5t70.5 29.5zM1600 900v700h-1200v-700h1200zM500 1500h900l-900-400v400z" unicode="&#xf472;"/><glyph d="M400 1700h1200q82 0 141-59t59-141v-700q0-82-59-141t-141-59h-100l-500-500v500h-600q-82 0-141 59t-59 141v700q0 82 59 141t141 59zM1500 1500h-1100v-100h1100v100zM1600 1200h-1200v-100h1200v100zM1300 900h-900v-100h900v100z" unicode="&#xf473;"/><glyph d="M1600 1600h200v-900h-1100v-300l-500 400 500 400v-300h900v700z" unicode="&#xf474;"/><glyph d="M900 1400l-400-400 400-400-100-200-600 600 600 600zM1100 600l400 400-400 400 100 200 600-600-600-600z" unicode="&#xf475;"/><glyph d="M1500 1800h-746q-124 0-228-60-105-62-165-165-61-103-61-227t61-227q60-104 165-164 103-61 228-61h43v-596q0-40 29-71 31-29 71-29t71 29q30 30 30 71v1200q0 42 29 71 31 29 71 29t71-29q29-31 29-71v-1200q0-41 30-71 31-29 71-29t71 29q29 31 29 71v1300h101q40 0 70 30 30 28 30 70 0 41-30 71-31 29-70 29z" unicode="&#xf476;"/><glyph d="M1000 1800q162 0 310.5-63.5t255.5-170.5 170.5-255.5 63.5-310.5-63.5-310.5-170.5-255.5-255.5-170.5-310.5-63.5-310.5 63.5-255.5 170.5-170.5 255.5-63.5 310.5 63.5 310.5 170.5 255.5 255.5 170.5 310.5 63.5zM1000 250q153 0 291.5 59.5t239 160 160 239 59.5 291.5-59.5 291.5-160 239-239 160-291.5 59.5-291.5-59.5-239-160-160-239-59.5-291.5q0-223 122-410 41-61 95-117 104-105 242-164t291-59zM1000 1674q137 0 262-53.5t215-143.5 143.5-215 53.5-262-53.5-262-143.5-215-215-143.5-262-53.5q-206 0-374 113 78 4 151 42t126 99q20-58 80-100t151-42q130 0 240.5 88t136.5 212q29 127-28 213t-182 86q-45 0-96-21t-90-52l104 479q2 14-3.5 21.5t-18.5 3.5q-56-15-227-32-18-2-24.5-17t2-29 26.5-13q22 1 34.5-1t20.5-10.5 10-20-1-34.5-8.5-50-14.5-70q-1-3-1-4l-54-243q-57 93-186 93-46 0-96.5-21t-89.5-52q100 461 103 479 3 13-2.5 21t-18.5 4q-42-11-179-26 94 109 226.5 170.5t282.5 61.5zM441 1377h6q26 1 39.5-3t20.5-15.5 5.5-32.5-8-54.5-17.5-81.5q-1-2-1-3l-101-463q-59 130-59 276 0 207 115 377zM853 738q-23-104-82.5-172t-143.5-68q-55 0-89 41t-17 116l34 167q15 64 69.5 107t114.5 43q82 0 109.5-65t4.5-169zM1380 738q-22-104-82-172t-144-68q-55 0-89 41t-17 116l35 167q15 64 69 107t114 43q82 0 109.5-65t4.5-169z" unicode="&#xf477;"/><glyph d="M1800 1700v-200h-1600v200h1600zM1200 1300v-200h-1000v200h1000zM1800 1300v-200h-400v200h400zM800 900v-200h-600v200h600zM1800 900v-200h-800v200h800zM1400 500v-200h-1200v200h1200z" unicode="&#xf478;"/><glyph d="M1100 1700v-400h-1000v400h1000zM1900 1700v-400h-700v400h700zM700 1200v-300h-600v300h600zM1900 1200v-300h-1100v300h1100zM900 800v-200h-800v200h800zM1900 800v-200h-900v200h900zM600 500v-100h-500v100h500zM1100 500v-100h-400v100h400zM1400 500v-100h-200v100h200zM1900 500v-100h-400v100h400z" unicode="&#xf479;"/><glyph d="M1900 1600v-200h-1800v200h1800zM200 1300h1600v-1000h-1600v1000zM1300 1000v100h-600v-100h600z" unicode="&#xf480;"/><glyph d="M1190 1961l140-140q50-6 123.5 1.5t127 15 113-4 97.5-49.5 49.5-97.5 4-113-15-127-1.5-123.5l140-140q29-29 29-70.5t-29-70.5l-919-920q-30-29-71.5-29t-70.5 29l-778 778q-29 29-29 70.5t29 71.5l920 919q29 29 70.5 29t70.5-29zM1248 1736l-58-58 495-495 58 58q-24 75-15 182 3 47 9 92 11 73 9 123.5t-26 74.5-74.5 26-123.5-9q-45-6-92-9-107-9-182 15zM1650 1643q29-29 29-71t-29-71-71-29-71 29-29 71 29 71 71 29 71-29zM978 1607l-71-70 637-637 70 71zM836 1466l-70-71 636-636 71 70zM695 1324l-71-70 637-637 70 71zM554 1183l-71-71 636-636 71 71zM412 1042l-71-71 637-637 71 71z" unicode="&#xf481;"/><glyph d="M1200 1100v600q0 83-58.5 141.5t-141.5 58.5-141.5-59.5-58.5-140.5v-600q0-82 59-141t141-59q84 0 142 59.5t58 140.5zM1600 1100q0-221-142.5-388t-357.5-203v-209h200q42 0 71-29.5t29-70.5-29-70.5-71-29.5h-600q-41 0-70.5 29.5t-29.5 70.5 29.5 70.5 70.5 29.5h200v209q-214 36-357 203t-143 388q0 41 29.5 70.5t70.5 29.5q42 0 71-29.5t29-70.5q0-166 117.5-283t282.5-117q166 0 283 117t117 283q0 41 29.5 70.5t70.5 29.5q42 0 71-29.5t29-70.5z" unicode="&#xf482;"/><glyph d="M1000 1740q62 0 106-44t44-106-44-106.5-106-44.5-106 44.5-44 106.5 44 106 106 44zM340 1264q0 29 165 48t330 24l165 4q660-11 660-76 0-29-112-64t-224-56l-111-20 59-306q91-515 47-532-17-7-56.5 44t-83 128.5-84.5 156-68 134.5l-27 56-96-193q-177-342-222-326-17 14-13 96.5t23 209 40.5 244.5 38.5 203l17 85q-448 75-448 140z" unicode="&#xf483;"/><glyph d="M1200 1500v300q0 41-29.5 70.5t-70.5 29.5h-200q-41 0-70.5-29.5t-29.5-70.5v-300q0-41 29.5-70.5t70.5-29.5h200q41 0 70.5 29.5t29.5 70.5zM1000 1800q41 0 70.5-29.5t29.5-70.5-29.5-70.5-70.5-29.5-70.5 29.5-29.5 70.5 29.5 70.5 70.5 29.5zM1800 500v800q0 82-59 141t-141 59h-300v-33q0-69-49-118t-118-49h-266q-69 0-118 49t-49 118v33h-300q-82 0-141-59t-59-141v-800q0-82 59-141t141-59h1200q82 0 141 59t59 141zM1700 1100v-600h-1400v600h1400zM900 900q0 41-14.5 70.5t-35.5 29.5-35.5-29.5-14.5-70.5 14.5-70.5 35.5-29.5 35.5 29.5 14.5 70.5zM1200 900q0 41-14.5 70.5t-35.5 29.5-35.5-29.5-14.5-70.5 14.5-70.5 35.5-29.5 35.5 29.5 14.5 70.5zM604 779q151-79 396-79t396 79q-16-76-129-127.5t-267-51.5-267 51.5-129 127.5z" unicode="&#xf484;"/><glyph d="M19 1408q-22-18 79-142t212-240l112-115 79 79t184.5 185.5 249.5 256.5 232.5 247 179 206 45.5 89q-30 17-274-166.5t-474-375.5l-229-191q-4 3-11.5 7t-32.5 18.5-47.5 26.5-57 30.5-61.5 31-61 27.5-55 21-43.5 10-26.5-5zM1542 1310l-315-315-181 182 315 315q25 25 69.5 16t81.5-47q38-37 47-81.5t-17-69.5zM765 1138l88 109 876-875-116-81q-49-49-163-81t-208-32h-377l-121-121q-43-43-103-43t-103 43-43 103 43 104l121 120v376q0 94 29.5 212.5t76.5 165.5zM1470 752l315 315q25 26 69.5 17t81.5-47q38-37 47-81t-17-69l-315-316z" unicode="&#xf485;"/><glyph d="M2000 1462l-101-282v1q-78 28-153-8t-104-114q-28-78 7.5-153t114.5-103v-1l-101-282-1506 538 99 279q78-28 153 7.5t103 113.5-7.5 152.5-113.5 102.5l102 287zM1455 1125q34 108 16.5 208.5t-87 183.5-171.5 120q-156 55-305.5-16t-205.5-226q-34-108-16.5-209t87-184 171.5-119q155-55 305 16t206 226zM1199 1599q133-48 197-171l-4 2q-24 9-46.5-3.5t-31.5-36.5q-10-28 5-91 9-62-6-104-9-27-65-100l-74-101 8 408 40-11q14-3 18 11t-10 18q-57 15-92 28l-88 36q-7 3-12 0t-7.5-7.5-.5-10.5 8-9q16-8 34-16l1-163-153-196 8 411 40-11q14-3 17.5 11t-10.5 18q-56 15-91 28-3 1-22 8 71 54 159 68t178-16zM740 1381q25 73 78 127l4-500q-72 72-94.5 171.5t12.5 201.5zM1144 906l210 263q49 55 69 112 4 10 11 35 14-90-17-177-33-92-106.5-153.5t-166.5-79.5zM1074 1228l2-322q0-4 1-6-60 0-120 21-49 18-90 48zM1198 620l210-75q18-64 71-104.5t120-40.5h1v-300h-1600v296q83 0 141.5 58.5t58.5 141.5q0 82-59 141t-141 59v304h105l-28-80 428-152q-105-115-105-268 0-166 117-283t283-117 283 117 117 283q0 4-1 10t-1 10zM545 853l148-53q-11-3-10.5-15t13.5-13q18-2 37-3l56-154-78-236-131 390 41 3q9 1 12 8.5t-1 14.5-13 7q-59-5-96-5-15 0-23 1 19 29 45 55zM440 600q0 76 32 146l171-470q-92 45-147.5 132t-55.5 192zM859 741l172-62q12-29 12-61 0-28-28-116l-35-120zM1160 600q0-98-48.5-181t-130.5-130l110 318q7 20 14 46l52-19q3-17 3-34zM698 255l108 314 111-303q0-1 .5-2.5t1.5-2.5q-60-21-119-21-47 0-102 15z" unicode="&#xf486;"/><glyph d="M1000 288q240 101 420.5 265.5t283.5 355.5q97 183 106.5 349t-74.5 276q-144 181-373 174-99-3-194-42.5t-169-103.5q-74 64-169 103.5t-194 42.5q-229 7-373-174-84-110-74.5-276t108.5-349q101-191 281.5-355.5t420.5-265.5z" unicode="&#xf487;"/><glyph d="M1815 1406q66-233-2-448-31-96-91.5-160.5t-138.5-87.5q-16-6-40-6-6-2-18-2-6-2-22-2h-680l222-550q3-18-14-34-13-16-34-16h-302q-21 0-34 16-17 17-14 34l-100 550h-122l-2 2q-37-4-78 12.5t-76 49.5q-81 78-106 188-33 110-2 220 27 94 106 130l2 2 900 540q20 12 24 16 9 6 24 12 19 10 50 18 77 22 162-4.5t160-93.5q76-68 135.5-168t90.5-218zM1557 808h-2q58 14 104 70 86 104 86 304 0 92-28 198-50 199-178 324-58 56-123 80t-123 8q-122-33-170-200-48-156 6-372 59-212 180-324 126-119 248-88zM1303 1516q30 6 62-4 66-28 102-100 42-84 42-178 0-44-12-80-30-81-86-94-26-8-57.5 3.5t-56.5 36.5q-58 58-78 150-24 83 2 172 10 35 33 60.5t49 33.5z" unicode="&#xf488;"/><glyph d="M200 1800h1600v-400h-1600v400zM200 800v400h400v-400h-400zM800 1000v200h400v-200h-400zM1400 700v500h400v-500h-400zM800 200v600h400v-600h-400zM200 200v400h400v-400h-400zM1400 200v300h400v-300h-400z" unicode="&#xf489;"/><glyph d="M1200 1800l400-400v-1200h-1200v1600h800zM1200 1400h300l-300 300v-300zM1100 600v300q0 40-29 71-31 29-71 29h-300q-40 0-71-29-29-31-29-71v-300q0-40 29-71 31-29 71-29h300q40 0 71 29 29 31 29 71zM1400 500v500l-200-200v-100z" unicode="&#xf490;"/><glyph d="M1200 1800l400-400v-1200h-1200v1600h800zM500 1700v-100h600v100h-600zM1200 1400h300l-300 300v-300zM500 1500v-100h600v100h-600zM1500 1200v100h-1000v-100h1000zM1500 1000v100h-1000v-100h1000zM1500 800v100h-1000v-100h1000zM1100 600v100h-600v-100h600z" unicode="&#xf491;"/><glyph d="M1700 1700v200h-1500v-200h1500zM1700 1300v200h-1500v-200h1500zM1000 900v200h-800v-200h800zM1745 1096l-600-112q-18-2-29-13-16-13-16-37v-459q-31 14-93 14-81 0-138-57-56-56-56-138 0-81 56-137 57-57 138-57 73 0 129 48 56 49 65 119v495l499 111v-348q-42 19-83 19-92 0-149-57-57-56-57-137 0-80 57-137t138-57q80 0 137 57t57 137v690q0 25-16 41-16 18-39 15zM800 500v200h-600v-200h600zM600 100v200h-400v-200h400z" unicode="&#xf492;"/><glyph d="M1700 1700v200h-1500v-200h1500zM1700 1300v200h-1500v-200h1500zM600 900v200h-400v-200h400zM800 1100h900q41 0 70.5-29.5t29.5-70.5v-800q0-41-29.5-70.5t-70.5-29.5h-900q-41 0-70.5 29.5t-29.5 70.5v800q0 41 29.5 70.5t70.5 29.5zM1100 400l333 200-333 200v-400zM600 500v200h-400v-200h400zM600 100v200h-400v-200h400z" unicode="&#xf493;"/><glyph d="M900 1400l-400-400 400-400-100-200-600 600 600 600zM1100 600l400 400-400 400 100 200 600-600-600-600z" unicode="&#xf494;"/><glyph d="M1200 1800l400-400v-1200h-1200v1600h800zM1100 1400v300h-600v-300h600zM800 1200v100h-300v-100h300zM1100 1200v100h-200v-100h200zM1500 1200v100h-300v-100h300zM800 1000v100h-300v-100h300zM1100 1000v100h-200v-100h200zM1500 1000v100h-300v-100h300zM800 800v100h-300v-100h300zM1100 800v100h-200v-100h200zM1500 800v100h-300v-100h300zM800 600v100h-300v-100h300zM1100 600v100h-200v-100h200zM1500 600v100h-300v-100h300zM800 400v100h-300v-100h300zM1100 400v100h-200v-100h200z" unicode="&#xf495;"/><glyph d="M1200 1800l400-400v-1200h-1200v1600h800zM1200 1400h300l-300 300v-300zM1400 600v600h-800v-600h300l-100-200h100l100 200 100-200h100l-100 200h300zM800 900q-41 0-70.5 29.5t-29.5 70.5 29.5 70.5 70.5 29.5 70.5-29.5 29.5-70.5-29.5-70.5-70.5-29.5zM1300 1100v-200h-300v200h300zM1300 800v-100h-600v100h600z" unicode="&#xf496;"/><glyph d="M1200 1800l400-400v-1200h-1200v1600h800zM500 1700v-100h600v100h-600zM1200 1400h300l-300 300v-300zM500 1500v-100h600v100h-600zM1500 1200v100h-1000v-100h1000zM500 1100v-100h400v100h-400zM1500 800v300h-500v-300h500zM500 900v-100h400v100h-400zM1500 600v100h-1000v-100h1000zM1200 400v100h-700v-100h700z" unicode="&#xf497;"/><glyph d="M1200 1800l400-400v-1200h-1200v1600h800zM1200 1400h300l-300 300v-300z" unicode="&#xf498;"/><glyph d="M1200 1800l400-400v-1200h-1200v1600h800zM900 700l-200 200 200 200-100 100-300-300 300-300zM1200 600l300 300-300 300-100-100 200-200-200-200z" unicode="&#xf499;"/><glyph d="M1200 1800l400-400v-1200h-1200v1600h800zM1200 1400h300l-300 300v-300zM1300 674v517q0 17-12 29-10 12-27 10-397-71-425-78-36-7-36-52v-337q-16 7-60 7-57 0-96-39-40-42-40-96 0-55 40-95 39-40 96-40 65 0 96 26 64 57 64 112v332l300 60v-230q-87 26-144-31-39-39-39-95t39-96q40-39 108-39 57 0 96 39 40 42 40 96z" unicode="&#xf500;"/><glyph d="M1200 1800l400-400v-1200h-1200v1600h800zM1200 1400h300l-300 300v-300zM800 1650v-200l180 100zM1100 1500l-180-100 180-100v200zM800 1350v-200l180 100zM1100 1200l-180-100 180-100v200zM800 1050v-200l180 100zM1100 900l-180-100 180-100v200zM950 300q64 0 111.5 48.5t38.5 114.5q-2 17-14.5 57t-23.5 72l-11 32-199 110q-45-195-52-271-5-59 42-111t108-52zM950 539q32 0 54-22.5t22-53.5q0-32-22-54.5t-54-22.5-54 22.5-22 54.5q0 31 22 53.5t54 22.5z" unicode="&#xf501;"/><glyph d="M1580 1580q157-158 213-369t0-422-213-369q-158-157-369-213t-422 0-369 213q-157 158-213 369t0 422 213 369q158 157 369 213t422 0 369-213zM1150 450v400h400v300h-400v400h-300v-400h-400v-300h400v-400h300z" unicode="&#xf502;"/><glyph d="M1800 1399l-400-299v200h-400l-500-800h-300v200h200l500 800h500v200zM200 1500h300l115-217-112-180-103 197h-200v200zM1800 599l-400-299v200h-500l-115 217 112 180 103-197h400v200z" unicode="&#xf503;"/><glyph d="M900 1700h800v-800l-200 100v308l-560-559-141 141 609 610h-408zM1200 500v300l200 200v-700h-1100v1100h800l-200-200h-400v-700h700z" unicode="&#xf504;"/><glyph d="M1575 1325l225 375v-1400l-225 375 125 125h-400v-400l125 125 375-225h-1600l375 225 125-125v400h-400l125-125-225-375v1400l225-375-125-125h400v400l-125-125-375 225h1600l-375-225-125 125v-400h400z" unicode="&#xf506;"/><glyph d="M1900 1000q0 183-71.5 349.5t-192 287-287 192-349.5 71.5-349.5-71.5-287-192-192-287-71.5-349.5 71.5-349.5 192-287 287-192 349.5-71.5 349.5 71.5 287 192 192 287 71.5 349.5zM1000 1740q62 0 106-44t44-106-44-106.5-106-44.5-106 44.5-44 106.5 44 106 106 44zM340 1264q0 29 165 48t330 24l165 4q660-11 660-76 0-29-112-64t-224-56l-111-20 59-306q91-515 47-532-17-7-56.5 44t-83 128.5-84.5 156-68 134.5l-27 56-96-193q-177-342-222-326-17 14-13 96.5t23 209 40.5 244.5 38.5 203l17 85q-448 75-448 140z" unicode="&#xf507;"/><glyph d="M1500 1600h300v-1500h-1600v1500h300v100q0 60 44 106 44 44 106 44t106-44q44-46 44-106v-100h400v100q0 60 44 106 44 44 106 44t106-44q44-46 44-106v-100zM600 1700v-250q0-21 15-36 14-14 35-14t35 14q15 15 15 36v250q0 22-15 35-13 15-35 15t-35-15q-15-13-15-35zM1300 1700v-250q0-20 14-36 16-14 36-14t36 14q14 16 14 36v250q0 21-14 35-15 15-36 15t-36-15q-14-14-14-35zM1700 200v1000h-1400v-1000h1400zM700 1100v-200h-200v200h200zM900 1100h200v-200h-200v200zM1300 900v200h200v-200h-200zM700 800v-200h-200v200h200zM900 800h200v-200h-200v200zM1300 600v200h200v-200h-200zM700 500v-200h-200v200h200zM1100 300h-200v200h200v-200zM1500 300h-200v200h200v-200z" unicode="&#xf508;"/><glyph d="M200 1900h1600q41 0 70.5-29.5t29.5-70.5v-1600q0-41-29.5-70.5t-70.5-29.5h-1600q-41 0-70.5 29.5t-29.5 70.5v1600q0 41 29.5 70.5t70.5 29.5zM901 1101v600h-601v-600h601zM1701 1101v600h-600v-600h600zM901 300v600h-601v-600h601zM1701 300v600h-600v-600h600z" unicode="&#xf509;"/><glyph d="M100 1683v-1483h1800v1400h-1100v83q0 48-35 83-34 34-83 34h-464q-49 0-83-34-35-34-35-83zM1000 1400v-200h-700v200h700zM1700 1400v-1000h-500v1000h500zM1000 1000v-200h-700v200h700zM1000 600v-200h-700v200h700z" unicode="&#xf510;"/><glyph d="M200 157q28-27 94-18.5t154 38 194.5 81.5 215 113 215 131.5 194.5 136.5 154 129.5 93 109.5q36 60 23.5 137.5t-58 155-117.5 151.5q32 21 66.5 21t64.5-17.5 62.5-41.5 61-50.5 59.5-46 58-26.5 57 8q46 24 68.5 85.5t1.5 106.5q-12 26-36.5 45.5t-47.5 30.5-64 20-63 12-70 7.5-61 5.5q36 9 80 27.5t92 47 80.5 68.5 33.5 82q3 69-66.5 131.5t-138.5 54.5q-25-3-47-14t-40-32.5-31.5-41-27.5-53-22-52.5-20.5-56.5-17.5-50.5q-16 223-98 295-55 43-106 38t-88-46.5-38-96.5q-1-31 19-62.5t49-56 60.5-54.5 53-57 27-63.5-16.5-73.5q-78 60-157.5 96.5t-155.5 44-133-26.5q-70-45-163-169 168-178 309-272 15-11 18.5-29t-7.5-33q-10-16-28.5-19.5t-33.5 7.5q-138 94-310 271-71-105-134-223 157-158 279-241 15-11 18-29t-7-33q-10-16-28.5-19.5t-34.5 7.5q-117 80-271 232-143-282-212-524t-5-299z" unicode="&#xf511;"/><glyph d="M300 0h1400v2000h-1400v-2000zM700 1700h-200v200h200v-200zM1100 1700h-200v200h200v-200zM1500 1700h-200v200h200v-200zM700 1400h-200v200h200v-200zM1100 1400h-200v200h200v-200zM1500 1400h-200v200h200v-200zM700 1100h-200v200h200v-200zM1100 1100h-200v200h200v-200zM1500 1100h-200v200h200v-200zM700 800h-200v200h200v-200zM1100 800h-200v200h200v-200zM1500 800h-200v200h200v-200zM1100 100h-600v600h600v-600zM1500 500h-200v200h200v-200zM1500 200h-200v200h200v-200z" unicode="&#xf512;"/><glyph d="M100 1000q61-43 150-43t150 43q100 74 100 200 0-127 100-200 61-43 150-43t150 43q100 74 100 200 0-127 100-200 61-43 151-43 88 0 149 43 100 74 100 200 0-127 100-200 61-43 150-43t150 43q100 73 100 200v100l-300 700h-1300l-400-700v-100q0-127 100-200zM300 101h500v500h400v-500h500v700q-52 7-100 43-38 27-55.5 43t-31 44.5-13.5 68.5q0-30-6-52t-22-41-29.5-30.5-42.5-32.5q-58-42-149-44-91 0-151 44-38 27-55.5 43t-31 44.5-13.5 68.5q0-30-6-52t-22-41-29.5-30.5-42.5-32.5q-58-42-150-44-90 0-150 44-38 27-55.5 43t-31 45-13.5 69q0-31-6-53t-22-41-29.5-30.5-42.5-32.5q-49-36-100-44v-699z" unicode="&#xf513;"/><glyph d="M0 200h1000v26q241-63 476 24 122 45 222.5 125t167.5 183 102.5 221 31.5 246.5-49 250.5q-42 115-116 211t-167.5 161.5-204.5 106-227 44-236-24.5v26h-1000v-1600zM900 1700v-1400h-800v1400h800zM1445 878q-51-101-158.5-137t-208.5 14q-46 22-78 59v373q61 65 149.5 82t172.5-24q101-51 137-158.5t-14-208.5zM1170 960q16-12 36.5-9t33.5 19q12 16 9 36.5t-19 33.5q-17 13-37 10t-33-20q-12-16-9-36.5t19-33.5zM1471 593q-86-57-187.5-75t-195.5 6q-20 5-31 23t-6 38 23 30.5 39 5.5l17-4q155-27 286 59 72 49 114 118 11 17 31 21.5t38-5.5q17-11 22-31.5t-6-37.5q-57-90-144-148zM1576 436q-109-73-234-99.5t-250-6.5q-21 4-33 21.5t-8 38.5q4 20 21.5 31.5t39.5 7.5l22-4q211-24 387 94 101 67 170 174 10 18 30.5 22.5t37.5-6.5q18-10 22.5-30.5t-6.5-38.5q-76-122-199-204z" unicode="&#xf514;"/><glyph d="M500 1300v-300l-200-150v650h1100v200l400-301-400-299v200h-900zM1500 700v300l200 150v-650h-1100v-200l-400 301 400 299v-200h900z" unicode="&#xf515;"/><glyph d="M1198 1237l600 360v-1200l-600 360v-360l-800 480v-480h-200v1200h200v-480l800 480v-360z" unicode="&#xf516;"/><glyph d="M800 760l-600-360v1200l600-360v360l800-480v480h200v-1200h-200v480l-800-480v360z" unicode="&#xf517;"/><glyph d="M200 1000l1000 600v-360l600 360v-1200l-600 360v-360z" unicode="&#xf518;"/><glyph d="M1800 1000l-1000-600v360l-600-360v1200l600-360v360z" unicode="&#xf519;"/><glyph d="M200 1300h400l500 400v-1400l-500 400h-400v600z" unicode="&#xf520;"/><glyph d="M200 1300h400l500 400v-1400l-500 400h-400v600zM1469 1546q8-3 22.5-10t48-29 65.5-49.5 68.5-73 63.5-98.5 45-128 18-158-18-158-45-128-63.5-98.5-68.5-73-65.5-49.5-48-29-22.5-10q-8-4-19-4-35 0-46 31-8 19 0 38t27 27q10 5 19 9t38.5 23.5 53.5 41.5 55 60.5 52 82 36 106 15 131.5q0 96-28.5 178t-65 129.5-80 84-65.5 48-30 14.5q-19 8-27 27t0 38 27 27 38 0zM1600 1000q0-70-23.5-131.5t-50-96-68.5-65.5-55-37.5-34-15.5l-1-1q-9-3-18-3-34 0-47 32-7 19 1.5 38t27.5 27q6 2 20.5 9t41.5 27.5 49.5 47.5 39.5 72 17 97-17 97-39.5 72-49.5 47.5-41.5 27.5-20.5 9q-19 8-27.5 27t-1.5 38q8 19 27 27.5t38 1.5q145-64 202-195 30-70 30-152z" unicode="&#xf521;"/><glyph d="M500 1600l1000-600-1000-600v1200z" unicode="&#xf522;"/><glyph d="M500 400v1200h300v-1200h-300zM1200 1600h300v-1200h-300v1200z" unicode="&#xf523;"/><glyph d="M2000 1362l-101-282v1q-77 28-153-8t-104-114q-28-77 7-153 36-75 115-103v-1l-101-282-1506 538 99 279q77-28 153 8 74 34 103 113 28 77-8 153-34 73-113 102l102 287zM1503 793l137 376q18 47-4 95-22 46-70 65l-752 273q-48 17-95.5-5t-64.5-69l-137-376q-18-49 4-96t70-64l752-274q22-8 43-8 39 0 71.5 23t45.5 60zM797 1555l751-273q29-11 43-39 13-28 2-57l-137-376q-10-28-38.5-42t-57.5-3l-751 274q-29 10-42.5 38.5t-2.5 57.5l137 376q7 22 27 35.5t43 13.5q11 0 26-5zM1479 341q53-41 120-41h1v-300h-1600v296q84 0 141 59 59 57 59 141 0 82-59 141t-141 59v304h105l-28-80 287-102q-39-12-64-44.5t-25-73.5v-400q0-52 36.5-88.5t88.5-36.5h800q52 0 88.5 36.5t36.5 88.5v175l83-30q18-65 71-104zM325 300v400q0 31 22 53t53 22h83l792-283v-192q0-31-22-53t-53-22h-800q-31 0-53 22t-22 53z" unicode="&#xf524;"/><glyph d="M1206 1400l-21 20q-26 27-32 47t3.5 38 36.5 45l272 275q11 11 27.5 28.5t23.5 24.5 19 17.5 18.5 12 17 3.5 19.5-3 21-13 27-22l21-20zM1259 1355l440 440q21-28 41.5-59.5t47-78 45-95 31-100 10-104-21.5-97.5q-33-76-59-117.5t-69.5-93-71.5-89.5q-226-257-600-607-41-29-90-72.5t-91.5-70.5-118.5-57q-43-17-95-18t-103.5 12.5-100.5 31.5-97 44.5-80 45.5-62 40l440 440 118-162q16-23 48.5-16.5t66 28.5 65.5 54q23 23 92.5 93t118 118.5 104.5 106.5 85 89q32 32 53.5 65t29 65.5-16.5 49.5zM157 350l-21 21q-15 16-23.5 28t-9.5 24.5-1 19.5 11 21 17 20.5 27 26.5 31 30l274 272q41 39 63.5 42.5t63.5-31.5l20-21z" unicode="&#xf525;"/><glyph d="M0 1700h2000v-1200h-75q0 134-95.5 229.5t-229.5 95.5q-96 0-175-52.5t-119-138.5q-40 16-81 16-72 0-129.5-42t-81.5-108h-1014v1200zM837 1389q-10-24-11-47-2-27 1-50l2-8q3-16 5-23 2-8 10-31 3-11 15-33 9-15 23-31 13-15 31-23 18-9 40-9 21 0 39 9 16 8 30 22 12 12 22 32 9 15 16 33 6 15 9 31 2 7 3 15l2 7q1 4 1 9 7 41-4 82-10 38-41 66-32 27-79 27-29 0-52-10-24-11-38-28-12-15-24-40zM1285 785v114q0 49-29 98t-77 79q-47 31-102 31l-124-84-128 82q-56 0-104-30-47-30-74-77-27-48-27-99v-114l18-5q1 0 51-14 40-9 74-15 31-6 91-13 57-5 99-5 40 0 98 5 58 7 89 13 22 3 76 16l50 12q11 3 19 6zM1600 775q114 0 194.5-80.5t80.5-194.5-80.5-194.5-194.5-80.5q-107 0-187 77 37 56 37 123 0 57-26.5 106.5t-72.5 79.5q33 74 100 119t149 45zM1050 425q0 72 51.5 123.5t123.5 51.5 123.5-51.5 51.5-123.5-51.5-123.5-123.5-51.5-123.5 51.5-51.5 123.5z" unicode="&#xf526;"/><glyph d="M858 1761q47 0 81-14 88-39 128.5-146.5t41.5-250.5q56 77 156 153t185 76q41 0 80-9.5t81.5-34.5 78-64 66-102.5 47.5-144.5q-163 94-365 94-198 0-329-89 58 16 133 16 111 0 207.5-34.5t132.5-96.5q34-58 38.5-140.5t-25.5-160-89-113.5q-7 104-55.5 199t-127 154-164.5 59q-67 0-133-38-109-66-184-214.5t-108.5-339.5-33.5-420h-500q0 160 46.5 313t124 273.5 177.5 222 207 168.5 213 102q-93 15-182 15-321 0-586-194 28 107 78 188t114 128.5 133.5 70.5 143.5 23q93 0 178-34.5t142-94.5q-24 80-68.5 138.5t-101.5 89-115.5 44.5-122.5 14q-113 0-205-35 66 93 215 161t267 68zM1300 850q0 62-44 106t-106 44-106-44-44-106 44-106 106-44 106 44 44 106z" unicode="&#xf527;"/><glyph d="M1200 1100v300q0 82-59 141t-141 59-141-59-59-141h-200q0 166 117 283t283 117 283-117 117-283v-300h100q41 0 70.5-29.5t29.5-70.5v-700q0-41-29.5-70.5t-70.5-29.5h-1000q-41 0-70.5 29.5t-29.5 70.5v700q0 41 29.5 70.5t70.5 29.5h700zM1100 400l-36 215q39 18 62.5 54.5t23.5 80.5q0 62-44 106t-106 44-106-44-44-106q0-44 23.5-80.5t62.5-54.5l-36-215h200z" unicode="&#xf528;"/><glyph d="M1272 1800q14 2 41-7 42-14 60.5-53t5.5-82q-2-7-16.5-51.5t-26.5-84-26-87.5-22.5-84-8.5-51q0-38 44-69t91-31h300q45 0 72.5-27.5t27.5-72.5q0-27-50-202t-100-336l-50-162q-16-38-43-69t-57-31h-914v900h214q29 29 182.5 256t175.5 271q16 30 43 49.5t57 23.5zM200 1200h200v-900h-200v900z" unicode="&#xf529;"/><glyph d="M1720 1670l16-17q29-29 29-70.5t-29-70.5l-1281-1282q-29-29-71-29t-70 29l-17 17q-29 29-29 70.5t29 70.5l159 160q-237 151-356 393 121 247 364 399 241 151 536 151 175 0 340-60l238 239q29 29 71 29t71-29zM1011 1269q-34-37-34-88 0-43 31-81l180 179q-20 19-45 26-38 3-49 4-49-4-83-40zM240 941q104-185 305-305l128 128q-77 104-77 236 0 160 109 276-153-40-276-126-121-88-189-209zM1562 1154l96 96q154-130 242-309-121-247-364-399-241-151-536-151-86 0-183 18l107 107q62-5 76-5 245 0 450 121t310 309q-68 121-189 209-1 0-4 2t-5 2zM1004 596l400 400q-1-164-118-281-118-118-282-119z" unicode="&#xf530;"/><glyph d="M1025 1898q187 0 351-71t278.5-192.5 180-287 65.5-349.5-65.5-349.5-180-287-278.5-192.5-351-71q-236 0-438.5 107.5t-329.5 291.5l259 152q85-115 212-183t272-68q162 0 300.5 82.5t219 221 80.5 296.5-80.5 296.5-219 221-300.5 82.5q-144 0-270.5-67t-211.5-182l182-151-600-200v700l189-158q129 166 322 262t414 96z" unicode="&#xf531;"/><glyph d="M1400 1413q0 165-117 282.5t-283 117.5-283-117.5-117-282.5q0-166 117-283t283-117 283 117 117 283zM324 934q-71-40-119.5-104.5t-68-138-10-153.5 50.5-150q55-94 148.5-147.5t196-53 202.5 53.5q143 83 186 243t-40 304q-41 70-105 118.5t-137.5 68-153.5 10-150-50.5zM1276 241q144-83 304-40t243 186q53 100 53.5 202.5t-53 196-147.5 148.5q-70 41-150 50.5t-153.5-10-137.5-68-105-118.5q-83-144-40-304t186-243z" unicode="&#xf533;"/><glyph d="M1000 1800q163 0 311-63.5t255-170.5 170.5-255 63.5-311-63.5-311-170.5-255-255-170.5-311-63.5-311 63.5-255 170.5-170.5 255-63.5 311 63.5 311 170.5 255 255 170.5 311 63.5zM1113 862l35 646h-296l35-646h226zM1104 526q37 35 37 96 0 62-36 97-37 35-106 35t-107-35q-37-34-37-97 0-61 38-96 38-34 106-34t105 34z" unicode="&#xf534;"/><glyph d="M1800 300v1400h-1600v-1400h1600zM1600 1300h-1200v200h1200v-200zM900 900h-500v200h500v-200zM1600 900h-500v200h500v-200zM900 500h-500v200h500v-200zM1600 500h-500v200h500v-200z" unicode="&#xf535;"/><glyph d="M300 1550v200l38.5 11t102 24 156 30 190 24 213.5 11q163 0 338-25t268-50l94-25v-200l-500-703v-697q-122 9-225 59-46 22-89.5 57.5t-64.5 59.5l-21 24v497z" unicode="&#xf536;"/><glyph d="M500 1639v257l899 1-1-258q-93-20-154.5-94.5t-61.5-172.5v-50q1-98 62-172t155-94l-1-258h-341l-1-257q0-77-34-259t-72-182q-39 0-73.5 182t-34.5 259v256l-342 1 1 258q93 19 154 93.5t61 172.5v50q0 98-61 172.5t-155 94.5z" unicode="&#xf537;"/><glyph d="M200 1800h500v-1100h-500v1100zM800 1800h500v-500h-500v500zM1400 1800h400v-1600h-400v1600zM800 1200h500v-500h-500v500zM200 600h1100v-400h-1100v400z" unicode="&#xf538;"/><glyph d="M1833 1643q3 9 6 24t-4 51-33 61q-24 23-54.5 29t-49.5 0l-18-5q-91-45-367.5-233.5t-399.5-323.5q-46-52-88-145t-55-187.5 34-149.5q52-46 146.5-36t192 51.5 140.5 84.5q134 134 323 416t227 363zM140 235q66 43 107 95.5t59.5 101 34 95 45 92.5 77.5 80q68 50 156.5 44t151.5-73q51-55 51.5-165t-67.5-181q-76-70-181.5-101.5t-214-26.5-219.5 39z" unicode="&#xf540;"/><glyph d="M1427 1313l-427 373-427-373-73 73 500 438 500-438zM1400 1158l-405-343-395 347v74l400 350 400-350v-78zM1100 1030v170h-200v-170h200zM927 627l-427 373-427-373-73 73 500 438 500-438zM1927 627l-427 373-427-373-73 73 500 438 500-438zM500 900l400-350v-350h-800v350zM1500 900l400-350v-350h-800v350zM600 300v200h-200v-200h200zM1600 300v200h-200v-200h200z" unicode="&#xf541;"/><glyph d="M728 200q-14-2-41 7-42 14-60.5 53t-5.5 82q2 7 16.5 51.5t26.5 84 26 87.5 22.5 84 8.5 51q0 38-44 69t-91 31h-300q-45 0-72.5 27.5t-27.5 72.5q0 27 50 202t100 336l50 162q16 38 43 69t57 31h914v-900h-214q-29-29-182.5-256t-175.5-271q-16-30-43-49.5t-57-23.5zM1800 800h-200v900h200v-900z" unicode="&#xf542;"/><glyph d="M1700 1100v-200h-600v-600h-200v600h-600v200h600v600h200v-600h600z" unicode="&#xf543;"/><glyph d="M1900 1000l-400-400v300h-400v-400h300l-400-400-400 400h300v400h-400v-300l-400 400 400 400v-300h400v400h-300l400 400 400-400h-300v-400h400v300z" unicode="&#xf545;"/><glyph d="M1705 1730q95-95 128.5-224.5t0-258.5-128.5-224l-705-707q-92-93-216-127.5t-249-5-221 117.5q-2 1-9 6.5t-10 8.5q-95 95-128.5 224t0 258 128.5 225l494 495q67 68 162 83t177-25q53-26 83-58 88-88 88-212t-88-212l-493-495q-29-29-70.5-29t-70.5 29-29 70.5 29 70.5l493 495q29 29 29 70.5t-29 70.5q-28 29-70 29t-70-29l-494-495q-67-68-82.5-163t25.5-177q24-51 57-84t84-57q82-41 176.5-26t162.5 83l705 707q87 88 87 212.5t-87 212.5q-83 81-200 86-12-1-24 0-37 5-60 27-29 30-28.5 72.5t30.5 72.5q21 21 56 28 19 3 40-2 194-10 327-143z" unicode="&#xf546;"/><glyph d="M300 1700h1400q45 0 72.5-27.5t27.5-72.5v-1000q0-45-27.5-72.5t-72.5-27.5h-1400q-45 0-72.5 27.5t-27.5 72.5v1000q0 45 27.5 72.5t72.5 27.5zM1600 1500h-1200v-800h1200v800zM1300 1400h-800v-400zM1900 300v100h-1800v-100q0-44 32-72t78-28h1580q46 0 78 28t32 72z" unicode="&#xf547;"/></font>
</defs>
</svg>
