<svg fill="none" height="791" viewBox="0 0 1600 791" width="1600" xmlns="http://www.w3.org/2000/svg"><g opacity=".08" stroke="#fff" stroke-width="2"><path d="m-101.649 133.265c37.5063-35.437 151.6154-100.7081 308-78.2962 195.48 28.0149 365.242 131.6132 544.214 173.8632s393.325 60.536 519.295 60.441c125.96-.096 326.49 58.344 366.4 154.2"/><path d="m-103.556 157.164c37.5061-35.437 151.6151-100.7081 307.999-78.2962 195.481 28.0152 365.243 131.6132 544.215 173.8632s393.332 60.536 519.292 60.441c125.97-.095 326.49 58.344 366.4 154.2"/><path d="m-105.464 181.063c37.5069-35.437 151.6159-100.7079 308-78.296 195.481 28.015 365.242 131.613 544.215 173.863 178.972 42.251 393.329 60.536 519.289 60.441 125.97-.095 326.5 58.345 366.41 154.2"/><path d="m-107.371 204.962c37.5066-35.437 151.6157-100.708 308-78.296 195.48 28.015 365.242 131.613 544.214 173.863 178.973 42.251 393.327 60.536 519.297 60.441 125.96-.095 326.49 58.345 366.4 154.2"/><path d="m-109.278 228.861c37.5064-35.437 151.6155-100.708 308-78.296 195.48 28.015 365.242 131.613 544.214 173.864 178.972 42.25 393.334 60.535 519.294 60.44s326.49 58.345 366.4 154.201"/><path d="m-111.185 252.761c37.5062-35.437 151.6152-100.709 308-78.297 195.48 28.015 365.242 131.613 544.214 173.864 178.972 42.25 393.331 60.535 519.291 60.44 125.97-.095 326.49 58.345 366.4 154.201"/><path d="m-113.093 276.66c37.507-35.437 151.616-100.709 308-78.297 195.481 28.015 365.242 131.613 544.215 173.864 178.972 42.25 393.328 60.535 519.298 60.44 125.96-.095 326.49 58.345 366.4 154.201"/><path d="m-115 300.558c37.5067-35.437 151.6158-100.708 308-78.296 195.48 28.015 365.242 131.613 544.214 173.864 178.973 42.25 393.326 60.535 519.296 60.44 125.96-.095 326.49 58.345 366.4 154.201"/><path d="m-116.907 324.458c37.5065-35.438 151.6156-100.709 308-78.297 195.48 28.015 365.242 131.613 544.214 173.864 178.972 42.25 393.333 60.535 519.293 60.44 125.97-.095 326.49 58.345 366.4 154.201"/><path d="m-118.814 348.357c37.5063-35.437 151.6153-100.709 308-78.297 195.48 28.015 365.242 131.613 544.214 173.864 178.972 42.25 393.33 60.535 519.29 60.44 125.97-.095 326.5 58.345 366.41 154.201"/><path d="m-120.721 372.256c37.5061-35.437 151.6151-100.709 307.999-78.297 195.481 28.015 365.242 131.613 544.215 173.864 178.972 42.25 393.327 60.535 519.297 60.44 125.96-.095 326.49 58.345 366.4 154.201"/><path d="m-122.629 396.155c37.5067-35.437 151.6158-100.708 308-78.297 195.48 28.015 365.242 131.614 544.214 173.864 178.973 42.25 393.325 60.535 519.295 60.44 125.96-.095 326.49 58.345 366.4 154.201"/><path d="m-124.536 420.054c37.5065-35.437 151.6155-100.708 308-78.297 195.48 28.015 365.242 131.614 544.214 173.864s393.332 60.535 519.292 60.44c125.97-.095 326.49 58.345 366.4 154.201"/><path d="m-126.443 443.953c37.5063-35.437 151.6153-100.708 308-78.296 195.48 28.014 365.242 131.613 544.214 173.863s393.329 60.536 519.289 60.44c125.97-.095 326.5 58.345 366.41 154.201"/><path d="m-128.35 467.852c37.506-35.437 151.6151-100.708 307.999-78.297 195.481 28.015 365.242 131.614 544.215 173.864 178.972 42.25 393.326 60.535 519.296 60.44 125.96-.095 326.49 58.345 366.4 154.201"/><path d="m-130.258 491.751c37.5068-35.437 151.6158-100.708 308-78.296 195.48 28.014 365.242 131.613 544.215 173.863 178.972 42.25 393.333 60.535 519.293 60.44s326.49 58.345 366.4 154.201"/><path d="m-132.165 515.65c37.5066-35.437 151.6156-100.708 308-78.297 195.48 28.015 365.242 131.614 544.214 173.864 178.973 42.25 393.331 60.535 519.291 60.44 125.97-.095 326.5 58.345 366.4 154.201"/><path d="m-134.072 539.549c37.5062-35.437 151.6153-100.709 308-78.297 195.48 28.015 365.242 131.613 544.214 173.864 178.972 42.25 393.328 60.535 519.298 60.44 125.96-.095 326.49 58.345 366.4 154.201"/><path d="m-135.979 563.448c37.506-35.437 151.615-100.708 307.999-78.296 195.481 28.014 365.242 131.613 544.215 173.863 178.972 42.25 393.325 60.536 519.295 60.44 125.96-.095 326.49 58.345 366.4 154.201"/><path d="m-137.887 587.347c37.507-35.437 151.6159-100.708 308-78.297 195.481 28.015 365.242 131.614 544.215 173.864 178.972 42.25 393.332 60.535 519.292 60.44 125.97-.095 326.49 58.345 366.4 154.201"/><path d="m-139.794 611.246c37.507-35.437 151.6156-100.709 308-78.297 195.48 28.015 365.242 131.613 544.214 173.864 178.973 42.25 393.33 60.535 519.29 60.44 125.97-.095 326.5 58.345 366.41 154.201"/><path d="m-141.701 635.145c37.506-35.438 151.61537-100.709 308-78.297 195.48 28.015 365.242 131.613 544.214 173.864 178.972 42.25 393.327 60.535 519.297 60.44 125.96-.095 326.49 58.345 366.4 154.201"/><path d="m-143.608 659.044c37.506-35.437 151.61526-100.708 308-78.297 195.48 28.015 365.242 131.614 544.214 173.864s393.334 60.535 519.294 60.44 326.49 58.345 366.4 154.201"/><path d="m-145.516 682.943c37.507-35.437 151.61603-100.708 308-78.297 195.481 28.015 365.242 131.613 544.215 173.864 178.972 42.25 393.331 60.535 519.291 60.44 125.97-.095 326.49 58.345 366.4 154.201"/><path d="m-147.423 706.842c37.507-35.437 151.61569-100.709 308-78.297 195.48 28.015 365.242 131.613 544.214 173.864 178.973 42.25 393.329 60.535 519.299 60.44 125.96-.095 326.49 58.345 366.4 154.201"/><path d="m-149.33 730.74c37.506-35.437 151.61546-100.708 308-78.296 195.48 28.015 365.242 131.613 544.214 173.864 178.972 42.25 393.326 60.535 519.296 60.44 125.96-.095 326.49 58.345 366.4 154.202"/><path d="m-151.237 754.64c37.506-35.437 151.615233-100.708 308-78.297 195.48 28.015 365.242 131.614 544.214 173.864s393.333 60.535 519.293 60.44c125.97-.095 326.49 58.345 366.4 154.203"/><path d="m-153.145 778.539c37.507-35.437 151.61601-100.709 308-78.297 195.481 28.015 365.242 131.613 544.215 173.864 178.972 42.25 393.33 60.535 519.29 60.44 125.97-.095 326.5 58.345 366.41 154.204"/><path d="m-155.052 802.438c37.507-35.438 151.61578-100.709 308-78.297 195.48 28.015 365.242 131.613 544.214 173.864 178.973 42.25 393.328 60.535 519.298 60.44 125.96-.095 326.49 58.345 366.4 154.205"/></g></svg>