<svg fill="none" height="16" viewBox="0 0 17 16" width="17" xmlns="http://www.w3.org/2000/svg" xmlns:xlink="http://www.w3.org/1999/xlink"><linearGradient id="a" gradientUnits="userSpaceOnUse" x1=".75177" x2="18.6039" y1=".471436" y2="3.16962"><stop offset="0" stop-color="#ffb36d"/><stop offset="1" stop-color="#ec5353"/></linearGradient><path d="m7.70706 1.21267c.32112-.988313 1.71932-.988313 2.04045 0l1.14739 3.5312c.1436.44199.5555.74124 1.0202.74124h3.7129c1.0392 0 1.4713 1.32977.6305 1.94058l-3.0038 2.1824c-.376.27317-.5333.75731-.3897 1.19931l1.1474 3.5312c.3211.9884-.8101 1.8102-1.6508 1.1994l-3.00379-2.1824c-.37597-.2732-.88509-.2732-1.26106 0l-3.00382 2.1824c-.84071.6108-1.97188-.211-1.65076-1.1994l1.14736-3.5312c.14361-.442-.01372-.92614-.38969-1.19931l-3.00382-2.1824c-.840711-.61081-.408642-1.94058.63053-1.94058h3.71293c.46473 0 .87661-.29925 1.02022-.74124z" fill="url(#a)"/></svg>