<svg fill="none" height="319" viewBox="0 0 390 319" width="390" xmlns="http://www.w3.org/2000/svg" xmlns:xlink="http://www.w3.org/1999/xlink"><clipPath id="a"><path d="m0 0h277.68v358.714h-277.68z" transform="matrix(.118567 .992946 .992946 -.118567 0 42.5317)"/></clipPath><g clip-path="url(#a)"><path clip-rule="evenodd" d="m34.873 301.123c14.1295-63.035 73.093-89.85 133.349-60.64 22.555 10.932 29.634 9.937 43.364-6.106 9.33-10.894 11.871-19.093 12.482-40.244.886-30.664 1.405-31.763 15.779-33.467 10.494-1.245 19.226-.577 34.173 2.621 39.682 8.491 50.728 1.895 49.118-29.319-1.674-32.469 2.522-46.8092 16.472-56.2497 8.965-6.0614 24.653-2.8107 23.186 4.8125-.344 1.784-.606 1.8315-5.73 1.0554-6.884-1.0501-10.97.5959-16.367 6.5862-7.37 8.1869-8.702 16.8716-7.363 48.0606 1.478 34.538-16.127 44.367-61.42 34.286-18.194-4.049-36.427-4.107-37.182-.115-.58 3.039-1.087 11.721-1.478 25.232-.58 20.158-3.245 28.328-13.461 41.232-16.96 21.432-29.059 23.26-57.69 8.716-48.468-24.618-98.0383-7.902-118.3773 39.921-5.8513 13.755-7.5807 23.811-4.181 24.272 2.8096.387 2.804 4.152-.0043 4.899-4.9751 1.32-6.966-5.313-4.6694-15.553zm-3.4718-48.474c8.3858-28.401 30.5293-46.954 66.6303-55.824 13.8175-3.397 20.5185-2.551 47.1485 5.95 32.506 10.373 48.424-7.292 37.89-42.047-5.153-17.017-4.82-28.515 1.077-37.026 7.584-10.948 13.366-11.199 39.807-1.727 28.491 10.202 50.259-2.843 46.207-27.6967-3.995-24.4695-4.222-29.0218-1.706-34.3939 5.735-12.2482 16.167-18.1055 36.105-20.2725 12.293-1.3347 13.679-1.6737 18.154-4.3908 6.1-3.706 6.447-3.7273 6.839-.4455.902 7.5542-5.946 11.4019-23.641 13.2931-25.345 2.7076-34.745 12.3675-29.874 30.7004 6.87 25.8449 5.486 34.9469-6.913 45.4289-15.214 12.872-27.039 14.211-50.76 5.767-20.458-7.285-21.661-7.424-25.71-2.938-5.764 6.381-5.892 14.095-.525 31.985 7.592 25.323 3.79 40.928-12.532 51.426-11.134 7.16-18.928 7.029-42.289-.716-23.371-7.752-31.181-7.981-50.8542-1.484-18.6966 6.17-28.98 12.962-39.3625 26.003-12.0725 15.156-17.3799 32.989-9.5427 32.053 1.4625-.174 2.4201.256 2.5251 1.135.2494 2.089-5.7407 2.566-7.9704.637-2.6199-2.269-2.8823-8.04-.7031-15.417zm-3.7365-31.666c4.6413-19.804 22.4872-37.626 44.8717-44.801 7.2957-2.34 9.5919-2.509 28.2076-2.11 33.633.717 44.012-8.842 43.085-39.685-.667-22.192 1.883-31.502 11.858-43.2561 12.384-14.5915 19.634-16.8694 39.588-12.4415 28.767 6.3814 42.334-3.3646 40.638-29.206-1.061-16.2097 1.574-22.6974 12.008-29.5516 12.1-7.9488 46.58-12.22329 47.339-5.8665.281 2.3589 1.666 2.0403-21.117 4.8577-29.852 3.6936-32.405 6.028-30.89 28.2153 2.162 31.6159-16.455 46.1085-49.747 38.7221-17.136-3.804-20.784-2.8076-31.396 8.5504-9.066 9.7042-11.489 18.0032-10.957 37.5362 1.079 39.701-12.436 51.454-55.7089 48.451-22.6163-1.572-41.4254 6.21-54.5736 22.567-8.7113 10.836-12.8195 25.848-7.9637 29.077 2.1843 1.445 2.1323 2.916-.1074 3.184-4.8041.573-7.1079-5.821-5.1347-14.243z" fill="#f0f9ff" fill-opacity=".1" fill-rule="evenodd"/></g></svg>