<svg fill="none" height="102" viewBox="0 0 236 102" width="236" xmlns="http://www.w3.org/2000/svg"><path d="m0 71.7453c22-9.9158 67-34.0112 71-51.0663 5-21.318951-31.5-30.739-36 0-3.3767 23.0656 0 80.814 48 80.318s97.833-32.2265 125-41.6465" stroke="#dadfe9" stroke-dasharray="4 4"/><circle cx="208" cy="57" fill="#45c1ff" r="28"/><g stroke="#fff" stroke-linecap="round" stroke-linejoin="round" stroke-width="1.5"><path d="m203.371 55.2017v6.8601"/><path d="m208.038 51.9191v10.1427"/><path d="m212.629 58.8268v3.235"/><path clip-rule="evenodd" d="m212.686 47h-9.372c-3.266 0-5.314 2.3121-5.314 5.5852v8.8296c0 3.2731 2.038 5.5852 5.314 5.5852h9.372c3.276 0 5.314-2.3121 5.314-5.5852v-8.8296c0-3.2731-2.038-5.5852-5.314-5.5852z" fill-rule="evenodd"/></g></svg>