<svg fill="none" height="147" viewBox="0 0 1440 147" width="1440" xmlns="http://www.w3.org/2000/svg"><path d="m1255 85.4854c23.99-10.0038 73.07-34.3132 77.44-51.5198 5.45-21.5083-34.36-31.01199-39.27 0-3.68 23.2705 0 81.5314 52.35 81.0314s149.42-140.9007 288.48-109.38861" stroke="#45c1ff" stroke-dasharray="4 4"/><circle cx="1255" cy="79" fill="#297373" r="28"/><g stroke="#fff" stroke-linecap="round" stroke-linejoin="round" stroke-width="1.5"><path clip-rule="evenodd" d="m1254.98 88.606s7.68-2.323 7.68-8.727c0-6.405.27-6.905-.34-7.521-.62-.616-6.33-2.608-7.34-2.608-1 0-6.71 1.992-7.33 2.608s-.34 1.116-.34 7.521c0 6.404 7.67 8.727 7.67 8.727z" fill-rule="evenodd"/><path d="m1252.39 78.8746 1.89 1.895 3.9-3.9"/></g></svg>