<svg fill="none" height="116" viewBox="0 0 213 116" width="213" xmlns="http://www.w3.org/2000/svg"><path d="m28 85.4854c23.9942-10.0038 73.073-34.3132 77.436-51.5198 5.453-21.5083-34.3554-31.01199-39.2633 0-3.6828 23.2705 0 81.5314 52.3513 81.0314 52.351-.5 149.418-140.9007 288.476-109.38861" stroke="#ff7088" stroke-dasharray="4 4"/><circle cx="28" cy="79" fill="#e4572e" r="28"/><g stroke="#fff" stroke-linecap="round" stroke-linejoin="round" stroke-width="1.5"><path clip-rule="evenodd" d="m27.9845 88.606s7.672-2.323 7.672-8.727c0-6.405.278-6.905-.337-7.521-.616-.616-6.329-2.608-7.335-2.608s-6.719 1.992-7.334 2.608c-.616.616-.338 1.116-.338 7.521 0 6.404 7.672 8.727 7.672 8.727z" fill-rule="evenodd"/><path d="m25.3859 78.8746 1.892 1.895 3.898-3.9"/></g></svg>