<svg fill="none" height="103" viewBox="0 0 172 103" width="172" xmlns="http://www.w3.org/2000/svg"><path d="m28.5 72.0001c22-10 67-34.3 71-51.5 5-21.500049-31.5-31.0001-36 0-3.3767 23.2615 0 81.4999 48 80.9999s97.833-32.5 125-42" stroke="#abb8c1" stroke-dasharray="4 4"/><circle cx="28" cy="72" fill="#ffd55d" r="28"/><path d="m38.832 71.445c-.176-.263-4.371-6.445-10.832-6.445-6.494 0-10.66 6.185-10.834 6.448-.222.335-.222.771.002 1.106.176.264 4.371 6.446 10.832 6.446 6.428 0 10.653-6.179 10.83-6.442.226-.336.227-.776.002-1.113zm-10.832 5.555c-4.35 0-7.635-3.596-8.753-5.002.658-.832 2.075-2.425 4.024-3.59-.171.5-.271 1.033-.271 1.592 0 2.757 2.243 5 5 5s5-2.243 5-5c0-.555-.099-1.085-.268-1.582 1.94 1.164 3.357 2.75 4.018 3.581-1.127 1.408-4.426 5.001-8.75 5.001z" fill="#fff"/></svg>