<svg height="162pt" preserveAspectRatio="xMidYMid meet" viewBox="0 0 400 162" width="400pt" xmlns="http://www.w3.org/2000/svg"><g fill="#1660a3" transform="matrix(.1 0 0 -.1 0 162)"><path d="m1225 1313c-16-2-139-20-271-39-133-19-247-34-253-34-8 0-11-65-11-225v-225h295 295v265c0 206-3 265-12 264-7-1-26-4-43-6z"/><path d="m600 1225c-28-6-372-55-384-55-3 0-6-85-6-190v-190h225 225v220 220l-22-1c-13-1-30-3-38-4z"/><path d="m1520 800v-320h35 35v320 320h-35-35z"/><path d="m2280 1061c-22-6-25-13-28-63l-3-57-37-3c-32-3-37-6-37-28s5-25 38-28l37-3v-162c0-143 2-166 20-194 25-42 51-55 108-51 43 3 47 6 50 30s0 26-32 25c-21-1-43 6-56 18-19 17-20 30-20 177v158h55c54 0 55 0 55 30s-1 30-55 30h-55v65c0 36-3 65-7 64-5-1-19-4-33-8z"/><path d="m1880 929c-21-10-45-27-52-38-18-29-26-26-30 12-3 28-7 32-35 35l-33 3v-230-231h35 35v150c0 109 4 160 14 185 27 65 121 96 175 59 42-30 51-71 51-239v-155h35 35v153c0 236-26 295-136 307-41 5-65 2-94-11z"/><path d="m3645 940c-63-7-84-19-129-71-47-55-63-128-48-223 12-77 43-125 102-158 29-16 49-19 115-15 101 5 135 20 135 59 0 33-1 33-43 11-43-22-133-22-174 0-36 19-58 54-68 110l-7 37h161 161v58c0 40-7 71-22 102-38 73-93 100-183 90zm84-65c38-19 81-124 51-125-69-3-243 0-247 3-6 7 25 78 45 100 34 38 102 48 151 22z"/><path d="m2504 925c-3-8-4-85-2-172 3-135 6-165 24-204 25-54 69-79 139-79 52 0 77 10 118 48l27 26v-32c0-30 2-32 35-32h35v231 230l-32-3-33-3-5-165c-6-187-13-210-77-237-65-27-126 1-152 70-6 16-11 98-11 183v154h-30c-18 0-33-6-36-15z"/><path d="m3000 711v-231h35 35v158c0 138 2 161 20 189 37 61 123 82 173 43 38-30 47-77 47-242v-148h30 30v175c0 192-7 225-55 263-54 43-201 21-221-33-10-25-23-17-26 18-3 28-7 32-35 35l-33 3z"/><path d="m210 576v-184l28-6c15-3 54-8 87-11 33-4 83-10 110-15 28-5 73-12 100-16 28-3 67-9 88-14l37-8v219 219h-225-225z"/><path d="m690 540c0-131 4-220 9-220 6 0 137-18 292-40 156-22 284-40 286-40s3 117 3 260v260h-295-295z"/></g></svg>