<svg height="73.773" viewBox="0 0 216.38667 73.773331" width="216.39" xmlns="http://www.w3.org/2000/svg"><g transform="matrix(.13333 0 0 -.13333 0 73.773)"><g fill="#3e3d3f"><path d="m837.62 263.34c-54.605-.246-72.852-26.887-72.734-52.445.113-25.559 18.597-52.04 73.203-51.79 54.605.247 72.859 26.887 72.746 52.446-.117 25.558-18.61 52.035-73.215 51.789zm71.324 37.406c-.195 43.098-42.933 52.422-77.679 52.266-24.325-.11-47.133-6.223-71.411-18.364l-19.527 37.5c39.145 16.715 69.902 20.36 93.242 20.465 62.055.282 119.75-26.019 120.04-88.16l.805-178.4-41.703-.188-.125 28.063c-22.727-24.153-48-34.293-82.254-34.449-63.039-.286-112.84 35.074-113.1 93.207-.214 47.605 39.797 89.879 111.78 90.203 27.301.125 56.133-7.762 80.058-29.203l-.121 27.062"/><path d="m1379.9 287.83c-.2 45.102-26.1 65.031-56.88 64.895-37.23-.168-64.92-23.848-64.72-67.45l.71-157.85-44.69-.203-.72 159.86c-.2 45.102-26.1 65.031-56.88 64.895-37.23-.168-64.92-23.848-64.72-67.45l.71-157.85-44.68-.203-1.17 261.09 44.67.203.14-31.067.99.004c11.8 26.614 44.01 37.281 71.32 37.403 26.3.121 55.13-6.766 76.65-44.758 15.73 33.148 49.93 45.328 84.18 45.484 55.6.25 99.44-33.129 99.75-101.78l.74-164.87-44.68-.203-.72 159.86"/><path d="m1534.2 429.35c-.24 54.625 36.88 80.851 88.49 83.59l.2-45.102-8.94-.043c-22.83-.102-35.16-18.699-35.06-41.754l.17-36.082 42.2.191.18-39.585-42.2-.192.99-221.5-44.67-.199-1 221.5-39.22-.176-.18 39.582 39.22.18z"/></g><path d="m23.477 552.51c-13.024-.059-23.535-10.664-23.477-23.688l.73438-163.05c.058594-12.696 10.395-22.942 23.09-22.883l82.18.371c37.617.168 89.226 8.125 103.11 74.988.008.016 13.793 66.957 21.965 106.64 3.035 14.758-8.281 28.527-23.348 28.461l-184.25-.832" fill="#748ab5"/><path d="m338.31 476.59c-55.493-.25-88.176-23.766-102.88-73.992.027.101-38.11-119.61-38.11-119.61-13.996-39.316-36.734-55.593-78.371-55.781l-95.527-.43c-12.184-.054-22.016-9.976-21.961-22.164l.27344-60.918c.05468-11.652 9.5429-21.058 21.195-21.007l387.7 1.75c12.16.054 21.972 9.957 21.918 22.113l-1.395 309.23c-.054 11.723-9.597 21.184-21.324 21.129l-71.519-.32" fill="#748ab5"/><path d="m624.36 499.91c17.375.078 31.328-13.891 31.41-31.43.079-17.535-13.75-31.629-31.128-31.707-17.375-.082-31.34 13.887-31.418 31.426-.079 17.539 13.757 31.633 31.136 31.711zm-21.828-114.36 44.676.199 1.32-294.63c0-68.008-43.886-90.957-93.156-91.133h-16.176l-.187 42.5c12.008-.4062 16.211-.4062 16.511-.4023 43.758.3281 48.356 24.445 48.356 46.789l-1.344 296.67" fill="#3e3d3f"/></g></svg>