<svg enable-background="new 0 0 314 94" viewBox="0 0 314 94" xmlns="http://www.w3.org/2000/svg"><path d="m12.8 23.3c-3.3-10-6.5-16.7-11.6-21.9v-.2h37.4v.2c-4.9 5.6-6.5 13-2.3 24l16.3 45.1 15.2-41.5c4.7-12.5 2.8-22.9-4.3-27.6v-.2h22.4v.2c-5.4 4.9-9.5 13.1-12.7 22.2l-24 65.8h-12.1z"/><path d="m106.1 81.5c-3.4 4.9-9.1 9.4-16.8 9.4-7.3 0-13.6-3.7-13.6-12 0-13 16.4-18.6 30-21.5v-7.4c0-7.1-2.9-10.3-11.5-10.3-4.7 0-10.2 1-15.6 3.2l-.5-.9c5.8-7.1 15.1-13.3 28.2-13.3 13 0 18.7 6.2 18.7 15.7v30.8c0 2.9 1.3 5.4 5.2 5.4 1.3 0 3-.4 4.6-1.4l.2.5c-1.7 4-5.9 11-16.1 11-7.3 0-11.8-3.8-12.8-9.2zm-.4-2.3v-19.3c-8.5 2.3-13.1 7.1-13.1 12.7 0 4.7 2.8 7.8 8 7.8 2 0 3.7-.4 5.1-1.2z"/><path d="m138.5 89v-.2c1.9-5.8 3-10.8 3-20.9l-.1-13.6c0-9-1.7-13.9-6-19.1v-.2l24.8-7v12l.5.1c3.2-5.2 9.5-11.5 20.2-11.5 10.6 0 18 6.5 18 16.7v22.4c0 10.2 1 15.1 2.9 21v.3h-25.1v-.2c1.9-5.8 2.9-11.2 2.9-20.8v-21.5c0-5.2-2.5-8.9-8.3-8.9-4.4 0-8.3 2.6-10.6 5.9v24.4c0 10 1 15 2.9 20.9v.2z"/><path d="m212.7 74.1v-40.9h-6.7v-1.1l24.7-15.5h1.3v13.9h14.3v2.6h-14.3v40.4c0 7.2 3.8 9.5 8.6 9.5 4.2 0 6.7-1.9 6.8-2l.4.4c-2.8 4.7-9 9.4-18.6 9.4s-16.5-4.7-16.5-16.7z"/><path d="m281.9 81.5c-3.4 4.9-9.1 9.4-16.8 9.4-7.3 0-13.6-3.7-13.6-12 0-13 16.4-18.6 30-21.5v-7.4c0-7.1-2.9-10.3-11.5-10.3-4.7 0-10.2 1-15.6 3.2l-.5-.8c5.8-7.1 15.1-13.3 28.2-13.3 13 0 18.7 6.2 18.7 15.7v30.8c0 2.9 1.3 5.4 5.2 5.4 1.3 0 3-.4 4.6-1.4l.2.5c-1.7 4-5.9 11-16.1 11-7.3-.1-11.8-3.9-12.8-9.3zm-.4-2.3v-19.3c-8.5 2.3-13.1 7.1-13.1 12.7 0 4.7 2.8 7.8 8 7.8 2 0 3.7-.4 5.1-1.2z"/></svg>