<svg enable-background="new 0 0 1200.3 922.1" viewBox="0 0 1200.3 922.1" xmlns="http://www.w3.org/2000/svg"><g fill="#fff"><path d="m494.7 729h-34.5l-2.4-20.6c-11.5 17.8-29.9 23.9-48.1 23.9-43.9 0-76.8-29-76.8-78.1 0-51.4 32.4-78.1 75.9-78.1 15.7 0 40.2 8.5 49 23.9v-82.6h36.9zm-124.9-74.8c0 26 18.8 43.9 42.4 43.9 23.3 0 43.3-16.9 43.3-43.9 0-26-20-43.6-43.3-43.6-23.7.1-42.4 16.7-42.4 43.6z"/><path d="m681.7 729h-34.5l-2.4-20.6c-11.5 17.8-29.9 23.9-48.1 23.9-43.9 0-76.8-29-76.8-78.1 0-51.4 32.4-78.1 75.9-78.1 15.7 0 40.2 8.5 49 23.9v-82.6h36.9zm-125-74.8c0 26 18.8 43.9 42.4 43.9 23.3 0 43.3-16.9 43.3-43.9 0-26-20-43.6-43.3-43.6-23.6.1-42.4 16.7-42.4 43.6z"/><path d="m732.5 516.3c10.9 0 21.8 7 21.8 21.5 0 14.2-10.9 21.5-21.8 21.5s-21.8-7.3-21.8-21.5c0-14.5 10.9-21.5 21.8-21.5zm-18.5 212.7h36.9v-149.8h-36.9z"/><path d="m927.6 650.6c0 18.5-7 44.5-31.5 55.7 24.8 12.4 30.9 30.3 30.9 49.3 0 41.1-31.5 66.6-74.7 66.6s-75.6-26.3-75.6-66.6h36.6c0 19.4 17.8 32.1 39 32.1s37.8-11.5 37.8-32.1-19.4-29.9-37.8-29.9c-46.6 0-75.6-28.4-75.6-75s33.9-75.6 75.6-75.6c41.4-.1 75.3 28.9 75.3 75.5zm-114.3 0c0 26 17.5 41.4 39 41.4 21.2 0 38.7-15.7 38.7-41.4s-17.5-42.1-38.7-42.1c-21.5.1-39 16.1-39 42.1z"/><path d="m1057.2 579.2-31.8 53.7 11.5 38.2-54.5-91.9h-43l58.9 99.6-58.8 99.4h43.1l117.7-199z"/><path d="m216.8 468.6-116.8 260.4h43.3l18.2-39.9h110.7l17.8 39.9h43.6zm-39.4 183.2 39.3-90.2 39.3 90.2z"/><path d="m375.5 452.7h426.2l23.1-172.1-135.5-180.6-217.7 19.8 222.8 298.3-35.8-30.2h-102.3l46.2-47.4-39-33zm371-73.9-157-210.3 85.1-27.1 105.9 141.8z"/><path d="m1059.2 707.3h-8.5v-3.7h21.1v3.7h-8.5v21.7h-4.2v-21.7zm14.8-3.7h4.7l8.3 19.6h.2l8.3-19.6h4.7v25.4h-3.7v-18.4h-.6l-7.5 18.4h-2.8l-7.5-18.4h-.5v18.4h-3.7v-25.4z"/></g></svg>