<?xml version="1.0" encoding="UTF-8"?> <svg xmlns="http://www.w3.org/2000/svg" xmlns:xlink="http://www.w3.org/1999/xlink" version="1.1" id="Layer_1" x="0px" y="0px" viewBox="0 0 1200.3 922.1" style="enable-background:new 0 0 1200.3 922.1;" xml:space="preserve"> <style type="text/css"> .st0{fill:#FFFFFF;} </style> <g> <g> <path class="st0" d="M494.7,729h-34.5l-2.4-20.6c-11.5,17.8-29.9,23.9-48.1,23.9c-43.9,0-76.8-29-76.8-78.1 c0-51.4,32.4-78.1,75.9-78.1c15.7,0,40.2,8.5,49,23.9v-82.6h36.9V729z M369.8,654.2c0,26,18.8,43.9,42.4,43.9 c23.3,0,43.3-16.9,43.3-43.9c0-26-20-43.6-43.3-43.6C388.5,610.7,369.8,627.3,369.8,654.2z"></path> <path class="st0" d="M681.7,729h-34.5l-2.4-20.6c-11.5,17.8-29.9,23.9-48.1,23.9c-43.9,0-76.8-29-76.8-78.1 c0-51.4,32.4-78.1,75.9-78.1c15.7,0,40.2,8.5,49,23.9v-82.6h36.9V729z M556.7,654.2c0,26,18.8,43.9,42.4,43.9 c23.3,0,43.3-16.9,43.3-43.9c0-26-20-43.6-43.3-43.6C575.5,610.7,556.7,627.3,556.7,654.2z"></path> <path class="st0" d="M732.5,516.3c10.9,0,21.8,7,21.8,21.5c0,14.2-10.9,21.5-21.8,21.5c-10.9,0-21.8-7.3-21.8-21.5 C710.7,523.3,721.6,516.3,732.5,516.3z M714,729h36.9V579.2H714V729z"></path> <path class="st0" d="M927.6,650.6c0,18.5-7,44.5-31.5,55.7c24.8,12.4,30.9,30.3,30.9,49.3c0,41.1-31.5,66.6-74.7,66.6 s-75.6-26.3-75.6-66.6h36.6c0,19.4,17.8,32.1,39,32.1c21.2,0,37.8-11.5,37.8-32.1c0-20.6-19.4-29.9-37.8-29.9 c-46.6,0-75.6-28.4-75.6-75c0-46.6,33.9-75.6,75.6-75.6C893.7,575,927.6,604,927.6,650.6z M813.3,650.6c0,26,17.5,41.4,39,41.4 c21.2,0,38.7-15.7,38.7-41.4c0-25.7-17.5-42.1-38.7-42.1C830.8,608.6,813.3,624.6,813.3,650.6z"></path> <polygon class="st0" points="1057.2,579.2 1025.4,632.9 1036.9,671.1 982.4,579.2 939.4,579.2 998.3,678.8 939.5,778.2 982.6,778.2 1100.3,579.2 "></polygon> <path class="st0" d="M216.8,468.6L100,729h43.3l18.2-39.9h110.7L290,729h43.6L216.8,468.6z M177.4,651.8l39.3-90.2l39.3,90.2 H177.4z"></path> </g> <path class="st0" d="M375.5,452.7h426.2l23.1-172.1L689.3,100l-217.7,19.8l222.8,298.3l-35.8-30.2H556.3l46.2-47.4l-39-33 L375.5,452.7z M746.5,378.8l-157-210.3l85.1-27.1l105.9,141.8L746.5,378.8z"></path> <g> <path class="st0" d="M1059.2,707.3h-8.5v-3.7h21.1v3.7h-8.5V729h-4.2V707.3z M1074,703.6h4.7l8.3,19.6h0.2l8.3-19.6h4.7V729h-3.7 v-18.4h-0.6l-7.5,18.4h-2.8l-7.5-18.4h-0.5V729h-3.7V703.6z"></path> </g> </g> </svg> 