<svg height="42.340725" width="198" xmlns="http://www.w3.org/2000/svg"><g fill="#ee2722"><path d="m0 0c-.854 0-1.524-.567-1.524-1.298 0-.729.67-1.291 1.524-1.291s1.532.562 1.532 1.291c0 .731-.678 1.298-1.532 1.298m0-3.46c-1.341 0-2.399.942-2.399 2.162 0 1.217 1.058 2.172 2.399 2.172 1.347 0 2.4-.955 2.4-2.172 0-1.22-1.053-2.162-2.4-2.162" transform="matrix(5.5498251 0 0 -5.5498251 47.80008839542 14.55719596078)"/><path d="m0 0c-.485 0-.873.398-.873.886v1.802c0 .431-.372.772-.838.772-.455 0-.823-.341-.823-.772v-2.688c-.482 0-.875.387-.875.871v1.817c0 .431-.37.772-.834.772-.455 0-.829-.341-.829-.772v-1.806c-0-.484-.388-.882-.873-.882v2.688c0 .909.763 1.646 1.702 1.646.509 0 .962-.209 1.27-.547.307.338.763.547 1.262.547.946 0 1.711-.737 1.711-1.646z" transform="matrix(5.5498251 0 0 -5.5498251 95.42591249107 33.75959080678)"/><path d="m0 0c-.229 0-.449.019-.649.063-.453.126-.717.6-.601 1.051.02.057.035.112.055.157l.01.01c.244-.269.643-.406 1.185-.406.795 0 1.426.561 1.426 1.27 0 .74-.631 1.319-1.426 1.319-.757 0-1.511-.418-1.511-1.337v-2.827c0-.475-.401-.854-.877-.854v3.681c0 1.268 1.003 2.209 2.388 2.209.606 0 1.176-.23 1.615-.63.434-.403.68-.963.68-1.561 0-1.203-1.007-2.145-2.295-2.145" transform="matrix(5.5498251 0 0 -5.5498251 111.18131096746 33.716302171)"/><path d="m0 0h-1.87v-5.162h-.038c-.463 0-.833.398-.833.871v4.291h-1.87c-.472 0-.851.391-.851.865h6.325c0-.474-.379-.865-.863-.865" transform="matrix(5.5498251 0 0 -5.5498251 145.71620761723 5.11083865807)"/><path d="m0 0-1.238-2.722h2.34l-1.25 2.735zm1.937-4.576-.462.996h-3.104l-.454-1.024c-.217-.409-.792-.533-1.23-.533l2.525 5.54c.146.316.4.503.693.503.289 0 .553-.187.697-.503l2.496-5.471c-.47-.045-.981.095-1.161.492" transform="matrix(5.5498251 0 0 -5.5498251 176.4272747731 5.33838148717)"/><path d="m0 0c-.472.499-1.162.829-1.927.829-1.352 0-2.454-.983-2.454-2.196 0-1.21 1.102-2.199 2.454-2.199.645 0 1.255.247 1.717.638.323.261.795.246 1.102-.017-.235-.366-.553-.681-.946-.929-.551-.354-1.198-.535-1.873-.535-1.827 0-3.307 1.368-3.307 3.042 0 1.682 1.48 3.052 3.307 3.052 1.301 0 2.483-.713 3.005-1.804-.331-.218-.797-.19-1.078.119" transform="matrix(5.5498251 0 0 -5.5498251 29.04778436503 9.35146001698)"/><path d="m0 0c-.01-.007-.027-.017-.041-.021 0 0 .027-.03.114-.137l-.015-.01c-.037-.034-.097-.027-.125.006-.097.118-.104.127-.104.127h-.112v.035c.008.039.041.076.085.076h.057c.037 0 .066.008.086.018.014.005.016.018.016.037 0 .012 0 .047-.102.047h-.152v-.284c0-.048-.04-.084-.09-.084h-.019v.401c0 .043.041.073.084.078h.177c.195-0 .214-.111.214-.158 0-.062-.028-.102-.073-.131m-.169.354c-.199 0-.365-.141-.365-.317 0-.175.166-.317.365-.317.2 0 .368.142.368.317 0 .176-.168.317-.368.317m0-.729c-.256 0-.46.185-.46.412 0 .226.204.416.46.416.252 0 .456-.19.456-.416 0-.227-.204-.412-.456-.412" transform="matrix(5.5498251 0 0 -5.5498251 196.40720011561 29.84085930367)"/><path d="m0 0v-5.182c0-.464.404-.843.872-.843v5.177c0 .464-.399.848-.872.848" transform="matrix(5.5498251 0 0 -5.5498251 152.03246356354 .32244956179)"/></g></svg>