<svg viewBox="0 0 550.51 361.7" xmlns="http://www.w3.org/2000/svg" xmlns:xlink="http://www.w3.org/1999/xlink"><linearGradient id="a" gradientUnits="userSpaceOnUse" x1="115.3" x2="45.13" y1="121.42" y2="177.69"><stop offset="0" stop-color="#bcd5ff"/><stop offset=".15" stop-color="#a3beff"/><stop offset=".39" stop-color="#82a0ff"/><stop offset=".61" stop-color="#6a8aff"/><stop offset=".82" stop-color="#5c7dff"/><stop offset="1" stop-color="#5778ff"/></linearGradient><linearGradient id="b" gradientTransform="matrix(.87 .5 -1 .58 760.29 -199.83)" gradientUnits="userSpaceOnUse" x1="-26.34" x2="-90.13" y1="608.91" y2="660.07"><stop offset="0" stop-color="#c0d6ff"/><stop offset=".3" stop-color="#c5dbff"/><stop offset=".65" stop-color="#d3e9ff"/><stop offset="1" stop-color="#e9ffff"/></linearGradient><linearGradient id="c" x1="509.34" x2="439.16" xlink:href="#a" y1="170.85" y2="227.13"/><linearGradient id="d" x1="250.61" x2="186.81" xlink:href="#b" y1="454.71" y2="505.86"/><linearGradient id="e" x1="509.34" x2="439.16" xlink:href="#a" y1="152.39" y2="208.66"/><linearGradient id="f" x1="232.14" x2="168.35" xlink:href="#b" y1="438.72" y2="489.87"/><linearGradient id="g" gradientTransform="matrix(-1 0 0 1 1677.46 0)" x1="1244.12" x2="1460.36" xlink:href="#b" y1="128.16" y2="128.16"/><linearGradient id="h" gradientTransform="matrix(-1 0 0 1 1677.46 0)" gradientUnits="userSpaceOnUse" x1="1244.12" x2="1281.25" y1="183.62" y2="183.62"><stop offset="0" stop-color="#5778ff"/><stop offset=".18" stop-color="#5c7dff"/><stop offset=".39" stop-color="#6a8aff"/><stop offset=".61" stop-color="#82a0ff"/><stop offset=".85" stop-color="#a3beff"/><stop offset="1" stop-color="#bcd5ff"/></linearGradient><linearGradient id="i" x1="1273.09" x2="1578.5" xlink:href="#h" y1="245.96" y2="245.96"/><linearGradient id="j" gradientTransform="matrix(-1 0 0 1 1677.46 0)" x1="1375.71" x2="1681.28" xlink:href="#b" y1="235.77" y2="235.77"/><linearGradient id="k" gradientTransform="matrix(-1 0 0 1 1677.46 0)" x1="1427.46" x2="1505.67" xlink:href="#b" y1="253.12" y2="253.12"/><clipPath id="l"><path d="m243.2 11.03 180.43 104.17-22.37 131.91-180.32-104.1z"/></clipPath><linearGradient id="m" gradientTransform="matrix(-1 0 0 1 1677.46 0)" x1="1258.96" x2="1564.53" xlink:href="#b" y1="168.05" y2="168.05"/><linearGradient id="n" gradientTransform="matrix(-1 0 0 1 1677.46 0)" x1="1238.85" x2="1317.07" xlink:href="#b" y1="145.61" y2="145.61"/><radialGradient id="o" cx="1362.1" cy="207.38" gradientTransform="matrix(-1 0 0 1 1677.46 0)" gradientUnits="userSpaceOnUse" r="87.6"><stop offset="0" stop-color="#2b3aa5"/><stop offset="1" stop-color="#182484"/></radialGradient><radialGradient id="p" cx="1342.94" cy="167.97" r="67.05" xlink:href="#o"/><linearGradient id="q" gradientTransform="matrix(-1 0 0 1 1677.46 0)" gradientUnits="userSpaceOnUse" x1="1318.8" x2="1377.86" y1="187.33" y2="80.97"><stop offset="0" stop-color="#5778ff"/><stop offset=".04" stop-color="#5c7dff"/><stop offset=".09" stop-color="#6a8aff"/><stop offset=".14" stop-color="#82a0ff"/><stop offset=".19" stop-color="#a3beff"/><stop offset=".22" stop-color="#bcd5ff"/></linearGradient><linearGradient id="r" gradientTransform="matrix(-1 0 0 1 1677.46 0)" x1="1391.36" x2="1352.04" xlink:href="#b" y1="187.71" y2="110.85"/><linearGradient id="s" gradientTransform="matrix(-1 0 0 1 1677.46 0)" gradientUnits="userSpaceOnUse" x1="1497.62" x2="1372.67" y1="325.86" y2="104.46"><stop offset="0" stop-color="#c0d6ff"/><stop offset=".08" stop-color="#c3d9ff"/><stop offset=".13" stop-color="#cce2ff"/><stop offset=".18" stop-color="#dcf2ff"/><stop offset=".21" stop-color="#e9ffff"/><stop offset=".26" stop-color="#d8eeff"/><stop offset=".31" stop-color="#cbe1ff"/><stop offset=".39" stop-color="#c2d8ff"/><stop offset=".51" stop-color="#c0d6ff"/><stop offset=".62" stop-color="#d0e6ff"/><stop offset=".75" stop-color="#e9ffff"/><stop offset="1" stop-color="#c0d6ff"/></linearGradient><path d="m88.18 189.43-43.18-24.94c-.74-.43-.65-1.17.21-1.66l42.79-24.7a3.2 3.2 0 0 1 2.88-.12l43.12 24.94c.74.43.65 1.17-.21 1.66l-42.78 24.7a3.2 3.2 0 0 1 -2.83.12z" fill="#242993" opacity=".5"/><path d="m89.4 202.22a4.21 4.21 0 0 1 -2.07-.49l-63.19-36.47a1.71 1.71 0 0 1 -1-1.47 2.19 2.19 0 0 1 1.3-1.79l62.56-36.13a5.14 5.14 0 0 1 4.69-.17l63.19 36.48a1.71 1.71 0 0 1 1 1.47 2.19 2.19 0 0 1 -1.27 1.79l-62.61 36.12a5.36 5.36 0 0 1 -2.6.66zm-1.6-1.3a4.24 4.24 0 0 0 3.75-.17l62.58-36.13c.5-.29.8-.65.8-1a.84.84 0 0 0 -.49-.65l-63.2-36.45a4.24 4.24 0 0 0 -3.75.17l-62.58 36.13c-.5.29-.8.65-.8 1a.84.84 0 0 0 .49.65z" fill="#42ffff"/><path d="m134.54 146.05v-8.33h-13.54l-30.15-17.38a3.2 3.2 0 0 0 -2.88.12l-29.97 17.31h-13.51v8.35a.86.86 0 0 0 .49.69l43.2 24.94a3.2 3.2 0 0 0 2.88-.12l42.78-24.7a1.22 1.22 0 0 0 .7-.88z" fill="url(#a)"/><path d="m88.18 163.43-43.18-24.94c-.74-.43-.65-1.17.21-1.66l42.79-24.7a3.2 3.2 0 0 1 2.88-.12l43.12 24.94c.74.43.65 1.17-.21 1.66l-42.78 24.7a3.2 3.2 0 0 1 -2.83.12z" fill="url(#b)"/><path d="m88.33 160.51-38.33-22.11c-.65-.38-.57-1 .18-1.48l37.97-21.92a2.84 2.84 0 0 1 2.56-.11l38.29 22.11c.65.38.57 1-.18 1.48l-37.93 21.92a2.84 2.84 0 0 1 -2.56.11z" fill="#242993"/><path d="m88.43 158.66-35.18-20.31c-.6-.35-.53-1 .17-1.36l34.84-20.11a2.61 2.61 0 0 1 2.35-.1l35.18 20.31c.6.35.53 1-.17 1.36l-34.84 20.11a2.61 2.61 0 0 1 -2.35.1z" fill="#4553c7"/><g fill="#42ffff"><path d="m88.71 136.4-4.12-2.38 2.25-1.3 4.11 2.38z"/><path d="m96.35 136.06-4.11 2.38-2.25-1.3 4.12-2.38z"/><path d="m87.77 136.94-2.24 1.29-2.25-1.29 2.25-1.3z"/><path d="m95.54 141.42-2.25 1.29-6.48-3.74 2.25-1.29z"/></g><path d="m482.22 237.75-43.22-24.94c-.74-.43-.65-1.17.21-1.66l42.79-24.71a3.2 3.2 0 0 1 2.88-.12l43.2 24.94c.74.43.65 1.17-.21 1.66l-42.78 24.7a3.2 3.2 0 0 1 -2.87.13z" fill="#242993" opacity=".5"/><path d="m483.44 248.95a4.05 4.05 0 0 1 -2-.47l-60.54-35a1.66 1.66 0 0 1 -.93-1.42 2.12 2.12 0 0 1 1.22-1.73l60-34.62a4.94 4.94 0 0 1 4.51-.17l60.54 35a1.66 1.66 0 0 1 .93 1.42 2.12 2.12 0 0 1 -1.22 1.73l-60 34.62a5.15 5.15 0 0 1 -2.51.64zm.24-72.88a4.24 4.24 0 0 0 -2.06.51l-60 34.62c-.47.27-.75.61-.75.91a.78.78 0 0 0 .46.6l60.54 35a4 4 0 0 0 3.57-.17l60-34.62c.47-.27.75-.61.75-.91a.79.79 0 0 0 -.46-.61l-60.54-35a3.1 3.1 0 0 0 -1.51-.34z" fill="#42ffff"/><path d="m528.58 195.49v-8.33h-13.58l-30.11-17.39a3.2 3.2 0 0 0 -2.88.12l-30 17.31h-13.49v8.35a.86.86 0 0 0 .49.69l43.2 24.94a3.2 3.2 0 0 0 2.88-.12l42.78-24.7a1.22 1.22 0 0 0 .71-.87z" fill="url(#c)"/><path d="m482.22 212.87-43.22-24.94c-.74-.43-.65-1.17.21-1.66l42.79-24.71a3.2 3.2 0 0 1 2.88-.12l43.2 24.94c.74.43.65 1.17-.21 1.66l-42.78 24.7a3.2 3.2 0 0 1 -2.87.13z" fill="url(#d)"/><path d="m482.22 212.87-43.22-24.94c-.74-.43-.65-1.17.21-1.66l42.79-24.71a3.2 3.2 0 0 1 2.88-.12l43.2 24.94c.74.43.65 1.17-.21 1.66l-42.78 24.7a3.2 3.2 0 0 1 -2.87.13z" fill="url(#d)"/><path d="m482.37 209.95-38.29-22.11c-.65-.38-.57-1 .18-1.48l37.92-21.89a2.84 2.84 0 0 1 2.56-.11l38.26 22.11c.65.38.57 1-.18 1.48l-37.92 21.89a2.84 2.84 0 0 1 -2.53.11z" fill="#242993"/><path d="m482.47 208.09-35.18-20.31c-.6-.35-.53-1 .17-1.36l34.84-20.11a2.61 2.61 0 0 1 2.35-.1l35.18 20.31c.6.35.53 1-.17 1.36l-34.85 20.12a2.61 2.61 0 0 1 -2.34.09z" fill="#4553c7"/><g fill="#42ffff"><path d="m482.75 185.83-4.12-2.37 2.25-1.3 4.11 2.37z"/><path d="m490.39 185.5-4.11 2.37-2.25-1.3 4.11-2.37z"/><path d="m481.81 186.37-2.24 1.3-2.25-1.3 2.25-1.3z"/><path d="m489.57 190.85-2.24 1.3-6.48-3.74 2.25-1.3z"/><path d="m528.59 176-18.38.11-25.32-14.62a3.2 3.2 0 0 0 -2.88.12l-25.67 14.82-17.82.11v10.82a.9.9 0 0 0 .49.61l43.2 24.94a3.2 3.2 0 0 0 2.88-.12l42.79-24.79a1.31 1.31 0 0 0 .68-.78z" opacity=".4"/></g><path d="m528.58 177v-8.33h-13.58l-30.11-17.39a3.2 3.2 0 0 0 -2.88.12l-30 17.31h-13.49v8.35a.86.86 0 0 0 .49.69l43.2 24.94a3.2 3.2 0 0 0 2.88-.12l42.78-24.7a1.22 1.22 0 0 0 .71-.87z" fill="url(#e)"/><path d="m482.22 194.4-43.22-24.94c-.74-.43-.65-1.17.21-1.66l42.79-24.7a3.2 3.2 0 0 1 2.88-.12l43.2 24.94c.74.43.65 1.17-.21 1.66l-42.78 24.7a3.2 3.2 0 0 1 -2.87.12z" fill="url(#f)"/><path d="m482.37 191.48-38.29-22.11c-.65-.38-.57-1 .18-1.48l37.92-21.89a2.84 2.84 0 0 1 2.56-.11l38.26 22.11c.65.38.57 1-.18 1.48l-37.92 21.89a2.84 2.84 0 0 1 -2.53.11z" fill="#242993"/><path d="m482.47 189.63-35.18-20.31c-.6-.35-.53-1 .17-1.36l34.84-20.11a2.61 2.61 0 0 1 2.35-.1l35.18 20.31c.6.35.53 1-.17 1.36l-34.84 20.11a2.61 2.61 0 0 1 -2.35.1z" fill="#4553c7"/><g fill="#42ffff"><path d="m482.75 167.37-4.12-2.38 2.25-1.29 4.11 2.37z"/><path d="m490.39 167.03-4.11 2.38-2.25-1.3 4.11-2.37z"/><path d="m481.81 167.91-2.24 1.3-2.25-1.3 2.25-1.3z"/><path d="m489.57 172.39-2.24 1.3-6.48-3.74 2.25-1.3z"/><path d="m389.3 347.39a4 4 0 0 1 -2-.53l-35.46-20.47.47-.82 35.48 20.43a3 3 0 0 0 3 0l158.4-91.45a.7.7 0 0 0 0-1.22l-36.19-20.89.47-.82 36.24 20.93a1.65 1.65 0 0 1 0 2.85l-158.4 91.45a4 4 0 0 1 -2.01.54z"/><path d="m89.51 269.55a5.06 5.06 0 0 1 -2.53-.67l-86.23-49.75a1.49 1.49 0 0 1 0-2.58l56.83-32.81.47.82-56.84 32.81a.55.55 0 0 0 0 .95l86.24 49.74a4.13 4.13 0 0 0 4.12 0l17.43-10.06.47.82-17.4 10a5.07 5.07 0 0 1 -2.56.73z"/></g><path d="m217.14 141.61 23.42-139-1.88-.79 2.83-1.59a2 2 0 0 1 2.18.15l187.19 108.1a5.28 5.28 0 0 1 2.43 4.75l-23.61 140.07a1.76 1.76 0 0 1 -1 1.43l-2.77 1.6-.48-2.59h.16l-186.04-107.38a5.28 5.28 0 0 1 -2.43-4.75z" fill="url(#g)"/><path d="m429.83 112.28 3.08-1.36a4.23 4.23 0 0 1 .4 2.32l-23.61 140.06a1.76 1.76 0 0 1 -1 1.43l-2.77 1.6-.48-2.59h.16l-9.41-5.44z" fill="url(#h)"/><path d="m216.63 148 187.19 108.12c1.45.83 2.68.35 2.94-1.14l23.61-140.06a5.28 5.28 0 0 0 -2.43-4.75l-187.19-108.08c-1.45-.83-2.68-.35-2.94 1.14l-23.61 140.06a5.28 5.28 0 0 0 2.43 4.71z" fill="#242993"/><path d="m243.2 11.03 180.43 104.17-22.37 131.91-180.32-104.1z" fill="#4553c7" opacity=".51"/><path d="m289.17 361.7a9.48 9.48 0 0 1 -4.63-1.17l-199.21-115.06a3.67 3.67 0 0 1 -2.14-3 2.78 2.78 0 0 1 1.58-2.36l125.73-72.59c2.16-1.25 5.79-1.11 8.26.32l199.24 115.1a3.67 3.67 0 0 1 2.14 3 2.78 2.78 0 0 1 -1.58 2.36l-125.76 72.55a7.37 7.37 0 0 1 -3.63.85zm-75-194a6.41 6.41 0 0 0 -3.15.72l-125.78 72.58a1.86 1.86 0 0 0 -1.11 1.55 2.79 2.79 0 0 0 1.67 2.14l199.2 115.02c2.17 1.25 5.46 1.4 7.32.32l125.73-72.59a1.86 1.86 0 0 0 1.11-1.54 2.79 2.79 0 0 0 -1.67-2.14l-199.19-115.06a8.58 8.58 0 0 0 -4.17-1.04z" fill="#42ffff"/><path d="m100.55 243.89 185.29 107a7.62 7.62 0 0 0 6.85.28l110.57-63.84c1.76-1 1.54-2.79-.49-4l-185.29-107a7.62 7.62 0 0 0 -6.85-.28l-110.58 63.88c-1.75 1.01-1.53 2.79.5 3.96z" fill="#242993" opacity=".5"/><path d="m99 214.36 10.22 5.33 102.44-59.14a7.43 7.43 0 0 1 6.69.28l176.65 102c1.69-.95 9.4-4.65 9.4-4.65l-3.74 9.74a2.23 2.23 0 0 1 -1 1.16l-107.97 62.28a7.43 7.43 0 0 1 -6.69-.28l-180.79-104.38a3.23 3.23 0 0 1 -1.52-1.61z" fill="url(#i)"/><path d="m100.55 216 185.28 107a7.62 7.62 0 0 0 6.85.28l110.57-63.84c1.76-1 1.54-2.79-.49-4l-185.29-107a7.62 7.62 0 0 0 -6.85-.28l-110.57 63.92c-1.75 1.02-1.53 2.79.5 3.92z" fill="url(#j)"/><path d="m341.72 299.88v-2c0-.19-.12-.28-.26-.2l-7.17 4.14a.63.63 0 0 0 -.26.5v2c0 .19.12.28.26.2l7.17-4.14a.63.63 0 0 0 .26-.5z" fill="#2859cb"/><path d="m331 306.06v-2c0-.19-.12-.28-.26-.2l-7.17 4.14a.63.63 0 0 0 -.26.5v2c0 .19.12.28.26.2l7.17-4.14a.63.63 0 0 0 .26-.5z" fill="#2859cb"/><path d="m374.43 253.49-154-88.9a3.31 3.31 0 0 0 -3.32 0l-54.83 31.72a1.18 1.18 0 0 0 0 2l153.9 88.86a3.31 3.31 0 0 0 3.31 0l54.9-31.68a1.18 1.18 0 0 0 .04-2z" fill="#adc8ff"/><path d="m374.43 255.53-.55.32-153.43-88.58a3.31 3.31 0 0 0 -3.32 0l-54.28 31.4-.55-.32a1.18 1.18 0 0 1 0-2l54.83-31.72a3.31 3.31 0 0 1 3.32 0l154 88.9a1.18 1.18 0 0 1 -.02 2z" fill="#91afff"/><g fill="#242993"><path d="m213 172.62 133.75 77.22 5.94-3.43-133.75-77.22z"/><path d="m198.42 181.04 125.45 72.43 5.95-3.43-125.45-72.43z"/><path d="m188.92 186.52 147.71 85.28 5.94-3.43-147.7-85.28z"/><path d="m179.43 192.01 147.7 85.27 5.95-3.43-147.71-85.28z"/><path d="m169.93 197.49 147.7 85.28 5.95-3.44-147.7-85.27z"/><path d="m354.83 254.51 5.94 3.43 5.95-3.43-5.95-3.43z"/><path d="m333.85 259.23 12.34 7.13 5.95-3.43-12.34-7.13z"/></g><path d="m214.52 275-41.52-24c-1.62-.94-1.62-2.46 0-3.39l28.39-16.39a6.49 6.49 0 0 1 5.88 0l41.52 24c1.62.94 1.62 2.46 0 3.39l-28.39 16.39a6.49 6.49 0 0 1 -5.88 0z" fill="url(#k)"/><path d="m248.79 256.6-41.52-24a6.49 6.49 0 0 0 -5.88 0l-28.39 16.4a2.54 2.54 0 0 0 -1 1c-.43-.82-.1-1.74 1-2.39l28.39-16.39a6.49 6.49 0 0 1 5.88 0l41.52 24c1.12.65 1.45 1.57 1 2.39a2.54 2.54 0 0 0 -1-1.01z" fill="#91afff"/><g clip-path="url(#l)" opacity=".11"><path d="m217.29 148.31 185.29 107a7.62 7.62 0 0 0 6.85.28l110.57-63.85c1.76-1 1.54-2.79-.49-4l-185.29-106.94a7.62 7.62 0 0 0 -6.85-.28l-110.57 63.84c-1.8 1.01-1.54 2.78.49 3.95z" fill="url(#m)"/><path d="m403.13 167.49-41.52-24c-1.62-.94-1.62-2.46 0-3.39l28.39-16.36a6.49 6.49 0 0 1 5.88 0l41.52 24c1.62.94 1.62 2.46 0 3.39l-28.4 16.36a6.49 6.49 0 0 1 -5.87 0z" fill="url(#n)"/><path d="m437.4 149.1-41.52-24a6.49 6.49 0 0 0 -5.88 0l-28.39 16.39a2.54 2.54 0 0 0 -1 1c-.43-.82-.1-1.74 1-2.39l28.39-16.36a6.49 6.49 0 0 1 5.88 0l41.52 24c1.12.65 1.45 1.57 1 2.39a2.54 2.54 0 0 0 -1-1.03z" fill="#91afff"/><path d="m455.65 205-154-88.9a3.31 3.31 0 0 0 -3.32 0l-54.83 31.72a1.18 1.18 0 0 0 0 2l153.9 88.86a3.31 3.31 0 0 0 3.31 0l54.94-31.68a1.18 1.18 0 0 0 0-2z" fill="#adc8ff"/><path d="m455.65 207-.55.32-153.43-88.58a3.31 3.31 0 0 0 -3.32 0l-54.28 31.4-.55-.32a1.18 1.18 0 0 1 0-2l54.83-31.72a3.31 3.31 0 0 1 3.32 0l154 88.9a1.18 1.18 0 0 1 -.02 2z" fill="#91afff"/><g fill="#242993"><path d="m257.88 145.62 134.13 77.44-5.31 3.07-134.14-77.45z"/><path d="m272.01 137.46 127.49 73.6-5.31 3.07-127.5-73.61z"/><path d="m409.02 216.56 11.91 6.88-5.31 3.06-11.91-6.87z"/><path d="m398.51 226.81 8.29 4.79-5.31 3.06-8.3-4.78z"/><path d="m280.86 132.34 148.93 85.98-5.31 3.07-148.93-85.98z"/><path d="m289.72 127.23 148.92 85.98-5.31 3.07-148.92-85.98z"/><path d="m298.58 122.12 148.92 85.98-5.31 3.06-148.93-85.98z"/></g></g><path d="m303.08 245.57 39.92-24.57-89.75-51.81-42.35 28.47z" fill="url(#o)" opacity=".42"/><path d="m343 221 9.14-57.75-84.22-48.31v62.6z" fill="url(#p)" opacity=".42"/><g fill="#42ffff"><path d="m349.55 91.83-9.54-5.43.33-2.06 9.54 5.43z" opacity=".5"/><path d="m354.44 94.61-3.43-1.95.32-2.07 3.44 1.96z" opacity=".5"/><path d="m358.24 96.77-2.34-1.33.33-2.06 2.33 1.32z" opacity=".5"/><path d="m344.47 94.07-5.2-2.95.33-2.07 5.2 2.96z" opacity=".5"/><path d="m352.3 98.52-6.37-3.62.32-2.06 6.37 3.62z" opacity=".5"/><path d="m356.09 100.68-2.34-1.33.33-2.06 2.33 1.33z" opacity=".5"/><path d="m359.7 102.73-2.34-1.32.33-2.07 2.33 1.33z" opacity=".5"/><path d="m342.29 97.97-3.76-2.14.33-2.06 3.76 2.14z"/><path d="m345.04 99.53-1.29-.73.32-2.07 1.29.74z"/><path d="m348.83 101.69-2.34-1.33.33-2.07 2.33 1.33z" opacity=".5"/><path d="m351.67 108.44-13.88-7.9.33-2.06 13.88 7.9z" opacity=".5"/><path d="m356.56 111.22-3.43-1.95.32-2.07 3.44 1.96z" opacity=".5"/><path d="m340.81 107.4-3.76-2.14.33-2.07 3.76 2.14z" opacity=".5"/><path d="m349.64 112.42-7.37-4.19.32-2.07 7.37 4.19z" opacity=".5"/><path d="m353.43 114.57-2.33-1.32.32-2.07 2.33 1.33z" opacity=".5"/><path d="m344.01 114.35-7.7-4.38.33-2.06 7.69 4.37z" opacity=".5"/><path d="m351.03 118.34-5.57-3.16.33-2.07 5.56 3.17z"/><path d="m356.25 121.31-3.76-2.14.32-2.06 3.76 2.14z" opacity=".5"/><path d="m338.17 116.16-2.6-1.47.32-2.07 2.6 1.48z" opacity=".5"/><path d="m343.06 118.94-3.43-1.95.32-2.06 3.44 1.95z" opacity=".5"/><path d="m350.05 122.92-5.53-3.15.32-2.06 5.54 3.15z" opacity=".5"/><path d="m342.79 123.93-7.96-4.53.32-2.06 7.97 4.52z" opacity=".5"/><path d="m351.71 129-7.46-4.25.32-2.06 7.46 4.24z" opacity=".5"/><path d="m355.5 131.15-2.33-1.32.32-2.07 2.33 1.33z"/><path d="m359.14 133.22-2.34-1.32.33-2.07 2.33 1.33z" opacity=".5"/><path d="m338.86 126.83-4.77-2.72.32-2.06 4.77 2.71z" opacity=".5"/><path d="m364.73 100.46 6.62 3.76.32-2.06-6.61-3.76z"/><path d="m365.41 105.98 5.2 2.96.32-2.07-5.2-2.95z" opacity=".5"/><path d="m366.1 111.51 3.76 2.14.33-2.07-3.76-2.13z" opacity=".5"/><path d="m363.65 115.25 5.47 3.11.33-2.06-5.47-3.11z" opacity=".5"/><path d="m364.62 120.94 3.76 2.14.33-2.07-3.76-2.14z" opacity=".5"/><path d="m362.87 125.08 4.77 2.71.33-2.06-4.77-2.72z" opacity=".5"/><path d="m364.3 131.03 2.6 1.47.33-2.06-2.6-1.48z" opacity=".5"/><path d="m361.13 134.35 5.03 2.87.33-2.07-5.04-2.86z" opacity=".5"/><path d="m360.65 139.22 4.77 2.71.33-2.06-4.77-2.71z" opacity=".5"/><path d="m342.35 128.81-2.03-1.16.32-2.06 2.03 1.15z" opacity=".5"/><path d="m348.37 132.23-4.57-2.59.33-2.07 4.56 2.6z" opacity=".5"/><path d="m386.56 112.78-9.54-5.42.32-2.06 9.54 5.42z" opacity=".5"/><path d="m391.45 115.57-3.44-1.96.33-2.06 3.43 1.95z" opacity=".5"/><path d="m395.24 117.72-2.33-1.33.32-2.06 2.33 1.33z"/><path d="m381.48 115.03-5.2-2.96.32-2.06 5.2 2.96z" opacity=".5"/><path d="m389.3 119.48-6.37-3.62.33-2.07 6.37 3.63z" opacity=".5"/><path d="m393.09 121.64-2.33-1.33.32-2.06 2.34 1.32z"/><path d="m396.7 123.69-2.33-1.33.32-2.06 2.33 1.32z" opacity=".5"/><path d="m379.3 118.92-3.76-2.13.32-2.07 3.76 2.14z" opacity=".5"/><path d="m382.04 120.48-1.29-.73.33-2.06 1.28.73z" opacity=".5"/><path d="m385.83 122.64-2.33-1.33.32-2.06 2.33 1.33z" opacity=".5"/><path d="m388.68 129.39-13.88-7.89.32-2.06 13.88 7.89z" opacity=".5"/><path d="m393.57 132.18-3.44-1.96.33-2.06 3.43 1.95z" opacity=".5"/><path d="m377.82 128.35-3.76-2.14.32-2.06 3.76 2.14z" opacity=".5"/><path d="m386.64 133.37-7.37-4.19.33-2.06 7.37 4.19z" opacity=".5"/><path d="m390.43 135.53-2.33-1.33.32-2.06 2.34 1.32z" opacity=".5"/><path d="m381.01 135.3-7.7-4.37.33-2.07 7.69 4.38z"/><path d="m388.03 139.3-5.56-3.17.32-2.06 5.57 3.16z" opacity=".5"/><path d="m393.25 142.26-3.76-2.13.32-2.07 3.76 2.14z" opacity=".5"/><path d="m375.17 137.12-2.6-1.48.33-2.06 2.6 1.48z" opacity=".5"/><path d="m380.06 139.9-3.43-1.95.32-2.07 3.44 1.96z" opacity=".5"/><path d="m387.06 143.88-5.54-3.15.33-2.06 5.53 3.14z"/><path d="m379.8 144.88-7.97-4.53.33-2.06 7.96 4.53z" opacity=".5"/><path d="m388.71 149.95-7.46-4.24.33-2.06 7.46 4.24z" opacity=".5"/><path d="m392.5 152.11-2.33-1.33.32-2.06 2.34 1.32z" opacity=".5"/><path d="m396.14 154.18-2.33-1.33.32-2.06 2.33 1.33z" opacity=".5"/><path d="m375.86 147.78-4.77-2.71.33-2.07 4.77 2.72z" opacity=".5"/><path d="m401.73 121.42 6.62 3.76.32-2.07-6.61-3.76z"/><path d="m402.41 126.94 5.2 2.95.32-2.06-5.19-2.96z" opacity=".5"/><path d="m403.11 132.47 3.76 2.13.32-2.06-3.76-2.14z" opacity=".5"/><path d="m400.66 136.21 5.47 3.11.32-2.07-5.47-3.11z" opacity=".5"/><path d="m401.63 141.89 3.76 2.14.32-2.06-3.76-2.14z" opacity=".5"/><path d="m399.88 146.03 4.77 2.72.32-2.07-4.77-2.71z" opacity=".5"/><path d="m401.31 151.98 2.6 1.48.32-2.06-2.6-1.48z" opacity=".5"/><path d="m398.13 155.31 5.04 2.86.32-2.06-5.04-2.86z" opacity=".5"/><path d="m397.65 160.17 4.78 2.72.32-2.07-4.77-2.71z" opacity=".5"/><path d="m379.35 149.76-2.03-1.15.32-2.06 2.03 1.15z"/><path d="m385.37 153.19-4.56-2.6.32-2.06 4.57 2.6z" opacity=".5"/><path d="m342.88 134.28-9.53-5.43.32-2.06 9.54 5.43z" opacity=".5"/><path d="m347.78 137.06-3.44-1.95.33-2.07 3.43 1.96z" opacity=".5"/><path d="m351.57 139.22-2.34-1.33.33-2.06 2.33 1.32z" opacity=".5"/><path d="m337.8 136.52-5.19-2.95.32-2.07 5.2 2.96z" opacity=".5"/><path d="m345.63 140.97-6.37-3.62.32-2.06 6.37 3.62z" opacity=".5"/><path d="m349.42 143.13-2.33-1.33.32-2.06 2.34 1.33z" opacity=".5"/><path d="m353.03 145.18-2.34-1.33.33-2.06 2.33 1.33z" opacity=".5"/><path d="m335.63 140.42-3.77-2.14.33-2.06 3.76 2.14z" opacity=".5"/><path d="m338.37 141.98-1.29-.73.33-2.06 1.28.73z" opacity=".5"/><path d="m342.16 144.14-2.34-1.33.33-2.06 2.33 1.32z" opacity=".5"/><path d="m345 150.89-13.88-7.89.33-2.07 13.88 7.89z" opacity=".5"/><path d="m349.9 153.67-3.44-1.95.33-2.07 3.43 1.96z" opacity=".5"/><path d="m334.14 149.85-3.76-2.14.33-2.06 3.76 2.13z" opacity=".5"/><path d="m342.97 154.87-7.37-4.19.33-2.07 7.36 4.19z" opacity=".5"/><path d="m346.76 157.02-2.33-1.33.32-2.06 2.33 1.33z" opacity=".5"/><path d="m337.34 156.8-7.7-4.38.33-2.06 7.69 4.38z" opacity=".5"/><path d="m344.36 160.79-5.56-3.16.32-2.07 5.56 3.17z" opacity=".5"/><path d="m349.58 163.76-3.76-2.14.32-2.06 3.76 2.14z" opacity=".5"/><path d="m331.5 158.61-2.6-1.47.33-2.07 2.59 1.48z" opacity=".5"/><path d="m336.39 161.4-3.43-1.96.32-2.06 3.44 1.95z" opacity=".5"/><path d="m343.38 165.37-5.53-3.15.33-2.06 5.53 3.15z" opacity=".5"/><path d="m336.12 166.38-7.96-4.53.33-2.06 7.96 4.52z" opacity=".5"/><path d="m345.04 171.45-7.46-4.24.32-2.07 7.46 4.24z" opacity=".5"/><path d="m348.83 173.6-2.33-1.32.32-2.07 2.33 1.33z" opacity=".5"/><path d="m352.47 175.67-2.34-1.32.33-2.07 2.33 1.33z" opacity=".5"/><path d="m332.19 169.28-4.77-2.72.33-2.06 4.76 2.71z" opacity=".5"/><path d="m358.06 142.91 6.62 3.76.32-2.06-6.61-3.76z" opacity=".5"/><path d="m358.74 148.43 5.2 2.96.32-2.07-5.2-2.95z" opacity=".5"/><path d="m359.44 153.96 3.75 2.14.33-2.06-3.76-2.14z" opacity=".5"/><path d="m356.99 157.7 5.46 3.11.33-2.06-5.47-3.11z" opacity=".5"/><path d="m357.95 163.39 3.76 2.14.33-2.07-3.76-2.14z" opacity=".5"/><path d="m356.2 167.53 4.77 2.71.33-2.06-4.77-2.72z" opacity=".5"/><path d="m357.63 173.48 2.6 1.47.33-2.06-2.6-1.48z" opacity=".5"/><path d="m354.46 176.8 5.03 2.87.33-2.07-5.04-2.86z" opacity=".5"/><path d="m353.98 181.67 4.77 2.71.33-2.06-4.77-2.72z" opacity=".5"/><path d="m335.68 171.26-2.03-1.16.32-2.06 2.03 1.15z" opacity=".5"/><path d="m341.7 174.68-4.57-2.59.33-2.07 4.56 2.6z" opacity=".5"/><path d="m343.32 190.54-7.7-4.38.32-2.07 7.71 4.39z" opacity=".5"/><path d="m348.6 193.54-3.04-1.73.33-2.06 3.03 1.73z" opacity=".5"/><path d="m379.89 155.24-9.54-5.43.32-2.06 9.54 5.42z" opacity=".5"/><path d="m384.78 158.02-3.43-1.96.32-2.06 3.43 1.95z" opacity=".5"/><path d="m388.57 160.17-2.33-1.33.32-2.06 2.33 1.33z" opacity=".5"/><path d="m374.81 157.48-5.2-2.96.32-2.06 5.2 2.96z" opacity=".5"/><path d="m382.63 161.93-6.37-3.62.33-2.06 6.37 3.62z" opacity=".5"/><path d="m386.42 164.09-2.33-1.33.32-2.06 2.34 1.32z" opacity=".5"/><path d="m390.03 166.14-2.33-1.33.32-2.06 2.34 1.32z" opacity=".5"/><path d="m372.63 161.38-3.76-2.14.32-2.07 3.76 2.14z" opacity=".5"/><path d="m375.37 162.94-1.28-.73.32-2.07 1.28.73z" opacity=".5"/><path d="m379.16 165.09-2.33-1.33.32-2.06 2.34 1.33z" opacity=".5"/><path d="m382.01 171.84-13.88-7.89.32-2.06 13.88 7.89z" opacity=".5"/><path d="m386.9 174.63-3.44-1.96.33-2.06 3.43 1.95z" opacity=".5"/><path d="m371.15 170.8-3.76-2.14.32-2.06 3.76 2.14z" opacity=".5"/><path d="m379.97 175.82-7.36-4.19.32-2.06 7.37 4.19z" opacity=".5"/><path d="m383.76 177.98-2.33-1.33.32-2.06 2.34 1.32z" opacity=".5"/><path d="m374.34 177.75-7.69-4.37.32-2.07 7.7 4.38z" opacity=".5"/><path d="m381.36 181.75-5.56-3.17.32-2.06 5.57 3.16z" opacity=".5"/><path d="m386.58 184.72-3.76-2.14.32-2.07 3.76 2.14z" opacity=".5"/><path d="m368.5 179.57-2.59-1.48.32-2.06 2.6 1.48z" opacity=".5"/><path d="m373.4 182.35-3.44-1.95.33-2.06 3.43 1.95z" opacity=".5"/><path d="m380.39 186.33-5.54-3.15.33-2.06 5.53 3.14z" opacity=".5"/><path d="m373.13 187.33-7.96-4.52.32-2.07 7.96 4.53z" opacity=".5"/><path d="m382.04 192.4-7.46-4.24.33-2.06 7.46 4.24z" opacity=".5"/><path d="m385.83 194.56-2.33-1.33.32-2.06 2.34 1.33z" opacity=".5"/><path d="m389.47 196.63-2.33-1.33.32-2.06 2.34 1.32z" opacity=".5"/><path d="m369.19 190.23-4.76-2.71.32-2.06 4.77 2.71z" opacity=".5"/><path d="m395.07 163.87 6.61 3.76.32-2.07-6.61-3.76z" opacity=".5"/><path d="m395.74 169.39 5.2 2.95.32-2.06-5.19-2.96z" opacity=".5"/><path d="m396.44 174.92 3.76 2.14.32-2.07-3.76-2.14z" opacity=".5"/><path d="m393.99 178.66 5.47 3.11.32-2.06-5.47-3.12z" opacity=".5"/><path d="m394.96 184.34 3.76 2.14.32-2.06-3.76-2.14z" opacity=".5"/><path d="m393.21 188.48 4.77 2.72.32-2.07-4.77-2.71z" opacity=".5"/><path d="m394.64 194.43 2.6 1.48.32-2.06-2.6-1.48z" opacity=".5"/><path d="m391.46 197.76 5.04 2.86.32-2.06-5.03-2.86z" opacity=".5"/><path d="m390.99 202.63 4.77 2.71.32-2.07-4.77-2.71z" opacity=".5"/><path d="m372.68 192.21-2.03-1.15.33-2.06 2.02 1.15z" opacity=".5"/><path d="m378.7 195.64-4.56-2.6.32-2.06 4.57 2.6z" opacity=".5"/><path d="m380.33 211.5-7.71-4.39.33-2.06 7.7 4.38z" opacity=".5"/><path d="m385.6 214.5-3.03-1.73.32-2.06 3.04 1.72z" opacity=".5"/><path d="m260.62 40.81-9.54-5.43.33-2.06 9.54 5.42z" opacity=".5"/><path d="m265.51 43.59-3.43-1.96.32-2.06 3.44 1.95z" opacity=".5"/><path d="m269.31 45.74-2.34-1.32.33-2.07 2.33 1.33z" opacity=".5"/><path d="m255.54 43.05-5.2-2.96.33-2.06 5.19 2.96z" opacity=".5"/><path d="m263.37 47.5-6.37-3.62.32-2.06 6.37 3.62z" opacity=".5"/><path d="m267.16 49.66-2.34-1.33.33-2.06 2.33 1.32z" opacity=".5"/><path d="m270.77 51.71-2.34-1.33.33-2.06 2.33 1.33z" opacity=".5"/><path d="m253.36 46.95-3.76-2.14.33-2.06 3.76 2.13z"/><path d="m256.11 48.51-1.29-.73.32-2.07 1.29.73z"/><path d="m259.9 50.66-2.34-1.32.33-2.07 2.33 1.33z" opacity=".5"/><path d="m262.74 57.42-13.88-7.9.33-2.06 13.88 7.89z" opacity=".5"/><path d="m267.63 60.2-3.43-1.96.32-2.06 3.44 1.95z" opacity=".5"/><path d="m251.88 56.38-3.76-2.14.32-2.07 3.77 2.14z" opacity=".5"/><path d="m260.71 61.39-7.37-4.19.32-2.06 7.37 4.19z" opacity=".5"/><path d="m264.5 63.55-2.33-1.33.32-2.06 2.33 1.33z" opacity=".5"/><path d="m255.07 63.33-7.69-4.38.33-2.06 7.69 4.37z" opacity=".5"/><path d="m262.1 67.32-5.57-3.16.33-2.07 5.56 3.17z"/><path d="m267.31 70.29-3.76-2.14.33-2.07 3.76 2.14z" opacity=".5"/><path d="m249.24 65.14-2.6-1.48.32-2.06 2.6 1.48z" opacity=".5"/><path d="m254.13 67.92-3.43-1.95.32-2.06 3.44 1.95z" opacity=".5"/><path d="m261.12 71.9-5.53-3.15.32-2.06 5.54 3.15z" opacity=".5"/><path d="m253.86 72.91-7.96-4.53.32-2.07 7.96 4.53z" opacity=".5"/><path d="m262.78 77.97-7.46-4.24.32-2.06 7.46 4.24z" opacity=".5"/><path d="m266.57 80.13-2.34-1.33.33-2.06 2.33 1.33z"/><path d="m270.21 82.2-2.34-1.33.33-2.06 2.33 1.33z" opacity=".5"/><path d="m249.93 75.8-4.77-2.71.32-2.06 4.77 2.71z" opacity=".5"/><path d="m275.8 49.44 6.61 3.76.33-2.06-6.62-3.76z"/><path d="m276.48 54.96 5.19 2.95.33-2.06-5.2-2.96z" opacity=".5"/><path d="m277.17 60.49 3.76 2.14.33-2.07-3.76-2.14z" opacity=".5"/><path d="m274.72 64.23 5.47 3.11.33-2.06-5.47-3.11z" opacity=".5"/><path d="m275.69 69.92 3.76 2.13.33-2.06-3.76-2.14z" opacity=".5"/><path d="m273.94 74.06 4.77 2.71.33-2.07-4.77-2.71z" opacity=".5"/><path d="m275.37 80 2.6 1.48.33-2.06-2.6-1.48z" opacity=".5"/><path d="m272.19 83.33 5.04 2.86.33-2.06-5.04-2.86z" opacity=".5"/><path d="m271.72 88.2 4.77 2.71.32-2.06-4.76-2.72z" opacity=".5"/><path d="m253.41 77.79-2.02-1.16.32-2.06 2.03 1.15z" opacity=".5"/><path d="m259.44 81.21-4.57-2.6.33-2.06 4.56 2.6z" opacity=".5"/><path d="m297.63 61.76-9.54-5.42.32-2.07 9.54 5.43z" opacity=".5"/><path d="m302.52 64.54-3.44-1.95.33-2.06 3.43 1.95z" opacity=".5"/><path d="m306.31 66.7-2.33-1.33.32-2.06 2.33 1.33z"/><path d="m292.54 64.01-5.19-2.96.32-2.06 5.2 2.95z" opacity=".5"/><path d="m300.37 68.46-6.37-3.62.32-2.07 6.37 3.62z" opacity=".5"/><path d="m304.16 70.61-2.33-1.32.32-2.07 2.34 1.33z"/><path d="m307.77 72.67-2.33-1.33.32-2.06 2.33 1.32z" opacity=".5"/><path d="m290.37 67.9-3.76-2.13.32-2.07 3.76 2.14z" opacity=".5"/><path d="m293.11 69.46-1.29-.73.33-2.06 1.28.73z" opacity=".5"/><path d="m296.9 71.62-2.33-1.33.32-2.06 2.33 1.33z" opacity=".5"/><path d="m299.75 78.37-13.88-7.89.32-2.06 13.88 7.89z" opacity=".5"/><path d="m304.64 81.15-3.44-1.95.33-2.06 3.43 1.95z" opacity=".5"/><path d="m288.88 77.33-3.75-2.14.32-2.06 3.76 2.14z" opacity=".5"/><path d="m297.71 82.35-7.37-4.19.33-2.06 7.37 4.19z" opacity=".5"/><path d="m301.5 84.51-2.33-1.33.32-2.07 2.34 1.33z" opacity=".5"/><path d="m292.08 84.28-7.7-4.37.33-2.07 7.69 4.38z"/><path d="m299.1 88.28-5.56-3.17.32-2.06 5.57 3.16z" opacity=".5"/><path d="m304.32 91.24-3.76-2.14.32-2.06 3.76 2.14z" opacity=".5"/><path d="m286.24 86.1-2.6-1.48.33-2.06 2.6 1.47z" opacity=".5"/><path d="m291.13 88.88-3.43-1.95.32-2.07 3.44 1.96z" opacity=".5"/><path d="m298.13 92.86-5.54-3.15.33-2.07 5.53 3.15z"/><path d="m290.86 93.86-7.96-4.53.33-2.06 7.96 4.53z" opacity=".5"/><path d="m299.78 98.93-7.46-4.24.32-2.06 7.46 4.24z" opacity=".5"/><path d="m303.57 101.09-2.33-1.33.32-2.06 2.33 1.32z" opacity=".5"/><path d="m307.21 103.16-2.33-1.33.32-2.06 2.33 1.32z" opacity=".5"/><path d="m286.93 96.76-4.77-2.71.33-2.07 4.77 2.72z" opacity=".5"/><path d="m312.8 70.39 6.62 3.77.32-2.07-6.61-3.76z"/><path d="m313.48 75.91 5.2 2.96.32-2.06-5.2-2.96z" opacity=".5"/><path d="m314.18 81.44 3.76 2.14.32-2.06-3.76-2.14z" opacity=".5"/><path d="m311.73 85.19 5.47 3.11.32-2.07-5.47-3.11z" opacity=".5"/><path d="m312.69 90.87 3.77 2.14.32-2.06-3.76-2.14z" opacity=".5"/><path d="m310.95 95.01 4.76 2.71.33-2.06-4.77-2.71z" opacity=".5"/><path d="m312.38 100.96 2.6 1.48.32-2.07-2.6-1.47z" opacity=".5"/><path d="m309.2 104.29 5.03 2.86.33-2.06-5.04-2.87z" opacity=".5"/><path d="m308.72 109.15 4.77 2.71.33-2.06-4.77-2.71z" opacity=".5"/><path d="m290.42 98.74-2.03-1.15.32-2.06 2.03 1.15z"/><path d="m296.44 102.17-4.56-2.6.32-2.06 4.56 2.59z" opacity=".5"/><path d="m253.95 83.26-9.54-5.43.33-2.06 9.54 5.42z" opacity=".5"/><path d="m258.85 86.04-3.44-1.95.33-2.07 3.43 1.96z" opacity=".5"/><path d="m262.64 88.19-2.34-1.32.33-2.06 2.33 1.32z" opacity=".5"/><path d="m248.87 85.5-5.2-2.95.33-2.07 5.2 2.96z" opacity=".5"/><path d="m256.7 89.95-6.37-3.62.32-2.06 6.37 3.62z" opacity=".5"/><path d="m260.49 92.11-2.33-1.33.32-2.06 2.33 1.33z" opacity=".5"/><path d="m264.1 94.16-2.34-1.33.33-2.06 2.33 1.33z" opacity=".5"/><path d="m246.69 89.4-3.76-2.14.33-2.06 3.76 2.13z" opacity=".5"/><path d="m249.44 90.96-1.29-.73.32-2.07 1.29.73z" opacity=".5"/><path d="m253.23 93.11-2.34-1.32.33-2.07 2.33 1.33z" opacity=".5"/><path d="m256.07 99.87-13.88-7.9.33-2.06 13.88 7.89z" opacity=".5"/><path d="m260.96 102.65-3.43-1.95.33-2.07 3.43 1.96z" opacity=".5"/><path d="m245.21 98.83-3.76-2.14.33-2.07 3.76 2.14z" opacity=".5"/><path d="m254.04 103.84-7.37-4.18.32-2.07 7.37 4.19z" opacity=".5"/><path d="m257.83 106-2.33-1.33.32-2.06 2.33 1.33z" opacity=".5"/><path d="m248.41 105.78-7.7-4.38.33-2.06 7.69 4.37z" opacity=".5"/><path d="m255.43 109.77-5.57-3.16.33-2.07 5.56 3.17z" opacity=".5"/><path d="m260.65 112.74-3.76-2.14.32-2.07 3.76 2.14z" opacity=".5"/><path d="m242.57 107.59-2.6-1.48.33-2.06 2.59 1.48z" opacity=".5"/><path d="m247.46 110.37-3.43-1.95.32-2.06 3.44 1.95z" opacity=".5"/><path d="m254.45 114.35-5.53-3.15.32-2.06 5.54 3.15z" opacity=".5"/><path d="m247.19 115.36-7.96-4.53.33-2.06 7.96 4.52z" opacity=".5"/><path d="m256.11 120.43-7.46-4.25.32-2.06 7.46 4.24z" opacity=".5"/><path d="m259.9 122.58-2.34-1.33.33-2.06 2.33 1.33z" opacity=".5"/><path d="m263.54 124.65-2.34-1.33.33-2.06 2.33 1.33z" opacity=".5"/><path d="m243.26 118.25-4.77-2.71.32-2.06 4.77 2.71z" opacity=".5"/><path d="m269.13 91.89 6.62 3.76.32-2.06-6.62-3.76z" opacity=".5"/><path d="m269.81 97.41 5.19 2.95.33-2.06-5.2-2.96z" opacity=".5"/><path d="m270.5 102.94 3.76 2.14.33-2.07-3.76-2.13z" opacity=".5"/><path d="m268.05 106.68 5.47 3.11.33-2.06-5.47-3.11z" opacity=".5"/><path d="m269.02 112.37 3.76 2.13.33-2.06-3.76-2.14z" opacity=".5"/><path d="m267.27 116.51 4.77 2.71.33-2.06-4.77-2.72z" opacity=".5"/><path d="m268.7 122.45 2.6 1.48.33-2.06-2.6-1.48z" opacity=".5"/><path d="m265.53 125.78 5.03 2.87.33-2.07-5.04-2.86z" opacity=".5"/><path d="m265.05 130.65 4.77 2.71.33-2.06-4.77-2.72z" opacity=".5"/><path d="m246.75 120.24-2.03-1.16.32-2.06 2.03 1.15z" opacity=".5"/><path d="m252.77 123.66-4.57-2.6.33-2.06 4.56 2.6z" opacity=".5"/><path d="m254.39 139.52-7.7-4.38.32-2.07 7.71 4.38z" opacity=".5"/><path d="m259.67 142.52-3.04-1.73.33-2.06 3.03 1.73z" opacity=".5"/><path d="m290.96 104.21-9.54-5.42.32-2.07 9.54 5.43z" opacity=".5"/><path d="m295.85 107-3.44-1.96.33-2.06 3.43 1.95z" opacity=".5"/><path d="m299.64 109.15-2.33-1.33.32-2.06 2.33 1.33z" opacity=".5"/><path d="m285.88 106.46-5.2-2.96.32-2.06 5.2 2.95z" opacity=".5"/><path d="m293.7 110.91-6.37-3.62.33-2.07 6.37 3.62z" opacity=".5"/><path d="m297.49 113.06-2.33-1.32.32-2.07 2.34 1.33z" opacity=".5"/><path d="m301.1 115.12-2.33-1.33.32-2.06 2.34 1.32z" opacity=".5"/><path d="m283.7 110.35-3.76-2.13.32-2.07 3.76 2.14z" opacity=".5"/><path d="m286.44 111.91-1.29-.73.33-2.06 1.28.73z" opacity=".5"/><path d="m290.23 114.07-2.33-1.33.32-2.06 2.34 1.33z" opacity=".5"/><path d="m293.08 120.82-13.88-7.89.32-2.06 13.88 7.89z" opacity=".5"/><path d="m297.97 123.61-3.43-1.96.32-2.06 3.43 1.95z" opacity=".5"/><path d="m282.22 119.78-3.76-2.14.32-2.06 3.76 2.14z" opacity=".5"/><path d="m291.04 124.8-7.37-4.19.33-2.06 7.37 4.19z" opacity=".5"/><path d="m294.83 126.96-2.33-1.33.32-2.06 2.34 1.32z" opacity=".5"/><path d="m285.41 126.73-7.7-4.37.33-2.07 7.69 4.38z" opacity=".5"/><path d="m292.43 130.73-5.56-3.17.32-2.06 5.57 3.16z" opacity=".5"/><path d="m297.65 133.69-3.76-2.13.32-2.07 3.76 2.14z" opacity=".5"/><path d="m279.57 128.55-2.59-1.48.32-2.06 2.6 1.47z" opacity=".5"/><path d="m284.47 131.33-3.44-1.95.33-2.07 3.43 1.96z" opacity=".5"/><path d="m291.46 135.31-5.54-3.15.33-2.06 5.53 3.14z" opacity=".5"/><path d="m284.19 136.31-7.96-4.53.33-2.06 7.96 4.53z" opacity=".5"/><path d="m293.11 141.38-7.46-4.24.33-2.06 7.46 4.24z" opacity=".5"/><path d="m296.9 143.54-2.33-1.33.32-2.06 2.34 1.32z" opacity=".5"/><path d="m300.54 145.61-2.33-1.33.32-2.06 2.34 1.32z" opacity=".5"/><path d="m280.26 139.21-4.77-2.71.33-2.07 4.77 2.72z" opacity=".5"/><path d="m306.13 112.84 6.62 3.77.32-2.07-6.61-3.76z" opacity=".5"/><path d="m306.81 118.36 5.2 2.96.32-2.06-5.2-2.96z" opacity=".5"/><path d="m307.51 123.89 3.76 2.14.32-2.06-3.76-2.14z" opacity=".5"/><path d="m305.06 127.64 5.47 3.11.32-2.07-5.47-3.11z" opacity=".5"/><path d="m306.03 133.32 3.76 2.14.32-2.06-3.76-2.14z" opacity=".5"/><path d="m304.28 137.46 4.77 2.72.32-2.07-4.77-2.71z" opacity=".5"/><path d="m305.71 143.41 2.6 1.48.32-2.07-2.6-1.47z" opacity=".5"/><path d="m302.53 146.74 5.04 2.86.32-2.06-5.04-2.86z" opacity=".5"/><path d="m302.06 151.6 4.76 2.72.33-2.07-4.77-2.71z" opacity=".5"/><path d="m283.75 141.19-2.03-1.15.33-2.07 2.02 1.16z" opacity=".5"/><path d="m289.77 144.62-4.56-2.6.32-2.06 4.57 2.59z" opacity=".5"/><path d="m291.4 160.47-7.71-4.38.32-2.06 7.71 4.38z" opacity=".5"/><path d="m296.67 163.47-3.03-1.72.32-2.06 3.04 1.72z" opacity=".5"/></g><path d="m259.11 86.88 8.89-5.13a.41.41 0 0 1 .44 0l111.64 64.46a1.58 1.58 0 0 1 .66 1.26v21.08a.63.63 0 0 1 -.18.5l-9 5.18-.07-10.18-103-59.48a1.58 1.58 0 0 1 -.66-1.26v-7.19z" fill="url(#q)"/><path d="m259.51 109.76 111.64 64.46c.36.21.66 0 .66-.5v-21.07a1.58 1.58 0 0 0 -.66-1.26l-111.64-64.46c-.36-.21-.66 0-.66.5v21.07a1.58 1.58 0 0 0 .66 1.26z" fill="url(#r)"/><path d="m274.91 105.5 86.93 51.11a59.87 59.87 0 0 0 -7.57 7.87l-87.57-50.56a59.37 59.37 0 0 1 8.21-8.42z" fill="#242993" opacity=".6"/><path d="m262.69 103.43 105.31 60.78c.25.14.45 0 .45-.34v-5.29a1.08 1.08 0 0 0 -.45-.86l-105.31-60.78c-.25-.14-.45 0-.45.34v5.29a1.08 1.08 0 0 0 .45.86z" fill="#242993"/><path d="m262.69 96.94 2.14 1.24v2.82a1.08 1.08 0 0 0 .45.86l103.13 59.54v2.44c0 .33-.2.48-.45.34l-105.27-60.75a1.08 1.08 0 0 1 -.45-.86v-5.29c0-.33.2-.49.45-.34z" fill="#4553c7"/><path d="m203.55 331.48-87.55-50.57c11.3-6.52 20.82-20.8 23.73-34.45a19.92 19.92 0 0 1 9.46-13.17l66.18-38.2a63.33 63.33 0 0 0 31.63-51.09c1.06-17.94 14.62-35.58 25.15-41.66l87.58 50.56c-10.37 6-21.79 22.72-23.09 40.36a64.12 64.12 0 0 1 -31.57 51.13l-68.3 39.43a19.92 19.92 0 0 0 -9.49 13.18c-2.91 13.65-12.43 27.93-23.73 34.45z" fill="url(#s)" opacity=".96"/><g fill="#4553c7"><path d="m272.13 102.38 87.58 50.56c-.7.41-1.4.85-2.09 1.3l-87.62-50.56c.74-.45 1.43-.89 2.13-1.3z" opacity=".8"/><g opacity=".32"><path d="m305.06 162.19 15.36 8.9.13-1.77-15.34-8.86z"/><path d="m297.32 157.7 5.43 3.15.15-1.73-5.42-3.13z"/><path d="m291.38 154.26 3.65 2.12.17-1.72-3.65-2.1z"/><path d="m311.69 170.24 8.44 4.92.13-1.78-8.43-4.9z"/><path d="m299.17 162.95 10.17 5.92.15-1.76-10.16-5.9z"/><path d="m293.19 159.46 3.67 2.14.17-1.73-3.67-2.13z"/><path d="m287.54 156.17 3.65 2.13.17-1.72-3.64-2.12z"/><path d="m313.7 175.67 6.15 3.6.12-1.8-6.13-3.59z"/><path d="m309.25 173.06 2.08 1.22.15-1.78-2.08-1.21z"/><path d="m303.15 169.49 3.75 2.2.15-1.78-3.74-2.18z"/><path d="m297.06 170.16 22.5 13.25.12-1.82-22.46-13.2z"/><path d="m289.3 165.59 5.44 3.2.17-1.76-5.43-3.19z"/><path d="m313.07 183.91 6.19 3.67.13-1.83-6.18-3.65z"/><path d="m298.75 175.44 11.93 7.06.15-1.81-11.92-7.04z"/><path d="m292.69 171.85 3.72 2.2.17-1.77-3.72-2.2z"/><path d="m306.3 184.25 12.67 7.54.13-1.84-12.65-7.51z"/><path d="m294.95 177.49 8.98 5.35.15-1.81-8.96-5.33z"/><path d="m286.63 172.54 5.98 3.56.18-1.78-5.97-3.55z"/><path d="m314.35 193.46 4.32 2.58.13-1.86-4.31-2.58z"/><path d="m306.29 188.63 5.65 3.38.14-1.85-5.64-3.36z"/><path d="m294.93 181.83 8.97 5.37.16-1.82-8.96-5.35z"/><path d="m305.16 192.38 13.21 7.95.13-1.88-13.18-7.92z"/><path d="m290.67 183.66 12.1 7.28.16-1.84-12.08-7.26z"/><path d="m284.6 180 3.73 2.25.18-1.81-3.72-2.23z"/><path d="m278.83 176.53 3.7 2.22.19-1.79-3.69-2.21z"/><path d="m310.09 199.82 7.97 4.83.14-1.9-7.96-4.8z"/><path d="m274.95 144.74-9.99-5.79.22-1.65 9.97 5.77z"/><path d="m272.32 147.31-7.86-4.59.22-1.66 7.85 4.57z"/><path d="m269.66 149.87-5.71-3.34.23-1.67 5.69 3.32z"/><path d="m271.79 155.28-8.34-4.92.22-1.68 8.33 4.89z"/><path d="m268.68 157.63-5.74-3.4.22-1.7 5.74 3.39z"/><path d="m269.74 162.49-7.32-4.36.23-1.71 7.31 4.34z"/><path d="m265.9 164.45-4-2.39.23-1.72 3.99 2.38z"/><path d="m269.17 170.72-7.79-4.69.23-1.74 7.78 4.67z"/><path d="m268.25 174.5-7.4-4.48.23-1.75 7.39 4.46z"/><path d="m304.32 196.33 3.35 2.03.15-1.87-3.34-2.02z"/><path d="m294.46 190.37 7.46 4.51.16-1.86-7.44-4.49z"/></g><g opacity=".32"><path d="m248.51 220.18-22.83-13.18 1.63-.95 22.83 13.19z"/><path d="m261.79 227.84-8.24-4.75 1.63-.94 8.24 4.75z"/><path d="m268.4 231.66-2.42-1.39 1.64-.94 2.41 1.39z"/><path d="m280.84 238.84-8.24-4.75 1.63-.95 8.24 4.76z"/><path d="m228.97 212.8-6.67-3.86 1.63-.94 6.67 3.85z"/><path d="m258.41 229.79-24.4-14.09 1.63-.94 24.4 14.09z"/><path d="m265.02 233.61-2.41-1.39 1.63-.94 2.42 1.39z"/><path d="m277.46 240.79-8.24-4.76 1.63-.94 8.24 4.76z"/><path d="m222.26 212.82-3.33-1.93 1.63-.94 3.33 1.93z"/><path d="m231.25 218.01-3.95-2.28 1.63-.95 3.96 2.29z"/><path d="m237.87 221.83-2.42-1.4 1.63-.94 2.42 1.4z"/><path d="m250.31 229.01-8.25-4.76 1.63-.94 8.25 4.76z"/><path d="m222.22 216.69-6.67-3.85 1.63-.94 6.67 3.85z"/><path d="m235.5 224.36-8.24-4.76 1.63-.94 8.24 4.76z"/><path d="m242.11 228.18-2.41-1.4 1.63-.94 2.41 1.39z"/><path d="m254.55 235.36-8.24-4.76 1.63-.94 8.24 4.75z"/><path d="m234.76 228.12-22.84-13.19 1.64-.94 22.83 13.19z"/><path d="m248.04 235.78-8.24-4.75 1.63-.94 8.24 4.75z"/><path d="m254.65 239.6-2.42-1.39 1.64-.94 2.41 1.39z"/><path d="m267.09 246.78-8.24-4.75 1.63-.95 8.24 4.76z"/><path d="m215.22 220.74-6.67-3.86 1.63-.94 6.67 3.85z"/><path d="m244.66 237.73-24.4-14.09 1.63-.94 24.4 14.09z"/><path d="m251.28 241.55-2.42-1.39 1.63-.95 2.42 1.4z"/><path d="m263.71 248.73-8.24-4.76 1.63-.94 8.24 4.76z"/><path d="m208.51 220.76-3.33-1.93 1.63-.94 3.33 1.92z"/><path d="m217.5 225.95-3.95-2.29 1.63-.94 3.95 2.29z"/><path d="m224.12 229.77-2.42-1.4 1.63-.94 2.42 1.39z"/><path d="m236.55 236.95-8.24-4.76 1.63-.94 8.25 4.76z"/><path d="m208.47 224.63-6.67-3.85 1.63-.94 6.67 3.85z"/><path d="m221.75 232.3-8.24-4.76 1.63-.94 8.24 4.75z"/><path d="m228.36 236.11-2.41-1.39 1.63-.94 2.41 1.39z"/><path d="m240.8 243.29-8.24-4.75 1.63-.94 8.24 4.75z"/><path d="m221.01 236.06-22.84-13.19 1.64-.94 22.83 13.19z"/><path d="m234.29 243.72-8.24-4.75 1.63-.95 8.24 4.76z"/><path d="m240.9 247.54-2.42-1.39 1.63-.94 2.42 1.39z"/><path d="m253.34 254.72-8.24-4.76 1.63-.94 8.24 4.76z"/><path d="m201.47 228.67-6.67-3.85 1.63-.94 6.67 3.85z"/><path d="m230.91 245.67-24.4-14.09 1.63-.94 24.4 14.09z"/><path d="m237.53 249.49-2.42-1.4 1.63-.94 2.42 1.4z"/><path d="m249.96 256.67-8.24-4.76 1.63-.94 8.24 4.76z"/><path d="m194.76 228.7-3.33-1.93 1.63-.94 3.33 1.92z"/><path d="m203.75 233.89-3.95-2.29 1.63-.94 3.95 2.29z"/><path d="m210.37 237.71-2.42-1.4 1.63-.94 2.42 1.39z"/><path d="m222.8 244.89-8.24-4.76 1.63-.94 8.25 4.75z"/><path d="m194.72 232.57-6.67-3.85 1.63-.94 6.67 3.85z"/><path d="m208 240.24-8.24-4.76 1.63-.94 8.24 4.75z"/><path d="m214.61 244.05-2.41-1.39 1.63-.94 2.41 1.39z"/><path d="m227.05 251.23-8.24-4.75 1.63-.95 8.24 4.76z"/></g></g><path d="m161.09 127-31.77-18.34 31.77-18.34 31.77 18.34zm-30-18.34 30 17.34 30-17.34-30-17.34z" fill="#88fff3"/><path d="m98.28 344.31-31.77-18.31 31.77-18.34 31.78 18.34zm-30.04-18.31 30 17.34 30-17.34-30-17.34z" fill="#88fff3"/><path d="m443.64 289.91-31.77-18.34 31.77-18.34 31.77 18.34zm-30-18.34 30 17.34 30-17.34-30-17.34z" fill="#88fff3"/></svg>