<svg height="24" viewBox="0 0 24 24" width="24" xmlns="http://www.w3.org/2000/svg"><g fill="none" fill-rule="evenodd"><path d="m0 0h24v24h-24z"/><g fill="#335eea"><path d="m16 7v2h3a1 1 0 0 1 1 1v3a1 1 0 0 1 -1 1h-3v2h3a3 3 0 0 0 3-3v-3a3 3 0 0 0 -3-3zm-11.242-2a4.496 4.496 0 0 1 3.742-2c1.56 0 2.935.794 3.742 2z" opacity=".3"/><path d="m7 5a4 4 0 1 1 8 0z" opacity=".3"/><path d="m12.05 5a2.5 2.5 0 0 1 4.9 0z" opacity=".3"/><path d="m8 8a1 1 0 0 1 1 1v9a1 1 0 0 1 -2 0v-9a1 1 0 0 1 1-1zm5 0a1 1 0 0 1 1 1v9a1 1 0 0 1 -2 0v-9a1 1 0 0 1 1-1zm-8.94-3h12.88a1 1 0 0 1 .998 1.059l-.827 14.058a2 2 0 0 1 -1.997 1.883h-9.228a2 2 0 0 1 -1.997-1.883l-.827-14.057a1 1 0 0 1 .999-1.06z"/></g></g></svg>