<svg height="24" viewBox="0 0 24 24" width="24" xmlns="http://www.w3.org/2000/svg"><g fill="none" fill-rule="evenodd"><path d="m0 0h24v24h-24z"/><g fill="#335eea"><path d="m4 22h-2c0-2.761 2.239-4 5-4h10c2.761 0 5 1.239 5 4h-2c0-1.657-1.343-2-3-2h-10c-1.657 0-3 .343-3 2z" opacity=".3"/><rect height="6" rx="1" width="22" x="1" y="14"/><path d="m13 13h-2v-1a1 1 0 0 0 -1-1h-4a1 1 0 0 0 -1 1v1h-1a1 1 0 0 1 -1-1v-4a2 2 0 0 1 2-2h14a2 2 0 0 1 2 2v4a1 1 0 0 1 -1 1h-1v-1a1 1 0 0 0 -1-1h-4a1 1 0 0 0 -1 1z" opacity=".3"/></g></g></svg>