<svg height="24" viewBox="0 0 24 24" width="24" xmlns="http://www.w3.org/2000/svg"><g fill="none" fill-rule="evenodd"><path d="m0 0h24v24h-24z"/><g fill="#335eea"><path d="m7.143 19.358a7.993 7.993 0 0 0 1.728 1.007l-.979 1.695a1 1 0 1 1 -1.732-1zm7.994 1.004c.62-.265 1.199-.605 1.726-1.01l.97 1.678a1 1 0 0 1 -1.733 1z"/><path d="m12 21a8 8 0 1 1 0-16 8 8 0 0 1 0 16zm7.069-17.746 1.75 1.75a1.5 1.5 0 0 1 -2.122 2.12l-1.75-1.749a1.5 1.5 0 0 1 2.122-2.12zm-13.77-.372a1.5 1.5 0 0 1 2.12 2.121l-2.119 2.122a1.5 1.5 0 1 1 -2.122-2.122l2.122-2.12z" opacity=".3"/><path d="m11.963 7.5h.085a.5.5 0 0 1 .497.45l.455 4.55 3.248 1.856a.5.5 0 0 1 .252.434v.21a.382.382 0 0 1 -.482.368l-4.62-1.26a.5.5 0 0 1 -.366-.52l.432-5.626a.5.5 0 0 1 .499-.462z"/></g></g></svg>