<svg viewBox="0 0 377.52 232.72" xmlns="http://www.w3.org/2000/svg"><path d="m203.07 34.2c-39.14 12.49-163.07-49.12-153.41 35.04 1.52 12.51 9.58 30.19 2.77 41.88-4.93 8.75-14 13.88-22.71 17.28-22.81 9.27-31.31 26.68-25.53 51.52 15.45 66.95 99.58 51.07 143.75 31.22 31.41-14.77 68.45-17.31 101-4.81 25.48 10.17 41.36 31.52 71.27 25.27 26.52-5.32 30.52-30.36 22.78-53.67-4.4-14.42-7.56-20.51 1.17-34.43 7.35-13.82 20.3-24.3 21.29-40.49.22-17.54-7.84-35.22-23.44-41.86-12.76-5.44-24.33-3.24-37-6.58-28.08-7.9-46.13-51.57-81.01-36.57-8.69 4.1-13.57 13.55-23 16.3" fill="#a2dbf1" opacity=".22"/><g fill="#a2dbf1" opacity=".3"><path d="m188.87 28.19c3.54 0 3.54-5.5 0-5.5s-3.54 5.5 0 5.5z"/><path d="m25.94 112.75c7.08 0 7.09-11 0-11s-7.09 11 0 11z"/><path d="m356.62 156.61c7.08 0 7.09-11 0-11s-7.09 11 0 11z"/><path d="m170.31 25.44c7.08 0 7.09-11 0-11s-7.09 11 0 11z"/><path d="m367.62 139.15c9.2 0 9.22-14.3 0-14.3s-9.22 14.3 0 14.3z"/><path d="m7.38 130.9c9.2 0 9.22-14.3 0-14.3s-9.22 14.3 0 14.3z"/><path d="m312.62 45c9.2 0 9.22-14.3 0-14.3s-9.22 14.3 0 14.3z"/><path d="m186.12 16.5c10.62 0 10.63-16.5 0-16.5s-10.63 16.5 0 16.5z"/><path d="m373.54 152.07c5.31 0 5.32-8.25 0-8.25s-5.32 8.25 0 8.25z"/><path d="m5.45 107.94c5.31 0 5.32-8.25 0-8.25s-5.32 8.25 0 8.25z"/><path d="m329.81 52.94c5.31 0 5.32-8.25 0-8.25s-5.32 8.25 0 8.25z"/><path d="m328.44 37.81c3.54 0 3.54-5.5 0-5.5s-3.54 5.5 0 5.5z"/><path d="m49.86 28.32c7.08 0 7.09-11 0-11s-7.09 11 0 11z"/><path d="m362.81 217.94c7.08 0 7.09-11 0-11s-7.09 11 0 11z"/><path d="m5.31 222.75c7.08 0 7.09-11 0-11s-7.09 11 0 11z"/><path d="m66.36 20.07c3.54 0 3.54-5.5 0-5.5s-3.54 5.5 0 5.5z"/><path d="m363.5 195.94c3.54 0 3.54-5.5 0-5.5s-3.54 5.5 0 5.5z"/><path d="m21.81 229.63c3.54 0 3.54-5.5 0-5.5s-3.54 5.5 0 5.5z"/></g><g fill="#222221"><path d="m100.33 137c-4.38 1.55-6.5 1.13-8.44-3-1.26-2.72-2.26-5.48-4-7.92s-3.92-4.78-6.77-5.59c-2.62-.74-5.3.23-7.92.44-6.37.49-14.27-1-15.33-8.17-.77-5.23-.71-10-3-14.91-1.12-2.4-4.68-.31-3.56 2.08 2.54 5.43 1.28 11.39 3.28 16.85 2.17 5.9 8.56 7.46 14.2 8.13 3.52.42 8-1.33 11.28-.37 4.14 1.21 6.27 6.82 7.83 10.4 2.82 6.47 6.72 8.51 13.59 6.08 2.49-.88 1.42-4.87-1.1-4z"/><path d="m56.73 92.25a12.35 12.35 0 0 1 -4.54 3.53c-1.9 1-.23 3.8 1.67 2.85a15.86 15.86 0 0 0 5.73-4.72 1.66 1.66 0 0 0 -.59-2.25 1.69 1.69 0 0 0 -2.26.59z"/><path d="m50.83 87.86c0 3.49.52 7 .55 10.45 0 2.12 3.32 2.13 3.3 0 0-3.49-.54-7-.55-10.45a1.65 1.65 0 0 0 -3.3 0z"/><path d="m45.26 91.23c2.21 2.76 4.45 5.51 7.48 7.41 1.81 1.13 3.46-1.73 1.67-2.85-2.77-1.73-4.8-4.38-6.82-6.89-1.33-1.66-3.65.69-2.33 2.33z"/><path d="m42.51 96.18a10.73 10.73 0 0 0 11 2.62c2-.62 1.16-3.81-.88-3.18a7.37 7.37 0 0 1 -7.74-1.78c-1.54-1.46-3.88.87-2.33 2.33z"/><path d="m269 147.26c.15-5.33 2-7.18 7.15-7.61 3.3-.28 6.93 0 10.15-.85 5.33-1.43 4.54-7.67 7-11.62 3.39-5.48 10.55-4.75 16-6.48 5.95-1.9 8.33-6.47 8.69-12.48.16-2.65-4-2.64-4.12 0-.51 8.54-6.72 8.62-13.51 10.14-6 1.34-10.06 4.45-12.15 10.31-.79 2.21-.83 5.06-3 6.16-2.67 1.38-7.59.49-10.6.84-7 .81-9.55 4.74-9.74 11.6-.07 2.66 4.05 2.65 4.13 0z"/><path d="m308.28 103.15a13 13 0 0 0 7.2 7.2 1.66 1.66 0 0 0 2-1.15 1.69 1.69 0 0 0 -1.15-2 9.32 9.32 0 0 1 -4.9-4.9 1.71 1.71 0 0 0 -2-1.15 1.66 1.66 0 0 0 -1.15 2z"/><path d="m313.18 98.86v8.25a1.65 1.65 0 0 0 3.3 0v-8.25a1.65 1.65 0 0 0 -3.3 0z"/><path d="m318.73 99.52a15.25 15.25 0 0 1 -5.08 7c-1.65 1.34.7 3.67 2.33 2.33a18.31 18.31 0 0 0 5.92-8.43c.7-2-2.49-2.87-3.18-.88z"/><path d="m322.75 103a12.69 12.69 0 0 1 -6.16 4.74c-1.94.79-1.09 4 .88 3.18a16.49 16.49 0 0 0 8.14-6.26c1.14-1.8-1.72-3.46-2.85-1.67z"/></g><path d="m288.7 207c0 2.89-21.6 3.72-23.94 3.72h-161.67c-2.33 0-23.94-.84-23.94-3.72l19.71-29.55c0-2.89 1.89-5.23 4.22-5.23h161.68c2.33 0 4.23 2.34 4.23 5.23z" fill="#b3b3b3"/><g fill="#3e3e3d"><path d="m150.68 200.44h-41.55l7.26-17.6h37.59z"/><path d="m217.17 200.44h41.56l-7.28-17.6h-37.58z"/><path d="m263.34 200.44h14.64l-11.98-17.6h-11.03z"/><path d="m104.51 200.44h-14.63l11.97-17.6h11.04z"/><path d="m213.52 200.44h-59.19l3.3-17.6h52.59z"/></g><path d="m93.49 186.06h180.88v2.69h-180.88z" fill="#b3b3b3"/><path d="m91.53 192.66h184.8v2.69h-184.8z" fill="#b3b3b3"/><path d="m289.81 213.87c0 2.33-.48 4.22-2.81 4.22h-206.14c-2.33 0-2.82-1.89-2.82-4.22v-3.62c0-2.33.48-4.22 2.82-4.22h206.14c2.33 0 2.81 1.89 2.81 4.22z" fill="#3e3e3d"/><path d="m222.56 212.16a2.2 2.2 0 0 1 -2.2 2.2h-72.87a2.2 2.2 0 0 1 -2.2-2.2 2.2 2.2 0 0 1 2.2-2.2h72.87a2.2 2.2 0 0 1 2.2 2.2z" fill="#6f6f6f"/><rect fill="#3e3e3d" height="116.68" rx="4.23" width="174.35" x="96.75" y="61.03"/><path d="m183.93 66.91a1.76 1.76 0 0 0 0-3.52 1.76 1.76 0 0 0 0 3.52z" fill="#fff"/><rect fill="#fff" height="100.34" rx="3.63" width="149.94" x="108.95" y="69.97"/><g fill="none" stroke="#425973" stroke-linecap="round" stroke-linejoin="round" stroke-width="3.3"><path d="m162.1 107.7-12.45 12.44"/><path d="m162.1 120.15-12.45-12.45"/><path d="m218.2 107.7-12.45 12.44"/><path d="m218.2 120.15-12.45-12.45"/></g><path d="m212.61 135.16v12.28a4.4 4.4 0 0 1 -4.4 4.4h-2.37a4.4 4.4 0 0 1 -4.4-4.4v-12.28" fill="#dd9ab2"/><path d="m208.96 135.8-1.93 14.3-1.93-14.3z" fill="#d6819f"/><path d="m146.63 135.15h74.59" fill="none" stroke="#425973" stroke-linecap="round" stroke-linejoin="round" stroke-width="2.75"/><path d="m134.43 133.33c7.08 0 7.09-11 0-11s-7.09 11 0 11z" fill="#e9c2d0"/><path d="m233.43 133.33c7.08 0 7.09-11 0-11s-7.09 11 0 11z" fill="#e9c2d0"/><path d="m242.78 46.61v36.3c0 3.54 5.5 3.54 5.5 0v-36.3c0-3.54-5.5-3.54-5.5 0z" fill="#db9022"/><path d="m245.53 96.94c5.31 0 5.32-8.25 0-8.25s-5.32 8.25 0 8.25z" fill="#db9022"/></svg>