<svg viewBox="0 0 141.72 161.43" xmlns="http://www.w3.org/2000/svg"><ellipse cx="70.19" cy="157.92" fill="#cee5ed" opacity=".43" rx="70.19" ry="3.51"/><path d="m60.29 144.8.52 3.31-2.48 3.26-6.44-3.04-.73-3.03 7.95-1.31z" fill="#f2bf75"/><path d="m55.27 155.54-.67-.81a.31.31 0 0 0 -.47 0l-.65.79a1.38 1.38 0 0 1 -1.07.5h-14.88a.8.8 0 0 1 0-1.12c2.15-2.23 13.83-6.19 14.41-6.52s4.21 2.41 8.92-.22a50.35 50.35 0 0 1 1 6.12 1.7 1.7 0 0 1 -1.77 1.72h-3.78a1.36 1.36 0 0 1 -1.04-.46z" fill="#1e394c"/><path d="m84.13 144.93.52 3.31-2.48 3.27-6.44-3.05-.74-3.02 7.95-1.32z" fill="#f2bf75"/><path d="m79.1 155.68-.67-.81a.31.31 0 0 0 -.47 0l-.65.79a1.38 1.38 0 0 1 -1.07.5h-14.88a.8.8 0 0 1 0-1.12c2.15-2.23 13.83-6.19 14.41-6.52s4.21 2.41 8.92-.22a50.35 50.35 0 0 1 1 6.12 1.7 1.7 0 0 1 -1.69 1.82h-3.85a1.36 1.36 0 0 1 -1.05-.56z" fill="#1e394c"/><path d="m49.82 37.76-4.53 17.29-12.32-8.23-5.58 4.43 16.09 15.06 11.58-10.73z" fill="#cee5ed"/><path d="m32.95 46.83-3.59-7.08a1.48 1.48 0 0 0 -2.07-.59 5.38 5.38 0 0 0 -2.53 5.75c.49 2.26 1.31 4.93 2.63 6.34z" fill="#f2bf75"/><path d="m28.52 33.16-3.93-.32c-.57 0-.94.32-.81.82l2.79 11.05a1.48 1.48 0 0 0 1.26 1l3.93.32c.92.07 1.45 1.7.81-.82l-2.79-11.06a1.48 1.48 0 0 0 -1.26-.99z" fill="#1e394c"/><path d="m33 46.86.82-2.62a1.49 1.49 0 0 0 -.47-1.92l-1.35-.96a1 1 0 0 0 -1.29.16 1 1 0 0 0 .14 1.41l.63.49.64.48-1.52 2.3z" fill="#f2bf75"/><path d="m84.92 145.7c0-3.86-4.49-68.15-4.49-68.15s-9.06-8.82-14-7.88c-4.93-.93-16.14 5.6-16.14 5.6s.23 66.57.23 70.43h10.7s.07-30.65 4.24-52.78a1 1 0 0 1 1.89-.1c4.16 22.13 6.9 52.88 6.9 52.88z" fill="#1e394c"/><path d="m66.65 27.32s12.6 3.08 14.35 5.1 8.29 14.58 8.18 18.77c-.14 4.95-8.61 15.5-8.45 14.88v14.93s-19.31 6-31-1.34c0 0-1.34-38.26.27-42.52.49-1.31 6.84-6.84 8.72-7.51s7.93-2.31 7.93-2.31z" fill="#cee5ed"/><path d="m89.18 51.19c-.12 4.41-6.88 13.28-8.18 14.71l-.22.16-4.31 3.84-5.13-4.63s9.45-6.74 8.15-15.39c-.92-6.09-7.24-17-7.24-17a23.4 23.4 0 0 1 -5.95-5.47l.35-.09s12.61 3.08 14.35 5.09 8.29 14.59 8.18 18.78z" fill="#cee5ed"/><rect fill="#87d3f9" height="28.03" rx="4.55" width="50.69" x="41.27" y="47.95"/><path d="m87.41 47.95h-5.41a4.55 4.55 0 0 1 4.55 4.55v18.93a4.55 4.55 0 0 1 -4.55 4.57h5.38a4.55 4.55 0 0 0 4.62-4.57v-18.93a4.55 4.55 0 0 0 -4.59-4.55z" fill="#34648c" opacity=".25"/><g fill="#1e394c"><path d="m41.27 57.01h50.69v6.51h-50.69z"/><path d="m46.09 67.91h9.98v1.38h-9.98z"/><path d="m46.09 70.99h4.83v1.38h-4.83z"/></g><path d="m67.32 20.31v9s-2.92 9-9.65 1.91l-.61-7.22z" fill="#ea9249"/><path d="m49.82 13.31s-11.4-2.41-4.36-12.14c0 0 1.21 5.16 7.38.74 3.14-2.26 7.81-2.82 13 0 5.56 3 7.51 12.27 2.75 17.1l-9.32-1.88z" fill="#1e394c"/><path d="m49.82 13.31s-1.34 15.49 8.92 14.48c8-.79 7.71-6.84 7.71-6.84s2.61-.54 2.75-2.88-.6-4.29-3-2.75c0 0-4.16-2.68-4.43-4.56a26.06 26.06 0 0 1 -11.95 2.55z" fill="#f2bf75"/><path d="m63.34 79.86a1.64 1.64 0 0 0 .42 2.27l1.74 1.41a1.64 1.64 0 0 0 2.31-.06l5.46-6.8-5.22-4-5.68 4a.7.7 0 0 0 0 1.15 1.32 1.32 0 0 0 .94.19 2.33 2.33 0 0 0 1.51-.77z" fill="#f6ba8e"/><path d="m67.06 72.73 6.1 4.91s16.56-18.33 16.63-25.33c0-3.94-4.75-13.43-7.74-18.55h-10.74s7.66 11.53 10 17.06a3.35 3.35 0 0 1 -.36 3.18c-2.8 4.09-11.06 16-13.89 18.73z" fill="#cee5ed"/><path d="m82 33.76s6.16 15.17 6.13 18.24c-.06 6-13.29 20.38-16.71 24.27l1.73 1.39s16.57-18.35 16.64-25.35c.04-3.94-4.79-13.43-7.79-18.55z" fill="#b4ccd3"/><path d="m79.7 47.83-.34.12h-27.68l-.38-.12 26-.67s-3.36-9.38-2.83-9.16 5.23 9.83 5.23 9.83z" fill="#b4ccd3"/><path d="m54.33 25.53a6.07 6.07 0 0 1 -1.25-3.22 4.63 4.63 0 0 1 -1.37-.16c-.16-.16.37-4.44.28-5.19-.07-.53-.34-2.59-.5-3.72a15.88 15.88 0 0 1 -1.67.06s-1.34 15.5 8.92 14.49c-2.5.04-3.32-1.1-4.41-2.26z" fill="#ea9249"/><path d="m33.24 18.63a8.71 8.71 0 1 0 -7.24 10.16l1.79 2.06.37-2.68a8.71 8.71 0 0 0 5.08-9.54zm-13.02 2.37a1.07 1.07 0 1 1 1.07-1.07 1.07 1.07 0 0 1 -1.07 1.07zm4.32 0a1.07 1.07 0 1 1 1.07-1.07 1.07 1.07 0 0 1 -1.07 1.07zm4.27 0a1.07 1.07 0 1 1 1.07-1.07 1.07 1.07 0 0 1 -1.07 1.07z" fill="#0e5c77"/><path d="m135.38 113.06c3.15-3.34 3.93-7.73 1.74-9.79s-6.52-1-9.68 2.3-5.4 9.28-3.21 11.35 7.99-.52 11.15-3.86z" fill="#34648c"/><path d="m137.12 103.27a4.05 4.05 0 0 0 -2.56-1.05 3.62 3.62 0 0 1 .31.25c2.19 2.07 1.41 6.45-1.74 9.79-2.37 2.51-6.24 4.6-8.94 4.59l.06.07c2.19 2.07 8-.52 11.14-3.86s3.92-7.72 1.73-9.79z" fill="#0f2a3f" opacity=".26"/><path d="m119.35 100.2c.42-4.51-1.49-8.37-4.27-8.63s-5.38 3.18-5.8 7.69 1.29 10.46 4.07 10.72 5.57-5.27 6-9.78z" fill="#67b8ef"/><path d="m115.08 91.57a3.32 3.32 0 0 0 -1.52.22c2.28.91 3.75 4.4 3.38 8.41-.35 3.73-2.32 8.16-4.57 9.43a2.25 2.25 0 0 0 1 .36c2.78.26 5.57-5.28 6-9.78s-1.51-8.38-4.29-8.64z" fill="#34648c" opacity=".25"/><path d="m105.81 96.74c-1.93-3.8-5.39-5.91-7.73-4.72s-2.68 5.23-.75 9 6.29 7.67 8.63 6.48 1.78-6.96-.15-10.76z" fill="#34648c"/><path d="m105.81 96.74c-1.93-3.8-5.39-5.91-7.73-4.72a3.65 3.65 0 0 0 -1.79 2.45 3 3 0 0 1 .71-.47c2.34-1.19 5.8.92 7.73 4.72 1.35 2.66 2 6.31 1.5 8.67 2.01-1.56 1.43-7.02-.42-10.65z" fill="#0f2a3f" opacity=".26"/><path d="m102.09 112.6c-3.72-1.66-7.51-1.27-8.47.88s1.27 5.24 5 6.91 9.24 2 10.2-.11-3.02-6.01-6.73-7.68z" fill="#67b8ef"/><path d="m102.09 112.6c-3.72-1.66-7.51-1.27-8.47.88a2.76 2.76 0 0 0 -.17 1.63c1-2.07 4.76-2.44 8.43-.8 3 1.34 6.13 4.1 6.75 6.25a1.63 1.63 0 0 0 .18-.29c.95-2.14-3.01-6-6.72-7.67z" fill="#34648c" opacity=".25"/><path d="m136.39 125.72c3.71-1.32 6-4.37 5.15-6.8s-4.58-3.33-8.29-2-7.74 5-6.87 7.41 6.3 2.67 10.01 1.39z" fill="#34648c"/><path d="m141.54 118.92a3.82 3.82 0 0 0 -2.46-2.23 3.28 3.28 0 0 1 1 1.37c.87 2.43-1.44 5.48-5.15 6.8a13.26 13.26 0 0 1 -7.94.3c1.7 1.63 6.22 1.7 9.45.55 3.66-1.31 5.97-4.36 5.1-6.79z" fill="#0f2a3f" opacity=".26"/><g fill="#1e394c"><path d="m117.09 139.09a42.09 42.09 0 0 1 13.19-27.43c.3-.28-.15-.74-.46-.46a42.76 42.76 0 0 0 -13.37 27.89c0 .41.61.41.64 0z"/><path d="m114.75 137.59a56.63 56.63 0 0 0 -11.75-35.85c-.25-.32-.81 0-.56.32a56.08 56.08 0 0 1 11.67 35.52.32.32 0 0 0 .64 0z"/><path d="m112 118.68c1.76-5.59 2.2-11.53 2.42-17.36 0-.41-.63-.41-.64 0-.21 5.78-.66 11.65-2.4 17.19-.12.4.5.57.62.17z"/><path d="m102 117.6a57.58 57.58 0 0 0 10.13 4.73c.39.15.56-.48.17-.62a56.8 56.8 0 0 1 -10-4.66c-.35-.22-.68.34-.32.56z"/><path d="m129.45 122.62a68.73 68.73 0 0 1 -9.53 3.18.32.32 0 0 0 .17.62 68.74 68.74 0 0 0 9.53-3.18c.38-.16.21-.78-.17-.62z"/></g><path d="m104 136.1 2 17.71a4.37 4.37 0 0 0 4.34 3.89h11.29a4.37 4.37 0 0 0 4.34-3.89l2-17.71a1.63 1.63 0 0 0 -1.62-1.81h-20.77a1.63 1.63 0 0 0 -1.58 1.81z" fill="#cee5ed"/><path d="m126.23 134.29h-7.16a1.63 1.63 0 0 1 1.62 1.81l-2 17.71a4.37 4.37 0 0 1 -4.34 3.89h7.16a4.37 4.37 0 0 0 4.34-3.89l2-17.71a1.63 1.63 0 0 0 -1.62-1.81z" fill="#aac6ce"/></svg>