<svg viewBox="0 0 144.76 192.88" xmlns="http://www.w3.org/2000/svg"><path d="m119.94 188.65c.23-6.29-26.07-17.29-58.73-24.58s-59.32-8.07-59.55-1.81 26.07 17.29 58.73 24.58 59.32 8.1 59.55 1.81z" fill="#cee5ed" opacity=".43"/><path d="m90 118.69c-5.6-2-10.16-8.24-10.16-13.82v-94.67c0-5.58 4.56-8.46 10.16-6.42l41.12 15c5.6 2 10.16 8.24 10.16 13.82v94.67c0 5.58-4.56 8.46-10.16 6.42z" fill="#17161c"/><path d="m90.7 121.82c-5.9-2.15-10.7-8.69-10.7-14.57v-99.79c0-5.89 4.8-8.92 10.7-6.77l43.35 15.8c5.9 2.15 10.71 8.69 10.71 14.57v99.8c0 5.88-4.8 8.92-10.71 6.76z" fill="#1e394c"/><path d="m90 114.85c-3.47-1.27-6.3-5.11-6.3-8.57v-94.67c0-3.46 2.83-5.24 6.3-4l41.12 15c3.47 1.27 6.3 5.11 6.3 8.57v94.67c0 3.46-2.83 5.24-6.3 4z" fill="#62bdf4"/><path d="m131.17 22.62-41.17-14.99c-2.46-.9-4.59-.26-5.63 1.41a5.18 5.18 0 0 1 4.13 0l41.12 15c3.47 1.27 6.3 5.11 6.3 8.57v94.67a4.81 4.81 0 0 1 -.67 2.56 4.16 4.16 0 0 0 2.17-3.94v-94.71c.05-3.46-2.78-7.3-6.25-8.57z" fill="#34648c" opacity=".25"/><path d="m125.9 19.94-30.59-11.15 1.36 3.65a6.4 6.4 0 0 0 3.6 3.67l20.68 7.54c1.57.57 3 .16 3.6-1z" fill="#1e394c"/><g fill="#87d3f9"><path d="m129.49 35.63-37.78-13.77c-2-.74-3.67.3-3.67 2.32v17a5.8 5.8 0 0 0 3.67 5l37.78 13.82c2 .74 3.67-.3 3.67-2.32v-17a5.8 5.8 0 0 0 -3.67-5.05z"/><path d="m129.49 65.58-37.78-13.77c-2-.74-3.67.3-3.67 2.32v17a5.8 5.8 0 0 0 3.67 5l37.78 13.77c2 .74 3.67-.3 3.67-2.32v-17a5.8 5.8 0 0 0 -3.67-5z"/><path d="m129.49 95.85-37.78-13.77c-2-.74-3.67.3-3.67 2.32v17a5.8 5.8 0 0 0 3.67 5l37.78 13.77c2 .74 3.67-.3 3.67-2.32v-17a5.8 5.8 0 0 0 -3.67-5z"/></g><g fill="#1e394c"><path d="m117.39 38.48-13.05-4.76a.54.54 0 0 0 -.8.51 1.27 1.27 0 0 0 .8 1.09l13.05 4.76a.54.54 0 0 0 .8-.51 1.27 1.27 0 0 0 -.8-1.09z"/><path d="m117.39 47.44-13.05-4.76a.54.54 0 0 0 -.8.51 1.27 1.27 0 0 0 .8 1.09l13.05 4.72a.54.54 0 0 0 .8-.51 1.27 1.27 0 0 0 -.8-1.05z"/><path d="m121.41 44.48-21.61-7.87a.54.54 0 0 0 -.8.51 1.27 1.27 0 0 0 .8 1.09l21.61 7.88a.54.54 0 0 0 .8-.51 1.27 1.27 0 0 0 -.8-1.1z"/><path d="m117.39 70.59-13.05-4.76a.54.54 0 0 0 -.8.51 1.27 1.27 0 0 0 .8 1.09l13.05 4.76a.54.54 0 0 0 .8-.51 1.27 1.27 0 0 0 -.8-1.09z"/><path d="m121.41 76.6-21.61-7.88a.54.54 0 0 0 -.8.51 1.27 1.27 0 0 0 .8 1.09l21.61 7.88a.54.54 0 0 0 .8-.51 1.27 1.27 0 0 0 -.8-1.09z"/><path d="m117.39 98.67-13.05-4.76a.54.54 0 0 0 -.8.51 1.27 1.27 0 0 0 .8 1.09l13.05 4.76a.54.54 0 0 0 .8-.51 1.27 1.27 0 0 0 -.8-1.09z"/><path d="m117.39 107.55-13.05-4.76a.54.54 0 0 0 -.8.51 1.27 1.27 0 0 0 .8 1.09l13.05 4.76a.54.54 0 0 0 .8-.51 1.27 1.27 0 0 0 -.8-1.09z"/><path d="m121.41 104.68-21.61-7.88a.54.54 0 0 0 -.8.51 1.27 1.27 0 0 0 .8 1.09l21.61 7.88a.54.54 0 0 0 .8-.51 1.27 1.27 0 0 0 -.8-1.09z"/></g><path d="m80.17 172.81s-2-.71-2.22-5h-5.75l-.56 6 4.29 3.58 3.73-1.87z" fill="#f2bf75"/><path d="m71.64 173.72s6.71 2.22 8.53-.91c0 0 12.4 4.62 12.31 6-.14 2.18-10.4 2.63-12.67 2.08l-2-2-.81 2.3h-5.66s.05-7.12.3-7.47z" fill="#1e394c"/><path d="m58.7 172.86s-1.93-.8-2-5.14l-5.7-.27-.83 5.92 4.12 3.78 3.82-1.69z" fill="#f2bf75"/><g fill="#1e394c"><path d="m50.14 173.37s6.6 2.53 8.56-.52c0 0 10.85 3.91 11.48 5.71s-10 3-12.2 2.34l-1.88-2.06-1 2.23-5.65-.26s.42-7.1.69-7.44z"/><path d="m46.26 104.68s3.74 15.14 4.64 17.67 2.83 14.84 2.93 15.24-4.24 32.1-4.24 32.1 5.85 1.31 8.18-.2l6.36-32-2.73-31.49z"/><path d="m47.07 103.88s5.75 9.84 10.9 14.23 11.51 16.2 11.51 16.2l.76 35.12a8.14 8.14 0 0 0 8.09.21l.39-.21s.91-36.49.76-38.91-13-30.28-13-30.28z"/><path d="m69.32 39.38s-4.5 15.9-11.73 15.44c-6.33-.4-7.51-7-6-15.06 1.59-8.4 8.53-7.29 12.57-7.34 0 0 5 0 5.83-3.86 0 0 5.83 7.95-.68 10.82"/></g><path d="m57.84 58.77s-8.84-1.56-12.89 17.23c-1.71 7.9 7.27 20.29 7.27 20.29l9.38-18.05z" fill="#aac6ce"/><path d="m94.83 48.09s3.33-9.16 3.33-11.66 1.89-.3 1.82 1.59a27.78 27.78 0 0 1 -.53 4s2.57.23 2.57 1.44-.83 5.45-2 6.13z" fill="#f2bf75"/><path d="m62.74 60c5.85 3 18.39 10.9 21.27 8.33s10.82-20.24 10.82-20.24l5.17 1.51s-11 29.52-14.28 29.4-14.33-2.22-14.33-2.22-1 20.84-4 26.59c0 0-14.91 5.37-22.63 1a28.6 28.6 0 0 0 4.69-20.21c-1.78-12.57 1.55-30.16 13.29-24.16z" fill="#cee5ed"/><path d="m69.32 39.38a15.16 15.16 0 0 0 1.36 4.09 12.12 12.12 0 0 0 2.65 2.53l-1.43 1.86a6.54 6.54 0 0 1 -5.68 7.57l-.68 6.28-7.65-2.57-.3-4.31a5.17 5.17 0 0 0 1.32-2.73 3.62 3.62 0 0 1 -1-3.22c.49-1.74 2-3.07 2.76-2.42a3.22 3.22 0 0 1 .79 1.93h1s-.17-2.88.42-4.09a9.58 9.58 0 0 1 6.44-4.92z" fill="#ea9249"/><path d="m65.54 61.71.68-6.28a6.54 6.54 0 0 0 5.68-7.57l1.43-1.86a12.12 12.12 0 0 1 -2.65-2.57 15.16 15.16 0 0 1 -1.36-4.09c-.31.07-.59.17-.87.26a22.48 22.48 0 0 1 1.32 5.57c.25 3.25-.26 6.92-4.81 9.69-1.54.94-2.1 3.48-2.27 5.86z" fill="#f2bf75"/><path d="m63 124.72c-5-1.14-9.79-4.15-13.46-7.08-1.2-4.53-2.74-10.73-3.18-12.48a14 14 0 0 0 1.8.52c1.91 3.05 6 9.21 9.79 12.42a34.57 34.57 0 0 1 5 5.74z" fill="#0f2a3f"/><path d="m134.18 158.83c-.07-2.39-11.83-6.51-26.26-9.2s-26.07-2.94-26-.54 11.83 6.51 26.26 9.2 26.07 2.93 26 .54z" fill="#cee5ed" opacity=".43"/><path d="m21.66 119.68s3.54-30.86-9.24-26c-13.15 4.92 3.35 25.32 9.24 26z" fill="#34648c"/><path d="m18.18 138.3s-3.88-30.88-15.11-22.3c-10.17 7.71 7.59 20 15.11 22.3z" fill="#67b8ef"/><path d="m9.86 126.71c5.14 7.13 10.14 14.37 11.73 23.18.08.47.8.27.71-.2-1.6-8.87-6.62-16.18-11.8-23.36-.28-.38-.92 0-.64.37z" fill="#1e394c"/><path d="m28 113.09s-4.67-22.7 7-20.63-4.1 19.54-7 20.63z" fill="#67b8ef"/><path d="m29 135c-.6.4-1.18-19.16 7.08-18.47s4.45 10.81-7.08 18.47z" fill="#34648c"/><g fill="#1e394c"><path d="m25.42 133.43c-.9-11.5 3.88-24.46 8.34-34.95.18-.43-.45-.81-.64-.37-4.53 10.65-9.36 23.58-8.44 35.32 0 .47.78.48.74 0z"/><path d="m26.47 148c-.59-13.49-1.78-27.19-9.34-38.8-.26-.4-.9 0-.64.37 7.5 11.5 8.65 25 9.24 38.42 0 .47.76.48.74 0z"/><path d="m28.21 147.44c.3-7.1.78-14.19 4.68-20.35.26-.4-.38-.78-.64-.37-4 6.25-4.48 13.51-4.78 20.72 0 .48.72.48.74 0z"/></g><path d="m15.19 146 1.92 17.39a4.29 4.29 0 0 0 4.27 3.82h11.09a4.29 4.29 0 0 0 4.27-3.82l1.91-17.39a1.6 1.6 0 0 0 -1.59-1.77h-20.28a1.6 1.6 0 0 0 -1.59 1.77z" fill="#cee5ed"/><path d="m37.07 144.19h-7.07a1.6 1.6 0 0 1 1.62 1.81l-1.92 17.36a4.29 4.29 0 0 1 -4.27 3.82h7a4.29 4.29 0 0 0 4.27-3.82l1.95-17.36a1.6 1.6 0 0 0 -1.58-1.81z" fill="#aac6ce"/><path d="m17.32 117.3a9.71 9.71 0 0 0 4.34 2.38s3.51-30.68-9.12-26.08c3.38 4.22 10.58 14.97 4.78 23.7z" fill="#0f2a3f" opacity=".26"/><path d="m36.82 116.62c.28 3.89.24 14.16-8 13.54-.14 2.85.06 5 .26 4.85 11.11-7.44 15.04-17.18 7.74-18.39z" fill="#0f2a3f" opacity=".26"/><g fill="#34648c"><path d="m35.59 92.59c.26 4 .2 15.19-8.4 14.74a52.83 52.83 0 0 0 .76 5.77c2.9-1.1 18.21-17.97 7.64-20.51z" opacity=".42"/><path d="m18.18 138.3s-3.88-30.88-15.11-22.3a10.37 10.37 0 0 0 -1 .83c3.51 1.21 15.08 6.28 11.3 19.41a27.13 27.13 0 0 0 4.81 2.06z" opacity=".42"/></g></svg>