<svg viewBox="0 0 178.17 161.69" xmlns="http://www.w3.org/2000/svg"><ellipse cx="89.08" cy="158.17" fill="#cee5ed" opacity=".43" rx="89.08" ry="3.51"/><path d="m55.96 115.92h4.05v38.76h-4.05z" fill="#aac6ce"/><path d="m55.96 115.92h4.05v5.45h-4.05z" fill="#85b0ba"/><path d="m41.64 154.69h34a2.35 2.35 0 0 1 2.36 2.31v1.21a0 0 0 0 1 0 0h-38.71a0 0 0 0 1 0 0v-1.21a2.35 2.35 0 0 1 2.35-2.31z" fill="#aac6ce"/><path d="m48.38 116h28.08c-10.22-3.67-6.27-38.24-4.38-51.35a4.38 4.38 0 0 0 -4.34-5h-18.74a7.66 7.66 0 0 0 -7.6 6.61c-1.64 11.91-4.23 36.6.9 46.16a6.84 6.84 0 0 0 6.08 3.58z" fill="#aac6ce"/><circle cx="32.83" cy="19.69" fill="#3e8ccc" r="19.69"/><circle cx="32.83" cy="19.69" fill="#cee5ed" r="16.07"/><path d="m28.27 25.17a1 1 0 0 1 -.71-1.71l4.19-4.19v-11a1 1 0 0 1 2 0v11.42a1 1 0 0 1 -.29.71l-4.46 4.48a1 1 0 0 1 -.73.29z" fill="#3e8ccc"/><circle cx="32.62" cy="19.39" fill="#1e394c" r="2.3"/><path d="m144.92 38h-33.6a3.12 3.12 0 0 0 -3.12 3.12v15.14a3.12 3.12 0 0 0 3.12 3.12h2.35v3.62a.59.59 0 0 0 1 .44l4.54-4.1h25.73a3.12 3.12 0 0 0 3.06-3.08v-15.13a3.12 3.12 0 0 0 -3.08-3.13z" fill="#62bdf4"/><g fill="#34648c"><circle cx="119.96" cy="48.92" r="1.37"/><circle cx="128.41" cy="48.92" r="1.37"/><circle cx="136.29" cy="48.92" r="1.37"/></g><path d="m34.92 78.67c0-3.7-2.62-7.42-5.84-7.42s-5.85 3.75-5.85 7.42 2.62 6.71 5.84 6.71 5.85-3 5.85-6.71z" fill="#67b8ef"/><path d="m29.07 71.26a4.32 4.32 0 0 0 -1.5.28c2.5.92 4.34 4 4.34 7.14a6.61 6.61 0 0 1 -4.34 6.48 5.13 5.13 0 0 0 1.5.23c3.23 0 5.84-3 5.84-6.71s-2.61-7.42-5.84-7.42z" fill="#34648c" opacity=".25"/><path d="m22.41 83.06 1 9.48a2.34 2.34 0 0 0 2.33 2.08h6a2.34 2.34 0 0 0 2.33-2.08l1-9.48a.87.87 0 0 0 -.87-1h-10.92a.87.87 0 0 0 -.87 1z" fill="#cee5ed"/><path d="m23.28 83.51h11.06a.86.86 0 0 1 .76.49l.1-.94a.87.87 0 0 0 -.87-1h-11.05a.87.87 0 0 0 -.87 1l.1.94a.86.86 0 0 1 .77-.49z" fill="#aac6ce"/><path d="m34.34 82.09h-3.84a.87.87 0 0 1 .87 1l-1 9.48a2.34 2.34 0 0 1 -2.37 2.05h3.83a2.34 2.34 0 0 0 2.33-2.08l1-9.48a.87.87 0 0 0 -.82-.97z" fill="#aac6ce"/><path d="m82.76 148.96-.4 2.74 2.09 2.67 5.29-2.59.57-2.51-6.58-.99z" fill="#f2bf75"/><path d="m87 157.78.55-.68a.25.25 0 0 1 .39 0l.55.64a1.14 1.14 0 0 0 .89.4l12.29-.21a.66.66 0 0 0 0-.93c-1.8-1.82-11.49-5-12-5.22s-3.45 2-7.37-.08a41.6 41.6 0 0 0 -.73 5.07 1.4 1.4 0 0 0 1.42 1.48l3.12-.05a1.13 1.13 0 0 0 .89-.42z" fill="#1e394c"/><path d="m60.21 102.65s-5.1 5.64 4.24 11.77c6.55 4.3 11.72 3 15.83 5.59a3.46 3.46 0 0 1 1.77 2.66l.21 26.33.5.25a9.06 9.06 0 0 0 7.88.09l3.72-30.08c.13-2.07-1-3.82-2.27-5.46-7.14-9.09-19.79-12.17-23-12.69-4.16-.65-8.88 1.54-8.88 1.54z" fill="#1e394c"/><path d="m62.44 148.96-.43 2.73 2.05 2.7 5.32-2.52.61-2.5-6.57-1.08z" fill="#f2bf75"/><path d="m66.59 157.83.56-.67a.25.25 0 0 1 .39 0l.54.65a1.14 1.14 0 0 0 .88.41h12.29a.66.66 0 0 0 0-.93c-1.78-1.84-11.42-5.12-11.9-5.39s-3.47 2-7.37-.18a41.61 41.61 0 0 0 -.8 5.06 1.4 1.4 0 0 0 1.4 1.5h3.12a1.13 1.13 0 0 0 .89-.45z" fill="#1e394c"/><path d="m44.7 97.73s-6.18 6.89 2.76 14.67c6.27 5.46 11.9 3.13 15.85 6.45a3.68 3.68 0 0 1 1.47 3.05l-2.78 26.83.21.14a8.5 8.5 0 0 0 8.24.56l7-28.26c.44-2.16-.49-4.16-1.6-6.06-6.2-10.58-15.94-16.88-19.23-17.89-4.33-1.31-11.92.51-11.92.51z" fill="#1e394c"/><path d="m78.81 119.26a12.26 12.26 0 0 0 -1.44-.5 12.3 12.3 0 0 0 -1.57-3.65 48.4 48.4 0 0 0 -10.62-12.45c2.24-.38 3.38-.86 4-1.49a42.11 42.11 0 0 1 6.71 1.83c3.04 5.07 3.03 13.32 2.92 16.26z" fill="#0f2a3f"/><path d="m61.35 61.27s-8.92-1.19-12.62 5.73-9.24 34.18-4.4 35c2.14.37 7.85 1.8 14.18 1.34 8.7-.64 10.59-1.44 11.22-3.09l5.54-25.38a10.73 10.73 0 0 0 -4.21-9 30.23 30.23 0 0 0 -9.71-4.6z" fill="#cee5ed"/><path d="m75.24 72.68s.12 15.32 4.92 16.21 17.6.64 17.6.64v4.86h-27.44z" fill="#aac6ce"/><path d="m68.6 65.74 1.08-5.41-7-5.34-1.34 6.37s2.19 9.74 7.26 4.38z" fill="#ea9249"/><path d="m77.54 50s-3.67 1.78-9-1.49a12.72 12.72 0 0 1 -4.85 4.24s-1.91-3.1-2.99-.75a5 5 0 0 0 -.5 1.92c-3.37-4.36-1-10.1 2.15-13.19 3-2.94 9.43-1.77 13.46-.15 4.28 1.72 5.06-1.27 5.06-1.27 5.42 7.61-3.33 10.69-3.33 10.69z" fill="#1e394c"/><path d="m63.65 52.79s-1.87-3.14-2.95-.79c-1.31 2.85.17 4.64 1.94 4.64 0 0 1.4 7.42 8.22 6.89s7.8-11.47 6.68-13.5c0 0-3.67 1.79-9-1.49a12.67 12.67 0 0 1 -4.89 4.25z" fill="#f2bf75"/><path d="m122.72 70.13h-28.45a3 3 0 0 0 -2.89 2.36l-3.79 18.57h34.47l3.55-17.38a3 3 0 0 0 -2.89-3.55z" fill="#cee5ed"/><rect fill="#80a9b2" height="3.26" rx="1.4" width="49.82" x="73.54" y="91.06"/><path d="m121.95 91.06h-34.73a1.4 1.4 0 0 1 1.4 1.4v.45a1.4 1.4 0 0 1 -1.4 1.4h34.73a1.4 1.4 0 0 0 1.4-1.4v-.45a1.4 1.4 0 0 0 -1.4-1.4z" fill="#aac6ce"/><path d="m76.46 90.06c-5.54-.64-21.07-2.23-23.74-2.51-3.36-.35 3.94-13.89 4.75-18.53s-2.72-4.81-2.72-4.81a5.66 5.66 0 0 0 -6 2.81c-3.79 5.74-8 22.53-5.79 26.67a1.5 1.5 0 0 0 1.32.78h32.2z" fill="#cee5ed"/><path d="m76.46 90.06s-20-1.38-24.32-2c-3.35-.45 3.63-14.33 4.44-19s-2.78-4.44-2.78-4.44a8.59 8.59 0 0 0 -3.12.29 5.79 5.79 0 0 1 4.07-.78s3.53.18 2.72 4.81-7.07 17.98-4.95 18.5c2.6.64 18.4 1.98 23.94 2.62z" fill="#aac6ce"/><path d="m76.46 94.56h7.46a.7.7 0 0 0 .59-1.09c-.7-1.07-1.8-2.59-2.61-2.85a35.44 35.44 0 0 0 -5.44.12z" fill="#f2bf75"/><path d="m77.54 50a6 6 0 0 1 -1.69.42c-.09.5-.25 1.48-.34 2.4-.12 1.31.53 5.38.12 5.41a11.84 11.84 0 0 1 -1.25 0s-.62 5.88-6.5 4.94h-.15a7.43 7.43 0 0 0 3.12.39c6.82-.56 7.8-11.49 6.69-13.56z" fill="#ea9249" opacity=".67"/><path d="m163.07 135.4s9.37-4.65 6.82-11.7-4.12-7.35.75-11.32 11.92-13.94 3-14.69-8.47 11.1-15.89 12.74-11.48 32.69 5.32 24.97z" fill="#67b8ef"/><path d="m155.69 136.1c1.8.83 4.22.75 7.38-.7 0 0 9.37-4.65 6.82-11.7s-4.12-7.35.75-11.32 11.92-13.94 3-14.69a8.2 8.2 0 0 0 -2.38.13c2.51 1 5 3.11 1.78 6.94-5.37 6.38-8.25 8.63-7.62 12.75s.26 13.15-9.73 18.59z" fill="#34648c" opacity=".25"/><path d="m147.17 135.17s-8.25-.3-7.8-6.22.68-6.15-4.5-8c-9.15-3.3-1.91-20.87 5.55-9.82 5.17 7.67 7.42 5.94 10.8 6.54s10.72 20.13-4.05 17.5z" fill="#67b8ef"/><path d="m151.22 117.65c-3.37-.6-5.62 1.12-10.8-6.54-3.9-5.78-7.74-3.72-9.2 0 2.19-.67 5.53-1.08 5.94 2.5.54 4.63 11.38 12.24 11.16 21.7h.42c1.58-4.16 3.66-9.55 5.44-14.15-.95-1.92-2.08-3.35-2.96-3.51z" fill="#34648c" opacity=".29"/><path d="m149.09 134.91s-10.23-10-6.75-11.7 10.35 3.82 6.52-2.14-8.28-15.24-3-13.78 5.67 3.07 5-3.87c-.85-9 4.16-13.61 8.88-10.68s-4 22.72-.79 20.58 6-3.94 6.63-1.35-9.34 12.74-5.62 11c4.61-2.14 5.29 1.69 3.82 4s-7.5 16.49-14.69 7.94z" fill="#34648c"/><path d="m163.82 127c1.46-2.36.79-6.19-3.82-4-3.71 1.72 6.3-8.43 5.62-11s-3.37-.79-6.63 1.35 5.51-17.66.79-20.58a4.82 4.82 0 0 0 -6.15.52c2.44.6 4.4 2.56 3 7.87-2.87 11.25-4.62 20.63.63 17.88 4.95-2.59-5.74 9.35-5.85 18 6.17 3.42 11.11-7.9 12.41-10.04z" fill="#1e394c" opacity=".48"/><path d="m142 136.09 2 17.91a4.42 4.42 0 0 0 4.4 3.94h11.43a4.42 4.42 0 0 0 4.4-3.94l2-17.93a1.65 1.65 0 0 0 -1.64-1.83h-20.95a1.65 1.65 0 0 0 -1.64 1.85z" fill="#cee5ed"/><path d="m164.55 134.26h-7.25a1.65 1.65 0 0 1 1.64 1.83l-1.94 17.91a4.42 4.42 0 0 1 -4.4 3.94h7.25a4.42 4.42 0 0 0 4.4-3.94l2-17.93a1.65 1.65 0 0 0 -1.7-1.81z" fill="#aac6ce"/><rect fill="#3e8ccc" height="5.79" rx="2.49" width="127.54" x="17.27" y="94.5"/><path d="m142.32 94.5h-122.56a2.49 2.49 0 0 0 -2.49 2.5v.81a2.46 2.46 0 0 0 .13.75 2.48 2.48 0 0 1 2.36-1.74h122.56a2.48 2.48 0 0 1 2.36 1.74 2.46 2.46 0 0 0 .13-.75v-.81a2.49 2.49 0 0 0 -2.49-2.5z" fill="#2173aa"/><g fill="#34648c"><path d="m58.5 158.04h-4.1l-28.5-57.72h4.1z"/><path d="m13.4 158.04h4.09l28.5-57.72h-4.09z"/><path d="m146.73 158.04h-4.1l-28.5-57.72h4.1z"/><path d="m101.63 158.04h4.09l28.5-57.72h-4.09z"/></g><g fill="#1a3651"><path d="m31.13 102.61-1.13-2.29h-4.1l1.13 2.29z"/><path d="m44.86 102.61 1.13-2.29h-4.09l-1.13 2.29z"/><path d="m119.36 102.61-1.13-2.29h-4.1l1.13 2.29z"/><path d="m133.09 102.61 1.13-2.29h-4.09l-1.13 2.29z"/></g></svg>