<svg enable-background="new 0 0 512 512" viewBox="0 0 512 512" xmlns="http://www.w3.org/2000/svg"><g transform="translate(1 1)"><path d="m472.6 16.067h-435.2c-21.333 0-38.4 17.067-38.4 38.4v260.267 38.4c0 21.333 17.067 38.4 38.4 38.4h163.84l-12.8 51.2h-1.707c-23.893 0-42.667 18.773-42.667 42.667 0 5.12 3.413 8.533 8.533 8.533h204.8c5.12 0 8.533-3.413 8.533-8.533 0-23.893-18.773-42.667-42.667-42.667h-1.707l-12.8-51.2h163.842c21.333 0 38.4-17.067 38.4-38.4v-38.4-260.267c0-21.334-17.067-38.4-38.4-38.4zm-456.533 38.4c0-11.947 9.387-21.333 21.333-21.333h435.2c11.947 0 21.333 9.387 21.333 21.333v251.733h-477.866zm331.946 422.4h-185.173c3.413-10.24 12.8-17.067 23.893-17.067h8.533 119.467 9.387c11.093 0 20.48 6.827 23.893 17.067zm-44.373-34.134h-97.28l12.8-51.2h71.68zm190.293-89.6c0 11.947-9.387 21.333-21.333 21.333h-174.933-85.333-174.934c-11.947 0-21.333-9.387-21.333-21.333v-29.867h477.867v29.867z"/><path d="m67.267 229.4v17.067 42.667h68.267v-42.667-17.067-42.667h-68.267zm51.2 42.667h-34.134v-25.6h34.133v25.6zm-34.134-68.267h34.133v25.6h-34.133z"/><path d="m144.067 229.4v17.067 42.667h68.267v-42.667-17.067-76.8h-68.267zm51.2 42.667h-34.133v-25.6h34.133zm-34.134-102.4h34.133v59.733h-34.133z"/><path d="m220.867 229.4v17.067 42.667h68.267v-42.667-17.067-128h-68.267zm51.2 42.667h-34.133v-25.6h34.133zm-34.134-153.6h34.133v110.933h-34.133z"/><path d="m297.667 229.4v17.067 42.667h68.267v-42.667-17.067-68.267h-68.267zm51.2 42.667h-34.133v-25.6h34.133zm-34.134-93.867h34.133v51.2h-34.133z"/><path d="m374.467 229.4v17.067 42.667h68.267v-42.667-17.067-179.2h-68.267zm51.2 42.667h-34.133v-25.6h34.133zm-34.134-204.8h34.133v162.133h-34.133z"/><path d="m127 58.733h-42.667c-5.12 0-8.533 3.413-8.533 8.533s3.413 8.533 8.533 8.533h22.187l-45.227 45.227c-3.413 3.413-3.413 8.533 0 11.947 1.707 1.707 3.413 2.56 5.973 2.56s4.267-.853 5.973-2.56l45.227-45.227v22.187c0 5.12 3.413 8.533 8.533 8.533s8.533-3.413 8.533-8.533v-42.666c.001-5.12-3.412-8.534-8.532-8.534z"/></g></svg>