<svg enable-background="new 0 0 512 512" viewBox="0 0 512 512" xmlns="http://www.w3.org/2000/svg"><g transform="translate(1 1)"><path d="m485.4-1h-460.8c-14.507 0-25.6 11.093-25.6 25.6v85.333 375.467c0 14.507 11.093 25.6 25.6 25.6h460.8c14.507 0 25.6-11.093 25.6-25.6v-375.467-85.333c0-14.507-11.093-25.6-25.6-25.6zm-469.333 25.6c0-5.12 3.413-8.533 8.533-8.533h460.8c5.12 0 8.533 3.413 8.533 8.533v76.8h-477.866zm477.866 460.8c0 5.12-3.413 8.533-8.533 8.533h-460.8c-5.12 0-8.533-3.413-8.533-8.533v-366.933h477.867v366.933z"/><path d="m67.267 24.6c-18.773 0-34.133 15.36-34.133 34.133s15.36 34.133 34.133 34.133 34.133-15.359 34.133-34.133-15.36-34.133-34.133-34.133zm0 51.2c-9.387 0-17.067-7.68-17.067-17.067s7.68-17.067 17.067-17.067 17.067 7.68 17.067 17.067-7.681 17.067-17.067 17.067z"/><path d="m152.6 24.6c-18.773 0-34.133 15.36-34.133 34.133s15.36 34.133 34.133 34.133 34.133-15.36 34.133-34.133-15.36-34.133-34.133-34.133zm0 51.2c-9.387 0-17.067-7.68-17.067-17.067s7.68-17.067 17.067-17.067 17.067 7.68 17.067 17.067-7.68 17.067-17.067 17.067z"/><path d="m237.933 24.6c-18.773 0-34.133 15.36-34.133 34.133s15.36 34.133 34.133 34.133 34.133-15.36 34.133-34.133-15.359-34.133-34.133-34.133zm0 51.2c-9.387 0-17.067-7.68-17.067-17.067s7.68-17.067 17.067-17.067 17.067 7.681 17.067 17.067-7.68 17.067-17.067 17.067z"/><path d="m113.347 313.027 67.413 67.413c1.707 1.707 3.413 2.56 5.973 2.56s4.267-.853 5.973-2.56c3.413-3.413 3.413-8.533 0-11.947l-62.293-62.293 62.293-62.293c3.413-3.413 3.413-8.533 0-11.947s-8.533-3.413-11.947 0l-68.267 68.267c-2.56 2.56-3.413 5.973-1.707 9.387.855 1.706 1.708 2.559 2.562 3.413z"/><path d="m317.293 380.44c1.707 1.707 3.413 2.56 5.973 2.56 1.707 0 4.267-.853 5.973-2.56l68.267-68.267c2.56-2.56 3.413-5.973 1.707-9.387-.853-1.707-1.707-2.56-2.56-3.413l-67.413-67.413c-3.413-3.413-8.533-3.413-11.947 0s-3.413 8.533 0 11.947l62.293 62.293-62.293 62.293c-3.413 3.414-3.413 8.534 0 11.947z"/><path d="m236.227 383h1.707c3.413 0 7.68-2.56 8.533-5.973l34.133-136.534c1.707-4.267-1.707-9.387-5.973-10.24-4.267-1.707-9.387 1.707-10.24 5.973l-34.134 136.534c-1.706 4.267 1.707 9.387 5.974 10.24z"/></g></svg>