<svg enable-background="new 0 0 512 512" viewBox="0 0 512 512" xmlns="http://www.w3.org/2000/svg"><g transform="translate(1 1)"><path d="m472.6 7.533h-435.2c-21.333 0-38.4 17.067-38.4 38.4v277.333 38.4c0 21.333 17.067 38.4 38.4 38.4h152.157c1.209 14.852-5.492 29.407-17.331 37.547l-15.36 11.093c-1.583.95-2.811 2.253-3.646 3.733-10.439 3.21-17.687 12.702-17.687 24.427 0 14.507 11.093 25.6 25.6 25.6h187.733c14.507 0 25.6-11.093 25.6-25.6 0-12.351-8.044-22.223-19.388-24.885-.726-1.289-1.666-2.425-2.799-3.275l-15.36-11.093c-12.057-8.289-18.113-22.568-17.016-37.547h152.697c21.333 0 38.4-17.067 38.4-38.4v-38.4-277.333c0-21.333-17.067-38.4-38.4-38.4zm-456.533 38.4c0-11.947 9.387-21.333 21.333-21.333h435.2c11.947 0 21.333 9.387 21.333 21.333v260.267h-477.866zm332.8 439.467h-187.734c-5.12 0-8.533-3.413-8.533-8.533s3.413-8.533 8.533-8.533h1.707 184.32 1.707c5.12 0 8.533 3.413 8.533 8.533s-3.413 8.533-8.533 8.533zm-23.04-34.133h-142.507c16.213-11.947 24.747-31.573 23.893-51.2h95.573c-1.706 19.626 7.681 39.253 23.041 51.2zm168.106-89.6c0 11.947-9.387 21.333-21.333 21.333h-145.92-140.8-148.48c-11.947 0-21.333-9.387-21.333-21.333v-38.4h477.867v38.4z"/><path d="m147.48 169.667 62.293-62.293c3.413-3.413 3.413-8.533 0-11.947s-8.533-3.413-11.947 0l-68.267 68.267c-2.56 2.56-3.413 5.973-1.707 9.387.853 1.707 1.707 2.56 2.56 3.413l67.413 67.413c1.707 1.707 3.413 2.56 5.973 2.56s4.267-.853 5.973-2.56c3.413-3.413 3.413-8.533 0-11.947z"/><path d="m379.587 162.84-67.413-67.413c-3.413-3.413-8.533-3.413-11.947 0s-3.413 8.533 0 11.947l62.293 62.293-62.293 62.293c-3.413 3.413-3.413 8.533 0 11.947 1.707 1.707 3.413 2.56 5.973 2.56s4.267-.853 5.973-2.56l68.267-68.267c2.56-2.56 3.413-5.973 1.707-9.387-.854-1.706-1.707-2.56-2.56-3.413z"/><path d="m274.627 93.72c-4.267-1.707-9.387 1.707-10.24 5.973l-34.133 136.533c-1.707 4.267 1.707 9.387 5.973 10.24h1.707c4.267 0 7.68-2.56 8.533-5.973l34.133-136.533c1.707-4.267-1.707-9.387-5.973-10.24z"/></g></svg>