<svg enable-background="new 0 0 60 60" viewBox="0 0 60 60" xmlns="http://www.w3.org/2000/svg"><path d="m59.989 21c-.099-1.711-2.134-3.048-6.204-4.068.137-.3.214-.612.215-.936v-6.996h-.017c-.358-5.828-24.24-6-26.983-6s-26.625.172-26.983 6h-.017v.13 6.869c.005 1.9 2.457 3.387 6.105 4.494-.05.166-.08.335-.09.507h-.015v.13 6.857c-3.93 1.012-5.893 2.33-5.99 4.013h-.01v.13 6.869c.003 1.323 1.196 2.445 3.148 3.38-.074.203-.12.41-.133.622h-.015v.13 6.869c.008 3.326 7.497 5.391 15.818 6.355.061.012.117.037.182.037.019 0 .035-.01.054-.011 1.604.181 3.234.322 4.847.423.034.004.064.02.099.02.019 0 .034-.01.052-.011 2.048.124 4.063.187 5.948.187s3.9-.063 5.948-.188c.018.001.034.011.052.011.035 0 .065-.017.099-.02 1.613-.101 3.243-.241 4.847-.423.019 0 .035.01.054.01.065 0 .121-.025.182-.037 8.321-.964 15.809-3.03 15.818-6.357v-6.996h-.016c-.07-1.226-1.115-2.249-3.179-3.104.126-.289.195-.589.195-.9v-6.536c3.59-1.104 5.995-2.581 6-4.464v-6.996zm-8.097 18.321-.341.299c-.525.463-1.4.93-2.551 1.38v-4.768c1.189-.414 2.201-.873 3-1.376v4.138c0 .103-.038.213-.108.327zm-22.366 4.647c-.146.004-.293.006-.44.009-.357.007-.723.009-1.085.012v-4.995c.275-.003.55-.007.825-.012.053-.001.106-.002.159-.003 1.007-.019 2.014-.05 3.016-.096v4.993c-.214.011-.429.021-.646.03-.602.027-1.21.047-1.829.062zm-4.367.014c-.458-.008-.914-.019-1.367-.033-.056-.002-.112-.004-.168-.006-.545-.018-1.086-.041-1.623-.067v-4.992c1.002.047 2.009.078 3.016.096.053.001.106.002.158.003.275.005.55.009.825.012v4.998c-.194-.002-.388-.002-.581-.005-.088-.002-.173-.005-.26-.006zm-18.062-2.28c-.033-.01-.064-.019-.097-.028v-4.831c.934.252 1.938.482 3 .691v4.881c-.918-.195-1.765-.4-2.536-.61-.122-.035-.248-.068-.367-.103zm21.078 8.281c.275.005.55.009.825.012v4.999c-1.382-.013-2.716-.053-4-.116v-4.993c1.002.047 2.009.078 3.016.096.053 0 .106.001.159.002zm3.809-.003c1.007-.019 2.014-.05 3.016-.096v4.993c-1.284.063-2.618.103-4 .116v-4.999c.275-.003.55-.007.825-.012.053 0 .106-.001.159-.002zm8.016-.452v4.966c-.961.101-1.961.19-3 .263v-4.987c1.014-.066 2.016-.147 3-.242zm2-.216c1.031-.124 2.032-.265 3-.422v4.91c-.942.166-1.943.319-3 .458zm5-.779c1.062-.209 2.066-.439 3-.691v4.831c-.891.257-1.894.506-3 .741zm-34 0v4.881c-1.106-.235-2.109-.484-3-.741v-4.831c.934.252 1.938.483 3 .691zm2 .358c.968.157 1.969.298 3 .422v4.946c-1.057-.139-2.058-.292-3-.458zm5 .637c.984.095 1.986.176 3 .243v4.987c-1.039-.073-2.039-.162-3-.263zm-2.481-5.98c-.102-.01-.203-.021-.304-.031-.072-.007-.143-.016-.215-.023v-4.965c.984.095 1.986.176 3 .243v4.983c-.84-.06-1.67-.128-2.481-.207zm-2.519-5.236v4.946c-1.057-.139-2.058-.292-3-.458v-4.91c.968.157 1.969.299 3 .422zm19.666 5.396c-.22.017-.442.034-.666.05v-4.987c1.014-.067 2.016-.147 3-.243v4.966c-.618.065-1.25.126-1.899.179-.145.013-.29.024-.435.035zm4.334-.45v-4.946c1.031-.124 2.032-.265 3-.422v4.91c-.942.166-1.943.32-3 .458zm5-5.725c1.062-.209 2.066-.439 3-.691v4.831c-.891.257-1.894.506-3 .741zm-13.675-4.568c-.752-.019-1.487-.048-2.209-.083-.039-.002-.078-.004-.116-.005v-4.993c1.002.047 2.009.078 3.016.096.053.001.106.002.158.003.275.005.55.009.825.012v4.993c-.487-.005-.978-.007-1.453-.018-.073-.002-.148-.003-.221-.005zm-23.325-14.291v-4.831c.934.252 1.938.482 3 .691v4.881c-.123-.026-.25-.052-.37-.078-.532-.117-1.051-.239-1.547-.368-.378-.097-.737-.196-1.083-.295zm18.175-2.691c.275.005.55.009.825.012v4.993c-1.346-.013-2.684-.048-4-.114v-4.989c1.002.047 2.009.078 3.016.096.053 0 .106.001.159.002zm3.809-.003c1.007-.019 2.014-.05 3.016-.096v4.989c-.17.008-.333.02-.504.028-.014.001-.028.001-.043.002-.671.03-1.355.052-2.048.068-.108.003-.216.004-.324.007-.356.007-.72.008-1.081.012v-4.995c.275-.003.55-.007.825-.012.053-.001.106-.002.159-.003zm22.787.502-.028-.006-.364.283c-.528.411-1.339.827-2.379 1.229v-4.757c1.189-.414 2.201-.873 3-1.376v4.138c0 .152-.08.316-.229.489zm-12.771 3.77v-4.94c1.031-.124 2.032-.265 3-.422v4.902c-.948.168-1.946.322-3 .46zm5-.845v-4.873c1.062-.209 2.066-.439 3-.691v4.82c-.896.261-1.905.51-3 .744zm-7-3.879v4.96c-.966.102-1.966.191-3 .265v-4.982c1.014-.067 2.016-.148 3-.243zm-20 4.962v-4.962c.984.095 1.986.176 3 .243v4.978c-1.018-.073-2.022-.156-3-.259zm-2-5.178v4.941c-.198-.026-.404-.047-.6-.074-.128-.018-.25-.037-.376-.055-.578-.083-1.143-.172-1.697-.265-.111-.019-.218-.039-.327-.058v-4.91c.968.156 1.969.298 3 .421zm10.752 17.427c-.135-.01-.271-.02-.405-.03-.64-.05-1.265-.105-1.875-.166-.131-.013-.262-.027-.392-.04-.027-.003-.053-.007-.08-.009v-4.966c.984.095 1.986.176 3 .243v4.984c-.081-.006-.167-.01-.248-.016zm-6.607-.747c-.396-.063-.768-.131-1.145-.197v-4.904c.968.157 1.969.298 3 .422v4.946c-.612-.081-1.211-.165-1.786-.255-.023-.005-.046-.009-.069-.012zm-3.145-5.459v4.873c-1.105-.237-2.107-.489-3-.751v-4.813c.934.252 1.938.483 3 .691zm-5-1.302v4.751c-1.572-.607-2.586-1.227-2.916-1.779l-.067-.112c-.006-.031-.016-.064-.017-.095v-4.141c.799.503 1.811.962 3 1.376zm23.984 2.749c1.007-.019 2.014-.05 3.016-.096v4.988c-1.314.065-2.65.101-4 .115v-4.992c.275-.003.55-.007.825-.012zm12.923 3.837c-.439.076-.882.151-1.337.22-.261.04-.528.078-.796.116-.253.036-.516.067-.773.1v-4.941c1.031-.124 2.032-.265 3-.422v4.91c-.032.006-.063.012-.094.017zm-6.771.854c-.373.031-.758.051-1.136.078v-4.978c1.014-.067 2.016-.147 3-.243v4.961c-.581.061-1.161.122-1.758.172-.036.003-.07.007-.106.01zm11.428-1.875c-.498.139-1.025.269-1.563.396-.249.058-.503.116-.763.172-.077.017-.159.032-.237.049v-4.879c1.062-.209 2.066-.439 3-.691v4.831c-.144.04-.289.081-.437.122zm5.425-9.731c-.092.679-1.631 1.582-4.378 2.431-3.538 1.093-9.074 2.094-16.09 2.404-.359.015-.717.03-1.083.042-.299.01-.599.019-.904.027-.828.018-1.668.031-2.534.031s-1.706-.013-2.534-.032c-.304-.007-.604-.017-.904-.027-.367-.011-.725-.027-1.083-.042-7.016-.31-12.553-1.311-16.09-2.404-2.725-.842-4.261-1.738-4.375-2.414.005-.019.005-.035.017-.059.068.017.144.031.213.048.391.093.792.183 1.2.269 1.987.428 4.189.779 6.535 1.047.008 0 .014.004.021.004.002 0 .004-.001.005-.001 1.598.182 3.256.325 4.958.426.013 0 .024.007.037.007.007 0 .012-.004.019-.004 1.225.072 2.466.125 3.722.153.769.019 1.524.029 2.259.029.525 0 1.063-.006 1.606-.016 7.266-.112 14-.976 18.686-2.315.216-.061.427-.124.635-.187.127-.039.257-.077.38-.116.362-.116.709-.235 1.044-.359.058-.022.113-.044.171-.066.283-.107.555-.218.815-.331.075-.033.152-.065.225-.098.277-.125.545-.253.793-.386.112-.059.209-.12.314-.18.12-.069.24-.139.351-.21.063-.04.138-.078.198-.118 4.477.971 5.657 2.033 5.771 2.447zm-30.989-16.065c16.489 0 24.829 2.596 24.985 4.086-.121.676-1.656 1.569-4.374 2.409-3.538 1.093-9.074 2.094-16.09 2.404-.359.015-.717.03-1.083.042-.299.01-.599.019-.904.027-.828.019-1.668.032-2.534.032s-1.706-.013-2.534-.032c-.304-.007-.604-.017-.904-.027-.367-.011-.725-.027-1.083-.042-7.016-.31-12.553-1.311-16.09-2.404-2.719-.84-4.253-1.733-4.374-2.409.156-1.49 8.496-4.086 24.985-4.086zm-25 10.996v-4.141c.799.503 1.811.962 3 1.376v4.788c-1.945-.729-2.998-1.46-3-2.023zm4.844 13.839c.015.016.038.03.053.046 1.369 1.382 4.204 2.468 7.733 3.278.081.019.167.037.249.056.259.058.522.115.788.17 3.241.69 7.11 1.189 11.325 1.436.003 0 .005.001.007.001s.003-.001.004-.001c1.354.079 2.739.134 4.153.158.626.013 1.242.021 1.844.021.69 0 1.398-.008 2.118-.025 1.308-.027 2.597-.081 3.868-.155.005 0 .009.003.014.003.009 0 .016-.005.025-.005 4.226-.249 8.191-.753 11.544-1.478-.726.38-1.72.773-2.958 1.156-3.735 1.154-9.7 2.205-17.281 2.449-.225.007-.447.015-.675.021-.245.006-.494.01-.743.015-.629.01-1.262.019-1.912.019-.866 0-1.706-.013-2.534-.032-.304-.007-.604-.017-.904-.027-.367-.011-.725-.027-1.083-.042-7.016-.31-12.553-1.311-16.09-2.404-2.75-.85-4.289-1.754-4.378-2.433.111-.376 1.122-1.317 4.833-2.227zm-4.844 9.161v-4.141c.799.503 1.811.962 3 1.376v4.769l-.571-.222-.012.012c-1.57-.651-2.415-1.29-2.417-1.794zm3 11v-4.141c.799.503 1.811.962 3 1.376v4.788c-1.945-.729-2.998-1.46-3-2.023zm47 2.023v-4.787c1.189-.414 2.201-.873 3-1.376v4.138c-.001.563-1.055 1.295-3 2.025zm2.987-8.942c-.109.677-1.645 1.575-4.376 2.419-3.538 1.093-9.074 2.094-16.09 2.404-.359.015-.717.03-1.083.042-.299.01-.599.019-.904.027-.828.018-1.668.031-2.534.031s-1.707-.013-2.536-.032c-.301-.007-.598-.017-.895-.027-.369-.012-.729-.027-1.09-.042-7.016-.31-12.552-1.311-16.09-2.404-2.645-.817-4.173-1.685-4.365-2.355.298.104.607.205.924.304.032.01.064.02.096.029.27.083.546.163.829.241.107.03.215.06.324.089.16.043.324.084.488.126 3.642.933 8.291 1.594 13.31 1.891.002 0 .003.001.005.001.001 0 .002-.001.003-.001 1.55.092 3.133.149 4.733.168.426.008.849.012 1.264.012.551 0 1.115-.007 1.686-.017 1.459-.024 2.899-.078 4.307-.162.003 0 .005.002.008.002.005 0 .008-.003.013-.003 1.715-.103 3.375-.25 4.97-.433.006 0 .011.003.017.003.022 0 .04-.011.062-.013 1.776-.205 3.46-.457 5.023-.75.322-.059.639-.12.953-.183.07-.014.14-.028.21-.043 2.953-.606 5.509-1.391 7.263-2.364.096-.052.186-.106.277-.159.111-.066.217-.133.32-.201.096-.062.207-.122.295-.185 1.974.704 2.518 1.334 2.583 1.585zm.013-13.058v-4.787c1.189-.414 2.201-.873 3-1.376v4.138c-.001.563-1.055 1.295-3 2.025z"/></svg>