<svg enable-background="new 0 0 512 512" viewBox="0 0 512 512" xmlns="http://www.w3.org/2000/svg"><path d="m509.892 250.583-22.913-24.992 15.664-30.07c1.921-3.688.703-8.233-2.805-10.466l-28.599-18.211 7.346-33.099c.901-4.06-1.452-8.133-5.417-9.383l-32.338-10.188-1.47-33.873c-.181-4.155-3.507-7.481-7.662-7.662l-33.873-1.47-10.188-32.338c-1.25-3.966-5.326-6.319-9.383-5.417l-33.099 7.346-18.211-28.599c-2.233-3.508-6.778-4.726-10.466-2.805l-30.07 15.664-24.991-22.912c-3.065-2.81-7.771-2.81-10.835 0l-24.992 22.912-30.069-15.664c-3.689-1.921-8.233-.702-10.466 2.805l-18.21 28.599-33.099-7.346c-4.057-.899-8.133 1.452-9.383 5.417l-10.188 32.338-33.873 1.47c-4.155.181-7.481 3.507-7.662 7.662l-1.47 33.873-32.338 10.188c-3.966 1.25-6.319 5.323-5.417 9.383l7.346 33.099-28.599 18.211c-3.507 2.233-4.724 6.778-2.805 10.466l15.664 30.07-22.913 24.992c-2.81 3.066-2.81 7.77 0 10.835l22.913 24.992-15.665 30.069c-1.921 3.688-.703 8.233 2.805 10.466l28.599 18.211-7.346 33.099c-.901 4.06 1.452 8.133 5.417 9.383l32.338 10.188 1.47 33.873c.181 4.155 3.507 7.481 7.662 7.662l33.873 1.47 10.188 32.338c1.25 3.966 5.326 6.316 9.383 5.417l33.099-7.346 18.211 28.599c2.232 3.507 6.776 4.724 10.466 2.805l30.07-15.664 24.992 22.913c1.533 1.405 3.475 2.108 5.417 2.108s3.885-.702 5.417-2.108l24.992-22.913 30.07 15.664c3.689 1.921 8.233.702 10.466-2.805l18.211-28.599 33.099 7.346c4.06.901 8.133-1.45 9.383-5.417l10.188-32.338 33.873-1.47c4.155-.181 7.481-3.507 7.662-7.662l1.47-33.873 32.338-10.188c3.966-1.25 6.319-5.323 5.417-9.383l-7.346-33.099 28.599-18.211c3.507-2.233 4.724-6.778 2.805-10.466l-15.664-30.07 22.913-24.992c2.809-3.065 2.809-7.77-.001-10.834zm-38.526 29.131c-2.279 2.485-2.759 6.13-1.201 9.121l14.863 28.533-27.138 17.279c-2.844 1.811-4.251 5.209-3.52 8.5l6.971 31.407-30.686 9.666c-3.216 1.013-5.455 3.93-5.601 7.298l-1.395 32.142-32.142 1.395c-3.368.146-6.285 2.385-7.298 5.601l-9.666 30.686-31.407-6.971c-3.289-.73-6.688.677-8.5 3.52l-17.279 27.138-28.533-14.863c-2.991-1.557-6.636-1.077-9.121 1.201l-23.714 21.741-23.714-21.741c-1.514-1.387-3.456-2.108-5.419-2.108-1.261 0-2.532.297-3.702.906l-28.533 14.863-17.279-27.138c-1.812-2.844-5.213-4.25-8.5-3.52l-31.407 6.971-9.666-30.686c-1.013-3.216-3.93-5.455-7.298-5.601l-32.142-1.395-1.395-32.142c-.146-3.368-2.385-6.285-5.601-7.298l-30.686-9.666 6.971-31.407c.731-3.291-.677-6.688-3.52-8.5l-27.138-17.278 14.863-28.533c1.557-2.991 1.077-6.636-1.201-9.121l-21.739-23.714 21.741-23.714c2.279-2.485 2.759-6.13 1.201-9.121l-14.863-28.533 27.138-17.279c2.844-1.811 4.251-5.209 3.52-8.5l-6.971-31.407 30.686-9.666c3.216-1.013 5.455-3.93 5.601-7.298l1.395-32.142 32.142-1.395c3.368-.146 6.285-2.385 7.298-5.601l9.666-30.686 31.407 6.971c3.291.729 6.688-.676 8.5-3.52l17.279-27.138 28.533 14.863c2.992 1.557 6.636 1.077 9.121-1.201l23.714-21.741 23.714 21.741c2.485 2.279 6.131 2.759 9.121 1.201l28.533-14.863 17.279 27.138c1.811 2.844 5.209 4.249 8.5 3.52l31.407-6.971 9.666 30.686c1.013 3.216 3.93 5.455 7.298 5.601l32.142 1.395 1.395 32.142c.146 3.368 2.385 6.285 5.601 7.298l30.686 9.666-6.971 31.407c-.731 3.291.677 6.688 3.52 8.5l27.138 17.279-14.863 28.533c-1.557 2.991-1.077 6.636 1.201 9.121l21.741 23.714z"/><path d="m400.605 222.37c-1.811-14.648-14.828-25.694-30.277-25.694h-48.728c13.125-14.753 21.703-31.552 23.36-46.623 1.012-9.205-1.832-18.342-7.805-25.069-5.459-6.149-12.924-9.576-21.02-9.651-7.944-.082-15.397 2.949-21.009 8.509-5.548 5.497-8.618 12.82-8.654 20.635-.285 1.711-3.295 7.61-10.66 14.614-6.03 5.736-16.446 13.621-31.825 18.614-6.03 1.957-11.54 5.563-16.379 10.714-4.763 5.072-13.504 13.297-24.528 18.997-2.365-6.265-8.407-10.74-15.489-10.74h-51.307c-9.136 0-16.568 7.432-16.568 16.568v145.37c0 9.136 7.432 16.568 16.568 16.568h51.307c9.136 0 16.568-7.432 16.568-16.568v-.534h140.851c13.849 0 25.849-8.957 29.184-21.782 1.704-6.549 1.189-13.16-1.361-19.065 6.749-5.482 10.899-13.804 10.899-22.753 0-3.953-.816-7.838-2.364-11.439 6.758-5.482 10.916-13.81 10.916-22.765 0-3.943-.812-7.819-2.354-11.414 7.75-6.241 11.957-16.133 10.675-26.492zm-212.48 136.243c0 .295-.239.534-.534.534h-51.307c-.295 0-.534-.239-.534-.534v-145.37c0-.295.239-.534.534-.534h51.307c.295 0 .534.239.534.534zm187.881-120.062c-2.495.914-4.375 3.007-5.018 5.585-.645 2.578.031 5.308 1.804 7.289 1.579 1.764 3.46 4.732 3.46 8.852 0 5.537-3.535 10.552-8.796 12.48-2.495.914-4.375 3.007-5.02 5.585s.031 5.308 1.804 7.289c1.579 1.764 3.46 4.732 3.46 8.852 0 5.537-3.535 10.552-8.796 12.48-2.495.914-4.375 3.006-5.02 5.584s.031 5.308 1.803 7.289c1.801 2.013 4.583 6.302 2.99 12.428-1.475 5.669-7.223 9.785-13.668 9.785h-140.85v-117.476c16.17-6.702 28.745-18.371 35.137-25.176 2.968-3.161 6.214-5.327 9.642-6.441 18.87-6.126 31.569-15.99 38.898-23.186 9.186-9.019 14.669-18.421 14.669-25.152 0-3.556 1.387-6.889 3.906-9.385 2.55-2.527 5.927-3.884 9.576-3.867 4.494.042 7.472 2.341 9.177 4.263 2.926 3.295 4.366 8.033 3.857 12.672-1.751 15.929-14.49 35.619-32.454 50.161-2.639 2.137-3.646 5.705-2.513 8.906s4.161 5.341 7.557 5.341h68.715c7.249 0 13.56 5.107 14.366 11.627.77 6.213-2.803 12.058-8.686 14.215z"/><path d="m161.937 316.392c-9.136 0-16.568 7.432-16.568 16.568s7.432 16.568 16.568 16.568 16.568-7.432 16.568-16.568-7.432-16.568-16.568-16.568z"/></svg>