<svg enable-background="new 0 0 491.777 491.777" viewBox="0 0 491.777 491.777" xmlns="http://www.w3.org/2000/svg"><path d="m371.629 33.049c-108.069-62.444-245.572-32.939-318.304 64.352l-15.311-76.282-20.08 4.04 22.15 110.33 111.905-21.79-3.91-20.1-77.534 15.089c66.822-88.288 192.194-114.905 290.834-57.899 92.96 53.71 133.39 164.81 96.135 264.16l19.18 7.2c40.78-108.77-3.405-230.35-105.065-289.1z"/><path d="m451.694 356.289-111.905 21.79 3.91 20.1 77.539-15.09c-66.813 88.301-192.175 114.935-290.839 57.9-92.96-53.71-133.39-164.81-96.135-264.16l-19.18-7.2c-40.78 108.77 3.405 230.35 105.065 289.1 38.5 22.25 80.735 32.82 122.45 32.82 75.401 0 149.001-34.659 195.82-97.334l15.345 76.444 20.08-4.04z"/></svg>