<svg enable-background="new 0 0 491.52 491.52" viewBox="0 0 491.52 491.52" xmlns="http://www.w3.org/2000/svg"><path d="m419.84 235.52v-81.92h-20.48v-112.64h-399.36v307.2h122.88v40.96h-20.48v20.48h81.92v40.96h153.6 10.24 143.36v-215.04zm-235.52 153.6h-40.96v-40.96h40.96zm0-61.44h-163.84v-40.96h163.84zm0-61.44h-163.84v-204.8h358.4v92.16h-194.56zm215.04-92.16v20.48h-194.56v-20.48zm-61.44 256h-133.12v-40.96h133.12zm0-194.56v133.12h-133.12v-153.6h194.56v20.48zm133.12 194.56h-112.64v-20.48h112.64zm0-40.96h-112.64v-92.16h112.64zm0-112.64h-112.64v-20.48h112.64z"/></svg>