<svg enable-background="new 0 0 491.518 491.518" viewBox="0 0 491.518 491.518" xmlns="http://www.w3.org/2000/svg"><path d="m490.319 112.892c-.49-4.19-3.5-7.65-7.58-8.715-166.6-43.62-229.36-100.84-229.96-101.395-3.94-3.71-10.1-3.71-14.04 0-.61.57-62.54 57.56-229.96 101.395-4.08 1.065-7.09 4.525-7.58 8.715-.32 2.745-29.06 275.93 240.94 377.965 1.17.44 2.39.66 3.62.66s2.45-.22 3.62-.66c270-102.035 241.26-375.22 240.94-377.965zm-244.56 357.42c-230.86-89.49-227.75-305.91-224.82-348.175 138.03-37.055 204.41-82.46 224.82-98.535 20.4 16.075 86.75 61.465 224.74 98.515 2.36 41.46 3.39 259.695-224.74 348.195z"/><path d="m304.689 194.407-80.99 80.98-36.87-36.87-14.48 14.481 51.35 51.35 95.47-95.461z"/><path d="m245.759 112.637c-73.4 0-133.12 59.715-133.12 133.12s59.72 133.12 133.12 133.12 133.12-59.715 133.12-133.12-59.72-133.12-133.12-133.12zm0 245.76c-62.11 0-112.64-50.53-112.64-112.64s50.53-112.64 112.64-112.64 112.64 50.53 112.64 112.64c0 62.111-50.53 112.64-112.64 112.64z"/></svg>