<svg enable-background="new 0 0 512 512" viewBox="0 0 512 512" xmlns="http://www.w3.org/2000/svg"><path d="m367.266 321.395c23.906-33.266 38-74.055 38-118.141 0-111.914-90.719-202.633-202.633-202.633s-202.633 90.719-202.633 202.625c0 111.914 90.719 202.633 202.633 202.633 44.727 0 86.055-14.5 119.57-39.031l144.547 144.531 45.25-45.25zm-94.078 48.922c-22.329 9.437-46.071 14.234-70.555 14.234s-48.227-4.797-70.563-14.234c-21.586-9.125-40.977-22.219-57.633-38.875-16.664-16.656-29.734-36.031-38.867-57.625-9.445-22.336-14.242-46.078-14.242-70.57 0-24.477 4.797-48.219 14.242-70.563 9.133-21.586 22.203-40.977 38.859-57.633 16.664-16.656 36.055-29.727 57.641-38.859 22.336-9.445 46.078-14.242 70.563-14.242s48.227 4.797 70.555 14.242c21.594 9.133 40.984 22.203 57.641 38.859s29.734 36.047 38.859 57.633c9.453 22.344 14.25 46.086 14.25 70.57s-4.797 48.227-14.25 70.563c-9.125 21.594-22.203 40.969-38.859 57.625s-36.047 29.75-57.641 38.875zm65.625-17.032c5.281-4.781 10.281-9.844 15.015-15.156l128.016 128-15.094 15.094z"/><path d="m288.095 311.568c-.003-.016-.008-.048-.014-.078h-.017z"/><path d="m106.482 148.301c.003.018.008.049.015.086h.001z"/><path d="m319.953 213.941h-32.297c.156-3.516.25-7.07.25-10.664 0-3.266-.094-6.445-.25-9.539 27.594-13.242 32-40.992 32.188-42.234l-.016-.008c.078-.508.125-1.023.125-1.555 0-5.891-4.766-10.664-10.672-10.664-5.344 0-9.781 3.961-10.531 9.109-.031.156-2.125 13.289-14.063 22.297-5.906-27.117-19.805-45.367-40.344-55.07l20.867-34.852-.016-.008c.961-1.602 1.523-3.469 1.523-5.477 0-5.891-4.773-10.664-10.664-10.664-3.883 0-7.273 2.086-9.141 5.195l-.008-.008-23.492 39.25c-6.5-1.18-13.438-1.773-20.781-1.773-7.32 0-14.219.586-20.695 1.758l-23.484-39.234-.008.008c-1.867-3.109-5.258-5.195-9.141-5.195-5.891 0-10.672 4.781-10.672 10.672 0 2 .563 3.867 1.523 5.469l-.008.008 20.844 34.813c-20.586 9.703-34.508 27.961-40.422 55.117-11.381-8.608-13.844-21.017-14.071-22.305h-.007c-.758-5.148-5.18-9.109-10.539-9.109-5.891 0-10.672 4.773-10.672 10.664 0 .531.055 1.047.125 1.555l-.008.008c.18 1.242 4.602 29 32.211 42.25-.164 3.086-.242 6.258-.242 9.523 0 3.594.078 7.148.227 10.664h-32.287c-5.891 0-10.664 4.773-10.664 10.664s4.773 10.664 10.664 10.664h34.266c1.641 11.203 4.219 21.727 7.82 31.297-26.805 13.406-31.125 40.578-31.305 41.813h.016c-.078.5-.133 1.031-.133 1.563 0 5.875 4.781 10.656 10.672 10.656 5.359 0 9.781-3.969 10.539-9.109h.008c.031-.172 2.742-17.203 19.641-25.766 13.695 21.531 35.102 34.875 65.805 34.875 30.695 0 52.109-13.344 65.797-34.875 16.238 8.245 19.407 24.388 19.65 25.766h.014c.75 5.141 5.172 9.109 10.531 9.109 5.891 0 10.656-4.781 10.656-10.656 0-.531-.031-1.063-.125-1.563h.016c-.172-1.234-4.5-28.406-31.297-41.813 3.594-9.57 6.188-20.094 7.813-31.297h34.266c5.891 0 10.672-4.773 10.672-10.664s-4.783-10.665-10.674-10.665zm-127.984 84.579c-15.946-2.329-28.078-10.204-36.891-23.86-10.719-16.602-16.383-41.289-16.383-71.383 0-7.703.5-14.813 1.477-21.336h51.797zm-45.985-137.914c2.547-5.906 5.758-10.984 9.625-15.188 10.258-11.148 26.079-16.805 47.024-16.805s36.766 5.656 47.023 16.805c3.867 4.203 7.078 9.281 9.625 15.188zm104.196 114.054c-8.813 13.656-20.945 21.531-36.883 23.859v-116.578h51.797c.977 6.523 1.477 13.633 1.477 21.336-.001 30.094-5.673 54.782-16.391 71.383z"/></svg>