<svg enable-background="new 0 0 512 512" viewBox="0 0 512 512" xmlns="http://www.w3.org/2000/svg"><path d="m511 255c0-35.99-7.542-70.298-21.099-101.447-.457-1.057-.918-2.11-1.388-3.159-.155-.343-.311-.686-.467-1.028-23.338-51.43-62.832-92.988-111.141-119.273-.082-.045-.165-.09-.247-.135-1.579-.857-3.166-1.698-4.763-2.522-.274-.142-.546-.287-.82-.428-1.504-.769-3.016-1.523-4.536-2.262-1.338-.653-2.687-1.287-4.038-1.917-.425-.198-.848-.402-1.274-.597-1.366-.628-2.742-1.239-4.121-1.844-.213-.093-.426-.188-.64-.281-18.721-8.15-38.586-14.118-59.272-17.586-.019-.003-.039-.006-.058-.01-1.709-.286-3.423-.558-5.144-.81-.009-.001-.018-.003-.027-.004-4.594-.672-9.227-1.217-13.895-1.639-.775-.07-1.548-.145-2.325-.208-1.012-.082-2.028-.153-3.043-.223-1.038-.072-2.076-.139-3.117-.199-.885-.05-1.771-.098-2.659-.139-1.26-.059-2.522-.105-3.785-.145-.711-.023-1.421-.05-2.134-.067-1.999-.047-4.001-.077-6.007-.077-27.911 0-54.733 4.359-80.472 13.049-64.336 21.468-117.517 67.896-147.909 127.659-.785.484-1.48 1.081-2.019 1.799-1.103 1.47-1.569 3.415-1.473 5.358-15.459 32.896-24.127 69.55-24.127 108.135 0 108.107 67.917 201.114 163.187 238.48.732.589 1.545 1.035 2.36 1.306 6.476 2.286 13.042 4.346 19.669 6.187 20.684 5.993 42.423 9.434 64.853 9.95 1.977.049 3.954.076 5.931.076 2.055 0 4.111-.031 6.166-.079.223-.005.447-.009.669-.015 19.055-.488 38.11-3.013 57.164-7.586.671-.224 1.341-.571 1.981-1.014 109.093-29.291 190.02-129.299 190.02-247.305zm-178.347-33.28c-2.56-.853-5.12-1.707-8.533-1.707-5.12 0-11.947 2.56-23.04 5.973-2.56.853-4.267 1.707-5.973 2.56-.853-5.12-4.267-11.947-13.653-15.36-5.12-1.707-8.533-.853-11.093 0-5.973 2.56-7.68 8.533-9.387 13.653v1.707c-3.413-2.56-5.12-6.827-6.827-11.093-4.267-11.947-11.093-23.893-36.693-17.92-7.68 1.707-12.8 2.56-16.213 3.413 6.827-11.093 18.773-30.72 9.387-52.907 0-.853 0-.853 0-.853 5.12 1.707 12.8 5.12 17.92 7.68 18.773 8.533 30.72 13.653 39.253 10.24 10.24-3.413 17.067-11.947 19.627-23.04 2.56-11.947 0-23.893-7.68-32.427-4.267-5.12-8.533-5.12-11.947-5.12 0 0-.853 0-1.707 0 3.413-3.413 6.827-5.973 10.24-7.68 5.973-2.56 11.947-1.707 17.067 3.413 6.827 6.827 15.36 8.533 23.893 5.973 17.067-5.12 29.013-28.16 31.573-46.933 1.675-10.888.06-20.125-2.421-26.918 22.022 9.199 42.404 21.6 60.547 36.628-2.431 8.639-7.701 25.674-16.304 48.142-2.49-.438-5.056-.678-7.689-.678-23.893 0-42.667 18.773-42.667 42.667 0 14.845 7.25 27.709 18.469 35.327-5.627 12.847-11.452 25.394-17.461 37.635-1.321-4.817-3.363-9.417-8.688-12.375zm-82.773-75.093c9.387-.853 14.507-10.24 17.92-17.067.853-1.707 1.707-2.56 2.56-4.267 2.56 4.267 2.56 9.387 1.707 14.507-.853 2.56-2.56 9.387-8.533 11.093-1.707 0-7.681-1.706-13.654-4.266zm-37.547-110.934c1.707-6.827.853-11.093 0-15.36 33.28-5.12 68.267-4.267 100.693 4.267-4.267 1.707-10.24 4.267-17.067 6.827-10.24 4.267-23.04 9.387-28.16 9.387-22.187 0-38.4 12.8-52.907 23.893-16.213 12.8-31.573 23.893-53.76 17.92 2.56-5.12 9.387-9.387 18.773-14.507 13.655-6.827 29.015-15.36 32.428-32.427zm196.267 125.44c0 14.507-11.093 25.6-25.6 25.6s-25.6-11.093-25.6-25.6 11.093-25.6 25.6-25.6 25.6 11.094 25.6 25.6zm-25.6 42.667c23.893 0 42.667-18.773 42.667-42.667 0-15.053-7.455-28.068-18.943-35.643 6.664-17.768 11.355-32.107 14.414-41.785 30.565 29.659 53.283 67.356 64.647 109.587-.383 4.768-.385 10.798-.385 17.334 0 8.533 0 22.187-1.707 29.867-.853-.853-.853-.853-1.707-1.707-7.68-10.24-19.627-23.04-32.427-19.627-14.507 3.413-17.067 23.893-19.627 41.813-.853 4.267-1.707 10.24-2.56 11.947-6.827 10.24-14.507 15.36-25.6 15.36-19.239 0-40.735-15.814-52.466-31.878 8.727-17.244 17.076-35.069 25.023-53.451 2.794.558 5.693.85 8.671.85zm-42.616 69.801c14.85 17.068 37.69 32.599 60.536 32.599 16.213 0 30.72-8.533 40.96-23.893 1.707-3.413 2.56-8.533 4.267-18.773.853-7.68 3.413-25.6 6.827-28.16 0 0 4.267 0 14.507 13.653 2.56 4.267 10.24 14.507 20.48 11.093 2.414-.862 4.368-2.256 5.961-4.149-.16 39.608-10.091 77.016-27.488 109.942-53.811-.381-106.603-16.872-155.511-41.237 10.206-16.358 20.038-33.389 29.461-51.075zm-196.222-230.074c-1.636 4.656-2.656 8.31-2.656 10.94 0 3.413 2.56 6.827 6.827 7.68s5.973-1.707 11.093-5.973c23.04-21.333 33.28-27.307 37.547-29.013 0 .853-.853 2.56-.853 4.267-1.707 9.387-12.8 14.507-23.893 20.48-13.653 7.68-31.573 17.067-29.867 36.693 0 3.413 1.707 6.827 5.12 7.68 34.987 13.653 57.173-3.413 76.8-18.773 14.507-11.093 26.453-20.48 43.52-20.48 9.387 0 21.333-5.12 34.987-11.093 6.827-3.413 17.92-7.68 22.187-8.533 6.827 5.973 6.827 15.36 5.973 21.333-1.707 16.212-11.947 30.718-19.627 33.278-1.707.853-3.413.853-5.973-1.707-10.24-9.387-23.04-12.8-35.84-6.827-18.773 8.533-31.573 31.573-30.72 55.467 0 1.707.853 2.56 1.707 4.267-1.707-.853-2.56-.853-4.267-1.707-18.774-8.533-32.427-14.506-40.107-6.826-6.827 7.68-2.56 17.92-.853 22.187 5.973 14.507-1.707 27.307-7.68 37.547-5.12 7.68-9.387 14.507-4.267 21.333 5.12 7.68 16.213 6.827 39.253.853 13.653-2.56 13.653-.853 17.067 7.68 1.707 5.973 4.267 12.8 11.947 18.773 1.707 1.707 8.533 6.827 16.213 4.267s9.387-9.387 11.093-14.507c.853-.853.853-.853.853-1.707.853 0 .853 1.707.853 3.413.853 2.56.853 8.533 5.973 11.093 5.973 3.413 11.947.853 23.893-4.267 8.533-4.267 12.8-4.267 13.653-4.267.853 1.707 1.707 4.267 1.707 6.827.598 4.187 1.62 8.795 3.645 13.527-10.87 20.647-22.259 40.374-34.078 59.181-52.949-28.599-100.804-65.673-139.725-100.193 3.482-6.205 5.465-13.407 5.465-21.155 0-23.893-18.773-42.667-42.667-42.667-7.876 0-15.188 2.05-21.463 5.641-18.325-19.187-31.254-34.353-36.859-41.094 21.781-30.64 50.592-55.972 84.019-73.618zm137.291 329.233 13.653 25.6c1.707 2.56 4.267 4.267 7.68 4.267h50.347l-7.68 24.747-27.307 22.187c-1.707.853-3.413 3.413-3.413 5.12l-5.942 33.107c-17.303 4.02-35.311 6.146-53.791 6.146-26.396 0-51.823-4.346-75.613-12.344 10.001-8.318 20.063-17.255 29.617-26.829 6.03 3.221 12.965 5.039 20.397 5.039 23.893 0 42.667-18.773 42.667-42.667 0-9.544-3.002-18.267-8.123-25.307 5.257-6.692 10.439-13.545 15.547-20.549zm-26.453 44.373c0 14.507-11.093 25.6-25.6 25.6s-25.6-11.093-25.6-25.6 11.093-25.6 25.6-25.6 25.6 11.094 25.6 25.6zm-3.806-36.837c-6.347-3.709-13.779-5.829-21.794-5.829-23.893 0-42.667 18.773-42.667 42.667 0 10.138 3.389 19.347 9.106 26.598-8.834 8.532-17.715 16.55-26.798 24.205l-13.882-27.763c-1.707-2.56-4.267-5.12-6.827-5.12l-30.72-4.267-44.062-20.785c-2.169-2.534-4.297-5.105-6.361-7.728l-7.603-34.634 22.187-29.867 16.448-8.224c-.056.159-.132.338-.235.544l1.707-.853c.853 0 .853-.853 1.707-.853l1.707-.853c.162-.097.312-.201.467-.303l50.733-11.644 21.333 15.36c.853 0 1.707.853 2.56.853l31.573 10.24h2.56l27.307-.853 26.01 19.641c-4.768 6.624-9.589 13.113-14.456 19.468zm-98.78 90.341c-13.414-6.43-26.139-14.083-38.042-22.801.227.016.454.017.681.017l28.16 3.413zm94.906-143.957c-.853-.853-3.413-1.707-5.12-1.707l-29.013.853-29.013-9.387-23.893-16.213c-1.707-1.707-4.267-2.56-6.827-1.707l-11.129 2.529c-1.276-1.262-2.969-2.107-5.084-2.529l-8.533-.853c-1.707 0-3.413 0-5.12.853l-26.453 12.8c-.195 0-.343.048-.469.117l-2.944.736c-1.417.567-2.545 1.42-3.397 2.457l-17.936 8.636c-1.707.853-2.56 1.707-3.413 2.56l-25.6 34.987c-.586.586-1.061 1.277-1.411 2.029-10.48-20.552-18.073-42.794-22.229-66.186 2.76-2.521 5.52-4.599 8.28-6.669 6.827-5.12 13.653-10.24 20.48-23.04 6.827-11.093 5.973-17.067 3.413-25.6-.853-5.12-2.56-11.093-1.707-22.187.853-14.507.853-18.773 0-23.04-.853-3.413-.853-6.827 0-21.333.649-15.574-1.667-23.251-7.315-29.413 2.343-4.5 4.822-8.919 7.438-13.248 6.681 8.098 18.044 21.429 33.629 37.794-5.139 7.047-8.152 15.785-8.152 25.347 0 23.893 18.773 42.667 42.667 42.667 9.904 0 18.922-3.233 26.095-8.712 39.242 34.874 87.747 72.421 141.653 101.688-3.702 5.64-7.442 11.193-11.217 16.659zm-128.853-105.813c-14.507 0-25.6-11.093-25.6-25.6s11.093-25.6 25.6-25.6 25.6 11.093 25.6 25.6c0 14.506-11.094 25.6-25.6 25.6zm-85.241-54.512c.114 2.059.087 4.534-.092 7.578-.853 16.213-.853 20.48 0 24.747.853 3.413.853 6.827 0 19.627-.853 13.653.853 21.333 2.56 27.307s1.707 7.68-1.707 13.653c-5.12 9.387-10.24 13.653-16.213 17.92-.2.15-.412.313-.618.469-.71-7.461-1.089-15.016-1.089-22.655 0-31.281 6.103-61.201 17.159-88.646zm294.05 316.324 3.671-22.025 27.307-22.187c.853-1.707 1.707-2.56 2.56-4.267l11.093-37.547c.853-2.56.853-5.12-.853-7.68-1.707-1.707-4.267-3.413-6.827-3.413h-56.32l-12.8-22.187c-.853-.853-1.707-1.707-2.56-2.56l-3.637-2.745c4.34-6.23 8.619-12.578 12.839-19.035 48.589 24.419 101.115 41.528 154.898 43.724-29.849 46.839-75.539 82.709-129.371 99.922z" transform="translate(1 1)"/></svg>