<svg height="24" viewBox="0 0 24 24" width="24" xmlns="http://www.w3.org/2000/svg"><g fill="none" fill-rule="evenodd"><path d="m0 0h24v24h-24z"/><g fill="#335eea"><path d="m11 3 .45 4.502a.552.552 0 0 0 1.1 0l.45-4.502h1l.45 4.502a.552.552 0 0 0 1.1 0l.45-4.502h1v4.5a3.5 3.5 0 0 1 -7 0v-4.5z"/><path d="m13.5 13c.561 0 1.024.438 1.055.998l.362 6.504a1.419 1.419 0 0 1 -1.417 1.498 1.419 1.419 0 0 1 -1.417-1.498l.362-6.504c.03-.56.494-.998 1.055-.998zm8 2c.563 0 1.031.435 1.071.997l.322 4.507a1.397 1.397 0 0 1 -1.393 1.496 1.397 1.397 0 0 1 -1.393-1.496l.322-4.507c.04-.562.508-.997 1.071-.997z" opacity=".3"/><path d="m20 3v10h4v-6a4 4 0 0 0 -4-4z"/><path d="m4.5 14c.562 0 1.027.437 1.062.998l.344 5.505a1.41 1.41 0 0 1 -1.406 1.497 1.41 1.41 0 0 1 -1.406-1.497l.344-5.505c.035-.561.5-.998 1.062-.998z" opacity=".3"/><path d="m4.5 12c-1.933 0-3.5-2.567-3.5-4.5s1.567-4.5 3.5-4.5 3.5 2.567 3.5 4.5-1.567 4.5-3.5 4.5zm.01-7.399.05 5.347a2.097 2.097 0 0 0 1.917-2.053c.02-1.134-.844-3.19-1.967-3.294z"/></g></g></svg>