<svg height="24" viewBox="0 0 24 24" width="24" xmlns="http://www.w3.org/2000/svg"><g fill="none" fill-rule="evenodd"><path d="m0 0h24v24h-24z"/><g fill="#335eea"><path d="m3.988 3.06 7.071 7.071-2.828 2.828-4.243-4.242a4 4 0 0 1 0-5.657zm13.766.847-2.865 3.503a.552.552 0 0 0 .777.778l3.502-2.866.707.707-2.865 3.503a.552.552 0 0 0 .777.777l3.502-2.865.708.707-3.182 3.182a3.5 3.5 0 1 1 -4.95-4.95l3.182-3.183z"/><path d="m11.075 13.925c.397.396.413 1.033.037 1.449l-4.97 5.498a1.426 1.426 0 1 1 -2.014-2.014l5.498-4.97a1.052 1.052 0 0 1 1.45.037zm2 0a1.052 1.052 0 0 1 1.45-.037l5.498 4.97a1.426 1.426 0 1 1 -2.014 2.014l-4.97-5.498a1.052 1.052 0 0 1 .036-1.45z" opacity=".3"/></g></g></svg>