<svg height="24" viewBox="0 0 24 24" width="24" xmlns="http://www.w3.org/2000/svg"><g fill="none" fill-rule="evenodd"><path d="m0 0h24v24h-24z"/><g fill="#335eea"><path d="m8 7a1 1 0 1 1 0-2h8a4 4 0 1 1 0 8h-8a2 2 0 1 0 0 4h9a1 1 0 0 1 0 2h-9a4 4 0 1 1 0-8h8a2 2 0 1 0 0-4z" opacity=".3"/><path d="m9.707 8.293a1 1 0 0 1 -1.414 1.414l-3-3a1 1 0 0 1 0-1.414l3-3a1 1 0 0 1 1.414 1.414l-2.293 2.293zm4.586 12a1 1 0 0 0 1.414 1.414l3-3a1 1 0 0 0 0-1.414l-3-3a1 1 0 0 0 -1.414 1.414l2.293 2.293z"/></g></g></svg>