<svg height="24" viewBox="0 0 24 24" width="24" xmlns="http://www.w3.org/2000/svg"><g fill="none" fill-rule="evenodd"><path d="m0 0h24v24h-24z"/><g fill="#335eea"><rect height="12" opacity=".3" rx="1" transform="matrix(-1 0 0 -1 12 22)" width="2" x="5" y="5"/><path d="m8.293 14.293a1 1 0 1 1 1.414 1.414l-3 3a1 1 0 0 1 -1.414 0l-3-3a1 1 0 0 1 1.414-1.414l2.293 2.293z"/><rect height="12" opacity=".3" rx="1" transform="matrix(-1 0 0 1 36 0)" width="2" x="17" y="7"/><path d="m20.293 9.707a1 1 0 0 0 1.414-1.414l-3-3a1 1 0 0 0 -1.414 0l-3 3a1 1 0 1 0 1.414 1.414l2.293-2.293z"/></g></g></svg>