<svg enable-background="new 0 0 560.71 63.21" viewBox="0 0 560.71 63.21" xmlns="http://www.w3.org/2000/svg"><g fill="#fff"><path d="m51.48 46.37c-.08.22-1.33 4.54-4.38 8.99-2.63 3.85-5.37 7.69-9.68 7.77-4.23.08-5.59-2.51-10.43-2.51s-6.36 2.43-10.36 2.59c-4.16.16-7.33-4.16-9.98-8-5.43-7.85-9.57-22.18-4-31.85 2.76-4.81 7.71-7.85 13.08-7.93 4.09-.08 7.94 2.74 10.43 2.74 2.5 0 7.18-3.39 12.1-2.9 2.06.09 7.84.83 11.56 6.27-.3.19-6.91 4.03-6.83 12.03.08 9.58 8.39 12.76 8.49 12.8m-16.45-36.28c2.21-2.67 3.7-6.39 3.29-10.09-3.18.12-7.03 2.12-9.31 4.79-2.05 2.37-3.84 6.15-3.35 9.77 3.54.28 7.16-1.8 9.37-4.47z"/><path d="m68.85 39c0-7.81 4.41-12.73 11.3-12.73 5.59 0 9.81 3.44 10.46 8.58h-3.79c-.68-3.16-3.32-5.23-6.67-5.23-4.48 0-7.38 3.67-7.38 9.38 0 5.76 2.87 9.4 7.4 9.4 3.44 0 5.88-1.76 6.65-4.73h3.81c-.94 5.09-4.8 8.08-10.48 8.08-6.92 0-11.3-4.89-11.3-12.75z"/><path d="m109.4 46.06c-.51 3.28-3.62 5.62-7.74 5.62-5.28 0-8.48-3.57-8.48-9.25 0-5.64 3.25-9.4 8.32-9.4 4.99 0 8.1 3.52 8.1 8.97v1.26h-12.7v.22c0 3.13 1.88 5.2 4.84 5.2 2.1 0 3.66-1.06 4.15-2.63h3.51zm-12.48-5.37h8.99c-.09-2.75-1.83-4.68-4.41-4.68s-4.39 1.96-4.58 4.68z"/><path d="m112.81 33.36h3.52v3.06h.08c.6-2.1 2.2-3.35 4.32-3.35.53 0 .99.09 1.27.14v3.44c-.29-.12-.94-.21-1.66-.21-2.38 0-3.85 1.59-3.85 4.14v10.77h-3.69v-17.99z"/><path d="m129.43 29.1v4.26h3.42v2.92h-3.42v9.91c0 1.56.68 2.26 2.19 2.26.38 0 .97-.03 1.21-.09v2.92c-.41.1-1.23.17-2.05.17-3.64 0-5.06-1.38-5.06-4.85v-10.32h-2.62v-2.92h2.62v-4.26z"/><path d="m136.05 28.61c0-1.18.96-2.12 2.14-2.12s2.14.94 2.14 2.12c0 1.16-.96 2.12-2.14 2.12s-2.14-.96-2.14-2.12zm.29 4.75h3.69v17.98h-3.69z"/><path d="m145.23 36.28h-2.48v-2.89h2.48v-1.76c0-3.49 1.64-5.13 5.3-5.13.75 0 1.59.09 2.07.17v2.73c-.36-.07-.85-.1-1.35-.1-1.61 0-2.36.8-2.36 2.39v1.69h3.64v2.89h-3.59v15.06h-3.71z"/><path d="m155.34 28.61c0-1.18.96-2.12 2.14-2.12s2.14.94 2.14 2.12c0 1.16-.96 2.12-2.14 2.12s-2.14-.96-2.14-2.12zm.29 4.75h3.69v17.98h-3.69z"/><path d="m179.04 46.06c-.51 3.28-3.62 5.62-7.74 5.62-5.28 0-8.48-3.57-8.48-9.25 0-5.64 3.25-9.4 8.32-9.4 4.99 0 8.1 3.52 8.1 8.97v1.26h-12.7v.22c0 3.13 1.88 5.2 4.84 5.2 2.1 0 3.66-1.06 4.15-2.63h3.51zm-12.48-5.37h8.99c-.09-2.75-1.83-4.68-4.41-4.68s-4.39 1.96-4.58 4.68z"/><path d="m181.29 42.35c0-5.67 3.01-9.28 7.52-9.28 2.58 0 4.63 1.3 5.64 3.28h.07v-9.67h3.71v24.66h-3.59v-3.06h-.07c-1.06 2.05-3.11 3.37-5.73 3.37-4.54-.01-7.55-3.63-7.55-9.3zm3.78 0c0 3.79 1.83 6.17 4.75 6.17 2.84 0 4.73-2.41 4.73-6.17 0-3.73-1.9-6.17-4.73-6.17-2.92 0-4.75 2.39-4.75 6.17z"/><path d="m212.89 44.57c.34 2.44 2.67 3.91 5.95 3.91 3.13 0 5.37-1.61 5.37-3.81 0-1.91-1.3-3.11-4.6-3.83l-2.68-.56c-4.94-1.04-7.18-3.33-7.18-6.89 0-4.22 3.71-7.13 8.96-7.13 5.23 0 8.8 2.96 8.92 7.26h-3.71c-.24-2.48-2.27-4-5.26-4-2.89 0-5.01 1.4-5.01 3.66 0 1.79 1.26 2.99 4.46 3.67l2.7.56c5.16 1.09 7.28 3.16 7.28 6.75 0 4.65-3.66 7.57-9.4 7.57-5.57 0-9.28-2.79-9.52-7.18h3.72z"/><path d="m246.49 51.34h-3.54v-3.04h-.09c-.99 2.15-2.82 3.37-5.57 3.37-3.91 0-6.31-2.55-6.31-6.67v-11.64h3.69v10.92c0 2.73 1.3 4.2 3.85 4.2 2.67 0 4.27-1.85 4.27-4.65v-10.47h3.69v17.98z"/><path d="m267.42 42.35c0 5.69-2.99 9.3-7.5 9.3-2.58 0-4.63-1.26-5.66-3.26h-.09v8.9h-3.69v-23.93h3.57v3.09h.07c1.06-2.07 3.13-3.38 5.72-3.38 4.57 0 7.58 3.59 7.58 9.28zm-3.8 0c0-3.76-1.83-6.17-4.75-6.17-2.82 0-4.72 2.46-4.72 6.17 0 3.74 1.88 6.17 4.72 6.17 2.92 0 4.75-2.4 4.75-6.17z"/><path d="m287.54 42.35c0 5.69-2.99 9.3-7.5 9.3-2.58 0-4.63-1.26-5.66-3.26h-.09v8.9h-3.69v-23.93h3.57v3.09h.07c1.06-2.07 3.13-3.38 5.72-3.38 4.57 0 7.58 3.59 7.58 9.28zm-3.8 0c0-3.76-1.83-6.17-4.75-6.17-2.82 0-4.72 2.46-4.72 6.17 0 3.74 1.88 6.17 4.72 6.17 2.93 0 4.75-2.4 4.75-6.17z"/><path d="m289.57 42.35c0-5.78 3.4-9.31 8.53-9.31s8.53 3.54 8.53 9.31c0 5.79-3.38 9.33-8.53 9.33-5.14 0-8.53-3.54-8.53-9.33zm13.3 0c0-3.98-1.88-6.27-4.77-6.27s-4.77 2.29-4.77 6.27c0 4 1.88 6.29 4.77 6.29 2.9 0 4.77-2.29 4.77-6.29z"/><path d="m309.48 33.36h3.52v3.06h.08c.6-2.1 2.2-3.35 4.32-3.35.53 0 .99.09 1.27.14v3.44c-.29-.12-.94-.21-1.66-.21-2.38 0-3.85 1.59-3.85 4.14v10.77h-3.69v-17.99z"/><path d="m326.1 29.1v4.26h3.42v2.92h-3.42v9.91c0 1.56.68 2.26 2.19 2.26.38 0 .97-.03 1.21-.09v2.92c-.41.1-1.23.17-2.05.17-3.64 0-5.06-1.38-5.06-4.85v-10.32h-2.62v-2.92h2.62v-4.26z"/><path d="m350.03 26.68c4.79 0 8.12 3.3 8.12 8.1 0 4.82-3.4 8.13-8.24 8.13h-5.3v8.43h-3.83v-24.66zm-5.42 13.02h4.39c3.33 0 5.23-1.79 5.23-4.9s-1.9-4.89-5.21-4.89h-4.41z"/><path d="m360.52 33.36h3.52v3.06h.08c.6-2.1 2.2-3.35 4.32-3.35.53 0 .99.09 1.27.14v3.44c-.29-.12-.94-.21-1.66-.21-2.38 0-3.85 1.59-3.85 4.14v10.77h-3.69v-17.99z"/><path d="m371.17 42.35c0-5.78 3.4-9.31 8.53-9.31s8.53 3.54 8.53 9.31c0 5.79-3.38 9.33-8.53 9.33s-8.53-3.54-8.53-9.33zm13.3 0c0-3.98-1.88-6.27-4.77-6.27s-4.77 2.29-4.77 6.27c0 4 1.88 6.29 4.77 6.29 2.9 0 4.77-2.29 4.77-6.29z"/><path d="m392.19 36.28h-2.48v-2.89h2.48v-1.76c0-3.49 1.64-5.13 5.3-5.13.75 0 1.59.09 2.07.17v2.73c-.36-.07-.85-.1-1.35-.1-1.61 0-2.36.8-2.36 2.39v1.69h3.64v2.89h-3.59v15.06h-3.71z"/><path d="m417.32 46.06c-.51 3.28-3.62 5.62-7.74 5.62-5.28 0-8.48-3.57-8.48-9.25 0-5.64 3.25-9.4 8.32-9.4 4.99 0 8.1 3.52 8.1 8.97v1.26h-12.7v.22c0 3.13 1.88 5.2 4.84 5.2 2.1 0 3.66-1.06 4.15-2.63h3.51zm-12.48-5.37h8.99c-.08-2.75-1.83-4.68-4.41-4.68s-4.39 1.96-4.58 4.68z"/><path d="m427.31 33.03c4.19 0 6.9 2.32 7.02 5.64h-3.47c-.21-1.74-1.49-2.84-3.55-2.84-2 0-3.33.97-3.33 2.41 0 1.13.82 1.9 2.77 2.34l2.92.67c3.67.85 5.08 2.29 5.08 4.89 0 3.28-3.06 5.54-7.3 5.54-4.49 0-7.2-2.2-7.54-5.62h3.66c.34 1.88 1.62 2.8 3.88 2.8 2.22 0 3.59-.92 3.59-2.39 0-1.16-.67-1.85-2.63-2.29l-2.92-.68c-3.42-.79-5.11-2.43-5.11-5.04-.01-3.22 2.79-5.43 6.93-5.43z"/><path d="m444.59 33.03c4.19 0 6.9 2.32 7.02 5.64h-3.47c-.21-1.74-1.49-2.84-3.55-2.84-2 0-3.33.97-3.33 2.41 0 1.13.82 1.9 2.77 2.34l2.92.67c3.67.85 5.08 2.29 5.08 4.89 0 3.28-3.06 5.54-7.3 5.54-4.49 0-7.2-2.2-7.54-5.62h3.66c.34 1.88 1.62 2.8 3.88 2.8 2.22 0 3.59-.92 3.59-2.39 0-1.16-.67-1.85-2.63-2.29l-2.92-.68c-3.42-.79-5.11-2.43-5.11-5.04 0-3.22 2.8-5.43 6.93-5.43z"/><path d="m455.06 28.61c0-1.18.96-2.12 2.14-2.12s2.14.94 2.14 2.12c0 1.16-.96 2.12-2.14 2.12s-2.14-.96-2.14-2.12zm.29 4.75h3.69v17.98h-3.69z"/><path d="m462.05 42.35c0-5.78 3.4-9.31 8.53-9.31s8.53 3.54 8.53 9.31c0 5.79-3.38 9.33-8.53 9.33-5.14 0-8.53-3.54-8.53-9.33zm13.3 0c0-3.98-1.88-6.27-4.77-6.27s-4.77 2.29-4.77 6.27c0 4 1.88 6.29 4.77 6.29 2.9 0 4.77-2.29 4.77-6.29z"/><path d="m481.96 33.36h3.52v3.01h.08c.97-2.05 2.89-3.32 5.66-3.32 3.96 0 6.24 2.53 6.24 6.65v11.64h-3.71v-10.92c0-2.7-1.27-4.19-3.83-4.19-2.6 0-4.27 1.85-4.27 4.63v10.48h-3.69z"/><path d="m500.65 46.23c0-3.14 2.41-5.08 6.68-5.31l4.92-.29v-1.38c0-2-1.35-3.2-3.61-3.2-2.14 0-3.47 1.03-3.79 2.63h-3.49c.21-3.25 2.97-5.64 7.42-5.64 4.36 0 7.14 2.31 7.14 5.91v12.39h-3.54v-2.96h-.09c-1.04 2-3.31 3.26-5.67 3.26-3.51 0-5.97-2.18-5.97-5.41zm11.6-1.63v-1.42l-4.43.27c-2.21.15-3.45 1.13-3.45 2.67 0 1.57 1.3 2.6 3.28 2.6 2.59 0 4.6-1.78 4.6-4.12z"/><path d="m519.95 26.68h3.69v24.66h-3.69z"/><path d="m541.59 30.47h-.08l-6.44 4.44v-3.62l6.49-4.61h3.78v24.66h-3.74v-20.87z"/><path d="m556.97 30.47h-.09l-6.44 4.44v-3.62l6.49-4.61h3.78v24.66h-3.74z"/></g></svg>