<svg height="24" viewBox="0 0 24 24" width="24" xmlns="http://www.w3.org/2000/svg"><g fill="none" fill-rule="evenodd"><path d="m0 0h24v24h-24z"/><g fill="#335eea"><path d="m8.423 7.196a.5.5 0 0 1 -.133-.49l.553-2.028a1.5 1.5 0 0 1 1.334-1.101l7.622-.577 1.061 1.06c1.072 1.072 2.51 2.7 4.318 4.885a2 2 0 0 1 .273 2.117l-2.559 5.515a1.5 1.5 0 0 1 -2.409.442zm12.12 2.025-2.744-3.657a1.3 1.3 0 0 0 -1.96-.14 1.5 1.5 0 0 0 0 2.122l3.182 3.182a1 1 0 0 0 1.414 0 1.153 1.153 0 0 0 .107-1.507z"/><path d="m10.377 14.232 1.663 1.663a1.568 1.568 0 0 1 0 2.218l-3.327 3.327a1.568 1.568 0 0 1 -2.218 0l-4.435-4.436a1.568 1.568 0 0 1 0-2.218l3.327-3.327a1.568 1.568 0 0 1 2.218 0l1.664 1.664 1.663-1.664 1.11 1.11-1.664 1.663zm-3.05 5.822 3.327-3.327-.555-.554-3.326 3.326zm-1.663-1.664 3.326-3.326-.554-.555-3.327 3.327zm-1.664-1.663 3.327-3.327-.554-.554-3.327 3.327z" opacity=".3"/></g></g></svg>