<svg height="24" viewBox="0 0 24 24" width="24" xmlns="http://www.w3.org/2000/svg"><g fill="none" fill-rule="evenodd"><path d="m0 0h24v24h-24z"/><g fill="#335eea"><rect height="12" opacity=".3" rx="1" transform="matrix(0 -1 1 0 7 19)" width="2" x="12"/><path d="m9.707 8.293a1 1 0 0 1 -1.414 1.414l-3-3a1 1 0 0 1 0-1.414l3-3a1 1 0 0 1 1.414 1.414l-2.293 2.293z"/><rect height="12" opacity=".3" rx="1" transform="matrix(0 -1 -1 0 29 29)" width="2" x="10" y="12"/><path d="m14.293 20.293a1 1 0 0 0 1.414 1.414l3-3a1 1 0 0 0 0-1.414l-3-3a1 1 0 0 0 -1.414 1.414l2.293 2.293z"/></g></g></svg>