<svg height="84.279999" viewBox="0 0 747.61334 84.279999" width="747.61334" xmlns="http://www.w3.org/2000/svg"><g fill="#fff" transform="matrix(.13333333 0 0 -.13333333 0 84.28)"><path d="m350.301 531.211c22.137 26.738 36.98 63.926 32.898 100.918-31.797-1.172-70.332-21.172-93.125-47.891-20.449-23.652-38.386-61.504-33.523-97.734 35.437-2.754 71.699 18.027 93.75 44.707zm164.453-362.793c-.793-2.246-13.274-45.371-43.781-89.9024-26.336-38.4961-53.7-76.91404-96.778-77.695287-42.324-.7812505-55.937 25.117187-104.304 25.117187-48.418 0-63.567-24.33594-103.586-25.8984375-41.59-1.5625025-73.2698 41.6406375-99.8245 79.9804375-54.3047 78.5155-95.7422 221.8355-40.0274 318.5155 27.6055 48.067 77.0979 78.477 130.7699 79.258 40.859.781 79.355-27.441 104.347-27.441 24.969 0 71.766 33.945 120.996 28.984 20.594-.879 78.446-8.32 115.625-62.715-2.968-1.875-69.054-40.332-68.332-120.312.86-95.684 83.938-127.481 84.895-127.891"/><path d="m688.543 242.152c0 78.102 44.082 127.321 112.957 127.321 55.891 0 98.098-34.352 104.59-85.789h-37.938c-6.836 31.613-33.156 52.293-66.652 52.293-44.773 0-73.828-36.743-73.828-93.825 0-57.593 28.711-93.992 73.996-93.992 34.355 0 58.789 17.602 66.484 47.336h38.106c-9.395-50.926-48.02-80.832-104.758-80.832-69.207 0-112.957 48.875-112.957 127.488"/><path d="m969.227 225.234h89.903c-.86 27.516-18.29 46.825-44.1 46.825-25.803 0-43.921-19.653-45.803-46.825zm124.763-53.664c-5.14-32.808-36.23-56.222-77.42-56.222-52.812 0-84.765 35.715-84.765 92.457 0 56.394 32.468 93.992 83.225 93.992 49.9 0 81.01-35.203 81.01-89.723v-12.644h-126.981v-2.223c0-31.273 18.8-51.953 48.371-51.953 21.01 0 36.56 10.594 41.52 26.316z"/><path d="m1128.07 298.551h35.22v-30.59h.85c5.98 21.019 22.04 33.492 43.23 33.492 5.3 0 9.92-.851 12.66-1.363v-34.352c-2.91 1.196-9.41 2.051-16.59 2.051-23.75 0-38.45-15.894-38.45-41.359v-107.664h-36.92z"/><path d="m1294.28 341.102v-42.551h34.18v-29.227h-34.18v-99.121c0-15.551 6.84-22.558 21.88-22.558 3.75 0 9.74.343 12.13.855v-29.223c-4.1-1.023-12.31-1.711-20.51-1.711-36.41 0-50.59 13.844-50.59 48.536v103.222h-26.15v29.227h26.15v42.551z"/><path d="m1363.4 298.551h36.92v-179.785h-36.92zm-2.91 47.508c0 11.793 9.58 21.191 21.37 21.191 11.8 0 21.37-9.398 21.37-21.191 0-11.621-9.57-21.192-21.37-21.192-11.79 0-21.37 9.571-21.37 21.192"/><path d="m1452.35 269.324h-24.78v28.883h24.78v17.602c0 34.867 16.41 51.269 52.98 51.269 7.52 0 15.89-.851 20.67-1.707v-27.344c-3.58.684-8.53 1.028-13.49 1.028-16.07 0-23.59-8.035-23.59-23.926v-16.922h36.4v-28.883h-35.88v-150.558h-37.09z"/><path d="m1556.28 298.551h36.91v-179.785h-36.91zm-2.91 47.508c0 11.793 9.57 21.191 21.36 21.191 11.8 0 21.37-9.398 21.37-21.191 0-11.621-9.57-21.192-21.37-21.192-11.79 0-21.36 9.571-21.36 21.192"/><path d="m1665.59 225.234h89.9c-.85 27.516-18.29 46.825-44.1 46.825-25.8 0-43.91-19.653-45.8-46.825zm124.77-53.664c-5.14-32.808-36.23-56.222-77.42-56.222-52.82 0-84.77 35.715-84.77 92.457 0 56.394 32.47 93.992 83.22 93.992 49.91 0 81.02-35.203 81.02-89.723v-12.644h-126.98v-2.223c0-31.273 18.8-51.953 48.37-51.953 21.01 0 36.56 10.594 41.52 26.316z"/><path d="m1850.69 208.656c0-37.937 18.28-61.691 47.5-61.691 28.38 0 47.34 24.094 47.34 61.691 0 37.258-18.96 61.696-47.34 61.696-29.22 0-47.5-23.926-47.5-61.696zm-37.77 0c0 56.739 30.07 92.797 75.19 92.797 25.8 0 46.31-12.984 56.4-32.812h.68v96.73h37.08v-246.605h-35.88v30.589h-.68c-10.61-20.507-31.11-33.667-57.26-33.667-45.46 0-75.53 36.23-75.53 92.968"/><path d="m2128.9 186.441c3.42-24.437 26.66-39.136 59.48-39.136 31.27 0 53.66 16.062 53.66 38.109 0 19.141-12.99 31.106-45.98 38.281l-26.82 5.641c-49.39 10.426-71.78 33.324-71.78 68.871 0 42.215 37.08 71.266 89.55 71.266 52.29 0 88.02-29.567 89.21-72.633h-37.09c-2.39 24.781-22.73 39.992-52.64 39.992-28.88 0-50.07-14.016-50.07-36.574 0-17.945 12.65-29.906 44.6-36.742l27.01-5.641c51.61-10.937 72.8-31.613 72.8-67.504 0-46.484-36.57-75.707-93.99-75.707-55.72 0-92.8 27.856-95.19 71.777z"/><path d="m2464.89 118.766h-35.37v30.418h-.86c-9.9-21.532-28.19-33.668-55.7-33.668-39.14 0-63.07 25.464-63.07 66.652v116.383h36.91v-109.203c0-27.344 12.99-42.043 38.46-42.043 26.66 0 42.72 18.457 42.72 46.484v104.762h36.91z"/><path d="m2636.22 208.656c0 37.598-18.28 61.696-47.51 61.696-28.2 0-47.17-24.61-47.17-61.696 0-37.426 18.8-61.691 47.17-61.691 29.23 0 47.51 23.926 47.51 61.691zm37.94 0c0-56.91-29.92-92.968-75.03-92.968-25.8 0-46.31 12.648-56.56 32.64h-.86v-89.0428h-36.92v239.2658h35.72v-30.934h.69c10.59 20.68 31.27 33.836 57.24 33.836 45.64 0 75.72-35.887 75.72-92.797"/><path d="m2837.44 208.656c0 37.598-18.28 61.696-47.5 61.696-28.2 0-47.17-24.61-47.17-61.696 0-37.426 18.8-61.691 47.17-61.691 29.22 0 47.5 23.926 47.5 61.691zm37.94 0c0-56.91-29.91-92.968-75.03-92.968-25.79 0-46.3 12.648-56.55 32.64h-.86v-89.0428h-36.92v239.2658h35.72v-30.934h.69c10.59 20.68 31.27 33.836 57.24 33.836 45.63 0 75.71-35.887 75.71-92.797"/><path d="m3028.67 208.656c0 39.821-18.8 62.723-47.67 62.723-28.89 0-47.69-22.902-47.69-62.723 0-39.988 18.8-62.89 47.69-62.89 29.04 0 47.67 22.902 47.67 62.89zm-132.96 0c0 57.766 34.02 93.141 85.29 93.141s85.27-35.375 85.27-93.141c0-57.933-33.84-93.308-85.27-93.308-51.45 0-85.29 35.375-85.29 93.308"/><path d="m3094.81 298.551h35.21v-30.59h.85c5.99 21.019 22.04 33.492 43.23 33.492 5.31 0 9.93-.851 12.66-1.363v-34.352c-2.91 1.196-9.4 2.051-16.58 2.051-23.75 0-38.46-15.894-38.46-41.359v-107.664h-36.91z"/><path d="m3261.02 341.102v-42.551h34.18v-29.227h-34.18v-99.121c0-15.551 6.83-22.558 21.87-22.558 3.75 0 9.74.343 12.13.855v-29.223c-4.1-1.023-12.3-1.711-20.51-1.711-36.4 0-50.58 13.844-50.58 48.536v103.222h-26.15v29.227h26.15v42.551z"/><path d="m3446.08 235.145h43.92c33.32 0 52.3 17.945 52.3 49.05 0 31.102-18.98 48.875-52.12 48.875h-44.1zm54.18 130.226c47.85 0 81.17-32.984 81.17-81.008 0-48.191-34.01-81.347-82.37-81.347h-52.98v-84.25h-38.29v246.605z"/><path d="m3605.24 298.551h35.21v-30.59h.85c5.99 21.019 22.04 33.492 43.23 33.492 5.31 0 9.92-.851 12.66-1.363v-34.352c-2.91 1.196-9.4 2.051-16.58 2.051-23.75 0-38.46-15.894-38.46-41.359v-107.664h-36.91z"/><path d="m3844.66 208.656c0 39.821-18.8 62.723-47.69 62.723-28.87 0-47.67-22.902-47.67-62.723 0-39.988 18.8-62.89 47.67-62.89 29.07 0 47.69 22.902 47.69 62.89zm-132.96 0c0 57.766 34 93.141 85.27 93.141s85.29-35.375 85.29-93.141c0-57.933-33.84-93.308-85.29-93.308-51.43 0-85.27 35.375-85.27 93.308"/><path d="m3921.92 269.324h-24.79v28.883h24.79v17.602c0 34.867 16.4 51.269 52.97 51.269 7.52 0 15.89-.851 20.68-1.707v-27.344c-3.59.684-8.54 1.028-13.5 1.028-16.06 0-23.58-8.035-23.58-23.926v-16.922h36.39v-28.883h-35.87v-150.558h-37.09z"/><path d="m4048.44 225.234h89.88c-.85 27.516-18.28 46.825-44.08 46.825-25.81 0-43.93-19.653-45.8-46.825zm124.75-53.664c-5.12-32.808-36.24-56.222-77.42-56.222-52.8 0-84.76 35.715-84.76 92.457 0 56.394 32.47 93.992 83.23 93.992 49.9 0 81-35.203 81-89.723v-12.644h-126.98v-2.223c0-31.273 18.8-51.953 48.36-51.953 21.03 0 36.58 10.594 41.54 26.316z"/><path d="m4273.07 301.797c41.87 0 69.04-23.242 70.23-56.399h-34.68c-2.06 17.434-14.87 28.372-35.55 28.372-20 0-33.32-9.743-33.32-24.098 0-11.277 8.2-18.969 27.67-23.41l29.23-6.668c36.75-8.543 50.75-22.899 50.75-48.875 0-32.813-30.58-55.371-72.96-55.371-44.95 0-71.96 22.043-75.38 56.222h36.59c3.41-18.797 16.23-28.023 38.79-28.023 22.21 0 35.88 9.226 35.88 23.926 0 11.621-6.67 18.457-26.31 22.898l-29.22 6.836c-34.18 7.859-51.11 24.266-51.11 50.414 0 32.129 28.03 54.176 69.39 54.176"/><path d="m4445.94 301.797c41.87 0 69.04-23.242 70.23-56.399h-34.68c-2.05 17.434-14.87 28.372-35.55 28.372-20 0-33.32-9.743-33.32-24.098 0-11.277 8.2-18.969 27.67-23.41l29.23-6.668c36.75-8.543 50.76-22.899 50.76-48.875 0-32.813-30.59-55.371-72.97-55.371-44.94 0-71.96 22.043-75.37 56.222h36.58c3.42-18.797 16.23-28.023 38.79-28.023 22.21 0 35.89 9.226 35.89 23.926 0 11.621-6.67 18.457-26.32 22.898l-29.22 6.836c-34.18 7.859-51.11 24.266-51.11 50.414 0 32.129 28.03 54.176 69.39 54.176"/><path d="m4553.52 298.551h36.91v-179.785h-36.91zm-2.91 47.508c0 11.793 9.57 21.191 21.36 21.191 11.8 0 21.37-9.398 21.37-21.191 0-11.621-9.57-21.192-21.37-21.192-11.79 0-21.36 9.571-21.36 21.192"/><path d="m4753.48 208.656c0 39.821-18.8 62.723-47.68 62.723s-47.68-22.902-47.68-62.723c0-39.988 18.8-62.89 47.68-62.89 29.05 0 47.68 22.902 47.68 62.89zm-132.96 0c0 57.766 34.01 93.141 85.28 93.141s85.28-35.375 85.28-93.141c0-57.933-33.84-93.308-85.28-93.308s-85.28 35.375-85.28 93.308"/><path d="m4819.61 298.551h35.22v-30.078h.85c9.73 20.507 28.87 33.152 56.57 33.152 39.65 0 62.37-25.293 62.37-66.48v-116.379h-37.08v109.203c0 27.004-12.66 41.871-38.28 41.871-25.98 0-42.73-18.457-42.73-46.317v-104.757h-36.92z"/><path d="m5122.52 186.098v14.183l-44.26-2.73c-22.05-1.539-34.53-11.281-34.53-26.66 0-15.723 12.99-25.981 32.81-25.981 25.82 0 45.98 17.774 45.98 41.188zm-116.03-16.235c0 31.446 24.09 50.758 66.81 53.149l49.22 2.906v13.844c0 19.996-13.49 31.957-36.05 31.957-21.37 0-34.7-10.254-37.95-26.321h-34.87c2.05 32.473 29.75 56.399 74.18 56.399 43.58 0 71.43-23.07 71.43-59.129v-123.902h-35.37v29.562h-.86c-10.42-19.992-33.15-32.64-56.74-32.64-35.19 0-59.8 21.875-59.8 54.175"/><path d="m5199.51 365.371h36.92v-246.605h-36.92z"/></g></svg>