<svg height="24" viewBox="0 0 24 24" width="24" xmlns="http://www.w3.org/2000/svg"><g fill="none" fill-rule="evenodd"><path d="m0 0h24v24h-24z"/><g fill="#335eea"><path d="m8 3v.5a1.5 1.5 0 0 0 1.5 1.5h5a1.5 1.5 0 0 0 1.5-1.5v-.5h2a2 2 0 0 1 2 2v16a2 2 0 0 1 -2 2h-12a2 2 0 0 1 -2-2v-16a2 2 0 0 1 2-2z" opacity=".3"/><path d="m11 2a1 1 0 0 1 2 0h1.5a.5.5 0 0 1 .5.5v1a.5.5 0 0 1 -.5.5h-5a.5.5 0 0 1 -.5-.5v-1a.5.5 0 0 1 .5-.5z"/><rect height="2" opacity=".3" rx="1" width="7" x="10" y="9"/><rect height="2" opacity=".3" rx="1" width="2" x="7" y="9"/><rect height="2" opacity=".3" rx="1" width="2" x="7" y="13"/><rect height="2" opacity=".3" rx="1" width="7" x="10" y="13"/><rect height="2" opacity=".3" rx="1" width="2" x="7" y="17"/><rect height="2" opacity=".3" rx="1" width="7" x="10" y="17"/></g></g></svg>