<svg height="94" viewBox="0 0 115 94" width="115" xmlns="http://www.w3.org/2000/svg"><g fill="#fff" fill-rule="evenodd"><g fill-rule="nonzero"><path d="m24.5 26.9 3.4 1.5 10.8 4.8.7.3c.4.2.7.3 1.1.5l.7.3c2.3 1 5.1 1.5 7.8 1.5 2.8 0 5.6-.5 8-1.6l17.2-7.9c3.9-1.8 6.2-4.8 6.2-8.3s-2.3-6.5-6.2-8.3l-16.9-7.7c-4.9-2.2-11.6-2.2-16.4.1l-17.1 8.3c-3.8 1.9-6 4.9-5.9 8.3.2 3.5 2.6 6.5 6.6 8.2zm3.4-8.5 17.1-8.3c2.4-1.2 6.3-1.2 8.8-.1l16.9 7.7c.2.1.3.2.5.2-.1.1-.3.2-.5.2l-10.7 4.9-.3-.1c-6.2-2.8-14.7-2.8-20.8.2l-.4.2-10.4-4.6c-.2-.1-.4-.2-.5-.3 0 .1.1 0 .3 0z"/><path d="m89.3 56.4-1.7-.8-10.6 4.8 8.6 3.9c2.3 1.1 3.6 2.4 3.4 3-.7 1.9-1.7 2-3.4 3l-28.4 13c-4.7 2.1-11.8 2.2-16.5.1l-27.6-12.1c-2.8-1.2-3.6-2.6-3.6-3.1 0-.7 1-1.9 3.1-2.9l8.9-4.3-10.6-4.6-2.2 1.1c-5.2 2.5-8.2 6.5-8.1 11 .1 4.6 3.3 8.6 8.8 11l27.6 12.1c3.5 1.5 7.6 2.3 11.7 2.3 4.3 0 8.5-.8 12-2.4l28.4-13c5.4-2.5 8-6.5 8-11 .1-4.6-2.4-8.7-7.8-11.1z"/><path d="m16.5 54 22.6 9.9c3 1.3 6.5 2 9.9 2 3.6 0 7.2-.7 10.2-2.1l12.6-5.8 10.6-4.8c4.8-2.2 7.5-5.8 7.5-9.9s-2.7-7.7-7.5-9.9l-7.1-3.2-10.5 5.1 13.8 6.3c1.6.7 2.1 1.4 2.2 1.7-.1.2-.7 1-2.2 1.7l-7.1 3.3-10.1-4.6c-7.3-3.3-17.3-3.3-24.5.2l-10.2 4.9-6.8-3c-1.7-.7-2.3-1.5-2.4-1.7.1-.2.6-.9 2-1.6l13.8-6.7-10.8-4.8-6.9 3.3c-4.6 2.2-7.2 5.8-7.1 9.8.3 4.2 3.1 7.7 8 9.9zm24.3-2.3c4.8-2.3 12.1-2.4 17-.1l3.2 1.5-5.5 2.5c-3.6 1.7-9.1 1.7-12.8.1l-5.2-2.3z"/></g><text font-family="Helvetica" font-size="22"><tspan x="99" y="90">®</tspan></text></g></svg>