<svg height="24" viewBox="0 0 24 24" width="24" xmlns="http://www.w3.org/2000/svg"><g fill="none" fill-rule="evenodd"><path d="m0 0h24v24h-24z"/><g fill="#335eea"><path d="m11 11v-7.243a1 1 0 1 1 2 0v7.243h8.757a1 1 0 0 1 0 2h-8.757v8.757a1 1 0 0 1 -2 0v-8.757h-7.243a1 1 0 1 1 0-2z" opacity=".3"/><path d="m3.515 12 2.121 2.121c.39.553.39 1.024 0 1.415-.39.39-.862.39-1.414 0l-3.536-3.536 3.536-3.536c.471-.47.943-.47 1.414 0 .471.472.471.943 0 1.415zm8.485 8.485 2.121-2.121c.553-.39 1.024-.39 1.415 0 .39.39.39.862 0 1.414l-3.536 3.536-3.536-3.536c-.47-.471-.47-.943 0-1.414.472-.471.943-.471 1.415 0zm8.485-8.485-2.121-2.121c-.39-.553-.39-1.024 0-1.415.39-.39.862-.39 1.414 0l3.536 3.536-3.536 3.536c-.471.47-.943.47-1.414 0-.471-.472-.471-.943 0-1.415zm-8.485-8.485-2.121 2.121c-.553.39-1.024.39-1.415 0-.39-.39-.39-.862 0-1.414l3.536-3.536 3.536 3.536c.47.471.47.943 0 1.414-.472.471-.943.471-1.415 0z"/></g></g></svg>