<svg height="24" viewBox="0 0 24 24" width="24" xmlns="http://www.w3.org/2000/svg"><g fill="none" fill-rule="evenodd"><path d="m0 0h24v24h-24z"/><g fill="#335eea"><path d="m8.525 14.56 1.414 1.415a1 1 0 0 1 0 1.414l-4.95 4.95a1 1 0 0 1 -1.414 0l-1.414-1.414a1 1 0 0 1 0-1.415l4.95-4.95a1 1 0 0 1 1.414 0z" opacity=".3"/><path d="m11.354 11.732-2.122-2.121a2 2 0 0 1 0-2.829l4.243-4.242a2 2 0 0 1 2.828 0l5.657 5.657a2 2 0 0 1 0 2.828l-4.242 4.243a2 2 0 0 1 -2.829 0l-2.121-2.122-2.122 2.122-1.414-1.414zm3.889-7.424-4.243 4.242.707.707 4.243-4.242zm2.121 2.12-4.243 4.244.707.707 4.243-4.243-.707-.707zm2.121 2.122-4.242 4.243.707.707 4.242-4.243z"/></g></g></svg>