<svg xmlns="http://www.w3.org/2000/svg"><defs><font horiz-adv-x="447"><font-face alphabetic="0" ascent="960" descent="-300" panose-1="0 0 5 0 0 0 0 0 0 0"/><glyph glyph-name="space" horiz-adv-x="242" unicode="&#x20;"/><glyph d="M178 166T167 181 156 225Q156 251 165 285 179 313 179 327 184 344 195 370T213 411Q217 411 221 418T226 432Q226 441 229 450T237 464Q237 467 241 474T245 485Q245 487 247 491T250 499Q268 529 302 612T337 708Q340 725 355 722 360 726 371 726L385 710Q392 703 393 696T395 673Q394 658 386 641T367 604 352 577L339 553Q323 525 323 520 323 516 318 506T310 488Q301 473 290 451T279 424Q278 422 277 417T271 408Q268 408 267 404T266 397Q266 392 261 377T247 344Q213 247 210 206 208 182 207 178T197 170Q178 166 167 181ZM124 3T114 3Q101 3 84 15 70 29 70 43 70 65 104 88 124 100 133 100 138 100 157 93 184 77 184 56 184 44 174 32T143 10Q124 3 114 3Z" glyph-name="exclam" horiz-adv-x="210" unicode="&#x21;"/><glyph d="M190 440Q186 440 183 441T176 447V451Q176 460 186 473 224 535 234 563 235 571 240 591T245 628V632Q245 642 248 650T257 655Q261 653 274 647T293 633 298 615Q296 592 282 552 277 540 274 530 269 510 257 492T223 450Q223 448 220 447T212 444 199 440H190ZM310 440Q306 440 303 441T296 447V451Q296 460 306 473 344 535 354 563 355 571 360 591T365 628V632Q365 642 368 650T377 655Q381 653 394 647T413 633 418 615Q416 592 402 552 397 540 394 530 389 510 377 492T343 450Q343 448 340 447T332 444 319 440H310Z" glyph-name="quotedbl" horiz-adv-x="237" unicode="&#x26;&#x71;&#x75;&#x6f;&#x74;&#x3b;"/><glyph d="M686 414T686 403Q686 394 679 390T658 388L595 383Q593 383 583 383T548 382Q538 362 523 327T508 288Q508 277 503 272 500 272 499 268T498 261Q498 258 493 240 523 241 558 241 584 241 593 239T613 226Q625 214 625 203 625 194 618 190T597 188L534 183Q532 183 519 183T474 182Q440 70 420-3T399-97Q399-123 398-129T389-140Q386-141 379-141 363-141 354-125T345-81Q345-58 351-28 362 1 362 14 364 26 380 77T414 181L253 179 244 150Q239 132 220 68T190-39 179-97Q179-123 178-129T169-140Q166-141 159-141 143-141 134-125T125-81Q125-58 131-28 142 1 142 14 146 34 193 178H146Q126 178 111 183 97 183 92 186T82 197Q76 206 76 211 76 217 87 220T126 227Q140 231 211 234 218 254 221 262T225 272Q229 272 232 278T235 293Q235 302 238 311T246 325Q246 328 248 336T251 347Q251 349 253 354T256 363Q258 366 259 370T263 378H207Q187 378 172 383 158 383 153 386T143 397Q137 406 137 411 137 417 148 420T187 427Q202 431 287 434 322 521 362 627T402 743Q402 759 418 759 423 764 434 764L450 748Q457 741 459 734T461 711Q461 696 457 685T437 640Q434 633 429 624T418 600Q415 590 395 547 382 516 370 487T348 436Q388 438 486 440H509Q544 528 583 631T622 743Q622 759 638 759 643 764 654 764L670 748Q677 741 679 734T681 711Q681 696 677 685T657 640Q654 633 649 624T638 600L627 575Q585 477 570 441H619Q645 441 654 439T674 426Q686 414 686 403ZM481 373T484 381L326 379Q314 354 301 323T288 288Q288 277 283 272 280 272 279 268T278 261Q278 256 272 236 317 238 433 240L445 272Q449 272 452 278T455 293Q455 302 458 311T466 325Q466 328 468 336T471 347Q471 349 473 354T476 363Q481 373 484 381Z" glyph-name="numbersign" horiz-adv-x="559" unicode="&#x23;"/><glyph d="M527 580T546 567 566 539Q566 527 551 516 540 514 519 524 495 535 478 537 455 497 433 457T411 415Q411 410 395 384L367 333Q387 314 387 311V307Q389 307 403 288T417 264Q418 263 420 259T426 249Q431 246 435 219T440 176Q440 164 429 149T400 120Q379 104 340 84T271 59L243 53Q199-55 194-83 192-107 190-114T178-124Q146-131 146-88 146-63 161-11 176 10 178 33L184 49Q131 47 120 55 111 58 99 67 78 77 67 90T55 126Q55 132 68 143T97 154Q105 154 115 149 106 129 106 121 106 111 115 106T149 96Q159 95 176 95 194 95 204 96 278 265 286 278 290 278 295 285T301 299Q301 304 303 312 280 348 263 358 260 361 255 370T248 381Q247 382 245 385T240 393Q232 406 232 421 232 441 244 463T280 506Q291 519 320 539T355 560Q357 561 363 563T378 569Q387 571 402 575T430 580L437 582Q503 720 503 730 506 738 510 741T523 743Q529 749 539 745L553 731Q562 716 560 692 558 682 554 673T546 656 538 643Q524 621 505 586V585Q527 580 546 567ZM357 413T413 531Q367 520 339 489 315 474 303 457T291 427Q296 408 308 393L331 369Q357 413 413 531ZM377 217T373 226 348 269Q348 272 341 279L335 272Q332 272 331 268T329 261Q329 256 324 243T308 214L262 101Q279 105 282 107 311 116 334 128T364 153Q374 162 376 168T378 182 378 194Q377 217 373 226Z" glyph-name="dollar" horiz-adv-x="450" unicode="&#x24;"/><glyph d="M250 312T244 315 229 327Q203 353 203 377 203 383 204 386 206 392 206 397T205 404Q201 408 203 410T206 414Q211 414 209 423 207 429 215 451T236 492Q244 506 261 527T292 560Q312 577 327 585T360 597Q373 601 382 601 392 601 404 588 426 579 434 564T442 518Q442 467 400 405 381 379 365 365T323 335Q305 323 291 318T260 312Q250 312 244 315ZM99-89T99-62Q99-30 133 17 155 35 158 45 166 59 257 160 318 229 321 234H322Q326 234 330 239T337 251Q340 259 347 265T361 273Q363 277 366 281T370 288Q370 290 374 294T379 302Q406 325 521 443T642 572Q647 581 653 581 655 581 661 579 665 581 669 581 673 581 677 579 677 578 678 573T684 560Q688 553 688 545 688 536 681 525 674 512 667 503T634 472L604 445Q595 435 536 378 476 322 475 318 464 316 455 298L436 279Q383 228 382 224 379 220 366 215 365 216 364 214T362 210Q362 206 353 194T328 169Q278 109 219 34T149-62Q141-81 137-87T125-94Q99-89 99-62ZM355 423T366 441 387 488Q391 504 391 520 391 543 386 546 379 550 370 550 352 550 335 534 313 516 296 489T258 417Q251 402 251 386 251 374 256 367T272 360Q298 360 337 402 355 423 366 441ZM390-58T384-55 369-43Q343-17 343 7 343 13 344 16 346 22 346 27T345 34Q341 38 343 40T346 44Q351 44 349 53 347 59 355 81T376 122Q384 136 401 157T432 190Q452 207 467 215T500 227Q513 231 522 231 532 231 544 218 566 209 574 194T582 148Q582 97 540 35 521 9 505-5T463-35Q445-47 431-52T400-58Q390-58 384-55ZM494 54T505 72 526 119Q530 135 530 151 530 174 525 177 518 181 509 181 491 181 474 165 452 147 435 120T397 48Q390 33 390 17 390 5 395-2T411-9Q437-9 476 33 494 54 505 72Z" glyph-name="percent" horiz-adv-x="600" unicode="&#x25;"/><glyph d="M657-68T641-68Q624-68 596-56T543-30Q525-25 491 6T417 85Q348 47 322 35T258 11Q247 10 226 10 178 10 137 24 126 27 105 43T75 70Q70 73 70 86 70 99 75 119 81 138 131 205T231 321Q212 348 203 371T194 419Q194 469 236 543 248 563 270 587T310 627 331 640Q334 635 338 635 340 635 342 636T347 637Q351 639 359 639 383 639 415 629 454 624 467 620T492 603Q530 574 530 540 530 527 509 500T455 443Q444 430 432 418T415 402Q415 397 410 391T397 381Q374 361 344 333T313 302Q312 298 338 262T392 193 427 159Q464 195 498 223 523 245 568 286 588 308 600 320T619 332Q624 332 632 324 646 321 646 307 646 299 643 292T638 281Q619 255 577 218T528 174Q495 145 466 116 469 112 479 100T503 76Q537 41 554 28T595 7Q627-4 642-19T657-56Q657-68 641-68ZM288 366T329 401Q387 449 422 485T458 550Q458 555 457 558 453 565 424 576T379 587Q360 588 335 567T285 510Q254 466 254 424 254 387 280 357 288 366 329 401ZM187 60T212 60Q244 60 278 74T357 117L376 131 351 160 322 196Q310 213 302 223 290 234 282 246T271 263Q266 263 247 242T218 206Q200 192 189 179T169 151 156 130Q148 113 148 97 148 79 166 67 187 60 212 60Z" glyph-name="ampersand" horiz-adv-x="564" unicode="&#x26;&#x61;&#x6d;&#x70;&#x3b;"/><glyph d="M180 440Q176 440 173 441T166 447V451Q166 460 176 473 214 535 224 563 225 571 230 591T235 628V632Q235 642 238 650T247 655Q251 653 264 647T283 633 288 615Q286 592 272 552 267 540 264 530 259 510 247 492T213 450Q213 448 210 447T202 444 189 440H180Z" glyph-name="quotesingle" horiz-adv-x="117" unicode="&#x26;&#x61;&#x70;&#x6f;&#x73;&#x3b;"/><glyph d="M245-120T212-90 166-17Q148 24 148 89 148 156 168 230 180 271 182 296 184 303 217 379 255 465 265 493 286 539 340 617T413 710Q415 712 425 721T443 732Q447 742 458 749T480 757Q497 766 508 766 519 766 526 757T538 729L540 717Q540 711 536 709T516 698Q503 693 489 686T469 671Q460 659 449 649T432 634Q414 627 414 618 412 613 403 597T378 560Q358 528 351 515 346 506 325 471 322 466 314 451T295 423Q295 418 292 407T280 384Q274 362 256 325 244 300 231 257T217 199Q214 199 212 187T206 146L201 110Q199 44 209 10T247-54Q259-64 270-69T295-75L329-96Q324-115 317-122T298-129Q291-129 287-128 245-120 212-90Z" glyph-name="parenleft" horiz-adv-x="330" unicode="&#x28;"/><glyph d="M32-109T31-82Q31-80 31-74T36-61Q37-62 40-63T51-65Q59-65 65-63 84-64 92-60T116-37Q119-31 128-21 157 19 161 31 175 41 182 49T197 71Q197 93 215 122 228 151 234 160 246 184 246 187 247 189 249 196T251 211Q257 214 261 224T265 246Q266 250 274 270T284 311Q300 362 305 401T315 525L317 578Q318 591 318 609 318 624 316 632T308 651Q298 683 291 683 288 683 286 688T283 701Q283 709 285 714V715Q285 720 289 724T301 727Q307 727 315 722T328 712Q332 716 340 702T359 660Q368 640 370 630T373 602L371 560 369 527Q368 477 360 414T341 298Q328 246 296 163T248 55Q252 56 214 1L175-59Q155-86 129-103T82-121Q75-121 72-120 32-109 31-82Z" glyph-name="parenright" horiz-adv-x="330" unicode="&#x29;"/><glyph d="M412 401T399 412 374 444Q368 459 365 470L356 494 354 531Q352 533 322 509T252 445Q229 424 219 417T203 410Q195 410 192 414T189 421Q188 423 188 431 188 443 191 452 201 464 247 510T301 563Q309 570 309 574 309 577 301 584 299 586 297 588T295 592 296 594Q296 595 295 597T291 601Q285 610 285 618V628Q279 633 279 650 279 664 282 667 283 667 285 666T291 662Q295 662 301 653T311 638Q319 622 325 615T339 607Q341 611 347 624T356 652Q364 663 370 673T383 693Q392 708 395 713 397 718 400 723T405 729Q405 731 407 735T413 740Q419 748 422 749T427 749Q430 745 435 740T442 729L452 713 439 696Q425 676 416 656T401 622 398 608Q401 609 409 612T427 618Q439 624 449 626T460 629Q470 629 484 638 493 641 498 641 503 641 508 638 515 631 518 620T522 601Q487 583 460 575 397 556 395 549 390 549 390 544 390 540 395 532 396 526 397 515T398 497Q403 478 405 467T409 453Q412 453 412 454T413 459Q413 463 422 463 426 463 432 454T435 442V436Q437 436 437 433 437 427 431 417T422 407Q412 401 399 412Z" glyph-name="asterisk" horiz-adv-x="363" unicode="&#x2a;"/><glyph d="M477 214T477 203Q477 194 470 190T449 188L386 183 322 181 323 95Q323 75 318 60 318 46 315 41T304 31Q295 25 290 25 284 25 281 36T274 75Q267 109 264 179L178 178Q158 178 143 183 129 183 124 186T114 197Q108 206 108 211 108 217 119 220T158 227Q192 234 262 237L260 327Q260 353 262 362T275 382Q287 394 298 394 307 394 311 387T313 366L318 303 320 239 410 241Q436 241 445 239T465 226Q477 214 477 203Z" glyph-name="plus" horiz-adv-x="446" unicode="&#x2b;"/><glyph d="M41-79T39-78 33-69Q33-63 37-58T47-45Q64-28 84-4T111 33Q118 55 126 92 126 112 131 117 137 123 142 123 154 123 160 78 162 64 162 57 162 34 145-6 141-16 121-40T96-65Q91-65 82-74 79-77 71-78T52-79Q41-79 39-78Z" glyph-name="comma" horiz-adv-x="198" unicode="&#x2c;"/><glyph d="M158 178T143 183Q129 183 124 186T114 197Q108 206 108 211 108 217 119 220T158 227Q193 235 221 238T290 241Q316 241 325 239T345 226Q357 214 357 203 357 194 350 190T329 188L266 183Q260 183 234 181T178 178Q158 178 143 183Z" glyph-name="hyphen" horiz-adv-x="326" unicode="&#x2d;"/><glyph d="M134 45T124 45Q110 45 94 57 80 71 80 85 80 107 114 130 134 142 143 142 148 142 167 135 194 119 194 98 194 86 184 74T153 52Q134 45 124 45Z" glyph-name="period" horiz-adv-x="198" unicode="&#x2e;"/><glyph d="M50-95T41-84 32-53Q32-22 53 23 56 29 63 41T72 62Q80 80 162 229T250 386Q254 385 258 391T264 405Q266 414 271 422T281 433Q283 437 286 444T291 454Q291 456 294 461T299 469Q321 496 382 592T446 701Q449 716 466 713 471 717 482 715 483 714 485 709T494 696Q500 689 500 677 500 669 497 658 494 643 488 634T459 594L432 558 410 528Q396 511 396 508 394 504 389 497T378 478Q367 464 342 428T315 388Q314 386 313 382T306 374Q303 375 301 371T299 364Q299 356 273 315 228 233 159 101T85-54Q80-78 77-85T67-94Q50-95 41-84Z" glyph-name="slash" horiz-adv-x="330" unicode="&#x2f;"/><glyph d="M269 21T243 35 202 62Q174 89 158 130T141 215Q141 224 143 244 154 307 190 369T276 474Q302 497 323 509T374 529Q388 533 418 533 437 533 457 525T492 506 506 484Q506 475 505 473T496 474H486L496 445Q500 436 503 423T506 399Q506 381 495 330T476 260Q472 252 472 239L447 184Q443 181 441 177T442 170Q442 166 432 148T418 129Q417 129 415 129T413 125Q413 121 400 104T369 70Q354 54 325 38T280 21Q269 21 243 35ZM301 84T315 98Q334 111 357 138T392 191Q402 205 408 220T430 279Q437 289 440 304T444 333Q444 377 449 395 449 423 448 430T440 446Q429 455 416 455 409 455 390 448T363 435Q357 433 354 433 348 433 344 435T339 442Q339 449 333 449 325 449 311 437T281 406Q265 390 252 371T238 347Q238 344 235 336T229 323Q222 312 210 285T195 245V191Q195 166 198 152T209 123Q213 116 222 106T233 93Q240 86 244 84T256 81Q264 81 277 84 301 84 315 98Z" glyph-name="zero" horiz-adv-x="450" unicode="&#x30;"/><glyph d="M312-17T289 6Q283 11 283 18 283 23 291 60 293 74 295 80 300 104 307 131T317 167Q325 171 353 265 368 319 387 376 396 404 401 425T408 452Q399 447 370 430T314 392Q312 391 276 365 268 360 255 350T232 335Q217 323 208 317T194 310Q192 310 184 314 165 331 165 347 165 353 168 359 172 360 204 383 240 409 245 411 247 411 256 418T273 431Q276 435 320 466L373 505Q457 557 465 555 470 554 481 546T494 529Q496 525 496 522 496 515 488 497 479 478 456 409T420 300Q413 274 399 236 396 227 391 211T381 177Q372 155 361 116T344 50L334 20Q325-7 321-10 312-17 289 6Z" glyph-name="one" horiz-adv-x="450" unicode="&#x31;"/><glyph d="M152 26T139 37 122 57Q121 58 121 63 121 70 124 79T130 88Q133 85 146 103T161 127Q162 131 167 134T175 139Q180 147 189 156T202 170Q206 175 217 186T237 207Q261 229 272 241 324 297 326 306 327 307 330 310T338 316Q353 326 366 339 367 346 377 361T397 386Q405 397 411 410T421 434L423 443Q423 447 418 449T407 454 396 457Q373 464 356 464 319 464 280 437 266 434 258 430 240 424 235 425 232 426 226 434T215 447L205 468 236 485Q298 526 344 526 360 526 372 522 381 522 390 520T401 517Q413 518 432 498T462 457Q474 439 474 420 474 390 442 343 420 317 375 268T320 211Q308 205 262 153T220 101V99Q220 105 282 114T379 124Q390 124 394 122 396 118 397 118T399 120Q400 124 413 124 436 124 467 115 470 114 477 112T488 108 491 104Q492 103 494 99T502 88Q511 81 511 76 511 69 494 69 482 69 454 74 428 74 411 71 408 69 393 69T369 68Q364 69 355 69 332 69 290 55 268 46 218 33T159 23Q152 26 139 37Z" glyph-name="two" horiz-adv-x="450" unicode="&#x32;"/><glyph d="M203 16T173 28 144 58Q145 69 147 72T158 76L179 74Q201 70 215 70 260 70 307 87T378 128Q402 151 402 176 402 204 371 225 352 238 313 249T253 258Q250 257 245 257 235 257 220 266 211 276 202 294 201 299 207 304T239 323 304 359Q365 393 391 409T433 438Q441 448 446 456T451 468Q451 472 445 475T425 481Q396 484 372 484 354 484 354 481H350Q343 484 312 477T279 466Q278 463 258 456T233 449Q225 451 216 468T209 492Q212 501 271 529 290 534 334 536T400 537Q490 527 502 462 505 452 505 444 505 433 498 424T467 393L443 377Q410 356 378 338 376 336 353 321 327 305 327 302 329 300 336 296T352 284Q378 275 402 255T439 216Q451 189 451 164 451 132 433 105T377 55Q350 40 313 29T243 16Q203 16 173 28Z" glyph-name="three" horiz-adv-x="450" unicode="&#x33;"/><glyph d="M310 15T310 27Q310 38 319 77 325 112 335 150L342 182Q349 198 353 213T359 233Q355 233 343 231T315 223Q279 214 256 214 234 214 220 222T194 248Q189 253 186 265T182 289Q182 303 187 307 192 318 196 327T204 343Q215 365 215 368 215 370 217 374T220 382Q229 401 275 469T337 553Q346 557 354 559T366 558Q370 549 374 533T375 517Q374 517 372 516T370 512Q370 506 338 468 280 389 247 328 234 290 234 280 234 275 237 272 243 270 252 270 276 270 317 282 365 292 376 297 384 297 390 300T397 307Q397 310 404 325T414 348L429 378Q449 420 457 433 475 472 481 488 488 505 492 513T499 522Q504 522 511 518T521 507Q525 503 527 499T530 490Q530 485 524 473 521 461 517 451T506 428L490 397Q464 346 431 270T386 158Q373 121 365 95T357 57Q357 48 362 38 363 20 353 7T332-6Q320-6 317 7 310 15 310 27Z" glyph-name="four" horiz-adv-x="450" unicode="&#x34;"/><glyph d="M160 29T155 35 149 46Q147 50 145 51T140 52Q136 50 132 65T130 88Q134 97 146 97 153 97 159 94T166 84Q168 76 180 72T212 67Q252 67 300 94T375 155Q383 172 389 199T396 242Q396 251 393 251 393 253 392 259T387 273Q382 287 364 303T329 326Q301 330 287 330 275 330 270 329L255 328Q245 328 238 329T229 330Q221 332 205 345T189 366Q192 381 219 424T268 490Q297 521 332 537T406 554Q443 554 456 550T482 530Q489 517 489 507 489 499 485 494T474 489Q468 489 462 492 451 499 430 499 407 499 372 489 351 481 328 464T299 435Q297 433 294 430T288 427Q287 426 285 423T282 416Q279 413 277 410T274 407 270 409L269 399V394Q269 388 273 385T292 381Q320 377 332 373T368 355Q402 335 421 298T440 215Q440 206 438 186 435 161 432 150T415 119Q380 71 324 41T219 10Q189 10 167 24 160 29 155 35Z" glyph-name="five" horiz-adv-x="450" unicode="&#x35;"/><glyph d="M229 24T209 24Q178 24 155 47 140 58 134 68T124 98Q118 118 118 128 118 139 127 184 136 225 142 243T165 286Q172 306 183 328T199 356Q203 361 213 376T235 403L262 439Q276 448 281 455 299 476 339 500T408 528Q420 532 429 532 440 532 438 527 439 526 442 523T452 519Q455 518 458 512T464 502Q466 493 463 487T447 469Q433 459 428 458T418 461Q419 464 415 466T409 468Q399 470 362 446T303 398Q281 378 278 370 267 359 258 348T245 332Q246 328 253 328 259 328 265 331T272 336Q272 340 294 346T340 355Q346 357 352 357 360 357 390 351 413 346 421 342T440 324Q459 306 466 289T474 247Q474 227 471 215T457 189Q444 168 423 142T389 107Q385 105 382 103T378 100Q376 89 331 64T253 31Q229 24 209 24ZM206 76T210 76Q223 76 249 87 271 93 275 92 279 95 291 103T322 122Q370 153 399 191T429 258Q429 263 428 266V268Q428 273 426 282T423 293Q419 293 412 295T395 299Q383 301 377 301 361 301 299 287 294 286 287 284T269 280Q262 278 252 274T235 267Q221 256 208 253 196 252 188 234T169 166Q161 123 161 115 161 105 165 100 166 89 171 86T186 80Q206 76 210 76Z" glyph-name="six" horiz-adv-x="450" unicode="&#x36;"/><glyph d="M199-14T185 20Q178 53 255 198 277 233 277 240 277 244 272 245T257 246Q252 247 238 250T221 257Q202 267 202 278 202 284 209 285 219 287 219 291 219 294 207 298L218 296 268 295Q286 295 294 294 297 293 302 293 309 293 313 296T323 307 332 319L351 349Q371 377 387 405 441 482 441 503 441 517 421 517 405 517 386 512T324 490Q302 481 286 475T261 469Q252 469 247 473 240 474 237 481T233 497Q233 504 234 507 238 525 365 557 397 562 420 562 458 562 465 549 466 548 468 547T471 548Q474 547 477 540T485 524Q487 520 493 509T499 490Q499 486 497 476 494 466 487 455T476 440Q472 436 470 432T466 426Q465 423 460 419T450 409Q449 406 446 401T441 392L386 309Q372 296 372 290 372 284 385 278 420 262 428 238V229Q428 218 423 215 419 209 409 209 397 209 394 214 390 222 372 229T347 237Q342 234 330 218 322 207 297 157L271 110Q270 107 266 100T259 88Q255 81 252 67T249 42Q249 32 252 32 254 33 257 33 266 33 269 19 274 12 266 2T245-14 221-18Q199-14 185 20Z" glyph-name="seven" horiz-adv-x="450" unicode="&#x37;"/><glyph d="M167-31T158-25 136-6Q134-2 129 9T124 32Q124 36 126 50 126 85 138 104 150 138 188 195T254 287Q265 300 265 308 265 314 259 324T244 347Q241 355 237 362T234 369Q233 370 231 373T226 383Q211 397 211 426 211 455 226 483 242 519 261 537T311 560Q339 556 381 548T447 529Q465 522 489 503T515 475Q515 473 518 469T523 460Q529 447 529 427 529 398 518 381 493 353 483 349 480 347 473 340T457 331Q444 314 439 314 434 317 431 317T427 314Q426 310 400 299T368 290H367Q362 290 356 286 351 287 354 279T371 254Q410 181 410 141 410 122 402 111 383 68 361 40T326 14L312 5Q310-1 304-4T292-6L289-5Q278-5 261-16 248-25 230-30T195-35Q182-35 176-32 167-31 158-25ZM372 371T389 371Q401 371 405 362 407 358 428 371T466 401Q470 407 472 412T474 424L472 440Q473 455 466 463T427 483Q383 499 348 499 287 499 271 442 265 424 265 409 265 391 273 376 281 373 284 367T288 359Q288 356 290 353T296 350Q297 346 302 342T316 338Q329 338 347 349 372 371 389 371ZM205 18T237 33 294 65Q324 90 338 112T353 157Q353 172 347 185 327 226 322 233 313 247 302 253 300 252 293 246T282 231Q264 209 254 190L232 168Q232 165 226 151T212 122Q198 98 191 76T183 37Q183 21 192 19 205 18 237 33Z" glyph-name="eight" horiz-adv-x="450" unicode="&#x38;"/><glyph d="M306-26T297-18 288-6Q289-3 288-2T284-1Q283 1 282 7T281 19Q281 23 282 32T283 53Q285 80 300 135T333 241Q346 275 346 282 346 292 332 292 325 292 320 291 314 290 304 290 265 290 238 318T210 385Q210 403 215 416T235 454Q266 500 307 532T387 571Q401 573 413 573 444 573 459 567 481 558 500 528T514 480Q508 449 499 432T476 399Q453 379 418 310T358 170Q339 116 339 76 339 59 344 59 347 59 355 56T365 53Q368 49 368 45 368 41 363 28 358 14 339-7T313-27Q306-26 297-18ZM278 343T296 343Q323 343 356 366T413 427L432 452Q444 467 446 469 461 486 461 495 461 502 455 508 448 520 432 520 422 520 398 512 383 509 370 503T334 482Q328 476 318 478 317 478 316 477T314 473Q315 472 315 469 315 460 302 450 283 431 273 410T263 371Q263 361 268 354 278 343 296 343Z" glyph-name="nine" horiz-adv-x="450" unicode="&#x39;"/><glyph d="M210 255T200 255Q186 255 170 267 156 281 156 295 156 317 190 340 210 352 219 352 224 352 243 345 270 329 270 308 270 296 260 284T229 262Q210 255 200 255ZM140 45T130 45Q117 45 100 57 86 71 86 85 86 107 120 130 140 142 149 142 154 142 173 135 200 119 200 98 200 86 190 74T159 52Q140 45 130 45Z" glyph-name="colon" horiz-adv-x="198" unicode="&#x3a;"/><glyph d="M210 255T200 255Q186 255 170 267 156 281 156 295 156 317 190 340 210 352 219 352 224 352 243 345 270 329 270 308 270 296 260 284T229 262Q210 255 200 255ZM49-79T47-78 40-69Q40-63 44-58T54-45Q71-28 91-4T118 33Q125 55 133 92 133 112 138 117 144 123 149 123 161 123 167 78 169 64 169 57 169 34 152-6 148-16 128-40T103-65Q98-65 89-74 86-77 78-78T59-79Q49-79 47-78Z" glyph-name="semicolon" horiz-adv-x="198" unicode="&#x3b;"/><glyph d="M349 60Q318 68 303 74T273 91Q238 102 215 119T167 163L130 207 123 237Q131 238 145 248T163 259Q179 272 209 290T290 337Q337 359 354 371T376 387Q398 404 406 403H410Q416 403 422 397 427 391 435 388T447 382 451 374Q450 372 446 365T435 354L407 339Q361 318 289 275L252 254Q223 238 212 228T202 205Q211 185 258 160T382 112Q414 104 436 92T458 69Q458 63 449 58 447 57 436 54T406 51Q388 51 369 55L349 60Z" glyph-name="less" horiz-adv-x="446" unicode="&#x26;&#x6c;&#x74;&#x3b;"/><glyph d="M221 275T199 280Q185 280 180 283T170 294Q162 304 162 308 162 314 175 317T221 324Q294 338 394 338 425 338 435 336T456 323Q470 311 470 300 470 293 464 289T448 284L440 285 363 280Q288 275 241 275 221 275 199 280ZM166 133T145 138Q130 138 125 141T115 152Q107 162 107 166 107 172 120 175T166 182Q239 196 339 196 370 196 380 194T401 181Q414 169 414 158 414 150 406 146T385 143L298 138Q223 133 186 133 166 133 145 138Z" glyph-name="equal" horiz-adv-x="446" unicode="&#x3d;"/><glyph d="M184 43Q178 43 175 46T171 51Q166 57 158 61T146 68 144 75Q145 77 149 83T159 95L188 107Q243 129 312 163 326 171 349 181 379 195 391 204T403 228Q395 249 349 276T229 332Q198 343 178 356T157 379Q157 387 167 391 169 391 177 393T199 395Q221 395 248 387L275 378Q302 369 314 364T341 346Q374 332 396 314T441 265L475 219 480 189Q472 188 456 180T438 170Q424 160 396 146T325 111L307 102Q265 86 245 74T217 57Q209 51 200 47T186 43H184Z" glyph-name="greater" horiz-adv-x="446" unicode="&#x26;&#x67;&#x74;&#x3b;"/><glyph d="M235 192T228 203 220 228Q220 239 223 250 223 255 232 275 240 293 242 300 253 319 275 344T315 382L332 394Q332 398 346 409T370 425Q374 428 384 435T403 450Q425 472 436 491T452 531 467 599L468 635Q468 648 466 655T455 668Q443 674 429 674 395 674 357 648T301 581Q294 563 294 555 294 550 297 542 297 536 299 527T302 515Q299 514 285 514 258 514 248 519 247 521 244 525T238 535Q234 541 233 547T232 559 233 573Q245 609 268 643T327 695Q347 704 360 710T377 719Q379 719 387 719T410 722H415 421Q431 722 431 718H460Q479 713 498 702T528 679Q534 660 534 633 534 583 515 525T466 433L444 413Q395 369 382 354 350 336 324 300T283 223Q277 209 273 202T264 193 250 191Q235 192 228 203ZM203 3T193 3Q180 3 163 15 149 29 149 43 149 65 183 88 203 100 212 100 217 100 236 93 263 77 263 56 263 44 253 32T222 10Q203 3 193 3Z" glyph-name="question" horiz-adv-x="374" unicode="&#x3f;"/><glyph d="M238-125T172-73Q141-44 117-3 109 8 104 26T97 64Q95 90 102 131T121 193Q121 197 122 201T125 209Q125 215 132 229T148 256Q163 277 163 277 212 342 238 371T315 436Q344 458 386 476T463 500L472 501 506 499Q536 496 564 484T613 451Q674 403 691 327 695 307 695 283 695 257 692 233T683 197Q662 152 623 109T561 59Q545 59 521 66T485 83Q487 83 466 95 464 93 458 87T441 71Q421 51 393 39T352 29Q321 37 310 44T278 78Q271 96 271 112 271 128 281 161 287 187 297 206T325 252Q341 275 359 289T407 316Q419 322 443 322 464 322 479 312 488 311 500 295T520 263Q523 248 523 241 523 234 520 217 518 211 517 206T515 195Q512 180 508 165 502 149 502 141 502 138 504 132 503 127 518 120T541 113Q547 113 557 118T577 135Q582 141 599 158T625 192 641 229Q643 245 643 263 643 317 618 362T543 428Q523 436 488 436 438 436 401 420 375 411 325 371T249 302Q166 202 151 96 150 88 150 74 150 48 159 30 181-14 230-45 287-68 350-64 358-66 360-69T362-80L370-96Q370-105 367-109T354-117Q335-125 307-125 238-125 172-73ZM388 95T407 113 431 142L439 158Q460 191 465 221 465 222 473 243 473 250 472 253T462 262H463Q441 267 430 267 418 267 406 262 387 254 367 225T333 160 322 104Q334 81 355 81 364 81 372 85 388 95 407 113Z" glyph-name="at" horiz-adv-x="643" unicode="&#x40;"/><glyph d="M69-33Q58-27 54-22T49-9Q49 1 57 19T87 78Q93 91 110 124 168 235 168 245 167 247 167 251 167 261 183 269 206 292 221 318 231 340 248 370T290 443Q302 464 326 504 363 570 421 648 444 679 459 678 478 678 501 661T534 621Q538 614 538 591 538 560 531 486 529 473 527 445 524 400 518 349 507 237 502 174T497 56Q497 28 498 15V8L497-15Q491-21 479-21 465-21 452-15T437 1Q436 2 434 3T432 12L433 34 436 90 441 252 428 251Q408 251 339 243T253 230Q244 230 231 218T208 187Q205 177 194 159T183 137Q177 133 173 127T167 118Q167 107 147 62T106-13L85-45 69-33ZM282 290T302 293 338 298Q410 315 426 315 433 315 439 312 442 308 445 307T450 305Q452 311 462 413T474 550L477 600Q471 600 451 577T407 518 363 443Q353 425 344 410T330 394Q323 387 297 340T276 289Q282 290 302 293Z" glyph-name="A" horiz-adv-x="502" unicode="&#x41;"/><glyph d="M173-37T158-22 142 6Q142 19 159 29 164 32 176 24T201 3Q227-21 269-21 287-21 317-14 358-2 389 21T450 80Q468 104 477 133T486 188Q486 220 474 235 434 289 360 289 328 289 300 281L242 269Q240 268 233 267T211 223 172 113Q151 52 139 28T117 3Q107 3 93 25 82 43 82 56 82 69 91 84 96 93 99 102T107 127Q120 166 182 321T280 555Q305 612 295 615 295 618 292 624T290 633Q290 639 318 651T359 661H365Q378 661 378 666 380 666 396 668T432 668Q499 662 536 629T572 541Q571 516 537 468T469 388Q453 374 433 359T406 339L431 330Q480 312 508 286T548 215Q550 205 550 197 550 175 543 147T526 98Q520 92 516 85T511 76Q510 72 493 46T463 3Q413-40 374-54 332-73 279-73 230-73 205-57 173-37 158-22ZM265 330T298 336 345 348Q347 349 357 354T379 371Q403 393 438 436T489 510Q514 551 514 570 514 583 503 594 490 610 441 610 409 610 386 604 372 600 366 595T359 578Q359 563 343 547 342 541 339 536T334 529Q334 526 322 499 306 468 292 429 254 339 254 328 265 330 298 336Z" glyph-name="B" horiz-adv-x="520" unicode="&#x42;"/><glyph d="M183-45T164-31 131 15Q115 60 115 121 115 180 122 221T146 306L155 327Q171 368 178 381 195 420 238 482 276 540 298 566T340 609 416 663Q439 680 469 680 494 680 515 668T548 632Q559 613 559 581 559 536 539 487T488 410Q478 401 469 401 458 401 440 417 431 434 430 437T434 441Q443 452 460 483T484 533Q486 539 488 553 496 588 496 600 496 612 489 619 486 622 481 622 473 622 453 612 429 602 392 567T325 491Q279 431 255 392T217 313L206 287Q207 283 203 267T194 241Q180 183 180 126 180 83 187 50T209 5Q217-2 233-2 253-2 282 8T355 37Q378 46 398 58T429 80Q455 99 471 99 482 103 486 103 488 103 488 101T489 94Q489 80 474 64T434 32Q414 12 386 1 354-22 312-40T234-58Q226-58 214-56 183-45 164-31Z" glyph-name="C" horiz-adv-x="472" unicode="&#x43;"/><glyph d="M199-99T191-99Q171-99 143-91 130-87 124-82T111-68 99-53Q81-28 81-9 81 6 95 2 105-3 117-18 129-30 143-35T177-41Q184-41 204-39 228-35 260-24T307-1Q355 32 385 52T424 77Q426 82 445 89L472 115Q498 143 506 149 507 156 509 163T512 175Q524 188 548 237T581 323Q590 370 590 406 590 467 569 508T506 585Q485 602 437 622T380 640Q375 639 353 583T293 420L261 331Q257 315 252 301T244 276Q231 239 231 234 220 217 214 190T199 96Q190 63 191 66 187 49 184 38T178 28L174 24Q174 18 165 18 157 18 147 22T131 33Q127 47 127 53 127 66 135 93 143 127 161 188T193 289Q200 306 213 353 224 390 237 429T257 478Q259 485 270 518T298 591L305 624 294 629Q285 626 278 626 273 626 267 629 257 626 240 637T220 659Q218 662 218 668T217 676Q219 686 257 694T340 703Q359 703 369 702 387 701 403 696T444 681L468 672Q500 660 536 630T601 560 640 477Q643 464 646 441T649 400Q649 379 645 374 642 370 642 364T646 357Q644 351 639 335T628 301Q622 238 572 153 567 153 564 152T565 149Q565 144 554 130 551 128 542 116T528 100Q527 93 522 89T513 84Q513 84 512 84T510 80Q492 54 445 16T360-38Q350-45 337-51T318-59Q310-66 278-78T225-95Q199-99 191-99Z" glyph-name="D" horiz-adv-x="578" unicode="&#x44;"/><glyph d="M209-23T190-13 147 16L127 30Q109 48 100 67T84 118Q82 130 82 139 82 168 92 207T114 272Q136 325 211 442 215 446 216 447T218 449 217 450Q217 457 246 512 263 530 263 543 263 550 260 554 256 559 278 578T335 617Q362 638 388 638 396 638 401 636T408 628Q408 622 448 632 466 636 474 637 478 642 494 645T541 653Q557 652 574 653T596 655Q604 658 613 653T630 631Q633 624 633 618 633 607 620 601T573 590Q540 586 532 585 477 579 416 566 377 558 360 546T320 500Q313 495 302 475T280 432Q277 428 273 422T263 409Q234 370 223 353T215 331Q218 330 226 328T241 325Q250 330 266 332T289 336Q448 377 469 380 478 386 486 386 504 386 518 362 521 356 521 351 521 342 507 334T454 315 360 288L328 279Q263 260 227 260 196 260 197 277 187 282 175 255T153 189 144 122Q144 108 147 100 156 75 169 62T215 40Q222 39 232 38T257 37Q277 37 297 45 348 54 384 65T429 81Q435 84 439 85T447 86L446 84Q446 84 446 84T447 83Q450 83 465 100 482 114 511 127T542 133Q544 127 544 123 544 104 521 78T457 28Q408 2 348-10T231-24Q209-23 190-13Z" glyph-name="E" horiz-adv-x="529" unicode="&#x45;"/><glyph d="M129-22T122-22Q116-22 109-19T96-10Q89-4 86 0T82 10Q82 18 88 36 96 72 117 139T156 240Q163 252 167 265T172 282Q177 300 178 303L177 313Q177 317 179 321T186 330Q200 342 216 377L254 486 266 520Q267 524 270 534T273 548 271 552Q263 550 239 549 227 547 221 547T212 545H205Q186 545 186 559 188 575 197 585T222 597L261 606Q270 608 285 611T307 613Q320 622 320 627 320 632 325 635T337 638Q351 638 357 629 361 623 374 623 394 623 444 634 452 635 471 636T504 638Q522 638 533 635 542 637 549 637T561 638Q578 638 582 641 591 639 602 638T619 634 628 629Q631 625 631 622T630 618L628 619Q629 619 631 618T637 613Q652 605 647 590 646 584 643 582T626 579 592 579Q554 584 526 584 484 584 411 574 393 573 378 569T358 564Q353 564 343 549T325 511Q319 502 304 464T284 413Q262 355 259 350 271 346 307 346 359 346 445 354 491 363 498 360 504 356 508 345T513 325Q513 320 511 316 508 309 490 305T424 296Q380 292 296 292 252 292 244 294 242 293 239 288T235 276Q217 244 182 152T147 42Q140 24 136 1 135-3 133-10T129-19Q129-22 122-22Z" glyph-name="F" horiz-adv-x="454" unicode="&#x46;"/><glyph d="M144-14T129 17 115 81Q114 199 156 330 174 383 200 441T244 531Q272 577 306 612T361 659Q374 666 396 672T444 678Q464 678 481 674 505 668 528 658T559 640Q563 634 568 626T577 612 580 599Q581 589 572 575T552 561Q546 561 540 568 530 583 520 590T499 603 483 611Q470 619 447 619 429 619 411 614T379 597Q361 581 335 550T295 491Q235 386 210 293 202 264 192 220T179 154Q173 117 173 87 173 50 185 31T227 11Q247 11 276 21 309 25 351 59T421 138Q466 222 466 251 466 271 447 271 427 273 397 273 377 273 366 274T346 280Q339 291 339 299 339 311 352 324 366 330 407 330 465 330 498 314 529 299 529 253 529 231 525 214 516 175 464 97 441 65 396 28T322-21Q267-46 223-46 192-46 171-31 144-14 129 17Z" glyph-name="G" horiz-adv-x="487" unicode="&#x47;"/><glyph d="M128-82T122-80 109-78Q97-75 90-65T82-42Q82-35 83-31 86-28 88-16T91 7Q94 13 96 19T101 38Q109 82 138 186T174 297V308Q174 311 176 320T185 339Q189 351 191 362T195 380Q199 385 208 410T221 443Q228 462 238 487T253 521V526Q255 528 263 546T278 578Q285 594 315 661 318 668 324 678T331 693Q335 700 345 700 354 700 363 694T378 677L388 661 352 589Q337 563 326 539T315 511Q311 501 300 470T281 417Q276 402 269 386T259 362Q251 344 251 342 251 346 371 346 390 346 438 347T499 350L551 355 585 458Q595 493 629 594 644 637 653 649T675 662Q680 662 689 658T702 646Q713 635 713 623 713 609 697 584 685 563 663 505 654 478 652 474 652 453 642 443 638 439 628 415T618 386Q618 378 615 369T608 355L601 331Q566 204 546 155 546 150 541 137T536 119Q534 112 527 91T520 66Q518 55 512 31 497-37 497-43 495-45 491-45 487-45 479-42T466-37Q442-24 442-7 442 4 451 22 454 27 470 87L479 124Q485 140 506 219 523 280 525 282V292Q522 297 452 297 373 297 307 289H260 234Q229 278 204 197T175 94Q168 61 153 3T130-83Q128-82 122-80Z" glyph-name="H" horiz-adv-x="563" unicode="&#x48;"/><glyph d="M179-13T101-16L92-17Q73-17 59-8T48 12Q50 38 131 39L184 40 194 60Q202 83 217 134 222 153 238 198 269 294 271 302 276 314 287 350T304 409Q351 554 342 556 332 557 288 553T238 545Q235 541 228 541 222 541 215 545T206 556Q205 560 205 567 205 574 211 578 222 587 259 598T332 614Q349 616 366 621T393 635Q414 642 428 641 435 636 462 636 485 636 497 637 533 641 558 641 577 641 585 637T599 624Q603 608 603 603 603 584 581 585 564 581 499 579 428 573 423 565 418 560 416 556T410 548Q411 544 406 523T392 479L374 426Q346 339 338 319 331 302 328 284 311 225 300 191T283 135Q264 79 254 41L311 46Q370 52 388 52 402 52 407 49T416 37Q428 22 428 12 428 0 409-5T350-9Q304-11 274-12T233-17 220-27Q220-35 211-35 201-35 192-31 179-13 101-16Z" glyph-name="I" horiz-adv-x="400" unicode="&#x49;"/><glyph d="M71-188T57-188Q34-188 11-178T-29-148Q-39-138-39-127-39-121-36-112-31-94-23-94-19-94-12-99T2-113Q22-130 40-130 76-130 116-68L142-10Q198 113 205 134 205 135 206 138T210 145Q211 149 215 162T223 189L265 308Q269 328 276 351T290 391Q294 399 320 477 332 515 341 542 345 554 356 590T365 629L309 619Q298 614 282 614 272 614 266 616T260 621V626Q255 622 247 631T239 649Q239 657 258 663T310 674L382 684Q387 688 407 681T435 665Q443 654 443 643 443 629 435 604T396 497L363 404Q339 331 326 301 322 288 315 269 298 220 290 191 278 163 264 115 264 107 260 97T251 82L227 23 218-1Q216-7 208-28T192-59Q189-67 181-80T173-96Q173-97 172-99T168-102Q167-103 165-105T162-112Q157-124 131-149T89-181Q71-188 57-188Z" glyph-name="J" horiz-adv-x="306" unicode="&#x4a;"/><glyph d="M680 591T674 584 645 564Q600 542 594 531 589 527 572 514T528 482Q489 456 461 433T423 398Q420 398 416 395T408 393Q406 392 399 387T389 378Q386 370 380 363T364 356Q345 346 289 301 296 224 328 166 357 102 387 72 408 49 426 36T455 23Q464 20 480 9T497-9Q498-11 498-17 498-32 493-39 489-46 486-49T476-53Q465-53 449-45 433-46 394-15T334 42Q307 81 288 113T258 183Q254 201 243 237 236 256 235 264V283L223 253Q222 250 211 220T178 114L162 62Q139-10 132-29T116-48Q112-48 106-44T96-37Q88-32 85-28T82-18Q82-11 87 7 86 20 89 32T92 46Q99 46 99 62 99 70 108 97L117 128 129 157Q140 185 140 187 140 200 153 220 157 232 160 246T163 269Q165 274 174 292T187 328Q188 333 190 339T196 354L229 444 244 478Q246 483 257 509T273 535V546Q273 550 284 572L296 596Q304 609 308 621T314 638Q315 640 318 645T325 654Q336 662 345 662 359 662 369 642 376 628 376 617 376 607 367 593 333 520 299 443T264 354L298 379Q324 405 381 448L504 548Q532 562 570 592 580 598 586 603T596 610Q602 615 620 627T643 639Q654 644 667 629T678 601Q680 591 674 584Z" glyph-name="K" horiz-adv-x="498" unicode="&#x4b;"/><glyph d="M178-28T146 1 105 64Q101 94 101 131 101 155 104 158 107 160 107 170 106 176 114 203 121 221 118 234 119 236 121 241T128 251Q133 256 133 261T133 269V270Q133 274 135 280T141 291Q144 294 146 299T150 306Q151 313 165 350T185 396V398Q189 408 196 419 198 433 210 458 233 509 274 575T340 665Q350 676 356 680T369 685Q378 685 392 671 404 659 404 639 404 628 400 628 387 619 348 563T285 463Q272 435 263 416T250 391L246 382Q222 331 201 272 196 266 195 260T193 251Q191 252 190 246T186 234Q179 228 179 205 168 178 161 137T156 76Q160 43 211 23 234 14 245 14 252 13 266 15T300 20H299Q304 21 354 32 378 35 394 41 424 50 433 50 439 50 441 48 449 42 449 33L447 24Q444 16 415 0T359-24Q338-33 311-38T257-43Q230-43 217-38 178-28 146 1Z" glyph-name="L" horiz-adv-x="426" unicode="&#x4c;"/><glyph d="M661-52T654-52Q649-52 642-48T631-37Q623-20 623 5L624 46Q655 228 697 412 711 461 720 505T732 561Q732 564 727 559T716 546 712 535L687 498Q681 492 659 452 644 420 632 402L604 349Q573 292 566 280 556 265 537 228 527 204 501 171 493 160 486 147T476 130Q476 125 456 96T418 48Q395 24 380 14T352 3Q335 3 315 22 302 36 297 55T291 102Q291 127 298 186 299 191 317 293 336 396 340 406 341 412 341 420 341 429 338 429 335 429 327 416 324 412 292 360T222 227Q164 120 136 67T95-10Q78-43 75-46 60-46 37-21 34-15 34-10 34-3 40 13T59 55Q90 116 100 124 112 140 114 159 127 177 151 224 166 248 186 284T223 353L251 402Q290 470 313 507T349 556Q365 575 365 586 365 607 373 624T391 640Q403 640 410 638T426 625Q428 622 432 616T439 602 442 583Q442 571 439 553 438 540 431 494 427 472 427 467 401 388 381 270T360 103Q360 92 362 88 369 83 374 87T391 113Q404 137 435 175 437 178 474 241 566 392 653 544L679 585Q694 609 708 629T730 656Q740 664 749 664 768 664 783 641T798 583Q798 556 787 501T758 389Q752 361 741 319T718 243Q716 226 710 200 709 195 705 170T702 135Q687 108 687 27L684 4Q682-24 680-34T674-43Q672-42 668-42 661-42 661-48 661-52 654-52Z" glyph-name="M" horiz-adv-x="720" unicode="&#x4d;"/><glyph d="M82-47T82-35Q82-28 85-16T91 4Q100 39 115 71 123 90 131 113T144 163Q164 209 179 252T199 308Q200 313 221 357 238 390 252 420 257 434 277 494 291 539 302 566T330 620Q348 650 373 650 385 650 394 643T409 620Q417 601 421 574T428 481Q429 461 429 422V327Q429 276 431 243T440 186Q448 140 462 87T484 33Q496 33 524 104T595 350Q601 370 609 408T621 482Q632 523 642 567T653 616Q653 621 653 626T653 638Q657 638 661 651T666 675Q666 704 680 718 683 725 695 725 707 725 718 719T734 703Q737 682 706 550 706 538 692 478 683 444 678 413 674 384 669 363T659 343Q618 167 554 21 525-48 490-48 466-48 441-16 414 19 404 55T376 181Q359 228 359 290 359 326 364 374L368 443Q367 483 366 498T360 514Q356 514 348 496T325 435Q309 395 281 329L255 265Q237 229 228 192 186 83 158-8L149-36Q134-76 120-76 110-76 97-62 82-47 82-35Z" glyph-name="N" horiz-adv-x="599" unicode="&#x4e;"/><glyph d="M140 7T129 22 116 61Q115 66 115 79 115 107 120 149T130 216Q134 220 134 228T134 238Q134 241 139 258 151 295 156 320 183 402 209 451T267 543Q310 587 334 607T389 642Q428 665 445 665 448 665 454 663 510 651 538 618T579 514Q588 453 588 422 588 372 570 321T505 193Q451 87 378 23T239-41Q204-41 175-20 140 7 129 22ZM273 13T303 35 379 110Q418 155 434 178T464 233 496 331Q507 373 510 396T514 453L513 518Q512 535 506 553T492 581Q477 598 453 598 438 598 424 591 405 583 368 545T302 466 272 413Q272 412 271 407T267 398Q250 380 229 325T192 206 174 99L172 65Q172 56 173 51T180 40 189 26Q194 18 205 13T228 8Q235 8 239 9 273 13 303 35Z" glyph-name="O" horiz-adv-x="496" unicode="&#x4f;"/><glyph d="M105-48T100-45 90-35Q82-29 82-17 82 6 116 104 123 132 131 158 138 176 138 185 138 193 140 203T143 218Q155 218 165 259 169 274 172 284T176 301Q178 304 180 310T185 321Q193 345 204 367 216 412 232 461T260 535L272 565Q273 568 276 576T280 589 277 595Q272 598 272 605 272 618 296 639 308 654 316 658T340 663L372 661Q384 660 436 660 447 655 462 650 492 640 492 636 492 631 495 629T506 626Q516 626 537 604T570 557Q577 541 580 531T584 506Q584 491 582 482 580 466 577 451T570 432Q554 420 554 411 554 403 529 369T480 313Q454 283 418 260 300 207 253 209 221 204 214 201T203 184Q198 171 194 157T189 139Q183 128 163 65T135-29Q131-42 126-45T110-48Q105-48 100-45ZM236 260T247 260Q260 260 281 264T323 276Q359 288 403 315 416 324 435 342T473 383Q479 393 497 430 505 444 512 466T520 505Q520 513 519 517 514 543 493 565T443 596Q422 600 405 600 392 600 375 597 359 592 352 583T332 545Q309 501 290 449 272 382 254 338T233 287V283Q233 277 232 271T234 262Q236 260 247 260Z" glyph-name="P" horiz-adv-x="464" unicode="&#x50;"/><glyph d="M590 466T581 414 557 322 529 283Q528 283 526 282T523 277Q525 269 519 244T498 192Q455 77 398 10 408-12 414-20 416-27 426-43 438-61 441-71 464-106 464-116 464-122 458-124T437-126Q422-127 406-115T385-89Q379-83 378-78T376-70Q372-68 365-59T355-40L352-33Q301-72 248-72 237-72 231-71 207-67 180-49T143-9Q115 48 115 115 115 167 130 239 140 277 163 344T190 412Q193 415 193 429 193 440 224 489T279 559Q312 603 375 635 385 641 406 649T443 658Q492 661 517 647T562 592Q576 576 580 562T588 521Q588 515 590 501 590 466 581 414ZM526 514T526 533Q526 560 517 575T488 599Q473 604 460 604 412 604 362 557T276 422Q225 314 201 236T177 98Q177 69 183 42 185 15 196 0T225-15Q234-15 239-13 280-7 319 32L301 65Q271 124 266 130 263 133 263 138 263 145 268 150 272 159 275 162T285 165Q287 165 305 161 328 161 347 113 350 102 360 80 420 165 469 301L481 332Q500 377 511 417T524 502Q526 514 526 533Z" glyph-name="Q" horiz-adv-x="502" unicode="&#x51;"/><glyph d="M640 580T640 513Q640 489 629 462 613 422 548 368T427 289Q405 279 376 269T319 250Q299 245 279 246L281 244Q304 193 370 120 401 84 455 38T548-28Q552-32 552-40 552-49 547-59T537-71Q535-72 532-73T525-74Q511-74 485-57 438-29 394 8T298 106Q275 133 262 153T233 209L231 203Q201 101 140-60 135-72 125-72 114-72 98-59 96-57 91-52T84-44 82-36Q82-27 98 9L110 36Q116 72 139 119 146 143 220 323L238 367 249 393Q276 461 322 562 327 577 327 581 327 594 310 594 299 607 299 618 299 629 309 633L361 654Q396 662 429 662 496 662 551 633 640 580 640 513ZM467 368T524 417 578 514Q578 533 558 554T517 581Q456 595 435 595 417 595 407 588T392 564Q392 561 379 535 350 472 342 449L319 402Q287 338 281 322T279 301Q320 304 395 335 467 368 524 417Z" glyph-name="R" horiz-adv-x="537" unicode="&#x52;"/><glyph d="M214-38 215-35Q215-25 198-24 177-11 161 10T138 47Q131 63 131 64 131 67 134 69T143 74Q149 79 156 79 160 79 163 75T173 59Q185 38 214 26T280 13Q325 13 364 31 390 42 402 52T414 76Q414 88 403 105 400 113 395 119T379 135Q373 140 356 157 340 163 323 173L302 183Q275 195 240 224T192 276Q178 289 170 312T162 362Q162 398 177 428 189 455 230 503T293 566L319 591Q320 595 322 595T325 596Q328 598 346 605T384 632Q452 665 493 679T562 694Q600 692 626 671T658 614Q660 608 660 596 660 560 634 519T575 458Q550 447 540 447 533 447 531 452T529 468Q529 477 535 488T565 526Q606 585 606 614 606 631 591 632 580 635 536 627T491 614Q491 613 491 611T487 609Q483 610 413 568T341 520Q340 515 334 510T318 500Q299 489 283 468T245 408Q233 391 226 371T218 335Q218 324 221 316 226 299 252 275T317 227Q368 198 402 171T446 124Q469 92 469 53 469 39 466 27 458 10 441-6T412-22Q402-25 395-29T383-36Q372-43 331-47T254-50L214-38Z" glyph-name="S" horiz-adv-x="486" unicode="&#x53;"/><glyph d="M643 576T643 571Q643 567 641 565T635 561 631 559Q609 552 595 552 585 552 572 557 562 566 548 570T490 577Q461 574 439 574 432 537 416 508 412 489 405 474 398 454 399 451 396 447 380 401T350 310Q340 279 335 265 330 255 323 234T312 203L287 134Q279 119 268 87T249 28L239-7Q234-25 231-34T225-44 215-44Q207-44 198-32T188-7Q188 15 203 67T233 150Q237 168 240 179T245 195Q248 199 254 216T265 249Q268 267 327 450L334 471Q343 486 351 509 359 514 359 530 359 533 362 538T366 545Q368 547 370 554T377 566V567L361 566 312 561 290 559Q232 554 223 552 193 550 181 555T172 575Q175 587 184 593T214 602Q223 604 249 608L276 613 310 617Q368 626 433 629 460 630 478 631T503 634Q517 633 548 629T594 620Q616 615 626 606T642 580Q643 576 643 571Z" glyph-name="T" horiz-adv-x="458" unicode="&#x54;"/><glyph d="M171-34T148 4 124 113Q124 175 144 275 159 348 195 449T270 618Q292 656 304 668T328 678Q344 674 353 663T362 638Q362 617 342 604 334 595 320 569T302 535L278 490Q243 390 227 336T200 222Q186 155 183 124T179 74 179 51Q182 45 187 36T196 22 205 16Q215 11 230 11 257 11 286 28 290 36 297 40T307 46Q309 43 310 43 313 43 315 50V51Q315 56 324 65 334 69 357 96T399 152 419 187Q419 192 424 198T432 206Q439 213 467 267T520 371Q535 420 561 509T593 623Q595 636 599 645T604 657Q611 659 625 652T644 642Q649 636 649 625 649 613 640 575 635 555 627 515 611 452 589 396T532 261Q528 252 523 242T513 218V212Q501 205 494 191 491 186 487 178T477 166Q474 157 472 151T468 143Q467 137 459 132T449 126Q445 124 443 117T439 108Q403 55 359 12T275-46Q255-54 240-54 227-54 220-52 171-34 148 4Z" glyph-name="U" horiz-adv-x="482" unicode="&#x55;"/><glyph d="M255-57T253-53 249-36Q249-26 243-21T220-11Q209 0 204 14T197 55 190 156Q192 184 192 193 194 236 197 272T209 365Q207 380 211 415 214 433 214 447 214 455 213 458 218 474 222 508 225 538 231 559L234 580Q238 608 238 616 237 621 237 630 237 666 256 675 262 678 275 678 284 678 289 675 304 666 302 642 303 638 303 624 303 597 299 557T286 481Q272 413 267 314L261 210Q257 136 257 122 257 106 258 100 258 91 262 70T271 48Q279 49 287 64T305 103Q307 107 308 112T313 123Q346 187 363 234 380 274 401 309 423 349 433 373 445 403 484 476 489 484 509 515T553 590Q583 639 599 656T630 674Q634 675 639 675 642 675 644 673T649 668 653 663Q661 650 661 640 661 628 651 609T615 552Q587 510 550 447T496 354Q493 346 488 332T475 309Q466 300 449 267T415 201L342 33Q334 10 328-4 319-22 319-27 310-41 295-50T268-60Q264-60 260-58 255-57 253-53Z" glyph-name="V" horiz-adv-x="490" unicode="&#x56;"/><glyph d="M485-54T475-48 460-31Q454-25 447-13T438 10Q434 58 434 80 434 108 437 156 440 202 448 242T472 342Q478 361 481 374T481 388Q476 387 463 363T437 310Q431 299 426 287T414 263Q386 201 311 75 302 64 286 40 255-7 235-25 210-49 185-49 167-49 155-37 142-21 142-6 142-2 144 8 141 33 149 110T167 240Q174 288 198 398L220 506Q226 521 239 566L248 599Q249 617 256 625T273 634Q287 634 297 621 313 603 313 578 313 558 304 537 259 427 232 247 222 188 214 121T209 52Q217 50 231 64T256 103Q324 216 415 393 417 396 459 475L483 520Q486 526 490 533T500 549Q522 590 534 610T554 633Q571 632 582 625T601 599Q602 594 600 583T593 561Q591 555 584 531T571 483Q552 433 543 386 536 350 528 316 511 239 503 189T493 99Q492 48 499 30 502 20 514 20 523 20 529 27 558 65 577 94T618 163Q679 277 763 476 795 568 806 596T833 632Q839 636 845 636 856 636 865 628 869 624 872 615T875 595Q865 560 829 465T772 326Q768 319 756 299 754 296 748 285T741 267Q741 257 689 163T611 36Q578-6 545-29T498-53Q485-54 475-48Z" glyph-name="W" horiz-adv-x="720" unicode="&#x57;"/><glyph d="M661 642T661 611Q661 575 625 523 602 500 599 484 577 458 543 419T501 374Q477 353 452 330T421 298Q418 294 410 285T397 274L392 266V266Q403 217 415 185T448 109Q460 84 474 64T501 37Q504 34 512 34 521 34 522 37 547 43 549-2 552-12 537-20T502-28L492-27Q472-25 453-7T412 51Q365 117 335 210 313 189 311 186 282 158 198 67T109-36Q102-48 88-48 83-48 80-47 76-49 74-49 69-49 65-47 64-46 63-41T59-26Q55-21 55-13 55-6 58 2T63 13Q70 28 78 37T118 75L153 108 182 135Q203 156 203 156 204 159 211 167T225 184Q247 201 318 272 314 291 308 331 303 364 297 390T289 419Q288 422 290 424T293 426Q295 428 295 430 295 432 293 435T290 441Q288 447 284 469T277 521Q268 606 266 618 264 620 264 623T263 628Q266 636 276 646 285 652 294 652 312 652 325 632T339 582Q339 556 345 550 343 546 346 506T353 456Q349 444 353 439 354 433 356 419T357 399Q356 394 360 379T366 356L374 328 390 346 413 370Q461 418 489 450 543 514 569 547T607 606Q609 611 614 623T624 639 633 643Q661 642 661 611Z" glyph-name="X" horiz-adv-x="524" unicode="&#x58;"/><glyph d="M679 609T678 600Q677 594 668 586T656 574Q634 555 586 505T510 420Q470 374 437 339T389 288Q388 286 369 267 359 232 351 197L331 132Q326 117 317 85T302 37Q299 25 296 14T290-9Q284-32 280-47T271-66 259-68Q255-67 229-49 220-39 220-31 220-24 226-4L234 26Q235 50 243 83T264 137Q264 152 274 183T295 242L312 290 295 311Q273 344 262 369T246 431Q235 471 235 515 235 529 237 593 238 636 247 653T257 673Q263 679 267 679 278 679 286 654T294 595Q300 376 344 348 352 346 354 346 365 346 377 357T427 409L449 433Q465 450 534 529 574 576 598 603T637 638Q640 643 645 646T653 650 658 651Q662 650 664 646T668 633 675 618Q679 609 678 600Z" glyph-name="Y" horiz-adv-x="504" unicode="&#x59;"/><glyph d="M91-34T77-29 62 0Q62 12 67 24T82 46Q130 98 182 149T336 292Q390 339 417 365T485 433Q568 520 578 557 580 562 580 571 580 589 561 594T489 603Q455 605 440 605 401 605 369 601T288 589L284 588Q277 588 270 593T262 602Q266 608 266 611 266 618 258 623 256 629 256 632 256 639 266 649 273 653 302 656 325 659 333 660 365 665 431 665 458 665 486 663L515 660Q574 655 604 647T645 613Q651 598 651 587 651 573 639 544 634 528 632 524 614 490 561 428T452 315Q326 197 263 144 202 91 151 43 144 34 144 29 144 18 178 18 213 18 243 25 246 26 261 29T301 33Q341 35 360 37 385 38 422 40T476 42Q483 42 488 39T502 24Q515 20 515 11 515 2 501-9 496-9 491-10T478-12Q428-21 402-20 373-18 274-29 226-37 158-37 132-37 122-36 91-34 77-29Z" glyph-name="Z" horiz-adv-x="522" unicode="&#x5a;"/><glyph d="M59-120T59-103Q59-93 68-79 73-76 77-68T81-53Q81-35 109 65T145 177Q145 183 153 201T176 242Q207 343 257 467T332 629Q334 637 337 648T340 664Q340 684 350 692T389 701L428 705Q460 708 481 712T536 727Q548 729 565 736T585 744Q595 746 598 746 607 746 617 731 629 716 629 710 629 705 624 702T606 692Q579 683 533 673T455 658Q437 653 423 649T406 641Q397 625 379 590T361 552Q356 547 332 498T305 432L295 408Q268 342 264 329 256 310 249 285 241 258 234 242 234 236 231 225T224 207Q213 189 206 162 203 157 199 149T194 138Q194 127 189 112 187 109 186 104T185 98Q182 93 177 77 170 50 164 36 145-21 145-40L140-68 170-62Q278-47 310-47 329-43 338-43 344-43 349-46T361-57Q362-59 364-65T367-74 366-79Q360-87 255-102H218Q218-106 209-108T185-111Q174-117 152-122 131-129 131-129 109-138 100-138 92-138 81-129 59-120 59-103Z" glyph-name="bracketleft" horiz-adv-x="330" unicode="&#x5b;"/><glyph d="M335-104T331-103 326-98Q308-94 312-80 311-67 288 25T253 149Q253 152 252 157T252 166Q252 167 249 174T247 188Q240 193 242 218 240 242 233 242 223 295 201 423T179 569Q180 576 177 589T173 611Q171 661 181 691T213 721Q218 721 226 718 232 712 232 701 232 692 229 674 228 649 260 436 279 307 279 302 285 282 287 266T287 246V242Q287 235 290 234 296 228 296 219 295 215 306 173T326 115Q326 105 327 93T329 79Q329 77 336 56T346 19Q353-1 363-19 367-28 370-35T373-49Q373-54 372-57 373-69 370-77T357-92L339-104Q335-104 331-103Z" glyph-name="backslash" horiz-adv-x="330" unicode="&#x5c;"/><glyph d="M110-111Q95-111 87-109 82-110 60-110 40-110 30-108 18-109 1-107T-18-104Q-20-103-24-100T-33-92L-47-82-35-77Q-28-68 22-59T85-53Q87-53 97-54T119-55L155-52 165-25Q170 2 170 16 176 20 179 28T182 43L196 87 202 107Q203 120 214 151 226 191 228 203 228 203 240 239 249 265 253 282 254 289 257 298T261 311Q269 333 270 344 280 378 308 460 352 594 359 617 368 635 374 654T381 680L313 675Q209 668 194 668 184 668 184 671 182 673 180 674T176 675H175Q171 675 168 679T163 690Q162 702 195 711T289 728Q321 732 339 732 350 732 355 731T361 730Q398 740 427 740 442 740 447 736 451 736 457 730T463 715Q471 699 471 697 471 694 465 686 455 672 436 630T417 582Q417 574 410 573 409 573 407 572T405 566Q406 558 402 544T393 529Q392 529 390 528T388 522Q388 510 378 484 369 454 359 430T348 400Q347 398 345 392T340 379Q336 370 332 352T326 318Q318 306 311 289T301 262Q298 252 297 245T295 234Q295 228 285 193T268 144Q267 136 263 117T250 74Q238 12 234 4 234 2 230-3T225-11V-19Q225-28 220-32 218-36 218-41T217-48Q220-48 219-49T218-52Q214-52 214-72 214-97 209-105T185-113Q179-113 155-111 118-107 120-109T120-111H110Z" glyph-name="bracketright" horiz-adv-x="330" unicode="&#x5d;"/><glyph d="M396 317T388 334 365 385Q357 401 353 411 339 433 328 458 316 482 311 489T296 493Q274 485 244 449T185 349Q168 298 146 298 142 298 134 302 128 307 128 317 128 332 143 374L160 409Q174 439 186 453 206 488 249 523T321 555Q338 553 366 497T428 357L440 329Q443 323 443 317 443 305 435 296T416 287Q404 287 401 301 396 317 388 334Z" glyph-name="asciicircum" horiz-adv-x="446" unicode="&#x5e;"/><glyph d="M97-8T82-3Q68-3 63 0T53 11Q47 20 47 25 47 31 58 34T97 41Q127 48 210 51T349 55Q375 55 384 53T404 40Q416 28 416 17 416 8 409 4T388 2L325-3Q292-4 228-6T117-8Q97-8 82-3Z" glyph-name="underscore" horiz-adv-x="446" unicode="&#x5f;"/><glyph d="M338 435T334 435Q330 435 327 440T320 457Q318 460 302 486 284 515 275 532T265 563Q265 571 268 575 288 593 297 593 305 593 310 587 319 582 332 557T356 503 367 467Q368 462 362 453T347 441Q338 435 334 435Z" glyph-name="grave" horiz-adv-x="353" unicode="&#x60;"/><glyph d="M104 42T98 48 91 57Q91 68 86 74 84 76 84 83 84 99 99 137T140 221Q146 227 155 242T168 259Q168 263 171 266T178 270V276Q178 285 211 319T265 367Q290 384 316 384 334 384 347 374 352 368 393 331L430 298 412 248Q403 221 403 199 403 161 425 126 430 115 445 105T475 93Q497 89 497 71 497 51 479 47 475 46 467 46 408 46 365 129 361 135 355 151T347 173Q341 165 332 154T315 135Q206 26 143 26 123 26 107 36 104 42 98 48ZM143 87T153 89 179 99 211 120Q297 194 335 249L357 285Q347 306 336 315T316 325Q295 325 250 273T168 149Q159 132 152 115T143 92Q143 87 153 89Z" glyph-name="a" horiz-adv-x="437" unicode="&#x61;"/><glyph d="M191 19T187 22 176 38Q168 46 167 51T166 61Q178 61 180 65 180 68 183 69T191 69Q218 67 269 97T371 174Q400 211 411 232T423 266Q423 274 420 281 417 288 399 288 368 288 335 266 292 239 266 217T218 164Q208 151 198 132T185 106Q185 102 174 96T154 90Q149 92 143 98T135 112Q133 114 129 117T123 123 121 130Q121 136 126 156T135 187Q143 225 155 266T173 311Q174 313 177 322T181 341Q183 350 187 361T192 375Q197 379 224 454 224 458 246 507 279 582 286 603 295 616 302 630 313 650 318 652 326 654 338 649T358 634Q363 627 363 624 363 619 358 606T345 578 335 557L310 505Q283 448 266 404T230 302L212 253 207 231 232 255Q244 264 276 292 283 298 288 302T297 310Q309 318 332 328T364 340Q384 345 408 345 429 345 443 335T470 303Q479 285 479 264 479 233 463 206 458 202 453 196T448 185Q447 179 431 158T396 116Q370 89 328 62T257 25Q251 24 235 22T211 17Q191 19 187 22Z" glyph-name="b" horiz-adv-x="435" unicode="&#x62;"/><glyph d="M195 9T188 9Q151 9 127 32T103 96Q99 140 122 205T182 314Q207 343 225 361T258 385Q279 394 305 394 323 390 340 379T358 357L363 352Q369 352 374 338T379 306Q379 292 374 282 370 263 361 249T342 235Q331 235 331 229 331 225 327 225 322 225 315 231T305 245Q305 248 309 262T317 293Q320 305 320 314 320 334 305 334 297 334 289 330 249 308 218 260T166 128Q161 106 161 93 161 83 162 77T166 70Q171 68 187 68 224 68 239 77 271 94 310 123 314 126 322 133T337 144Q344 155 350 157T369 160Q382 156 390 150T390 139Q387 139 386 137T385 134Q387 129 369 109T329 72 299 54Q295 54 292 53T289 48Q289 44 259 30T209 11Q195 9 188 9Z" glyph-name="c" horiz-adv-x="355" unicode="&#x63;"/><glyph d="M337-25T328 3Q314 42 314 85 314 97 315 102L317 123 278 92Q246 64 215 50T157 36Q140 39 125 50T102 78Q98 86 98 102 98 139 118 189T168 273Q211 338 264 338 289 338 314 323 339 313 343 313 349 313 352 318T358 336Q369 382 379 413 401 479 417 519T456 607Q466 628 473 634T490 640Q512 640 524 610 527 603 527 596 527 589 521 577 495 532 457 430T398 253Q389 220 383 158T376 55Q376 37 378 29 383 12 383-1 383-11 378-14T362-19Q337-25 328 3ZM216 97T249 122Q255 126 278 143T313 179 330 222Q331 240 327 251T309 274Q299 281 284 281 257 281 234 259 207 235 186 197T154 109Q151 90 174 90 186 90 193 92 216 97 249 122Z" glyph-name="d" horiz-adv-x="393" unicode="&#x64;"/><glyph d="M251 13T216 13Q191 13 169 25T131 58Q118 74 112 94T106 143Q106 153 108 183 111 220 132 260T186 331 249 375Q265 385 278 385 285 385 292 384T307 382Q329 379 340 374T360 357Q385 332 385 299 381 275 354 244T289 194Q271 188 248 188 217 188 198 201 189 204 184 204 175 204 171 192T162 148Q161 141 161 128 161 77 195 72 218 67 228 67 240 67 255 75L274 86Q280 89 285 94T294 103Q296 105 300 109T307 115 314 117Q318 117 323 113T331 106Q340 106 335 94T314 65 276 35Q251 13 216 13ZM292 254T309 272 327 302Q327 314 318 322T293 330Q281 330 275 328 261 324 242 307T209 271 198 250Q203 241 237 241 260 241 275 247 292 254 309 272Z" glyph-name="e" horiz-adv-x="325" unicode="&#x65;"/><glyph d="M117-110T110-105 88-82Q82-76 80-71T78-56L80-31Q85-16 85 4 85 12 92 54T103 116L106 128Q114 161 118 189 126 214 131 238T137 272Q137 290 151 298 152 306 166 331 190 399 201 428T226 480Q244 530 255 543 262 560 293 593T348 646Q370 658 383 661T417 665Q434 665 440 662T462 644Q475 629 477 624T480 605Q476 584 460 551T436 517Q433 516 428 516 413 516 413 541 413 547 410 553T406 561Q406 576 413 586 416 592 416 597 416 602 413 603T402 603Q393 598 358 568T322 531Q321 529 317 521T303 501Q285 476 285 470 285 457 279 457 278 455 275 446T265 425Q261 416 255 405T245 390H246Q243 382 235 361T227 336Q227 332 241 332 272 332 312 343 325 347 331 347 338 347 351 343 362 336 369 320T372 298Q371 294 351 287T308 276Q277 269 257 266 252 265 226 260T199 251Q195 251 192 247T189 239Q189 225 185 218 180 203 168 153T155 90Q147 80 147 54 141 43 141 29 141 23 140 19 140 14 138-5T136-40L133-69Q132-81 130-91T123-106Q117-110 110-105Z" glyph-name="f" horiz-adv-x="291" unicode="&#x66;"/><glyph d="M392 290T392 279Q392 264 380 249 377 244 369 234T355 212 346 187Q342 164 322 89L311 50 295-12Q250-167 205-191 192-196 180-196 158-196 135-182T94-142Q84-128 75-98T71-63Q73-61 78-61 85-61 93-65T103-76Q107-87 120-105T139-124Q155-132 166-132 175-132 183-126 199-113 210-93T236-27L244 2Q268 90 279 116 284 132 289 141L271 125Q259 114 246 104T219 88Q212 79 184 79 164 79 144 85 123 96 118 102T104 130Q100 138 100 155 100 198 120 247 139 286 180 330T251 383Q263 389 273 389 284 389 296 385 312 383 321 378T351 355Q375 331 386 302 392 290 392 279ZM293 226T300 252 305 305Q304 319 301 324T290 330Q271 330 246 312T198 265Q183 245 173 217 161 183 161 154 161 132 169 129 200 130 225 147T276 203Q293 226 300 252Z" glyph-name="g" horiz-adv-x="355" unicode="&#x67;"/><glyph d="M130 54Q115 54 107 61 99 68 97 72T94 82Q94 86 101 119L110 152Q120 193 128 220 132 245 143 273T157 307Q165 336 188 397L218 478Q253 573 260 594L276 638Q276 654 292 654 306 654 315 639T325 603Q325 588 319 574 305 544 289 499T267 439Q233 343 218 311 218 307 215 297T208 279L197 257Q197 254 186 215 172 172 169 152 174 161 190 179T220 210Q275 257 288 266 300 273 308 279T319 287Q319 292 330 292 334 292 334 293T335 298Q335 305 358 310T399 316Q411 316 418 311T436 289Q453 265 453 237 453 221 447 204 447 196 445 180T442 151L436 119H452Q459 119 465 117T474 114Q483 103 490 103 499 103 499 96 499 92 495 86T484 76Q458 60 440 60 423 60 405 76 383 98 383 129 383 145 389 167L392 199Q394 223 394 229 394 252 383 252 369 252 330 228T248 167 181 93Q166 74 156 65T136 54H130Z" glyph-name="h" horiz-adv-x="464" unicode="&#x68;"/><glyph d="M201 445T196 462 196 479Q204 480 214 496T224 524Q224 528 227 531T234 536Q242 541 248 541 265 541 279 517 285 504 285 494 285 485 280 476T262 451Q245 428 230 428 220 428 208 438 201 445 196 462ZM97 46T97 72Q97 86 102 96 102 101 104 108T106 117Q105 123 114 150 132 190 162 291 162 296 166 299T178 304Q186 306 189 306 195 306 199 302T212 285Q218 279 218 267 218 248 205 221 192 192 188 171 176 144 169 121 167 115 163 97T152 68Q146 40 141 29T130 18Q123 18 111 32 97 46 97 72Z" glyph-name="i" horiz-adv-x="187" unicode="&#x69;"/><glyph d="M209 496T209 510Q209 536 230 561 244 578 262 578 274 578 286 569 297 552 297 541 297 532 286 515 268 496 256 487T235 478Q225 478 218 485 209 496 209 510ZM39-216T6-216Q-30-216-55-190-66-173-73-152T-80-114Q-80-94-69-94-62-94-56-101T-50-119Q-50-135-43-146T-23-158Q-12-162 6-152T36-124Q49-106 74-57T111 25Q123 67 147 178L152 201Q155 224 160 245T167 271Q167 296 174 310 174 323 176 336T179 352Q181 354 185 354 191 354 198 351T211 342Q219 334 221 330T223 316Q223 302 219 278L216 247Q216 235 206 186T187 101Q182 82 180 76 174 55 172 43 171 35 159 2 147-27 145-39 142-60 121-104 113-123 93-153T60-194Q39-216 6-216Z" glyph-name="j" horiz-adv-x="204" unicode="&#x6a;"/><glyph d="M100 9T87 28 74 64L88 106 107 166Q116 179 121 197T128 219Q138 238 168 311L187 357Q215 417 233 465L249 502 268 546Q303 631 307 645 307 653 310 657T318 661Q323 666 334 666 339 666 350 651T361 624Q361 607 345 563T302 464Q204 253 212 245 216 247 229 253T256 270Q265 275 273 280T287 290Q318 311 325 313 331 317 348 327 366 339 367 340 379 346 387 346 393 346 398 342T410 330Q416 323 416 316 416 309 408 302T381 282Q368 273 354 265T327 249Q255 205 253 202 255 198 262 184T277 160L292 134Q304 117 304 112 313 87 328 73T362 59Q371 59 383 64 398 70 407 70 421 70 426 54 429 48 429 45 429 41 415 27 389 1 362 1 353 1 341 6 326 5 304 26T241 99Q241 103 230 125 226 134 221 141T214 152Q214 156 210 162T203 173Q192 176 186 171T174 157 165 144Q155 118 145 81T138 32Q138 16 133 11T112 5Q100 9 87 28Z" glyph-name="k" horiz-adv-x="365" unicode="&#x6b;"/><glyph d="M127-1T120-1Q104-1 95 15T86 59Q86 82 92 112 103 141 103 154 106 173 123 222T146 282Q150 282 153 288T156 303Q156 312 159 321T167 335Q167 338 169 346T172 357Q172 359 174 364T177 373Q193 404 233 512T273 633Q273 649 289 649 294 654 305 654L321 638Q328 631 330 624T332 601Q332 586 328 575T308 530Q305 523 300 514T289 490Q287 485 273 454 263 434 263 431 263 428 259 419T252 399Q244 383 227 343T209 298Q209 287 204 282 201 282 200 278T199 271Q199 261 183 218L174 189Q155 124 148 94T140 43Q140 18 139 11T130 0Q127-1 120-1Z" glyph-name="l" horiz-adv-x="169" unicode="&#x6c;"/><glyph d="M537 47T525 66 512 130L513 176Q513 188 512 193T506 198Q493 198 451 164T365 83Q360 78 352 69T336 55 323 50Q314 50 306 57L295 66Q288 72 288 80L290 89 313 155Q335 206 339 219T338 232Q329 231 313 223T293 206Q291 206 280 196T261 180Q252 167 217 133L193 110Q178 98 151 61 137 43 135 43 104 43 96 73 92 80 92 92 92 108 104 158 113 192 114 200L119 220Q121 233 128 251T152 308Q162 336 162 350 162 363 171 370T191 378Q205 378 215 367T225 338Q225 321 217 303L206 276Q198 260 186 225T173 185Q174 182 180 186T194 198Q203 207 215 216 245 244 286 270T350 303Q363 303 369 300T384 288 396 275Q405 266 405 249 405 244 403 236 399 222 393 202T383 173Q390 179 408 194T441 222Q491 261 520 261 541 261 556 239 565 230 567 221T569 195 569 170Q570 163 570 146 571 138 572 115T577 89Q582 83 611 78 629 75 629 62 629 53 616 44 603 36 584 36 566 36 551 42 537 47 525 66Z" glyph-name="m" horiz-adv-x="560" unicode="&#x6d;"/><glyph d="M434 46T421 54 399 83Q390 115 390 147 390 162 393 168 397 172 397 185T396 205Q395 228 382 228 373 228 362 221 306 186 268 161T195 105Q181 89 174 77T164 61 156 56Q150 54 148 54 143 54 136 59T127 67Q123 71 114 80T104 94Q104 102 110 131T121 168Q124 168 130 180T141 200Q144 215 167 269 181 293 186 309T194 349V351Q194 355 197 357T203 360Q210 365 216 365 229 365 242 349 257 330 257 309 257 283 224 227 221 220 216 207T210 189L266 227Q274 236 309 259T358 285Q382 296 388 296 400 296 420 278T445 248Q445 237 447 232 452 212 452 185 452 167 450 153T443 136Q443 135 444 133T448 131V126Q440 126 446 109T462 83Q472 73 472 63 472 51 454 46 434 46 421 54Z" glyph-name="n" horiz-adv-x="450" unicode="&#x6e;"/><glyph d="M157 15T150 19 130 34Q97 69 97 98 97 105 98 108 101 115 101 122T100 131Q96 135 96 136T98 139 101 143Q107 143 105 154 103 162 113 189T138 240Q149 258 170 285T209 326Q233 347 252 357T294 372Q314 377 321 377 328 377 333 374T348 361Q375 349 385 331T396 273Q396 208 343 132 320 99 300 82T247 44Q226 29 209 23T169 15Q157 15 150 19ZM289 148T303 172 331 233Q336 250 336 274 336 304 328 308 318 313 308 313 286 313 262 293 233 268 210 232T163 141Q153 120 153 100 153 85 160 76T181 67Q214 67 265 121 289 148 303 172Z" glyph-name="o" horiz-adv-x="353" unicode="&#x6f;"/><glyph d="M53-225Q45-225 40-216 35-209 35-199 35-192 40-165 51-123 51-107 51-102 53-93T56-75Q60-68 63-54T67-28Q67-23 70-17T79-6Q79 0 82 12T86 30Q91 57 125 158T183 321Q194 346 199 367T204 400Q204 404 206 407T215 417Q222 424 228 424 233 424 239 420T251 411Q257 402 260 394T264 377Q264 374 262 358 262 337 253 324T246 311Q291 332 326 332 368 332 391 305T415 235Q415 217 405 192T384 157Q378 157 368 136 355 120 325 103T283 89Q282 89 280 88T278 83Q278 79 244 68T188 57Q176 57 170 58T158 65Q151 58 151 52 151 41 141 12T125-17Q124-18 123-21T125-28Q125-31 124-42T119-59Q119-68 116-83T109-107Q109-119 106-130T98-142Q92-144 92-171 91-196 82-210T61-224L53-225ZM197 110T242 125 306 156Q327 174 340 194T353 236Q353 252 344 265 337 276 320 276 300 276 273 262T222 225Q204 207 190 174T176 121Q176 110 182 110 197 110 242 125Z" glyph-name="p" horiz-adv-x="378" unicode="&#x70;"/><glyph d="M233-211T228-204 219-177Q217-168 217-145 217-99 230-33T267 99Q271 106 272 114T273 128Q223 104 200 96T161 87Q141 87 122 110T102 158Q102 173 118 203T156 264Q167 283 200 311T257 354Q267 360 289 370 307 381 315 381 330 385 351 385 373 385 384 381 396 373 407 355T422 317Q422 300 418 287T395 232Q381 210 370 187T358 158Q353 145 315 62 314 55 307 31 290-31 278-87 270-135 270-164 270-196 278-209 280-217 277-221T265-226Q257-226 246-220 233-211 228-204ZM173 146T183 146Q209 146 235 162T294 209Q319 232 340 272T356 324Q354 328 348 328 336 328 315 318T270 289Q198 234 174 178L163 149Q173 146 183 146Z" glyph-name="q" horiz-adv-x="377" unicode="&#x71;"/><glyph d="M111 41T108 46 105 61Q105 70 106 76 109 110 121 155L126 175Q129 200 161 280T213 389Q221 394 230 394 243 394 252 385 258 381 258 370 258 360 251 341T225 283Q221 275 212 253T202 227Q202 225 203 225 205 225 207 226T211 229Q222 248 264 281T323 322Q330 326 341 330T356 336Q372 344 394 344 408 344 418 340T433 326Q434 319 438 315T445 310Q448 310 449 308T450 304Q450 297 442 296T413 293Q402 292 390 288T366 278Q310 246 283 228T227 179Q216 167 198 136 191 129 184 100T176 63Q175 60 172 52T163 35Q151 19 143 19 134 19 119 35 111 41 108 46Z" glyph-name="r" horiz-adv-x="360" unicode="&#x72;"/><glyph d="M143 3T126 16 103 40Q103 42 103 47T106 53 117 55Q134 55 171 51 193 51 221 56T252 69Q255 69 255 70 255 72 247 80 245 80 238 83T229 87Q229 91 220 97T200 109Q171 133 159 144T150 161V166Q143 166 135 185T126 222Q126 240 141 272T177 324Q205 350 249 379T320 416Q337 423 354 423 370 423 381 416 394 408 406 393T423 366Q423 344 419 324T405 303Q404 303 402 302T400 297Q400 293 396 287T385 274Q363 258 349 258 338 258 335 269 333 271 331 275T326 279Q325 279 323 282T320 292Q320 295 322 298T326 303Q332 303 346 326T360 358Q360 364 359 365T349 366Q271 331 252 313 249 307 248 305T242 303Q242 312 189 235 187 233 185 223T182 206Q180 198 180 197 180 193 183 189T193 181 205 171Q257 132 277 113T302 80Q315 60 315 44 315 32 306 23T279 6Q268 1 242-2T191-6Q177-6 161-4 143 3 126 16Z" glyph-name="s" horiz-adv-x="341" unicode="&#x73;"/><glyph d="M163 10T147 28 125 63Q125 65 123 67T120 71Q116 74 116 104 116 128 118 154T125 196L143 249 157 289 184 347 144 358Q137 359 133 365T128 376Q128 384 136 395T150 407Q153 406 166 406 196 406 211 409 221 413 225 425 229 433 234 445T245 467Q248 473 254 485T271 514Q273 517 280 528T297 548Q304 555 314 555 324 555 340 542 342 539 345 534T349 525Q349 521 341 508 335 496 330 487T320 470Q308 450 303 440 293 427 293 420 293 413 306 413 320 413 353 419 367 421 372 421 407 421 410 392 411 386 411 378 411 364 402 361T359 358Q327 353 293 353 287 353 280 353T264 350Q256 348 253 344T245 331Q242 328 231 308 217 279 213 273 186 193 173 109 171 93 171 89 171 74 181 68T215 62Q249 62 274 69 304 82 319 91 328 96 335 100T346 107Q349 113 353 113 361 113 367 97 367 81 360 69T325 41Q267 4 209 4 193 4 179 7 163 10 147 28Z" glyph-name="t" horiz-adv-x="331" unicode="&#x74;"/><glyph d="M315 25T303 70Q301 76 301 91T301 112Q295 97 279 85 256 62 233 51 198 28 176 28 156 28 138 50 125 61 119 72T112 99Q112 110 115 123 117 160 125 194T158 281Q190 344 204 365 209 367 217 367 227 367 233 361T241 345Q244 341 244 334 244 309 214 252 175 158 175 122 175 101 187 97 192 94 198 94 223 94 258 128T325 237Q339 271 342 307 341 310 341 316 341 334 359 345 363 351 370 354T379 354L395 355Q398 356 401 350T407 341Q414 335 414 319 414 286 385 218 366 178 360 157T352 115Q352 77 381 52 391 45 393 37T394 15Q392 6 383 1T362-5Q349-5 339 2 315 25 303 70Z" glyph-name="u" horiz-adv-x="370" unicode="&#x75;"/><glyph d="M172 69T156 128 130 242Q126 263 114 299 110 315 110 321 110 339 125 348 129 351 136 352T149 353Q171 345 189 231 192 202 198 179T205 152Q208 146 212 140T221 133Q224 133 228 137 247 156 269 185 293 218 302 229 313 246 331 269 334 273 345 288T366 313 383 326Q386 327 392 327 409 327 409 313 409 300 391 274 385 266 379 253T370 237Q359 215 330 175T290 125Q288 123 274 111T247 82Q215 52 201 52 192 52 183 61 172 69 156 128Z" glyph-name="v" horiz-adv-x="331" unicode="&#x76;"/><glyph d="M156 45T142 78 127 155L128 173Q128 209 133 233T139 263Q141 268 143 280T151 316Q159 351 167 359 175 367 186 367 193 367 199 364T209 354Q215 348 215 325 215 308 212 292T204 269Q201 263 195 211 191 173 189 162 188 158 188 150 188 127 202 127 225 127 267 188 295 228 306 250T330 308Q335 323 339 334T348 348Q353 352 362 352 372 352 386 343 398 331 398 315 398 298 386 274 374 250 364 208T354 141Q354 123 358 119T373 114Q401 114 440 154 458 172 487 217T517 271Q517 277 526 288 531 295 535 300T549 310L557 312Q565 312 576 301 580 297 581 289T582 269Q577 251 565 223T546 186Q527 171 514 149 490 120 477 109T459 93Q439 73 416 62T371 51Q350 51 337 61 306 77 306 115 306 122 304 128T301 136Q286 136 277 120 263 95 229 70T177 45Q156 45 142 78Z" glyph-name="w" horiz-adv-x="517" unicode="&#x77;"/><glyph d="M375 3T370 9Q364 9 356 12T338 19Q317 28 277 63T237 110Q237 113 236 114T232 115Q231 116 229 119T226 126Q226 130 223 133T216 136Q211 132 195 119T162 88Q130 56 118 46T99 35Q87 35 72 47T56 72Q61 79 81 100T125 142L189 205 178 243Q160 282 152 306 146 314 143 319T139 329Q139 333 147 344 158 355 164 355 169 355 178 349 186 349 203 316T221 269Q221 256 230 256 240 256 269 275 280 285 286 292T295 301Q307 310 332 328T365 349Q370 352 373 352 385 352 396 339T407 312Q407 300 401 293T375 275Q370 271 344 252T279 200L253 179 269 152Q285 120 295 115 303 104 334 80T370 56Q373 56 379 52T391 46Q403 34 403 19 403 3 391 3 375 3 370 9Z" glyph-name="x" horiz-adv-x="343" unicode="&#x78;"/><glyph d="M408 353T408 336Q408 318 384 273 376 250 367 230T352 204L329 151Q314 118 292 74 265 18 254-9L241-30Q191-110 164-142 109-191 79-199 66-203 48-203 15-203-14-189T-48-155Q-49-148-43-140T-30-132Q-25-132-22-136-14-142 1-147T35-153Q42-153 54-151 74-147 96-127T136-83Q170-33 209 42 195 46 182 61T162 94 156 119V130Q147 130 142 164T136 243Q136 260 138 286 142 302 142 325T143 356V360Q143 372 145 377T154 386Q162 390 170 390 198 390 198 316 198 305 196 273 195 259 195 231 195 179 204 139T231 84L237 98Q248 127 254 135 268 164 270 172 272 179 281 195L294 222Q296 228 307 260T329 313Q333 321 341 336T354 359 365 368Q373 375 378 375 382 375 392 369 408 353 408 336Z" glyph-name="y" horiz-adv-x="341" unicode="&#x79;"/><glyph d="M95 21T74 21Q60 21 52 24T34 38Q26 44 26 51 26 64 61 100 99 147 136 177 158 194 240 250 270 274 283 283T304 298Q255 303 230 301 208 301 197 301T178 304H163Q153 304 132 314T109 334Q111 335 116 338T125 345Q128 347 133 350T141 354 146 352Q151 352 168 352T208 354Q266 353 293 351T333 343 361 324Q374 311 374 297 374 282 360 266 359 265 354 259T346 253L298 222Q288 215 268 203 242 187 238 182 229 178 221 172T207 161Q202 155 192 146T171 129Q159 119 142 102T119 79Q119 80 165 84T248 87L318 89Q335 90 357 90 378 90 387 86 396 83 403 72T408 56Q403 56 376 53T315 49Q289 47 192 35 177 32 140 28 95 21 74 21Z" glyph-name="z" horiz-adv-x="315" unicode="&#x7a;"/><glyph d="M167-113T167-119Q165-118 160-115T151-106Q143-96 142-87T141-58V-30Q147-25 148-16T149-4Q153 12 169 58T196 127Q207 148 215 169T223 201Q223 217 210 227T173 243Q150 243 150 259 150 265 153 272 156 282 165 288T186 295Q192 295 195 294 218 294 248 327T293 404Q305 436 311 466T321 546Q325 603 340 635T392 704Q403 717 414 725T434 737 447 744Q469 752 489 752 506 752 514 747 521 744 529 727T534 707Q530 707 521 705T498 702Q460 693 426 663 406 638 399 626T390 597Q380 571 378 558T370 498Q365 447 362 430T345 381Q331 343 315 317T276 270Q257 258 257 254 257 251 265 241 265 239 270 228T275 208Q279 196 279 189 279 175 272 154T246 92Q227 54 227 37 220 27 208-18 204-37 202-50T198-70Q198-84 223-84 227-84 243-82 263-78 264-78 272-78 279-88 287-96 287-101 287-112 259-121 234-134 207-134 186-134 176-127 167-113 167-119Z" glyph-name="braceleft" horiz-adv-x="330" unicode="&#x7b;"/><glyph d="M147-141T140-141Q124-141 115-125T106-81Q106-58 112-28 123 1 123 14 127 33 164 148T206 272Q210 272 213 278T216 293Q216 302 219 311T227 325Q227 328 229 336T232 347Q232 349 234 354T237 363Q254 395 318 563T383 743Q383 759 399 759 404 764 415 764L431 748Q438 741 440 734T442 711Q442 696 438 685T418 640Q415 633 410 624T399 600L371 535Q323 426 323 421 323 418 319 409T312 389Q304 373 287 333T269 288Q269 277 264 272 261 272 260 268T259 261Q259 251 243 208L229 163Q225 148 205 81T172-35 160-97Q160-123 159-129T150-140Q147-141 140-141Z" glyph-name="bar" horiz-adv-x="330" unicode="&#x7c;"/><glyph d="M109-111T94-104 78-87Q78-83 80-80T84-76Q88-79 89-79T91-76Q94-75 103-72T128-63Q157-58 171-51T192-31 204 9Q212 41 212 46 212 48 213 65T214 110Q214 134 213 147 211 180 211 216 211 234 213 242T220 261Q230 270 230 283 230 290 229 294 222 309 222 325 222 344 233 353L247 368Q267 389 276 401T297 435Q322 475 341 516T368 587V597Q370 603 370 608 370 625 354 649 346 665 334 672T296 688Q279 691 279 704 279 712 287 722 293 733 310 733 328 733 337 724 345 716 352 716 357 716 377 696T406 661Q409 658 412 645T418 619Q422 599 422 595 422 585 410 549 396 505 385 474T368 437Q365 435 361 433T357 428Q357 421 339 391T307 347Q303 343 300 337T296 328L289 324Q282 319 282 312 282 308 289 289 290 281 295 272T303 258Q303 252 302 248T298 244Q285 237 280 232T273 213 270 170L271 127Q272 95 270 60T264 15Q248-55 241-55 240-55 239-56T238-59Q238-81 206-96T133-111Q109-111 94-104Z" glyph-name="braceright" horiz-adv-x="330" unicode="&#x7d;"/><glyph d="M336 201T318 208 279 229Q271 234 255 246T222 265Q216 267 212 267 203 267 197 263T178 249Q160 231 147 230 145 223 138 216T127 214Q116 217 109 224T103 237Q104 249 129 271T200 311Q204 312 212 312 231 312 250 305T283 283Q303 265 317 256T346 247Q351 247 363 251 371 252 386 257T410 266L436 273Q441 281 448 282 449 285 462 286L471 288Q484 288 480 268 480 258 464 239L444 230Q431 227 414 219T389 207Q371 201 357 201 336 201 318 208Z" glyph-name="asciitilde" horiz-adv-x="446" unicode="&#x7e;"/><glyph glyph-name="uni00A0" horiz-adv-x="242" unicode="&#xa0;"/><glyph d="M212 423T212 443Q212 455 222 467T253 489Q272 496 282 496 295 496 312 484 326 470 326 456 326 434 292 411 273 399 263 399 258 399 239 406 212 423 212 443ZM11-211Q4-204 3-197T1-174Q2-159 10-142T29-105 44-78L57-54Q73-26 73-21 73-17 78-7T86 11Q95 26 106 48T117 75Q118 77 119 82T125 91Q128 91 129 95T130 102Q130 107 135 122T149 155Q183 252 186 293 188 317 189 321T199 329Q218 333 229 318T240 274Q240 249 231 214 217 186 217 172 212 155 201 129T183 88Q179 88 175 81T170 67Q170 59 167 49T159 35Q159 32 155 25T151 14Q151 12 149 8T146 0Q128-30 94-113T59-209Q56-226 41-223 36-227 25-227L11-211Z" glyph-name="exclamdown" horiz-adv-x="210" unicode="&#xa1;"/><glyph d="M558 666T556 642Q554 632 550 623T542 606 534 593Q520 571 501 536 492 519 465 478 478 460 474 448 473 445 463 435T446 419Q439 412 427 415 427 410 411 384 398 361 380 326T360 288Q360 281 351 272 348 272 347 268T345 261L343 251Q388 258 417 269 440 284 461 284 468 284 471 283 484 277 484 269 484 255 455 239 438 230 426 221T414 207Q412 207 406 205T398 203Q387 202 364 196T334 186Q322 181 310 181 305 170 298 154T282 118Q233 11 230-13 228-37 226-44T214-54Q182-61 182-18 182 7 197 59 212 80 214 103 219 121 257 192 251 194 241 202T226 221Q212 241 212 275 212 326 241 397 252 420 277 457T312 500Q315 501 326 505T351 517Q365 524 384 524 403 524 422 513 452 572 475 622T499 680Q502 688 506 691T519 693Q525 699 535 695L549 681Q558 666 556 642ZM358 384T394 457L383 464Q375 464 361 450T332 415Q309 391 293 356T270 296Q268 292 268 282 268 271 270 260T276 246Q277 245 284 245L302 278Q306 278 311 285T317 299Q317 308 320 317T329 330Q329 333 333 341T338 351Q339 353 341 356T344 363Q358 384 394 457Z" glyph-name="cent" horiz-adv-x="450" unicode="&#xa2;"/><glyph d="M555 549T555 542 554 533Q553 525 548 519T529 502Q517 496 506 496 492 496 485 506T480 538Q482 556 472 578T448 604Q438 608 423 600T383 572Q376 560 369 553T360 544Q358 540 351 528T333 496Q309 447 273 342L365 341Q391 341 400 339T420 326Q432 314 432 303 432 294 425 290T404 288L341 283 254 285Q238 237 236 229L229 181Q217 110 214 75L216 50 252 38Q260 35 279 27T314 16Q340-1 374-1 398-1 417 5T439 19Q443 19 446 23T450 33Q454 33 461 35T474 38Q499 38 499 20 499 6 483-13T439-48Q415-60 382-60 333-60 296-35 292-31 283-27T267-23Q262-19 238-17 222-15 216-13 197-9 185-9 173-9 160-13 139-20 111-20 76-20 50-10T24 16Q24 33 35 42T73 54Q100 56 115 58T134 63 143 75Q158 124 171 208 174 241 186 287 168 288 143 288 123 288 108 293 94 293 89 296T79 307Q73 316 73 321 73 327 84 330T123 337Q140 341 201 343 221 409 245 459 288 547 326 598T403 655Q416 659 432 659 473 659 501 633 502 639 511 630T530 604 541 578Q544 568 547 561T551 552Q555 549 555 542Z" glyph-name="sterling" horiz-adv-x="450" unicode="&#xa3;"/><glyph d="M481 368T485 348 486 325L482 314Q485 307 467 272T426 209L402 184 415 170Q422 157 442 138T470 119Q474 118 477 105T481 79Q481 72 479 68 475 62 469 62 460 62 441 84 423 98 406 120T383 156V159Q383 163 380 163 377 163 365 156 339 145 313 138T270 130L261 131Q249 135 248 135 244 135 233 124 232 118 218 100T195 74Q190 63 181 51T174 35Q169 30 156 25T141 26Q135 22 131 30T126 48Q126 57 130 60 128 62 128 63 128 65 131 65T136 64Q133 67 133 73 133 81 139 91T153 108V109Q153 111 156 115T160 125Q171 132 183 132 183 142 186 146T193 152 199 156Q204 161 204 167T201 171Q199 173 194 182T185 194Q185 201 184 214T182 238Q182 260 187 277 189 277 192 291T199 309V311Q199 315 203 319T210 325Q211 326 213 328T215 335Q216 336 219 342T228 357Q229 361 233 372T238 390Q238 395 235 404 215 420 200 441T189 474L182 485Q178 490 178 498 178 508 183 515T193 518Q200 518 205 506 210 499 214 494T222 484Q225 485 231 473T243 456Q254 441 264 432T275 421L276 420Q278 420 284 425T298 435Q308 440 315 442T331 444 347 446L375 444 417 499Q439 527 449 538T467 549Q473 549 478 539 483 538 485 533T488 520Q488 516 486 512 485 513 481 506T474 493Q471 487 468 482T462 471Q459 466 456 461T451 450Q443 448 441 445T437 437 434 430Q435 429 438 424T449 413Q456 410 463 400T473 374Q481 368 485 348ZM431 315T431 340Q431 359 423 369 413 381 400 387T363 393Q350 393 339 388T323 381Q301 371 291 359T262 311Q231 266 231 232 231 214 243 206 255 188 297 188 308 188 313 189 392 229 419 289 431 315 431 340Z" glyph-name="currency" horiz-adv-x="450" unicode="&#xa4;"/><glyph d="M659 609T658 600Q657 594 648 586T636 574Q614 555 566 505T490 420Q438 360 392 312 409 311 435 311 461 311 470 309T490 296Q502 284 502 273 502 264 495 260T474 258L411 253 345 254 331 197 323 170Q349 169 387 169 413 169 422 167T442 154Q454 142 454 131 454 122 447 118T426 116Q423 115 401 116T361 118L308 121Q288 54 282 37 279 25 276 14T270-9Q264-32 260-47T251-66 239-68Q235-67 209-49 200-39 200-31 200-24 206-4L214 26Q215 45 221 71T236 119Q173 116 165 116 145 116 130 121 116 121 111 124T101 135Q95 144 95 149 95 155 106 158T145 165Q170 171 250 171 261 207 275 242L280 256 213 258Q193 258 178 263 164 263 159 266T149 277Q143 286 143 291 143 297 154 300T193 307Q211 311 274 313 253 345 242 370T226 431Q215 471 215 515 215 529 217 593 218 636 227 653T237 673Q243 679 247 679 258 679 266 654T274 595Q280 376 324 348 332 346 334 346 345 346 357 357T407 409L429 433Q445 450 514 529 554 576 578 603T617 638Q620 643 625 646T633 650 638 651Q642 650 644 646T648 633 655 618Q659 609 658 600Z" glyph-name="yen" horiz-adv-x="450" unicode="&#xa5;"/><glyph d="M294 346T283 346Q271 346 258 356T244 377Q244 381 247 385 275 450 329 591T383 743Q383 759 399 759 404 764 415 764L431 748Q438 741 440 734T442 711Q442 696 438 685T418 640Q415 633 410 624T399 600L371 535Q323 426 323 421 323 418 319 409T312 389Q309 383 297 356 294 346 283 346ZM147-141T140-141Q124-141 115-125T106-81Q106-58 112-28 123 1 123 14 126 30 152 111T195 242Q195 249 204 249 217 249 234 236T245 213L243 208 229 163Q225 148 205 81T172-35 160-97Q160-123 159-129T150-140Q147-141 140-141Z" glyph-name="brokenbar" horiz-adv-x="330" unicode="&#xa6;"/><glyph d="M465 599T477 583 493 550Q493 543 484 503 482 496 476 484T470 469Q469 457 457 457 448 457 439 463T426 480Q425 485 423 494T420 510Q420 518 423 525 434 539 434 542 434 547 423 544 411 544 379 521T331 474Q320 461 316 453T312 436L313 418Q313 404 323 384T341 363Q343 359 351 346T373 321Q401 277 401 247 401 225 384 211T331 189Q315 185 297 185 274 185 253 193 258 184 265 177 267 173 276 161T297 140Q325 93 325 64 325 42 308 29T255 9Q239 5 219 5 193 5 172 15T140 45Q133 61 133 63 133 69 140 74 147 75 156 70T172 62Q183 55 200 55 223 55 244 66T268 90Q266 93 260 104T250 125Q219 156 201 192T182 254Q180 259 180 268 180 283 188 299T209 327Q228 356 269 389 258 414 258 432 256 437 256 446 256 477 283 513 309 542 341 567T400 605Q404 605 425 605T454 603Q465 599 477 583ZM339 272T335 280 326 303Q309 321 300 336 287 325 255 291 244 277 241 269T237 251L248 247Q262 235 282 235 303 235 322 246T344 271Q339 272 335 280Z" glyph-name="section" horiz-adv-x="385" unicode="&#xa7;"/><glyph d="M255 457T250 467 247 482Q256 513 267 522 269 524 273 528T281 534Q289 539 295 539 311 539 319 515 326 503 326 496 326 489 322 482T309 463Q292 440 278 440 270 440 262 450 255 457 250 467ZM383 457T378 467 375 482Q384 513 395 522 397 524 401 528T409 534Q417 539 423 539 439 539 447 515 454 503 454 496 454 489 450 482T437 463Q420 440 406 440 398 440 390 450 383 457 378 467Z" glyph-name="dieresis" horiz-adv-x="353" unicode="&#xa8;"/><glyph d="M288 90T245 116 183 193Q173 210 167 240 165 252 163 260 162 261 162 265T160 270Q159 272 159 284 159 313 161 319 164 322 164 325T163 329Q161 333 161 339 161 357 172 389T198 449 218 480Q220 480 220 483T221 487Q226 494 258 514T318 548Q356 567 392 567 470 567 534 477 537 467 546 452T556 432Q569 413 575 385T578 352Q579 350 579 346T579 339Q581 337 581 321 581 301 578 276T571 249Q570 249 569 248T569 245Q571 243 559 230T539 216Q539 216 539 215T542 213Q545 211 527 191T483 151 437 123L429 115Q422 105 398 98T354 92Q288 90 245 116ZM299 144T320 144Q359 144 413 174 439 186 470 212T500 252L499 256Q499 267 506 270 515 278 520 301T526 349Q526 376 519 389 519 390 514 397T510 409Q510 416 505 425T472 473Q429 506 386 506 368 506 358 502T346 498Q288 481 261 444T222 360Q207 314 207 296 207 282 219 262 218 252 222 238T225 221Q226 215 237 200T262 170 288 153Q299 144 320 144ZM346 215T340 215Q330 215 305 222 303 222 297 228T284 241Q275 255 275 279 275 316 296 358 300 376 313 395T343 434Q344 435 350 437T371 445Q378 447 384 448T392 450Q408 449 424 440T449 419 455 398Q453 395 448 389T440 378Q438 373 432 373 426 373 422 378T416 392Q403 409 390 409 377 409 365 396T349 369Q335 353 331 327T325 295Q324 291 324 283 324 263 329 261 343 257 350 257 382 257 432 295 437 298 439 298 442 298 445 291T453 282Q452 265 441 252T415 232Q411 232 407 231T399 229Q391 228 378 225T354 218Q346 215 340 215Z" glyph-name="copyright" horiz-adv-x="496" unicode="&#xa9;"/><glyph d="M209 324T197 333L195 334 189 346Q182 353 182 354 182 364 179 368H180Q178 370 178 377 178 406 221 499 227 505 238 525L244 535 243 534Q243 539 251 543V549Q251 557 278 588T322 633Q344 649 366 649 385 649 396 638L432 599 463 568 450 524Q443 502 443 480 443 448 463 406 466 400 475 394T494 387Q517 381 517 366 517 358 512 352T497 343Q471 339 445 359T401 417Q393 430 389 444 385 438 379 432T371 422Q283 324 229 324 209 324 197 333ZM237 380T251 388 280 410Q303 434 331 468T377 527L394 556Q386 574 379 582T367 591Q352 591 319 545T254 435Q248 421 243 406T235 383Q237 380 251 388Z" glyph-name="ordfeminine" horiz-adv-x="350" unicode="&#xaa;"/><glyph d="M390 1Q363 1 328 16L310 26Q280 41 267 49T242 72Q210 90 191 111T154 165L130 207 123 237Q131 239 142 248T154 258Q167 274 188 294T264 360Q304 390 319 406T338 425Q358 447 364 447 367 448 371 448 376 448 381 444 387 440 395 438T408 434 414 427Q414 425 411 418T402 405L376 384Q339 356 275 299 230 258 215 240T202 205Q213 179 251 142T353 69Q381 55 399 40T418 13Q418 5 406 2L390 1ZM590 1Q563 1 528 16L510 26Q480 41 467 49T442 72Q410 90 391 111T354 165L330 207 323 237Q331 239 342 248T354 258Q367 274 388 294T464 360Q504 390 519 406T538 425Q558 447 564 447 567 448 571 448 576 448 581 444 587 440 595 438T608 434 614 427Q614 425 611 418T602 405L576 384Q539 356 475 299 430 258 415 240T402 205Q413 179 451 142T553 69Q581 55 599 40T618 13Q618 5 606 2L590 1Z" glyph-name="guillemotleft" horiz-adv-x="646" unicode="&#xab;"/><glyph d="M466 125T455 125Q446 125 442 132T440 153L435 216 432 255 403 253Q370 252 306 250T195 248Q175 248 160 253 146 253 141 256T131 267Q125 276 125 281 125 287 136 290T175 297Q205 304 288 307T427 311Q453 311 462 309T482 296Q494 284 494 272 494 267 490 263 493 230 493 192 493 166 491 157T478 137Q466 125 455 125Z" glyph-name="logicalnot" horiz-adv-x="465" unicode="&#xac;"/><glyph d="M158 178T143 183Q129 183 124 186T114 197Q108 206 108 211 108 217 119 220T158 227Q193 235 221 238T290 241Q316 241 325 239T345 226Q357 214 357 203 357 194 350 190T329 188L266 183Q260 183 234 181T178 178Q158 178 143 183Z" glyph-name="uni00AD" horiz-adv-x="326" unicode="&#xad;"/><glyph d="M288 90T245 116 183 193Q173 210 167 240 165 252 163 260 162 261 162 265T160 270Q159 272 159 284 159 313 161 319 164 322 164 325T163 329Q161 333 161 339 161 357 172 389T198 449 218 480Q220 480 220 483T221 487Q226 494 258 514T318 548Q356 567 392 567 470 567 534 477 537 467 546 452T556 432Q569 413 575 385T578 352Q579 350 579 346T579 339Q581 337 581 321 581 301 578 276T571 249Q570 249 569 248T569 245Q571 243 559 230T539 216Q539 216 539 215T542 213Q545 211 527 191T483 151 437 123L429 115Q422 105 398 98T354 92Q288 90 245 116ZM299 144T320 144Q359 144 413 174 439 186 470 212T500 252L499 256Q499 267 506 270 515 278 520 301T526 349Q526 376 519 389 519 390 514 397T510 409Q510 416 505 425T472 473Q429 506 386 506 368 506 358 502T346 498Q288 481 261 444T222 360Q207 314 207 296 207 282 219 262 218 252 222 238T225 221Q226 215 237 200T262 170 288 153Q299 144 320 144ZM303 209T291 209Q282 209 275 216T268 233Q268 245 276 267T287 295Q287 317 291 317 294 336 300 354T326 398Q326 405 327 409T328 416Q328 421 323 426 320 429 320 433 320 439 331 447 331 456 354 456L372 455Q375 455 382 454T393 452 400 448Q413 447 425 441T438 432Q446 425 451 415T457 396Q457 383 455 376T443 356Q427 326 393 302L381 289Q383 283 396 268T417 250L425 252Q432 252 432 241 432 235 431 230 430 228 428 224T424 217 420 215Q416 215 404 224 393 226 389 229T375 241Q369 246 360 253T335 273Q335 273 332 273T321 275L313 254Q313 242 307 221 303 209 291 209ZM358 319T371 330 390 351Q396 354 410 373 412 377 413 382T414 397Q416 401 416 403 416 407 411 410 407 414 397 417T382 422Q382 422 380 420T369 410Q368 408 366 398T356 384Q335 317 343 315 358 319 371 330Z" glyph-name="registered" horiz-adv-x="496" unicode="&#xae;"/><glyph d="M281 461T269 465Q255 465 250 467T240 477Q235 487 235 490 235 497 245 500T281 507Q319 513 345 515T407 518Q431 518 439 516T459 506Q469 495 469 484 469 465 443 468 413 465 383 465L361 464Q313 461 301 461 281 461 269 465Z" glyph-name="overscore" horiz-adv-x="353" unicode="&#xaf;"/><glyph d="M298 426T277 436 245 459 225 491Q217 506 213 531T207 562Q207 578 215 606T236 651Q245 668 255 678T275 697 292 710Q305 716 316 720T335 724Q393 724 431 693T470 602Q470 569 463 548T446 512 411 470Q374 426 333 426 298 426 277 436ZM335 478T355 493 390 533 405 589Q405 631 395 651T362 671Q313 671 294 640T275 554Q275 526 285 502T322 478Q335 478 355 493Z" glyph-name="degree" horiz-adv-x="283" unicode="&#xb0;"/><glyph d="M129 253T124 256 114 267Q108 276 108 281 108 287 119 290T158 297Q192 304 262 307 260 334 260 373 260 394 262 401T275 417Q288 427 298 427 307 427 311 421T313 405L318 354 320 309 410 311Q436 311 445 309T465 296Q477 284 477 273 477 264 470 260T449 258L386 253 322 251 323 188Q323 172 318 160 318 149 315 145T304 137Q294 132 290 132 284 132 281 140T274 172Q269 193 265 249L178 248Q158 248 143 253 129 253 124 256ZM436 81T445 79 465 66Q477 54 477 43 477 34 470 30T449 28L386 23Q353 22 289 20T178 18Q158 18 143 23 129 23 124 26T114 37Q108 46 108 51 108 57 119 60T158 67Q188 74 271 77T410 81Q436 81 445 79Z" glyph-name="plusminus" horiz-adv-x="446" unicode="&#xb1;"/><glyph d="M205 348T195 356 182 371Q182 377 187 388T197 399Q198 398 203 410T211 429L221 437 225 439H223L244 460H243L264 482Q280 498 291 511 308 528 321 543T335 562Q336 563 339 567T347 573L366 590Q373 606 389 626L407 662Q408 664 408 668 408 671 404 673T392 678H393Q380 681 366 681 338 681 310 662 299 660 293 656 286 652 278 652 272 652 268 653L262 660 253 671 244 688 271 704Q323 736 357 736 365 736 377 732 385 731 391 730T399 728Q411 727 426 712T449 681V682Q458 667 458 652 458 625 434 591 428 582 389 539T340 487Q331 481 296 445T263 408L266 406Q266 406 272 408 290 415 327 420T384 426Q392 426 394 425 397 426 406 426 428 426 451 419L456 417Q457 416 460 416 468 413 471 408 474 402 477 399 487 390 487 385 487 379 473 379 457 379 437 383 417 383 408 380 404 378 386 378L379 377H373Q352 380 317 368 300 361 260 352T211 345Q205 348 195 356Z" glyph-name="uni00B2" horiz-adv-x="320" unicode="&#xb2;"/><glyph d="M262 310T237 321 213 349Q214 360 216 363T227 367L247 365Q261 362 275 362 308 362 341 375T391 409Q408 428 408 449 408 459 403 469T387 486Q376 496 349 504T304 515Q296 513 295 513 289 513 274 522 267 529 261 541L257 547Q256 554 268 563T327 601L332 603H331L337 607Q413 655 433 673H432Q442 687 442 694 442 701 431 704 409 706 398 706 382 706 378 702 372 704 350 700T326 692Q325 689 307 683T286 678Q280 679 272 694T263 718Q267 724 282 733T311 750Q326 754 360 756T412 757H413Q452 753 473 732T495 679Q495 669 489 659T465 629L461 625 451 618Q424 598 409 589L398 582 391 577 383 570 376 565 363 555 380 542Q398 533 417 515T447 481Q457 454 457 437 457 384 397 342 377 329 349 321T294 310Q262 310 237 321Z" glyph-name="uni00B3" horiz-adv-x="320" unicode="&#xb3;"/><glyph d="M340 450T337 463 334 483Q336 492 377 536T432 585Q437 588 441 588 455 588 473 557 477 548 464 534T422 496Q388 468 380 457 375 448 370 443T361 437Q357 437 347 444 340 450 337 463Z" glyph-name="acute" horiz-adv-x="353" unicode="&#xb4;"/><glyph d="M58-169T47-156 36-133Q36-124 44-96T63-35Q78 12 94 66T118 162Q128 216 158 281 190 344 204 365 209 367 217 367 227 367 233 361T241 345Q244 341 244 334 244 309 214 252 175 158 175 122 175 101 187 97 192 94 198 94 223 94 258 128T325 237Q339 271 342 307 341 310 341 316 341 334 359 345 363 351 370 354T379 354L395 355Q398 356 401 350T407 341Q414 335 414 319 414 286 385 218 366 178 360 157T352 115Q352 77 381 52 391 45 393 37T394 15Q392 6 383 1T362-5Q349-5 339 2 315 25 303 70 301 76 301 91T301 112Q295 97 279 85 256 62 233 51 198 28 176 28 159 28 144 43L133 3Q98-103 86-135T69-173Q58-169 47-156Z" glyph-name="uni00B5" horiz-adv-x="370" unicode="&#xb5;"/><glyph d="M166-35T166-20Q166-10 173-2 173 1 177 12T184 30Q193 62 209 102T235 158L241 178Q245 196 248 200 261 230 271 243 274 259 279 273T286 291Q281 292 272 292 241 292 219 296 194 305 179 327T164 384Q164 391 166 409 168 416 176 444T198 494 230 530Q272 560 297 573T375 607Q407 607 456 614 524 609 554 597T581 562Q580 558 580 552T573 537L559 510Q545 481 535 464 519 432 500 379 489 358 482 339T473 315L460 292Q458 282 449 259T429 214Q399 143 395 120L384 93Q367 54 361 44L349 2H330Q327 4 319 6T306 16Q304 26 304 27 304 34 308 55 311 62 317 73T326 88Q331 91 332 99T334 109Q334 120 349 142L357 168Q357 174 366 190 380 218 384 234 385 238 389 251T398 264Q399 270 400 277T403 291Q408 299 413 312T420 330Q425 336 427 340T431 346Q426 346 445 385 449 391 455 412T463 439Q466 445 478 470T501 515Q513 553 513 562 510 562 501 563T484 565Q465 565 461 553 457 543 430 497 430 497 412 455 398 425 394 412 377 378 366 349 349 315 343 292 338 282 324 247 289 160 275 138 272 129 270 118T266 102Q266 97 254 63T235 12L215-40Q212-45 209-48T201-52Q198-52 181-47 166-35 166-20Z" glyph-name="paragraph" horiz-adv-x="424" unicode="&#xb6;"/><glyph d="M151 255T146 272 146 289Q154 290 164 306T174 334Q174 338 177 341T184 346Q192 351 198 351 215 351 229 327 235 314 235 304 235 295 230 286T212 261Q195 238 180 238 170 238 158 248 151 255 146 272Z" glyph-name="middot" horiz-adv-x="187" unicode="&#xb7;"/><glyph d="M155-179T143-179Q108-179 61-165 44-159 44-144 44-135 50-128T66-121Q71-121 74-122 81-124 103-131T141-139Q161-139 168-125 172-120 172-112 172-100 155-81 151-76 140-62T117-37Q106-22 106-12 106 1 123 16T184 53L217 30Q189 16 175 6T161-17Q162-19 181-43 192-55 201-68T214-94Q217-106 217-116 217-141 202-156T160-178Q155-179 143-179Z" glyph-name="cedilla" horiz-adv-x="353" unicode="&#xb8;"/><glyph d="M356 307T352 307Q340 307 326 323 322 327 322 338 322 351 326 367L330 386Q334 409 338 424T344 444Q350 447 371 524L383 566 396 616 411 671Q391 658 356 629 345 622 321 602 306 588 291 579 279 568 271 562T258 556Q254 556 247 561 229 576 229 593 229 598 232 604 237 607 247 614T270 631Q288 646 293 648 294 648 297 651L301 654 313 664H312Q320 672 356 699 355 698 373 713L389 726Q415 745 437 756T465 767Q469 765 477 758T489 743V739Q489 728 484 716 474 687 460 640T433 552Q422 513 420 507 418 505 418 500 410 478 404 449 387 408 379 360L372 340Q365 316 359 310 356 307 352 307Z" glyph-name="uni00B9" horiz-adv-x="320" unicode="&#xb9;"/><glyph d="M238 313T231 318 209 337Q188 362 188 387 188 396 189 401 190 403 190 409L189 419 191 418Q188 422 188 423T190 427L188 426Q188 427 189 427T190 429L196 431 193 439Q194 450 202 474T221 518Q230 534 247 557T278 594Q297 612 312 621T348 636H347Q369 642 372 642 382 642 396 627 418 615 427 597T437 546Q437 489 394 418 376 389 360 374T315 339H316Q299 326 285 320T250 313Q238 313 231 318ZM283 364T321 411Q340 434 351 456T373 511Q377 523 377 545 377 571 373 575H374Q366 579 361 579 345 579 328 562 293 528 252 427 244 401 244 391 244 379 248 372T260 364Q283 364 321 411Z" glyph-name="ordmasculine" horiz-adv-x="283" unicode="&#xba;"/><glyph d="M233-1T229-1Q224-1 219 3 213 7 205 9T192 13 186 20Q186 22 189 29T198 42L224 63Q261 91 325 148 370 189 385 207T398 242Q387 268 349 305T247 378Q219 392 201 407T182 434Q182 442 194 445L210 446Q237 446 272 431L290 421Q320 406 333 398T358 375Q390 357 409 336T446 282L470 240 477 210Q469 208 458 199T446 189Q433 173 412 153T336 87Q296 57 281 41T262 22Q242 0 236 0 233-1 229-1ZM433-1T429-1Q424-1 419 3 413 7 405 9T392 13 386 20Q386 22 389 29T398 42L424 63Q461 91 525 148 570 189 585 207T598 242Q587 268 549 305T447 378Q419 392 401 407T382 434Q382 442 394 445L410 446Q437 446 472 431L490 421Q520 406 533 398T558 375Q590 357 609 336T646 282L670 240 677 210Q669 208 658 199T646 189Q633 173 612 153T536 87Q496 57 481 41T462 22Q442 0 436 0 433-1 429-1Z" glyph-name="guillemotright" horiz-adv-x="708" unicode="&#xbb;"/><glyph d="M316 207T312 207Q300 207 286 223 282 227 282 238 282 251 286 267L290 286Q294 309 298 324T304 344Q310 347 331 424L343 466 356 516 371 571Q351 558 316 529 305 522 281 502 266 488 251 479 239 468 231 462T218 456Q214 456 207 461 189 476 189 493 189 498 192 504 197 507 207 514T230 531Q248 546 253 548 254 548 257 551L261 554 273 564H272Q280 572 316 599 315 598 333 613L349 626Q375 645 397 656T425 667Q429 665 437 658T449 643V639Q449 628 444 616 434 587 420 540T393 452Q382 413 380 407 378 405 378 400 370 378 364 349 347 308 339 260L332 240Q325 216 319 210 316 207 312 207ZM241-9T241 18Q241 50 275 97 297 115 300 125 308 139 399 240 460 309 463 314H464Q468 314 472 319T479 331Q482 339 489 345T503 353Q505 357 508 361T512 368Q512 370 516 374T521 382Q548 405 663 523T784 652Q789 661 795 661 797 661 803 659 807 661 811 661 815 661 819 659 819 658 820 653T826 640Q830 633 830 625 830 616 823 605 816 592 809 583T776 552L746 525Q737 515 678 458 618 402 617 398 606 396 597 378L578 359Q525 308 524 304 521 300 508 295 507 296 506 294T504 290Q504 286 495 274T470 249Q420 189 361 114T291 18Q283-1 279-7T267-14Q241-9 241 18ZM684-32T684-21Q684-9 690 21 693 45 700 74 706 98 707 107 713 122 716 131T720 144Q713 142 698 136 673 130 651 130 615 130 600 159 596 165 593 175T590 194Q590 205 594 209V208L600 224 607 243 613 258 615 263Q617 267 617 271 624 287 659 342T706 410L707 411Q717 417 726 417 734 417 738 412 740 405 741 392T741 376Q740 372 724 346L717 340 714 337H715Q672 270 650 223 645 208 642 195T640 181H639Q641 180 648 180 666 180 690 189 725 197 736 203 740 203 744 204T748 208H752L753 223 760 242 772 270Q774 274 779 286T792 312L809 354Q815 371 819 379T829 387Q835 387 841 384T849 373V374Q856 364 856 356 856 351 853 343 846 322 844 318L841 309 835 296Q831 291 830 287T828 281Q767 136 752 86 743 56 737 36T731 5Q731 0 735-10 736-27 727-38T705-50Q692-50 688-36V-37Q684-32 684-21Z" glyph-name="onequarter" horiz-adv-x="800" unicode="&#xbc;"/><glyph d="M316 207T312 207Q300 207 286 223 282 227 282 238 282 251 286 267L290 286Q294 309 298 324T304 344Q310 347 331 424L343 466 356 516 371 571Q351 558 316 529 305 522 281 502 266 488 251 479 239 468 231 462T218 456Q214 456 207 461 189 476 189 493 189 498 192 504 197 507 207 514T230 531Q248 546 253 548 254 548 257 551L261 554 273 564H272Q280 572 316 599 315 598 333 613L349 626Q375 645 397 656T425 667Q429 665 437 658T449 643V639Q449 628 444 616 434 587 420 540T393 452Q382 413 380 407 378 405 378 400 370 378 364 349 347 308 339 260L332 240Q325 216 319 210 316 207 312 207ZM210-9T210 18Q210 50 244 97 266 115 269 125 277 139 368 240 429 309 432 314H433Q437 314 441 319T448 331Q451 339 458 345T472 353Q474 357 477 361T481 368Q481 370 485 374T490 382Q517 405 632 523T753 652Q758 661 764 661 766 661 772 659 776 661 780 661 784 661 788 659 788 658 789 653T795 640Q799 633 799 625 799 616 792 605 785 592 778 583T745 552L715 525Q706 515 647 458 587 402 586 398 575 396 566 378L547 359Q494 308 493 304 490 300 477 295 476 296 475 294T473 290Q473 286 464 274T439 249Q389 189 330 114T260 18Q252-1 248-7T236-14Q210-9 210 18ZM519-2T509 6 496 21Q496 27 501 38T511 49Q512 48 517 60T525 79L535 87 539 89H537L558 110H557L578 132Q594 148 605 161 622 178 635 193T649 212Q650 213 653 217T661 223L680 240Q687 256 703 276L721 312Q722 314 722 318 722 321 718 323T706 328H707Q693 331 680 331 652 331 624 312 613 310 607 306 600 302 592 302 586 302 582 303L576 310 567 321 558 338 585 354Q637 386 671 386 679 386 691 382 699 381 705 380T713 378Q725 377 740 362T763 331V332Q772 317 772 302 772 275 748 241 742 232 703 189T654 137Q645 131 610 95T577 58L580 56Q580 56 586 58 604 65 641 70T698 76Q706 76 708 75 711 76 720 76 742 76 765 69L770 67Q771 66 774 66 782 63 785 58 788 52 791 49 801 40 801 35 801 29 787 29 771 29 751 33 731 33 722 30 718 28 700 28L693 27H687Q666 30 631 18 614 11 574 2T525-5Q519-2 509 6Z" glyph-name="onehalf" horiz-adv-x="800" unicode="&#xbd;"/><glyph d="M255-9T255 18Q255 50 289 97 311 115 314 125 322 139 413 240 474 309 477 314H478Q482 314 486 319T493 331Q496 339 503 345T517 353Q519 357 522 361T526 368Q526 370 530 374T535 382Q562 405 677 523T798 652Q803 661 809 661 811 661 817 659 821 661 825 661 829 661 833 659 833 658 834 653T840 640Q844 633 844 625 844 616 837 605 830 592 823 583T790 552L760 525Q751 515 692 458 632 402 631 398 620 396 611 378L592 359Q539 308 538 304 535 300 522 295 521 296 520 294T518 290Q518 286 509 274T484 249Q434 189 375 114T305 18Q297-1 293-7T281-14Q255-9 255 18ZM222 210T197 221 173 249Q174 260 176 263T187 267L207 265Q221 262 235 262 268 262 301 275T351 309Q368 328 368 349 368 359 363 369T347 386Q336 396 309 404T264 415Q256 413 255 413 249 413 234 422 227 429 221 441L217 447Q216 454 228 463T287 501L292 503H291L297 507Q373 555 393 573H392Q402 587 402 594 402 601 391 604 369 606 358 606 342 606 338 602 332 604 310 600T286 592Q285 589 267 583T246 578Q240 579 232 594T223 618Q227 624 242 633T271 650Q286 654 320 656T372 657H373Q412 653 433 632T455 579Q455 569 449 559T425 529L421 525 411 518Q384 498 369 489L358 482 351 477 343 470 336 465 323 455 340 442Q358 433 377 415T407 381Q417 354 417 337 417 284 357 242 337 229 309 221T254 210Q222 210 197 221ZM684-32T684-21Q684-9 690 21 693 45 700 74 706 98 707 107 713 122 716 131T720 144Q713 142 698 136 673 130 651 130 615 130 600 159 596 165 593 175T590 194Q590 205 594 209V208L600 224 607 243 613 258 615 263Q617 267 617 271 624 287 659 342T706 410L707 411Q717 417 726 417 734 417 738 412 740 405 741 392T741 376Q740 372 724 346L717 340 714 337H715Q672 270 650 223 645 208 642 195T640 181H639Q641 180 648 180 666 180 690 189 725 197 736 203 740 203 744 204T748 208H752L753 223 760 242 772 270Q774 274 779 286T792 312L809 354Q815 371 819 379T829 387Q835 387 841 384T849 373V374Q856 364 856 356 856 351 853 343 846 322 844 318L841 309 835 296Q831 291 830 287T828 281Q767 136 752 86 743 56 737 36T731 5Q731 0 735-10 736-27 727-38T705-50Q692-50 688-36V-37Q684-32 684-21Z" glyph-name="threequarters" horiz-adv-x="800" unicode="&#xbe;"/></font>
</defs>
</svg>
