<svg fill="none" height="24" viewBox="0 0 24 24" width="24" xmlns="http://www.w3.org/2000/svg"><path d="m12 3c-4.9725 0-9 4.13211-9 9.2284 0 4.0781 2.5785 7.5364 6.15375 8.7557.45.0868.615-.1988.615-.4438 0-.2191-.0075-.7998-.01125-1.5691-2.5035.5565-3.0315-1.238-3.0315-1.238-.4095-1.0651-1.00125-1.35-1.00125-1.35-.81525-.5721.063-.5603.063-.5603.90375.0641 1.3785.9508 1.3785.9508.8025 1.411 2.10675 1.0033 2.62125.7677.081-.5971.3128-1.0033.57-1.2341-1.99875-.2309-4.0995-1.0244-4.0995-4.5602 0-1.0072.34875-1.83051.92625-2.47615-.10125-.23321-.405-1.17155.07875-2.44249 0 0 .75375-.2473 2.475.94616.72-.20504 1.485-.30677 2.25-.31147.765.0047 1.53.10643 2.25.31147 1.71-1.19346 2.4637-.94616 2.4637-.94616.4838 1.27094.1801 2.20928.09 2.44249.5738.64564.9225 1.46895.9225 2.47615 0 3.5452-2.1037 4.3254-4.1062 4.5524.315.277.6075.8428.6075 1.7076 0 1.2349-.0112 2.2273-.0112 2.527 0 .2418.1574.5306.6187.4382 3.6007-1.2114 6.177-4.6721 6.177-8.7439 0-5.09629-4.0297-9.2284-9-9.2284z" fill="#67798e"/></svg>