<svg fill="none" height="24" viewBox="0 0 24 24" width="24" xmlns="http://www.w3.org/2000/svg"><path clip-rule="evenodd" d="m7.60063 2.18182h8.79847c2.9882 0 5.4192 2.43099 5.4191 5.41892v8.79856c0 2.9879-2.4309 5.4189-5.4191 5.4189h-8.79847c-2.98793 0-5.41881-2.4309-5.41881-5.4189v-8.79856c0-2.98793 2.43088-5.41892 5.41881-5.41892zm8.79867 17.89408c2.0273 0 3.6768-1.6493 3.6768-3.6766h-.0001v-8.79856c0-2.02726-1.6495-3.67669-3.6769-3.67669h-8.79847c-2.02726 0-3.67657 1.64943-3.67657 3.67669v8.79856c0 2.0273 1.64931 3.6768 3.67657 3.6766zm-9.54215-8.0758c0-2.83586 2.30704-5.14296 5.14285-5.14296 2.8358 0 5.1429 2.3071 5.1429 5.14296 0 2.8358-2.3071 5.1428-5.1429 5.1428-2.83581 0-5.14285-2.307-5.14285-5.1428zm1.77084-.0001c0 1.8593 1.51271 3.3719 3.37201 3.3719s3.372-1.5126 3.372-3.3719c0-1.8594-1.5126-3.3721-3.372-3.3721s-3.37201 1.5127-3.37201 3.3721z" fill="#67798e" fill-rule="evenodd"/></svg>