<svg fill="none" height="24" viewBox="0 0 24 24" width="24" xmlns="http://www.w3.org/2000/svg"><path d="m19.2 3h-14.4c-.99 0-1.8.81-1.8 1.8v14.4c0 .99.81 1.8 1.8 1.8h14.4c.99 0 1.8-.81 1.8-1.8v-14.4c0-.99-.81-1.8-1.8-1.8zm-10.8 15.3h-2.7v-8.1h2.7zm-1.35-9.63c-.9 0-1.62-.72-1.62-1.62s.72-1.62 1.62-1.62 1.62.72 1.62 1.62-.72 1.62-1.62 1.62zm11.25 9.63h-2.7v-4.77c0-.72-.63-1.35-1.35-1.35s-1.35.63-1.35 1.35v4.77h-2.7v-8.1h2.7v1.08c.45-.72 1.44-1.26 2.25-1.26 1.71 0 3.15 1.44 3.15 3.15z" fill="#67798e"/></svg>