<svg fill="none" height="24" viewBox="0 0 24 24" width="24" xmlns="http://www.w3.org/2000/svg"><path clip-rule="evenodd" d="m21.8182 6.14597c-.6826.30246-1.415.50758-2.1845.59915.7857-.47051 1.3872-1.21681 1.6722-2.10336-.737.43573-1.5506.75212-2.4174.92364-.6942-.74052-1.6815-1.20176-2.7767-1.20176-2.101 0-3.8045 1.70355-3.8045 3.80342 0 .29782.0336.5887.0985.86685-3.16143-.15879-5.96473-1.67342-7.84094-3.97497-.32797.56091-.51455 1.21449-.51455 1.91215 0 1.31997.67215 2.48464 1.69197 3.16601-.62348-.0208-1.20988-.19234-1.72324-.47743v.04752c0 1.84261 1.31185 3.38041 3.0513 3.73041-.3187.0858-.65476.1333-1.00242.1333-.24567 0-.48324-.0244-.71618-.0707.48439 1.5123 1.88897 2.6121 3.55312 2.6422-1.30143 1.0198-2.9424 1.6259-4.72473 1.6259-.30709 0-.60958-.0185-.90739-.0521 1.68384 1.0812 3.6829 1.7117 5.83145 1.7117 6.99841 0 10.82391-5.7967 10.82391-10.82393l-.0128-.49251c.7475-.53312 1.3941-1.20294 1.9029-1.96549z" fill="#67798e" fill-rule="evenodd"/></svg>