<svg enable-background="new 0 0 390.6900024 64.2200012" height="64.220001" viewBox="0 0 390.6900024 64.2200012" width="390.690002" xmlns="http://www.w3.org/2000/svg"><g fill="#495057"><path d="m51.4752731 46.3711166c-.0791016.2245979-1.3271027 4.5370979-4.3778992 8.9902-2.6338005 3.8495979-5.3701019 7.6913986-9.6777 7.7694969-4.232502.0781021-5.5938015-2.5116997-10.4307022-2.5116997-4.8417988 0-6.3563995 2.4336014-10.3584003 2.5898018-4.1591988.1562996-7.3270988-4.1640015-9.982399-7.9980011-5.4307001-7.8516005-9.5742002-22.1835975-4.0029001-31.8515986 2.7607002-4.8066006 7.7098999-7.8476 13.0770998-7.9256992 4.0858994-.0782003 7.9355011 2.7440987 10.4346008 2.7440987 2.4969997 0 7.1766987-3.3944988 12.0995998-2.8983994 2.0596008.0878 7.8446999.8320007 11.5625 6.2714005-.2969017.1875-6.9053001 4.0331993-6.8330002 12.0312843.0858994 9.5684165 8.3935013 12.748001 8.4892006 12.7891158m-16.445301-36.2793007c2.2139015-2.6738996 3.6982994-6.3925993 3.2901001-10.0918159-3.1796989.1171166-7.0331993 2.1171165-9.3125 4.789-2.0450001 2.3653164-3.8388996 6.1504159-3.3526001 9.7735157 3.5440006.2754007 7.169899-1.8027997 9.375-4.4706998z"/><path d="m68.3286514 38.9968109c0-7.8100605 4.4091797-12.7319355 11.2963867-12.7319355 5.5883789 0 9.8095703 3.4350586 10.4589844 8.5791035h-3.7939453c-.6835938-3.161623-3.3154297-5.2294941-6.6650391-5.2294941-4.4775391 0-7.3828125 3.6743183-7.3828125 9.3823261 0 5.7592773 2.8710938 9.3994141 7.3999023 9.3994141 3.4350586 0 5.8789062-1.7602539 6.6479492-4.7338867h3.8110352c-.9399414 5.0927734-4.8022461 8.0834961-10.4760742 8.0834961-6.9213867 0-11.2963867-4.8876954-11.2963867-12.7490235z"/><path d="m92.1304092 42.3464203c0-5.6567383 3.3325195-9.2114258 8.527832-9.2114258 5.2124023 0 8.527832 3.5546875 8.527832 9.2114258 0 5.6738281-3.2983398 9.2114258-8.527832 9.2114258s-8.527832-3.5375977-8.527832-9.2114258zm13.2958985 0c0-3.8793945-1.7773438-6.1694336-4.7680664-6.1694336s-4.7680664 2.3071289-4.7680664 6.1694336c0 3.8964844 1.7773438 6.1694336 4.7680664 6.1694336s4.7680664-2.2729492 4.7680664-6.1694336z"/><path d="m112.0400772 33.3571625h3.5205078v3.059082h.0854492c1.0766602-2.1533203 2.8881836-3.2641602 5.6567383-3.2641602 3.9648438 0 6.237793 2.5463867 6.237793 6.6650391v11.5185547h-3.7084961v-10.8007812c0-2.7001953-1.2475586-4.2041016-3.8452148-4.2041016-2.6489258 0-4.2553711 1.8798828-4.2553711 4.6484375v10.3564453h-3.6914062v-17.9785156z"/><path d="m138.1616516 33.1520844c3.9819336 0 6.8359375 2.2045898 6.9213867 5.3833008h-3.4692383c-.1538086-1.5893555-1.5039062-2.5634766-3.5546875-2.5634766-1.9995117 0-3.3325195.9228516-3.3325195 2.3242188 0 1.0766602.8886719 1.7944336 2.7514648 2.2558594l3.0249023.7006836c3.6230469.871582 4.9902344 2.2045898 4.9902344 4.8364258 0 3.2470703-3.0761719 5.46875-7.4682617 5.46875-4.2382812 0-7.0922852-2.1704102-7.3657227-5.4516602h3.6572266c.2563477 1.7260742 1.640625 2.6489258 3.8793945 2.6489258 2.2045898 0 3.5888672-.9057617 3.5888672-2.3413086 0-1.1108398-.6835938-1.7089844-2.5634766-2.1875l-3.2128906-.7861328c-3.2470703-.7861328-4.8876953-2.4438477-4.8876953-4.9389648.0000001-3.1787111 2.854004-5.3491212 7.0410157-5.3491212z"/><path d="m164.129425 51.3356781h-3.5375977v-3.0932617h-.0854492c-1.0253906 2.1533203-2.8198242 3.2983398-5.5712891 3.2983398-3.9135742 0-6.3061523-2.5292969-6.3061523-6.6479492v-11.5356445h3.6914062v10.8178711c0 2.734375 1.2988281 4.1870117 3.8452148 4.1870117 2.6660156 0 4.2724609-1.8457031 4.2724609-4.6484375v-10.3564453h3.6914062v17.9785156z"/><path d="m168.2563782 26.6750317h3.6914062v24.6606464h-3.6914062z"/><path d="m180.8764954 29.1017895v4.255373h3.4179688v2.9223633h-3.4179688v9.9121094c0 1.5380859.6835938 2.2558594 2.1875 2.2558594.3759766 0 .9746094-.0512695 1.2138672-.0854492v2.9052734c-.4101562.1025391-1.2304688.1708984-2.0507812.1708984-3.6401367 0-5.0585938-1.3671875-5.0585938-4.8535156v-10.3051758h-2.6147461v-2.9223633h2.6147461v-4.255373z"/><path d="m186.8149719 46.2258148c0-3.1445312 2.4101562-5.0415039 6.6826172-5.2978516l4.921875-.2734375v-1.3671875c0-1.9995117-1.3164062-3.1274414-3.5546875-3.1274414-2.0507812 0-3.4863281.9741211-3.7773438 2.5292969h-3.4521484c.1025391-3.2470703 3.1279297-5.5541992 7.3320312-5.5541992 4.2890625 0 7.1259766 2.3413086 7.1259766 5.8789062v12.3217773h-3.5371094v-2.956543h-.0859375c-1.0419922 1.9995117-3.3154297 3.2641602-5.6738281 3.2641602-3.5205078.0000001-5.9814453-2.1874999-5.9814453-5.4174804zm11.6044922-1.6235351v-1.3842773l-4.4267578.2734375c-2.2041016.1367188-3.4521484 1.09375-3.4521484 2.6318359 0 1.5722656 1.2988281 2.5976562 3.28125 2.5976562 2.5810546 0 4.5976562-1.7773437 4.5976562-4.1186523z"/><path d="m206.0151672 33.3571625h3.5205078v3.059082h.0859375c1.0761719-2.1533203 2.8876953-3.2641602 5.65625-3.2641602 3.9648438 0 6.2382812 2.5463867 6.2382812 6.6650391v11.5185547h-3.7089844v-10.8007812c0-2.7001953-1.2470703-4.2041016-3.8447266-4.2041016-2.6494141 0-4.2558594 1.8798828-4.2558594 4.6484375v10.3564453h-3.6914062v-17.9785156z"/><path d="m229.8559875 29.1017895v4.255373h3.4179688v2.9223633h-3.4179688v9.9121094c0 1.5380859.6835938 2.2558594 2.1875 2.2558594.3759766 0 .9736328-.0512695 1.2128906-.0854492v2.9052734c-.4101562.1025391-1.2304688.1708984-2.0507812.1708984-3.6396484 0-5.0585938-1.3671875-5.0585938-4.8535156v-10.3051758h-2.6142578v-2.9223633h2.6142578v-4.255373z"/><path d="m243.3647766 33.1520844c3.9824219 0 6.8359375 2.2045898 6.921875 5.3833008h-3.4697266c-.1533203-1.5893555-1.5039062-2.5634766-3.5546875-2.5634766-1.9990234 0-3.3320312.9228516-3.3320312 2.3242188 0 1.0766602.8886719 1.7944336 2.7509766 2.2558594l3.0253906.7006836c3.6230469.871582 4.9902344 2.2045898 4.9902344 4.8364258 0 3.2470703-3.0761719 5.46875-7.46875 5.46875-4.2382812 0-7.0917969-2.1704102-7.3652344-5.4516602h3.6572266c.2558594 1.7260742 1.640625 2.6489258 3.8789062 2.6489258 2.2050781 0 3.5888672-.9057617 3.5888672-2.3413086 0-1.1108398-.6835938-1.7089844-2.5634766-2.1875l-3.2128906-.7861328c-3.2470703-.7861328-4.8876953-2.4438477-4.8876953-4.9389648 0-3.1787111 2.8544922-5.3491212 7.0410156-5.3491212z"/><path d="m261.8042297 51.3356781v-24.6606464h3.46875l12.7832031 18.1835957h.1367188v-18.1835957h3.7255859v24.6606464h-3.4521484l-12.7832031-18.1665039h-.1533203v18.1665039z"/><path d="m301.785675 46.0549164c-.4960938 3.2641602-3.6748047 5.5029297-7.7421875 5.5029297-5.2294922 0-8.4765625-3.503418-8.4765625-9.1259766 0-5.6396484 3.2646484-9.296875 8.3232422-9.296875 4.9726562 0 8.1005859 3.4179688 8.1005859 8.8696289v1.2646484h-12.6982421v.222168c0 3.0761719 1.9316406 5.0927734 4.8369141 5.0927734 2.0507812 0 3.6572266-.9741211 4.1523438-2.5292969h3.5039061zm-12.4755859-5.366211h8.9892578c-.0859375-2.7514648-1.8457031-4.5629883-4.4091797-4.5629883-2.546875.0000001-4.3925781 1.8457032-4.5800781 4.5629883z"/><path d="m309.980011 29.1017895v4.255373h3.4179688v2.9223633h-3.4179688v9.9121094c0 1.5380859.6835938 2.2558594 2.1875 2.2558594.3759766 0 .9736328-.0512695 1.2128906-.0854492v2.9052734c-.4101562.1025391-1.2304688.1708984-2.0507812.1708984-3.6396484 0-5.0585938-1.3671875-5.0585938-4.8535156v-10.3051758h-2.6142578v-2.9223633h2.6142578v-4.255373z"/><path d="m335.5718079 51.3356781h-3.8457031l-3.7773438-13.4667969h-.084961l-3.7431641 13.4667969h-3.8105469l-4.9384766-17.9785156h3.6914062l3.28125 14.1503906h.0683594l3.7421875-14.1503906h3.5546875l3.7597656 14.1503906h.0849609l3.28125-14.1503906h3.6582031z"/><path d="m341.4204407 42.3464203c0-5.6567383 3.3330078-9.2114258 8.5283203-9.2114258 5.2119141 0 8.5273438 3.5546875 8.5273438 9.2114258 0 5.6738281-3.2978516 9.2114258-8.5273438 9.2114258s-8.5283203-3.5375977-8.5283203-9.2114258zm13.2958984 0c0-3.8793945-1.7773438-6.1694336-4.7675781-6.1694336-2.9912109 0-4.7685547 2.3071289-4.7685547 6.1694336 0 3.8964844 1.7773438 6.1694336 4.7685547 6.1694336 2.9902344 0 4.7675781-2.2729492 4.7675781-6.1694336z"/><path d="m361.6802063 33.3571625h3.5205078v3.059082h.0859375c.5634766-2.0336914 2.2041016-3.2470703 4.3232422-3.2470703.5302734 0 .9746094.0683594 1.2646484.1367188v3.4521484c-.2900391-.1196289-.9394531-.222168-1.6572266-.222168-2.3759766 0-3.8457031 1.6064453-3.8457031 4.1357422v10.6640625h-3.6914062z"/><path d="m384.6401672 33.3571625h4.3408203l-7.4511719 7.7416992 7.7421875 10.2368164h-4.2900391l-6.1005859-7.980957-1.5380859 1.5209961v6.4599609h-3.6914062v-24.6606464h3.6914062v14.3896503h.0341797z"/></g></svg>