<svg height="200" preserveAspectRatio="none" viewBox="0 0 200 200" width="200" xmlns="http://www.w3.org/2000/svg"><g stroke="#bbb" stroke-width=".25"><path d="m-180 200 200-200"/><path d="m-160 200 200-200"/><path d="m-140 200 200-200"/><path d="m-120 200 200-200"/><path d="m-100 200 200-200"/><path d="m-80 200 200-200"/><path d="m-60 200 200-200"/><path d="m-40 200 200-200"/><path d="m-20 200 200-200"/><path d="m0 200 200-200"/><path d="m20 200 200-200"/><path d="m40 200 200-200"/><path d="m60 200 200-200"/><path d="m80 200 200-200"/><path d="m100 200 200-200"/><path d="m120 200 200-200"/><path d="m140 200 200-200"/><path d="m160 200 200-200"/><path d="m180 200 200-200"/></g></svg>