<svg fill="none" height="31" viewBox="0 0 329 31" width="329" xmlns="http://www.w3.org/2000/svg" xmlns:xlink="http://www.w3.org/1999/xlink"><mask id="a" height="31" maskUnits="userSpaceOnUse" width="329" x="0" y="0"><path d="m.147461.918457h327.973539v29.198843h-327.973539z" fill="#fff"/></mask><g mask="url(#a)"><path d="m270.105 20.3507c-16.726-1.9087-33.481-3.6023-50.257-5.0769 9.326.5418 18.647 1.123 27.962 1.7868.026 0 .05.0036.073.0036 7.419 1.0154 14.83 2.1025 22.222 3.2865zm-113.732-14.29798c2.221 0 4.439-.00359 6.66.01076 6.514.03947 13.023.13634 19.533.27986-2.851-.02153-5.699-.05023-8.546-.07535-4.652-.03946-9.3-.0574-13.952-.07176-1.233-.05381-2.464-.10046-3.695-.14351zm-72.0128-.32651c16.6128-1.06562 33.2508-1.67558 49.8918-1.82986-16.649.30856-33.277.94722-49.8918 1.82986zm79.0998 4.63209c-9.136-.305-18.276-.52028-27.418-.6925-7.823-.36239-15.651-.68889-23.479-.96876 6.851-.10046 13.7-.17222 20.549-.21886 23.627.25833 47.246 1.48542 70.787 3.59872-13.479-.7032-26.964-1.2701-40.439-1.7186zm163.679 12.5901c-21.953-2.8524-44.005-5.1379-66.106-6.9929-20.123-3.0139-40.35-5.4178-60.637-7.16158 16.335.22604 32.694.61713 49.016 1.40288 11.391 1.3563 22.759 2.9134 34.09 4.7074 1.747.2763 2.275-1.6074.487-1.8908-2.368-.3732-4.744-.7033-7.115-1.0585 13.461 1.2917 26.905 2.7843 40.319 4.4957 2.107.2691 2.41-1.9662.319-2.2711-12.764-1.8801-25.599-3.2759-38.475-4.34148-17.794-1.74734-35.627-3.11436-53.483-4.11899-60.956-5.6582126-122.48-5.213305-183.374 1.43519-10.3883.34086-20.6703 1.34549-30.5766 3.68838-1.61697.384-1.64029 1.4101-.8759 2.0344-.4483.061-.89395.1256-1.33965.1902-2.38653.3121-4.76788.6458-7.14663 1.0118-3.034346.47-2.3969 3.7279.63226 3.2686 41.80702-6.3722 84.97452-6.5121 127.58452-5.5111 11.684.5167 23.363 1.1302 35.034 1.8693 51.843 3.2794 103.476 8.6793 154.845 15.9449 2.36.3373 3.752-2.2281 1.008-2.8093-11.259-2.3753-22.573-4.5603-33.92-6.5696.285.0251.57.0502.858.0754 6.742.6135 13.477 1.2701 20.214 1.9518 3.439.348 6.88.6745 10.321 1.0046 1.48.14 2.962.2871 4.441.4306.125.1005.283.1722.459.183 1.226.0753 2.446.1507 3.667.2224 1.085.0646.536-1.0907-.246-1.1912z" fill="#bae6fd" fill-opacity=".75"/></g></svg>