<svg height="180.5861" viewBox="0 0 944.6248 180.5861" width="944.6248" xmlns="http://www.w3.org/2000/svg"><path d="m811.176 52.178v41.799h38.738v41.798h41.798v-41.798-41.799h-41.798z" fill="#daf0f9"/><path d="m902.8261 52.1781h41.7987v41.7986h-41.7987z" fill="#38c1e7"/><path d="m849.9137 0h41.7986v41.7986h-41.7986z" fill="#95d6ef"/><path d="m64.006 85.0728h4.054a21.7059 21.7059 0 0 1 8.1138 1.4434 16.9765 16.9765 0 0 1 9.9136 10.0027 20.9288 20.9288 0 0 1 1.3558 7.5688 21.47 21.47 0 0 1 -1.3112 7.6209 17.0345 17.0345 0 0 1 -3.782 5.9914 17.5187 17.5187 0 0 1 -6.0869 3.9663 21.9518 21.9518 0 0 1 -8.2031 1.4437h-4.054zm-17.6665 53h26.1412a31.0753 31.0753 0 0 0 13.1122-2.7946 35.2518 35.2518 0 0 0 10.6353-7.48 34.4618 34.4618 0 0 0 7.12-10.864 33.3225 33.3225 0 0 0 -.0446-25.78 34.5783 34.5783 0 0 0 -7.163-10.8142 35.6527 35.6527 0 0 0 -10.6368-7.4366 30.8693 30.8693 0 0 0 -13.0231-2.7934h-26.1407zm69.3046 0h17.6665v-67.9628h-17.6665zm66.3346-24.337h14.5126a13.557 13.557 0 0 1 -1.7107 5.0474 10.702 10.702 0 0 1 -3.2046 3.3768 13.2208 13.2208 0 0 1 -4.37 1.8948 21.3278 21.3278 0 0 1 -5.043.5881 18.9036 18.9036 0 0 1 -7.7529-1.488 15.1942 15.1942 0 0 1 -5.5879-4.1935 17.9975 17.9975 0 0 1 -3.3813-6.3972 27.455 27.455 0 0 1 -1.1286-8.0262 27.158 27.158 0 0 1 1.3053-8.6529 20.3478 20.3478 0 0 1 3.61-6.62 15.5572 15.5572 0 0 1 5.5433-4.2366 17.0342 17.0342 0 0 1 7.208-1.4894 15.2761 15.2761 0 0 1 8.5192 2.4338q3.7422 2.4324 6.0824 8.0247l16.7667-6.9422q-4.691-9.6469-12.7068-14.2407a36.8914 36.8914 0 0 0 -18.6615-4.5975 40.4316 40.4316 0 0 0 -14.8718 2.615 33.2456 33.2456 0 0 0 -11.4031 7.2986 31.9511 31.9511 0 0 0 -7.2971 11.3125 42.3866 42.3866 0 0 0 .0446 29.2017 33.2751 33.2751 0 0 0 7.2971 11.357 32.6574 32.6574 0 0 0 11.2248 7.3476 38.5776 38.5776 0 0 0 14.4665 2.6165 41.2285 41.2285 0 0 0 10.9976-1.4434 35.8532 35.8532 0 0 0 9.5973-4.1935 30.006 30.006 0 0 0 7.6134-6.8487 32.6341 32.6341 0 0 0 5.138-9.4191 34.678 34.678 0 0 0 1.8042-8.2029 97.55 97.55 0 0 0 .45-9.8245h-35.0617zm47.5915 24.337h17.6666v-67.9628h-17.6668zm73.5486-53v-14.9628h-46.6916v14.9628h14.5128v53h17.6665v-53zm27.13 27.7628 7.93-22.6263 7.9311 22.6263zm24.6028 25.2369h18.8384l-25.8635-67.9625h-19.294l-25.8636 67.9621h18.8382l4.054-11.8084h25.2369zm27.9413-67.9625v67.9621h38.8481v-14.9621h-21.181v-53zm98.9682 0h-17.6666v67.9621h17.6666v-28.036h25.5089v28.036h17.66v-67.9621h-17.66v26.23h-25.5089zm94.9424 0h-38.6653v67.9621h38.6653v-14.9621h-21.0047v-11.7177h19.8331v-14.9623h-19.8331v-11.3572h21.0047zm35.149 42.7252 7.9312-22.6263 7.9312 22.6263zm24.6088 25.2369h18.8387l-25.87-67.9621h-19.2881l-25.87 67.9621h18.8382l4.0554-11.8084h25.2354zm27.9366-67.9621v67.9621h38.8481v-14.9621h-21.1815v-53zm85.9881 14.9628v-14.9628h-46.69v14.9628h14.5125v53h17.6665v-53zm26.8585-14.9628h-17.6666v67.9621h17.6666v-28.036h25.5087v28.036h17.6668v-67.9621h-17.6668v26.23h-25.5087z" fill="#38c1e7" transform="translate(-46.3395 -29.9827)"/><g fill="#2d4184"><path d="m599.073 161.3331a23.99 23.99 0 0 0 -17.448 7.0855 24.0816 24.0816 0 0 0 16.7743 41.2385 21.4367 21.4367 0 0 0 16.6118-7.256 19.4652 19.4652 0 0 0 4.0626-6.9135 31.7881 31.7881 0 0 0 1.2511-9.3733v-.4354h-18.0191v4.5643h12.423l-.1262 1.3a14.251 14.251 0 0 1 -5.3075 9.643 16.1863 16.1863 0 0 1 -10.6306 3.9411 18.95 18.95 0 0 1 -12.77-5.197 18.4312 18.4312 0 0 1 -6.3093-14.3225 19.3668 19.3668 0 0 1 19.62-19.6789c5.7855 0 10.7995 2.5038 14.9189 7.4421l3.5325-3.3511a29.0279 29.0279 0 0 0 -8.2972-6.4655 24.0971 24.0971 0 0 0 -10.2867-2.2214" transform="translate(-46.3395 -29.9827)"/><path d="m636.1157 133.2423h5.0818v46.4591h-5.0818z"/><path d="m443.179 133.243v46.459h24.87v-4.563h-19.788v-18.68h19.207v-4.558h-19.207v-14.1h19.788v-4.558z"/><path d="m851.6792 210.5688a14.4179 14.4179 0 0 0 10.5281-4.0911 13.6076 13.6076 0 0 0 4.1715-10.2867 11.8784 11.8784 0 0 0 -2.5181-7.7466c-1.7117-2.1378-4.5122-3.9916-8.31-5.5094l-4.9256-1.9942c-4.0516-1.6535-6.1089-3.9585-6.1089-6.8473a6.5308 6.5308 0 0 1 2.4786-5.21 9.816 9.816 0 0 1 10.648-.8219 9.746 9.746 0 0 1 2.9977 3.1964l4.0042-2.3524c-2.9219-4.46-6.7543-6.6311-11.6862-6.6311a14.3921 14.3921 0 0 0 -9.8023 3.4331 10.4974 10.4974 0 0 0 -3.85 8.3193c0 4.96 3.0781 8.66 9.411 11.3075l4.7537 1.9564a21.908 21.908 0 0 1 3.3826 1.7607 10.9013 10.9013 0 0 1 2.455 2.0952 8.0534 8.0534 0 0 1 1.4641 2.5575 9.4917 9.4917 0 0 1 .4607 2.9945 9.1121 9.1121 0 0 1 -2.6506 6.6864 9.7375 9.7375 0 0 1 -14.28-.994 11.5974 11.5974 0 0 1 -1.8318-5.2206l-5.1922 1.1359a15.61 15.61 0 0 0 4.58 8.8069 14.0009 14.0009 0 0 0 9.82 3.4552" transform="translate(-46.3395 -29.9827)"/><path d="m705.817 133.243v46.459h24.869v-4.563h-19.786v-18.68h19.206v-4.558h-19.206v-14.1h19.786v-4.558z"/><path d="m356.026 133.243v4.558h11.345v41.901h5.083v-41.901h11.311v-4.558z"/><path d="m62.2592 210.5688a14.403 14.403 0 0 0 10.5249-4.0911 13.5955 13.5955 0 0 0 4.1778-10.2867 11.861 11.861 0 0 0 -2.518-7.7434c-1.7118-2.1378-4.506-3.9948-8.3035-5.5126l-4.9336-1.9942c-4.0468-1.65-6.101-3.9554-6.101-6.8473a6.52 6.52 0 0 1 2.466-5.2065 9.8248 9.8248 0 0 1 10.6575-.8251 9.7877 9.7877 0 0 1 2.9929 3.1964l4.0058-2.3524c-2.9251-4.46-6.76-6.6311-11.6893-6.6311a14.3952 14.3952 0 0 0 -9.8024 3.4331 10.4992 10.4992 0 0 0 -3.8464 8.3193c0 4.96 3.0781 8.66 9.4079 11.3075l4.7568 1.9564a22.1 22.1 0 0 1 3.3827 1.7639 10.8382 10.8382 0 0 1 2.4486 2.092 7.7078 7.7078 0 0 1 1.4657 2.567 9.2611 9.2611 0 0 1 .4622 2.985 9.1174 9.1174 0 0 1 -2.6489 6.6848 9.014 9.014 0 0 1 -6.617 2.6553 8.9424 8.9424 0 0 1 -7.6646-3.6492 11.6217 11.6217 0 0 1 -1.8317-5.2191l-5.1923 1.1359a15.6414 15.6414 0 0 0 4.5833 8.8069 14.1807 14.1807 0 0 0 9.8166 3.4552" transform="translate(-46.3395 -29.9827)"/><path d="m88.114 133.243v4.558h11.349v41.901h5.083v-41.901h11.311v-4.558z"/><g transform="translate(-46.3395 -29.9827)"><path d="m328.888 172.6082 9.1019 20.6555h-18.6407zm-22.4588 37.0764h5.4116l5.4936-11.8629h22.6577l5.1749 11.8629h5.543l-21.7426-47.898z"/><path d="m236.8916 188.9051a12.1824 12.1824 0 0 0 7.2575-4.3624 12.7151 12.7151 0 0 0 2.74-8.1789 12.0645 12.0645 0 0 0 -4.3765-9.785c-2.6617-2.2246-7.16-3.3543-13.3665-3.3543h-7.54v46.4591h5.085v-19.9865h3.1318l14.0953 19.9865h6.1626l-14.9788-20.3983zm-10.2-3.2643v-17.8582h3.8291c9.4821 0 11.4732 4.7189 11.4732 8.6759 0 4.1888-2.04 9.1823-11.7556 9.1823z"/></g></g></svg>