<svg height="24" viewBox="0 0 24 24" width="24" xmlns="http://www.w3.org/2000/svg"><g fill="none" fill-rule="evenodd"><path d="m0 0h24v24h-24z"/><g fill="#335eea"><path d="m9.618 5-.883 2h-5.735a1 1 0 1 1 0-2zm4.764 0h6.618a1 1 0 0 1 0 2h-5.735zm-8.294 8-.882 2h-2.206a1 1 0 0 1 0-2zm11.824 0h3.088a1 1 0 0 1 0 2h-2.206zm-10.06-4-.881 2h-3.971a1 1 0 0 1 0-2h4.853zm8.295 0h4.853a1 1 0 0 1 0 2h-3.97zm-11.823 8-.883 2h-.441a1 1 0 0 1 0-2zm15.352 0h1.324a1 1 0 0 1 0 2h-.441z" opacity=".3"/><path d="m11.044 5.256h1.962l5.494 13.744h-2.5l-1.284-3.916h-5.526l-1.69 3.916h-2.5zm2.88 7.884-1.962-5.184-1.998 5.184z"/></g></g></svg>